<?xml version="1.0" encoding="UTF-8"?>
<svg id="Layer_2" data-name="Layer 2" xmlns="http://www.w3.org/2000/svg" viewBox="0 0 520 320">
  <defs>
    <style>
      .cls-1 {
        fill: #a3ab78;
      }

      .cls-1, .cls-2, .cls-3 {
        stroke-width: 0px;
      }

      .cls-3 {
        fill: #e41e20;
      }
    </style>
  </defs>
  <g id="_500x300_Background" data-name="500x300 Background">
    <rect class="cls-1" width="520" height="320" rx="10" ry="10"/>
  </g>
  <g id="Albania">
    <g>
      <path class="cls-3" d="m224.87,62.3c-2.84,0-4.59.87-4.59,2.04s1.75,2.26,4.59,2.26,4.59-.95,4.59-2.19c0-1.17-1.75-2.11-4.59-2.11Z"/>
      <path class="cls-3" d="m295.13,66.6c2.84,0,4.59-1.09,4.59-2.26s-1.75-2.04-4.59-2.04-4.59.95-4.59,2.11c0,1.24,1.75,2.19,4.59,2.19Z"/>
      <path class="cls-3" d="m10,310h500V10H10v300Zm152.84-106.09c3.13-3.72,6.63-4.01,11.01.73,4.59.15,7.8.22,12.39.36-2.48-2.11-3.79-3.64-6.27-5.76-3.79,1.24-7.51.8-9.11-3.43-1.24-1.46-2.62-2.26-5.76-2.41,2.11-1.82,3.94-2.48,7.87-.66,5.76-2.62,6.27,1.09,7.29,3.5,3.94,2.55,7.07,4.74,11.01,7.29,8.02-2.33,14.43-3.64,22.45-5.98-1.68-1.82-3.43-3.43-5.17-5.25-.44-1.53.36-2.33,1.68-2.55,12.9-2.62,20.26-7.65,24.78-20.63,1.9-5.39-2.19-7-3.57-3.72-1.97,4.59-4.08,9.62-9.84,13.56-2.04,1.31-7.94.22-4.45-3.06,3.64-2.92,5.17-4.15,7-11.3,0-3.57-3.79-5.25-5.9-1.75-2.26,7.07-2.48,10.13-6.56,14.72-3.06,3.5-7.14,5.83-9.11,5.76-3.57-.07-7.22-3.86-2.41-6.63,7-2.77,9.62-6.56,10.64-10.13,1.09-6.27-.15-9.26-4.01-6.2-5.47,6.12-15.96,17.49-21.43,22.74-6.12,4.59-13.19,4.74-18.8.07-3.21-3.64-2.04-7.58,2.99-6.71,11.3.95,19.97-4.59,29.37-19.46,1.82-3.35,2.33-8.16-1.75-4.59-4.66,6.2-11.52,11.52-17.93,13.78-6.34,2.26-12.24,1.46-13.7-.95-2.33-4.01-1.82-8.45,2.48-7,3.5,1.24,8.45,1.53,13.63-.44,5.17-1.97,10.57-6.2,16.25-13.41,1.97-4.08,1.31-7.51-2.62-5.39-9.33,7.8-21.36,14.07-27.55,10.28-4.52-2.77-4.59-9.84,1.17-9.4,11.59,1.53,15.96-.95,27.04-10.57,2.55-1.82,2.33-6.49-1.68-3.5-9.33,5.9-22.08,8.16-27.11,5.1-4.52-2.77-3.86-11.15,3.72-8.16,6.05,3.57,12.83,3.5,26.24-5.9,3.43-2.77.87-6.34-1.9-4.81-10.86,6.05-26.6,8.6-30.69-3.64-1.6-4.66,1.31-7.43,5.54-4.15,9.33,8.45,19.83,4.3,25.73.07,1.53-.07,4.81-5.9-.66-5.03-14.14,3.13-27.99.44-30.54-9.33-1.46-3.21,1.46-8.75,6.56-4.08,6.78,6.56,13.99,6.78,22.96,6.71,4.59-.95,4.66-5.9.8-6.63-7.07.15-14.14-2.92-19.75-5.98-5.47-3.06-9.99-7.43-11.44-13.41-.87-5.39,4.37-11.08,7.58-5.39,4.74,8.31,15.16,16.18,26.75,17.57.58-1.02,2.11-3.57,4.01-2.84,6.78,2.62,16.25,6.92,23.98,11.22,1.68.87-.29,5.39-.66,7.14-.44,4.45.95,7.29,2.33,8.89,1.38,1.6,5.25,2.7,7.36,2.11,4.3-1.09,6.63-4.81,5.9-11.44-.22-.73-.44-3.86-3.94-8.02-1.75-2.11-4.15-4.74-8.09-6.85-3.86-2.11-9.77-3.28-16.91-4.81-4.3-.87-6.49-2.48-6.78-4.23,2.11.51,5.47,2.26,7.73,1.82,2.19-.44,3.35-1.53,4.3-2.11-1.6-.29-4.59.07-7.29.07s-5.03-.51-6.63-.8c-3.28-.51-5.9-1.9-7.43-4.88-.73-3.28,1.46-3.86,3.5-1.75,1.68,1.82,2.04,2.48,3.13,3.28,1.09.8,2.92,1.53,4.23,1.75,2.7.44,5.32.95,8.75.15-.66-.87-2.19-2.19-3.57-3.06-1.38-.8-2.7-1.24-4.01-1.02-.87.15-1.97.95-2.92,2.33-.58-3.57.44-7.58,10.13-5.9-.15-2.7,5.61-3.86,9.11-3.79,1.97.07,5.98,1.17,8.89,2.55,4.59,1.38,9.18,2.41,14.5,2.77-3.06,2.62-3.64,2.77-6.78,4.96,4.66,1.68,8.38,5.25,9.99,7.58-4.08.22-5.47-.15-6.85.44,5.76,1.68,8.31,2.62,11.37,5.69-1.09.22-2.7.44-3.35.73-.73.29-.44.66.07,1.17,1.31.8,6.27,6.71,7.8,8.09,1.46-1.38,6.49-7.29,7.8-8.09.51-.51.8-.87.07-1.17-.66-.22-2.26-.51-3.35-.73,3.06-3.06,5.61-4.01,11.37-5.69-1.38-.58-2.77-.22-6.85-.44,1.6-2.33,5.25-5.83,9.99-7.58-3.06-2.19-3.72-2.33-6.78-4.96,5.32-.36,9.91-1.38,14.5-2.77,2.92-1.38,6.92-2.55,8.89-2.55,3.5-.07,9.26,1.09,9.11,3.79,9.69-1.68,10.71,2.33,10.13,5.9-.95-1.46-2.04-2.19-2.92-2.33-1.31-.22-2.62.15-4.01,1.02s-2.92,2.19-3.57,3.06c3.43.87,6.05.29,8.75-.15,1.31-.22,3.13-.95,4.23-1.75s1.38-1.53,3.13-3.28c2.04-2.04,4.15-1.46,3.5,1.75-1.53,2.99-4.15,4.37-7.43,4.88-1.6.22-3.94.8-6.63.8s-5.69-.44-7.29-.07c1.02.66,2.11,1.68,4.3,2.11,2.26.44,5.69-1.31,7.73-1.82-.29,1.75-2.48,3.35-6.78,4.23-7.07,1.53-12.97,2.7-16.91,4.81-3.86,2.11-6.34,4.74-8.09,6.85-3.5,4.15-3.72,7.29-3.94,8.02-.66,6.56,1.6,10.28,5.9,11.44,2.19.58,5.98-.51,7.36-2.11,1.38-1.68,2.7-4.52,2.33-8.89-.36-1.68-2.33-6.2-.66-7.14,7.73-4.3,17.13-8.67,23.98-11.22,1.9-.66,3.43,1.82,4.01,2.84,11.59-1.38,22.08-9.26,26.75-17.57,3.21-5.69,8.45,0,7.58,5.39-1.38,5.98-5.98,10.35-11.44,13.41-5.61,3.06-12.61,6.12-19.75,5.98-3.86.73-3.79,5.69.8,6.63,9.04.07,16.18-.15,22.96-6.71,5.17-4.66,8.02.95,6.56,4.08-2.55,9.77-16.47,12.46-30.54,9.33-5.47-.87-2.19,4.96-.66,5.03,5.9,4.15,16.47,8.31,25.73-.07,4.23-3.28,7.14-.51,5.54,4.15-4.15,12.24-19.9,9.69-30.69,3.64-2.77-1.53-5.25,2.04-1.9,4.81,13.48,9.4,20.19,9.48,26.24,5.9,7.58-2.99,8.24,5.39,3.72,8.16-5.03,3.06-17.78.8-27.11-5.1-4.01-2.99-4.23,1.68-1.68,3.5,11.08,9.62,15.45,12.1,27.04,10.57,5.76-.44,5.69,6.63,1.17,9.4-6.2,3.72-18.22-2.55-27.55-10.28-3.94-2.11-4.59,1.31-2.62,5.39,5.76,7.22,11.08,11.44,16.25,13.41,5.17,1.97,10.13,1.68,13.63.44,4.3-1.53,4.81,2.92,2.48,7-1.38,2.41-7.29,3.21-13.7.95-6.34-2.26-13.19-7.58-17.93-13.78-4.15-3.64-3.64,1.17-1.75,4.59,9.4,14.87,18,20.41,29.37,19.46,5.03-.8,6.2,3.06,2.99,6.71-5.61,4.66-12.61,4.52-18.8-.07-5.47-5.25-15.96-16.62-21.43-22.74-3.94-3.13-5.17-.07-4.01,6.2,1.02,3.57,3.57,7.36,10.64,10.13,4.81,2.77,1.24,6.56-2.41,6.63-1.97.07-6.05-2.26-9.11-5.76-4.08-4.52-4.3-7.58-6.56-14.72-2.11-3.5-5.9-1.9-5.9,1.75,1.75,7.07,3.35,8.38,7,11.3,3.5,3.28-2.48,4.45-4.45,3.06-5.76-3.94-7.87-8.97-9.84-13.56-1.38-3.28-5.47-1.68-3.57,3.72,4.52,12.9,11.88,18,24.78,20.63,1.31.29,2.11,1.02,1.68,2.55-1.68,1.82-3.43,3.43-5.17,5.25,7.94,2.33,14.43,3.64,22.45,5.98,3.94-2.55,7.07-4.74,11.01-7.29,1.02-2.41,1.53-6.12,7.29-3.5,3.86-1.82,5.69-1.17,7.87.66-3.13.15-4.52.95-5.76,2.41-1.6,4.23-5.32,4.66-9.11,3.43-2.48,2.11-3.79,3.64-6.27,5.76,4.59-.15,7.8-.22,12.39-.36,4.37-4.66,7.87-4.45,11.01-.73,2.41.36,3.43.44,5.17,3.35-2.55-1.02-4.23-1.38-5.32-.22-4.66,2.7-7.73,2.11-10.06,0-4.52.29-8.53.51-13.05.8,1.68,1.38,3.94,2.19,5.61,3.57,6.71-1.9,10.28.66,11.44,6.2.95,2.26,1.31,4.52.95,6.92-.66-2.19-1.68-4.08-3.64-5.25-5.98,1.53-8.24-.95-8.6-4.52-2.92-2.41-7.29-2.92-10.2-5.32-3.43,1.09-5.03,1.75-8.45,2.84-1.17,3.72-3.94,5.17-8.38,4.23-5.32.15-4.37,2.33-4.81,4.08-1.38-2.48-1.38-4.96,1.9-7.14,1.17-3.21,3.86-4.74,7.29-2.84,3.28-.87,4.15-2.19,7.36-3.13-8.16-2.62-13.99-3.21-22.16-5.83-2.04,1.9-3.72,3.28-5.76,5.03-1.09.66-2.11.8-2.77,0-5.1-7.43-7.43-13.99-12.17-18.88-1.82-1.97-4.15-4.74-6.71-5.39-1.31-.36-2.84-.15-3.86.95-1.02,1.09-1.82,3.13-1.46,6.12.44,4.3,1.46,5.69,2.7,8.24s2.7,4.15,4.23,6.12c3.06,3.94,7.07,6.27,9.4,7.8,4.74,3.06,6.78,1.75,10.42,1.53,4.74.58,5.98,2.84,2.11,6.05-3.64,1.9-6.92,2.11-9.55,1.6-2.26-.44-4.96-3.35-6.85-4.96-2.19-2.41-5.69.51-3.28,3.35,4.37,5.25,8.75,8.67,14.14,8.6,5.69.8,4.66,4.01.87,5.54-6.78,2.77-12.9-2.48-16.04-5.9-2.41-2.62-4.15-2.77-3.72,1.31,2.33,7.36,5.61,10.2,10.93,10.57,4.37-.44,4.37,2.92,1.24,5.17-7.14,4.96-12.39-3.5-14.8-8.6-1.75-4.59-4.37-2.41-4.66,1.38-.07,5.1,2.26,9.26,8.38,14.43-4.66,7.51-10.13,15.16-14.87,22.67-4.66-7.58-10.13-15.16-14.87-22.67,6.12-5.17,8.38-9.33,8.38-14.43-.29-3.79-2.92-5.98-4.66-1.38-2.41,5.1-7.58,13.56-14.8,8.6-3.13-2.26-3.06-5.54,1.24-5.17,5.32-.36,8.53-3.21,10.93-10.57.36-4.01-1.31-3.94-3.72-1.31-3.13,3.43-9.26,8.67-16.03,5.9-3.72-1.6-4.81-4.81.87-5.54,5.39.07,9.77-3.43,14.14-8.6,2.41-2.92-1.17-5.83-3.28-3.35-1.9,1.6-4.59,4.52-6.85,4.96-2.7.51-5.9.29-9.55-1.6-3.86-3.21-2.62-5.54,2.11-6.05,3.72.22,5.69,1.53,10.42-1.53,2.41-1.53,6.34-3.86,9.4-7.8,1.53-1.97,2.99-3.57,4.23-6.12,1.17-2.55,2.19-3.94,2.7-8.24.29-2.99-.44-5.03-1.46-6.12-1.02-1.09-2.55-1.31-3.86-.95-2.55.66-4.88,3.35-6.71,5.39-4.74,4.88-7.07,11.44-12.17,18.88-.66.8-1.68.66-2.77,0-2.11-1.68-3.72-3.06-5.76-5.03-8.16,2.62-13.99,3.21-22.16,5.83,3.28.87,4.08,2.19,7.36,3.13,3.5-1.82,6.12-.36,7.29,2.84,3.28,2.19,3.28,4.66,1.9,7.14-.44-1.75.51-3.94-4.81-4.08-4.45.95-7.14-.51-8.38-4.23-3.43-1.09-5.1-1.75-8.45-2.84-2.92,2.41-7.29,2.99-10.2,5.32-.29,3.57-2.55,6.05-8.6,4.52-1.97,1.17-2.99,3.06-3.64,5.25-.36-2.41.07-4.66.95-6.92,1.17-5.54,4.66-8.16,11.44-6.2,1.68-1.38,3.94-2.19,5.61-3.57-4.52-.29-8.53-.51-13.05-.8-2.33,2.11-5.39,2.7-10.06,0-1.09-1.17-2.77-.8-5.32.22,1.6-2.92,2.62-2.99,5.03-3.35Z"/>
      <path class="cls-2" d="m163.13,207.05c4.66,2.7,7.73,2.11,10.06,0,4.52.29,8.53.51,13.05.8-1.68,1.38-3.94,2.19-5.61,3.57-6.78-1.97-10.28.66-11.44,6.2-.87,2.26-1.31,4.52-.95,6.92.66-2.19,1.68-4.08,3.64-5.25,6.05,1.53,8.31-.95,8.6-4.52,2.92-2.33,7.29-2.92,10.2-5.32,3.35,1.09,5.03,1.75,8.45,2.84,1.24,3.72,3.94,5.17,8.38,4.23,5.32.15,4.37,2.33,4.81,4.08,1.38-2.48,1.38-4.96-1.9-7.14-1.17-3.21-3.79-4.66-7.29-2.84-3.28-.95-4.08-2.26-7.36-3.13,8.16-2.62,13.99-3.21,22.16-5.83,2.04,1.97,3.64,3.35,5.76,5.03,1.09.66,2.11.8,2.77,0,5.1-7.43,7.43-13.99,12.17-18.88,1.82-2.04,4.15-4.74,6.71-5.39,1.31-.36,2.84-.15,3.86.95,1.02,1.09,1.75,3.13,1.46,6.12-.51,4.3-1.53,5.69-2.7,8.24-1.24,2.55-2.7,4.15-4.23,6.12-3.06,3.94-7,6.27-9.4,7.8-4.74,3.06-6.71,1.75-10.42,1.53-4.74.51-5.98,2.84-2.11,6.05,3.64,1.9,6.85,2.11,9.55,1.6,2.26-.44,4.96-3.35,6.85-4.96,2.11-2.48,5.69.44,3.28,3.35-4.37,5.17-8.75,8.67-14.14,8.6-5.69.73-4.59,3.94-.87,5.54,6.78,2.77,12.9-2.48,16.03-5.9,2.41-2.62,4.08-2.7,3.72,1.31-2.41,7.36-5.61,10.2-10.93,10.57-4.3-.36-4.37,2.92-1.24,5.17,7.22,4.96,12.39-3.5,14.8-8.6,1.75-4.59,4.37-2.41,4.66,1.38,0,5.1-2.26,9.26-8.38,14.43,4.74,7.51,10.2,15.09,14.87,22.67,4.74-7.51,10.2-15.16,14.87-22.67-6.12-5.17-8.45-9.33-8.38-14.43.29-3.79,2.92-5.98,4.66-1.38,2.41,5.1,7.65,13.56,14.8,8.6,3.13-2.26,3.13-5.61-1.24-5.17-5.32-.36-8.6-3.21-10.93-10.57-.44-4.08,1.31-3.94,3.72-1.31,3.13,3.43,9.26,8.67,16.04,5.9,3.79-1.53,4.81-4.74-.87-5.54-5.39.07-9.77-3.35-14.14-8.6-2.41-2.84,1.09-5.76,3.28-3.35,1.9,1.6,4.59,4.52,6.85,4.96,2.62.51,5.9.29,9.55-1.6,3.86-3.21,2.62-5.47-2.11-6.05-3.64.22-5.69,1.53-10.42-1.53-2.33-1.53-6.34-3.86-9.4-7.8-1.53-1.97-2.99-3.57-4.23-6.12s-2.26-3.94-2.7-8.24c-.36-2.99.44-5.03,1.46-6.12,1.02-1.09,2.55-1.31,3.86-.95,2.55.66,4.88,3.43,6.71,5.39,4.74,4.88,7.07,11.44,12.17,18.88.66.8,1.68.66,2.77,0,2.04-1.75,3.72-3.13,5.76-5.03,8.16,2.62,13.99,3.21,22.16,5.83-3.21.95-4.08,2.26-7.36,3.13-3.43-1.9-6.12-.36-7.29,2.84-3.28,2.19-3.28,4.66-1.9,7.14.44-1.75-.51-3.94,4.81-4.08,4.45.95,7.22-.51,8.38-4.23,3.43-1.09,5.03-1.75,8.45-2.84,2.92,2.41,7.29,2.92,10.2,5.32.36,3.57,2.62,6.05,8.6,4.52,1.97,1.17,2.99,3.06,3.64,5.25.36-2.41,0-4.66-.95-6.92-1.17-5.54-4.74-8.09-11.44-6.2-1.68-1.38-3.94-2.19-5.61-3.57,4.52-.29,8.53-.51,13.05-.8,2.33,2.11,5.39,2.7,10.06,0,1.09-1.17,2.77-.8,5.32.22-1.75-2.92-2.77-2.99-5.17-3.35-3.13-3.72-6.63-3.94-11.01.73-4.59.15-7.8.22-12.39.36,2.48-2.11,3.79-3.64,6.27-5.76,3.79,1.24,7.51.8,9.11-3.43,1.24-1.46,2.62-2.26,5.76-2.41-2.19-1.82-4.01-2.48-7.87-.66-5.76-2.62-6.27,1.09-7.29,3.5-3.94,2.55-7.07,4.74-11.01,7.29-8.02-2.33-14.5-3.64-22.45-5.98,1.75-1.82,3.5-3.43,5.17-5.25.44-1.53-.36-2.26-1.68-2.55-12.9-2.62-20.26-7.73-24.78-20.63-1.9-5.39,2.19-7,3.57-3.72,1.97,4.59,4.08,9.62,9.84,13.56,1.97,1.38,7.94.22,4.45-3.06-3.64-2.92-5.25-4.23-7-11.3,0-3.64,3.79-5.25,5.9-1.75,2.26,7.14,2.48,10.2,6.56,14.72,3.06,3.5,7.14,5.83,9.11,5.76,3.64-.07,7.22-3.86,2.41-6.63-7.07-2.77-9.62-6.56-10.64-10.13-1.17-6.27.07-9.33,4.01-6.2,5.47,6.12,15.96,17.49,21.43,22.74,6.2,4.59,13.19,4.74,18.8.07,3.21-3.64,2.04-7.51-2.99-6.71-11.37.95-19.97-4.59-29.37-19.46-1.9-3.43-2.41-8.24,1.75-4.59,4.74,6.2,11.59,11.52,17.93,13.78,6.41,2.26,12.32,1.46,13.7-.95,2.33-4.08,1.82-8.53-2.48-7-3.5,1.24-8.45,1.53-13.63-.44-5.17-1.97-10.5-6.2-16.25-13.41-1.97-4.08-1.31-7.51,2.62-5.39,9.33,7.73,21.36,13.99,27.55,10.28,4.52-2.77,4.59-9.84-1.17-9.4-11.59,1.53-15.96-.95-27.04-10.57-2.55-1.82-2.33-6.49,1.68-3.5,9.33,5.9,22.08,8.16,27.11,5.1,4.52-2.77,3.86-11.15-3.72-8.16-6.05,3.57-12.76,3.5-26.24-5.9-3.35-2.77-.87-6.34,1.9-4.81,10.79,6.05,26.53,8.6,30.69-3.64,1.6-4.66-1.31-7.43-5.54-4.15-9.26,8.38-19.83,4.23-25.73.07-1.53-.07-4.81-5.9.66-5.03,14.07,3.13,27.99.44,30.54-9.33,1.46-3.13-1.38-8.75-6.56-4.08-6.78,6.56-13.92,6.78-22.96,6.71-4.59-.95-4.66-5.9-.8-6.63,7.14.15,14.14-2.92,19.75-5.98,5.47-3.06,10.06-7.43,11.44-13.41.87-5.39-4.37-11.08-7.58-5.39-4.66,8.31-15.16,16.18-26.75,17.57-.58-1.02-2.11-3.5-4.01-2.84-6.85,2.55-16.25,6.92-23.98,11.22-1.68.95.29,5.47.66,7.14.36,4.37-.95,7.22-2.33,8.89-1.38,1.6-5.17,2.7-7.36,2.11-4.3-1.17-6.56-4.88-5.9-11.44.22-.73.44-3.86,3.94-8.02,1.75-2.11,4.23-4.74,8.09-6.85,3.94-2.11,9.84-3.28,16.91-4.81,4.3-.87,6.49-2.48,6.78-4.23-2.04.51-5.47,2.26-7.73,1.82-2.19-.44-3.28-1.46-4.3-2.11,1.6-.36,4.66.07,7.29.07s5.03-.58,6.63-.8c3.28-.51,5.9-1.9,7.43-4.88.66-3.21-1.46-3.79-3.5-1.75-1.75,1.75-2.04,2.48-3.13,3.28s-2.92,1.53-4.23,1.75c-2.7.44-5.32,1.02-8.75.15.66-.87,2.19-2.19,3.57-3.06s2.7-1.24,4.01-1.02c.87.15,1.97.87,2.92,2.33.58-3.57-.44-7.58-10.13-5.9.15-2.7-5.61-3.86-9.11-3.79-1.97,0-5.98,1.17-8.89,2.55-4.59,1.38-9.18,2.41-14.5,2.77,3.06,2.62,3.72,2.77,6.78,4.96-4.74,1.75-8.38,5.25-9.99,7.58,4.08.22,5.47-.15,6.85.44-5.76,1.68-8.31,2.62-11.37,5.69,1.09.22,2.7.51,3.35.73.73.29.44.66-.07,1.17-1.31.8-6.34,6.71-7.8,8.09-1.53-1.38-6.49-7.29-7.8-8.09-.51-.51-.8-.87-.07-1.17.66-.29,2.26-.51,3.35-.73-3.06-3.06-5.61-4.01-11.37-5.69,1.38-.58,2.77-.22,6.85-.44-1.6-2.33-5.32-5.9-9.99-7.58,3.13-2.19,3.72-2.33,6.78-4.96-5.32-.36-9.91-1.38-14.5-2.77-2.92-1.38-6.92-2.48-8.89-2.55-3.5-.07-9.26,1.09-9.11,3.79-9.69-1.68-10.71,2.33-10.13,5.9.95-1.38,2.04-2.19,2.92-2.33,1.31-.22,2.62.22,4.01,1.02,1.38.87,2.92,2.19,3.57,3.06-3.43.8-6.05.29-8.75-.15-1.31-.22-3.13-.95-4.23-1.75-1.09-.8-1.46-1.46-3.13-3.28-2.04-2.11-4.23-1.53-3.5,1.75,1.53,2.99,4.15,4.37,7.43,4.88,1.6.29,3.94.8,6.63.8s5.69-.36,7.29-.07c-.95.58-2.11,1.68-4.3,2.11-2.26.44-5.61-1.31-7.73-1.82.29,1.75,2.48,3.35,6.78,4.23,7.14,1.53,13.05,2.7,16.91,4.81,3.94,2.11,6.34,4.74,8.09,6.85,3.5,4.15,3.72,7.29,3.94,8.02.73,6.63-1.6,10.35-5.9,11.44-2.11.58-5.98-.51-7.36-2.11-1.38-1.6-2.77-4.45-2.33-8.89.36-1.75,2.33-6.27.66-7.14-7.73-4.3-17.2-8.6-23.98-11.22-1.9-.73-3.43,1.82-4.01,2.84-11.59-1.38-22.01-9.26-26.75-17.57-3.21-5.69-8.45,0-7.58,5.39,1.46,5.98,5.98,10.35,11.44,13.41,5.61,3.06,12.68,6.12,19.75,5.98,3.86.73,3.79,5.69-.8,6.63-8.96.07-16.18-.15-22.96-6.71-5.1-4.66-8.02.87-6.56,4.08,2.55,9.77,16.4,12.46,30.54,9.33,5.47-.87,2.19,4.96.66,5.03-5.9,4.23-16.4,8.38-25.73-.07-4.23-3.28-7.14-.51-5.54,4.15,4.08,12.24,19.83,9.69,30.69,3.64,2.77-1.53,5.32,2.04,1.9,4.81-13.41,9.4-20.19,9.48-26.24,5.9-7.58-2.99-8.24,5.39-3.72,8.16,5.03,3.06,17.78.8,27.11-5.1,4.01-2.99,4.23,1.68,1.68,3.5-11.08,9.62-15.45,12.1-27.04,10.57-5.76-.44-5.69,6.63-1.17,9.4,6.2,3.79,18.22-2.48,27.55-10.28,3.94-2.11,4.59,1.31,2.62,5.39-5.69,7.22-11.08,11.44-16.25,13.41-5.17,1.97-10.13,1.68-13.63.44-4.3-1.46-4.81,2.99-2.48,7,1.46,2.41,7.36,3.21,13.7.95,6.41-2.26,13.27-7.58,17.93-13.78,4.08-3.57,3.57,1.24,1.75,4.59-9.4,14.87-18.08,20.41-29.37,19.46-5.03-.87-6.2,3.06-2.99,6.71,5.61,4.66,12.68,4.52,18.8-.07,5.47-5.25,15.96-16.62,21.43-22.74,3.86-3.06,5.1-.07,4.01,6.2-1.02,3.57-3.64,7.36-10.64,10.13-4.81,2.77-1.17,6.56,2.41,6.63,1.97.07,6.05-2.26,9.11-5.76,4.08-4.59,4.3-7.65,6.56-14.72,2.11-3.5,5.9-1.82,5.9,1.75-1.82,7.14-3.35,8.38-7,11.3-3.5,3.28,2.41,4.37,4.45,3.06,5.76-3.94,7.87-8.97,9.84-13.56,1.38-3.28,5.47-1.68,3.57,3.72-4.52,12.97-11.88,18-24.78,20.63-1.31.22-2.11,1.02-1.68,2.55,1.75,1.82,3.5,3.43,5.17,5.25-8.02,2.33-14.43,3.64-22.45,5.98-3.94-2.55-7.07-4.74-11.01-7.29-1.02-2.41-1.53-6.12-7.29-3.5-3.94-1.82-5.76-1.17-7.87.66,3.13.15,4.52.95,5.76,2.41,1.6,4.23,5.32,4.66,9.11,3.43,2.48,2.11,3.79,3.64,6.27,5.76-4.59-.15-7.8-.22-12.39-.36-4.37-4.74-7.87-4.45-11.01-.73-2.41.36-3.43.44-5.03,3.35,2.55-1.02,4.23-1.38,5.32-.22ZM295.13,62.3c2.84,0,4.59.87,4.59,2.04s-1.75,2.26-4.59,2.26-4.59-.95-4.59-2.19c0-1.17,1.75-2.11,4.59-2.11Zm-70.26,4.3c-2.84,0-4.59-1.09-4.59-2.26s1.75-2.04,4.59-2.04,4.59.95,4.59,2.11c0,1.24-1.75,2.19-4.59,2.19Z"/>
    </g>
  </g>
</svg>