<?xml version="1.0" encoding="UTF-8"?>
<svg id="Layer_2" data-name="Layer 2" xmlns="http://www.w3.org/2000/svg" viewBox="0 0 520 320">
  <defs>
    <style>
      .cls-1 {
        fill: #a3ab78;
      }

      .cls-1, .cls-2, .cls-3, .cls-4 {
        stroke-width: 0px;
      }

      .cls-2 {
        fill: #d31f36;
      }

      .cls-3 {
        fill: #046334;
      }

      .cls-4 {
        fill: #fff;
      }
    </style>
  </defs>
  <g id="_500x300_Background" data-name="500x300 Background">
    <rect class="cls-1" width="520" height="320" rx="10" ry="10"/>
  </g>
  <g id="Algeria">
    <g>
      <polygon class="cls-4" points="277.83 159.96 260 135.56 260 184.37 277.83 159.96"/>
      <path class="cls-4" d="m260,76.68c28.79.01,56.77,14.93,72.2,41.63-3.07-3.8-6.58-7.31-10.38-10.38-18.05-14.46-41.31-17.99-61.82-11.49v39.11l28.87,9.35,17.83-24.41v30.25l28.28,9.21-28.28,9.21v30.25l-17.83-24.41-28.87,9.35v39.13c25.5,8.09,54.47.26,72.2-21.81-7.31,12.64-17.83,23.17-30.47,30.47-13.17,7.6-27.55,11.18-41.73,11.16v66.68h250V10h-250v66.68Z"/>
      <path class="cls-3" d="m187.87,201.69c-23.02-39.9-9.35-90.84,30.47-113.86,13.15-7.59,27.5-11.17,41.65-11.16V10H10v300h250v-66.68c-28.76-.04-56.71-14.95-72.13-41.63Z"/>
      <path class="cls-3" d="m228.14,118.31c-23.02,28.72-18.34,70.67,10.38,93.69,6.59,5.28,13.89,9.09,21.48,11.5v-127.05c-12.13,3.84-23.31,11.19-31.86,21.86Z"/>
      <polygon class="cls-2" points="260 184.37 288.87 175.02 306.7 199.43 306.7 169.17 334.98 159.96 306.7 150.76 306.7 120.5 288.87 144.91 260 135.56 277.83 159.96 260 184.37"/>
      <path class="cls-2" d="m187.87,201.69c15.42,26.68,43.36,41.59,72.13,41.63,14.18.02,28.55-3.56,41.73-11.16,12.64-7.31,23.17-17.83,30.47-30.47-17.74,22.07-46.7,29.9-72.2,21.81-7.6-2.41-14.89-6.22-21.48-11.5-28.72-23.02-33.4-64.97-10.38-93.69,8.56-10.67,19.73-18.02,31.86-21.86,20.51-6.5,43.78-2.98,61.82,11.49,3.8,3.07,7.31,6.58,10.38,10.38-15.43-26.7-43.41-41.62-72.2-41.63-14.15,0-28.5,3.57-41.65,11.16-39.83,23.02-53.49,73.96-30.47,113.86Z"/>
    </g>
  </g>
</svg>