<?xml version="1.0" encoding="UTF-8"?>
<svg id="Layer_2" data-name="Layer 2" xmlns="http://www.w3.org/2000/svg" viewBox="0 0 520 320">
  <defs>
    <style>
      .cls-1 {
        fill: #a3ab78;
      }

      .cls-1, .cls-2, .cls-3, .cls-4 {
        stroke-width: 0px;
      }

      .cls-3 {
        fill: #ce1126;
      }

      .cls-4 {
        fill: #f9d616;
      }
    </style>
  </defs>
  <g id="_500x300_Background" data-name="500x300 Background">
    <rect class="cls-1" width="520" height="320" rx="10" ry="10"/>
  </g>
  <g id="Angola">
    <g>
      <path class="cls-2" d="m346.22,168.45l-6.92-.51c-.51,5.1-1.53,10.28-3.06,15.31l6.34,1.9c-1.6,5.47-3.79,10.71-6.49,15.67l-5.83-3.13c-2.41,4.52-5.32,8.89-8.67,12.97l5.17,4.23c-2.09,2.5-4.31,4.87-6.63,7.12l-18.17-12.56c12.29-10.41,20.74-25.36,22.54-42.59.24-2.3.35-4.59.35-6.85h-87.69c17.24,21.23,67.44,56.09,90.99,72.89l-7.43,8.75c-28.94-19.17-47.3-29.52-75.07-45.26-9.18-5.24-22.68-17.14-18.58-36.37H10v150h500v-150h-163.34c0,2.82-.15,5.65-.44,8.45Zm-63.19,67.93c-5.03,1.53-10.2,2.55-15.38,3.06l.66,6.63c-5.61.58-11.3.58-16.98,0l.66-6.63c-5.17-.51-10.35-1.53-15.38-3.06l-1.9,6.34c-5.39-1.68-10.64-3.79-15.67-6.49l3.13-5.83c-4.52-2.41-8.82-5.32-12.97-8.67l9.48-11.59c9.84,8.02,21.79,13.05,34.4,14.36,9.82,1.04,19.36-.17,28.11-3.2l8.41,4.95,3.49,13.55c-2.66,1.1-5.38,2.07-8.16,2.92l-1.9-6.34Zm64.58,28.94c-3.21-2.19-5.17-8.16-10.06-13.12-3.64-3.06-6.49-6.27-15.52-7.87-.44-.07-.58-1.02-.22-1.38l8.09-9.48c4.3,4.08,9.99,8.16,14.14,11.88,4.15,3.72,7.36,6.78,9.91,10.93,3.79,6.12-.44,13.12-6.34,9.04Z"/>
      <path class="cls-3" d="m10,160h217.06c.75-3.52,2.09-7.28,4.15-11.3.15,2.96,2.32,6.83,5.95,11.3h87.69c-.03-32.73-24.82-60.88-58.22-64.36l1.6-14.87c5.1.51,10.06,1.53,14.87,2.99l1.97-6.34c5.39,1.68,10.64,3.79,15.67,6.49l-3.13,5.83c4.59,2.48,8.97,5.32,13.05,8.67l4.23-5.1c4.37,3.57,8.45,7.58,12.03,11.95l-5.1,4.23c3.43,4.08,6.34,8.38,8.75,12.97l5.83-3.13c2.7,5.03,4.81,10.28,6.49,15.67l-6.34,1.9c1.53,4.96,2.55,10.13,3.06,15.31l6.63-.66c.29,2.81.44,5.63.44,8.45h163.34V10H10v150Zm243.29-39.14l6.71-20.7,6.71,20.7h21.79l-17.64,12.76,6.78,20.7-17.64-12.83-17.64,12.83,6.71-20.7-17.57-12.76h21.79Z"/>
      <path class="cls-4" d="m324.5,166.85c-1.8,17.24-10.26,32.18-22.54,42.59l18.17,12.56c2.33-2.25,4.55-4.62,6.63-7.12l-5.17-4.23c3.35-4.08,6.27-8.45,8.67-12.97l5.83,3.13c2.7-4.96,4.88-10.2,6.49-15.67l-6.34-1.9c1.53-5.03,2.55-10.2,3.06-15.31l6.92.51c.29-2.81.44-5.63.44-8.45,0-2.82-.15-5.65-.44-8.45l-6.63.66c-.51-5.17-1.53-10.35-3.06-15.31l6.34-1.9c-1.68-5.39-3.79-10.64-6.49-15.67l-5.83,3.13c-2.41-4.59-5.32-8.89-8.75-12.97l5.1-4.23c-3.57-4.37-7.65-8.38-12.03-11.95l-4.23,5.1c-4.08-3.35-8.45-6.2-13.05-8.67l3.13-5.83c-5.03-2.7-10.28-4.81-15.67-6.49l-1.97,6.34c-4.81-1.46-9.77-2.48-14.87-2.99l-1.6,14.87c33.4,3.48,58.19,31.63,58.22,64.36,0,2.26-.11,4.55-.35,6.85Z"/>
      <path class="cls-4" d="m289.59,226.25l-8.41-4.95c-8.75,3.03-18.29,4.24-28.11,3.2-12.61-1.31-24.56-6.34-34.4-14.36l-9.48,11.59c4.15,3.35,8.45,6.27,12.97,8.67l-3.13,5.83c5.03,2.7,10.28,4.81,15.67,6.49l1.9-6.34c5.03,1.53,10.2,2.55,15.38,3.06l-.66,6.63c5.69.58,11.37.58,16.98,0l-.66-6.63c5.17-.51,10.35-1.53,15.38-3.06l1.9,6.34c2.78-.85,5.5-1.82,8.16-2.92l-3.49-13.55Z"/>
      <polygon class="cls-4" points="242.36 154.31 260 141.49 277.64 154.31 270.86 133.62 288.5 120.86 266.71 120.86 260 100.16 253.29 120.86 231.5 120.86 249.07 133.62 242.36 154.31"/>
      <path class="cls-4" d="m344.04,245.35c-4.15-3.72-9.84-7.8-14.14-11.88l-8.09,9.48c-.36.36-.22,1.31.22,1.38,9.04,1.6,11.88,4.81,15.52,7.87,4.88,4.96,6.85,10.93,10.06,13.12,5.9,4.08,10.13-2.92,6.34-9.04-2.55-4.15-5.76-7.22-9.91-10.93Zm-11.37-4.15c-.6,0-1.09-.49-1.09-1.09s.49-1.09,1.09-1.09,1.09.49,1.09,1.09-.49,1.09-1.09,1.09Zm8.24,7.14c-.6,0-1.09-.49-1.09-1.09s.49-1.09,1.09-1.09,1.09.49,1.09,1.09-.49,1.09-1.09,1.09Zm8.31,6.27c0,.6-.49,1.09-1.09,1.09s-1.09-.49-1.09-1.09.49-1.09,1.09-1.09,1.09.49,1.09,1.09Z"/>
      <path class="cls-4" d="m245.64,196.37c27.77,15.74,46.14,26.09,75.07,45.26l7.43-8.75c-23.54-16.8-73.75-51.66-90.99-72.89-3.63-4.47-5.8-8.33-5.95-11.3-2.06,4.01-3.4,7.78-4.15,11.3-4.1,19.23,9.4,31.13,18.58,36.37Z"/>
      <path class="cls-2" d="m332.67,239.01c-.6,0-1.09.49-1.09,1.09s.49,1.09,1.09,1.09,1.09-.49,1.09-1.09-.49-1.09-1.09-1.09Z"/>
      <path class="cls-2" d="m340.9,246.15c-.6,0-1.09.49-1.09,1.09s.49,1.09,1.09,1.09,1.09-.49,1.09-1.09-.49-1.09-1.09-1.09Z"/>
      <path class="cls-2" d="m347.03,254.61c0,.6.49,1.09,1.09,1.09s1.09-.49,1.09-1.09-.49-1.09-1.09-1.09-1.09.49-1.09,1.09Z"/>
    </g>
  </g>
</svg>