<?xml version="1.0" encoding="UTF-8"?>
<svg id="Layer_2" data-name="Layer 2" xmlns="http://www.w3.org/2000/svg" viewBox="0 0 520 320">
  <defs>
    <style>
      .cls-1 {
        fill: #a3ab78;
      }

      .cls-1, .cls-2, .cls-3, .cls-4, .cls-5, .cls-6 {
        stroke-width: 0px;
      }

      .cls-2 {
        fill: #cd2028;
      }

      .cls-4 {
        fill: #fff;
      }

      .cls-5 {
        fill: #fad016;
      }

      .cls-6 {
        fill: #2072b8;
      }
    </style>
  </defs>
  <g id="_500x300_Background" data-name="500x300 Background">
    <rect class="cls-1" width="520" height="320" rx="10" ry="10"/>
  </g>
  <g id="Antigua_and_Barbuda" data-name="Antigua and Barbuda">
    <g>
      <polygon class="cls-4" points="162.17 192.61 260 310 357.83 192.61 162.17 192.61"/>
      <polygon class="cls-6" points="368.7 127.39 368.7 127.39 151.3 127.39 151.3 127.39 107.83 127.39 162.17 192.61 357.83 192.61 412.17 127.39 368.7 127.39"/>
      <polygon class="cls-2" points="412.17 127.39 357.83 192.61 260 310 510 310 510 192.61 510 127.39 510 10 412.17 127.39"/>
      <polygon class="cls-2" points="107.83 127.39 10 10 10 127.39 10 192.61 10 310 260 310 162.17 192.61 107.83 127.39"/>
      <polygon class="cls-3" points="10 10 107.83 127.39 151.3 127.39 206.7 116.82 159.58 85.93 214.81 97.3 183.14 50.77 229.8 82.35 218.41 27.28 249.4 74.26 260 19.04 270.6 74.26 301.59 27.28 290.2 82.35 336.86 50.77 305.19 97.29 360.42 85.93 313.3 116.82 368.7 127.39 412.17 127.39 510 10 10 10"/>
      <polygon class="cls-5" points="360.42 85.93 305.19 97.29 336.86 50.77 290.2 82.35 301.59 27.28 270.6 74.26 260 19.04 249.4 74.26 218.41 27.28 229.8 82.35 183.14 50.77 214.81 97.3 159.58 85.93 206.7 116.82 151.3 127.39 368.7 127.39 313.3 116.82 360.42 85.93"/>
    </g>
  </g>
</svg>