<?xml version="1.0" encoding="UTF-8"?>
<svg id="Layer_2" data-name="Layer 2" xmlns="http://www.w3.org/2000/svg" viewBox="0 0 520 320">
  <defs>
    <style>
      .cls-1 {
        fill: #a3ab78;
      }

      .cls-1, .cls-2, .cls-3, .cls-4, .cls-5 {
        stroke-width: 0px;
      }

      .cls-2 {
        fill: #fff;
      }

      .cls-3 {
        fill: #f6b40e;
      }

      .cls-4 {
        fill: #85340a;
      }

      .cls-5 {
        fill: #74acdf;
      }
    </style>
  </defs>
  <g id="_500x300_Background" data-name="500x300 Background">
    <rect class="cls-1" width="520" height="320" rx="10" ry="10"/>
  </g>
  <g id="Argentina">
    <g>
      <rect class="cls-5" x="10" y="210.02" width="500" height="99.98"/>
      <rect class="cls-5" x="10" y="10" width="500" height="100.04"/>
      <rect class="cls-2" x="10" y="109.98" width="500" height="100.04"/>
      <path class="cls-3" d="m266.42,197.83c.26,1.84-.2,3.08-.66,3.54l-.2.2c0-.13.07-.26.13-.33.2-.59.52-1.64.13-2.88-.2-.59-.52-1.18-.92-1.9-1.05-1.84-2.43-4.39-2.1-8,.26-2.69-.52-4.79-1.38-7.01-.26-.72-.52-1.51-.79-2.29.26-.07.46-.07.72-.13.98,3.21,2.56,5.51,2.1,9.31,1.05-3.08-.66-5.64-1.44-9.44.2-.07.46-.07.66-.13.2.79.39,1.51.66,2.23.59,1.84,1.25,3.74.98,6.75-.33,4.26.52,6.1,1.25,7.67.39.85.72,1.51.85,2.43Zm-.2-20.39c-.2.07-.39.2-.59.26l3.41,9.11-4.06-8.85c-.2.07-.39.13-.59.2l9.51,20.72c.07.13.2.39.33.33.07-.13,0-.33,0-.46l-8-21.31Zm-8.19,11.54l-.33-9.7h-.66l.85,22.75c0,.13.07.46.13.46.13,0,.13-.33.13-.39l.85-22.75h-.66l-.33,9.64Zm-5.64-.72c1.84-3.28,1.25-6.03,1.57-9.37-.26-.07-.46-.13-.72-.2-.07.79-.13,1.64-.13,2.43-.07,2.36-.2,4.59-1.44,7.01-1.7,3.28-1.38,6.1-1.11,8.19.07.79.2,1.51.13,2.1-.13,1.38-.79,2.16-1.25,2.62l-.26.26c.07,0,.13,0,.26-.07.66-.26,1.51-1.25,1.97-3.02.2-.92.2-1.64.13-2.56-.07-1.77-.2-3.74,1.77-7.54,1.38-2.75,1.57-4.72,1.7-6.62.07-.79.13-1.57.26-2.36-.2,0-.46-.07-.66-.13-.72,3.74-.07,6.75-2.23,9.24Zm-1.31-10.29l-4.06,8.85,3.41-9.11c-.2-.07-.39-.2-.59-.26l-7.93,21.37c-.07.13-.13.39,0,.46,0,0,.07,0,.13-.07.07-.13.13-.26.13-.26l9.51-20.72c-.13-.07-.39-.2-.59-.26Zm-3.87.72c.33-.72.72-1.38,1.11-2.1-.2-.13-.39-.26-.59-.33-2.16,3.21-2.75,6.23-5.64,7.67,2.95-2.36,3.47-5.11,5.05-8.06-.2-.13-.39-.26-.59-.46-.39.72-.72,1.44-1.05,2.16-.98,2.16-1.9,4.2-4,5.9-2.82,2.36-3.61,5.11-4.2,7.15-.2.79-.39,1.44-.72,2.03-.59,1.18-1.57,1.7-2.16,1.97-.13.07-.26.13-.33.2.07,0,.13.07.26,0,.72,0,1.9-.59,3.02-2.03.52-.72.79-1.44,1.11-2.29.59-1.64,1.31-3.54,4.52-6.29,2.43-2.03,3.34-3.8,4.2-5.51Zm-12.13-2.03c2.95-.92,4.46-2.23,5.9-3.47.59-.52,1.18-.98,1.84-1.51-.13-.2-.26-.39-.39-.52-3.21,2.1-4.92,4.72-8.19,4.92,3.67-.98,5.18-3.41,7.8-5.51-.13-.2-.26-.39-.39-.66-.66.52-1.25,1.05-1.84,1.64-1.77,1.64-3.41,3.15-5.97,3.93-3.47,1.11-5.31,3.34-6.62,4.98-.52.66-.98,1.18-1.38,1.57-1.05.85-2.1.92-2.75.98h-.39c.07.07.13.07.26.13.66.26,1.97.2,3.54-.79.79-.46,1.31-1.05,1.9-1.7,1.31-1.25,2.62-2.69,6.69-4Zm9.77-2.69l-7.15,6.62,6.62-7.15-.46-.46-15.47,16.72c-.07.07-.26.33-.2.39s.33-.13.39-.2l16.72-15.47c-.13-.13-.26-.33-.46-.46Zm-4.2-6.1l-9.11,3.41,8.85-4.06c-.07-.2-.13-.39-.2-.59l-20.72,9.51c-.13.07-.39.2-.33.33s.33,0,.46,0l21.37-7.93c-.2-.26-.26-.46-.33-.66Zm-20.13.79c.92-.13,1.57-.46,2.43-.85,1.57-.72,3.41-1.57,7.67-1.25,3.08.26,4.98-.39,6.75-.98.72-.26,1.44-.46,2.23-.66-.07-.2-.13-.46-.13-.66-3.74.72-6.29,2.49-9.44,1.44,3.74.46,6.1-1.18,9.31-2.1-.07-.26-.07-.46-.13-.72-.79.26-1.51.52-2.29.79-2.23.85-4.33,1.64-7.01,1.38-3.67-.33-6.16,1.05-8,2.1-.72.39-1.31.72-1.9.92-1.31.39-2.29.07-2.88-.13-.13-.07-.26-.07-.33-.13,0,.07.07.13.2.2.46.52,1.7.92,3.54.66Zm-.33-14.95c.92.2,1.64.2,2.56.13,1.77-.07,3.74-.2,7.54,1.77,2.75,1.38,4.72,1.57,6.62,1.7.79.07,1.57.13,2.36.26,0-.2.07-.46.13-.66-3.74-.72-6.82-.13-9.24-2.29,3.28,1.84,6.03,1.25,9.37,1.57.07-.26.13-.46.2-.72-.79-.07-1.64-.13-2.43-.13-2.36-.07-4.59-.2-7.01-1.44-3.28-1.7-6.1-1.38-8.19-1.11-.79.07-1.51.2-2.1.13-1.38-.13-2.16-.79-2.62-1.25l-.26-.26c0,.07,0,.13.07.26.26.66,1.18,1.57,3.02,2.03Zm18.88,6.88l-9.7-.33,9.7-.33v-.66l-22.75.85c-.13,0-.46.07-.46.13,0,.13.33.13.39.13l22.75.85c.07-.2.07-.39.07-.66Zm-13.51-20.91c.72.52,1.44.79,2.29,1.11,1.64.59,3.54,1.31,6.29,4.52,1.97,2.36,3.74,3.21,5.51,4.13.72.33,1.38.72,2.1,1.11.13-.2.26-.39.33-.59-3.21-2.16-6.23-2.75-7.67-5.64,2.36,2.95,5.11,3.47,8.06,5.05.13-.2.26-.39.46-.59-.72-.39-1.44-.72-2.16-1.05-2.16-.98-4.2-1.9-5.9-4-2.36-2.82-5.11-3.61-7.15-4.2-.79-.2-1.44-.39-2.03-.72-1.18-.59-1.7-1.57-1.97-2.16-.07-.13-.13-.26-.2-.33v.26c0,.79.59,1.97,2.03,3.08Zm-6.16,4.79l20.72,9.51c.07-.2.13-.46.26-.66l-8.85-4.06,9.11,3.41c.07-.2.2-.39.26-.59l-21.37-7.93c-.13-.07-.39-.13-.46,0,0,.13.26.26.33.33Zm9.05-13.57l15.47,16.72c.13-.2.33-.33.46-.52l-6.62-7.15,7.15,6.62c.13-.13.33-.26.46-.46l-16.72-15.47c-.07-.07-.33-.26-.39-.2,0,0-.07.07,0,.2s.2.26.2.26Zm9.18-.2c1.31,1.18,2.75,2.56,4.06,6.62.92,2.95,2.23,4.46,3.47,5.9.52.59.98,1.18,1.51,1.84.2-.13.39-.26.52-.39-2.1-3.21-4.72-4.92-4.92-8.19.98,3.67,3.41,5.18,5.51,7.8.2-.13.39-.26.66-.39-.52-.66-1.05-1.25-1.64-1.84-1.64-1.77-3.15-3.41-3.93-5.97-1.11-3.47-3.34-5.31-4.98-6.62-.66-.52-1.18-.98-1.57-1.38-.85-1.05-.92-2.1-.98-2.75v-.39c-.07.07-.07.13-.13.26-.26.66-.2,1.97.79,3.54.39.92.98,1.38,1.64,1.97Zm12.85-5.57c.72,1.57,1.57,3.41,1.25,7.67-.26,3.08.39,4.98.98,6.75.26.72.46,1.51.66,2.29.2-.07.46-.13.66-.13-.72-3.74-2.49-6.36-1.44-9.44-.46,3.74,1.18,6.1,2.16,9.31.26-.07.46-.07.72-.13-.26-.79-.52-1.57-.79-2.29-.85-2.23-1.64-4.33-1.38-7.01.33-3.67-1.05-6.16-2.1-8-.39-.72-.72-1.31-.92-1.9-.39-1.31-.07-2.29.13-2.88.07-.13.07-.26.13-.33-.07,0-.13.07-.2.2-.46.52-.92,1.77-.66,3.54.07.92.39,1.57.79,2.36Zm-.66,18.03c.2-.07.39-.2.59-.26l-3.41-9.11,4.06,8.85c.2-.07.39-.13.59-.2l-9.51-20.72c-.07-.13-.2-.39-.33-.33s0,.33,0,.46l8,21.31Zm13.9-10.82c-1.84,3.28-1.25,6.03-1.57,9.44.26.07.46.13.72.2.07-.85.13-1.64.13-2.43.07-2.36.2-4.59,1.44-7.01,1.7-3.28,1.38-6.1,1.11-8.19-.07-.79-.2-1.51-.13-2.1.13-1.38.79-2.16,1.25-2.62l.26-.26c-.07,0-.13,0-.26.07-.66.26-1.51,1.25-1.97,3.02-.2.92-.2,1.64-.13,2.56.07,1.77.2,3.74-1.77,7.54-1.38,2.75-1.57,4.72-1.7,6.62-.07.79-.13,1.57-.26,2.36.2,0,.46.07.66.13.72-3.8.07-6.82,2.23-9.31Zm-5.64-.72l.33,9.7h.66l-.85-22.75c0-.13-.07-.46-.13-.46h0c-.13,0-.13.33-.13.39l-.85,22.75h.66l.33-9.64Zm10.82,10.29c-.33.72-.72,1.38-1.11,2.1.2.13.39.26.59.33,2.16-3.21,2.75-6.23,5.7-7.67-3.02,2.36-3.47,5.11-5.05,8.06.2.13.39.26.59.46.39-.72.72-1.44,1.05-2.23.98-2.16,1.9-4.2,4-5.9,2.82-2.36,3.61-5.11,4.2-7.15.2-.79.39-1.44.72-2.03.59-1.18,1.57-1.7,2.16-1.97.13-.07.26-.13.33-.2h-.26c-.72,0-1.9.59-2.95,2.03-.52.72-.79,1.44-1.11,2.29-.59,1.64-1.31,3.54-4.52,6.29-2.56,2.03-3.47,3.8-4.33,5.57Zm-3.87.72l4.06-8.85-3.41,9.11c.2.07.39.2.59.26l7.93-21.37c.07-.13.13-.39,0-.46-.07-.07-.26.2-.33.33l-9.51,20.72c.2.07.39.2.66.26Zm6.16,4l7.15-6.62-6.62,7.15.46.46,15.47-16.72c.07-.07.26-.33.2-.39-.13,0-.33.13-.39.2l-16.72,15.47.46.46Zm9.83-2.69c-2.95.92-4.46,2.23-5.9,3.47-.59.52-1.18,1.05-1.84,1.51.13.2.26.39.39.52,3.21-2.1,4.92-4.72,8.19-4.92-3.67.98-5.18,3.41-7.8,5.51.13.2.26.39.39.66.66-.52,1.25-1.05,1.84-1.64,1.77-1.64,3.41-3.15,5.97-3.93,3.47-1.11,5.31-3.34,6.62-4.98.52-.66.98-1.18,1.38-1.57,1.05-.85,2.1-.92,2.75-.98h.39c-.07-.07-.13-.07-.26-.13-.66-.26-1.97-.2-3.54.79-.79.46-1.31,1.05-1.9,1.7-1.31,1.25-2.62,2.69-6.69,4Zm-5.57,8.78l9.11-3.41-8.85,4.06c.07.2.13.39.2.59l20.72-9.51c.13-.07.39-.2.33-.33-.13-.07-.33,0-.46,0l-21.37,7.93c.13.26.26.46.33.66Zm20.13-.85c-.92.13-1.57.46-2.43.85-1.57.72-3.41,1.57-7.67,1.25-3.08-.26-4.98.39-6.75.98-.72.26-1.51.46-2.29.66.07.2.13.46.13.66,3.74-.72,6.29-2.49,9.44-1.44-3.74-.46-6.1,1.18-9.31,2.16.07.26.07.46.13.72.79-.26,1.57-.52,2.29-.79,2.23-.85,4.33-1.64,7.01-1.38,3.67.33,6.16-1.05,8-2.1.72-.39,1.31-.72,1.9-.92,1.31-.39,2.29-.07,2.88.13.13.07.26.07.33.13,0-.07-.07-.13-.2-.2-.46-.52-1.64-.98-3.47-.72Zm4.2,8.26l-22.75-.85v.66l9.7.33-9.7.39v.66l22.75-.85c.13,0,.46-.07.46-.13-.07-.13-.33-.2-.46-.2Zm-3.87,6.75c-.92-.2-1.64-.2-2.56-.13-1.77.07-3.8.2-7.54-1.77-2.75-1.38-4.72-1.57-6.62-1.7-.79-.07-1.57-.13-2.36-.26,0,.2-.07.46-.13.66,3.74.79,6.82.13,9.24,2.29-3.28-1.84-6.03-1.25-9.37-1.57-.07.26-.13.46-.2.72.79.07,1.64.13,2.43.13,2.36.07,4.59.2,7.01,1.44,3.28,1.7,6.1,1.38,8.19,1.11.79-.07,1.51-.2,2.1-.13,1.38.13,2.16.79,2.62,1.25l.26.26c0-.07,0-.13-.07-.26-.26-.66-1.25-1.57-3.02-2.03Zm.72,9.24l-20.72-9.51c-.07.2-.13.46-.26.66l8.85,4.06-9.11-3.41c-.07.2-.2.39-.26.59l21.37,7.93c.13.07.39.13.46,0,.07-.13-.2-.26-.33-.33Zm-6.1,4.79c-.72-.52-1.44-.79-2.29-1.11-1.64-.59-3.54-1.31-6.29-4.52-1.97-2.36-3.74-3.21-5.51-4.13-.72-.33-1.38-.72-2.1-1.11-.13.2-.26.39-.33.59,3.21,2.16,6.23,2.75,7.67,5.64-2.36-2.95-5.11-3.47-8.06-5.05-.13.2-.26.39-.46.59.72.39,1.44.72,2.16,1.05,2.16.98,4.2,1.9,5.9,4,2.36,2.82,5.11,3.61,7.15,4.2.79.2,1.44.39,2.03.72,1.18.59,1.7,1.57,1.97,2.16.07.13.13.26.2.33v-.26c0-.79-.59-1.97-2.03-3.08Zm-12.06,8.92c-1.31-1.18-2.75-2.56-4.06-6.62-.92-2.95-2.23-4.46-3.47-5.9-.52-.59-.98-1.18-1.51-1.84-.2.13-.39.26-.52.39,2.1,3.21,4.72,4.92,4.92,8.19-.98-3.67-3.41-5.18-5.51-7.8-.2.13-.39.26-.66.39.52.66,1.05,1.25,1.64,1.84,1.64,1.77,3.15,3.41,3.93,5.97,1.11,3.47,3.34,5.31,4.98,6.62.66.52,1.18.98,1.57,1.38.85,1.05.92,2.1.98,2.75v.39c.07-.07.07-.13.13-.26.26-.66.2-1.97-.79-3.54-.39-.85-.98-1.31-1.64-1.97Zm-6.29-16.85c-.13.2-.33.33-.46.52l6.62,7.15-7.15-6.62-.46.46,16.72,15.47c.07.07.33.26.39.2,0-.13-.13-.33-.2-.39l-15.47-16.78Zm-10.16,1.77c-.66.2-1.38.33-2.03.39h0c-.13,0-.26,0-.33.07h-.33c-.2,0-.46,0-.66.07h-1.44c-.2,0-.39,0-.52-.07-.13,0-.26,0-.39-.07-.72-.07-1.38-.2-2.03-.39h0c-.13,0-.26-.07-.33-.07h0c-.13-.07-.2-.07-.33-.13h0c-.2-.07-.46-.13-.66-.2-.33-.13-.59-.26-.92-.39h-.07c-.13-.07-.26-.13-.39-.2-.2-.07-.33-.2-.52-.26-.13-.07-.2-.13-.33-.2-.59-.33-1.18-.72-1.7-1.18h0c-.07-.07-.2-.13-.26-.2h0c-.07-.07-.2-.13-.26-.2h0c-.2-.13-.33-.33-.52-.46-.26-.2-.46-.46-.72-.72l-.07-.07c-.07-.07-.2-.2-.26-.33-.13-.13-.26-.26-.39-.46-.07-.07-.13-.2-.2-.26-.39-.52-.79-1.11-1.18-1.7h0c-.07-.13-.13-.2-.2-.33h0c-.07-.13-.13-.2-.13-.33h0c-.13-.2-.2-.39-.26-.59-.13-.33-.26-.59-.39-.92v-.07c-.07-.13-.07-.26-.13-.39-.07-.2-.13-.33-.2-.52-.07-.13-.07-.26-.13-.33-.2-.66-.33-1.38-.39-2.03h0c0-.13,0-.26-.07-.33h0v-.33h0c0-.2,0-.46-.07-.66v-1.44c0-.2,0-.39.07-.52,0-.13,0-.26.07-.39.07-.72.2-1.38.39-2.03h0c0-.13.07-.26.07-.33h0c.07-.13.07-.2.13-.33h0c.07-.2.13-.46.2-.66.13-.33.26-.59.39-.92v-.07c.07-.13.13-.26.2-.39.07-.2.2-.33.26-.52.07-.13.13-.2.2-.33.33-.59.72-1.18,1.18-1.7h0c.07-.07.13-.2.2-.26h0c.07-.07.13-.2.2-.26h0c.13-.2.33-.33.46-.52.2-.26.46-.46.72-.72l.07-.07c.07-.07.2-.2.33-.26.13-.13.26-.26.46-.39.07-.07.2-.13.26-.2.52-.39,1.11-.79,1.7-1.18h0c.13-.07.2-.13.33-.2h0c.13-.07.2-.13.33-.13h0c.2-.13.39-.2.59-.26.33-.13.59-.26.92-.39h.07c.13-.07.26-.07.39-.13.2-.07.33-.13.52-.2.13-.07.26-.07.33-.13.66-.2,1.38-.33,2.03-.39h0c.13,0,.26,0,.33-.07h.33c.2,0,.46,0,.66-.07h1.44c.2,0,.39,0,.59.07.13,0,.26,0,.39.07.72.07,1.38.2,2.03.39h0c.13,0,.26.07.33.07h0c.13.07.2.07.33.13h0c.2.07.46.13.66.2.33.13.59.26.92.39h.07c.13.07.26.13.39.2.2.07.33.2.52.26.13.07.2.13.33.2.59.33,1.18.72,1.7,1.18h0c.07.07.2.13.26.2h0c.07.07.2.13.26.2h0c.2.13.33.33.52.46.26.2.46.46.72.72v.07c.07.07.2.2.26.33.13.13.26.26.39.46.07.07.13.2.2.26.46.52.79,1.11,1.18,1.77h0c.07.13.13.2.2.33h0c.07.13.13.2.2.33h0c.13.2.2.39.33.59.13.33.26.59.39.92v.07c.07.13.07.26.13.39.07.2.13.33.2.52.07.13.07.26.13.33.2.66.33,1.38.39,2.03h0c0,.13,0,.26.07.33h0v.33h0c0,.2,0,.46.07.66v1.44c0,.2,0,.39-.07.52,0,.13,0,.26-.07.39-.07.72-.2,1.38-.39,2.03h0c0,.13-.07.26-.07.33h0c-.07.13-.07.2-.13.33h0c-.07.2-.13.46-.2.66-.13.33-.26.59-.39.92v.07c-.07.13-.13.26-.2.39-.07.2-.2.33-.26.52-.07.13-.13.2-.2.33-.33.59-.72,1.18-1.18,1.7h0c-.07.07-.13.2-.2.26h0c-.07.07-.13.2-.2.26h0c-.13.2-.33.33-.46.52-.2.26-.46.46-.72.72l-.07.07c-.07.07-.2.2-.33.26-.13.13-.26.26-.46.39-.07.07-.2.13-.26.2-.52.39-1.11.79-1.7,1.18h0c-.13.07-.2.13-.33.2h0c-.13.07-.2.13-.33.13h0c-.2.13-.39.2-.59.26-.33.13-.59.26-.92.39h-.07c-.13.07-.26.07-.39.13-.2.07-.33.13-.52.2-.26,0-.39.07-.46.07Zm-2.82-10.03c.13-.07.26-.13.33-.2,0,0,.07,0,.07-.07h0c.07.13.2.26.33.33s.26.13.33.13h.2c.13,0,.2,0,.33-.07s.26-.13.39-.2l.2-.2c.07-.07.13-.2.2-.33q0-.07.07-.13c0-.07.07-.13.07-.26v-.07c0-.13,0-.2-.07-.33-.07-.26-.26-.52-.52-.72-.13-.07-.26-.13-.39-.13h-.07c.26.13.46.39.52.72h0c0,.13,0,.2-.07.33l-.07.07-.2.2c-.13.07-.2.13-.39.13h-.13c-.07,0-.13,0-.2-.07-.13,0-.26-.07-.33-.2-.13-.13-.2-.26-.2-.39q0-.07-.07-.13s-.07.07-.07.13c0,0,0,.07-.07.07-.07.07-.13.2-.26.33-.07.07-.2.13-.26.26-.07.07-.13.07-.2.13h0c-.07,0-.07.07-.13.07h-.07c-.07.07-.2.07-.26.07-.13,0-.2.07-.33.07h-.13c-.13,0-.26-.07-.39-.07-.07,0-.2-.07-.26-.13h0c-.07-.07-.13-.07-.26-.13h0s-.07,0-.07-.07c-.13-.07-.2-.2-.26-.26-.13-.13-.2-.26-.26-.33v-.07.07c0,.07,0,.13-.07.13-.07.2-.2.33-.33.39s-.2.13-.33.13h0c-.07,0-.13,0-.26-.07h-.07c-.07-.07-.2-.07-.26-.13s-.2-.2-.2-.33v-.07c0-.07-.07-.13-.07-.2v-.13c0-.26.13-.46.33-.59.07,0,.07-.07.13-.07h-.13c-.2.07-.39.2-.52.33-.13.13-.2.26-.26.46-.07.13-.07.26-.07.39h0c0,.13,0,.26.07.33,0,.07.07.13.13.2.07.07.13.2.2.26.07.07.2.2.33.2.13.07.2.07.33.07h.2c.13,0,.26-.07.39-.07h.07c.13-.07.2-.13.26-.2.07-.07.13-.13.13-.2.13.07.2.13.33.2.07,0,.13.07.2.07h0c.07,0,.2.07.26.07.13,0,.33.07.39.07h.39c.13,0,.26,0,.39-.07.07,0,.13,0,.26-.07h0c.52.39.59.33.72.33Zm-5.38-5.9c.07,0,.2-.07.26-.13,0,0,.07,0,.07-.07.2-.07.39-.13.52-.26.07,0,.07-.07.13-.07,0,0,.07,0,.07-.07.07,0,.07-.07.13-.07.07-.07.13-.07.2-.13,0,0,.07,0,.07-.07l-.13-.13c-.13-.13-.26-.2-.39-.33-.2-.13-.33-.26-.52-.33-.26-.13-.52-.26-.79-.39-.39-.13-.79-.2-1.18-.2h-.52c-.13,0-.26,0-.33.07h-.07c-.66.13-1.25.39-1.7.85-.2.13-.33.33-.46.52h0v.07c.13.13.26.2.46.33.2.13.46.26.72.33s.59.2.92.2c.33.07.59.07.92.07h.13c.07,0,.2,0,.26-.07h.33c.2,0,.39-.07.52-.13.13.07.26.07.39,0Zm-5.57-.72c.07,0,.2-.07.39-.2.13-.13.33-.33.59-.46.39-.33.98-.66,1.64-.92.07,0,.13-.07.26-.07.13-.07.26-.07.39-.07s.33-.07.46-.07h.98c.2,0,.39.07.52.07.2.07.39.13.59.2h0c.13.07.33.2.46.33h.07c.2.2.39.33.52.39h0c.2.13.39.26.52.33.13.07.26.13.33.2h0c.13.07.2,0,.26-.07,0,0,0-.07.07-.07.07-.07.07-.2,0-.26s-.13-.07-.33-.13c-.07,0-.13-.07-.2-.07s-.13-.07-.2-.07c-.13-.07-.33-.2-.52-.33-.07,0-.07-.07-.13-.07-.07-.07-.13-.07-.13-.13-.2-.13-.39-.33-.52-.39-.07-.07-.2-.13-.26-.13-.07-.07-.13-.07-.2-.13-.13-.07-.26-.07-.39-.13-.26-.07-.59-.13-.98-.13h-.39c-.2,0-.33,0-.52.07-.13,0-.2,0-.33.07h-.13c-.13,0-.26.07-.39.13-.2.07-.33.13-.52.2-.59.26-1.11.59-1.44.92-.2.2-.39.39-.46.52,0,.26-.07.39,0,.46Zm17.7-1.84c-.2-.07-.39-.13-.66-.2-.13-.07-.26-.07-.39-.07h-.07c-.13,0-.26-.07-.39-.07h-.92c-.66.07-1.05.13-1.44.33-.2.07-.33.2-.52.33-.13.13-.33.26-.52.39h-.07c-.33.26-.52.39-.72.46-.07,0-.07.07-.13.07s-.13.07-.2.07-.13.07-.13.07c-.07.07-.07.13-.07.26,0,.07.07.07.07.13q.07.07.13.07h.13c.07,0,.13-.07.2-.13.13-.07.33-.2.52-.33.07-.07.2-.13.26-.2.07-.07.2-.13.26-.2.07-.07.13-.13.26-.2.13-.07.2-.13.33-.2.39-.26.85-.39,1.25-.39h.92c.13,0,.33,0,.46.07.13,0,.26.07.39.07s.26.07.39.13c.66.2,1.18.59,1.64.92.2.2.39.33.52.46.13.13.26.2.33.26h.07v-.07c0-.07-.07-.2-.13-.33-.13-.13-.26-.33-.46-.52-.2-.59-.66-.92-1.31-1.18Zm-.79,2.69c.13,0,.2-.07.33-.07.26-.07.59-.2.85-.33.2-.07.39-.2.59-.33.07-.07.13-.07.2-.13h0c-.13-.2-.33-.33-.52-.46-.52-.39-1.18-.72-1.84-.85h0c-.13,0-.26-.07-.39-.07h-.46c-.33,0-.72.07-1.05.2-.33.13-.66.26-.92.46-.2.13-.39.33-.59.52l-.13.13c-.07.07-.07.13-.13.13l-.07.07c.07,0,.07.07.13.07,0,0,.07,0,.07.07.07.07.13.07.13.13.07,0,.07.07.13.07.13.07.26.13.39.2,0,0,.07,0,.07.07.13.07.26.13.39.13.13.07.26.07.39.07.2.07.46.07.66.07h.66c.26,0,.72-.07,1.11-.13Zm.66.59c.33-.13.72-.39,1.05-.59,0,0,.07,0,.07-.07.07-.07.2-.13.26-.2h0c-.13.07-.33.13-.46.2-.66.26-1.25.39-1.77.52-.13.07-.33.07-.46.07-.26.07-.52.07-.79.07-.46,0-.92,0-1.25-.13h-.07c-.07,0-.13-.07-.2-.07-.13-.07-.2-.07-.26-.13,0,0-.07,0-.07-.07-.13-.07-.26-.13-.33-.2-.13-.07-.26-.13-.33-.2-.07-.07-.2-.07-.26-.13,0,0-.07,0-.07-.07h0c-.13-.07-.26-.13-.33-.13h-.2c-.13,0-.2.07-.13.2h0c0,.07.07.07.13.13h0c.07.07.13.13.26.2,0,0,.07,0,.07.07.07.07.2.13.33.2.07.07.13.07.2.13h0c.07.07.13.07.2.13.07,0,.07.07.13.07.07.07.2.13.33.13h.07c.26.13.59.2.92.26.2,0,.39.07.59.07h.2c.39,0,.79-.07,1.18-.13.26,0,.59-.13.98-.33Zm-2.1-5.9h-.59c-.13,0-.26,0-.39.07h-.13c-.13,0-.2.07-.33.07s-.26.07-.39.07c-.13.07-.26.07-.39.13s-.33.13-.46.2c-.26.13-.52.26-.79.39-.13.07-.26.13-.33.2-.13.07-.26.13-.33.26-.13.07-.2.13-.33.26-.07.07-.13.07-.13.13-.07.13-.07.26-.13.39s-.07.2-.13.33h0v.13c-.07.13-.07.33-.13.46v.2c0,.2-.07.33-.07.52v.07h0v.39h0v.39h0v.13h0v.66h0c0,.07,0,.2.07.26v.33h0v.07c0,.07,0,.13.07.2v.07h0v.07c0,.07,0,.13.07.2v.07h0v.07c0,.07.07.13.07.2v.07h0v.2c0,.07,0,.13.07.13v.07c0,.07.07.13.07.2h0c0,.07.07.13.07.2v.07s0,.07.07.07c0,.07.07.13.07.2h0v.07h0c0,.07.07.13.07.2,0,0,0,.07.07.07v.07h0c.07.13.07.2.13.33h0s0,.07.07.07h0s.07-.07.13-.07.07-.07.13-.07h.07c.07-.07.13-.07.2-.07-.07-.07-.07-.13-.13-.2l-.07-.07h0l-.07-.07-.07-.07-.07-.07h0c0-.07-.07-.07-.07-.13s-.07-.07-.07-.13h0v-.07c0-.07-.07-.07-.07-.13s-.07-.13-.07-.13v-.07h0s0-.07-.07-.07c-.07-.07-.07-.2-.13-.26v-.07h0c0-.07-.07-.13-.07-.2s-.07-.13-.07-.2,0-.07-.07-.13h0v-.07c0-.07-.07-.2-.07-.26v-.07h0v-.46h0v-.13c0-.13-.07-.26-.07-.39v-.52h0v-.26h0v-.13h0v-.13h0c0-.13.07-.26.07-.39h0c.07-.13.07-.26.13-.39v-.07c.13-.26.26-.59.46-.85h0c.07-.13.2-.26.26-.39l.07-.07c.13-.13.26-.2.33-.26.13-.07.2-.13.33-.2.2-.13.39-.2.59-.33.13-.07.26-.07.39-.13s.26-.07.39-.07.26-.07.39-.07.26-.07.39-.07h.07c.59-.07,1.25,0,1.9.2.26.07.46.13.72.2.07,0,.13.07.2.07s.13.07.13.07c.13.07.2.07.33.13h0c.13.07.26.13.46.2.26.13.52.26.79.46.39.26.85.59,1.25.92,0,0,.07,0,.07.07h0l-.07-.07c-.26-.39-.59-.72-.92-1.05-.2-.2-.39-.39-.59-.52-.13-.07-.2-.2-.33-.26-.07-.07-.2-.13-.26-.2-.07,0-.07-.07-.13-.07-.07-.07-.13-.07-.2-.13-.13-.07-.2-.13-.33-.2-.2-.13-.39-.2-.66-.26-.33-.39-.92-.52-1.44-.52Zm-16.19,2.95s-.07,0,0,0q-.07.07,0,0h0q-.07.07,0,0c-.07,0,0,0,0,0,.39-.33.85-.66,1.25-.92.26-.13.46-.26.72-.39.13-.07.26-.13.39-.2h.07c.07-.07.2-.07.26-.13.07,0,.13-.07.2-.07s.13-.07.13-.07c.26-.07.52-.13.72-.2.66-.13,1.31-.26,1.9-.2h.39c.13,0,.26,0,.39.07.13,0,.2.07.33.07.2.07.33.07.46.13s.26.13.39.2c.2.07.33.2.52.33.13.07.26.2.33.26s.13.13.26.2c.07.07.07.13.13.2.13.2.2.33.33.52.07.13.13.26.2.39.07.13.07.26.13.33,0,0,0,.07.07.07h0c0,.07.07.13.07.2s.07.2.07.26v.13h0v.39h0v.52h0v.13c0,.13,0,.2-.07.33v.26h0v.07c0,.07-.07.2-.07.26v.07h0v.07c0,.07-.07.13-.07.26v.07h0v.07c0,.07-.07.13-.07.2s0,.07-.07.13h0v.07h0c0,.07-.07.13-.07.13-.07.13-.13.26-.2.39,0,0,0,.07-.07.07v.07c0,.07-.07.07-.07.13s-.07.13-.07.2-.07.07-.07.13v.07s0,.07-.07.07v.07s0,.07-.07.07h0c0,.07-.07.07-.07.13h0c0,.07-.07.07-.07.13s-.07.07-.07.13l-.07.07h.07c.07,0,.2.07.33.13h.07l.07.07h0s0-.07.07-.07h0c.07-.13.07-.2.13-.33h0v-.07c.07-.07.07-.2.13-.26h0v-.13c0-.07.07-.07.07-.13,0,0,0-.07.07-.07h0v-.07c.07-.13.07-.2.13-.33q0-.07.07-.13h0v-.07h0v-.07c0-.13.07-.2.07-.33v-.07h0v-.07c0-.07,0-.13.07-.13v-.07h0v-.26h0v-.07c0-.07,0-.13.07-.13v-.07h0v-.07c0-.13.07-.26.07-.39v-.07h0v-.66h0v-.39h0v-.33h0v-1.05c0-.13-.07-.2-.07-.33h0v-.07c-.07-.13-.07-.33-.13-.46s-.07-.33-.13-.46q0-.07-.07-.13c-.13-.07-.2-.13-.33-.26-.13-.07-.2-.13-.33-.26-.13-.07-.26-.13-.33-.2-.13-.07-.26-.13-.33-.2-.33-.13-.59-.33-.92-.39-.13-.07-.2-.07-.33-.13s-.33-.07-.46-.13c-.13,0-.2-.07-.33-.07s-.2-.07-.33-.07h-.07c-.13,0-.26,0-.39-.07h-.52c-.59,0-1.11.13-1.64.33-.2.07-.46.2-.66.33-.13.07-.2.13-.33.2-.07,0-.07.07-.13.07-.07.07-.13.07-.13.13-.07.07-.13.07-.2.13-.13.07-.2.2-.33.26-.2.13-.39.33-.52.46-.33.33-.66.66-.92,1.05Zm2.75,2.88c.33.13.59.26.92.33.46.13.92.2,1.38.2h.13c.26,0,.46,0,.66-.07.2,0,.39-.07.59-.13.13-.07.2-.07.33-.13.07,0,.07-.07.13-.07s.13-.07.2-.13c.07-.07.13-.07.2-.13.07,0,.07-.07.13-.07,0,0,.07,0,.07-.07l.07-.07h0c.13-.07.2-.13.33-.2.07,0,.07-.07.13-.07l.13-.13s.07,0,.07-.07l.26-.26c0-.07.07-.07.07-.13s-.07-.07-.13-.07-.13,0-.2.07c0,0-.07,0-.07.07-.07,0-.13.07-.2.13-.07,0-.07.07-.13.07h0c-.07.07-.2.13-.33.2-.07.07-.2.13-.33.2-.07.07-.2.13-.33.13h-.07c-.07.07-.2.07-.26.13q-.07,0-.07.07t-.13.07c-.39.13-.85.13-1.38.13-.26,0-.59-.07-.92-.13-.13,0-.26-.07-.39-.07-.46-.13-.98-.26-1.57-.46-.13-.07-.26-.13-.46-.13h0c.07.07.13.13.26.2.13.07.2.13.33.2.13.2.39.33.59.39Zm5.05,9.18l.52.52.07.07.2.2.13.13c.07,0,.13.07.13.07.07.07.13.07.2.07.2.07.39.13.66.13.2,0,.46.07.72.07h0c.26,0,.46,0,.66-.07.26-.07.52-.07.72-.13.07,0,.13-.07.2-.07s.13-.07.13-.07c.07-.07.13-.07.13-.13.07-.07.13-.13.26-.2l.07-.07c.13-.2.26-.33.46-.52.26-.2.66-.39,1.38-.52.13,0,.2,0,.33-.07h-.52c-.66-.2-1.18-.26-1.57-.33h-.07c-.13,0-.26,0-.39-.07h-.72c-.13,0-.26,0-.33.07h-.07c-.26.07-.46.07-.72.07h0c-.26,0-.46-.07-.72-.07h-.07c-.07,0-.2,0-.33-.07h-1.18c-.39.07-.92.13-1.57.33h-.46c.13-.07.2-.13.33-.13.52-.26.98-.72,1.77-1.11h0c.13-.07.26-.13.33-.13h.07c.07,0,.2,0,.26-.07.2,0,.33,0,.46.07.07,0,.13,0,.2.07.07,0,.13.07.2.07.13.07.26.07.33.13.13,0,.2.07.33.07h0c.07,0,.2,0,.33-.07.13,0,.2-.07.33-.13q.07,0,.13-.07c.07,0,.13-.07.2-.07.13-.07.33-.07.46-.07h.33c.13,0,.26.07.33.13h0c.72.39,1.18.79,1.7,1.11.13.07.26.13.39.2-.2-.13-.33-.26-.46-.33-.59-.52-1.05-1.05-1.64-1.38-.13-.07-.26-.13-.33-.13-.13-.07-.26-.07-.39-.07h-.2c-.13,0-.26,0-.52.07h0c-.13,0-.2.07-.33.13s-.2.07-.33.13c-.07,0-.07.07-.13.07h0c-.07,0-.07-.07-.13-.07-.13-.07-.2-.13-.33-.13-.13-.07-.26-.07-.33-.13h-.07c-.2-.07-.33-.07-.46-.07h-.26c-.13,0-.2,0-.33.07s-.26.07-.33.13c-.59.33-1.05.92-1.7,1.44-.13.07-.26.2-.39.26h0c.07,0,.2,0,.26.07,1.05.13,1.44.33,1.7.59Zm3.34,1.9c.26.07.46.2.66.33.13.07.26.2.33.26.13.13.26.26.33.39.13.2.26.46.33.79,0-.39-.13-.79-.33-1.18-.07-.2-.2-.33-.33-.46l-.33-.33c-.2-.13-.46-.26-.66-.33s-.46-.13-.66-.13c-.26,0-.46.07-.72.13-.2.07-.46.2-.66.33-.13.07-.26.2-.33.33-.13.13-.26.33-.33.46-.2.33-.33.72-.33,1.11.07-.26.2-.52.33-.72.13-.13.2-.26.33-.39s.2-.2.33-.26c.2-.13.39-.26.66-.33.2-.07.46-.13.72-.13.26.07.46.07.66.13Zm-2.62-1.84l.2.2.07.07c.07.07.2.13.26.2h0c.2.13.39.2.66.26.2.07.46.07.72.07h0c.26,0,.52,0,.72-.07.26-.07.52-.13.72-.26h0c.13-.07.2-.13.26-.2l.07-.07.2-.2c.07-.07.13-.13.2-.13.13-.07.2-.13.33-.26.26-.13.66-.26,1.25-.26-.59-.13-1.05-.13-1.44-.13h-.13c-.13,0-.26,0-.39.07h-.2c-.07,0-.13,0-.2.07-.07,0-.13,0-.13.07-.13.07-.26.07-.33.13-.07,0-.13.07-.2.07-.26.07-.46.13-.72.13h0c-.26,0-.52-.07-.72-.13-.07,0-.13,0-.13-.07-.13-.07-.26-.07-.33-.13-.07,0-.13,0-.13-.07-.07,0-.13,0-.2-.07h-.13c-.13,0-.26-.07-.39-.07h-.2c-.39,0-.85,0-1.44.13.59,0,.98.07,1.25.26.13.07.26.13.39.26.07,0,.07.07.13.13Zm-4.85-10.29c-.07-.07-.07-.13-.07-.2v-.26c0-.39.2-.79.52-.98-.52.07-1.11.33-1.51.79-.13.13-.2.26-.33.39,0,0,0,.07-.07.07.13.13.26.2.46.26.26.13.52.26.79.33.26.07.52.13.79.13-.07-.07-.2-.13-.26-.2-.2-.07-.26-.2-.33-.33Zm3.21-.52c0-.07-.07-.07-.07-.13v-.07c-.07-.13-.2-.2-.26-.26-.26-.2-.66-.33-1.05-.46.13.07.2.2.33.33.07.13.13.33.13.46v.2c0,.13,0,.2-.07.33v.07c-.07.13-.07.2-.13.26l-.07.07-.07.07c.07,0,.13-.07.26-.07h0c.13-.07.2-.13.33-.2.13-.07.2-.13.33-.2h0c0-.07.13-.2.33-.39q0,.07,0,0Zm11.74,0c0-.07-.07-.07-.07-.13-.2-.39-.85-.72-1.64-.85h0c.33.2.52.59.52.98v.13c0,.07,0,.13-.07.26,0,.07-.07.07-.07.13-.07.13-.13.26-.26.33l-.13.13c.13,0,.2-.07.33-.13.26-.07.46-.2.72-.33.13-.13.33-.2.46-.33.07-.07.13-.07.2-.2Zm-3.28.79c-.07-.07-.13-.2-.2-.33v-.07c-.07-.13-.07-.2-.07-.33v-.13c0-.13.07-.26.07-.39.07-.2.2-.33.33-.46-.33.07-.66.26-.92.46-.13.13-.26.2-.39.39l-.13.13c-.07.07-.13.13-.13.2h0c.07.07.13.07.2.13.13.07.2.13.33.2.13.07.26.13.33.13h0c.13.07.2.07.33.13s.33.07.52.13c-.13-.07-.2-.13-.26-.2.07.07.07,0,0,0Z"/>
      <path class="cls-4" d="m299.79,161.18h0c.52,0,1.18-.26,1.18-.92,0-.39-.26-.66-.66-.79-.26-.07-.46-.07-.52-.07l-22.81-.85v-.13c.85-.26,1.64-.52,2.43-.85,2.16-.79,4.2-1.57,6.69-1.31,3.87.33,6.49-1.11,8.46-2.16.66-.39,1.25-.72,1.77-.85,1.05-.33,1.84-.07,2.43.13.46.13.98.33,1.25-.2.13-.26.07-.59-.13-.92-.52-.79-2.16-1.44-4.39-1.11-1.05.13-1.77.52-2.62.92-1.51.72-3.28,1.51-7.28,1.18-3.21-.26-5.18.39-7.08.98-.72.26-1.44.46-2.23.66,0-.07-.07-.13-.07-.26l20.72-9.51c.52-.2.98-.72.72-1.25-.07-.2-.26-.33-.39-.46-.39-.2-.85,0-.98.07l-21.37,8-.07-.07c.66-.59,1.31-1.18,1.97-1.7,1.7-1.57,3.28-3.02,5.64-3.8,3.74-1.18,5.57-3.54,6.95-5.24.46-.59.92-1.11,1.31-1.51.85-.72,1.7-.79,2.29-.79.46,0,1.05-.07,1.11-.66,0-.26-.13-.59-.46-.79-.79-.46-2.56-.46-4.46.66-.85.52-1.44,1.18-2.03,1.84-1.11,1.25-2.43,2.62-6.29,3.87-3.08.98-4.65,2.36-6.16,3.61-.59.52-1.18.98-1.84,1.44-.07-.07-.13-.13-.13-.2l15.54-16.78s.2-.2.33-.39c.2-.39.13-.79-.13-1.05-.13-.13-.33-.26-.59-.26h0c-.46,0-.79.33-.85.39l-16.78,15.54-.07-.07c.39-.79.79-1.57,1.11-2.36.98-2.1,1.84-4.06,3.8-5.64,3.02-2.49,3.8-5.38,4.46-7.47.2-.72.39-1.38.66-1.9.52-.98,1.25-1.38,1.84-1.64.46-.2.98-.46.79-1.05-.07-.26-.39-.46-.72-.52-.92-.13-2.56.52-3.87,2.36-.59.85-.92,1.64-1.18,2.49-.59,1.57-1.25,3.34-4.33,6.03-2.43,2.1-3.41,3.93-4.26,5.7-.33.72-.72,1.38-1.11,2.03-.07-.07-.13-.07-.2-.13l7.93-21.44c.2-.52.2-1.18-.39-1.38-.33-.13-.72-.07-.98.26-.2.2-.26.39-.26.39l-9.51,20.78h-.13c.07-.85.13-1.77.13-2.62.07-2.29.13-4.46,1.31-6.69,1.84-3.47,1.44-6.42,1.25-8.65-.07-.79-.13-1.44-.13-1.97.07-1.11.66-1.7,1.05-2.23.33-.33.72-.79.33-1.25-.2-.2-.52-.26-.85-.2-.92.2-2.16,1.44-2.69,3.61-.26.98-.2,1.84-.2,2.75.07,1.7.13,3.61-1.7,7.21-1.44,2.88-1.64,4.92-1.77,6.95-.07.79-.13,1.51-.26,2.29h-.26l-.85-22.81c0-.52-.26-1.18-.92-1.18h0c-.2,0-.39.07-.59.2-.33.33-.33.85-.33.92l-.85,22.81h-.13c-.26-.85-.59-1.64-.85-2.49-.79-2.16-1.57-4.2-1.31-6.69.33-3.87-1.11-6.49-2.16-8.46-.39-.66-.72-1.25-.85-1.77-.33-1.05-.07-1.84.13-2.43.13-.46.33-.98-.2-1.25-.26-.13-.59-.07-.92.13-.79.52-1.44,2.16-1.11,4.39.13,1.05.52,1.77.92,2.62.72,1.51,1.51,3.21,1.18,7.28-.26,3.21.39,5.18.98,7.08.26.72.46,1.44.66,2.23-.07,0-.13.07-.26.07l-9.51-20.78s-.13-.26-.26-.46c-.26-.33-.66-.46-.98-.26-.2.07-.33.26-.46.39-.2.39,0,.85.07.98l7.93,21.44s-.07,0-.07.07c-.59-.66-1.18-1.31-1.7-1.97-1.57-1.7-3.02-3.28-3.8-5.64-1.18-3.74-3.54-5.57-5.24-6.95-.59-.46-1.11-.92-1.51-1.31-.72-.85-.79-1.7-.79-2.29,0-.46-.07-1.05-.66-1.11-.26,0-.59.13-.79.46-.46.79-.46,2.56.66,4.46.52.85,1.18,1.44,1.84,2.03,1.25,1.11,2.62,2.43,3.87,6.29.98,3.08,2.36,4.65,3.61,6.16.52.59.98,1.18,1.44,1.84-.07.07-.13.13-.2.13l-16.78-15.21c-.39-.39-.98-.59-1.44-.2-.26.26-.33.66-.13,1.05.13.26.26.39.26.39l15.54,16.78-.07.07c-.79-.39-1.57-.79-2.36-1.11-2.1-.98-4.06-1.84-5.64-3.8-2.49-3.02-5.38-3.8-7.47-4.46-.72-.2-1.38-.39-1.9-.66-.98-.52-1.38-1.25-1.64-1.84-.2-.46-.46-.98-1.05-.79-.26.07-.46.39-.52.72-.13.92.52,2.56,2.36,3.87.85.59,1.64.92,2.49,1.18,1.57.59,3.34,1.25,6.03,4.33,2.1,2.43,3.93,3.41,5.7,4.26.72.33,1.38.72,2.03,1.11-.07.07-.07.13-.13.2l-21.44-7.93c-.52-.2-1.18-.2-1.38.39-.07.2-.07.39,0,.59.2.39.66.59.72.66l20.78,9.51v.13c-.85-.07-1.77-.13-2.62-.13-2.29-.07-4.46-.13-6.69-1.31-3.47-1.84-6.42-1.44-8.65-1.25-.79.07-1.44.13-1.97.13-1.11-.07-1.7-.66-2.23-1.05-.33-.33-.79-.72-1.25-.33-.2.2-.33.52-.2.85.2.92,1.44,2.16,3.61,2.69.98.26,1.84.2,2.75.2,1.7-.07,3.61-.13,7.21,1.7,2.88,1.44,4.92,1.64,6.95,1.77.79.07,1.51.13,2.29.26v.26l-22.81.85h0c-.52,0-1.18.26-1.18.92,0,.2.07.39.2.59.33.33.85.33.92.33l22.81.85v.13c-.85.26-1.64.52-2.43.85-2.16.79-4.2,1.57-6.69,1.31-3.87-.33-6.49,1.11-8.46,2.16-.66.39-1.25.72-1.77.85-1.05.33-1.84.07-2.43-.13-.46-.13-.98-.33-1.25.2-.13.26-.07.59.13.92.52.79,2.16,1.44,4.39,1.11,1.05-.13,1.77-.52,2.62-.92,1.51-.72,3.21-1.51,7.28-1.18,3.21.26,5.18-.39,7.08-.98.72-.26,1.44-.46,2.23-.66,0,.07.07.13.07.26l-20.72,9.51c-.52.2-.98.72-.72,1.25.13.33.39.52.79.52h.07c.26,0,.46-.13.46-.13l21.44-7.93s0,.07.07.07c-.66.59-1.31,1.18-1.97,1.7-1.7,1.57-3.28,3.02-5.64,3.8-3.74,1.18-5.57,3.54-6.95,5.24-.46.59-.92,1.11-1.31,1.51-.85.72-1.7.79-2.29.79-.46,0-1.05.07-1.11.66,0,.26.13.59.46.79.79.46,2.56.46,4.46-.66.85-.52,1.44-1.18,2.03-1.84,1.11-1.25,2.43-2.62,6.29-3.87,3.08-.98,4.65-2.36,6.16-3.61.59-.52,1.18-.98,1.84-1.44.07.07.13.13.13.2l-15.54,16.72s-.2.2-.33.39c-.2.39-.13.79.13,1.05.13.13.33.26.52.26.13,0,.33-.07.46-.13.26-.13.39-.26.39-.26l16.78-15.54.07.07c-.39.79-.79,1.57-1.11,2.36-.98,2.1-1.84,4.06-3.8,5.64-3.02,2.49-3.8,5.38-4.46,7.47-.2.72-.39,1.38-.66,1.9-.52.98-1.25,1.38-1.84,1.64-.46.2-.98.46-.79,1.05.07.26.39.46.72.52.92.13,2.56-.52,3.87-2.36.59-.85.92-1.64,1.18-2.49.59-1.57,1.25-3.34,4.33-6.03,2.43-2.1,3.41-3.93,4.26-5.7.33-.72.72-1.38,1.11-2.03.07.07.13.07.2.13l-7.93,21.44s-.13.26-.13.52c0,.46.13.79.52.92.13.07.2.07.33.07.26,0,.46-.13.66-.33s.26-.39.26-.39l9.51-20.78h.13c-.07.85-.13,1.77-.13,2.56-.07,2.29-.13,4.46-1.31,6.69-1.84,3.47-1.44,6.42-1.25,8.65.07.79.13,1.44.13,1.97-.07,1.11-.66,1.7-1.05,2.23-.33.33-.72.79-.33,1.25.2.2.52.26.85.2.92-.2,2.16-1.44,2.69-3.61.26-.98.2-1.84.2-2.75-.07-1.7-.13-3.61,1.7-7.21,1.44-2.88,1.64-4.92,1.77-6.95.07-.79.13-1.51.26-2.29h.26l.85,22.81s0,.26.07.52c.13.39.46.66.79.66.39,0,.66-.26.79-.66.07-.26.07-.46.07-.52l.85-22.81h.13c.26.85.52,1.64.85,2.43.79,2.16,1.57,4.2,1.31,6.69-.33,3.87,1.11,6.49,2.16,8.46.39.66.72,1.25.85,1.77.33,1.05.07,1.84-.13,2.43-.13.46-.33.98.2,1.25.07.07.2.07.33.07.2,0,.39-.07.59-.2.79-.52,1.44-2.16,1.11-4.39-.13-1.05-.52-1.77-.92-2.62-.72-1.51-1.51-3.21-1.18-7.28.26-3.21-.39-5.18-.98-7.08-.26-.72-.46-1.44-.66-2.23.07,0,.13-.07.26-.07l9.51,20.72c.07.07.26.52.66.72.2.07.39.07.59,0s.33-.26.46-.39c.2-.39,0-.85-.07-.98l-7.93-21.44s.07,0,.07-.07c.59.66,1.18,1.31,1.7,1.97,1.57,1.7,3.02,3.28,3.8,5.64,1.18,3.74,3.54,5.57,5.24,6.95.59.46,1.11.92,1.51,1.31.72.85.79,1.7.79,2.29,0,.46.07,1.05.66,1.11h.07c.26,0,.52-.2.72-.46.46-.79.46-2.56-.66-4.46-.52-.85-1.18-1.44-1.84-2.03-1.25-1.11-2.62-2.43-3.87-6.29-.98-3.08-2.36-4.65-3.61-6.16-.52-.59-.98-1.18-1.44-1.84.07-.07.13-.13.2-.13l16.72,15.54s.2.2.39.33c.39.2.79.13,1.05-.13.13-.13.26-.33.26-.59,0-.46-.33-.79-.39-.85l-15.28-16.78.07-.07c.79.39,1.57.79,2.36,1.11,2.1.98,4.06,1.84,5.64,3.8,2.49,3.02,5.38,3.8,7.47,4.46.72.2,1.38.39,1.9.66.98.52,1.38,1.25,1.64,1.84.2.39.39.79.79.79.07,0,.13,0,.2-.07.26-.07.46-.39.52-.72.13-.92-.52-2.56-2.36-3.87-.85-.59-1.64-.92-2.49-1.18-1.57-.59-3.34-1.25-6.03-4.33-2.1-2.43-3.93-3.41-5.7-4.26-.72-.33-1.38-.72-2.03-1.11.07-.07.07-.13.13-.2l21.44,7.93c.07.07.59.2.98.07.2-.07.33-.26.46-.46.07-.2.07-.39,0-.59-.2-.39-.66-.59-.72-.66l-20.72-9.7v-.13c.85.07,1.77.13,2.62.13,2.29.07,4.46.13,6.69,1.31,3.47,1.84,6.42,1.44,8.65,1.25.79-.07,1.44-.13,1.97-.13,1.11.07,1.77.66,2.23,1.05.26.2.52.46.85.46.13,0,.26-.07.39-.2.2-.2.33-.52.2-.85-.2-.92-1.44-2.16-3.61-2.69-.98-.26-1.84-.2-2.75-.2-1.7.07-3.61.13-7.21-1.7-2.88-1.44-4.92-1.64-6.95-1.77-.79-.07-1.51-.13-2.29-.26v-.26l22.81-.72Zm-13.96,3.8c3.8,1.97,5.83,1.84,7.54,1.77.85-.07,1.64-.07,2.56.13,1.77.46,2.75,1.31,3.02,1.97.07.13.07.2.07.26-.07-.07-.2-.13-.26-.26-.46-.39-1.25-1.11-2.62-1.25-.59-.07-1.31,0-2.1.13-2.1.26-4.98.59-8.19-1.11-2.36-1.25-4.59-1.31-7.01-1.44-.79,0-1.57-.07-2.43-.13.07-.26.13-.46.2-.72,3.34.33,6.1-.26,9.37,1.57-2.49-2.16-5.51-1.57-9.24-2.29.07-.2.07-.46.13-.66.79.13,1.57.2,2.36.26,1.9.2,3.93.33,6.62,1.77Zm11.15,11.47c-.07.13-.33,0-.46,0l-21.31-7.93c.07-.2.2-.39.26-.59l9.11,3.41-8.85-4.06c.07-.2.2-.39.26-.66l20.72,9.51c.07.07.33.2.26.33Zm-15.01-1.18c2.75,3.28,4.65,3.93,6.29,4.52.85.33,1.51.59,2.29,1.11,1.44,1.11,2.03,2.29,2.03,3.02v.26c-.07-.07-.13-.2-.2-.33-.26-.59-.72-1.51-1.97-2.16-.52-.26-1.25-.46-2.03-.72-2.03-.59-4.79-1.38-7.15-4.2-1.7-2.03-3.74-3.02-5.9-4-.72-.33-1.44-.66-2.16-1.05.13-.2.26-.39.46-.59,2.95,1.57,5.77,2.1,8.06,5.05-1.44-2.95-4.52-3.54-7.67-5.64.13-.2.26-.39.33-.59.66.46,1.38.79,2.1,1.11,1.7.92,3.47,1.84,5.51,4.2Zm5.9,14.82c-.07.07-.33-.13-.39-.2l-16.72-15.47c.13-.13.33-.26.46-.46l7.15,6.62-6.62-7.15c.13-.13.33-.33.46-.52l15.47,16.72c.07.13.2.33.2.46Zm-13.44-6.82c1.31,4.06,2.82,5.44,4.06,6.62.66.59,1.18,1.11,1.7,1.9.92,1.57.98,2.88.79,3.54-.07.13-.07.2-.13.26v-.39c-.07-.66-.13-1.7-.98-2.75-.39-.46-.92-.92-1.57-1.38-1.64-1.31-3.87-3.08-4.98-6.62-.79-2.56-2.29-4.2-3.93-5.97-.52-.59-1.11-1.18-1.64-1.84.2-.13.39-.26.66-.39,2.16,2.62,4.52,4.13,5.51,7.8-.2-3.28-2.82-4.98-4.92-8.19.2-.13.39-.26.52-.39.46.66.98,1.25,1.51,1.84,1.18,1.51,2.43,3.02,3.41,5.97Zm-.26,15.93c-.07.07-.26-.2-.33-.33l-9.51-20.72c.2-.07.39-.13.59-.2l4.06,8.85-3.41-9.11c.2-.07.39-.2.59-.26l7.93,21.37c.13.07.2.26.07.39Zm-9.77-11.47c-.33,4.26.52,6.1,1.25,7.67.39.79.72,1.51.85,2.43.26,1.84-.2,3.08-.66,3.54l-.2.2c0-.13.07-.26.13-.33.2-.59.52-1.64.13-2.88-.2-.59-.52-1.18-.92-1.9-1.05-1.84-2.43-4.39-2.1-8,.26-2.69-.52-4.79-1.38-7.01-.26-.72-.52-1.51-.79-2.29.26-.07.46-.07.72-.13.98,3.21,2.56,5.51,2.1,9.31,1.05-3.08-.66-5.64-1.44-9.44.2-.07.46-.07.66-.13.2.79.39,1.51.66,2.23.59,1.84,1.18,3.74.98,6.75Zm-6.36,14.69c-.13,0-.13-.33-.13-.46l-.85-22.75h.66l.33,9.7.33-9.7h.66l-.85,22.75c.07.2,0,.46-.13.46Zm-2.95-20.98c-.13,1.9-.33,3.93-1.7,6.62-1.97,3.8-1.84,5.83-1.77,7.54.07.85.07,1.64-.13,2.56-.46,1.77-1.31,2.75-1.97,3.02-.13.07-.2.07-.26.07.07-.07.13-.2.26-.26.39-.46,1.11-1.25,1.25-2.62.07-.59-.07-1.31-.13-2.1-.26-2.1-.52-4.98,1.11-8.19,1.25-2.36,1.31-4.59,1.44-7.01,0-.79.07-1.57.13-2.43.26.07.46.13.72.2-.33,3.34.26,6.1-1.57,9.37,2.16-2.49,1.57-5.51,2.29-9.24.2.07.46.07.66.13-.2.79-.26,1.57-.33,2.36Zm-12.98,17.7c-.13.13-.13.07-.13.07-.13-.07,0-.33,0-.46l7.93-21.37c.2.07.39.2.59.26l-3.41,9.11,4.06-8.85c.2.07.39.2.66.26l-9.51,20.72c-.07,0-.13.13-.2.26Zm5.11-20.45c-.85,1.7-1.77,3.47-4.13,5.51-3.28,2.75-3.93,4.65-4.52,6.29-.33.85-.59,1.51-1.11,2.29-1.11,1.44-2.29,2.03-3.02,2.03h-.26c.07-.07.2-.13.33-.2.59-.26,1.51-.72,2.16-1.97.26-.52.46-1.25.72-2.03.59-2.03,1.38-4.79,4.2-7.15,2.03-1.7,3.02-3.74,4-5.9.33-.72.66-1.44,1.05-2.16.2.13.39.26.59.46-1.57,2.95-2.1,5.77-5.05,8.06,2.95-1.44,3.54-4.52,5.64-7.67.2.13.39.26.59.33-.46.72-.85,1.38-1.18,2.1Zm-18.95,11.41c-.07-.07.13-.33.2-.39l15.47-16.72c.13.13.26.33.46.46l-6.62,7.15,7.15-6.62c.13.13.33.33.52.46l-16.72,15.47c-.13.07-.39.26-.46.2Zm12.72-16.98c-1.44,1.25-2.95,2.56-5.9,3.47-4.06,1.31-5.44,2.82-6.62,4.06-.59.66-1.11,1.18-1.9,1.7-1.57.92-2.88.98-3.54.79-.13-.07-.2-.07-.26-.13h.39c.66-.07,1.7-.13,2.75-.98.46-.39.92-.92,1.38-1.57,1.31-1.64,3.08-3.87,6.62-4.98,2.56-.79,4.2-2.29,5.97-3.93.59-.52,1.18-1.11,1.84-1.64.13.2.26.39.39.66-2.62,2.16-4.13,4.52-7.8,5.51,3.28-.2,4.98-2.82,8.19-4.92.13.2.26.39.39.52-.72.46-1.31.98-1.9,1.44Zm-21.9,3.28c-.07-.13.2-.26.33-.33l20.72-9.51c.07.2.13.39.2.59l-8.85,4.06,9.11-3.41c.07.2.2.39.26.59l-21.31,8c-.07.07-.39.13-.46,0Zm18.29-10.75c-1.84.59-3.74,1.25-6.75.98-4.26-.33-6.1.52-7.67,1.25-.79.39-1.51.72-2.43.85-1.84.26-3.08-.2-3.54-.66l-.2-.2c.13,0,.26.07.33.13.59.2,1.64.52,2.88.13.59-.2,1.18-.52,1.9-.92,1.84-1.05,4.39-2.43,8-2.1,2.69.26,4.79-.52,7.01-1.38.72-.26,1.51-.52,2.29-.79.07.26.07.46.13.72-3.21.98-5.51,2.56-9.31,2.1,3.08,1.05,5.64-.66,9.44-1.44.07.2.07.46.13.66-.72.2-1.51.39-2.23.66Zm-21.04-5.18c-.13,0-.39-.07-.39-.13,0-.13.33-.13.46-.13l22.75-.85v.66l-9.7.33,9.7.33v.66l-22.81-.85Zm13.96-4.85c-3.8-1.97-5.83-1.84-7.54-1.77-.85.07-1.64.07-2.56-.13-1.77-.46-2.75-1.31-3.02-1.97-.07-.13-.07-.2-.07-.26.07.07.2.13.26.26.46.39,1.25,1.11,2.62,1.25.59.07,1.31-.07,2.1-.13,2.1-.26,4.98-.59,8.19,1.11,2.36,1.25,4.59,1.31,7.01,1.44.79,0,1.57.07,2.43.13-.07.26-.13.46-.2.72-3.34-.33-6.1.26-9.37-1.57,2.49,2.16,5.51,1.57,9.24,2.29-.07.2-.07.46-.13.66-.79-.13-1.57-.2-2.36-.26-1.9-.2-3.93-.39-6.62-1.77Zm-11.21-11.47c.07-.13.33,0,.46,0l21.37,7.93c-.07.2-.2.39-.26.59l-9.11-3.41,8.85,4.06c-.07.2-.2.39-.26.66l-20.72-9.51c-.07-.07-.33-.2-.33-.33Zm15.08,1.18c-2.75-3.28-4.65-3.93-6.29-4.52-.85-.33-1.51-.59-2.29-1.11-1.44-1.11-2.03-2.29-2.03-3.02v-.26c.07.07.13.2.2.33.26.59.72,1.51,1.97,2.16.52.26,1.25.46,2.03.72,2.03.59,4.79,1.38,7.15,4.2,1.7,2.03,3.74,3.02,5.9,4,.72.33,1.44.66,2.16,1.05-.13.2-.26.39-.46.59-2.95-1.57-5.77-2.1-8.06-5.05,1.44,2.95,4.52,3.54,7.67,5.64-.13.2-.26.39-.33.59-.66-.46-1.38-.79-2.1-1.11-1.7-.92-3.54-1.84-5.51-4.2Zm-5.9-14.69c-.07-.13-.07-.2,0-.2.07-.07.33.13.39.2l16.72,15.47c-.13.13-.33.26-.46.46l-7.15-6.62,6.62,7.15c-.13.13-.33.33-.46.52l-15.47-16.72s-.13-.13-.2-.26Zm13.44,6.69c-1.31-4.06-2.82-5.44-4.06-6.62-.66-.59-1.18-1.11-1.7-1.9-.92-1.57-.98-2.88-.79-3.54.07-.13.07-.2.13-.26v.39c.07.66.13,1.7.98,2.75.39.46.92.92,1.57,1.38,1.64,1.31,3.87,3.08,4.98,6.62.79,2.56,2.29,4.2,3.93,5.97.52.59,1.11,1.18,1.64,1.84-.2.13-.39.26-.66.39-2.16-2.62-4.52-4.13-5.51-7.8.2,3.28,2.82,4.98,4.92,8.19-.2.13-.39.26-.52.39-.46-.66-.98-1.25-1.51-1.84-1.18-1.51-2.43-3.02-3.41-5.97Zm.2-16c.13-.07.26.2.33.33l9.51,20.72c-.2.07-.39.13-.59.2l-4.06-8.85,3.41,9.11c-.2.07-.39.2-.59.26l-7.93-21.37c-.07,0-.13-.33-.07-.39Zm9.83,11.47c.33-4.26-.52-6.1-1.25-7.67-.39-.79-.72-1.51-.85-2.43-.26-1.84.2-3.08.66-3.54l.2-.2c0,.13-.07.26-.13.33-.2.59-.52,1.64-.13,2.88.2.59.52,1.18.92,1.9,1.05,1.84,2.43,4.39,2.1,8-.26,2.69.52,4.79,1.38,7.01.26.72.59,1.51.79,2.29-.26.07-.46.07-.72.13-.98-3.21-2.62-5.57-2.16-9.31-1.05,3.08.66,5.7,1.44,9.44-.2.07-.46.07-.66.13-.2-.79-.39-1.51-.66-2.29-.52-1.7-1.18-3.61-.92-6.69Zm6.29-14.69h0c.13,0,.13.33.13.46l.85,22.75h-.66l-.33-9.7-.33,9.7h-.66l.85-22.75c0-.13.07-.46.13-.46Zm3.02,21.04c.13-1.9.33-3.93,1.7-6.62,1.97-3.8,1.84-5.83,1.77-7.54-.07-.85-.07-1.64.13-2.56.46-1.77,1.31-2.75,1.97-3.02.13-.07.2-.07.26-.07-.07.07-.13.2-.26.26-.39.46-1.11,1.25-1.25,2.62-.07.59,0,1.31.13,2.1.26,2.1.52,4.98-1.11,8.19-1.25,2.36-1.31,4.59-1.44,7.01,0,.79-.07,1.57-.13,2.43-.26-.07-.46-.13-.72-.2.33-3.34-.26-6.1,1.57-9.44-2.16,2.49-1.51,5.51-2.29,9.24-.2-.07-.46-.07-.66-.13.2-.72.26-1.51.33-2.29Zm13.18-17.83c.13.07,0,.33,0,.46l-7.93,21.37c-.2-.07-.39-.2-.59-.26l3.41-9.11-4.06,8.85c-.2-.07-.39-.2-.66-.26l9.51-20.72c.07-.07.2-.33.33-.33Zm-5.31,20.59c.85-1.7,1.77-3.47,4.13-5.51,3.28-2.75,3.93-4.65,4.52-6.29.33-.85.59-1.51,1.11-2.29,1.11-1.44,2.29-2.03,2.95-2.03h.26c-.07.07-.2.13-.33.2-.59.26-1.51.72-2.16,1.97-.26.52-.46,1.25-.72,2.03-.59,2.03-1.38,4.79-4.2,7.15-2.03,1.7-3.02,3.74-4,5.9-.33.72-.66,1.44-1.05,2.23-.2-.13-.39-.26-.59-.46,1.57-2.95,2.1-5.77,5.05-8.06-2.95,1.44-3.54,4.52-5.7,7.67-.2-.13-.39-.26-.59-.33.59-.79.92-1.44,1.31-2.16Zm18.75-11.01l-15.47,16.72c-.13-.13-.26-.33-.46-.46l6.62-7.15-7.15,6.62c-.13-.13-.33-.33-.52-.46l16.72-15.47c.07-.07.26-.2.39-.2.13.07-.07.33-.13.39Zm-12.52,16.52c1.44-1.25,2.95-2.56,5.9-3.47,4.06-1.31,5.44-2.82,6.62-4.06.59-.66,1.11-1.18,1.9-1.7,1.57-.92,2.88-.98,3.54-.79.13.07.2.07.26.13h-.39c-.66.07-1.7.13-2.75.98-.46.39-.92.92-1.38,1.57-1.31,1.64-3.08,3.87-6.62,4.98-2.56.79-4.2,2.29-5.97,3.93-.59.52-1.18,1.11-1.84,1.64-.13-.2-.26-.39-.39-.66,2.62-2.16,4.13-4.52,7.8-5.51-3.28.2-4.98,2.82-8.19,4.92-.13-.2-.26-.39-.39-.52.66-.39,1.25-.92,1.9-1.44Zm21.83-3.28c.07.13-.2.26-.33.33l-20.72,9.51c-.07-.2-.13-.39-.2-.59l8.85-4.06-9.11,3.41c-.07-.2-.2-.39-.26-.59l21.37-7.93c.07-.07.26-.13.39-.07Zm-18.23,10.82c1.84-.59,3.74-1.25,6.75-.98,4.26.33,6.1-.52,7.67-1.25.79-.39,1.51-.72,2.43-.85,1.84-.26,3.08.2,3.54.66l.2.2c-.13,0-.26-.07-.33-.13-.59-.2-1.64-.52-2.88-.13-.59.2-1.18.52-1.9.92-1.84,1.05-4.39,2.43-8,2.1-2.69-.26-4.79.52-7.01,1.38-.72.26-1.51.52-2.29.79-.07-.26-.07-.46-.13-.72,3.21-.98,5.51-2.62,9.31-2.16-3.08-1.05-5.7.66-9.44,1.44-.07-.2-.07-.46-.13-.66.72-.13,1.44-.33,2.23-.59Zm21.04,5.18c.13,0,.39.07.39.13,0,.13-.33.13-.46.13l-22.68.92v-.66l9.7-.33-9.7-.33v-.66l22.75.79Zm-28.13,6.42c-.07.13-.13.26-.2.39-.07.2-.2.33-.26.52-.07.13-.13.2-.2.33-.33.59-.72,1.18-1.18,1.7h0c-.07.07-.13.2-.2.26h0c-.07.07-.13.2-.2.26h0c-.13.2-.33.33-.46.52-.2.26-.46.46-.72.72l-.07.07c-.07.07-.2.2-.33.26-.13.13-.26.26-.46.39-.07.07-.2.13-.26.2-.52.39-1.11.79-1.7,1.18h0c-.13.07-.2.13-.33.2h0c-.13.07-.2.13-.33.13h0c-.2.13-.39.2-.59.26-.33.13-.59.26-.92.39h-.07c-.13.07-.26.07-.39.13-.2.07-.33.13-.52.2-.13.07-.26.07-.33.13-.66.2-1.38.33-2.03.39h0c-.13,0-.26,0-.33.07h-.33c-.2,0-.46,0-.66.07h-1.44c-.2,0-.39,0-.52-.07-.13,0-.26,0-.39-.07-.72-.07-1.38-.2-2.03-.39h0c-.13,0-.26-.07-.33-.07h0c-.13-.07-.2-.07-.33-.13h0c-.2-.07-.46-.13-.66-.2-.33-.13-.59-.26-.92-.39h-.07c-.13-.07-.26-.13-.39-.2-.2-.07-.33-.2-.52-.26-.13-.07-.2-.13-.33-.2-.59-.33-1.18-.72-1.7-1.18h0c-.07-.07-.2-.13-.26-.2h0c-.07-.07-.2-.13-.26-.2h0c-.2-.13-.33-.33-.52-.46-.26-.2-.46-.46-.72-.72l-.07-.07c-.07-.07-.2-.2-.26-.33-.13-.13-.26-.26-.39-.46-.07-.07-.13-.2-.2-.26-.39-.52-.79-1.11-1.18-1.7h0c-.07-.13-.13-.2-.2-.33h0c-.07-.13-.13-.2-.13-.33h0c-.13-.2-.2-.39-.26-.59-.13-.33-.26-.59-.39-.92v-.07c-.07-.13-.07-.26-.13-.39-.07-.2-.13-.33-.2-.52-.07-.13-.07-.26-.13-.33-.2-.66-.33-1.38-.39-2.03h0c0-.13,0-.26-.07-.33h0v-.33h0c0-.2,0-.46-.07-.66v-1.44c0-.2,0-.39.07-.52,0-.13,0-.26.07-.39.07-.72.2-1.38.39-2.03h0c0-.13.07-.26.07-.33h0c.07-.13.07-.2.13-.33h0c.07-.2.13-.46.2-.66.13-.33.26-.59.39-.92v-.07c.07-.13.13-.26.2-.39.07-.2.2-.33.26-.52.07-.13.13-.2.2-.33.33-.59.72-1.18,1.18-1.7h0c.07-.07.13-.2.2-.26h0c.07-.07.13-.2.2-.26h0c.13-.2.33-.33.46-.52.2-.26.46-.46.72-.72l.07-.07c.07-.07.2-.2.33-.26.13-.13.26-.26.46-.39.07-.07.2-.13.26-.2.52-.39,1.11-.79,1.7-1.18h0c.13-.07.2-.13.33-.2h0c.13-.07.2-.13.33-.13h0c.2-.13.39-.2.59-.26.33-.13.59-.26.92-.39h.07c.13-.07.26-.07.39-.13.2-.07.33-.13.52-.2.13-.07.26-.07.33-.13.66-.2,1.38-.33,2.03-.39h0c.13,0,.26,0,.33-.07h.33c.2,0,.46,0,.66-.07h1.44c.2,0,.39,0,.59.07.13,0,.26,0,.39.07.72.07,1.38.2,2.03.39h0c.13,0,.26.07.33.07h0c.13.07.2.07.33.13h0c.2.07.46.13.66.2.33.13.59.26.92.39h.07c.13.07.26.13.39.2.2.07.33.2.52.26.13.07.2.13.33.2.59.33,1.18.72,1.7,1.18h0c.07.07.2.13.26.2h0c.07.07.2.13.26.2h0c.2.13.33.33.52.46.26.2.46.46.72.72v.07c.07.07.2.2.26.33.13.13.26.26.39.46.07.07.13.2.2.26.46.52.79,1.11,1.18,1.77h0c.07.13.13.2.2.33h0c.07.13.13.2.2.33h0c.13.2.2.39.33.59.13.33.26.59.39.92v.07c.07.13.07.26.13.39.07.2.13.33.2.52.07.13.07.26.13.33.2.66.33,1.38.39,2.03h0c0,.13,0,.26.07.33h0v.33h0c0,.2,0,.46.07.66v1.44c0,.2,0,.39-.07.52,0,.13,0,.26-.07.39-.07.72-.2,1.38-.39,2.03h0c0,.13-.07.26-.07.33h0c-.07.13-.07.2-.13.33h0c-.07.2-.13.46-.2.66-.2.26-.33.59-.52.92q.07,0,0,0Zm-8.92-9.77c-.33.13-.66.26-.92.46-.2.13-.39.33-.59.52l-.13.13c-.07.07-.07.13-.13.13l-.07.07c.07,0,.07.07.13.07,0,0,.07,0,.07.07.07.07.13.07.13.13.07,0,.07.07.13.07.13.07.26.13.39.2,0,0,.07,0,.07.07.13.07.26.13.39.13.13.07.26.07.39.07.2.07.46.07.66.07h.66c.39,0,.85-.07,1.25-.2.13,0,.2-.07.33-.07.26-.07.59-.2.85-.33.2-.07.39-.2.59-.33.07-.07.13-.07.2-.13h0c-.13-.2-.33-.33-.52-.46-.52-.39-1.18-.72-1.84-.85h0c-.13,0-.26-.07-.39-.07h-.46c-.52.13-.85.2-1.18.26Zm0,2.03c-.13-.07-.26-.07-.33-.13h0c-.13-.07-.26-.07-.33-.13-.13-.07-.26-.13-.33-.2-.07-.07-.13-.07-.2-.13h0c.07-.07.13-.13.13-.2l.13-.13.39-.39c.26-.2.59-.33.92-.46-.13.13-.26.26-.33.46-.07.13-.07.26-.07.39v.13c0,.13,0,.2.07.33v.07c.07.13.13.2.2.33l.07.07c.07.07.2.13.26.2-.26-.07-.46-.13-.59-.2Zm3.34-1.05c0,.07.07.07.07.13l-.2.2c-.13.13-.26.26-.46.33-.26.13-.46.26-.72.33-.13.07-.2.07-.33.13l.13-.13c.13-.13.2-.2.26-.33,0-.07.07-.07.07-.13s.07-.13.07-.26v-.13c0-.39-.2-.72-.52-.98h0c.79.2,1.44.52,1.64.85Zm1.77-.07c.13.13.13.26.13.33v.07h-.07c-.07,0-.2-.13-.33-.26-.13-.13-.33-.26-.52-.46-.39-.33-.98-.66-1.64-.92-.13-.07-.26-.07-.39-.13s-.26-.07-.39-.07-.33,0-.46-.07h-.92c-.39.07-.85.13-1.25.39-.13.07-.2.13-.33.2-.07.07-.13.13-.26.2-.07.07-.2.13-.26.2-.13.07-.2.13-.26.2-.2.13-.39.26-.52.33-.07.07-.13.07-.2.13h-.13c-.07,0-.13,0-.13-.07,0,0-.07-.07-.07-.13s0-.2.07-.26.07-.07.13-.07.13,0,.2-.07q.07,0,.13-.07c.2-.07.46-.2.72-.46h.07c.2-.13.33-.26.52-.39.13-.13.33-.2.52-.33.33-.2.79-.26,1.44-.33h.92c.13,0,.26,0,.39.07h.07c.13,0,.26.07.39.07.2.07.46.13.66.2.59.26,1.11.59,1.44.92.07.46.26.66.33.79Zm.85-1.11q.07,0,0,0c.07,0,0,0,0,0-.39-.33-.79-.66-1.25-.92-.26-.13-.52-.33-.79-.46-.13-.07-.26-.13-.46-.2h0c-.13-.07-.2-.07-.33-.13-.07,0-.13-.07-.13-.07-.07,0-.13-.07-.2-.07-.26-.07-.46-.13-.72-.2-.66-.13-1.31-.2-1.9-.2h-.07c-.13,0-.26,0-.39.07-.13,0-.26.07-.39.07s-.26.07-.39.07c-.13.07-.26.07-.39.13-.2.07-.39.2-.59.33-.13.07-.26.13-.33.2-.13.07-.26.2-.33.26l-.07.07c-.07.13-.2.26-.26.39h0c-.2.26-.33.59-.46.85v.07c-.07.13-.13.26-.13.39h0c-.07.13-.07.26-.07.39h0v.13h0v.13h0v.26h0v.52c0,.13,0,.26.07.39v.13h0v.46h0v.07c0,.07.07.2.07.26v.07h0q0,.07.07.13c0,.07.07.13.07.2s.07.13.07.2h0v.07c.07.07.07.2.13.26,0,0,0,.07.07.07h0v.07c0,.07.07.13.07.13,0,.07.07.07.07.13v.07h0c0,.07.07.07.07.13s.07.07.07.13h0l.07.07.07.07.07.07h0l.07.07c.07.07.07.13.13.2-.07,0-.13,0-.2.07h-.07c-.07,0-.07.07-.13.07s-.07.07-.13.07h0s0-.07-.07-.07h0c-.07-.13-.07-.2-.13-.33h0v-.07s0-.07-.07-.07c0-.07-.07-.13-.07-.2h0v-.07h0c0-.07-.07-.13-.07-.2,0,0,0-.07-.07-.07v-.07c0-.07-.07-.13-.07-.2h0c0-.07-.07-.13-.07-.2v-.07c0-.07-.07-.13-.07-.13v-.2h0v-.07c0-.07-.07-.13-.07-.2v-.07h0v-.07c0-.07,0-.13-.07-.2v-.07h0v-.07c0-.07,0-.13-.07-.2v-.07h0v-.33c0-.07,0-.2-.07-.26h0v-.66h0v-.13h0v-.39h0v-.39h0v-.07c0-.2.07-.33.07-.52v-.2c0-.13.07-.33.13-.46v-.13h0c0-.13.07-.2.13-.33s.07-.26.13-.39c.07-.07.13-.07.13-.13.13-.07.2-.2.33-.26s.26-.13.33-.26c.13-.07.26-.13.33-.2.26-.13.52-.26.79-.39.13-.07.33-.13.46-.2.13-.07.26-.07.39-.13s.26-.07.39-.07.2-.07.33-.07h.13c.13,0,.26,0,.39-.07h.59c.59,0,1.11.13,1.7.33.2.07.39.2.66.26.13.07.2.13.33.2.07.07.13.07.2.13.07,0,.07.07.13.07.07.07.2.13.26.2.13.07.2.2.33.26.2.13.39.33.59.52.07.52.39.85.66,1.25Zm-1.51,2.16h0c-.07.07-.2.13-.26.2,0,0-.07,0-.07.07-.39.26-.72.46-1.05.59-.39.2-.72.26-1.05.39-.39.07-.79.13-1.18.13h-.2c-.2,0-.39,0-.59-.07-.33-.07-.66-.13-.92-.26h-.07c-.13-.07-.2-.07-.33-.13-.07,0-.07-.07-.13-.07-.07-.07-.13-.07-.2-.13h0c-.07-.07-.13-.07-.2-.13-.13-.07-.2-.13-.33-.2,0,0-.07,0-.07-.07-.13-.07-.2-.13-.26-.2h0l-.13-.13h0c-.07-.13,0-.2.13-.2h.2c.07,0,.2.07.33.13h0s.07,0,.07.07c.07.07.13.07.26.13.13.07.2.13.33.2.13.07.2.13.33.2,0,0,.07,0,.07.07.07.07.2.07.26.13.07,0,.13.07.2.07h.07c.39.13.79.13,1.25.13.26,0,.52,0,.79-.07.13,0,.33-.07.46-.07.52-.13,1.11-.26,1.77-.52.2-.2.33-.2.52-.26Zm-9.57,5.64c.13.07.26.07.39.07h.13c.13,0,.2,0,.33-.07.13,0,.2-.07.26-.07h.07c.07,0,.07-.07.13-.07h0c.07-.07.13-.07.2-.13.13-.07.2-.13.26-.26.13-.13.2-.2.26-.33,0,0,0-.07.07-.07,0-.07.07-.07.07-.13q0,.07.07.13c.07.13.13.26.2.39.07.07.2.13.33.2.07,0,.13.07.2.07h.13c.13,0,.26-.07.39-.13l.2-.2.07-.07c.07-.13.07-.2.07-.33h0c0-.33-.2-.59-.52-.72h.07c.13,0,.26.07.39.13.26.13.46.39.52.72,0,.07.07.2.07.33v.07c0,.07,0,.13-.07.26q0,.07-.07.13c-.07.13-.13.2-.2.33l-.2.2c-.13.07-.26.13-.39.2-.07,0-.2.07-.33.07h-.2c-.13,0-.26-.07-.33-.13-.13-.07-.26-.2-.33-.33h0s-.07,0-.07.07c-.13.07-.2.13-.33.2-.07,0-.2.07-.26.07h0c-.07,0-.13,0-.26.07-.13,0-.33,0-.39.07h-.39c-.13,0-.26,0-.39-.07-.07,0-.2-.07-.26-.07h0c-.07,0-.13-.07-.2-.07-.13-.07-.2-.13-.33-.2-.07.07-.07.13-.13.2-.07.07-.2.13-.26.2h-.07c-.13.07-.26.07-.39.07h-.2c-.13,0-.26-.07-.33-.07-.13-.07-.26-.13-.33-.2-.07-.07-.13-.13-.2-.26-.07-.07-.07-.13-.13-.2-.07-.13-.07-.26-.07-.33h0c0-.13,0-.26.07-.39s.13-.33.26-.46c.13-.13.33-.26.52-.33h.13c-.07,0-.07.07-.13.07-.2.13-.33.33-.33.59v.13c0,.07,0,.13.07.2v.07c.07.13.13.2.2.33.07.07.13.13.26.13h.07c.07,0,.13.07.26.07h0c.13,0,.26-.07.33-.13.13-.07.26-.26.33-.39q0-.07.07-.13v-.07.07c.07.07.13.2.26.33.07.07.13.2.26.26,0,0,.07,0,.07.07h0c.07.07.13.07.26.13h0c-.39-.33-.33-.33-.2-.26Zm-1.84,2.43c0-.07.07-.07,0,0,.13-.07.26-.13.39-.13h.07c.07,0,.2,0,.26-.07.2,0,.33,0,.46.07.07,0,.13,0,.2.07.07,0,.13.07.2.07.13.07.26.07.33.13.13,0,.2.07.33.07h0c.07,0,.2,0,.33-.07.13,0,.2-.07.33-.13q.07,0,.13-.07c.07,0,.13-.07.2-.07.13-.07.33-.07.46-.07h.33c.13,0,.26.07.33.13h0c.72.39,1.18.79,1.7,1.11.13.07.26.13.39.2-.2-.13-.33-.26-.46-.33-.59-.52-1.05-1.05-1.64-1.38-.13-.07-.26-.13-.33-.13-.13-.07-.26-.07-.39-.07h-.2c-.13,0-.26,0-.52.07h0c-.13,0-.2.07-.33.13s-.2.07-.33.13c-.07,0-.07.07-.13.07h0c-.07,0-.07-.07-.13-.07-.13-.07-.2-.13-.33-.13-.13-.07-.26-.07-.33-.13h-.07c-.2-.07-.33-.07-.46-.07h-.26c-.13,0-.2,0-.33.07s-.26.07-.33.13c-.59.33-1.05.92-1.7,1.44-.13.07-.26.2-.39.26h0c.07,0,.2,0,.26.07.66.07,1.11.26,1.38.52l.52.52.07.07.2.2.13.13c.07,0,.13.07.13.07.07.07.13.07.2.07.2.07.39.13.66.13.2,0,.46.07.72.07h0c.26,0,.46,0,.66-.07.26-.07.52-.07.72-.13.07,0,.13-.07.2-.07s.13-.07.13-.07c.07-.07.13-.07.13-.13.07-.07.13-.13.26-.2l.07-.07c.13-.2.26-.33.46-.52.26-.2.66-.39,1.38-.52.13,0,.2,0,.33-.07h-.52c-.66-.2-1.18-.26-1.57-.33h-.07c-.13,0-.26,0-.39-.07h-.72c-.13,0-.26,0-.33.07h-.07c-.26.07-.46.07-.72.07h0c-.26,0-.46-.07-.72-.07h-.07c-.07,0-.2,0-.33-.07h-1.18c-.39.07-.92.13-1.57.33h-.46c.13-.07.2-.13.33-.13.79-.2,1.31-.66,2.03-1.05Zm-.13,1.11h.2c.13,0,.26,0,.39.07h.13c.07,0,.13,0,.2.07.07,0,.13,0,.13.07.13.07.26.07.33.13.07,0,.13,0,.13.07.26.07.46.13.72.13h0c.26,0,.52-.07.72-.13.07,0,.13-.07.2-.07.13-.07.2-.07.33-.13.07,0,.13,0,.13-.07.07,0,.13,0,.2-.07h.2c.13,0,.26-.07.39-.07h.13c.39,0,.85,0,1.44.13-.59,0-.98.13-1.25.26-.13.07-.26.13-.33.26-.07.07-.13.13-.2.13l-.2.2-.07.07c-.07.07-.2.13-.26.2h0c-.2.13-.39.2-.72.26-.2.07-.39.07-.72.07h0c-.26,0-.52,0-.72-.07-.26-.07-.46-.13-.66-.26h0c-.13-.07-.2-.13-.26-.2l-.07-.07-.2-.2c-.07-.07-.13-.13-.2-.13-.13-.07-.26-.2-.39-.26-.26-.13-.66-.26-1.25-.26.66-.13,1.11-.13,1.51-.13Zm4.46,3.21c.2.33.33.72.33,1.18-.07-.26-.2-.52-.33-.79-.13-.13-.2-.26-.33-.39s-.2-.2-.33-.26c-.2-.13-.46-.26-.66-.33s-.39-.07-.66-.07-.46.07-.72.13c-.2.07-.46.2-.66.33-.13.07-.26.2-.33.26-.13.13-.26.26-.33.39-.13.2-.26.46-.33.72,0-.39.13-.79.33-1.11.07-.2.2-.33.33-.46l.33-.33c.2-.13.39-.26.66-.33.2-.07.46-.13.72-.13s.46.07.66.13c.26.07.46.2.66.33.13.07.26.2.33.33.07.07.2.26.33.39Zm-11.34-15.47c-.39.26-.85.59-1.25.92l-.07.07v-.07c.26-.39.59-.72.92-1.05.2-.2.33-.33.52-.46.13-.07.2-.2.33-.26.07-.07.13-.07.2-.13.07-.07.13-.07.13-.13.07,0,.07-.07.13-.07.13-.07.2-.13.33-.2.2-.13.46-.2.66-.33.52-.2,1.11-.33,1.64-.33h.52c.13,0,.26,0,.39.07h.07c.13,0,.2,0,.33.07.13,0,.2.07.33.07.13.07.33.07.46.13s.2.07.33.13c.33.13.59.26.92.39.13.07.26.13.33.2.13.07.26.13.33.2.13.07.2.13.33.26.13.07.2.13.33.26q0,.07.07.13c.07.13.13.33.13.46.07.13.07.33.13.46v.07h0c0,.13.07.2.07.33v1.05h0v.33h0v.39h0v.66h0v.07c0,.13,0,.26-.07.39v.07h0v.07c0,.07,0,.13-.07.13v.07h0v.26h0v.07c0,.07,0,.13-.07.13v.07h0v.07c0,.13-.07.2-.07.33v.07h0v.07h0q0,.07-.07.13c-.07.13-.07.2-.13.33v.07h0s0,.07-.07.07c0,.07-.07.07-.07.13v.13h0c-.07.07-.07.2-.13.26v.07h0c-.07.13-.07.2-.13.33h0s0,.07-.07.07h0l-.07-.07h-.07c-.13-.07-.2-.13-.33-.13h-.07l.07-.07c0-.07.07-.07.07-.13s.07-.07.07-.13h0c0-.07.07-.07.07-.13h0s0-.07.07-.07v-.07s0-.07.07-.07v-.07c0-.07.07-.07.07-.13.07-.07.07-.13.07-.2s.07-.07.07-.13v-.07s0-.07.07-.07c.07-.13.13-.26.2-.39,0-.07.07-.13.07-.13h0v-.07h0q0-.07.07-.13c0-.07.07-.13.07-.2v-.07h0v-.07c0-.07.07-.13.07-.26v-.07h0v-.07c0-.07.07-.2.07-.26v-.07h0v-.26c0-.13.07-.2.07-.33v-.13h0v-.52h0v-.39h0v-.13c0-.07-.07-.2-.07-.26s-.07-.13-.07-.2h0s0-.07-.07-.07c-.07-.13-.07-.26-.13-.33-.07-.13-.13-.26-.2-.39-.07-.2-.2-.33-.33-.52-.07-.07-.07-.13-.13-.2-.07-.07-.13-.13-.26-.2-.13-.07-.26-.2-.33-.26-.2-.13-.33-.2-.52-.33-.13-.07-.26-.13-.39-.2-.13-.07-.33-.13-.46-.13s-.2-.07-.33-.07-.26-.07-.39-.07h-.39c-.59,0-1.25.07-1.9.2-.26.07-.52.13-.72.2-.07,0-.13.07-.13.07-.07,0-.13.07-.2.07-.07.07-.2.07-.26.13h-.07c-.13.07-.26.13-.39.2-.2.13-.46.26-.66.39Zm.46,1.7c-.26.2-.46.33-.59.46-.2.13-.33.26-.39.2-.07,0,0-.13.07-.33.13-.13.26-.33.46-.52.33-.33.85-.66,1.44-.92.13-.07.33-.13.52-.2.13-.07.26-.07.39-.13h.13c.13,0,.2-.07.33-.07s.33,0,.52-.07h.39c.39,0,.72.07.98.13.13,0,.26.07.39.13.07,0,.13.07.2.13.07.07.2.07.26.13.2.13.33.26.52.39.07.07.13.07.13.13q.07.07.13.07c.2.13.39.26.52.33.07,0,.13.07.2.07s.13.07.2.07c.13.07.26.07.33.13s.07.2,0,.26c0,0,0,.07-.07.07-.07.07-.13.13-.26.07h0c-.07-.07-.2-.13-.33-.2-.13-.07-.33-.2-.52-.33h0c-.2-.13-.33-.26-.52-.39h-.07c-.13-.13-.33-.26-.46-.33h0c-.2-.07-.39-.2-.59-.2-.2-.07-.39-.07-.52-.07h-.98c-.13,0-.33,0-.46.07-.13,0-.26.07-.39.07-.07,0-.13.07-.26.07-.79.07-1.31.46-1.7.79Zm2.23-.66h-.07c-.66.13-1.25.39-1.7.85-.2.13-.33.33-.46.52h0v.07c.13.13.26.2.46.33.2.13.46.26.72.33s.59.2.92.2c.33.07.59.07.92.07h.13c.07,0,.2,0,.26-.07h.33c.2,0,.39-.07.52-.13.13-.07.26-.07.39-.13.07,0,.2-.07.26-.13,0,0,.07,0,.07-.07.2-.07.39-.13.52-.26.07,0,.07-.07.13-.07,0,0,.07,0,.07-.07.07,0,.07-.07.13-.07.07-.07.13-.07.2-.13,0,0,.07,0,.07-.07l-.13-.13c-.13-.13-.26-.2-.39-.33-.2-.13-.33-.26-.52-.33-.26-.13-.52-.26-.79-.39-.39-.13-.79-.2-1.18-.2h-.52c-.07.13-.2.13-.33.2Zm-.52,2.1c-.26-.07-.52-.2-.79-.33-.13-.07-.33-.2-.46-.26,0,0,0-.07.07-.07.07-.13.2-.26.33-.39.46-.46.98-.72,1.51-.79-.33.2-.52.59-.52.98v.26c0,.07.07.13.07.2.07.13.13.26.26.33.07.07.13.13.26.2-.2,0-.46-.07-.72-.13Zm3.08-1.38c.13.07.2.2.26.26v.07c0,.07.07.07.07.13l-.07.07c-.13.13-.26.26-.46.39h0c-.13.07-.2.13-.33.2-.13.07-.2.13-.33.2h0c-.07.07-.13.07-.26.07l.07-.07.07-.07c.07-.07.13-.2.13-.26v-.07c.07-.07.07-.2.07-.33v-.2c0-.2-.07-.33-.13-.46s-.2-.26-.33-.33c.66.07.98.26,1.25.39Zm-.13,2.43c-.2.07-.39.07-.59.13-.2,0-.46.07-.66.07h-.13c-.46,0-.85-.07-1.38-.2-.26-.07-.59-.2-.92-.33-.2-.13-.46-.26-.66-.39-.13-.07-.2-.13-.33-.2-.07-.07-.13-.13-.26-.2h0c.13.07.26.13.46.13.59.2,1.11.39,1.57.46.13.07.26.07.39.07.33.07.66.13.92.13.52,0,.98,0,1.38-.13q.07,0,.13-.07t.07-.07c.07-.07.2-.07.26-.13h.07c.13-.07.2-.13.33-.13.13-.07.26-.13.33-.2.13-.07.2-.13.33-.2h0c.07,0,.07-.07.13-.07.07-.07.13-.07.2-.13q.07,0,.07-.07c.07,0,.13-.07.2-.07s.13,0,.13.07c0,0,0,.07-.07.13l-.26.26s-.07,0-.07.07l-.13.13c-.07,0-.07.07-.13.07-.07.07-.2.13-.33.2h0l-.07.07s-.07,0-.07.07c-.07,0-.07.07-.13.07-.07.07-.13.07-.2.13-.07.07-.13.07-.2.13-.07,0-.07.07-.13.07,0,.07-.13.13-.26.13Z"/>
    </g>
  </g>
</svg>