<?xml version="1.0" encoding="UTF-8"?>
<svg id="Layer_2" data-name="Layer 2" xmlns="http://www.w3.org/2000/svg" viewBox="0 0 520 320">
  <defs>
    <style>
      .cls-1 {
        fill: #a3ab78;
      }

      .cls-1, .cls-2, .cls-3, .cls-4 {
        stroke-width: 0px;
      }

      .cls-2 {
        fill: red;
      }

      .cls-3 {
        fill: #00008b;
      }

      .cls-4 {
        fill: #fff;
      }
    </style>
  </defs>
  <g id="_500x300_Background" data-name="500x300 Background">
    <rect class="cls-1" width="520" height="320" rx="10" ry="10"/>
  </g>
  <g id="Australia">
    <rect class="cls-3" x="10" y="10" width="500" height="300"/>
    <g>
      <polygon class="cls-4" points="151.32 219.98 164.38 200.3 142.29 208.67 135.02 186.21 127.82 208.67 105.73 200.3 118.79 219.98 98.46 232.09 122.02 234.07 118.79 257.49 135.02 240.38 151.32 257.49 148.09 234.07 171.58 232.09 151.32 219.98"/>
      <polygon class="cls-4" points="392.76 242.81 399 233.41 388.51 237.37 385.06 226.66 381.6 237.37 371.11 233.41 377.27 242.81 367.66 248.53 378.82 249.49 377.27 260.65 385.06 252.5 392.76 260.65 391.22 249.49 402.45 248.53 392.76 242.81"/>
      <polygon class="cls-4" points="330.29 143.85 336.53 134.45 325.96 138.42 322.51 127.7 319.06 138.42 308.56 134.45 314.8 143.85 305.11 149.58 316.34 150.53 314.8 161.69 322.51 153.54 330.29 161.69 328.75 150.53 339.98 149.58 330.29 143.85"/>
      <polygon class="cls-4" points="378.82 82.85 377.27 93.93 385.06 85.78 392.76 93.93 391.22 82.85 402.45 81.82 392.76 76.09 399 66.77 388.51 70.73 385.06 60.01 381.6 70.73 371.11 66.77 377.27 76.09 367.66 81.82 378.82 82.85"/>
      <polygon class="cls-4" points="458.03 132.91 448.34 127.19 454.57 117.79 444.08 121.75 440.63 111.04 437.18 121.75 426.61 117.79 432.85 127.19 423.23 132.91 434.39 133.87 432.85 145.02 440.63 136.88 448.34 145.02 446.79 133.87 458.03 132.91"/>
      <polygon class="cls-4" points="412.8 167.85 410.01 161.25 407.3 167.85 400.18 168.44 405.61 173.07 403.92 180.04 410.01 176.3 416.18 180.04 414.42 173.07 419.93 168.44 412.8 167.85"/>
    </g>
    <g>
      <polygon class="cls-4" points="114.17 137.88 122.54 137.88 122.54 94.64 122.54 86.71 82.09 86.71 10 86.71 10 95.23 65.43 95.23 10 123.57 10 123.57 10 137.88 10 137.88 10 137.88 93.39 95.23 111.97 95.23 28.65 137.88 37.97 137.88 114.17 98.9 114.17 137.88"/>
      <polygon class="cls-4" points="260.04 61.17 260.04 52.65 204.69 52.65 260.04 24.32 260.04 10 260.04 10 176.72 52.65 158.07 52.65 241.39 10 232.07 10 155.87 48.98 155.87 10 147.5 10 147.5 53.24 147.5 61.17 187.95 61.17 260.04 61.17"/>
      <polygon class="cls-4" points="260.04 95.23 260.04 86.71 188.02 86.71 147.5 86.71 147.5 94.64 147.5 137.88 155.87 137.88 155.87 98.9 232.07 137.88 260.04 137.88 176.72 95.23 195.36 95.23 260.04 128.34 260.04 137.88 260.04 137.88 260.04 123.57 204.69 95.23 260.04 95.23"/>
      <polygon class="cls-4" points="122.54 61.17 122.54 53.24 122.54 10 114.17 10 114.17 48.98 37.97 10 10 10 93.39 52.65 74.75 52.65 10 19.54 10 24.32 65.43 52.65 10 52.65 10 61.17 82.09 61.17 122.54 61.17"/>
      <g>
        <polygon class="cls-2" points="187.95 61.17 147.5 61.17 147.5 53.24 147.5 10 122.54 10 122.54 53.24 122.54 61.17 82.09 61.17 10 61.17 10 86.71 82.09 86.71 122.54 86.71 122.54 94.64 122.54 137.88 147.5 137.88 147.5 94.64 147.5 86.71 188.02 86.71 260.04 86.71 260.04 61.17 187.95 61.17"/>
        <polygon class="cls-2" points="93.39 52.65 10 10 10 19.54 10 19.54 74.75 52.65 93.39 52.65"/>
        <polygon class="cls-2" points="260.04 10 241.39 10 158.07 52.65 176.72 52.65 260.04 10"/>
        <polygon class="cls-2" points="176.72 95.23 260.04 137.88 260.04 128.34 195.36 95.23 176.72 95.23"/>
        <polygon class="cls-2" points="10 137.88 28.65 137.88 111.97 95.23 93.39 95.23 10 137.88"/>
      </g>
    </g>
  </g>
</svg>