<?xml version="1.0" encoding="UTF-8"?>
<svg id="Layer_2" data-name="Layer 2" xmlns="http://www.w3.org/2000/svg" viewBox="0 0 520 320">
  <defs>
    <style>
      .cls-1 {
        fill: #a3ab78;
      }

      .cls-1, .cls-2, .cls-3, .cls-4, .cls-5, .cls-6 {
        stroke-width: 0px;
      }

      .cls-2 {
        fill: #00b9e4;
      }

      .cls-3 {
        fill: #ed2939;
      }

      .cls-4 {
        fill: none;
      }

      .cls-5 {
        fill: #3f9c35;
      }

      .cls-6 {
        fill: #fff;
      }
    </style>
  </defs>
  <g id="_500x300_Background" data-name="500x300 Background">
    <rect class="cls-1" width="520" height="320" rx="10" ry="10"/>
  </g>
  <g id="Azerbaijan">
    <g>
      <polygon class="cls-4" points="323.05 160.26 323.54 160.09 310.56 155.45 310.42 155.74 323.05 160.26"/>
      <polygon class="cls-4" points="294.44 149.14 294.7 148.45 299.13 136.03 303.82 149.14 316.2 143.25 316.41 142.8 303.82 148.8 299.13 135.68 294.7 148.19 294.44 148.88 292.53 148.01 281.84 142.98 281.95 143.2 292.53 148.27 294.44 149.14"/>
      <polygon class="cls-4" points="287.77 165.1 281.84 177.54 281.95 177.49 287.84 165.12 287.77 165.1"/>
      <polygon class="cls-4" points="287.77 155.6 274.72 160.26 274.96 160.35 287.84 155.74 287.77 155.6"/>
      <path class="cls-4" d="m250.27,204.38s.03,0,.05,0c14.33,0,27.1-6.86,35.18-17.54-.11.1-.22.2-.33.31-8,10.49-20.63,17.23-34.89,17.24Z"/>
      <path class="cls-4" d="m223.39,160.43c0,20.24,16.42,36.65,36.65,36.65.01,0,.03,0,.04,0-20.22-.02-36.61-16.43-36.61-36.65s16.39-36.63,36.61-36.65c-.01,0-.03,0-.04,0-20.24,0-36.65,16.42-36.65,36.65Z"/>
      <path class="cls-4" d="m285.16,133.73c.11.1.22.2.33.3-8.08-10.68-20.85-17.54-35.18-17.54-.02,0-.03,0-.05,0,14.18.01,26.81,6.75,34.9,17.24Z"/>
      <polygon class="cls-4" points="316.41 177.72 310.56 165.08 310.42 165.12 316.41 177.72"/>
      <rect class="cls-4" x="10" y="209.94" width="500" height=".09"/>
      <rect class="cls-5" x="10" y="210.03" width="500" height="99.97"/>
      <rect class="cls-2" x="10" y="10" width="500" height="99.97"/>
      <path class="cls-6" d="m285.16,187.14c-6.49,6.16-15.38,9.94-25.03,9.94-.01,0-.03,0-.04,0s-.03,0-.04,0c-20.24,0-36.65-16.42-36.65-36.65s16.42-36.65,36.65-36.65c.01,0,.03,0,.04,0s.03,0,.04,0c9.66,0,18.47,3.79,25.03,9.95-8.08-10.5-20.72-17.23-34.9-17.24-24.21.03-43.9,19.64-43.9,43.95s19.6,43.92,43.9,43.95c14.26-.01,26.9-6.74,34.89-17.24Z"/>
      <path class="cls-3" d="m510,109.97H10v99.97h500v-99.97Zm-259.68,94.41s-.03,0-.05,0c-24.3-.02-43.9-19.73-43.9-43.95s19.69-43.92,43.9-43.95c.02,0,.03,0,.05,0,14.33,0,27.1,6.86,35.18,17.54-.11-.1-.22-.2-.33-.3-6.57-6.16-15.38-9.95-25.03-9.95-.01,0-.03,0-.04,0-20.22.02-36.61,16.43-36.61,36.65s16.39,36.63,36.61,36.65c.01,0,.03,0,.04,0,9.65,0,18.54-3.79,25.03-9.94.11-.1.22-.2.33-.31-8.08,10.68-20.85,17.54-35.18,17.54Zm66.1-26.66l-12.59-5.99-4.69,13.12-4.43-12.42-.26-.69-1.91.87-10.68,5.12.11-.22-.11.05,5.92-12.45-13.04-4.66.24-.09-.24-.09,13.04-4.66-5.92-12.45.11.05-.11-.23,10.68,5.04,1.91.87.26-.69,4.43-12.51,4.69,13.12,12.59-5.99-.21.45.21-.1-5.85,12.3,12.97,4.64-.49.17.49.17-12.98,4.64,5.86,12.64Z"/>
      <polygon class="cls-6" points="323.05 160.26 310.42 155.74 310.56 155.45 316.41 143.15 316.2 143.25 303.82 149.14 299.13 136.03 294.7 148.45 294.44 149.14 292.53 148.27 281.95 143.2 281.84 143.15 287.77 155.6 287.84 155.74 274.96 160.35 274.72 160.43 287.77 165.1 287.84 165.12 281.95 177.49 281.84 177.72 292.53 172.59 294.44 171.73 294.7 172.42 299.13 184.84 303.82 171.73 316.41 177.72 310.42 165.12 310.56 165.08 323.54 160.43 323.05 160.26"/>
    </g>
  </g>
</svg>