<?xml version="1.0" encoding="UTF-8"?>
<svg id="Layer_2" data-name="Layer 2" xmlns="http://www.w3.org/2000/svg" viewBox="0 0 520 320">
  <defs>
    <style>
      .cls-1 {
        fill: #a3ab78;
      }

      .cls-1, .cls-2, .cls-3, .cls-4 {
        stroke-width: 0px;
      }

      .cls-2 {
        fill: #f42a41;
      }

      .cls-3 {
        fill: none;
      }

      .cls-4 {
        fill: #006a4e;
      }
    </style>
  </defs>
  <g id="_500x300_Background" data-name="500x300 Background">
    <rect class="cls-1" width="520" height="320" rx="10" ry="10"/>
  </g>
  <g id="Bangladesh">
    <g>
      <path class="cls-3" d="m231.85,259.35c-53.77-1.66-96.85-45.77-96.85-99.95,0,54.2,43.06,98.28,96.85,99.95Z"/>
      <path class="cls-3" d="m238.15,259.35c53.79-1.66,96.85-45.75,96.85-99.95,0,54.18-43.08,98.28-96.85,99.95Z"/>
      <path class="cls-3" d="m235,59.41c-55.25,0-100,44.75-100,100,0-55.23,44.77-100,100-100Z"/>
      <path class="cls-3" d="m335,159.41c0-55.25-44.75-100-100-100,55.23,0,100,44.77,100,100Z"/>
      <path class="cls-4" d="m10,310h500V10H10v300ZM235,59.41c55.25,0,100,44.75,100,100s-43.06,98.28-96.85,99.95c-1.05.03-2.09.05-3.15.05s-2.1-.02-3.15-.05c-53.79-1.66-96.85-45.75-96.85-99.95s44.75-100,100-100Z"/>
      <path class="cls-2" d="m231.85,259.35c1.05.03,2.09.05,3.15.05s2.1-.02,3.15-.05c53.77-1.66,96.85-45.77,96.85-99.95s-44.77-100-100-100-100,44.77-100,100,43.08,98.28,96.85,99.95Z"/>
    </g>
  </g>
</svg>