<?xml version="1.0" encoding="UTF-8"?>
<svg id="Layer_2" data-name="Layer 2" xmlns="http://www.w3.org/2000/svg" viewBox="0 0 520 320">
  <defs>
    <style>
      .cls-1 {
        fill: #a3ab78;
      }

      .cls-1, .cls-2, .cls-3, .cls-4, .cls-5 {
        stroke-width: 0px;
      }

      .cls-2 {
        fill: #ffc726;
      }

      .cls-4 {
        fill: #00267f;
      }

      .cls-5 {
        fill: none;
      }
    </style>
  </defs>
  <g id="_500x300_Background" data-name="500x300 Background">
    <rect class="cls-1" width="520" height="320" rx="10" ry="10"/>
  </g>
  <g id="Barbados">
    <g>
      <path class="cls-5" d="m269.23,119.11c4.13.06,9.96,1.05,13.41,2.18-.01-.01-.02-.02-.03-.03-3.49-1.12-9.29-2.1-13.38-2.15Z"/>
      <path class="cls-5" d="m286.86,181.33c1.73-19.26,6.24-35.43,11.51-52.14.34-2.06,5.89-9.52,2.95-9.65,2.78.24-2.69,7.6-3.03,9.65-5.27,16.78-9.86,32.88-11.51,52.14,0,1.26-.22,2.23-.8,2.32h.05c.6,0,.83-.97.83-2.32Z"/>
      <path class="cls-5" d="m218.61,119.55c.28-.01.63.04,1.07.17.49.06,5.16,1.93,6.27,1.87-1.22-.01-5.71-1.81-6.19-1.87-.48-.14-.86-.19-1.15-.17Z"/>
      <path class="cls-5" d="m293.85,121.22c9.4-9.63,23.02-16.63,36.26-18.66.15-.04.29-.06.42-.07-.15,0-.31.03-.49.07-13.32,2.11-26.93,9.03-36.26,18.66-.21.27-.1.37.2.37-.24-.01-.32-.12-.13-.37Z"/>
      <path class="cls-5" d="m189.4,102.49c-.93-.07-1.34.53-.42,1.72,17.6,27.01,32.35,58.83,32.2,96.6.02,0,.05,0,.08,0,.07-37.77-14.6-69.59-32.2-96.6-.9-1.16-.53-1.76.34-1.72Z"/>
      <path class="cls-5" d="m259.92,79.54c-5.42,14.67-10.91,30.02-22.72,41.75.03-.01.07-.02.11-.03,11.76-11.71,17.25-26.92,22.65-41.62-.01-.03-.03-.07-.04-.1Z"/>
      <path class="cls-5" d="m251.5,181.03v-61.92c-.26,0-.53,0-.8,0,.25,0,.49,0,.73,0v61.92l-17.48,2.63s.01,0,.02,0l17.53-2.63Z"/>
      <rect class="cls-5" x="343.28" y="10" width=".08" height="300"/>
      <path class="cls-5" d="m251.42,196.75v43.71h.08v-43.71s-.05,0-.08,0Z"/>
      <path class="cls-5" d="m268.58,196.75c6.89.03,23.35,4.06,30.17,4.06h0c-6.89-.03-23.35-4.06-30.17-4.06h0Z"/>
      <rect class="cls-4" x="10" y="10" width="166.64" height="300"/>
      <rect class="cls-4" x="343.36" y="10" width="166.64" height="300"/>
      <path class="cls-2" d="m176.64,10v300h166.64V10h-166.64Zm122.18,190.81s-.05,0-.08,0h0c-6.82,0-23.28-4.03-30.17-4.06v43.71h-17.15v-43.71c-6.89.03-23.35,4.06-30.17,4.06h0s-.05,0-.08,0c.15-37.77-14.6-69.59-32.2-96.6-.93-1.19-.51-1.8.42-1.72.15,0,.31.02.49.07,13.32,2.11,26.93,9.03,36.26,18.66.21.27.1.37-.2.37-1.1.06-5.77-1.81-6.27-1.87-.44-.13-.79-.18-1.07-.17-2.78.24,2.69,7.6,3.03,9.65,5.27,16.78,9.86,32.88,11.51,52.14,0,1.26.22,2.23.8,2.32l17.48-2.63v-61.92c-.23,0-.48,0-.73,0-4.13.06-9.96,1.05-13.42,2.18.01-.01.02-.02.03-.03-.03.01-.07.02-.11.03,11.81-11.74,17.3-27.08,22.72-41.75.01.03.03.07.04.1.01-.03.03-.07.04-.1,5.42,14.67,10.91,30.02,22.72,41.75-.03-.01-.07-.02-.11-.03.01.01.02.02.03.03-3.45-1.13-9.29-2.12-13.41-2.18-.25,0-.5,0-.73,0v61.92l17.48,2.63c.58-.1.8-1.06.8-2.32,1.66-19.26,6.24-35.36,11.51-52.14.34-2.05,5.81-9.4,3.03-9.65-.28-.01-.63.04-1.07.17-.49.06-5.16,1.93-6.27,1.87-.3,0-.41-.1-.2-.37,9.33-9.63,22.95-16.55,36.26-18.66.18-.04.34-.06.49-.07.93-.07,1.34.54.49,1.72-17.6,27.01-32.35,58.83-32.2,96.6Z"/>
      <path class="cls-3" d="m330.53,102.49c-.13.01-.27.03-.42.07-13.24,2.03-26.86,9.03-36.26,18.66-.19.25-.12.35.13.37,1.1.06,5.77-1.81,6.27-1.87.44-.13.79-.18,1.07-.17,2.94.13-2.61,7.58-2.95,9.65-5.27,16.7-9.78,32.88-11.51,52.14,0,1.35-.23,2.33-.83,2.33h-.05s-17.48-2.63-17.48-2.63v-61.92c.24,0,.48,0,.73,0,4.09.05,9.89,1.03,13.38,2.15.03.01.07.02.11.03-11.81-11.74-17.3-27.08-22.72-41.75-.01.03-.03.07-.04.1-5.4,14.7-10.89,29.91-22.65,41.62-.01.01-.02.02-.03.03,3.46-1.13,9.29-2.12,13.42-2.18.28,0,.54,0,.8,0v61.92l-17.53,2.63s-.02,0-.02,0c-.58-.1-.8-1.06-.8-2.32-1.66-19.26-6.24-35.36-11.51-52.14-.34-2.05-5.81-9.4-3.03-9.65.29-.03.66.03,1.15.17.48.06,4.97,1.86,6.19,1.87.3,0,.41-.1.2-.37-9.33-9.63-22.95-16.55-36.26-18.66-.18-.04-.34-.06-.49-.07-.87-.03-1.24.57-.34,1.72,17.6,27.01,32.27,58.83,32.2,96.6h0c6.82,0,23.28-4.03,30.17-4.06.02,0,.05,0,.08,0v43.71h17.08v-43.71h0c6.82,0,23.28,4.03,30.17,4.06.02,0,.05,0,.08,0-.15-37.77,14.6-69.59,32.2-96.6.86-1.19.44-1.8-.49-1.72Z"/>
    </g>
  </g>
</svg>