<?xml version="1.0" encoding="UTF-8"?>
<svg id="Layer_2" data-name="Layer 2" xmlns="http://www.w3.org/2000/svg" viewBox="0 0 520 320">
  <defs>
    <style>
      .cls-1 {
        fill: #a3ab78;
      }

      .cls-1, .cls-2, .cls-3, .cls-4 {
        stroke-width: 0px;
      }

      .cls-2 {
        fill: #c8313e;
      }

      .cls-3 {
        fill: #fff;
      }

      .cls-4 {
        fill: #4aa657;
      }
    </style>
  </defs>
  <g id="_500x300_Background" data-name="500x300 Background">
    <rect class="cls-1" width="520" height="320" rx="10" ry="10"/>
  </g>
  <g id="Belarus">
    <g>
      <rect class="cls-2" x="75.14" y="10" width="434.86" height="199.97"/>
      <rect class="cls-4" x="75.14" y="209.97" width="434.86" height="100.03"/>
      <polygon class="cls-3" points="10 10 10 209.97 10 310 75.14 310 75.14 209.97 75.14 10 10 10"/>
      <path class="cls-2" d="m12.83,196.86h-2.83v4.89h2.83v-4.89Zm0,34.46h-2.83v4.89h2.83v-4.89Zm11.31,59.06h2.83v-4.89h-2.83v4.89Zm-14.14,14.74h2.83v-4.89h-2.83v4.89Zm2.83-34.46h-2.83v4.89h2.83v-4.89Zm0-9.86h2.83v4.89h2.83v-4.89h2.83v-4.89h2.83v-4.89h-2.83v-4.89h-2.83v-4.89h-2.83v4.89h-2.83v4.89h-2.83v4.89h2.83v4.89Zm2.83-9.86h2.83v4.89h-2.83v-4.89Zm25.46,34.46h-2.83v-4.89h-2.83v-4.89h-2.83v-4.89h-2.83v-4.89h-2.83v-4.89h-2.83v4.89h-2.83v4.89h-2.83v4.89h-2.83v4.89h-2.83v4.89h-2.83v4.89h2.83v4.89h2.83v4.89h2.83v4.89h2.83v4.89h8.49v-4.89h2.83v-4.89h2.83v-4.89h2.83v-4.89h2.83s0-4.89,0-4.89Zm-8.49,4.97h-2.83v4.89h-2.83v4.89h-2.83v-4.89h-2.83v-4.89h-2.83v-4.89h2.83v-4.89h2.83v-4.89h2.83v4.89h2.83v4.89h2.83v4.89Zm11.4-211.54h-2.83v9.86h2.83v-9.86ZM12.83,14.89h-2.83v4.89h2.83v-4.89Zm28.29,39.34h2.83v-9.86h-2.83v9.86Zm8.57,0v4.89h-2.83v4.89h-2.83v4.89h2.83v4.89h2.83v4.89h2.83v-4.89h2.83v-4.89h2.83v-4.89h-2.83v-4.89h-2.83v-4.89h-2.83Zm2.83,14.83h-2.83v-4.89h2.83v4.89Zm-8.49-59.06h-2.83v9.86h2.83v-9.86Zm-17.06,19.63h-2.83v4.89h2.83v-4.89Zm-14.14,44.31h2.83v4.89h2.83v-4.89h2.83v-4.89h2.83v-4.89h-2.83v-4.89h-2.83v-4.89h-2.83v4.89h-2.83v4.89h-2.83v4.89h2.83v4.89Zm2.83-9.86h2.83v4.89h-2.83v-4.89Zm-2.83,19.71h-2.83v4.89h2.83v-4.89Zm0-44.31h2.83v4.89h2.83v4.89h2.83v4.89h2.83v4.89h2.83v-4.89h2.83v-4.89h2.83v-4.89h2.83v-4.89h2.83v-4.89h2.83v-4.89h-2.83v-4.89h-2.83v-4.89h-2.83v-4.89h-2.83v-5.06h-8.49v4.89h-2.83v4.89h-2.83v4.89h-2.83v4.89h-2.83v4.89h2.83v5.06Zm5.66-9.86h2.83v-4.89h2.83v-4.89h2.83v4.89h2.83v4.89h2.83v4.89h-2.83v4.89h-2.83v4.89h-2.83v-4.89h-2.83v-4.89h-2.83s0-4.89,0-4.89Zm-5.66,88.54h-2.83v4.89h2.83v-4.89Zm0-73.71h-2.83v4.89h2.83v-4.89Zm22.63,34.37v-4.89h2.83v-4.89h2.83v-4.89h-2.83v-4.89h-2.83v-4.89h-2.83v4.89h-2.83v4.89h-2.83v4.89h2.83v4.89h2.83v4.89h2.83Zm-2.83-14.74h2.83v4.89h-2.83v-4.89Zm14.23,83.66h-2.83v4.89h-2.83v-4.89h-2.83v-4.89h-2.83v9.86h2.83v4.89h2.83v4.89h-2.83v4.89h-2.83v9.86h2.83v-4.89h2.83v-4.89h2.83v4.89h2.83v4.89h2.83v-9.86h-2.83v-4.89h-2.83v-4.89h2.83v-4.89h2.83v-9.86h-2.83s0,4.89,0,4.89Zm-5.74,39.34h2.83v-4.89h-2.83v4.89Zm31.2-98.4h2.83v-4.89h-2.83v4.89Zm0,4.89h-2.83v-4.89h-2.83v-4.89h-2.83v-4.89h-2.83v-4.89h-2.83v4.89h-2.83v4.89h-2.83v4.89h-2.83v4.89h-2.83v4.89h-2.83v4.89h-2.83v-4.89h-2.83v-4.89h-2.83v-4.89h-2.83v-4.89h-2.91v-4.89h-2.83v-4.89h-2.83v4.89h-2.83v4.89h-2.83v4.89h-2.83v4.89h-2.83v4.89h-2.83v9.86h2.83v4.89h2.83v4.89h2.83v4.89h2.83v-4.89h2.83v-4.89h2.83v-4.89h-5.66v-4.89h8.49v4.89h2.83v4.89h2.83v4.89h-2.83v4.89h-2.83v4.89h-2.83v4.89h-2.83v4.89h-2.83v4.89h-2.83v-4.89h-2.83v-4.89h-2.83v-4.89h-2.83v14.74h2.83v4.89h2.83v4.89h2.83v4.89h2.83v4.89h-2.83v4.89h-2.83v4.89h-2.83v4.89h-2.83v14.74h2.83v-4.89h2.83v-4.89h2.83v-4.89h2.83v4.89h2.83v4.89h2.83v4.89h2.83v4.89h2.83v4.89h2.83v4.89h-2.83v4.89h-2.83v4.89h-8.49v-4.89h5.66v-4.89h-2.83v-4.89h-2.83v-4.46h-2.83v4.89h-2.83v4.89h-2.83v4.89h-2.83v9.86h2.83v4.89h2.83v4.89h2.83v4.89h2.83v4.89h2.83v4.89h2.83v-4.89h2.83v-4.89h2.83v-4.89h2.83v-4.89h2.83v-4.89h2.83v-4.8h2.83v4.89h2.83v4.89h2.83v4.89h2.83v4.89h2.83v4.89h2.83v4.89h2.83v-4.89h2.83v-4.89h2.91v-4.89h2.83v-4.89h2.83v-4.89h2.83v-9.86h-2.83v-4.89h-2.83v-4.89h-2.83v-4.97h-2.83v4.89h-2.83v4.89h-2.83v4.89h5.66v4.89h-8.49v-4.89h-2.83v-4.89h-2.83v-4.89h2.83v-4.89h2.83v-4.89h2.83v-4.89h2.83v-4.89h2.83v-4.89h2.83v4.89h2.83v4.89h2.83v4.89h2.83v-14.74h-2.83v-4.89h-2.83v-4.89h-2.83v-4.89h-2.83v-4.89h2.83v-4.89h2.83v-4.89h2.83v-4.89h2.83v-14.74h-2.83v4.89h-2.83v4.89h-2.83v4.89h-2.83v-4.89h-2.83v-4.89h-2.83v-4.89h-2.83v-5.14h-2.83v-4.89h-2.83v-4.89h2.83v-4.89h2.83v-5.06h8.49v4.89h-5.66v4.89h2.83v4.89h2.83v4.89h2.83v-4.89h2.83v-4.89h2.83v-4.89h2.83v-9.86h-2.83s0-4.89,0-4.89Zm-19.8,44.31v4.89h2.83v4.89h2.83v24.6h-2.83v4.89h-2.83v4.89h-2.83v4.89h-2.83v4.89h-2.83v4.89h-2.83v-4.89h-2.83v-4.89h-2.83v-4.89h-2.83v-4.89h-2.91v-4.89h-2.83v-24.6h2.83v-4.89h2.83v-4.89h2.83v-4.89h2.83v-4.89h2.83v-4.97h2.83v4.89h2.83v4.89h2.83v4.89h2.91v.09Zm-8.49-4.97h-2.83v4.89h2.83v-4.89Zm11.31,24.6h-2.83v4.89h2.83v-4.89ZM72.31,14.89v4.89h2.83v-4.89h-2.83Zm0,9.86h-2.83v-4.89h-2.83v-4.89h-2.83v-4.97h-8.49v4.89h-2.83v4.89h-2.83v4.89h-2.83v4.89h-2.83v4.89h2.83v4.89h2.83v4.89h2.83v4.89h2.83v4.89h2.83v4.89h2.83v-4.89h2.83v-4.89h2.83v-4.89h2.83v-4.89h2.83v-4.89h2.83v-4.89h-2.83s0-4.8,0-4.8Zm-5.66,9.86h-2.83v4.89h-2.83v4.89h-2.83v-4.89h-2.83v-4.89h-2.83v-4.89h2.83v-4.89h2.83v-4.89h2.83v4.89h2.83v4.89h2.83v4.89Zm-34.03,206.57v4.89h-2.83v4.89h-2.83v4.89h2.83v4.89h2.83v4.89h2.83v-4.89h2.83v-4.89h2.83v-4.89h-2.83v-4.89h-2.83v-4.89h-2.83Zm2.83,14.74h-2.83v-4.89h2.83v4.89ZM58.17,34.6h2.83v-4.89h-2.83v4.89Zm14.14,14.74h2.83v-4.89h-2.83v4.89Zm0,9.86h-2.83v-4.89h-2.83v4.89h-2.83v4.89h-2.83v4.89h2.83v4.89h2.83v4.89h2.83v-4.89h2.83v-4.89h2.83v-4.89h-2.83s0-4.89,0-4.89Zm-2.83,9.86h-2.83v-4.89h2.83v4.89Zm-39.69,93.43h2.83v-4.89h-2.83v4.89Zm11.31,147.51h2.83v-9.86h-2.83v9.86Zm0-34.46h2.83v-9.86h-2.83v9.86Zm31.2,29.57h2.83v-4.89h-2.83v4.89Zm0-181.97h2.83v-4.89h-2.83v4.89Zm-31.2,118.03h2.83v-9.86h-2.83v9.86Zm17.06,49.2h2.83v-4.89h-2.83v4.89Zm-8.49-49.2v4.89h-2.83v4.89h-2.83v4.89h2.83v4.89h2.83v4.89h2.83v-4.89h2.83v-4.89h2.83v-4.89h-2.83v-4.89h-2.83v-4.89h-2.83Zm2.83,14.74h-2.83v-4.89h2.83v4.89Zm19.8-19.71h2.83v-4.89h-2.83v4.89Zm0,44.31h-2.83v-4.89h-2.83v-4.89h-2.83v-4.89h-2.83v-4.89h-2.83v4.89h-2.83v4.89h-2.83v4.89h-2.83v4.89h-2.83v4.89h-2.83v4.89h2.83v4.89h2.83v4.89h2.83v4.89h2.83v4.89h8.49v-4.89h2.83v-4.89h2.83v-4.89h2.83v-4.89h2.83v-4.89h-2.83s0-4.89,0-4.89Zm-5.66,9.86h-2.83v4.89h-2.83v4.89h-2.83v-4.89h-2.83v-4.89h-2.83v-4.89h2.83v-4.89h2.83v-4.89h2.83v4.89h2.83v4.89h2.83v4.89Zm5.66-88.54h2.83v-4.97h-2.83v4.97Zm0,44.23h-2.83v-4.89h-2.83v4.89h-2.83v4.89h-2.83v4.89h2.83v4.89h2.83v4.89h2.83v-4.89h2.83v-4.89h2.83v-4.89h-2.83s0-4.89,0-4.89Zm-2.83,9.86h-2.83v-4.89h2.83v4.89Zm2.83,19.63h2.83v-4.89h-2.83v4.89Z"/>
    </g>
  </g>
</svg>