<?xml version="1.0" encoding="UTF-8"?>
<svg id="Layer_2" data-name="Layer 2" xmlns="http://www.w3.org/2000/svg" viewBox="0 0 520 320">
  <defs>
    <style>
      .cls-1 {
        fill: #a3ab78;
      }

      .cls-1, .cls-2, .cls-3, .cls-4, .cls-5 {
        stroke-width: 0px;
      }

      .cls-2 {
        fill: #002294;
      }

      .cls-3 {
        fill: #f9fafc;
      }

      .cls-4 {
        fill: none;
      }

      .cls-5 {
        fill: #fdca00;
      }
    </style>
  </defs>
  <g id="_500x300_Background" data-name="500x300 Background">
    <rect class="cls-1" width="520" height="320" rx="10" ry="10"/>
  </g>
  <g id="Bosnia_and_Herzegovina" data-name="Bosnia and Herzegovina">
    <g>
      <polygon class="cls-4" points="158.83 104.48 151.11 98.67 143 92.56 142.94 92.61 150.76 98.49 158.87 104.59 158.83 104.48"/>
      <polygon class="cls-4" points="195.66 110.7 204.86 111.03 205.07 110.87 195.31 110.52 185.84 110.18 185.89 110.35 195.66 110.7"/>
      <path class="cls-4" d="m166.8,130.58c1.39-4.45,2.44-8.2,2.27-8.28-.17-.09-3.66-2.7-7.85-5.75l-7.59-5.58,10.11-.26,9.76-.35,2.88-9.15c1.4-4.52,2.73-8.26,3.19-9.01-.1-.2-.18-.32-.22-.32-.26,0-1.74,4.1-3.31,9.15l-3.23,9.07-9.76.35-9.76.35,7.59,5.58c4.18,3.05,7.67,5.67,7.85,5.75.17.09-.87,3.84-2.27,8.28-1.39,4.53-2.79,8.98-3.05,10.03l-.52,1.83.51-.38.36-1.28c.26-1.05,1.66-5.58,3.05-10.03Z"/>
      <polygon class="cls-4" points="159.04 73.21 168.25 73.54 168.46 73.38 158.69 73.03 149.22 72.7 149.28 72.86 159.04 73.21"/>
      <path class="cls-4" d="m130.18,93.09c1.39-4.45,2.44-8.2,2.27-8.28-.17-.09-3.66-2.7-7.85-5.75l-7.58-5.58,10.11-.26,9.76-.35,2.88-9.15c1.4-4.52,2.73-8.26,3.19-9.01-.1-.2-.18-.32-.22-.32-.26,0-1.74,4.1-3.31,9.15l-3.23,9.07-9.76.35-9.76.35,7.58,5.58c4.18,3.05,7.67,5.67,7.85,5.75.17.09-.87,3.84-2.27,8.28-1.39,4.53-2.79,8.98-3.05,10.03l-.52,1.83.51-.38.36-1.28c.26-1.05,1.66-5.58,3.05-10.03Z"/>
      <path class="cls-4" d="m203.42,168.06c1.39-4.45,2.44-8.2,2.27-8.28-.17-.09-3.66-2.7-7.85-5.75l-7.59-5.58,10.11-.26,9.76-.35,2.88-9.15c1.4-4.52,2.73-8.26,3.19-9.01-.1-.2-.18-.32-.22-.32-.26,0-1.74,4.1-3.31,9.15l-3.23,9.07-9.76.35-9.76.35,7.59,5.58c4.18,3.05,7.67,5.67,7.85,5.75.17.09-.87,3.84-2.27,8.28-1.39,4.53-2.79,8.98-3.05,10.03l-.52,1.83.51-.38.36-1.28c.26-1.05,1.66-5.58,3.05-10.03Z"/>
      <polygon class="cls-4" points="232.28 148.19 241.48 148.52 241.69 148.36 231.93 148.01 222.46 147.67 222.51 147.84 232.28 148.19"/>
      <polygon class="cls-4" points="232.07 179.46 224.34 173.64 216.23 167.54 216.18 167.59 223.99 173.47 232.1 179.57 232.07 179.46"/>
      <polygon class="cls-4" points="195.45 141.97 187.72 136.16 179.62 130.05 179.56 130.1 187.38 135.98 195.48 142.08 195.45 141.97"/>
      <path class="cls-4" d="m53.55,29.18s0,0,0,0c.12-.92,2.6-9.28,4.19-14.41-1.71,5.45-4.32,14.28-4.19,14.41Z"/>
      <path class="cls-4" d="m268.54,159.43L122.6,10.09l145.95,149.43c80.21,82.21,145.95,149.61,145.95,149.96v-.09c0-.35-65.65-67.83-145.95-149.96Z"/>
      <path class="cls-4" d="m93.48,55.6c1.39-4.45,2.44-8.2,2.27-8.28-.09-.09-3.66-2.7-7.5-5.67l-7.59-5.58,9.76-.35,9.76-.35,2.88-9.15c1.43-4.6,2.78-8.39,3.21-9.05-.07-.13-.12-.2-.16-.2-.26,0-1.74,4.1-3.31,9.15l-2.88,9.15-9.76.35-10.11.26,7.59,5.58c4.18,3.05,7.67,5.67,7.85,5.75.17.09-.87,3.84-2.27,8.28-1.39,4.53-2.79,8.98-3.05,10.03l-.52,1.83.36-.27.42-1.47c.26-1.05,1.66-5.58,3.05-10.03Z"/>
      <polygon class="cls-4" points="122.21 67.05 114.4 61.18 106.29 55.07 106.22 55.13 114.14 61.09 122.25 67.19 122.21 67.05"/>
      <path class="cls-4" d="m337.07,298.32l9.76-.35,9.76-.35,2.88-9.15c1.45-4.58,2.81-8.48,3.23-9.07-.04-.05-.07-.09-.09-.09-.26,0-1.74,4.1-3.31,9.15l-2.88,9.15-9.76.35-9.76.35,7.85,5.84,7.85,5.84h.17l-7.85-5.84-7.85-5.84Z"/>
      <polygon class="cls-4" points="122.34 35.72 131.74 36.06 131.84 35.98 122.07 35.63 112.55 35.29 112.57 35.37 122.34 35.72"/>
      <path class="cls-4" d="m79.53,10.17l.35.96c.35.87,4.18,13.16,5.32,16.91l.49,1.63.03.03-.52-1.74c-1.13-3.75-4.97-16.04-5.32-16.91l-.35-.96h430.47v-.09H59.39l-.07.17h20.21Z"/>
      <polygon class="cls-4" points="341.97 291.81 334.28 286.02 326.17 279.92 326.06 280.01 333.93 285.94 342.04 292.04 341.97 291.81"/>
      <path class="cls-4" d="m276.74,243.04c1.39-4.45,2.44-8.2,2.27-8.28-.17-.09-3.66-2.7-7.85-5.75l-7.59-5.58,10.11-.26,9.76-.35,2.88-9.15c1.4-4.52,2.73-8.26,3.19-9.01-.1-.2-.18-.32-.22-.32-.26,0-1.74,4.1-3.31,9.15l-3.23,9.07-9.76.35-9.76.35,7.59,5.58c4.18,3.05,7.67,5.67,7.85,5.75.17.09-.87,3.84-2.27,8.28-1.39,4.53-2.79,8.98-3.05,10.03l-.52,1.83.51-.38.36-1.28c.26-1.05,1.66-5.58,3.05-10.03Z"/>
      <polygon class="cls-4" points="305.39 254.44 297.66 248.62 289.56 242.52 289.5 242.56 297.31 248.45 305.42 254.55 305.39 254.44"/>
      <path class="cls-4" d="m313.36,280.44c1.39-4.45,2.44-8.2,2.27-8.28-.17-.09-3.66-2.7-7.85-5.75l-7.58-5.58,10.11-.26,9.76-.35,2.88-9.15c1.37-4.43,2.68-8.12,3.16-8.97-.09-.17-.16-.27-.2-.27-.26,0-1.74,4.1-3.31,9.15l-3.23,9.07-9.76.35-9.76.35,7.58,5.58c4.18,3.05,7.67,5.67,7.85,5.75.17.09-.87,3.84-2.27,8.28-1.39,4.53-2.79,8.98-3.05,10.03l-.52,1.83.48-.36.4-1.39c.26-1.05,1.66-5.58,3.05-10.03Z"/>
      <polygon class="cls-4" points="268.98 185.68 278.19 186 278.4 185.85 268.63 185.5 259.16 185.16 259.22 185.33 268.98 185.68"/>
      <polygon class="cls-4" points="415.36 10.09 415.19 10.09 415.19 160.04 415.19 309.91 414.49 309.91 414.49 310 415.36 310 415.36 160.04 415.36 10.09"/>
      <polygon class="cls-4" points="342.21 260.57 351.53 260.9 351.63 260.83 341.87 260.48 332.43 260.14 332.45 260.22 342.21 260.57"/>
      <polygon class="cls-4" points="268.77 216.95 261.05 211.13 252.94 205.03 252.88 205.07 260.7 210.96 268.81 217.06 268.77 216.95"/>
      <polygon class="cls-4" points="305.6 223.16 314.8 223.49 315.01 223.34 305.25 222.99 295.78 222.65 295.83 222.82 305.6 223.16"/>
      <path class="cls-4" d="m240.12,205.55c1.39-4.45,2.44-8.2,2.27-8.28-.17-.09-3.66-2.7-7.85-5.75l-7.59-5.58,10.11-.26,9.76-.35,2.88-9.15c1.4-4.52,2.73-8.26,3.19-9.01-.1-.2-.18-.32-.22-.32-.26,0-1.74,4.1-3.31,9.15l-3.23,9.07-9.76.35-9.76.35,7.59,5.58c4.18,3.05,7.67,5.67,7.85,5.75.17.09-.87,3.84-2.27,8.28-1.39,4.53-2.79,8.98-3.05,10.03l-.52,1.83.51-.38.36-1.28c.26-1.05,1.66-5.58,3.05-10.03Z"/>
      <path class="cls-3" d="m79.88,11.13l-.35-.96h-20.21l-.36.87c-.25.68-.69,2.04-1.22,3.72-1.59,5.13-4.06,13.49-4.19,14.41.18.08,3.75-2.53,8.11-5.75l7.85-5.93,8.11,6.1,8.07,6.08-.49-1.63c-1.13-3.75-4.97-16.04-5.32-16.91Z"/>
      <path class="cls-3" d="m261.05,211.13l7.73,5.81-.49-1.63c-.26-.96-1.66-5.41-3.05-9.85-1.39-4.45-2.44-8.2-2.27-8.28.17-.09,3.66-2.7,7.85-5.75l7.38-5.43-9.21-.33-9.76-.35-.05-.16h-.3s-2.88-9.16-2.88-9.16c-1.31-4.24-2.57-7.79-3.09-8.83-.46.75-1.78,4.49-3.19,9.01l-2.88,9.15-9.76.35-10.11.26,7.59,5.58c4.18,3.05,7.67,5.67,7.85,5.75.17.09-.87,3.84-2.27,8.28-1.39,4.45-2.79,8.98-3.05,10.03l-.36,1.28.54-.4c.61-.44,4.27-3.23,8.2-6.19l7.15-5.41.29.22.06-.04,8.11,6.1Z"/>
      <path class="cls-3" d="m187.72,136.16l7.73,5.81-.49-1.63c-.26-.96-1.66-5.41-3.05-9.85-1.39-4.45-2.44-8.2-2.27-8.28.17-.09,3.66-2.7,7.85-5.75l7.38-5.43-9.21-.33-9.76-.35-.05-.16h-.3s-2.88-9.16-2.88-9.16c-1.31-4.24-2.57-7.79-3.09-8.83-.46.75-1.78,4.49-3.19,9.01l-2.88,9.15-9.76.35-10.11.26,7.59,5.58c4.18,3.05,7.67,5.67,7.85,5.75.17.09-.87,3.84-2.27,8.28-1.39,4.45-2.79,8.98-3.05,10.03l-.36,1.28.54-.4c.61-.44,4.27-3.23,8.2-6.19l7.15-5.41.29.22.06-.04,8.11,6.1Z"/>
      <path class="cls-3" d="m114.4,61.18l7.8,5.87-.48-1.6c-.26-.96-1.66-5.41-3.05-9.85-1.39-4.45-2.44-8.2-2.27-8.28.17-.09,3.66-2.7,7.85-5.75l7.48-5.51-9.4-.34-9.76-.35-.02-.08h-.24s-2.88-9.16-2.88-9.16c-1.37-4.41-2.67-8.09-3.15-8.96-.43.65-1.78,4.45-3.21,9.05l-2.88,9.15-9.76.35-9.76.35,7.59,5.58c3.84,2.96,7.41,5.58,7.5,5.67.17.09-.87,3.84-2.27,8.28-1.39,4.45-2.79,8.98-3.05,10.03l-.42,1.47.68-.51c.61-.44,4.27-3.23,8.2-6.19l7.15-5.41.19.14.07-.05,8.11,6.1Z"/>
      <path class="cls-3" d="m151.11,98.67l7.73,5.81-.49-1.63c-.26-.96-1.66-5.41-3.05-9.85s-2.44-8.2-2.27-8.28c.17-.09,3.66-2.7,7.85-5.75l7.38-5.43-9.21-.33-9.76-.35-.05-.16h-.3s-2.88-9.16-2.88-9.16c-1.31-4.24-2.57-7.79-3.09-8.83-.46.75-1.78,4.49-3.19,9.01l-2.88,9.15-9.76.35-10.11.26,7.58,5.58c4.18,3.05,7.67,5.67,7.85,5.75.17.09-.87,3.84-2.27,8.28-1.39,4.45-2.79,8.98-3.05,10.03l-.36,1.28.54-.4c.61-.44,4.27-3.23,8.2-6.19l7.15-5.41.29.22.06-.04,8.11,6.1Z"/>
      <path class="cls-3" d="m224.34,173.64l7.73,5.81-.49-1.63c-.26-.96-1.66-5.41-3.05-9.85-1.39-4.45-2.44-8.2-2.27-8.28.17-.09,3.66-2.7,7.85-5.75l7.38-5.43-9.21-.33-9.76-.35-.05-.16h-.3s-2.88-9.16-2.88-9.16c-1.31-4.24-2.57-7.79-3.09-8.83-.46.75-1.78,4.49-3.19,9.01l-2.88,9.15-9.76.35-10.11.26,7.59,5.58c4.18,3.05,7.67,5.67,7.85,5.75.17.09-.87,3.84-2.27,8.28s-2.79,8.98-3.05,10.03l-.36,1.28.54-.4c.61-.44,4.27-3.23,8.2-6.19l7.15-5.41.29.22.06-.04,8.11,6.1Z"/>
      <path class="cls-3" d="m334.28,286.02l7.69,5.79-.46-1.52c-.26-.96-1.66-5.41-3.05-9.85-1.39-4.45-2.44-8.2-2.27-8.28.17-.09,3.66-2.7,7.85-5.75l7.49-5.51-9.32-.33-9.76-.35-.02-.08h-.33s-2.88-9.17-2.88-9.17c-1.34-4.3-2.61-7.9-3.12-8.88-.48.85-1.79,4.54-3.16,8.97l-2.88,9.15-9.76.35-10.11.26,7.58,5.58c4.18,3.05,7.67,5.67,7.85,5.75.17.09-.87,3.84-2.27,8.28-1.39,4.45-2.79,8.98-3.05,10.03l-.4,1.39.57-.43c.61-.44,4.27-3.23,8.2-6.19l7.15-5.41.23.18.12-.09,8.11,6.1Z"/>
      <path class="cls-3" d="m297.66,248.62l7.73,5.81-.49-1.63c-.26-.96-1.66-5.41-3.05-9.85-1.39-4.45-2.44-8.2-2.27-8.28.17-.09,3.66-2.7,7.85-5.75l7.38-5.43-9.21-.33-9.76-.35-.05-.16h-.3s-2.88-9.16-2.88-9.16c-1.31-4.24-2.57-7.79-3.09-8.83-.46.75-1.78,4.49-3.19,9.01l-2.88,9.15-9.76.35-10.11.26,7.59,5.58c4.18,3.05,7.67,5.67,7.85,5.75.17.09-.87,3.84-2.27,8.28-1.39,4.45-2.79,8.98-3.05,10.03l-.36,1.28.54-.4c.61-.44,4.27-3.23,8.2-6.19l7.15-5.41.29.22.06-.04,8.11,6.1Z"/>
      <path class="cls-3" d="m372.47,309.91h.12l7.82-5.75,7.93-5.84-9.58-.34h-.19s-9.76-.36-9.76-.36h.19s-.19,0-.19,0l-2.88-9.15c-.48-1.53-.94-2.97-1.37-4.24-.69-2.01-1.29-3.61-1.64-4.42-.09-.2-.16-.34-.22-.42-.41.59-1.78,4.49-3.23,9.07l-2.88,9.15-9.76.35-9.76.35,7.85,5.84,7.85,5.84h19.7l.12-.09h-.12Z"/>
      <path class="cls-5" d="m260,10.09H122.6l145.95,149.35c80.3,82.13,145.95,149.61,145.95,149.96v.52h.7V10.09h-155.19Z"/>
      <polygon class="cls-5" points="378.57 297.97 378.76 297.98 378.57 297.97 369 297.63 368.81 297.62 378.57 297.97"/>
      <path class="cls-2" d="m414.49,309.48c0-.35-65.74-67.74-145.95-149.96L122.6,10.09h-43.07l.35.96c.35.87,4.18,13.16,5.32,16.91l.52,1.74-.03-.03-8.07-6.08-8.11-6.1-7.85,5.93c-4.35,3.22-7.92,5.83-8.11,5.75,0,0,0,0,0,0-.13-.13,2.48-8.97,4.19-14.41.53-1.68.97-3.04,1.22-3.72l.36-.87.07-.17H10v300h342.59l-7.85-5.84-7.85-5.84,9.76-.35,9.76-.35,2.88-9.15c1.57-5.06,3.05-9.15,3.31-9.15.02,0,.05.03.09.09.06.08.13.22.22.42.35.81.94,2.4,1.64,4.42.43,1.27.89,2.71,1.37,4.24l2.88,9.15h.19s9.57.35,9.57.35h.19s9.58.35,9.58.35l-7.93,5.84-7.82,5.75-.12.09h42.02v-.52ZM106.22,55.13l-.19-.14-7.15,5.41c-3.92,2.96-7.58,5.75-8.2,6.19l-.68.51-.36.27.52-1.83c.26-1.05,1.66-5.49,3.05-10.03,1.39-4.45,2.44-8.2,2.27-8.28-.17-.09-3.66-2.7-7.85-5.75l-7.59-5.58,10.11-.26,9.76-.35,2.88-9.15c1.57-5.06,3.05-9.15,3.31-9.15.03,0,.09.07.16.2.48.87,1.79,4.55,3.15,8.96l2.88,9.15h.24s9.53.35,9.53.35l9.76.35-.1.07-7.48,5.51c-4.18,3.05-7.67,5.67-7.85,5.75-.17.09.87,3.84,2.27,8.28,1.39,4.45,2.79,8.89,3.05,9.85l.48,1.6.04.14-8.11-6.1-7.92-5.96Zm36.72,37.48l-.29-.22-7.15,5.41c-3.92,2.96-7.58,5.75-8.2,6.19l-.54.4-.51.38.52-1.83c.26-1.05,1.66-5.49,3.05-10.03,1.39-4.45,2.44-8.2,2.27-8.28-.17-.09-3.66-2.7-7.85-5.75l-7.58-5.58,9.76-.35,9.76-.35,3.23-9.07c1.57-5.06,3.05-9.15,3.31-9.15.04,0,.12.12.22.32.53,1.04,1.78,4.6,3.09,8.83l2.88,9.15h.3s9.47.35,9.47.35l9.76.35-.21.15-7.38,5.43c-4.18,3.05-7.67,5.67-7.85,5.75-.17.09.87,3.84,2.27,8.28s2.79,8.89,3.05,9.85l.49,1.63.03.11-8.11-6.1-7.82-5.88Zm36.62,37.49l-.29-.22-7.15,5.41c-3.92,2.96-7.59,5.75-8.2,6.19l-.54.4-.51.38.52-1.83c.26-1.05,1.66-5.49,3.05-10.03,1.39-4.45,2.44-8.2,2.27-8.28-.17-.09-3.66-2.7-7.85-5.75l-7.59-5.58,9.76-.35,9.76-.35,3.23-9.07c1.57-5.06,3.05-9.15,3.31-9.15.04,0,.12.12.22.32.53,1.04,1.78,4.6,3.09,8.83l2.88,9.15h.3s9.47.35,9.47.35l9.76.35-.21.15-7.38,5.43c-4.18,3.05-7.67,5.67-7.85,5.75-.17.09.87,3.84,2.27,8.28,1.39,4.45,2.79,8.89,3.05,9.85l.49,1.63.03.11-8.11-6.1-7.82-5.88Zm36.62,37.49l-.29-.22-7.15,5.41c-3.92,2.96-7.59,5.75-8.2,6.19l-.54.4-.51.38.52-1.83c.26-1.05,1.66-5.49,3.05-10.03,1.39-4.45,2.44-8.2,2.27-8.28-.17-.09-3.66-2.7-7.85-5.75l-7.59-5.58,9.76-.35,9.76-.35,3.23-9.07c1.57-5.06,3.05-9.15,3.31-9.15.04,0,.12.12.22.32.53,1.04,1.78,4.6,3.09,8.83l2.88,9.15h.3s9.47.35,9.47.35l9.76.35-.21.15-7.38,5.43c-4.18,3.05-7.67,5.67-7.85,5.75-.17.09.87,3.84,2.27,8.28,1.39,4.45,2.79,8.89,3.05,9.85l.49,1.63.03.11-8.11-6.1-7.82-5.88Zm36.7,37.49l-.29-.22-7.15,5.41c-3.92,2.96-7.59,5.75-8.2,6.19l-.54.4-.51.38.52-1.83c.26-1.05,1.66-5.49,3.05-10.03,1.39-4.45,2.44-8.2,2.27-8.28-.17-.09-3.66-2.7-7.85-5.75l-7.59-5.58,9.76-.35,9.76-.35,3.23-9.07c1.57-5.06,3.05-9.15,3.31-9.15.04,0,.12.12.22.32.53,1.04,1.78,4.6,3.09,8.83l2.88,9.15h.3s9.47.35,9.47.35l9.76.35-.21.15-7.38,5.43c-4.18,3.05-7.67,5.67-7.85,5.75-.17.09.87,3.84,2.27,8.28,1.39,4.45,2.79,8.89,3.05,9.85l.49,1.63.03.11-8.11-6.1-7.82-5.88Zm36.62,37.49l-.29-.22-7.15,5.41c-3.92,2.96-7.59,5.75-8.2,6.19l-.54.4-.51.38.52-1.83c.26-1.05,1.66-5.49,3.05-10.03,1.39-4.45,2.44-8.2,2.27-8.28-.17-.09-3.66-2.7-7.85-5.75l-7.59-5.58,9.76-.35,9.76-.35,3.23-9.07c1.57-5.06,3.05-9.15,3.31-9.15.04,0,.12.12.22.32.53,1.04,1.78,4.6,3.09,8.83l2.88,9.15h.3s9.47.35,9.47.35l9.76.35-.21.15-7.38,5.43c-4.18,3.05-7.67,5.67-7.85,5.75-.17.09.87,3.84,2.27,8.28,1.39,4.45,2.79,8.89,3.05,9.85l.49,1.63.03.11-8.11-6.1-7.82-5.88Zm36.56,37.45l-.23-.18-7.15,5.41c-3.92,2.96-7.59,5.75-8.2,6.19l-.57.43-.48.36.52-1.83c.26-1.05,1.66-5.49,3.05-10.03,1.39-4.45,2.44-8.2,2.27-8.28-.17-.09-3.66-2.7-7.85-5.75l-7.58-5.58,9.76-.35,9.76-.35,3.23-9.07c1.57-5.06,3.05-9.15,3.31-9.15.04,0,.11.1.2.27.51.98,1.78,4.58,3.12,8.88l2.88,9.15h.33s9.44.35,9.44.35l9.76.35-.1.07-7.49,5.51c-4.18,3.05-7.67,5.67-7.85,5.75-.17.09.87,3.84,2.27,8.28,1.39,4.45,2.79,8.89,3.05,9.85l.46,1.52.07.23-8.11-6.1-7.88-5.93Z"/>
      <polygon class="cls-2" points="484.24 10.09 415.36 10.09 415.36 160.04 415.36 310 462.88 310 484.24 310 510 310 510 10.09 484.24 10.09"/>
    </g>
  </g>
</svg>