<?xml version="1.0" encoding="UTF-8"?>
<svg id="Layer_2" data-name="Layer 2" xmlns="http://www.w3.org/2000/svg" viewBox="0 0 520 320">
  <defs>
    <style>
      .cls-1 {
        fill: #f8e509;
      }

      .cls-1, .cls-2, .cls-3, .cls-4, .cls-5, .cls-6, .cls-7 {
        stroke-width: 0px;
      }

      .cls-1, .cls-4, .cls-6 {
        fill-rule: evenodd;
      }

      .cls-2 {
        fill: #a3ab78;
      }

      .cls-3 {
        fill: #2b49a3;
      }

      .cls-4 {
        fill: #ffffef;
      }

      .cls-5 {
        fill: #229e45;
      }

      .cls-6 {
        fill: #fff;
      }

      .cls-7 {
        fill: #309e3a;
      }
    </style>
  </defs>
  <g id="_500x300_Background" data-name="500x300 Background">
    <rect class="cls-2" width="520" height="320" rx="10" ry="10"/>
  </g>
  <g id="Brazil">
    <g>
      <rect id="rect552" class="cls-5" x="10" y="10" width="500" height="300"/>
      <path id="path554" class="cls-1" d="m260,277.01l180.06-116.86-181.14-117.17-180.65,117.45,181.73,116.58Z"/>
      <circle class="cls-3" cx="262.28" cy="160" r="76.17"/>
      <g>
        <polygon class="cls-4" points="236.2 200.46 235.06 197.94 233.8 200.38 231.09 200.69 232.99 202.69 232.44 205.4 234.89 204.19 237.24 205.55 236.86 202.81 238.86 200.95 236.2 200.46"/>
        <polygon class="cls-4" points="287.24 213.39 286.12 210.87 284.85 213.3 282.15 213.62 284.03 215.61 283.48 218.33 285.93 217.12 288.28 218.47 287.91 215.74 289.91 213.87 287.24 213.39"/>
        <polygon class="cls-4" points="265.4 193.44 264.42 191.26 263.33 193.36 260.99 193.64 262.62 195.36 262.15 197.71 264.26 196.66 266.29 197.83 265.97 195.47 267.7 193.85 265.4 193.44"/>
        <polygon class="cls-4" points="316 183.95 314.92 186.01 312.63 186.28 314.23 187.97 313.77 190.28 315.85 189.25 317.84 190.4 317.52 188.08 319.21 186.5 316.96 186.09 316 183.95"/>
        <polygon class="cls-4" points="260.55 174.8 263 173.59 265.35 174.95 264.98 172.21 266.97 170.34 264.31 169.86 263.18 167.34 261.91 169.78 259.21 170.09 261.1 172.08 260.55 174.8"/>
        <polygon class="cls-4" points="204.12 146.74 201.46 146.26 200.33 143.74 199.06 146.18 196.36 146.49 198.25 148.48 197.7 151.2 200.14 149.99 202.5 151.35 202.13 148.62 204.12 146.74"/>
        <polygon class="cls-4" points="209.01 177.65 207.88 175.13 206.61 177.57 203.92 177.88 205.8 179.87 205.26 182.59 207.7 181.38 210.05 182.74 209.68 180 211.68 178.13 209.01 177.65"/>
        <polygon class="cls-4" points="284.25 139.66 286.41 138.59 288.49 139.79 288.16 137.38 289.92 135.72 287.57 135.3 286.57 133.07 285.46 135.22 283.07 135.51 284.74 137.26 284.25 139.66"/>
        <polygon class="cls-4" points="280.84 160.11 282.54 159.27 284.18 160.22 283.92 158.31 285.31 157.01 283.45 156.68 282.67 154.92 281.79 156.61 279.91 156.83 281.22 158.22 280.84 160.11"/>
        <polygon class="cls-4" points="317.71 193.11 317.09 191.86 316.41 193.07 314.94 193.23 315.96 194.23 315.66 195.58 316.99 194.98 318.27 195.65 318.07 194.29 319.16 193.36 317.71 193.11"/>
        <polygon class="cls-4" points="198.31 185.03 197.55 183.34 196.7 184.97 194.9 185.18 196.16 186.51 195.8 188.32 197.43 187.52 199 188.42 198.75 186.59 200.08 185.35 198.31 185.03"/>
        <polygon class="cls-4" points="223.32 185.03 222.56 183.34 221.71 184.97 219.91 185.18 221.17 186.51 220.81 188.32 222.44 187.52 224.01 188.42 223.76 186.59 225.09 185.35 223.32 185.03"/>
        <polygon class="cls-4" points="220.21 193.35 219.45 191.66 218.6 193.29 216.8 193.51 218.07 194.83 217.7 196.64 219.33 195.84 220.9 196.75 220.65 194.92 221.99 193.67 220.21 193.35"/>
        <polygon class="cls-4" points="272.14 178.19 271.39 176.52 270.54 178.14 268.74 178.35 270 179.68 269.63 181.49 271.26 180.69 272.84 181.6 272.59 179.77 273.92 178.52 272.14 178.19"/>
        <polygon class="cls-4" points="256.9 178.19 256.15 176.51 255.3 178.13 253.5 178.35 254.76 179.68 254.4 181.49 256.03 180.68 257.59 181.59 257.34 179.76 258.68 178.51 256.9 178.19"/>
        <polygon class="cls-4" points="216.94 174.35 215.83 174.15 215.36 173.09 214.83 174.11 213.7 174.25 214.48 175.08 214.26 176.22 215.28 175.71 216.27 176.28 216.11 175.13 216.94 174.35"/>
        <polygon class="cls-4" points="315.64 198.84 314.89 197.16 314.04 198.79 312.24 199 313.5 200.32 313.13 202.14 314.77 201.33 316.34 202.24 316.09 200.42 317.42 199.16 315.64 198.84"/>
        <polygon class="cls-4" points="302.45 199.68 301.75 201.03 300.26 201.21 301.3 202.31 301 203.82 302.35 203.15 303.65 203.9 303.45 202.39 304.55 201.35 303.07 201.08 302.45 199.68"/>
        <polygon class="cls-4" points="309.1 201.14 308.52 199.84 307.87 201.09 306.47 201.25 307.45 202.28 307.16 203.68 308.42 203.06 309.64 203.75 309.44 202.34 310.47 201.39 309.1 201.14"/>
        <polygon class="cls-4" points="327.63 186.47 326.31 186.22 325.75 184.98 325.12 186.19 323.78 186.34 324.72 187.33 324.45 188.68 325.66 188.08 326.83 188.75 326.64 187.39 327.63 186.47"/>
        <polygon class="cls-4" points="302.09 207.71 301.27 209.2 299.52 209.4 300.74 210.62 300.39 212.28 301.97 211.54 303.5 212.37 303.26 210.7 304.55 209.55 302.82 209.26 302.09 207.71"/>
        <polygon class="cls-4" points="302.97 216.09 302.31 214.54 301.55 216.04 299.96 216.23 301.08 217.45 300.75 219.11 302.2 218.37 303.59 219.21 303.37 217.53 304.55 216.39 302.97 216.09"/>
        <polygon class="cls-4" points="291.55 201.23 290.99 199.98 290.36 201.18 289.02 201.34 289.96 202.33 289.68 203.68 290.9 203.08 292.06 203.75 291.88 202.39 292.87 201.47 291.55 201.23"/>
        <polygon class="cls-4" points="280.74 201.23 280.18 199.98 279.55 201.19 278.21 201.34 279.15 202.33 278.88 203.68 280.09 203.08 281.26 203.75 281.07 202.4 282.06 201.47 280.74 201.23"/>
        <polygon class="cls-4" points="261.74 187.03 262.91 187.71 262.72 186.35 263.72 185.42 262.39 185.18 261.83 183.93 261.2 185.14 259.87 185.3 260.8 186.29 260.53 187.63 261.74 187.03"/>
        <polygon class="cls-4" points="264.52 218.27 264.04 217.21 263.5 218.24 262.37 218.37 263.17 219.21 262.94 220.35 263.96 219.84 264.95 220.41 264.79 219.26 265.63 218.47 264.52 218.27"/>
        <polygon class="cls-4" points="235.07 159.91 233.8 162.35 231.1 162.66 232.99 164.65 232.44 167.37 234.89 166.16 237.24 167.52 236.86 164.79 238.86 162.91 236.2 162.43 235.07 159.91"/>
      </g>
      <path class="cls-6" d="m194.34,125.55c-2.05,3.91-3.67,8.02-5.05,12.45,67.52-6.44,117.01,23.46,144.15,49.36h0c1.16-3.04,2.66-7.61,3.46-11.81-40.46-35.55-85.55-53.75-142.55-50Z"/>
      <g>
        <path class="cls-7" d="m319.72,167.39c-.57-.62-.9-1.06-.97-1.34-.06-.21-.04-.39.07-.56.13-.18.29-.27.52-.28.34-.01.71.12,1.12.4.39.26.63.54.72.83.09.29.05.63-.13,1.03l1.44.89c.4-.65.52-1.32.33-2-.17-.68-.7-1.31-1.57-1.9-.53-.36-1.04-.59-1.52-.68-.48-.09-.93-.05-1.34.12-.4.17-.73.43-.96.78-.38.55-.48,1.17-.31,1.83.12.48.49,1.06,1.11,1.76.49.54.79.89.92,1.06.18.25.28.46.29.64.02.18-.02.35-.13.52-.17.25-.44.4-.8.43-.35.04-.76-.1-1.2-.4-.43-.29-.7-.62-.8-1.01-.1-.38-.04-.83.18-1.34l-1.44-.78h0c-.44.83-.56,1.62-.36,2.34.19.72.73,1.39,1.6,1.98.6.41,1.16.66,1.68.78.52.1,1,.05,1.45-.14.46-.2.82-.5,1.09-.89.29-.44.45-.87.46-1.29.02-.42-.07-.83-.29-1.22-.2-.4-.59-.91-1.15-1.53Z"/>
        <path class="cls-7" d="m312.85,162.71c-.59-.59-.93-1.03-1.02-1.29-.07-.2-.05-.39.06-.56.11-.18.28-.28.5-.3.34-.02.72.09,1.13.35.41.25.66.52.76.8.1.29.07.63-.09,1.03l1.47.83c.38-.67.47-1.34.26-2.01-.21-.66-.76-1.28-1.65-1.84-.54-.33-1.06-.54-1.55-.62-.49-.07-.93-.01-1.33.18-.4.18-.71.46-.94.82-.34.56-.42,1.17-.23,1.84.14.47.54,1.04,1.19,1.7.5.52.82.86.95,1.03.19.24.3.45.32.63.03.18-.01.35-.11.52-.16.26-.42.42-.78.47-.35.05-.76-.07-1.22-.36-.44-.26-.71-.59-.84-.97-.12-.37-.07-.83.13-1.34l-1.47-.73h0c-.4.85-.49,1.64-.27,2.36.23.71.79,1.34,1.69,1.9.61.38,1.18.61,1.7.7.52.08,1,.01,1.45-.2.44-.22.79-.53,1.05-.93.27-.46.41-.89.41-1.31s-.11-.83-.34-1.21c-.2-.38-.62-.88-1.21-1.48Z"/>
        <polygon class="cls-7" points="304.96 155.55 308.8 157.9 309.54 156.69 304.25 153.46 299.91 160.6 299.91 160.6 305.32 163.92 306.06 162.71 302.09 160.28 303.26 158.33 306.84 160.53 307.57 159.33 304 157.13 304.96 155.55"/>
        <path class="cls-7" d="m287.56,150.46h0l1.71.89-.48.94c-.32.06-.67.07-1.05.03-.38-.04-.72-.14-1.03-.3-.64-.33-1.04-.81-1.21-1.45-.16-.65-.01-1.42.44-2.3.42-.82.93-1.34,1.53-1.56s1.23-.15,1.89.18c.43.23.73.52.91.89.18.36.23.75.15,1.17l1.63.49c.2-.76.14-1.47-.18-2.12-.31-.66-.93-1.22-1.86-1.7-.71-.36-1.36-.54-1.96-.54-.79,0-1.51.21-2.14.65-.63.43-1.15,1.03-1.55,1.81-.36.71-.56,1.45-.58,2.2-.02.75.18,1.45.58,2.08.41.62,1.01,1.14,1.78,1.53.61.31,1.27.51,1.98.58.72.08,1.32.05,1.79-.1l1.52-2.96-3.23-1.67-.63,1.26Z"/>
        <polygon class="cls-7" points="238.04 135.04 237.37 129.17 234.87 128.81 233.65 137.09 235.2 137.32 236.16 130.8 236.84 137.56 238.44 137.79 241.03 131.51 240.07 138.04 241.63 138.26 242.85 129.98 240.34 129.62 238.04 135.04"/>
        <polygon class="cls-7" points="225.23 136.11 231.55 136.71 231.67 135.3 227.04 134.86 227.25 132.6 231.42 132.99 231.55 131.59 227.38 131.2 227.56 129.35 232.03 129.77 232.16 128.36 226.01 127.77 225.23 136.11"/>
        <path class="cls-7" d="m201.5,126.62c-.68-.02-1.28.08-1.8.29-.4.15-.76.4-1.11.72-.33.33-.6.71-.81,1.13-.27.57-.42,1.28-.44,2.14h0c-.03,1.32.31,2.38,1.01,3.17.71.78,1.7,1.18,2.92,1.21,1.23.03,2.22-.32,2.97-1.06.76-.75,1.15-1.8,1.18-3.15.04-1.36-.3-2.43-1.03-3.22-.7-.8-1.67-1.2-2.9-1.24Zm1.49,6.54c-.44.46-1,.7-1.67.67-.67-.01-1.22-.27-1.64-.78-.42-.5-.62-1.22-.59-2.18h0c.02-.96.25-1.67.69-2.14.44-.46,1-.69,1.7-.67.69.02,1.24.27,1.64.75.42.49.6,1.21.58,2.16-.03.98-.27,1.7-.72,2.19Z"/>
        <path class="cls-7" d="m212.79,132.29c-.23-.26-.52-.49-.89-.71.73-.1,1.28-.35,1.65-.76.38-.4.56-.92.57-1.54.01-.49-.1-.93-.35-1.32-.24-.39-.56-.66-.96-.81-.4-.16-1.04-.24-1.94-.26l-3.54-.04-.1,8.37h0l1.68.02.04-3.49h.34c.38,0,.67.05.85.11.18.07.34.18.5.35s.45.58.87,1.24l1.2,1.84,2.01.02-1-1.65c-.39-.65-.71-1.11-.95-1.37Zm-2.56-1.87l-1.25-.02.02-2.12,1.31.02c.68.01,1.09.02,1.23.05.27.04.48.16.63.34.15.17.22.4.22.68,0,.24-.06.46-.18.62-.12.17-.27.29-.48.35-.2.07-.71.09-1.51.09Z"/>
        <path class="cls-7" d="m222.64,128.49c-.33-.39-.74-.67-1.22-.84-.36-.12-.89-.2-1.57-.24l-3.08-.15-.42,8.36,3.16.16c.62.03,1.12,0,1.5-.1.5-.13.91-.34,1.21-.61.41-.35.73-.83.96-1.43.2-.48.31-1.08.35-1.76.04-.79-.02-1.45-.18-1.99-.15-.54-.39-1.01-.72-1.4Zm-.84,3.22c-.03.65-.11,1.15-.25,1.53-.13.37-.29.62-.49.78-.18.15-.41.26-.7.32-.2.04-.55.05-1.02.02l-1.26-.07.28-5.54.75.04c.68.03,1.15.08,1.37.15.31.09.57.23.76.43.2.2.34.48.43.83.12.36.15.86.12,1.51Z"/>
        <path class="cls-7" d="m264.25,135.3c-.29-.15-.93-.35-1.92-.59l-2.63-.63-1.95,8.14,1.64.39.73-3.06,1.07.26c.74.18,1.32.27,1.73.29.31.01.61-.05.94-.18.32-.13.62-.34.89-.63.26-.31.45-.7.57-1.2.16-.65.13-1.21-.09-1.7-.22-.48-.55-.85-.98-1.08Zm-.63,2.39c-.05.24-.17.44-.34.59-.16.15-.36.25-.6.28-.24.04-.67-.02-1.32-.19l-.9-.21.56-2.31.79.2c.59.14.98.26,1.17.34.26.11.45.29.58.52.12.24.15.49.07.79Z"/>
        <path class="cls-7" d="m273.37,138.69c-.34-.29-.92-.56-1.76-.87l-3.34-1.18-2.77,7.89h0l1.58.56,1.16-3.3.32.12c.37.13.63.25.77.37.15.12.26.28.36.5.1.21.24.69.43,1.46l.54,2.12,1.9.67-.42-1.89c-.16-.74-.31-1.28-.46-1.6-.13-.32-.34-.63-.61-.96.73.14,1.32.09,1.81-.18.48-.26.83-.69,1.04-1.28.16-.46.19-.93.1-1.37-.1-.45-.32-.81-.65-1.08Zm-1.12,1.97c-.09.23-.21.42-.37.53-.16.12-.35.18-.57.18-.21,0-.7-.14-1.46-.4l-1.17-.42h0l.7-2.01,1.24.44c.64.23,1.03.37,1.15.43.24.14.4.32.48.53.09.21.09.45,0,.71Z"/>
        <path class="cls-7" d="m280.44,141.26c-.65-.2-1.25-.28-1.81-.23-.42.05-.84.17-1.26.4-.41.23-.77.52-1.08.87-.41.47-.74,1.12-1,1.93h0c-.38,1.28-.35,2.39.13,3.33.46.94,1.3,1.59,2.48,1.97,1.17.37,2.21.3,3.14-.22.92-.5,1.59-1.4,1.99-2.7.4-1.3.37-2.43-.12-3.39-.47-.94-1.29-1.6-2.47-1.97Zm.95,4.79c-.29.92-.72,1.56-1.27,1.89-.56.34-1.15.41-1.79.21-.64-.2-1.09-.6-1.36-1.2-.28-.6-.27-1.36.01-2.25.28-.92.7-1.54,1.25-1.87.55-.33,1.16-.39,1.82-.18.66.21,1.12.6,1.37,1.17.27.58.26,1.32-.02,2.23Z"/>
        <path class="cls-7" d="m300.69,152.34c-.04-.45-.21-.84-.5-1.16-.29-.32-.84-.68-1.62-1.09l-3.14-1.64-3.83,7.44,1.49.78,1.6-3.1.31.16c.34.18.59.34.71.48.13.13.23.32.29.54.07.22.14.72.23,1.5l.24,2.18,1.79.93-.16-1.92c-.06-.77-.13-1.31-.23-1.65-.09-.34-.24-.68-.48-1.04.7.25,1.31.27,1.82.08s.92-.57,1.21-1.12c.23-.45.32-.89.29-1.35Zm-1.87.63c-.12.23-.27.38-.44.48-.18.1-.37.13-.59.1-.21-.04-.67-.23-1.39-.61l-1.1-.57.97-1.88,1.17.61c.6.31.97.51,1.09.59.21.17.35.36.4.59.05.21.02.46-.1.7Z"/>
        <path class="cls-7" d="m330.13,172.41c-.18-1.05-.79-1.92-1.81-2.61-.56-.38-1.12-.62-1.67-.74-.42-.08-.85-.08-1.32.02-.46.1-.89.27-1.28.52-.53.34-1.04.85-1.51,1.57h0c-.74,1.1-1.02,2.17-.84,3.22.18,1.03.79,1.91,1.81,2.6s2.04.93,3.08.71c1.03-.23,1.92-.9,2.68-2.01.76-1.14,1.05-2.23.87-3.27Zm-2.28,2.25c-.54.81-1.14,1.29-1.76,1.45-.62.16-1.21.05-1.76-.33-.56-.38-.87-.89-.97-1.54-.09-.65.13-1.37.67-2.15.53-.8,1.1-1.28,1.73-1.43s1.21-.04,1.79.35c.57.39.89.9.98,1.52.08.63-.14,1.35-.68,2.14Z"/>
        <polygon class="cls-7" points="248.31 138.81 252.75 139.83 252.99 138.84 249.72 138.08 250.07 136.49 253.02 137.16 253.24 136.18 250.31 135.49 250.6 134.19 253.76 134.93 253.99 133.93 249.65 132.93 248.31 138.81"/>
      </g>
    </g>
  </g>
</svg>