<?xml version="1.0" encoding="UTF-8"?>
<svg id="Layer_2" data-name="Layer 2" xmlns="http://www.w3.org/2000/svg" viewBox="0 0 520 320">
  <defs>
    <style>
      .cls-1 {
        fill: #a3ab78;
      }

      .cls-1, .cls-2, .cls-3, .cls-4, .cls-5, .cls-6 {
        stroke-width: 0px;
      }

      .cls-3 {
        fill: none;
      }

      .cls-4 {
        fill: #cf1126;
      }

      .cls-5 {
        fill: #fff;
      }

      .cls-6 {
        fill: #f7e017;
      }
    </style>
  </defs>
  <g id="_500x300_Background" data-name="500x300 Background">
    <rect class="cls-1" width="520" height="320" rx="10" ry="10"/>
  </g>
  <g id="Brunei">
    <g>
      <path class="cls-3" d="m311.68,189.98c.42-.92-.42-2.58-2.33-4.33-1.67-1.58-2.25-2-3.33-2.33-.49-.14-.62-1.7-.3-2.18-.42.32-.31,2.11.22,2.27,1.08.42,1.67.83,3.33,2.33,1.92,1.75,2.83,3.41,2.33,4.33-.05.09-.1.17-.15.23.08-.08.16-.18.24-.32Z"/>
      <path class="cls-3" d="m307.85,189.98c-.83-1-1.17-1.58-1.17-2.17,0-.33.07-.57.17-.71-.14.09-.26.37-.26.79,0,.58.33,1.17,1.17,2.17,1.23,1.37,1.51,2.31.86,3.08.75-.78.5-1.73-.78-3.16Z"/>
      <path class="cls-3" d="m306.77,194.4c-1.83-2.17-3.58-4-4.33-4.41-.58-.33-.75-.58-.75-1.33,0-.39.04-.66.15-.8-.19.07-.32.32-.4.89,0,.75.17,1,.75,1.33.75.33,2.5,2.17,4.33,4.41.58.67,1.08,1.17,1.17,1.17.02,0,.09-.05.19-.11-.2-.08-.65-.53-1.1-1.13Z"/>
      <path class="cls-3" d="m306.93,178.33c-.24,0-.33.34-.33,1.08.05.63.1.93.3,1.1-.18-.17-.22-.45-.22-1.02-.08-.83,0-1.16.24-1.16Z"/>
      <path class="cls-3" d="m307.33,180.71s.07.02.1.03c.42.17,1.67,1.17,2.83,2.33-1.17-1.17-2.42-2.25-2.83-2.33-.04,0-.07-.02-.1-.03Z"/>
      <path class="cls-3" d="m302.6,192.07c0,.12-.19.44-.42.8.23-.36.42-.67.42-.8,0-.58-.83-.5-1.49,0,.67-.5,1.49-.5,1.49,0Z"/>
      <path class="cls-3" d="m301.1,192.07c-.67.5-1.17.5-1.17,0,0,.58.5.5,1.17,0Z"/>
      <path class="cls-3" d="m300.69,191.48c-.42.17-.75.42-.75.58h0c0-.08.33-.42.75-.58.52-.26.79-.5.81-.72-.04.23-.31.48-.81.72Z"/>
      <path class="cls-3" d="m312.07,184.72c.25.2.41.29.44.26.04-.04.06-.15.06-.28,0,.14-.02.24-.06.28-.03.03-.19-.07-.44-.26Z"/>
      <path class="cls-3" d="m236.8,221.97c-.5-.08-1-.17-1.42-.25-.5-.08-.83-.25-1.17-.33-1.17-.42-1.75-.83-1.92-1.58-.1-.38-.12-.62-.03-.76-.17.1-.18.36-.05.84.17.75.75,1.17,1.92,1.58.33.08.67.25,1.17.33.42.08.92.17,1.42.25,1.83.17,3.75-.08,5.08-.67.65-.33,1.4-.86,2.1-1.51-.67.62-1.39,1.12-2.01,1.43-1.33.58-3.25.83-5.08.67Z"/>
      <path class="cls-3" d="m263.29,221.05c-1.25-.42-1.75-.42-4.41-.17-2.83.25-3.08.25-3.41-.25-.25-.33-.67-.5-1.5-.5-.58,0-1.92-.08-2.92-.17q-1.75-.17-1.75-.92,0-.92-1.92-1.17l-1.5-.17-.07.08,1.49.17q1.92.25,1.92,1.17,0,.75,1.75.92c1,.08,2.33.17,2.92.17.83,0,1.25.17,1.5.5.33.5.58.5,3.41.25,2.67-.25,3.16-.25,4.41.17.83.25,1.75.42,2.5.33,1.59-.19,3.6-1.25,4.66-2.3-1.08,1.02-3.03,2.03-4.58,2.22-.75.08-1.67-.08-2.5-.33Z"/>
      <path class="cls-3" d="m268.04,215.55c.5,0,1.42.25,2.17.5.67.25,2,.58,2.83.67.48-.02.83-.01,1.06.02-.22-.11-.59-.2-1.14-.27-.83-.08-2.17-.42-2.83-.67-.75-.25-1.67-.5-2.17-.5-1,0-2,.67-2,1.33,0,.13.02.23.09.3,0-.02,0-.03,0-.05,0-.67,1-1.33,2-1.33Z"/>
      <path class="cls-3" d="m242.88,217.8c-.34-.17-.56-.4-.69-.67.13.27.32.53.61.75.66.31.79.68.41,1.11.47-.47.38-.86-.33-1.19Z"/>
      <path class="cls-3" d="m306.96,178.33c.58.1,5.31,5.16,5.56,5.9-.16-.74-4.97-5.8-5.56-5.9Z"/>
      <path class="cls-3" d="m249.63,213.05c.42,0,.58-.17.58-.58,0-.02,0-.03,0-.04-.01.38-.18.54-.58.54-.33,0-.49-.22-.49-.47-.01.25.15.51.49.55Z"/>
      <path class="cls-3" d="m301.27,194.73c0,.33-.17.75-.33.92-.58.58-1,.25-.83-.74-.16.99.17,1.41.83.74.17-.17.33-.58.33-.92s.33-1,.67-1.5c.08-.12.17-.25.24-.37-.08.12-.16.24-.24.37-.33.5-.67,1.17-.67,1.5Z"/>
      <path class="cls-3" d="m271.12,218.13s0,0,0,0c.23-.16.87-.36,1.59-.51.94-.19,1.46-.39,1.58-.59-.22.14-.72.32-1.49.5-.83.17-1.58.42-1.67.58Z"/>
      <path class="cls-3" d="m284.75,213.19c.53-.01,1.1.1,1.68.16-.57-.06-1.15-.17-1.68-.16Z"/>
      <path class="cls-3" d="m291.02,206.89c.33.04.66.07.99.1-.32-.03-.65-.06-.99-.1h0Z"/>
      <path class="cls-3" d="m299.27,202.82s.1-.04.15-.06c-.05.02-.1.03-.15.06Z"/>
      <path class="cls-3" d="m283.5,215.82c.03.5.11.94.45,1.06h0c-.33-.13-.42-.56-.45-1.06Z"/>
      <path class="cls-3" d="m281.31,208.91c0,.11.02.22.05.31.27.37.5.77.71,1.18-.21-.41-.44-.81-.71-1.18-.03-.09-.05-.2-.05-.31Z"/>
      <path class="cls-3" d="m282.07,210.4c.62,1.23.98,2.61,1.29,3.98.06.19.09.42.1.67-.01-.25-.04-.48-.1-.67-.31-1.37-.67-2.75-1.29-3.98Z"/>
      <path class="cls-3" d="m299.45,202.76c.07-.02.14-.02.21-.03-.07,0-.14,0-.21.03Z"/>
      <path class="cls-3" d="m298.69,192.07c.08-.73.36-1.32.76-1.68-.42.34-.71.93-.76,1.68Z"/>
      <path class="cls-3" d="m299.44,193.65s-.07-.04-.1-.06c.04.02.07.04.1.06.67.42.75.67.67,1.25.17-.58,0-.83-.67-1.25Z"/>
      <polygon class="cls-3" points="300.94 190.15 300.94 190.15 300.94 190.15 300.94 190.15 300.94 190.15"/>
      <path class="cls-3" d="m299.77,202.73s-.05,0-.08,0c1.05.25.44,1.79-.29,1.87.71-.02,1.38-1.62.37-1.87Z"/>
      <path class="cls-3" d="m299.05,193.41c-.08-.06-.15-.12-.2-.18.05.06.12.12.2.18Z"/>
      <path class="cls-3" d="m293.31,204.57c-.39.01-.64.22-.7.49.09-.26.33-.47.7-.49Z"/>
      <path class="cls-3" d="m304.87,195.05c.39.48.4,1.4.4,2.01.08,1.17-.5,2.25-1.33,2.92-.25.25-.5.42-.83.58-.92.5-2.33,1.17-2,2.5.42,1.17-.58,2.58-1.75,2.58s-2.67-.25-3.33,1c-.42,1.67.08,3.5-.58,5.08-.37.99-.89,1.91-1.53,2.72.66-.8,1.2-1.71,1.61-2.63.67-1.58.17-3.41.58-5.08.67-1.25,2.17-1,3.33-1s2.17-1.42,1.75-2.58c-.33-1.33,1.08-2,2-2.5.33-.17.58-.33.83-.58.83-.67,1.42-1.75,1.33-2.92,0-.65,0-1.64-.48-2.1Z"/>
      <path class="cls-3" d="m293.44,204.56s-.02,0-.04,0c1.55-.03,1.24,1.88.15,1.61,1.09.41,1.45-1.68-.11-1.61Z"/>
      <path class="cls-3" d="m225.98,206.97c-.15.3-1.05.61-.96.91.07-.27.82-.55.96-.82.5-.5,1.08-1,1.42-1.67,0-.02-.02-.03-.03-.04-.34.64-.9,1.14-1.39,1.62Z"/>
      <path class="cls-3" d="m259.04,219.47l1.42-.58.67.58c.42.42.67.5.83.33.25-.42,1.67-.33,2.58.17.58.33,1.17.42,1.83.25,1.08-.17,3.5-1.33,3.75-1.75.04-.07,0-.19-.08-.31,0,.02,0,.05,0,.06-.25.42-2.67,1.58-3.75,1.75-.67.17-1.25.08-1.83-.25-.92-.5-2.33-.58-2.58-.17-.17.17-.42.08-.83-.33l-.67-.58-1.42.58c-1.13.5-1.69.62-1.9.34.08.57.61.52,1.98-.09Z"/>
      <path class="cls-3" d="m254.46,228.88c4.41.25,9,.08,13.41-.5l6.28,1.32s.02,0,.03-.01l-6.23-1.31c3.66-.5,7.41-1.33,10.99-2.5,12.83-4.16,23.24-13.58,29.98-25.24,2.33-4.16,4.33-8.58,5.66-13.24,1-3.58,1.67-7.33,2.08-11.08h0c1.15-10.55-.27-21.43-5.09-30.98-1.7-3.26-4.39-7.82-6.72-9.73,2.29,2.04,4.89,6.46,6.55,9.57,4.83,9.49,6.25,20.49,5.08,31.07-.33,3.75-1.08,7.5-2.08,11.08-1.33,4.58-3.25,9.08-5.66,13.24-6.75,11.74-17.24,21.15-29.98,25.24-3.58,1.17-7.25,2-10.99,2.5-4.41.58-8.91.75-13.41.5-8.75-.83-17.32-3.83-24.74-8.58-5.91-3.75-11.08-8.66-15.16-14.58,4.02,5.83,9.11,10.69,14.84,14.57l.4.08c7.41,4.75,15.99,7.75,24.74,8.58Z"/>
      <path class="cls-3" d="m206.9,222.72c.83.33,1.58.58,1.67.58.03,0,.05-.01.07-.02-.24-.05-.83-.27-1.57-.56-2.01-.8-4.2-.98-6.05-.58,1.82-.36,3.93-.19,5.89.58Z"/>
      <path class="cls-3" d="m222.9,200.89c.09-.24.22-.49.4-.7-.22.22-.4.5-.56.79-.5.81-1.05,1.63-1.75,2.23.87-.61,1.45-1.45,1.91-2.31Z"/>
      <path class="cls-3" d="m222.06,209.14c1.67.08,3.25.33,4.91.25,1.17,0,2.17-.75,2.92-1.58,1-1.17,1.92-2.42,3.08-3.41.33-.1.46-.42.44-.73-.01.29-.14.56-.44.65-1.17,1-2.08,2.25-3.08,3.41-.75.83-1.75,1.58-2.92,1.58-1.67.08-3.25-.17-4.91-.25-.25.33-.42.58-.67.92-.33.25-.75,1.33-1.25.92-.04-.19-.05-.39-.05-.59,0,.23,0,.45.05.67.5.42.92-.67,1.25-.92.25-.33.42-.58.67-.92Z"/>
      <path class="cls-3" d="m195.91,236.54c-1.17.42-2.5,1-2.92,1.25-.35.21-.76.42-.97.47.02.01.04.03.06.03.08,0,.67-.25,1.08-.5.42-.33,1.75-.83,2.92-1.25,2.14-.71,4.95-.87,7.34-.49-2.42-.46-5.31-.24-7.5.49Z"/>
      <path class="cls-3" d="m219.81,206.47c-.83.25-1.08-.5-1.08-1.25-.25-.83-1.17-1-1.83-1.42-.73-.41-1.61-.97-1.58-1.85,0,0,0,.01,0,.02-.08.92.83,1.5,1.58,1.92.67.42,1.58.58,1.83,1.42,0,.75.25,1.5,1.08,1.25.66,0,.92.6.9,1.18.05-.61-.21-1.27-.9-1.27Z"/>
      <path class="cls-3" d="m254.54,242.79c.33-.5.75-1.42.92-2.08.17-.75.33-2.17.42-3.16.08-1.08.25-2.33.42-2.92.22-.76.2-1.22-.03-1.36.14.2.14.63-.06,1.28-.08.58-.33,1.92-.42,2.92-.08,1.08-.25,2.5-.42,3.16-.08.75-.58,1.67-.92,2.08-.27.33-.43.46-.51.4.02.12.21,0,.6-.32Z"/>
      <path class="cls-3" d="m283.11,229.46c-.04-.08-.06-.17-.05-.27-.01.12,0,.22.05.27Z"/>
      <path class="cls-3" d="m224.64,200.98c-1.08,1.17-2.17,2.33-3.16,3.58-.32.26-.66.89-.6,1.3,0-.4.31-.97.6-1.21,1-1.25,2.08-2.42,3.16-3.58.2-.33.9-.61.87-.95-.07.31-.68.57-.87.87Z"/>
      <path class="cls-3" d="m284.27,229.14c-.09-.39-.78-.56-1.07-.26.36-.29.98-.07,1.07.26Z"/>
      <path class="cls-3" d="m283.73,229.69c-.12.02-.24.02-.35-.02.11.04.23.04.35.02Z"/>
      <path class="cls-3" d="m290.94,239.21c-2.67,1.92-4.41,2.83-7.5,4.08-7.04,2.87-16.47,4.52-25.13,4.58,8.71-.04,18.21-1.69,25.3-4.58,3.08-1.25,4.83-2.17,7.5-4.08.81-.61,1.56-1.1,1.86-1.27,0-.04-.02-.06-.03-.06-.08,0-1,.58-2,1.33Z"/>
      <path class="cls-3" d="m305.77,222.97c.12-.12.3-.16.49-.15-.2-.02-.41.02-.57.15-.17.17-.17.42-.08.58.13.21.38.27.62.22-.22.02-.43-.04-.54-.22-.08-.17-.08-.42.08-.58Z"/>
      <path class="cls-3" d="m227.56,240.62c0,2.67-1.08,4-3.66,4.66-.31.08-.63.13-.98.15.4-.02.79-.06,1.14-.15,2.58-.67,3.66-2,3.66-4.66,0-.81.06-1.48.19-1.63-.05-.02-.09-.03-.11-.03-.17,0-.25.75-.25,1.67Z"/>
      <path class="cls-3" d="m225.1,219.46l-.08-.02c1.59,1.23,3.2,2.38,4.84,3.42-1.61-1.04-3.2-2.18-4.76-3.41Z"/>
      <path class="cls-3" d="m241.22,208.64c0,.25-.25.42-.58.5-.09.02-.17.03-.24.03.09,0,.19,0,.32-.03.33-.08.58-.25.58-.5,0-.3-.28-.42-.56-.39.25,0,.48.12.48.39Z"/>
      <path class="cls-3" d="m233.32,205.15c-.41.67-1.33,1.85-2.43,3.07-1.13,1.32-1.87,2.25-2.28,2.95.43-.68,1.14-1.56,2.19-2.78,1.25-1.39,2.26-2.76,2.51-3.24Z"/>
      <path class="cls-3" d="m242.14,217.03c-.34-.9.39-2.2,2-3.31.42-.33.83-.42,1.17-.42.57,0,1.02.32,1.25.89-.19-.73-.68-1.14-1.33-1.14-.33,0-.75.08-1.17.42-1.67,1.15-2.34,2.5-1.91,3.56Z"/>
      <path class="cls-3" d="m283.72,210.19s-.07-.08-.1-.13c-.58-.92-.33-2.25-1-3.08,0,0-.02,0-.03,0,.59.84.38,2.11.94,2.99.07.1.13.16.19.22Z"/>
      <path class="cls-3" d="m251.38,218.72c.42.5.67.58,3.08.42,1.7-.13,2.32-.1,2.51.07,0-.03,0-.05,0-.07,0-.33-.42-.42-2.58-.25-2.42.17-2.67.08-3.08-.42-.13-.13-.21-.23-.27-.33,0,.18.12.34.36.58Z"/>
      <path class="cls-3" d="m249.71,216.72c.92-.25,1.25-.25,1.5,0,.04.04.07.09.1.13,0-.14-.06-.25-.18-.38-.25-.25-.58-.25-1.5,0-1.67.48-2.48.43-2.81-.34.26,1,1.05,1.11,2.89.59Z"/>
      <path class="cls-3" d="m241.72,211.14c.42,0,.5.17.33,2-.08,1.23-.12,1.85-.3,2.27.25-.42.29-1.03.38-2.44.17-1.83.17-2-.33-2-.47,0-.78.33-.94.94.19-.5.48-.78.86-.78Z"/>
      <path class="cls-3" d="m244.58,216.24c-.3-.01-.61-.15-.77-.43.13.3.46.45.77.43Z"/>
      <path class="cls-3" d="m224.39,228.46c-1,1.5-1.08,1.58-.67,1.58,0,0,0,0,0,0-.33-.02-.28-.18.66-1.58Z"/>
      <path class="cls-3" d="m220.15,197.98c.67-.67.67-.75.25-1.5-.35-.75-1.57-1.57-2.6-1.93,1.01.39,2.17,1.17,2.51,1.84q.42.83-.25,1.5c-.59.52-.71,1.14-.38,1.39-.22-.28-.07-.83.46-1.3Z"/>
      <path class="cls-3" d="m208.65,190.4c0-.17.08-.33.08-.42.75-2.42,2.5-3.75,4.58-3.41.5.06.81.14.98.23-.14-.11-.48-.22-1.07-.31-2.08-.33-3.83,1-4.58,3.41,0,.17-.08.25-.08.42-.68,2.37.41,5.18,2.45,7.09-2.05-1.95-3.1-4.72-2.36-7Z"/>
      <path class="cls-3" d="m235.56,204.73s0,0,0,0c.05-.08.09-.14.09-.17,0-.17-.5-.25-1.08-.25-.89,0-1.07.08-1,.32.15-.11.43-.15.92-.15.58,0,1.08.08,1.08.25Z"/>
      <path class="cls-3" d="m233.31,211.05c.92-.25,1.25.08,1.08.83-.25.83,0,.83,1.08-.17,1.17-1.04,1.65-1.09,1.29-.27.49-.98.03-1.01-1.21.1-1.08,1-1.25,1-1.08.17.25-.75-.17-1.08-1.08-.83-.43.14-.67.37-.78.8.16-.36.38-.57.7-.63Z"/>
      <path class="cls-3" d="m235.39,214.55c.42,1.5,3.41,2.08,4.58.83.25-.25.42-.48.52-.78-.1.22-.24.41-.44.61-1.25,1.25-4.25.67-4.58-.83-.07-.43.06-.87.46-1.56-.54.79-.69,1.26-.54,1.72Z"/>
      <path class="cls-3" d="m231.72,213.05c.25-.1.44-.25.57-.47-.12.16-.28.26-.49.3-.67.25-1.92-.5-1.92-1.08,0-.04.03-.11.06-.18-.09.15-.14.28-.14.35,0,.58,1.17,1.25,1.92,1.08Z"/>
      <path class="cls-3" d="m214.65,195.9c-.58-2.25-.25-2.67,1.58-2.67,1,0,1.92.25,2.83.67.92.46,1.97,1.33,2.64,2.13-.66-.84-1.76-1.78-2.72-2.21-.92-.5-1.75-.67-2.83-.67-1.83,0-2.08.42-1.58,2.67.58,2.57-.16,2.99-2.21,1.03.02.02.03.04.05.05,2,2,2.83,1.58,2.25-1Z"/>
      <path class="cls-3" d="m311.85,212.89c1.25,1.33,1.67,2.67,1.5,4.75-.08,1.42-.33,2-1.08,3.33-.77,1.26-.9,1.75-.28,1.69-.42-.05-.24-.56.45-1.69.75-1.33,1-2,1.08-3.33.08-2.08-.25-3.33-1.5-4.75-1.33-1.5-2.67-2.08-4.5-2.08-.03,0-.05,0-.08,0,1.79.02,3.1.6,4.41,2.08Z"/>
      <path class="cls-3" d="m256.97,231.65c2.61.06,5.82-.06,8.52-.31-2.72.24-5.94.34-8.52.31Z"/>
      <path class="cls-3" d="m263.54,173.41c-.33-.33-.5-.75-.67-1.08.17.33.33.83.67,1.08Z"/>
      <path class="cls-3" d="m323.09,229.29c-.5.92-.92,1.67-.92,1.83,0,.25.42.33,2.25.67,2.5.42,3.83,2.33,3.66,5.08,0,.75-.06,1.33-.17,1.51.14.04.23.07.25.07.17,0,.25-.75.25-1.58,0-2.83-1.42-4.66-3.83-5.08-1.83-.33-2.25-.42-2.25-.67,0-.17.42-1,.92-1.83,1.42-2.33,1.25-4.08-.58-5.83-1.32-1.27-3.32-1.96-5.4-1.98,2.01.05,3.94.74,5.23,1.98,1.83,1.75,2,3.5.58,5.83Z"/>
      <path class="cls-3" d="m349.66,154.34c.42-3.41,2.17-6.58,4.41-9.16-.58-3.16,0-7,2.58-8.99l.34-.07s0-.01-.01-.01l-.42.08c-2.58,2-3.16,5.91-2.58,8.99-2.25,2.58-3.91,5.75-4.41,9.16-.14.62-.44,1.12-.83,1.54.42-.42.74-.92.91-1.54Z"/>
      <path class="cls-3" d="m344.24,158.75c.53-.43,1.18-.78,1.84-1.13-.68.35-1.35.7-1.92,1.13-1.82.91-3.3,2.39-4.3,4.12.02.01.03.03.06.04,1-1.75,2.5-3.25,4.33-4.16Z"/>
      <path class="cls-3" d="m327.67,197.14c-.25-.26-.42-.55-.5-.91.08-5.83.17-11.74.25-17.57,0-5.16.08-10.41.17-15.57,1.08-3.41,4.5-5.16,7-7.33,2.08-2.17,4-4.41,5.75-6.75.53-.9,1.81-1.52,2.8-1.54-.99-.02-2.33.61-2.88,1.54-1.75,2.42-3.66,4.66-5.75,6.75-2.5,2.17-5.91,3.91-7,7.33-.08,5.16-.08,10.41-.17,15.57h0c-.08,5.8-.17,11.69-.25,17.49.08.39.29.72.58.99Z"/>
      <path class="cls-3" d="m262.87,172.33c-.29-.54-.62-1.08-1.01-1.58.39.5.72,1.04,1.01,1.58Z"/>
      <path class="cls-3" d="m266.59,164.29c.02.17.05.34.06.51-.02-.17-.04-.34-.06-.51Z"/>
      <path class="cls-3" d="m256.13,172.49c1.17,1.17,1.67-.25,2.17-1.17-.5.83-1,2.33-2.17,1.17Z"/>
      <path class="cls-3" d="m260.54,169.41c.5.37.94.83,1.32,1.33-.39-.5-.82-.96-1.32-1.33Z"/>
      <path class="cls-3" d="m254.04,167.08h0c-.08,2,.25,4.33,2.08,5.41-1.75-1.08-2.08-3.5-2.08-5.41Z"/>
      <path class="cls-3" d="m259.57,169.84c-.15.13-.28.29-.41.45.13-.16.27-.31.41-.45Z"/>
      <path class="cls-3" d="m254.04,166.02c.03-.71.14-1.41.27-2.09-.14.68-.24,1.38-.27,2.09Z"/>
      <path class="cls-3" d="m258.84,170.68c-.1.13-.2.26-.3.38.1-.12.2-.25.3-.38Z"/>
      <path class="cls-3" d="m252.88,147.34c.45.57.95,1.12,1.42,1.68-.47-.57-.96-1.14-1.4-1.71,0,.01-.02.02-.02.04Z"/>
      <path class="cls-3" d="m177.75,196.4c0-3.25.08-6.5.08-9.74s0-6.25-.08-9.41c-.25-2.33.17-4.91-1-7.08-3.08-4.5-8.33-7.16-10.66-12.33-1.83-4.66-2.67-9.66-3.33-14.58-.08-.58-.17-1.08-.25-1.67.07-1.58-.65-3.65,0-5.04-.9,1.45-.09,3.68-.16,5.29.08.58.17,1.08.25,1.67l-112.7-24.04,112.45,24.13c.67,5,1.5,9.91,3.33,14.58,2.5,5,7.66,7.66,10.83,12.16,1.17,2.17.75,4.75,1,7.08.08,3.08.08,6.25.08,9.41s0,6.5-.08,9.74c2.83,1.42,5.91,2.92,9.16,2.33,1.45-.38,3.84-.61,5.11-1.57-1.31.81-3.5,1.05-4.86,1.4-3.25.58-6.33-.92-9.16-2.33Z"/>
      <path class="cls-3" d="m214.48,205.64c-1.77-2.5-3.33-5.16-4.72-7.94,1.34,2.77,2.91,5.43,4.72,7.94Z"/>
      <path class="cls-3" d="m266.04,149.76c-.85,1.07-1.4,2.35-1.64,3.7.27-1.29.82-2.51,1.64-3.53.42-.83,1.83-1.58,1.5-2.5-.02-.01-.04-.02-.06-.03.15.86-1.12,1.65-1.44,2.36Z"/>
      <path class="cls-3" d="m179.67,157.17c-.58-2.92-2.83-5-3.75-7.75-.46-.97-.38-1.58-.03-1.9-.55.26-.77.9-.22,2.07.92,2.75,3.16,4.83,3.75,7.75.16,1.57,1.79,4.24.66,5.32,0,0,0,0,0,.01,1.58-1-.33-3.91-.42-5.5Z"/>
      <path class="cls-3" d="m196.33,208.06c.05-.12.09-.24.1-.36-.02.09-.05.18-.1.27-.5,1.33-2.08,1.75-3.25,2.17-1.67.58-3.33,1-5.08,1.17-.58.08-1.25.08-1.83.08h-.84s0,0,0,0h.92c.58,0,1.25,0,1.83-.08l.42.09c1.54-.2,3.02-.57,4.49-1.09,1.25-.42,2.83-.83,3.33-2.25Z"/>
      <path class="cls-3" d="m173.43,207.34c0,.15.02.31.08.47.13.13.26.31.39.46l.08.02c-.16-.16-.32-.32-.48-.56-.05-.13-.07-.26-.08-.39Z"/>
      <path class="cls-3" d="m178.81,159.78c-.18-.15-.37-.3-.56-.44.19.14.38.29.56.44Z"/>
      <path class="cls-3" d="m173.67,150.01c-.92-1.75-1.83-3.58-3.41-4.83v-.17c0-1.75-.08-3.58-.42-5.41-.12-.31-.21-.71-.2-1.07-.03.39.07.82.2,1.16.33,1.75.42,3.58.42,5.33l-.83-.17c0-2.25-.08-4.66-1.08-6.75-.33-.58-.75-1.33-1.5-1.33-.73.1-1.01.77-.96,1.46-.02-.66.26-1.28.96-1.38.75,0,1.17.75,1.5,1.33.99,2.06,1.08,4.37,1.08,6.68l.75.15v.17c1.58,1.25,2.5,3.08,3.41,4.83.5,1.17,1,2.33,1.25,3.66,1.25.42,2.33,1.17,3.33,2.08-.01-.04-.03-.07-.04-.1-.96-.8-2.01-1.58-3.2-1.98-.17-1.25-.67-2.5-1.25-3.66Z"/>
      <path class="cls-3" d="m173.28,144.81c0-.26.02-.53.06-.81,0-.02,0-.04,0-.06-.04.3-.06.58-.06.86Z"/>
      <path class="cls-3" d="m176.92,146.17c-.17-2-.5-4-1.17-5.91-.33-.67-.58-1.33-1.17-1.83-.17-.08-.25-.17-.42-.17-.02,0-.04.02-.06.02.13.03.24.08.31.14.58.42.92,1.17,1.17,1.83.67,1.92,1,3.91,1.17,5.91.04.08.06.14.06.18l.13.03s.03-.11-.02-.21Z"/>
      <path class="cls-3" d="m170.33,146.42c-.27-.29-.58-.55-.91-.77v.02c.33.22.63.47.91.75Z"/>
      <path class="cls-3" d="m175.49,154.86c-.43-.22-.87-.4-1.33-.5,0,.02,0,.04.01.06.46.09.9.24,1.32.44Z"/>
      <path class="cls-3" d="m166.68,144.93c0-.17.08-.33.08-.58.04-.42.06-.84.06-1.26,0,.42-.02.84-.06,1.26l-.09-.02c-.01.16-.07.37-.07.52,2.17,2.58,3.83,5.58,4.33,8.99,0,.5.22.86.53,1.17-.26-.29-.44-.63-.44-1.08-.5-3.33-2.17-6.41-4.33-8.99Z"/>
      <path class="cls-3" d="m179.15,160.07s.02.02.03.03c0,0-.01-.01-.02-.02,0,0-.01,0-.02-.01Z"/>
      <path class="cls-3" d="m211.15,167c1.58,9.08,5.75,17.49,11.66,24.4,7.66,8.91,18.07,15.16,29.65,16.91,3.07.92,6.18,1.12,9.29.89-3,.21-6,0-8.96-.89-11.58-1.67-22.07-8-29.65-16.91-5.91-6.91-10.08-15.32-11.66-24.4-1-4.41-1.33-8.99-1-13.49l.1.02c.43-6.03,2.01-11.89,4.48-17.34-.31.31-.6.63-.9.95-2.21,5.19-3.63,10.78-4.02,16.37-.33,4.5,0,9.08,1,13.49Z"/>
      <path class="cls-3" d="m252.66,173.46c-.08-.62,1.54-.68,2.14-.22,1.25.08,2,2.25,3.16,1.75.42-1.17.5-2.5,1.5-3.41.6-.88,1.24-.38,1.7.32-.47-.76-1.14-1.41-1.78-.48-.92.92-1,2.25-1.5,3.41-1.17.5-1.92-1.67-3.16-1.75-.64-.5-2.43-.39-2.05.39Z"/>
      <path class="cls-3" d="m280.45,213.14c-.5-1.42-.92-2.92-1.92-4.08-.08-.08-.18-.18-.23-.29-.07.15.1.33.23.45,1,1.17,1.42,2.67,1.92,4.08.36,1.21.77,2.52.77,3.81.04-1.35-.39-2.71-.77-3.98Z"/>
      <path class="cls-3" d="m229.3,214.38c.09.07.14.19.09.34-.07.45-.38.7-.64.59.23.16.65-.01.72-.51,0-.21-.06-.4-.18-.42Z"/>
      <path class="cls-3" d="m285.96,211.03c-.46-.63-.24-1.85-.74-2.2.41.45.22,1.64.74,2.2Z"/>
      <path class="cls-3" d="m263.96,198.4s-.04-.06-.05-.09c.48,1.06.72,2.12.64,3.26.02.05.05.09.09.12.15-1.15-.09-2.3-.67-3.28Z"/>
      <path class="cls-3" d="m262.79,175.74c1.33-.92,2.25-2.5,3.91-2.83.39-.24.94-.22,1.15,0-.06-.37-.77-.45-1.24-.16-1.67.33-2.58,1.92-3.91,2.83-.23,0-.36-.1-.47-.25.1.23.26.39.55.41Z"/>
      <path class="cls-3" d="m261.83,173.2c-.04-.1-.09-.19-.15-.27,0,.02.02.05.03.07.05.06.08.13.12.2Z"/>
      <path class="cls-3" d="m251.46,194.48c-.08-2.75.5-5.5,1.58-7.91.75-2.33,2.08-4.58,1.92-7.16.05-1.2-.09-2.49-.57-3.6.43,1.07.54,2.28.49,3.43.17,2.58-1.17,4.83-1.92,7.16-1,2.58-1.58,5.33-1.58,7.91v.5c-.06,1.38.35,2.71.98,3.89-.58-1.14-.96-2.41-.9-3.73v-.5Z"/>
      <path class="cls-3" d="m283.5,215.82c-.02-.25-.02-.52-.03-.77.01.25.02.52.03.77Z"/>
      <path class="cls-3" d="m295.55,204.42c-.09-.09-.18-.21-.28-.36-.02-.02-.05-.04-.07-.06.12.18.23.32.34.42Z"/>
      <path class="cls-3" d="m280.2,220.72c-.58.33-1.67.08-1.92.92-.25.83-.33,1.83-1.08,2.17s-1.58.58-2.33.25c-.58-.58-.5-1.5-.67-2.33h-2.25c-.25,0-.58.08-.67-.08,0-.39-.02-.8-.01-1.21-.01.44.01.88.01,1.29.08.17.42.08.67.08h2.25c.17.83.08,1.75.67,2.33.75.33,1.58.08,2.33-.25.75-.33.83-1.33,1.08-2.08.25-.83,1.33-.58,1.92-.92,1.5-.42,2.5-2,2.42-3.58,0-.02,0-.03,0-.05.03,1.54-.95,3.06-2.41,3.46Z"/>
      <path class="cls-3" d="m290.79,206.09c-.28-.5-.46-1.17-.9-1.57.42.45.59,1.14.89,1.62,0-.02,0-.03.01-.05Z"/>
      <path class="cls-3" d="m275.37,222.22c-.41-.57-.17-1.37.61-1.33-.01,0-.02,0-.03,0-.83-.08-1.08.75-.67,1.33.16.43.66.81,1.09.8-.43-.02-.9-.39-1-.8Z"/>
      <path class="cls-3" d="m261.59,149.16c-.33-.68-.05-1.78-.45-2.54.31.82,0,1.93.45,2.54Z"/>
      <path class="cls-3" d="m294.86,207.47c-.94-.31-1.87-.39-2.85-.48.97.09,1.91.17,2.85.48Z"/>
      <path class="cls-3" d="m290.19,216.72c-.02-.19.09-.45.28-.65-.19.2-.29.46-.28.65Z"/>
      <path class="cls-3" d="m263.46,201.98c-.06.08-.11.17-.16.27.05-.1.1-.19.16-.27Z"/>
      <path class="cls-3" d="m263.26,202.32c-.03.08-.07.16-.09.24.03-.08.06-.16.09-.24Z"/>
      <path class="cls-3" d="m263.54,208.06c-1.75.33-3.58.42-5.41.33,1.83.17,3.66.08,5.41-.25,3-.5,5.66-2.25,7.66-4.58,1.25-1.58,2.42-3.25,3.08-5.16-.75,1.83-1.83,3.5-3.08,5.08-2,2.33-4.66,4.08-7.66,4.58Z"/>
      <path class="cls-3" d="m259.79,195.4l.17-.17q-.08.08-.17.17Z"/>
      <path class="cls-3" d="m263.11,202.74c-.02.06-.03.13-.05.19.01-.06.03-.13.05-.19Z"/>
      <path class="cls-3" d="m260.91,146.22c-.03-.06-.05-.11-.08-.16.02.04.03.07.05.11.01.02.02.03.03.05Z"/>
      <path class="cls-3" d="m246.42,198.16c.24.12.55.37.82.57-.27-.2-.57-.45-.82-.57Z"/>
      <path class="cls-3" d="m261.11,195.88c.05.07.09.14.14.21-.04-.07-.09-.14-.14-.21Z"/>
      <polygon class="cls-3" points="260.8 195.49 260.79 195.48 260.79 195.48 260.79 195.48 260.8 195.49"/>
      <path class="cls-3" d="m263.04,203.08c-.02.11-.02.21-.02.31,0-.1,0-.2.02-.31Z"/>
      <path class="cls-3" d="m250.96,200.06s0,0,0,0c-.58-.04-1.15-.17-1.69-.35.54.19,1.1.31,1.69.35,0,0,0,0,0,0Z"/>
      <path class="cls-3" d="m257.26,203.09c.08,1.17-1.92.27-2.55-.2.63.47,2.64,1.45,2.55.2Z"/>
      <path class="cls-3" d="m274.15,198.23c-.4-.22-1.36.69-1.87.84-1.25.75-2.83.83-4,1.67,1.25-.83,2.75-.92,4-1.67.51-.15,1.47-1.06,1.87-.84Z"/>
      <polygon class="cls-3" points="262.04 197.23 262.04 197.23 262.04 197.23 262.04 197.23 262.04 197.23"/>
      <path class="cls-3" d="m263.96,203.89c1.25-.56,2.31-1.41,3.33-2.28-1.02.88-2.08,1.72-3.33,2.28-.67.29-.92-.02-.94-.49.01.49.26.83.94.49Z"/>
      <path class="cls-3" d="m179.5,198.31c1.67.92,3.41,1.75,5.33,1.67-1.92,0-3.66-.75-5.33-1.67Z"/>
      <path class="cls-3" d="m280.7,141.43c-3.5-.33-6.25-2.08-10.58-6.66-1.67-1.75-3.16-3.25-3.33-3.25-.1,0-.16.04-.19.11.03,0,.06-.02.11-.02.17,0,1.67,1.5,3.33,3.25,4.33,4.58,7.08,6.25,10.58,6.66,1.34.13,2.43-.14,3.24-.75-.79.55-1.88.79-3.15.67Z"/>
      <path class="cls-3" d="m342.66,206.47c-1.83.83-3.83,1.5-5.83,1.75-2.75.25-5.58-.08-8.25-.83-1.25-.33-2.42-.92-3.66-1.17-.82-.15-1.64.58-1.43,1.39-.04-.74.66-1.37,1.43-1.23,1.25.25,2.42.83,3.66,1.17,2.67.75,5.5,1.08,8.25.83,2-.25,3.91-.92,5.83-1.75.67-.33,1.25-.75,2-.83.93-.14,1.85.57,1.89,1.57.04-.94-.92-1.73-1.89-1.73-.75.08-1.33.5-2,.83Z"/>
      <path class="cls-3" d="m313.18,236.96c1.7-.57,2.63-.74,4.98-.75-.05,0-.1,0-.15,0-2.5,0-3.41.17-5.16.75-.58.17-1.17.42-1.75.67-2.17,1-4.33,2.42-6.16,4.08-2.55,2.31-4.21,3.06-6.66,3.08.03,0,.05,0,.08,0,2.5,0,4.16-.75,6.75-3.08,1.83-1.67,4-3.08,6.16-4.08l198.74,42.33v-.02l-198.57-42.31c.58-.25,1.17-.5,1.75-.67Z"/>
      <path class="cls-3" d="m342.96,201.59c-.47.16-.91.45-1.35.7.04-.02.09-.04.13-.06.4-.17.8-.45,1.22-.64Z"/>
      <path class="cls-3" d="m294.36,126.52c-3.68-2.04-8.03-3.19-8.53-2.35.76-.67,4.9.47,8.45,2.43,6.25,3.5,10.66,3.5,14.08.08.02-.02.03-.04.05-.05-3.41,3.38-7.82,3.29-14.04-.11Z"/>
      <path class="cls-3" d="m296.69,134.18c-2.08-.08-3.33-.5-5.25-2.17-2.98-2.59-10.33-5.48-10.88-4.4.93-.8,7.83,1.97,10.8,4.48,1.92,1.67,3.08,2.17,5.25,2.17,2.18.08,3.7-.58,4.63-1.82-1.01,1.17-2.5,1.74-4.55,1.74Z"/>
      <path class="cls-3" d="m284.03,136.1c-4.08-3.5-7.83-6-9.08-6-.29,0-.44.06-.48.15.09-.04.21-.07.4-.07,1.25,0,5,2.5,9.08,6,1.92,1.67,3.75,2.33,5.91,2.08,1.27-.13,2.44-.69,3.18-1.47-.75.73-1.88,1.26-3.1,1.38-2.17.25-4-.42-5.91-2.08Z"/>
      <path class="cls-3" d="m334.75,202.89h-.75c-.12,0-.16,0-.14,0-.02,0,.02,0,.14,0-1.75,0-3.41-.42-4.91-1.17-1-.42-2.25-.92-2.5-2.17-.14-.5-.22-1.13.14-1.51-.45.31-.38,1.05-.3,1.59.42,1.17,1.58,1.75,2.58,2.17,1.58.75,3.25,1.17,4.91,1.17h.75c2.67.08,5.33-.67,7.5-2.25.13-.11.27-.23.4-.35-.11.09-.22.18-.32.27-2.17,1.58-4.83,2.33-7.5,2.25Z"/>
      <polygon class="cls-3" points="510 146.66 510 146.64 479.94 140.25 510 146.66"/>
      <path class="cls-3" d="m334.92,207.06h-.83c-2,0-4-.42-5.83-1.17-1.17-.42-2.5-.83-2.92-2.25-.17-.42-.17-1,.08-1.33.06-.1.14-.17.23-.24-.15.08-.29.21-.48.41-.25.33-.33.92-.08,1.33.5,1.25,1.83,1.75,3,2.17,1.83.75,3.83,1.17,5.83,1.17h.83c2.25.08,4.58-.25,6.75-1.17.28-.13.55-.25.82-.39-.22.1-.44.2-.66.3-2.17.83-4.41,1.25-6.75,1.17Z"/>
      <path class="cls-3" d="m342.16,181.76l167.84,35.75v-.13l-167.83-35.75s0,.09,0,.13Z"/>
      <path class="cls-3" d="m297.1,220.88c-.19,0-.34.01-.47.04.13-.03.28-.04.47-.04h0Z"/>
      <path class="cls-3" d="m265.96,138.35c-.88-.22-1.35-.2-1.45.05.15-.2.6-.17,1.37.03,1.21.32,1.93.24,2.42-.32-.49.49-1.2.54-2.34.24Z"/>
      <path class="cls-3" d="m263.04,116.11c.41-1.06,2.03-2.45,3.66-3.37-.08.04-.17.08-.25.12-1.66.87-3.16,2.19-3.66,3.25v.42c.08-.08.17-.25.25-.42Z"/>
      <path class="cls-3" d="m254.88,142.18c0-1,.17-1.5.83-2.42.92-1.33.75-1.75-.58-1.33-2.17.58-3.16,0-3.25-1.83-.08-.92.17-1.25,1.33-2.75.05-.06.07-.1.12-.16-.07.08-.13.16-.2.24-1.17,1.42-1.33,1.83-1.33,2.75.08,1.92,1.08,2.5,3.25,1.83,1.33-.42,1.5,0,.58,1.33-.67.92-.83,1.42-.83,2.42,0,1.92.5,2.92,1.83,3.91.67.5,1.25.92,1.25.92,0,0,.02-.04.06-.1-.07-.05-.6-.43-1.22-.9-1.42-1-1.83-2-1.83-3.91Z"/>
      <path class="cls-3" d="m295.52,226.38c-.09-.11-.17-.25-.24-.41.07.16.15.3.24.41.16.22.27.36.39.42-.12-.06-.23-.2-.39-.42Z"/>
      <path class="cls-3" d="m298.38,226.29c.04.1.06.24.06.42,0,.69-.35,1.6-.93,2.57.58-.97.93-1.88.93-2.57,0-.19-.02-.33-.06-.42Z"/>
      <path class="cls-3" d="m295.07,223.52c-.06.44-.08.89-.05,1.32-.03-.42-.02-.88.05-1.32Z"/>
      <path class="cls-3" d="m217.57,129.85c2.67.08,4.08-.33,9.08-2.83,3.83-1.92,6.08-2.67,7.5-2.5.67.1.91.33.79.54.23-.23,0-.51-.71-.62-1.42-.17-3.58.5-7.5,2.5-5.08,2.58-6.41,3-9.08,2.83-2.42-.17-3.75-.83-5.5-2.67-1.28-1.2-2.93-4.15-2.77-4.68-.15-.01-.28-.01-.31.02-.33.33,1.5,3.5,2.75,4.75,2,1.92,3.33,2.5,5.75,2.67Z"/>
      <path class="cls-3" d="m297.17,231.88c.55-.64,1.02-1.29,1.35-1.83.75-1.5.83-2,.92-4.5-.17,2.41-.25,2.91-1,4.41-.29.61-.74,1.28-1.27,1.92Z"/>
      <path class="cls-3" d="m296.02,221.34c-.1.12-.2.27-.33.46-.31.44-.52,1.06-.62,1.72.1-.66.3-1.28.62-1.72.12-.19.23-.34.33-.46Z"/>
      <path class="cls-3" d="m296.08,231.25c-.55.65-1.17,1.28-1.82,1.84.65-.56,1.26-1.19,1.82-1.84Z"/>
      <path class="cls-3" d="m346.58,144.01h0c.03.23.05.46.05.69,0-.23-.02-.46-.05-.69Z"/>
      <path class="cls-3" d="m297.02,222.38c.58,0,.67.08.75,1,.02.14.02.27.01.39.01-.14,0-.3-.01-.47-.08-.83-.17-.92-.75-.92Z"/>
      <path class="cls-3" d="m258.88,116.69v-8.99l-.33-.26v8.95c.11.11.22.22.33.3Z"/>
      <polygon class="cls-3" points="262.46 107.21 262.46 107.2 260.7 108.6 260.71 108.61 262.46 107.21"/>
      <path class="cls-3" d="m299.27,230.88c1.67-2.17,2.08-3.33,2.25-6.41.17-2.75.17-2.83.83-3.16,2.5-1.17,3.16-1.67,3.66-2.33.42-.63.74-.9.94-.73-.13-.39-.5-.23-1.03.56-.5.75-1.17,1.17-3.66,2.33-.67.33-.67.5-.83,3.16-.17,3.16-.58,4.33-2.25,6.41-.75,1-.98,1.34-.74,1.45.02-.2.29-.57.82-1.29Z"/>
      <path class="cls-3" d="m291.69,235.21c.08-.17.75-.75,1.42-1.25.04,0,.06-.02.08-.04-.02.02-.04.04-.08.04-.67.5-1.33,1.08-1.42,1.25-.09.19-.01.29.19.32-.2-.02-.29-.13-.19-.32Z"/>
      <path class="cls-3" d="m294.26,233.09c-.32.28-.65.54-.99.78-.04,0-.06.02-.08.04.02-.02.04-.04.08-.04.33-.24.66-.5.99-.78Z"/>
      <path class="cls-3" d="m262.21,145.76c-.9-1.55-1.81-1.83-2.71-1,.85-.71,1.69-.35,2.62,1.08.33.58.75,1,.92,1s.83-.42,1.42-.92c.03-.02.05-.05.07-.07-.58.5-1.24.91-1.4.91s-.58-.42-.92-1Z"/>
      <path class="cls-3" d="m255.45,92.4L10,40.05v.02l245.4,52.33s.04,0,.06,0Z"/>
      <path class="cls-3" d="m346.74,156.25c-1.56.98-3.27,1.81-4.79,2.88,1.51-1.05,3.22-1.84,4.79-2.88Z"/>
      <path class="cls-3" d="m353.69,137.08s.04.02.05.04c-.01-.02-.03-.03-.05-.04Z"/>
      <path class="cls-3" d="m347.72,149.05c.21-.36.43-.73.65-1.08-.23.36-.44.72-.65,1.08Z"/>
      <path class="cls-3" d="m345.74,154.42c-1.67.33-3.08,1.42-4.16,2.67-.83.75-1,1.92-1.25,3,.33-1,.42-2.17,1.25-3,1.17-1.17,2.58-2.33,4.16-2.67Z"/>
      <path class="cls-3" d="m350.49,145.67c0-2.58,0-5.25,1.08-7.58.33-.58.75-1.33,1.5-1.33.1.01.18.05.26.08-.08-.03-.16-.07-.26-.08-.75,0-1.17.75-1.5,1.33-1.08,2.33-1.17,5-1.08,7.58-.88.57-1.54,1.41-2.11,2.3.57-.89,1.23-1.72,2.11-2.3Z"/>
      <path class="cls-3" d="m269.94,95.14c-.13.08-.26.16-.4.23-5.9,3.32-19.24,1.84-19.4-1.3-.03.02-.06.04-.09.06.17,3.16,13.54,4.66,19.47,1.34h-.06c.17-.12.33-.22.48-.33Z"/>
      <path class="cls-3" d="m267.45,108.2l-3.5-4.16-3.33,3.41-3.5-3.25-3.41,3.91-3.16-3.91-4.37,4.13c-.04.1-.08.19-.13.29l4.5-4.25,3.16,3.83,3.41-3.91,3.5,3.25,3.33-3.41,3.5,4.16,3-3.41,5.08,3.75s-.04-.08-.06-.13l-5.02-3.71-3,3.41Z"/>
      <path class="cls-3" d="m343.5,152.59c.67-1.08,1.25-2.25,1.5-3.58-.25,1.25-.83,2.41-1.5,3.58Z"/>
      <path class="cls-3" d="m341.66,155.75s.04-.03.05-.04c.08-.22.17-.44.28-.65-.12.23-.24.45-.33.69Z"/>
      <path class="cls-3" d="m349.66,137.76c.42.12.58.46.61.84-.01-.42-.17-.79-.61-.93-.42.08-.83.42-1.17.75-1.33,1.5-2,3.58-1.92,5.58,0-2,.58-4,1.92-5.5.25-.33.67-.75,1.17-.75Z"/>
      <path class="cls-3" d="m346.83,139.18c.08.42-.33.75-.42,1.17-.5,1.33-.75,2.83-.58,4.33.08.97-.31,1.94-.79,2.84.01.03.03.05.04.08.5-.83.83-1.83.83-2.92-.17-1.42.08-3,.58-4.33.08-.42.5-.83.42-1.17-.25-.42-.58-.83-1-.92-.02,0-.04,0-.05.01.48.1.73.58.97.9Z"/>
      <path class="cls-3" d="m344.79,147.13c-.27-.39-.71-.64-1.21-.7.48.06.91.34,1.21.7Z"/>
      <path class="cls-3" d="m353.22,144.95c-2.15,2.57-3.81,5.56-4.31,8.96.5-3.32,2.16-6.38,4.31-8.96Z"/>
      <polygon class="cls-3" points="265.9 82.59 272.62 80.38 272.55 80.34 265.87 82.54 265.9 82.59"/>
      <path class="cls-3" d="m245.97,139.51c-4,2.75-7.83,3.25-9.58,1.08-.76-.9-.82-1.46-.25-2-.67.57-.64,1.14.16,2.09,1.75,2.08,5.58,1.67,9.58-1.08.68-.46,2.48-2.16,4.18-3.91-1.69,1.72-3.5,3.38-4.1,3.83Z"/>
      <path class="cls-3" d="m262.62,93.87v-1.5s-.06,0-.08,0v1.54l.08.02v-.06Z"/>
      <path class="cls-3" d="m254.29,131.85c-.15-.15-1.06.6-2.85,2.42,1.74-1.75,2.63-2.48,2.77-2.33.07.04.09.12.07.24.05-.15.06-.27.01-.32Z"/>
      <polygon class="cls-3" points="259.46 94.7 259.46 94.79 262.04 94.79 262.04 93.83 261.96 93.81 261.96 94.7 259.46 94.7"/>
      <path class="cls-3" d="m238.28,136.79s-.04.04-.06.05c-.37.37-.87.83-1.31,1.17.43-.31.98-.79,1.37-1.23Z"/>
      <polygon class="cls-3" points="258.79 95.2 258.79 93.14 258.71 93.12 258.71 95.2 258.79 95.2"/>
      <polygon class="cls-3" points="261.96 85.08 270.79 89.46 270.64 89.26 261.96 84.96 261.96 85.08"/>
      <path class="cls-3" d="m238.35,136.72c.95-.94,3.14-2.62,4.91-3.8-1.78,1.15-3.96,2.83-4.91,3.8Z"/>
      <path class="cls-3" d="m340.26,160.56c.06.05.27-.21.48-.47-.24.24-.42.47-.48.47Z"/>
      <path class="cls-3" d="m239.14,128.1c-2.42.08-7.25,2.42-10.16,4.83-3.41,2.92-8.5,2.67-10.16-.5-.23-.46-.38-.91-.34-1.04-.04.02-.07.03-.08.04-.08,0,.08.58.33,1.08,1.67,3.08,6.75,3.33,10.16.5,2.92-2.42,7.75-4.75,10.16-4.83.8-.05,1.26.14,1.25.35.12-.24-.33-.49-1.17-.44Z"/>
      <path class="cls-3" d="m258.29,73.3c0-.16.07-.32.18-.46-.17.17-.27.35-.27.54,0,.5.5.83,1.17,1.08v-.08c-.67-.17-1.17-.58-1.08-1.08Z"/>
      <path class="cls-3" d="m245.72,130.68c-1.25,0-5.16,2.58-8.08,5.33-.83.75-2.08,1.67-2.75,2-1.5.67-4.41.92-5.66.5-.92-.33-2.58-1.92-2.58-2.5,0-.04.02-.08.05-.13-.08.08-.14.16-.14.22,0,.58,1.67,2.17,2.58,2.5,1.33.42,4.16.17,5.66-.5.67-.25,1.92-1.17,2.75-2,3-2.75,6.83-5.33,8.08-5.33.53,0,.63.17.35.46.39-.34.32-.55-.27-.55Z"/>
      <path class="cls-3" d="m261.96,74.52c.42-.12.77-.28,1.02-.47-.26.19-.6.34-1.02.41v.05Z"/>
      <path class="cls-3" d="m231.72,117.19c3.25-2.48,6.12-4.05,9.13-4.9-3.14.82-6.1,2.42-9.47,4.98-2.75,2.08-6.75,4.16-9.74,5.08-.33.09-.63.17-.92.23.39-.08.79-.19,1.25-.32,3-.92,7-3,9.74-5.08Z"/>
      <path class="cls-3" d="m255.92,243.87c.51-.12.92-.26,1.24-.43-.32.17-.73.31-1.24.43Z"/>
      <path class="cls-3" d="m261.54,240.12c.08-2.92,0-3.58-.33-4.33-.25-.42-.42-1.08-.33-1.33.14-.42.98-1.07,1.4-1.12-.37-.05-1.33.67-1.48,1.12-.08.25.08.83.33,1.33.42.75.42,1.42.33,4.33-.11,2.54-.03,3.63.26,3.41-.23-.06-.28-1.18-.18-3.41Z"/>
      <path class="cls-3" d="m219.98,228.46c1.58,1.42,2.75,3.41,4.91,3.83.77.13,1.36-.23,1.84-.75-.47.47-1.04.78-1.76.66-2.17-.42-3.41-2.5-4.91-3.83-.34-.09-.54.02-.65.22.12-.13.3-.19.57-.14Z"/>
      <path class="cls-3" d="m251.37,244.23c.41.04.82.08,1.15.09-.34-.01-.74-.04-1.15-.09Z"/>
      <path class="cls-3" d="m248.18,244.3c0-.05.02-.1.06-.14-.04.04-.07.08-.06.14Z"/>
      <path class="cls-3" d="m254.07,244.19c.49-.06.92-.13,1.31-.21-.39.07-.82.14-1.31.21Z"/>
      <path class="cls-3" d="m258.14,241.67c0,.24,0,.46-.05.65.04-.2.06-.41.05-.65Z"/>
      <path class="cls-3" d="m260.04,239.21c-.04-.3-.26-.44-.55-.42.27,0,.47.14.55.42Z"/>
      <path class="cls-3" d="m258.09,242.32c-.09.39-.29.7-.64.95.35-.25.55-.56.64-.95Z"/>
      <path class="cls-3" d="m258.46,239.29s0,0,0,0c0,0,0,0,0,0-.37.31-.52.53-.49,1.01-.02-.48.12-.69.49-1.01Z"/>
      <path class="cls-3" d="m252.84,244.32c.19,0,.35-.01.45-.03-.1.02-.26.03-.45.03Z"/>
      <path class="cls-3" d="m219.48,226.38c1.42-.67,2.67-2.33,2.67-3.33,0-.01,0-.03,0-.04-.11,1.08-1.34,2.72-2.66,3.37Z"/>
      <path class="cls-3" d="m230.99,226.45s.04-.05.07-.07c1.33-1.33-1.33-.75-1.92-.33-.12.07-.21.14-.29.23.06-.05.13-.1.21-.14.58-.41,3.22-.99,1.93.32Z"/>
      <path class="cls-3" d="m226.89,223.13c-.67.17-.92.33-1,.92.17-.58.42-.75,1-.92Z"/>
      <path class="cls-3" d="m217.57,225.88l-.08-1.17-1.83-.17c-2.92-.25-3.5-.67-4.58-2.83-.33-.75-.83-1.25-1.33-1.42-.51-.19-.76-.46-.79-.69-.04.25.22.55.79.77.5.17,1,.67,1.33,1.42,1.08,2.17,1.67,2.58,4.58,2.83l1.83.17.08,1.17c0,.58.17,1.08.33,1.08-.17,0-.25-.5-.33-1.17Z"/>
      <path class="cls-3" d="m230.5,226.95s-.03.04-.04.06c.01-.02.03-.04.04-.06Z"/>
      <path class="cls-3" d="m228.98,234.63c2.42,1.67,5.5,1.42,8.25,1.67,1.5-.42.58,1.75,1.58,1.75,1.08,0,3.08-1,3.41.58-.5,1.17.92,1.17,1.58.67.83-.5,3.08-1.42,2.58.5-.08,1.25,1.92,1.5,2.58.58,0,0,0,0,0,0-.72.81-2.58.55-2.5-.66.58-1.92-1.67-1-2.58-.5-.67.5-2.08.58-1.58-.67-.25-1.58-2.33-.58-3.41-.58s-.08-2.17-1.58-1.75c-2.75-.17-5.83.08-8.25-1.67-1.42-.67-1.25-2.42-.5-3.5.61-1.16.91-2.51,1.59-3.6-.74,1.15-1.04,2.54-1.68,3.69-.67,1.08-.92,2.83.5,3.5Z"/>
      <path class="cls-3" d="m250.96,236.37c-.29,1.58-.21,3.4-1.14,4.68,1.02-1.33.93-3.21,1.22-4.76,0-1.17.75-2.58.25-3.58-.36.07-.69.22-.96.43.25-.16.55-.28.88-.34.5,1-.25,2.42-.25,3.58Z"/>
      <path class="cls-3" d="m249.38,241.54s.04-.05.06-.07c-.04.03-.06.07-.1.11.01-.01.02-.02.04-.04Z"/>
      <path class="cls-3" d="m288.44,232.71c-.25,0-.42-.08-.5-.17-.17-.17-.17-.75,0-1.67.25-1.33-.08-3-.67-3-.15,0-.32.09-.49.25.13-.1.25-.17.33-.17.58,0,1,1.67.67,3-.25.92-.25,1.42,0,1.67.08.08.25.17.5.17.67,0,1.92.5,1.67,1,0,.08-.33,1-.75,1.92-.79,1.65-1.9,2.93-3.73,4,1.88-1.09,3.09-2.39,3.9-4.09.42-.92.83-1.83,1-2,0-.33-1.25-.92-1.92-.92Z"/>
      <path class="cls-3" d="m285.19,241.87c.31,0,.58-.19.69-.42-.11.23-.38.42-.69.42Z"/>
      <path class="cls-3" d="m285.69,234.63s-.03.02-.04.02c.07-.04.13-.07.21-.11l1.01-.58h0s-1.17.66-1.17.66Z"/>
      <path class="cls-3" d="m228.08,223.62c.12-.36-.17-.58-.75-.55.57-.03.83.19.75.55Z"/>
      <path class="cls-3" d="m282.7,241.37c.33,0,.67.33.75.67,0-.33-.33-.67-.75-.67Z"/>
      <path class="cls-3" d="m278.78,236.46c-.08.5-.25,1.17-.33,1.58-.17.5,0,.92.42,1.33.58.58.83.67,2.33.5,1.1-.1,2.41-.54,3.59-1.12-1.14.55-2.37.95-3.42,1.04-1.58.08-1.83,0-2.33-.5-.42-.42-.5-.83-.42-1.33.08-.42.25-1.08.33-1.58.14-.7.01-.94-.28-.77.18-.02.22.24.11.85Z"/>
      <path class="cls-3" d="m285.19,240.54c-.42,0-.75.25-.75.67,0-.33.33-.67.75-.67Z"/>
      <path class="cls-3" d="m296.48,230.76c.26-.33.5-.66.72-.99-.22.33-.46.66-.72.99Z"/>
      <path class="cls-3" d="m174.9,203.56c-.33-.98.55-2.16,1.52-2,.67.08,1.25.5,1.83.83,1.58.75,3.33,1.42,5.08,1.67,2.83.25,5.75-.25,8.5-1.25.67-.17,1.42-.67,2.17-.67.28,0,.48.13.63.31-.16-.27-.42-.49-.8-.56-.75-.08-1.42.42-2.17.67-2.67,1.08-5.58,1.58-8.41,1.33-1.75-.25-3.5-.92-5.08-1.67-.58-.25-1.17-.75-1.83-.83-1-.08-1.92,1.08-1.5,2.08.02.03.04.05.06.08Z"/>
      <path class="cls-3" d="m184.83,199.98c2.17,0,4.41-.58,6.33-1.58-2,1-4.16,1.58-6.33,1.58Z"/>
      <path class="cls-3" d="m177.59,200.73c2.17,1.58,4.83,2.33,7.5,2.25h.08c-2.67.08-5.33-.67-7.5-2.25-.5-.42-1.08-.92-1.25-1.67-.06-.31-.02-.63.1-.92-.14.29-.21.62-.18.92.08.75.75,1.25,1.25,1.67Z"/>
      <path class="cls-3" d="m284.69,240.12c.1-.05.18-.1.28-.15-.12.06-.23.12-.35.18.02-.01.05-.02.07-.03Z"/>
      <path class="cls-3" d="m267.2,243.54c-.75.25-1.58.67-1.83.92-.5.5-1.08.58-1.08.17,0-.08.17-.67.33-1.17.04-.09.08-.16.12-.24-.07.12-.14.25-.2.4-.17.5-.33,1-.33,1.17,0,.42.58.33,1.08-.17.25-.25,1.08-.67,1.83-.92,1-.42,1.58-.75,2-1.42.36-.52.6-1.03.72-1.53-.13.45-.34.9-.64,1.36-.42.67-.92,1.08-2,1.42Z"/>
      <path class="cls-3" d="m282.95,242.65c-.08.03-.16.05-.25.05.09,0,.17-.02.25-.05Z"/>
      <path class="cls-3" d="m267.7,239.12c-.33-.5-.83-.83-1.33-1-.75-.19-.94-.28-.7-.81-.34.67-.2.77.62.97.58.08,1.08.5,1.33,1,.62,1.09.76,1.96.48,2.51.4-.53.28-1.47-.4-2.68Z"/>
      <path class="cls-3" d="m282.7,241.37c-.42,0-.75.25-.75.67,0-.33.33-.67.75-.67Z"/>
      <path class="cls-6" d="m254.04,231.46c.81.1,1.81.16,2.93.19,2.58.03,5.8-.07,8.52-.31.92-.09,1.79-.19,2.54-.3,2.08-.33,4.08-.75,6.08-1.33.01,0,.02,0,.03-.01l-6.28-1.32c-4.41.58-8.99.75-13.41.5-8.75-.83-17.32-3.83-24.74-8.58l-.4-.08c.08.05.16.11.24.17l-4.45-.92c1.56,1.23,3.15,2.37,4.76,3.41,7.45,4.76,15.4,7.58,24.18,8.59Z"/>
      <path class="cls-6" d="m311.26,237.62c-2.17,1-4.33,2.42-6.16,4.08-2.58,2.33-4.25,3.08-6.75,3.08-.03,0-.05,0-.08,0-.03,0-.05,0-.08,0-2.42,0-4-.75-4.83-2.08-.5-.75-.5-1.17-.42-2.83.07-.92.08-1.72.03-1.94-.3.16-1.05.66-1.86,1.27-2.67,1.92-4.41,2.83-7.5,4.08-7.09,2.89-16.59,4.54-25.3,4.58-2.91.02-5.73-.14-8.35-.5-7.91-1.08-15.16-3.66-20.16-7.16-.79-.58-1.58-1.09-1.89-1.22-.13.15-.19.83-.19,1.63,0,2.67-1.08,4-3.66,4.66-.35.09-.74.14-1.14.15-2.45.16-5.73-1.15-8.43-3.49-3.25-2.75-6.91-4.83-10.08-5.66-.32-.09-.65-.17-.99-.24-2.39-.39-5.2-.23-7.34.49-1.17.42-2.5.92-2.92,1.25-.42.25-1,.5-1.08.5-.02,0-.04-.01-.06-.03-.04.01-.08.03-.11.03-.42,0-.42-2.83.08-3.75.58-1.17,2.08-2.33,3.83-3,.83-.33,1.58-.75,1.58-.92s-.33-.83-.67-1.5c-1.25-2.08-.75-4.16,1.33-5.75.8-.61,1.81-1.02,2.94-1.25,1.86-.4,4.04-.22,6.05.58.74.3,1.33.52,1.57.56.29-.09,0-.77-1.07-2.31-1.33-2-1.58-3-1.42-5.33.05-.05.07-.15.08-.25l-18.32-3.91c.2-.02.39-.05.59-.08l-.42-.09c-.58.08-1.25.08-1.83.08h-.92s0,0,0,0h-.08c-2.92.08-5.91-.42-8.58-1.5-.92-.42-1.92-.83-2.67-1.58,0,0-.01-.02-.02-.02l-.08-.02s.07.09.11.12L10,173.4v136.6h500v-30.04l-198.74-42.33Z"/>
      <path class="cls-6" d="m255.71,92.37c1-.08,2-.08,3-.08v.83l.08.02v-.02l.58.15v-18.8c-.67-.25-1.17-.58-1.17-1.08,0-.19.1-.38.27-.54.37-.45,1.26-.79,2.4-.79,1.5,0,2.58.58,2.58,1.25,0,.27-.18.53-.48.75-.24.19-.59.34-1.02.47v.11l10.74,5.66-.15.05.07.03-6.71,2.21,4.96,6.78-.23-.11.14.2-8.83-4.37v8.72l.08.02v-.04l.5.12v-1.54s.06,0,.08,0v-.08c1.75.08,3.58.08,5.25.42,1.25.25,2.42.67,3.33,1.33-.33.4-.77.79-1.27,1.1-.16.11-.32.21-.48.31h.06s.01,0,.02,0l.68.12c.08-.04.16-.08.24-.12.33-.17.67-.42,1-.67v.92s0,.05,0,.08l208.48,44.46,30.06,6.4V10H10v30.05l245.45,52.34c.09,0,.17-.02.26-.03Z"/>
      <path class="cls-5" d="m162.6,143.51c-.08-.58-.17-1.08-.25-1.67.08-1.61-.74-3.84.16-5.29.1-.22.24-.44.42-.62l.42.08c2.33,1.75,3,5,2.75,7.91-.02.07-.02.14-.03.21l.62.12s0,.04,0,.06l.09.02c.04-.42.06-.84.06-1.26,0-1.26-.19-2.53-.56-3.65-.23-.33-.36-.78-.38-1.21-.05-.69.22-1.35.96-1.46.75,0,1.17.75,1.5,1.33,1,2.08,1.08,4.5,1.08,6.75l.83.17c0-1.75-.08-3.58-.42-5.33-.12-.33-.23-.77-.2-1.16.01-.42.17-.79.61-.93.42.08.83.42,1.17.75,1.33,1.5,2,3.58,1.92,5.58,0,0,0,.02,0,.03,0,.02,0,.04,0,.06-.04.27-.06.54-.06.81,0,.25.02.51.06.78,0,0,0,.01,0,.02l.82.15c-.07-.32-.07-.7-.07-1.08.17-1.42-.08-2.92-.67-4.33-.08-.42-.5-.83-.42-1.17.25-.42.58-.83,1-.92.04,0,.07.02.11.02.02,0,.04-.02.06-.02.17,0,.25.08.42.17.58.5.83,1.17,1.17,1.83.67,1.92,1,3.91,1.17,5.91.05.1.04.17.02.21l28.37,6.07s0-.02,0-.03c1.83-6.08,4.83-11.99,9.33-16.41-.17.37-.32.75-.48,1.12.3-.32.58-.65.9-.95-2.48,5.45-4.05,11.32-4.48,17.34l43.96,9.39c.42-1.67,1.08-3.25,1.67-4.83.67-1.75.5-3.83.08-5.66-.36-1.3-1.15-2.37-2-3.4-.47-.56-.96-1.11-1.42-1.68,0-.02.01-.02.02-.04-.03-.04-.07-.09-.1-.13.08-.67,1.75-.25,2.33-.17,1.33.42,2.17,1.58,3.16,2.5.75-.25.42-1.75.75-2.42,0-.97,1.25-2.25,1.78-1.02.03.05.05.1.08.16.1.12.17.25.23.39.4.77.12,1.86.45,2.54.07.1.17.19.29.26,1-.42,1.5-1.5,2.42-2,.92-.58,2.17-.67,3.16-.17.02.05.01.09.02.14.02,0,.04.02.06.03.33.92-1.08,1.67-1.5,2.5-.82,1.02-1.37,2.24-1.64,3.53-.23,1.28-.19,2.62.14,3.88.58,2,1.58,3.91,1.92,6,.04.32.09.64.13.96.02.17.05.34.06.51.03.26.05.52.05.77h0s39.82,8.46,39.82,8.46c.99-3.07,1.66-6.31,1.91-9.63,1.33-10.08-.17-20.49-4.58-29.57.33.19.67.45,1.02.76,2.33,1.91,5.02,6.48,6.72,9.73,4.82,9.55,6.24,20.43,5.09,30.98l10.65,2.25s0,.06,0,.08h0c.08-5.16.08-10.41.17-15.57,1.08-3.41,4.5-5.16,7-7.33,2.08-2.08,4-4.33,5.75-6.75.55-.93,1.89-1.55,2.88-1.54,1.01-.02,1.71.6.95,2.2-.92,2.75-3.16,4.83-3.75,7.75-.16,1.64-1.94,4.5-.47,5.46,1-1.73,2.49-3.21,4.3-4.12.56-.44,1.24-.78,1.92-1.13.96-.51,1.95-1.02,2.67-1.75.39-.42.68-.91.83-1.54.5-3.41,2.17-6.58,4.41-9.16-.58-3.08,0-7,2.58-8.99l.42-.08s0,.01.01.01h.07c1.33,1.4.33,3.9.58,5.9-.75,5.41-1.58,10.99-3.58,16.16-2.5,5-7.66,7.66-10.83,12.16-1.17,2.17-.75,4.75-1,7.08,0,1.43-.07,2.79-.08,4.22l167.83,35.75v-70.72l-30.06-6.41-208.48-44.46c.03,5.36,2.34,8.77,4.08,12.74l-.06-.04s.04.08.06.13l-5.08-3.75-3,3.41-3.5-4.16-3.33,3.41-3.5-3.25-3.41,3.91-3.16-3.83-4.5,4.25c.04-.1.08-.19.13-.29l-.13.12c1.92-4.25,3.25-8,3.66-13.49,4.68,3.94,15.02,3.67,20.5.62l-.68-.12s-.01,0-.02.01c-5.92,3.32-19.3,1.82-19.47-1.34.03-.02.06-.04.09-.06,0,0,0-.02,0-.03.92-.67,2-1.08,3.16-1.33.65-.15,1.38-.22,2.1-.3L10,40.07v70.83l39.9,8.56,112.7,24.04Zm180.98,2.92c-.17,0-.58.08-.5-.25.17-2,.5-4,1.17-5.91.33-.67.58-1.33,1.17-1.83.17-.08.25-.17.42-.17.01,0,.02,0,.03.01.02,0,.04-.01.05-.01.42.08.75.5,1,.92.08.33-.33.75-.42,1.17-.5,1.33-.75,2.92-.58,4.33,0,1.08-.33,2.08-.83,2.92-.01-.03-.03-.05-.04-.08-.01.03-.02.05-.04.08-.04-.17-.12-.33-.21-.46-.3-.37-.73-.64-1.21-.7Zm-1.92,9.33c.09-.24.21-.46.33-.69.44-.88,1.04-1.63,1.5-2.47,0,0,0,0,0,0,.67-1.17,1.25-2.33,1.5-3.58.29-.33.55-.7.77-1.09.56-.97.88-2.09.86-3.23,0-.23-.02-.46-.05-.69h0c-.08-2,.58-4.08,1.92-5.58.33-.33.75-.67,1.17-.75.45.13.6.51.61.93.03.39-.07.82-.2,1.16-.42,1.83-.42,3.66-.42,5.5-1.58,1.25-2.5,3.08-3.41,4.83-.5,1.17-1,2.33-1.25,3.66-1.25.42-2.33,1.17-3.33,2.08.02-.05.04-.08.05-.13-.02.01-.04.03-.05.04Zm11.99-16.41c-.15.44-.27.89-.36,1.35-.09.46-.16.93-.19,1.41-.07.95-.03,1.91.14,2.82,0,0-.01.01-.02.02-2.15,2.57-3.81,5.64-4.31,8.96,0,0,0,.01,0,.02,0,.62-.33,1.04-.77,1.38-.22.17-.46.33-.71.48s-.48.3-.69.47c0,0,0,0,0,0-1.56,1.04-3.28,1.83-4.79,2.88-.42.3-.83.6-1.21.95-.21.26-.42.52-.48.47-.05,0-.04-.11.07-.47.25-1.08.42-2.25,1.25-3,1.08-1.25,2.5-2.33,4.16-2.67.17-1.75.92-3.33,1.67-4.83.1-.18.21-.36.31-.54.21-.36.43-.73.65-1.08.57-.89,1.23-1.72,2.11-2.3-.08-2.58,0-5.25,1.08-7.58.33-.58.75-1.33,1.5-1.33.1.01.18.05.26.08.14.06.26.13.36.23.01.02.04.02.05.04.46.55.36,1.6-.08,2.23Zm-144.59-16.91s.15-.03.31-.02c0-.02.01-.05.03-.06.08-.08.67,0,1.33.17.75.17,2.75.33,5.16.33,2.55.06,3.66-.02,4.83-.27.29-.07.59-.14.92-.23,3-.92,7-3,9.74-5.08,3.37-2.57,6.33-4.16,9.47-4.98,1.85-.52,3.77-.77,5.86-.77,5-.08,8.25,1.17,11.08,4.08.28.28.52.55.75.78v-8.95l.33.26v-.51l1.82,1.41,1.76-1.41v.02l.33-.27v9.16c.5-1.06,2-2.38,3.66-3.25.08-.04.17-.08.25-.12.03-.02.06-.03.08-.05,3.66-1.92,9.99-2,15.16-.17,2.17.83,4.58,2.17,6.83,4,2.33,1.75,7,4.16,9.74,5s7.75,1,10.24.42c1-.25,2-.42,2.17-.42.92,0-.67,3.25-2.5,5.08-.01.01-.02.02-.03.03-.02.02-.03.04-.05.05-3.41,3.41-7.83,3.41-14.08-.08-3.54-1.96-7.69-3.09-8.45-2.43-.03.05-.05.11-.05.18,0,.25.25.42.58.42,1.33,0,3.91.92,7.58,2.67,4,1.92,6.16,2.75,7.5,2.75.92,0,1,.58.08,1.92-.09.12-.18.23-.28.35-.94,1.24-2.45,1.9-4.63,1.82-2.17,0-3.33-.5-5.25-2.17-2.97-2.51-9.87-5.28-10.8-4.48-.03.07-.05.14-.03.23,0,.33.42.5,1.25.67,2.75.42,6.08,2,9.41,4.58,1.08.83,2.17,1.58,2.42,1.75.42.33.42.42.08,1.08-.15.31-.38.6-.65.86-.74.78-1.91,1.34-3.18,1.47-2.17.25-4-.42-5.91-2.08-4.08-3.5-7.83-6-9.08-6-.19,0-.31.03-.4.07-.1.23.5.7,1.73,1.35,2.25,1.25,4.66,2.92,6.41,4.58.83.83,1.75,1.58,2.08,1.75.75.42.75,1-.08,2.08-.2.3-.46.54-.76.75-.81.61-1.9.88-3.24.75-3.5-.42-6.25-2.08-10.58-6.66-1.67-1.75-3.16-3.25-3.33-3.25-.05,0-.08.01-.11.02-.13.26.24.98,1.11,1.98,1.33,1.58,1.58,2.5,1.08,3.75-.14.32-.3.57-.49.76-.5.57-1.22.64-2.42.32-.78-.2-1.23-.23-1.37-.03-.09.23.11.65.62,1.28,1.58,2,1.33,4.5-.58,6.16,0,0,0,0-.01,0-.03.02-.04.05-.07.07-.58.5-1.25.92-1.42.92s-.58-.42-.92-1c-.93-1.43-1.77-1.79-2.62-1.08-.26.24-.53.57-.79,1-.42.67-.75,1.25-.75,1.25,0,0-.02-.01-.02-.02-.04.06-.06.1-.06.1,0,0-.58-.42-1.25-.92-1.33-1-1.83-2-1.83-3.91,0-1,.17-1.5.83-2.42.92-1.33.75-1.75-.58-1.33-2.17.67-3.16.08-3.25-1.83,0-.92.17-1.33,1.33-2.75.07-.09.14-.16.2-.24.55-.71.86-1.22.95-1.52.02-.11,0-.19-.07-.24-.14-.14-1.03.59-2.77,2.33-.25.26-.52.53-.81.83-.19.19-.38.39-.57.58-1.7,1.75-3.5,3.46-4.18,3.91-4,2.75-7.83,3.16-9.58,1.08-.8-.95-.84-1.51-.16-2.09.12-.11.25-.22.41-.33.1-.06.22-.14.35-.24.44-.35.94-.81,1.31-1.17.01-.02.04-.04.06-.05,0,0,.02-.02.03-.03.01-.01.03-.03.04-.04.96-.98,3.13-2.65,4.91-3.8.61-.41,1.18-.76,1.62-.99.51-.27.88-.51,1.1-.7.28-.29.18-.46-.35-.46-1.25,0-5.08,2.58-8.08,5.33-.83.83-2.08,1.75-2.75,2-1.5.67-4.33.92-5.66.5-.92-.33-2.58-1.92-2.58-2.5,0-.06.06-.13.14-.22.11-.18.39-.42.78-.62.5-.25,1.25-.83,1.83-1.33,2.42-2.17,6.83-4.33,10.41-5.08.35-.08.53-.2.59-.31,0-.21-.46-.4-1.25-.35-2.42.08-7.25,2.42-10.16,4.83-3.41,2.83-8.5,2.58-10.16-.5-.25-.5-.42-1.08-.33-1.08.01-.01.04-.03.08-.04,0-.01,0-.03,0-.04.08-.08,1.08-.33,2.25-.67,1.25-.33,3.75-1.42,6.08-2.58,3.66-1.92,4.75-2.33,7.33-2.75.41-.06.67-.17.79-.29.12-.21-.13-.44-.79-.54-1.42-.17-3.66.58-7.5,2.5-5,2.5-6.41,2.92-9.08,2.83-2.42-.17-3.75-.75-5.75-2.67-1.25-1.25-3.08-4.41-2.75-4.75Z"/>
      <path class="cls-5" d="m262.62,95.2v-1.27l-.08-.02-.5-.12v1h-2.58v-.08h-.08v-1.44l-.58-.15v2.08h3.83Z"/>
      <path class="cls-2" d="m173.9,208.27c-.13-.15-.26-.33-.39-.46-.06-.16-.08-.32-.08-.47-.07-.99.94-1.76,1.83-1.61.75.08,1.33.5,2,.83,1.83.83,3.83,1.5,5.83,1.75,2.75.25,5.58-.08,8.25-.83,1.25-.33,2.42-.92,3.66-1.17.82-.15,1.64.58,1.43,1.39-.01.12-.04.24-.1.36-.5,1.42-2.08,1.83-3.33,2.25-1.48.52-2.96.89-4.49,1.09-.2.03-.39.06-.59.08l18.32,3.91c0-.05,0-.11,0-.17.42-2.75,2.67-5,5.41-5.16,2.33-.17,3.83.67,7.33,4.08,1.83,1.83,3.83,3.5,5.75,5.08.1.08.2.15.3.23l.08.02,4.45.92c-.08-.05-.16-.11-.24-.17-5.73-3.89-10.81-8.74-14.84-14.57-1.81-2.5-3.38-5.17-4.72-7.94-1.29-2.59-2.44-5.28-3.44-8.05-3.41-10.58-4.08-22.07-2.08-32.98.33-1.41.66-2.81,1.08-4.22l-28.37-6.07-.13-.03s-.02.07-.06.07h-.42c-.67.08-1.25.5-1.42,1.17-.33-.5-.58-1.17-.75-1.75,0-.03,0-.06-.01-.09l-.82-.15c.17,1.24.75,2.4,1.58,3.32.25,1.25.83,2.42,1.5,3.58.58,1.08,1.42,2.08,1.83,3.25-.04-.03-.09-.07-.13-.1.01.04.03.07.04.1-1-.92-2.08-1.67-3.33-2.08-.25-1.33-.75-2.5-1.25-3.66-.92-1.75-1.83-3.58-3.41-4.83v-.17l-.75-.15s0,.04,0,.07v.73c.33.22.63.48.91.77.9.91,1.54,2.08,2.17,3.17.74,1.56,1.48,3.05,1.65,4.77.46.1.9.28,1.33.5,1.1.51,2.06,1.32,2.85,2.23.83.75,1,1.92,1.25,3,.25.82-.07.43-.4.02-.01-.01-.02-.02-.03-.03-.11-.1-.23-.19-.35-.29-.18-.15-.37-.3-.56-.44-1.58-1.16-3.41-1.98-5.07-3.09-.53-.42-1.26-.75-1.72-1.25-.31-.3-.53-.67-.53-1.17-.5-3.41-2.17-6.41-4.33-8.99,0-.15.06-.36.07-.52,0-.02,0-.05,0-.06l-.62-.12c-.04.26-.07.53-.13.79,2.25,2.58,3.91,5.75,4.41,9.16.58,2.5,3.58,3,5.41,4.41,1.83.91,3.32,2.41,4.32,4.15,1.13-1.07-.5-3.75-.66-5.32-.58-2.92-2.83-5-3.75-7.75-.55-1.17-.33-1.81.22-2.07.8-.74,3.03-.03,3.78,1.24,1.75,2.42,3.66,4.66,5.75,6.75,2.5,2.17,5.91,3.91,7,7.33.17,8.41.25,16.91.33,25.32,0,2.58.08,5.25.08,7.83-.12.58-.52,1.01-1.06,1.35-1.27.95-3.66,1.19-5.11,1.57-3.25.58-6.33-.92-9.16-2.33.08-3.25.08-6.5.08-9.74s0-6.33-.08-9.41c-.25-2.33.17-4.91-1-7.08-3.16-4.5-8.33-7.16-10.83-12.16-1.83-4.66-2.67-9.58-3.33-14.58l-112.45-24.13-39.9-8.56v62.5l164.01,34.99s-.07-.08-.11-.12Zm2.62-10.13c.21-.5.65-.88,1.23-.83.33.08.62.25.91.44.28.19.55.4.84.56,1.67.92,3.41,1.67,5.33,1.67,2.17,0,4.33-.58,6.33-1.58.58-.25,1.25-.83,1.92-.42.58.33.5,1.08.33,1.67-.42,1.17-1.58,1.75-2.58,2.17-1.58.75-3.25,1.17-4.91,1.17.05,0,.07,0,.06,0h.08-.08s-.01,0-.06,0h-.83c-2.67.08-5.33-.67-7.5-2.25-.5-.42-1.17-.92-1.25-1.67-.03-.31.04-.63.18-.92Zm-.18,3.25c.67.08,1.25.58,1.83.83,1.58.75,3.33,1.42,5.08,1.67,2.83.25,5.75-.25,8.41-1.33.75-.25,1.42-.75,2.17-.67.38.07.64.29.8.56.3.37.34,1,.12,1.44-.5,1.25-1.83,1.75-3,2.17-1.83.75-3.83,1.17-5.83,1.17h-.83c-2.25.08-4.58-.25-6.75-1.17-1.25-.58-2.58-1.25-3.41-2.42-.01-.03-.01-.06-.02-.09-.02-.03-.04-.05-.06-.08-.42-1,.5-2.17,1.5-2.08Z"/>
      <path class="cls-2" d="m342.16,181.82c-.08,5,0,9.91.08,14.83-2.83,1.42-5.91,2.92-9.16,2.33-1.58-.41-4.28-.66-5.42-1.84-.29-.27-.5-.6-.58-.99.08-5.8.17-11.69.25-17.49,0-.03,0-.06,0-.08l-10.65-2.25h0c-.42,3.75-1.08,7.49-2.08,11.08-1.33,4.66-3.33,9.08-5.66,13.24-6.75,11.66-17.16,21.07-29.98,25.24-3.58,1.17-7.33,2-10.99,2.5l6.23,1.31c9.8-2.75,19.36-8.24,27.17-15.72,2.58-2.5,3.83-3.16,6-3.16.03,0,.06,0,.08,0,.03,0,.05,0,.08,0,1.83,0,3.16.58,4.5,2.08,1.25,1.42,1.58,2.67,1.5,4.75-.08,1.33-.33,2-1.08,3.33-.69,1.13-.87,1.64-.45,1.69.32-.03.84-.21,1.62-.52,1.17-.48,2.44-.68,3.68-.65,2.07.02,4.07.71,5.4,1.98,1.83,1.75,2,3.5.58,5.83-.5.83-.92,1.67-.92,1.83,0,.25.42.33,2.25.67,2.42.42,3.83,2.25,3.83,5.08,0,.83-.08,1.58-.25,1.58-.02,0-.12-.03-.25-.07-.02.04-.05.07-.08.07-.17,0-1.08-.33-2.08-.75-2.79-1.23-4.37-1.49-7.59-1.5-2.36,0-3.28.18-4.98.75-.58.17-1.17.42-1.75.67l198.57,42.31v-62.43l-167.84-35.75s0,.04,0,.07Zm4.38,25.55c0,.17,0,.34-.05.52-.75,1.08-2,1.67-3.16,2.17-2.75,1.08-5.66,1.58-8.58,1.5h-.92c-2.33,0-4.66-.42-6.91-1.25-1.25-.42-2.83-.83-3.33-2.25-.07-.15-.09-.3-.1-.44-.21-.82.61-1.54,1.43-1.39,1.25.25,2.42.83,3.66,1.17,2.67.75,5.5,1.08,8.25.83,2-.25,4-.92,5.83-1.75.67-.33,1.25-.75,2-.83.96,0,1.92.79,1.89,1.73Zm-1.47-3.9c-.25.33-.5.67-.83.92-.57.51-1.24.87-1.93,1.2-.27.13-.55.26-.82.39-2.17.92-4.5,1.25-6.75,1.17h-.83c-2,0-4-.42-5.83-1.17-1.17-.42-2.5-.92-3-2.17-.25-.42-.17-1,.08-1.33.19-.19.33-.32.48-.41.14-.11.31-.18.52-.18.75-.08,1.42.42,2.17.67,2.58,1.08,5.5,1.58,8.33,1.33.5,0,.92-.17,1.42-.25,1.2-.32,2.41-.8,3.54-1.36.44-.25.87-.54,1.35-.7.2-.09.4-.17.61-.19,1-.08,1.92,1.08,1.5,2.08Zm-1.58-4.5c-.07.6-.5,1.03-.93,1.4-.13.12-.27.24-.4.35-2.17,1.58-4.83,2.33-7.5,2.25h-.75c-1.67,0-3.33-.42-4.91-1.17-1-.42-2.17-1-2.58-2.17-.08-.54-.15-1.28.3-1.59.06-.06.12-.11.2-.16.58-.33,1.25.17,1.83.42,2,1,4.16,1.58,6.33,1.58,1.92,0,3.66-.75,5.33-1.67.58-.33,1.08-.83,1.75-1,.83-.08,1.5.92,1.33,1.75Z"/>
      <path class="cls-2" d="m211.49,167c1.58,9.08,5.75,17.49,11.66,24.4,7.58,8.91,18.07,15.24,29.65,16.91,2.96.88,5.96,1.09,8.96.89,5.08-.38,10.14-1.95,14.95-3.55,4.66-1.67,8.91-4.08,12.83-7.08,7.91-6.16,13.99-14.83,16.99-24.49,0-.01,0-.02,0-.03l-39.82-8.46h0c.17,1.67,0,3.33-.42,4.91-.33,1.42-1.5,2.33-2.75,2.92,0,0,0,0,0,0-.33-.25-.5-.75-.67-1.08-.29-.54-.62-1.08-1.01-1.58-.39-.5-.82-.96-1.32-1.33-.37,0-.69.18-.98.43-.15.13-.28.29-.41.45-.11.13-.21.26-.31.39-.1.13-.2.26-.3.38-.08.1-.16.19-.25.27-.5.92-1,2.33-2.17,1.17-1.83-1.08-2.17-3.41-2.08-5.41-.02-.35-.02-.71,0-1.06.03-.71.14-1.41.27-2.09.07-.34.15-.68.23-1.01l-43.96-9.39-.1-.02c-.33,4.5,0,9.08,1,13.49Zm59.72,36.56c-2,2.33-4.66,4.08-7.66,4.58-1.75.33-3.58.42-5.41.25-1.03-.09-2.04-.32-3.02-.65s-1.92-.78-2.8-1.33c-.59-.36-1.16-.77-1.69-1.21-.54-.44-1.04-.92-1.51-1.44-1.41-1.54-2.51-3.37-3.13-5.37.03-.34.21-.36.46-.24.24.12.55.37.82.57.18.13.35.23.47.26.5.29,1.02.54,1.56.73.54.19,1.1.31,1.69.35,0,0,0,0,0,0,1.5.58,2.33,2.08,3.75,2.83.62.47,2.62,1.37,2.55.2,0-.08-.02-.18-.05-.28-.31-.52-.59-1.14-.64-1.77-.03-.38.03-.77.22-1.14.75-1.67,1.83-3.08,3-4.5q.08-.08.17-.17c.33-.17.58,0,.83.25,0,0,0,0,0,0,0,0,0,0,0,0,.1.11.21.24.31.4.05.07.09.14.14.21.26.41.53.87.79,1.13,0,0,0,0,0,0,0,0,0,0,0,0,.92,1.42,1.91,3.08,1.41,4.74h0c-.06.08-.11.17-.16.27-.01.02-.02.05-.03.07-.03.08-.07.16-.09.24-.02.06-.04.12-.06.18-.02.06-.03.13-.05.19-.01.05-.02.1-.03.15-.01.11-.02.21-.02.31,0,0,0,0,0,.01.02.47.27.78.94.49,1.25-.56,2.31-1.41,3.33-2.28.34-.29.67-.59,1-.88,1.17-.83,2.75-.92,4-1.67.51-.15,1.47-1.06,1.87-.84.06.03.1.09.13.17-.67,1.92-1.83,3.58-3.08,5.16Zm-16.49-30.48c1.25.08,2,2.25,3.16,1.75.5-1.17.58-2.5,1.5-3.41.64-.93,1.32-.28,1.78.48.22.34.41.73.52,1.03.06.08.11.17.15.27.31.6.18,1.57.41,2.13.1.14.24.25.47.25,1.33-.92,2.25-2.5,3.91-2.83.47-.29,1.18-.21,1.24.16.15.16.14.41-.24.76-1.25,1.17-2.25,2.67-2.5,4.41-.42,2.17.17,4.41,1.08,6.41,1.67,3.66,3,7.75,2.42,11.83-.08.25-.08.58-.17.83-.42,1.92-1.67,3.66-3.25,4.75-.17.08-.5.08-.58-.17,0-.02,0-.03,0-.05-.04-.03-.07-.07-.09-.12.08-1.14-.16-2.2-.64-3.26-.49-.89-1.05-1.77-1.61-2.66-.5-.75-1-1.42-1.58-2.17-.92-.5-1.58,1-2.17,1.83-.08.08-.25.25-.33.33-1.17,1.75-2.58,3.58-2.67,5.83-.67,1-1.92-.92-2.42-1.5-.28-.4-.54-.82-.77-1.27-.63-1.18-1.05-2.51-.98-3.89v-.5c0-2.58.58-5.33,1.58-7.91.75-2.33,2.08-4.58,1.92-7.16.05-1.15-.06-2.36-.49-3.43-.29-.66-.7-1.26-1.26-1.73-.32-.25-.45-.45-.47-.61-.38-.77,1.41-.89,2.05-.39Z"/>
      <path class="cls-4" d="m341.75,202.23s-.09.04-.13.06c-1.13.56-2.33,1.03-3.54,1.36-.5.08-.92.25-1.42.25-2.83.25-5.75-.25-8.33-1.33-.75-.25-1.42-.75-2.17-.67-.21,0-.38.07-.52.18-.09.07-.17.14-.23.24-.25.33-.25.92-.08,1.33.42,1.42,1.75,1.83,2.92,2.25,1.83.75,3.83,1.17,5.83,1.17h.83c2.33.08,4.58-.33,6.75-1.17.22-.1.44-.2.66-.3.69-.33,1.36-.69,1.93-1.2.33-.25.58-.58.83-.92.42-1-.5-2.17-1.5-2.08-.21.03-.42.1-.61.19-.42.19-.82.47-1.22.64Z"/>
      <path class="cls-4" d="m244.58,216.24c.29-.01.56-.15.64-.43.17-.25.08-.58-.17-.83-.17-.17-.25-.25-.42-.25s-.25.08-.5.25c-.33.25-.42.5-.33.83.16.28.47.42.77.43Z"/>
      <path class="cls-4" d="m219.65,223.3c-.58,0-.92.58-.67,1.25.25.5.92.5,1.08-.08.33-.75.17-1.17-.42-1.17Z"/>
      <path class="cls-4" d="m188,211.3c1.75-.17,3.41-.58,5.08-1.17,1.17-.42,2.75-.83,3.25-2.17.05-.09.08-.18.1-.27.21-.81-.61-1.54-1.43-1.39-1.25.25-2.42.83-3.66,1.17-2.67.75-5.5,1.08-8.25.83-2-.25-4-.92-5.83-1.75-.67-.33-1.25-.75-2-.83-.89-.15-1.9.62-1.83,1.61,0,.13.03.26.08.39.16.24.32.4.48.56,0,0,.01.02.02.02.75.75,1.75,1.17,2.67,1.58,2.67,1.08,5.66,1.58,8.58,1.5h.92c.58,0,1.25,0,1.83-.08Z"/>
      <path class="cls-4" d="m193.99,202.14c-.75,0-1.5.5-2.17.67-2.75,1-5.66,1.5-8.5,1.25-1.75-.25-3.5-.92-5.08-1.67-.58-.33-1.17-.75-1.83-.83-.97-.16-1.85,1.01-1.52,2,0,.03,0,.06.02.09.83,1.17,2.17,1.83,3.41,2.42,2.17.92,4.5,1.25,6.75,1.17h.83c2,0,4-.42,5.83-1.17,1.17-.42,2.5-.92,3-2.17.22-.45.18-1.07-.12-1.44-.15-.18-.35-.31-.63-.31Z"/>
      <path class="cls-4" d="m275.37,222.22c.1.41.58.78,1,.8.24,0,.46-.14.58-.47.25-.74-.16-1.72-.97-1.66-.79-.04-1.02.76-.61,1.33Z"/>
      <path class="cls-4" d="m259.46,171.58c-1,.92-1.08,2.25-1.5,3.41-1.17.5-1.92-1.67-3.16-1.75-.59-.46-2.21-.4-2.14.22.02.16.16.37.47.61.56.47.97,1.07,1.26,1.73.48,1.11.62,2.4.57,3.6.17,2.58-1.17,4.83-1.92,7.16-1.08,2.42-1.67,5.16-1.58,7.91v.5c-.06,1.32.31,2.59.9,3.73.23.45.49.87.77,1.27.5.58,1.75,2.5,2.42,1.5.08-2.25,1.5-4.08,2.67-5.83.08-.08.25-.25.33-.33.58-.83,1.25-2.33,2.17-1.83.58.75,1.08,1.42,1.58,2.17.56.89,1.12,1.77,1.61,2.66.02.03.04.06.05.09.58.99.82,2.13.67,3.28,0,.02,0,.03,0,.05.08.25.42.25.58.17,1.58-1.08,2.83-2.83,3.25-4.75.08-.25.08-.58.17-.83.58-4.08-.75-8.16-2.42-11.83-.92-2-1.5-4.25-1.08-6.41.25-1.75,1.25-3.25,2.5-4.41.38-.35.39-.6.24-.76-.22-.22-.76-.24-1.15,0-1.67.33-2.58,1.92-3.91,2.83-.29-.02-.45-.18-.55-.41-.24-.56-.1-1.54-.41-2.13-.04-.07-.07-.15-.12-.2,0-.02-.02-.05-.03-.07-.12-.31-.3-.69-.52-1.03-.46-.7-1.1-1.19-1.7-.32Z"/>
      <path class="cls-4" d="m293.4,204.56s-.06,0-.09,0c-.37.02-.61.23-.7.49-.06.29.08.63.49.84.16.14.3.22.44.27,1.09.28,1.4-1.64-.15-1.61Z"/>
      <path class="cls-4" d="m224.14,206.31c-.58.17-.58.92.08.67.5.08,1.75-.58,1-1.08-.42,0-.75.25-1.08.42Z"/>
      <path class="cls-4" d="m269.54,95.37c.14-.07.27-.15.4-.23.5-.31.94-.71,1.27-1.1-.92-.67-2.08-1.08-3.33-1.33-1.67-.33-3.5-.33-5.25-.42v2.92h-3.91v-2.92c-1,0-2,0-3,.08-.09,0-.17.02-.26.03-.02,0-.04,0-.06,0-.73.07-1.45.15-2.1.3-1.17.25-2.25.67-3.16,1.33,0,0,0,.02,0,.03.16,3.15,13.51,4.63,19.4,1.3Z"/>
      <path class="cls-4" d="m222.9,207.56c-.75.25-.08,1.17.5.67.83-.25-.08-.67-.5-.67Z"/>
      <path class="cls-4" d="m272.28,199.06c-1.25.75-2.75.83-4,1.67-.33.29-.67.59-1,.88-1.02.88-2.08,1.72-3.33,2.28-.68.34-.92,0-.94-.49,0,0,0,0,0-.01,0-.1,0-.2.02-.31,0-.05.02-.1.03-.15.01-.06.03-.13.05-.19.02-.06.04-.12.06-.18.03-.08.06-.16.09-.24.01-.02.02-.05.03-.07.05-.1.1-.2.16-.27h0c.5-1.67-.5-3.33-1.41-4.74,0,0,0,0,0,0,0,0,0,0,0,0-.26-.26-.53-.72-.79-1.13-.05-.07-.09-.14-.14-.21-.1-.15-.21-.29-.31-.4,0,0,0,0,0,0,0,0,0,0,0,0-.25-.25-.5-.42-.83-.25l-.17.17c-1.17,1.42-2.25,2.83-3,4.5-.19.37-.25.76-.22,1.14.04.63.32,1.25.64,1.77.03.1.04.2.05.28.1,1.26-1.92.27-2.55-.2-1.42-.75-2.25-2.25-3.75-2.83,0,0,0,0,0,0-.58-.04-1.15-.17-1.69-.35-.54-.19-1.06-.44-1.56-.73-.12-.02-.29-.12-.47-.26-.27-.2-.57-.45-.82-.57s-.43-.1-.46.24c.62,2,1.72,3.83,3.13,5.37.47.51.98.99,1.51,1.44.54.44,1.1.85,1.69,1.21.89.54,1.83.99,2.8,1.33s1.99.56,3.02.65c1.83.08,3.66,0,5.41-.33,3-.5,5.66-2.25,7.66-4.58,1.25-1.58,2.33-3.25,3.08-5.08-.03-.08-.08-.14-.13-.17-.4-.22-1.36.69-1.87.84Z"/>
      <path class="cls-4" d="m229.64,220.22c7.41,4.75,15.99,7.75,24.74,8.58,4.5.25,8.99.08,13.41-.5,3.75-.5,7.41-1.33,10.99-2.5,12.74-4.08,23.24-13.49,29.98-25.24,2.42-4.16,4.33-8.66,5.66-13.24,1-3.58,1.75-7.33,2.08-11.08,1.17-10.58-.25-21.57-5.08-31.07-1.66-3.11-4.26-7.53-6.55-9.57-.35-.31-.69-.57-1.02-.76,4.41,9.08,5.91,19.49,4.58,29.57-.25,3.32-.91,6.56-1.91,9.63,0,.01,0,.02,0,.03-3,9.66-9.08,18.32-16.99,24.49-3.91,3-8.16,5.41-12.83,7.08-4.81,1.6-9.87,3.17-14.95,3.55-3.11.24-6.22.03-9.29-.89-11.58-1.75-21.99-8-29.65-16.91-5.91-6.91-10.08-15.32-11.66-24.4-1-4.41-1.33-8.99-1-13.49.39-5.59,1.8-11.18,4.02-16.37.16-.37.31-.75.48-1.12-4.5,4.41-7.5,10.33-9.33,16.41,0,0,0,.02,0,.03-.41,1.41-.74,2.81-1.08,4.22-2,10.91-1.33,22.4,2.08,32.98,1,2.77,2.15,5.46,3.44,8.05,1.39,2.78,2.95,5.44,4.72,7.94,4.08,5.91,9.24,10.83,15.16,14.58Zm-.89-4.9c-.07-.03-.14-.08-.2-.18-.25-.33.08-.83.5-.83.1,0,.18.03.24.08.11.02.18.21.18.42-.07.5-.49.67-.72.51Zm53.86,1.99c.08,1.58-.92,3.16-2.42,3.58-.58.33-1.67.08-1.92.92-.25.75-.33,1.75-1.08,2.08-.75.33-1.58.58-2.33.25-.58-.58-.5-1.5-.67-2.33h-2.25c-.25,0-.58.08-.67-.08,0-.42-.02-.86-.01-1.29,0-.46.04-.93.18-1.37.67-.42.67,1.17,1.33,1.08,1.17.08,2-.92,3.08-1,1.25,0,2.42.33,3.66.42.75.25,1.25-.5,1.5-1.17.12-.42.17-.84.19-1.27,0-1.29-.4-2.6-.77-3.81-.5-1.42-.92-2.92-1.92-4.08-.13-.13-.3-.3-.23-.45-.04-.11-.03-.21.14-.3.42-.5.67-1.17,1.25-1.42.08,0,.17.08.25.17.42,1,.67,2,1,3,.67,2.25,1.58,4.5,1.67,6.91,0,.04,0,.08,0,.12,0,.02,0,.03,0,.05Zm4.33-12.83c-.02.06-.05.12-.09.18-.12.18-.3.34-.49.4-.5.17-.92-.67-.5-1.08.42-.42,1.17-.08,1.08.5Zm17.07-4.41c-.25.25-.5.42-.83.58-.92.5-2.33,1.17-2,2.5.42,1.17-.58,2.58-1.75,2.58s-2.67-.25-3.33,1c-.42,1.67.08,3.5-.58,5.08-.41.93-.95,1.83-1.61,2.63-.81,1.02-1.81,1.85-2.97,2.36-.5.29-.73.17-.75-.08-.02-.19.09-.45.28-.65.06-.07.14-.13.22-.18,1.58-1.42,3.16-2.92,3.83-5.08.17-1,1-2.33.33-3.33-.94-.31-1.87-.39-2.85-.48-.32-.03-.65-.06-.99-.1,0,.54.06,1.1.1,1.67s.06,1.12-.02,1.67c-.07.19-.16.37-.25.55-.65,1.26-1.78,2.31-3.17,2.53-.27.06-.55.08-.84.07-.14,0-.29-.02-.43-.03-.57-.06-1.15-.17-1.68-.16-.13,0-.26.01-.39.03-.04.15-.07.29-.09.44-.04.3-.05.61-.05.92s0,.62,0,.94c0,.16-.02.31-.03.46-.04.31-.1.61-.23.9h0s0,0,0,0c-.33-.12-.42-.56-.45-1.06-.02-.25-.02-.52-.03-.77-.01-.25-.04-.48-.1-.67-.31-1.37-.67-2.75-1.29-3.98-.21-.41-.44-.81-.71-1.18-.03-.09-.05-.2-.05-.31-.03-.79.56-1.95,1.22-2.02.02.03.04.06.06.09,0,0,.02,0,.03,0,.67.83.42,2.17,1,3.08.04.05.07.09.1.13.58.51.69-1.17,1.14-1.55.16.01.27.09.36.19.5.35.28,1.57.74,2.2.07.07.14.15.23.19,1.08,1.08,2.92.25,3.41-1.08.58-1.08,0-2.25-.58-3.16-.67-.75-1.17-2.58.25-2.83.26.07.45.21.61.38.44.4.63,1.07.9,1.57.24-.91.42-1.96,1.15-2.62.92-1,2.42-.33,3.25.5,0,0,.01.02.02.02.02.02.05.04.07.06.09.15.18.27.28.36.77.66,1.43-.58,1.72-1.44.67-1.58,1.83-3,3.58-3.25.08,0,.25-.08.33-.08,1.17-.25,2.58-.67,3-1.83-.17-1-1.08-2.42.08-3.08.27.02.46.14.6.32.47.45.48,1.45.48,2.1.08,1.17-.5,2.25-1.33,2.92Zm-3.33-8.58c-.42.17-.75.5-.75.58h0c0,.5.5.5,1.17,0,0,0,0,0,0,0,0,0,0,0,0,0,.67-.5,1.49-.58,1.49,0,0,.12-.19.44-.42.8-.08.12-.16.24-.24.37-.33.5-.67,1.17-.67,1.5s-.17.75-.33.92c-.66.66-1,.25-.83-.74,0,0,0,0,0,0,0,0,0,0,0,0,.08-.58,0-.83-.67-1.25-.04-.02-.07-.04-.1-.06-.11-.06-.2-.12-.28-.18-.08-.06-.15-.12-.2-.18-.2-.24-.21-.54-.16-1.16.04-.75.34-1.34.76-1.68.41-.37.94-.49,1.49-.24,0,0,0,0,0,0h0c.42.17.6.38.56.61-.02.23-.29.46-.81.72Zm10.66.58c-.58.42-1.08,1-1.08,1.17s-.5.83-1.08,1.33c-.58.58-1.17,1-1.25,1-.01,0-.04-.02-.06-.03-.09.07-.16.11-.19.11-.08,0-.58-.5-1.17-1.17-1.83-2.25-3.58-4.08-4.33-4.41-.58-.33-.75-.58-.75-1.33.07-.57.2-.82.4-.89.05-.07.11-.11.19-.11.5,0,4.16,3.91,4.75,5.16.25.58.58,1.08.67,1.08.17,0,.5-.25.92-.58.11-.08.19-.17.28-.25.66-.77.37-1.7-.86-3.08-.83-1-1.17-1.58-1.17-2.17,0-.42.12-.71.26-.79.05-.07.1-.12.16-.12.17,0,1,.75,1.92,1.75,1.42,1.56,2.05,2.02,2.51,1.57.05-.07.11-.14.15-.23.5-.92-.42-2.58-2.33-4.33-1.67-1.5-2.25-1.92-3.33-2.33-.53-.15-.64-1.95-.22-2.27.06-.09.13-.15.22-.15.17,0,1.67,1.17,3.25,2.67,2.08,1.92,3,3.08,3.33,3.83.75,2,.42,3.33-1.17,4.58Zm1.17-7.83c.02.08.04.17.05.25s.02.15.02.22c0,.14-.02.24-.06.28-.03.03-.19-.07-.44-.26-.33-.26-.82-.7-1.38-1.23-.14-.13-.28-.27-.43-.42-1.17-1.17-2.42-2.17-2.83-2.33-.04,0-.07-.02-.1-.03-.19-.05-.33-.11-.43-.2-.2-.18-.25-.48-.3-1.1,0-.74.08-1.08.33-1.08,0,0,0,0,0,0,0,0,.02,0,.02,0,.58.1,5.39,5.16,5.56,5.9Zm-62.8,27.65c.33,0,.5.08.5.5,0,.02,0,.03,0,.04,0,.02,0,.03,0,.04,0,.42-.17.58-.58.58-.34-.04-.5-.3-.49-.55,0-.25.19-.53.57-.62Zm-5.66,1.58c.42-.33.83-.42,1.17-.42.65,0,1.14.41,1.33,1.14.11.26.17.58.17.94,0,.41.04.73.11,1,.33.77,1.13.81,2.81.34.92-.25,1.25-.25,1.5,0,.13.13.19.24.18.38.13.19.1.38-.1.79-.14.22-.2.37-.19.51.06.1.15.2.27.33.42.5.67.58,3.08.42,2.17-.17,2.58-.08,2.58.25,0,.03,0,.05,0,.07.05.05.08.11.08.18,0,.06,0,.12.02.17.21.29.77.16,1.9-.34l1.42-.58.67.58c.42.42.67.5.83.33.25-.42,1.67-.33,2.58.17.58.33,1.17.42,1.83.25,1.08-.17,3.5-1.33,3.75-1.75,0-.02,0-.04,0-.06-.1-.16-.27-.34-.5-.52-.58-.5-.92-.58-2.08-.42-1.2.16-1.4.09-1.41-.29-.06-.07-.09-.16-.09-.3,0-.67,1-1.33,2-1.33.5,0,1.42.25,2.17.5.67.25,2,.58,2.83.67.56.07.92.17,1.14.27.35.05.41.16.18.31-.12.19-.63.4-1.58.59-.71.14-1.36.35-1.59.51-.11.32-.38.67-.75,1.03-1.06,1.05-3.07,2.11-4.66,2.3-.75.08-1.67-.08-2.5-.33-1.25-.42-1.75-.42-4.41-.17-2.83.25-3.08.25-3.41-.25-.25-.33-.67-.5-1.5-.5-.58,0-1.92-.08-2.92-.17q-1.75-.17-1.75-.92,0-.92-1.92-1.17l-1.49-.17-1.26,1.41c-.21.23-.43.45-.65.65-.7.65-1.45,1.19-2.1,1.51-1.33.58-3.25.83-5.08.67-.5-.08-1-.17-1.42-.25-.5-.08-.83-.25-1.17-.33-1.17-.42-1.75-.83-1.92-1.58-.13-.48-.12-.74.05-.84.12-.19.44-.15,1.03.09,4.08,1.75,6.25,1.92,8.66.67.58-.29.99-.56,1.24-.81.38-.43.25-.8-.41-1.11-.29-.22-.48-.48-.61-.75-.02-.04-.04-.07-.06-.11-.42-1.06.25-2.4,1.91-3.56Zm-3.31-5.22c.29-.03.56.1.56.39,0,.25-.25.42-.58.5-.13.02-.24.03-.32.03-.24,0-.34-.12-.34-.44.09-.31.4-.47.69-.48Zm-6.18-3.94c.58,0,1.08.08,1.08.25,0,.03-.03.09-.09.17,0,.18-.67,1.08-1.58,1.99-1.97,2.11-3.56,4.08-4.02,4.9-.03.07-.06.14-.06.18,0,.58,1.25,1.33,1.92,1.08.2-.04.36-.14.49-.3.08-.14.15-.31.18-.53.04-.14.08-.26.13-.37.11-.43.35-.65.78-.8.92-.25,1.33.08,1.08.83-.17.83,0,.83,1.08-.17,1.24-1.11,1.7-1.08,1.21-.1-.13.29-.36.68-.71,1.19-.05.07-.08.13-.13.19-.4.69-.53,1.13-.46,1.56.33,1.5,3.33,2.08,4.58.83.2-.2.34-.39.44-.61.1-.29.14-.64.14-1.14,0-.65.08-1.17.23-1.56.16-.61.47-.94.94-.94.5,0,.5.17.33,2-.09,1.41-.13,2.02-.38,2.44-.19.46-.54.66-1.28,1.14-1.5,1-3.41,1.08-4.91.25-1.17-.67-1.5-1.25-1.5-2.83v-1.25l-1,.67c-1.25.83-2.75.92-4,.17-1.03-.6-1.24-1.13-.44-2.38.4-.69,1.14-1.62,2.28-2.95,1.1-1.22,2.02-2.4,2.43-3.07.05-.09.08-.17.07-.18,0-.17.06-.27.16-.35-.07-.24.11-.32,1-.32Zm-21.9-5.66c-.6-.35-1.14-.77-1.63-1.24-2.04-1.91-3.12-4.72-2.45-7.09,0-.17.08-.25.08-.42.75-2.42,2.5-3.75,4.58-3.41.58.1.93.21,1.07.31.35.19.05.41-.9.52-1.75.25-2.67,1.17-3,2.83-.08.42-.08.83-.08,1.33-.08,2.39.57,3.88,2.03,5.36,2.05,1.96,2.79,1.54,2.21-1.03-.5-2.25-.25-2.67,1.58-2.67,1.08,0,1.92.17,2.83.67.96.43,2.06,1.37,2.72,2.21.42.5.69.97.69,1.29,0,.58-1.67,2.17-2.25,2.17-.22,0-.37-.08-.46-.2-.33-.25-.21-.86.38-1.39q.67-.67.25-1.5c-.34-.67-1.5-1.45-2.51-1.84-.45-.16-.87-.23-1.15-.16-.75.17-.75.42-.33,2.33q.33,1.42-.42,2.08c-1,.83-1.58.83-3.25-.17Zm7.5,12.33c-.04-.22-.06-.44-.05-.67,0-.66.21-1.35.46-1.99.08-.17.13-.36.15-.57.02-.58-.24-1.18-.9-1.18-.83.25-1.08-.5-1.08-1.25-.25-.83-1.17-1-1.83-1.42-.75-.42-1.67-1-1.58-1.92,0,0,0-.01,0-.02,0-.02,0-.04,0-.07,0-.75,1-1.42,1.58-.92.33.67.17,1.75,1,2.17.67.42,1.58.75,2.33.5.28-.12.52-.28.75-.44.7-.6,1.25-1.41,1.75-2.23.16-.29.35-.57.56-.79.31-.38.74-.65,1.27-.55.25,0,.5,0,.75.08.18.14.23.26.2.38.04.35-.67.63-.87.95-1.08,1.17-2.17,2.33-3.16,3.58-.3.25-.61.81-.6,1.21.03.24.2.4.6.37,1.5-.08,2.67-1.42,4.16-1.58.58,0,1.5.08,1.75.67,0,.01-.02.03-.03.04,0,.01.02.03.03.04-.33.67-.92,1.17-1.42,1.67-.14.27-.89.55-.96.82,0,.03.02.06.05.09.92.17,1.92.33,2.75,0,1.17-.92,2.17-2.08,3.08-3.25.58-.58.83-1.5,1.58-1.83.59-.32.96.25.94.77.01.32-.12.64-.44.73-1.17,1-2.08,2.25-3.08,3.41-.75.83-1.75,1.58-2.92,1.58-1.67.08-3.25-.17-4.91-.25-.25.33-.42.58-.67.92-.33.25-.75,1.33-1.25.92Z"/>
      <path class="cls-4" d="m254.31,163.93c-.14.68-.24,1.38-.27,2.09-.02.35-.02.71,0,1.06h0c0,1.92.33,4.33,2.08,5.41,1.17,1.17,1.67-.33,2.17-1.17.08-.08.17-.18.25-.27.1-.12.2-.25.3-.38.1-.13.21-.26.31-.39.13-.16.27-.31.41-.45.28-.25.6-.43.98-.43.5.37.94.83,1.32,1.33.39.5.72,1.04,1.01,1.58.17.33.33.75.67,1.08,0,0,0,0,0,0,1.25-.58,2.42-1.5,2.75-2.92.42-1.58.58-3.25.42-4.91h0c0-.26-.02-.52-.05-.77-.02-.17-.04-.34-.06-.51-.05-.32-.1-.64-.13-.96-.33-2.08-1.33-4-1.92-6-.33-1.26-.37-2.6-.14-3.88.24-1.35.78-2.63,1.64-3.7.32-.71,1.59-1.5,1.44-2.36,0-.05,0-.09-.02-.14-1-.5-2.25-.42-3.16.17-.92.5-1.42,1.58-2.42,2-.12-.07-.21-.16-.29-.26-.45-.61-.14-1.72-.45-2.54-.05-.14-.13-.27-.23-.39-.01-.02-.02-.04-.03-.05-.01-.04-.03-.07-.05-.11-.53-1.22-1.78.05-1.78,1.02-.33.67,0,2.17-.75,2.42-1-.92-1.83-2.08-3.16-2.5-.58-.08-2.25-.5-2.33.17.03.04.07.09.1.13.44.58.93,1.14,1.4,1.71.84,1.03,1.63,2.1,2,3.4.42,1.83.58,3.91-.08,5.66-.58,1.58-1.25,3.16-1.67,4.83-.08.33-.16.67-.23,1.01Z"/>
      <path class="cls-4" d="m176.42,199.06c.17.75.75,1.25,1.25,1.67,2.17,1.58,4.83,2.33,7.5,2.25h.75c1.67,0,3.33-.42,4.91-1.17,1-.42,2.17-1,2.58-2.17.17-.58.25-1.33-.33-1.67-.67-.42-1.33.17-1.92.42-1.92,1-4.16,1.58-6.33,1.58-1.92.08-3.66-.75-5.33-1.67-.29-.17-.56-.37-.84-.56-.28-.19-.57-.35-.91-.44-.58-.05-1.02.33-1.23.83-.12.29-.16.62-.1.92Z"/>
      <path class="cls-4" d="m175.59,140.26c-.25-.67-.58-1.42-1.17-1.83-.06-.06-.18-.12-.31-.14-.04,0-.07-.02-.11-.02-.42.08-.75.5-1,.92-.08.33.33.75.42,1.17.58,1.42.83,2.92.67,4.33,0,.38,0,.76.07,1.08,0,.03,0,.06.01.09.17.58.42,1.25.75,1.75.17-.67.75-1.08,1.42-1.17h.42s.06-.03.06-.07c0-.04-.02-.1-.06-.18-.17-2-.5-4-1.17-5.91Z"/>
      <path class="cls-4" d="m344.66,205.81c-.75.08-1.33.5-2,.83-1.92.83-3.83,1.5-5.83,1.75-2.75.25-5.58-.08-8.25-.83-1.25-.33-2.42-.92-3.66-1.17-.77-.14-1.47.48-1.43,1.23,0,.14.03.29.1.44.5,1.42,2.08,1.83,3.33,2.25,2.25.83,4.58,1.25,6.91,1.25h.92c2.92.08,5.83-.42,8.58-1.5,1.17-.5,2.42-1.08,3.16-2.17.05-.18.06-.35.05-.52-.04-.99-.96-1.71-1.89-1.57Z"/>
      <path class="cls-4" d="m166.84,136.85c-.7.1-.98.72-.96,1.38.01.43.15.88.38,1.21.37,1.12.56,2.39.56,3.65,0,.42-.02.84-.06,1.26,0,.25-.08.42-.08.58,2.17,2.58,3.83,5.66,4.33,8.99,0,.45.18.8.44,1.08.46.5,1.19.83,1.72,1.25,1.66,1.11,3.49,1.93,5.07,3.09.19.14.38.29.56.44.12.1.23.19.35.29,0,0,.01,0,.02.01,0,0,.01.01.02.02.33.41.65.8.4-.02-.25-1.08-.42-2.25-1.25-3-.78-.91-1.75-1.72-2.85-2.23-.42-.19-.86-.35-1.32-.44,0-.02,0-.04-.01-.06-.18-1.72-.91-3.2-1.65-4.77-.64-1.08-1.28-2.26-2.17-3.17-.28-.28-.57-.53-.91-.75v-.75s0-.04,0-.07c0-2.31-.09-4.62-1.08-6.68-.33-.58-.75-1.33-1.5-1.33Z"/>
      <path class="cls-4" d="m311.1,237.62c.58-.25,1.17-.5,1.75-.67,1.75-.58,2.67-.75,5.16-.75.05,0,.1,0,.15,0,3.22,0,4.81.27,7.59,1.5,1,.42,1.92.75,2.08.75.03,0,.06-.03.08-.07.11-.19.17-.76.17-1.51.17-2.75-1.17-4.66-3.66-5.08-1.83-.33-2.25-.42-2.25-.67,0-.17.42-.92.92-1.83,1.42-2.33,1.25-4.08-.58-5.83-1.29-1.24-3.22-1.93-5.23-1.98-1.24-.03-2.51.17-3.68.65-.77.31-1.29.49-1.62.52-.62.06-.48-.43.28-1.69.75-1.33,1-1.92,1.08-3.33.17-2.08-.25-3.41-1.5-4.75-1.31-1.48-2.63-2.06-4.41-2.08-.03,0-.05,0-.08,0-2.17,0-3.41.67-6,3.16-7.81,7.48-17.36,12.97-27.17,15.72-.01,0-.02,0-.03.01s-.02,0-.03.01c-2,.58-4,1-6.08,1.33-.76.11-1.62.21-2.54.3-2.7.25-5.91.37-8.52.31-1.12-.03-2.12-.09-2.93-.19-8.78-1.01-16.73-3.83-24.18-8.59-1.64-1.05-3.25-2.19-4.84-3.42-.1-.08-.2-.15-.3-.23-1.92-1.58-3.91-3.25-5.75-5.08-3.5-3.41-5-4.25-7.33-4.08-2.75.17-5,2.42-5.41,5.16,0,.06,0,.11,0,.17,0,.1-.02.2-.08.25-.17,2.33.08,3.33,1.42,5.33,1.08,1.54,1.37,2.22,1.07,2.31-.02,0-.04.02-.07.02-.08,0-.83-.25-1.67-.58-1.95-.77-4.07-.94-5.89-.58-1.13.22-2.15.64-2.94,1.25-2.08,1.58-2.58,3.66-1.33,5.75.33.67.67,1.33.67,1.5s-.75.58-1.58.92c-1.75.67-3.25,1.83-3.83,3-.5.92-.5,3.75-.08,3.75.02,0,.07-.02.11-.03.22-.06.62-.26.97-.47.42-.25,1.75-.83,2.92-1.25,2.19-.73,5.08-.95,7.5-.49.34.07.67.14.99.24,3.16.83,6.83,2.92,10.08,5.66,2.7,2.34,5.98,3.65,8.43,3.49.34-.02.67-.07.98-.15,2.58-.67,3.66-2,3.66-4.66,0-.92.08-1.67.25-1.67.02,0,.06.01.11.03.31.13,1.1.64,1.89,1.22,5,3.5,12.24,6.08,20.16,7.16,2.62.36,5.44.52,8.35.5,8.66-.06,18.09-1.71,25.13-4.58,3.08-1.25,4.83-2.17,7.5-4.08,1-.75,1.92-1.33,2-1.33.01,0,.02.03.03.06.05.22.04,1.01-.03,1.94-.08,1.67-.08,2.08.42,2.83.83,1.33,2.42,2.08,4.83,2.08.03,0,.05,0,.08,0,2.45-.02,4.11-.77,6.66-3.08,1.83-1.67,4-3.08,6.16-4.08Zm-4.87-13.85c-.24.05-.5-.01-.62-.22-.08-.17-.08-.42.08-.58.16-.12.37-.17.57-.15.33.03.65.24.6.56-.09.23-.36.37-.62.39Zm-23.03,5.11c.3-.3.98-.13,1.07.26.01.05.02.1,0,.16-.04.1-.12.19-.22.26-.1.07-.21.11-.33.14-.12.02-.24.02-.35-.02s-.2-.1-.26-.21c-.04-.04-.06-.15-.05-.27,0-.11.04-.23.13-.32Zm-29.32,13.99c.42-1.33.75-4.83.58-6.66l-.17-2.08.83-.58c.59-.45.97-.52,1.14-.28.23.15.25.61.03,1.36-.17.58-.33,1.83-.42,2.92-.08,1-.25,2.42-.42,3.16-.17.67-.58,1.58-.92,2.08-.39.33-.57.44-.6.32-.04-.03-.07-.09-.07-.23Zm-26.99-19.74c.16-.03.31-.05.44-.06.58-.03.86.19.75.55-.03.15-.12.32-.27.51-.33.33-.92,1.33-1.25,2.17-.33.92-1.08,2.08-1.5,2.67-.5.58-1,1.08-1.25,1.08-.03,0-.05,0-.07,0,0,0,0,0,0,0-.42,0-.33-.08.67-1.58.5-.83,1.17-2.67,1.5-4.41,0,0,0,0,0,0,.08-.58.33-.75,1-.92Zm-4.75-.08c0,1-1.25,2.67-2.67,3.33-.75.42-1.42.67-1.58.67s-.33-.5-.33-1.08l-.08-1.17-1.83-.17c-2.92-.25-3.5-.67-4.58-2.83-.33-.75-.83-1.25-1.33-1.42-.57-.22-.83-.53-.79-.77-.03-.26.25-.48.87-.48.92,0,1.92.92,2.92,2.5,1.17,2,3.41,2.25,5.41.75.67-.5,1.5-.83,1.92-.83,1,0,2.08.75,2.08,1.42,0,.01,0,.03,0,.04,0,.01,0,.03,0,.04Zm5.41,12.58c-1.33-.33-1.42-2.5-3-2.25-1.58-.5-3.16-1.25-4.5-2.25-.53-.4-1.11-2.02-.65-2.53.1-.21.31-.31.65-.22,1.5,1.33,2.75,3.41,4.91,3.83.72.12,1.29-.19,1.76-.66.46-.5.83-1.14,1.16-1.67,1.02-1.02-.03-2.78.96-3.6.08-.08.17-.16.29-.23.58-.42,3.25-1,1.92.33-.03.02-.05.05-.07.07,0,0,0,0-.01.01-.17.15-.33.32-.47.49-.01.02-.03.04-.04.06-.11.14-.21.28-.31.43-.68,1.09-.98,2.44-1.59,3.6-.75,1.08-.92,2.83.5,3.5,2.42,1.75,5.5,1.5,8.25,1.67,1.5-.42.5,1.75,1.58,1.75s3.16-1,3.41.58c-.5,1.25.92,1.17,1.58.67.92-.5,3.16-1.42,2.58.5-.08,1.21,1.78,1.47,2.5.66.75-1.41.83-3.08.75-4.66-.57-1.02-.22-2.04.62-2.57.28-.21.6-.36.96-.43.5,1-.25,2.42-.25,3.58-.3,1.55-.2,3.43-1.22,4.76-.11.15-.24.28-.38.42-.02.02-.04.05-.06.07-.02.02-.02.02-.04.04-.02.01-.03.03-.05.05-.08.08-.25.25-.5.42-1.08.58-2.83.75-3.75-.25-.25-1.5-1.75-1.08-2.83-.92-.83.25-3.16.33-2-1.17-.08-1-1.83-.42-2.67-.67-1.42.42-.83-1.58-1.92-1.67-2.75-.17-5.58-.58-8.08-1.75Zm31.98,5.83c-.33.96-.73,1.69-1.25,2.25-.52.56-1.17.96-2,1.25-1.25.42-5.5.58-6.58.33-.37-.06-.8-.27-1.05-.43-.09-.06-.15-.11-.2-.15-.19-.17-.28-.3-.28-.41,0-.05.02-.1.06-.14.22-.19,1-.2,2.3-.04.27.04.55.08.83.11.41.04.82.08,1.15.09.11,0,.22,0,.31,0,.19,0,.35-.01.45-.03.27-.03.53-.06.77-.1.49-.06.92-.13,1.31-.21.19-.04.38-.08.55-.12.51-.12.92-.26,1.24-.43.11-.06.2-.11.29-.18.35-.25.55-.56.64-.95.04-.2.06-.41.05-.65,0-.24-.04-.5-.09-.8-.04-.23-.07-.42-.08-.58-.02-.48.12-.69.49-1.01,0,0,0,0,0,0,.38-.34.74-.5,1.02-.5.3-.01.51.13.55.42.08.25-.17,1.25-.5,2.25Zm2.83.92c-.29.81-.51,1.2-.65,1.16-.3.22-.38-.87-.26-3.41.08-2.92.08-3.58-.33-4.33-.25-.5-.42-1.08-.33-1.33.15-.45,1.11-1.17,1.48-1.12.08,0,.15,0,.19.04.08.08.17,1.92.25,4,0,2.83-.08,4.25-.33,5Zm6.75-.08c-.42.67-1,1-2,1.42-.75.25-1.58.67-1.83.92-.5.5-1.08.58-1.08.17,0-.17.17-.67.33-1.17.06-.16.13-.29.2-.4.37-.72.77-.93,2.13-.93.59,0,1-.17,1.23-.49.27-.55.13-1.42-.48-2.51-.25-.5-.75-.92-1.33-1-.82-.2-.96-.31-.62-.97.08-.18.2-.4.37-.69.83-1.33,1.25-1.42,2.33-.33,1.39,1.7,1.86,3.07,1.47,4.47-.12.5-.36,1.01-.72,1.53Zm13.83.37c-.08.03-.17.05-.25.05-.42,0-.75-.25-.75-.67s.33-.67.75-.67.75.33.75.67c0,.26-.21.52-.5.62Zm2.94-1.21c-.11.23-.38.42-.69.42-.42,0-.75-.25-.75-.67s.33-.67.75-.67.75.25.75.67c0,.08-.02.17-.06.24Zm3.47-5.82c-.81,1.7-2.02,3-3.9,4.09-.15.09-.32.18-.49.26-.09.05-.18.1-.28.15-.02.01-.05.02-.07.03-.03.02-.06.03-.1.05-1.08.58-2.08.83-3.16.92-1.67.08-4.08-.42-4.41-1-.42-.67-.17-2,.58-3.25.54-.81.93-1.24,1.14-1.27.29-.17.42.07.28.77-.08.5-.25,1.17-.33,1.58-.08.5,0,.92.42,1.33.5.5.75.58,2.33.5,1.05-.09,2.28-.5,3.42-1.04,1.85-.92,3.41-2.21,3.41-3.12,0-.25-.25-.75-.67-1.08l-.66-.58-1.01.58c-.07.04-.14.07-.21.11-.57.33-1.13.64-1.21.64,0,0-.08-.33-.08-.67,0-.42.33-.83.83-1.25.42-.33.75-.67.92-1.08.33-.58.33-1.25.08-2-.33-.83-.25-1.08.08-1.67.14-.19.33-.37.51-.5.17-.16.35-.25.49-.25.58,0,.92,1.67.67,3-.17.92-.17,1.5,0,1.67.08.08.25.17.5.17.67,0,1.92.58,1.92.92-.17.17-.58,1.08-1,2Zm3.46-.28c-.4.14-.73.2-.93.18-.21-.02-.29-.13-.19-.32.08-.17.75-.75,1.42-1.25.04,0,.06-.02.08-.04s.04-.04.08-.04c.33-.24.66-.5.99-.78.65-.56,1.26-1.19,1.82-1.84.14-.16.27-.33.4-.49.26-.33.5-.66.72-.99.11-.16.21-.33.31-.49.58-.97.93-1.88.93-2.57,0-.19-.02-.33-.06-.42-.13-.29-.5-.18-1.44.26-.57.26-.82.36-1.03.25-.12-.06-.23-.2-.39-.42-.09-.11-.17-.25-.24-.41-.14-.32-.22-.71-.25-1.13-.03-.42-.02-.88.05-1.32.1-.66.3-1.28.62-1.72.12-.19.23-.34.33-.46.2-.24.36-.36.62-.42.13-.03.28-.04.47-.04h.33c.14,0,.26,0,.37,0,.76.03.94.18,1.3.91.21.37.31.75.35,1.31.02.28.03.61.02,1.01,0,.4-.02.87-.04,1.43,0,0,0,0,0,0-.08,2.5-.17,3-.92,4.5-.33.55-.81,1.19-1.35,1.83-.69.84-1.51,1.64-2.31,2.25-.42.33-.83.58-1.17.83-.31.17-.61.3-.87.39Zm9.95-12.55v2.17c0,2.83-.67,4.75-2.17,6.25-.58.67-1.33,1.17-1.67,1.17s-.51-.04-.49-.21c-.24-.11,0-.45.74-1.45,1.67-2.08,2.08-3.25,2.25-6.41.17-2.67.17-2.83.83-3.16,2.5-1.17,3.16-1.58,3.66-2.33.53-.8.9-.95,1.03-.56.12.1.19.33.22.73,0,.92-1.58,2.5-3.16,3.25l-1.25.58Z"/>
      <path class="cls-4" d="m344.79,147.13c.09.14.17.29.21.46.01-.02.02-.05.04-.08.48-.9.88-1.87.79-2.84-.17-1.5.08-3,.58-4.33.08-.42.5-.75.42-1.17-.24-.33-.49-.81-.97-.9-.01,0-.02,0-.03-.01-.17,0-.25.08-.42.17-.58.5-.83,1.17-1.17,1.83-.67,1.92-1,3.91-1.17,5.91-.08.33.33.25.5.25.49.06.94.31,1.21.7Z"/>
      <path class="cls-4" d="m340.33,149.01c-1.75,2.33-3.66,4.58-5.75,6.75-2.5,2.17-5.91,3.91-7,7.33-.08,5.16-.17,10.41-.17,15.57-.08,5.83-.17,11.74-.25,17.57.07.35.25.65.5.91,1.14,1.19,3.84,1.43,5.42,1.84,3.25.58,6.33-.92,9.16-2.33-.08-4.91-.17-9.83-.08-14.83,0-.02,0-.04,0-.07,0-.04,0-.09,0-.13,0-1.43.08-2.79.08-4.22.25-2.33-.17-4.91,1-7.08,3.16-4.5,8.33-7.16,10.83-12.16,2-5.16,2.83-10.74,3.58-16.16-.25-2,.75-4.5-.58-5.91h-.07s-.34.08-.34.08c-2.58,2-3.16,5.83-2.58,8.99-2.25,2.58-4,5.75-4.41,9.16-.17.62-.5,1.11-.91,1.54-.72.73-1.71,1.24-2.67,1.75-.66.35-1.31.7-1.84,1.13-1.83.92-3.33,2.42-4.33,4.16-.02-.01-.04-.03-.06-.04-1.47-.96.31-3.81.47-5.46.58-2.92,2.83-5,3.75-7.75.76-1.61.06-2.22-.95-2.2-.98.02-2.26.63-2.8,1.54Z"/>
      <path class="cls-4" d="m297.02,222.38c-.92,0-1.33,1.17-.67,2.17.42.67.5.67,1,.25.25-.31.4-.62.43-1.03,0-.12,0-.25-.01-.39-.08-.92-.17-1-.75-1Z"/>
      <path class="cls-4" d="m212.15,127.1c1.75,1.83,3.08,2.5,5.5,2.67,2.67.17,4-.25,9.08-2.83,3.91-2,6.08-2.67,7.5-2.5.7.11.94.39.71.62-.13.13-.38.24-.79.29-2.58.42-3.66.83-7.33,2.75-2.33,1.17-4.83,2.25-6.08,2.58-1.17.33-2.17.58-2.25.67,0,0,0,.03,0,.04-.04.13.11.58.34,1.04,1.67,3.16,6.75,3.41,10.16.5,2.92-2.42,7.75-4.75,10.16-4.83.84-.06,1.29.19,1.17.44-.06.12-.24.23-.59.31-3.58.75-8,2.92-10.41,5.08-.58.5-1.33,1.08-1.83,1.33-.39.19-.67.44-.78.62-.03.05-.05.1-.05.13,0,.58,1.67,2.17,2.58,2.5,1.25.42,4.16.17,5.66-.5.67-.33,1.92-1.25,2.75-2,2.92-2.75,6.83-5.33,8.08-5.33.58,0,.66.2.27.55-.22.19-.59.43-1.1.7-.45.23-1.01.58-1.62.99-1.78,1.18-3.96,2.86-4.91,3.8-.01.01-.03.03-.04.04,0,0-.02.02-.03.03-.38.44-.94.92-1.37,1.23-.13.1-.26.18-.35.24-.17.11-.3.22-.41.33-.58.55-.52,1.1.25,2,1.75,2.17,5.58,1.67,9.58-1.08.6-.45,2.41-2.11,4.1-3.83.19-.19.38-.39.57-.58.29-.3.56-.57.81-.83,1.79-1.81,2.71-2.56,2.85-2.42.05.05.04.17-.01.32-.1.3-.41.81-.95,1.52-.04.06-.07.1-.12.16-1.17,1.5-1.42,1.83-1.33,2.75.08,1.83,1.08,2.42,3.25,1.83,1.33-.42,1.5,0,.58,1.33-.67.92-.83,1.42-.83,2.42,0,1.92.42,2.92,1.83,3.91.63.47,1.16.85,1.22.9,0,0,.02.02.02.02,0,0,.33-.58.75-1.25.26-.43.53-.76.79-1,.9-.83,1.81-.55,2.71,1,.33.58.75,1,.92,1s.82-.41,1.4-.91c0,0,0,0,.01,0,1.92-1.67,2.17-4.16.58-6.16-.51-.63-.72-1.05-.62-1.28.1-.25.58-.27,1.45-.05,1.14.3,1.85.25,2.34-.24.19-.19.35-.43.49-.76.5-1.25.25-2.17-1.08-3.75-.86-1-1.24-1.72-1.11-1.98.03-.06.09-.11.19-.11.17,0,1.67,1.5,3.33,3.25,4.33,4.58,7.08,6.33,10.58,6.66,1.27.12,2.36-.11,3.15-.67.3-.21.56-.45.76-.75.83-1.08.83-1.67.08-2.08-.33-.17-1.25-.92-2.08-1.75-1.75-1.67-4.16-3.33-6.41-4.58-1.23-.65-1.83-1.12-1.73-1.35.04-.1.19-.15.48-.15,1.25,0,5,2.5,9.08,6,1.92,1.67,3.75,2.33,5.91,2.08,1.22-.12,2.35-.65,3.1-1.38.27-.27.49-.56.65-.86.33-.67.33-.75-.08-1.08-.25-.17-1.33-.92-2.42-1.75-3.33-2.58-6.66-4.16-9.41-4.58-.83-.17-1.25-.33-1.25-.67-.02-.09,0-.17.03-.23.55-1.08,7.9,1.81,10.88,4.4,1.92,1.67,3.16,2.08,5.25,2.17,2.05,0,3.54-.56,4.55-1.74.1-.11.19-.22.28-.35.92-1.33.83-1.92-.08-1.92-1.33,0-3.5-.83-7.5-2.75-3.66-1.75-6.25-2.67-7.58-2.67-.33,0-.58-.17-.58-.42,0-.07.02-.13.05-.18.5-.84,4.84.31,8.53,2.35,6.23,3.4,10.63,3.5,14.04.11.01-.01.02-.02.03-.03,1.83-1.83,3.41-5.08,2.5-5.08-.17,0-1.17.17-2.17.42-2.5.58-7.5.42-10.24-.42s-7.41-3.25-9.74-5c-2.25-1.83-4.66-3.16-6.83-4-5.16-1.83-11.49-1.75-15.16.17-.03.02-.06.03-.08.05-1.64.92-3.25,2.3-3.66,3.37-.08.17-.17.33-.25.42v-9.58l-.33.27-1.75,1.4h-.01s-1.82-1.42-1.82-1.42v9.49c-.11-.08-.22-.19-.33-.3-.23-.23-.47-.5-.75-.78-2.83-2.92-6.08-4.16-11.08-4.08-2.09,0-4,.25-5.86.77-3.02.85-5.88,2.42-9.13,4.9-2.75,2.08-6.75,4.16-9.74,5.08-.46.13-.86.23-1.25.32-1.16.25-2.27.33-4.83.27-2.42,0-4.41-.17-5.16-.33-.67-.17-1.25-.25-1.33-.17-.01.01-.02.04-.03.06-.16.54,1.5,3.49,2.77,4.68Z"/>
      <path class="cls-4" d="m299.69,202.73s-.02,0-.03,0c-.07,0-.14,0-.21.03-.01,0-.03,0-.04.01-.05.01-.1.03-.15.06-.42.22-.68.75-.5,1.23.18.4.41.55.63.54.72-.08,1.34-1.62.29-1.87Z"/>
      <path class="cls-4" d="m271.45,94.79c-.33.25-.67.5-1,.67-.07.04-.16.08-.24.12-5.48,3.04-15.82,3.32-20.5-.62-.42,5.5-1.75,9.24-3.66,13.49l.13-.12,4.37-4.13,3.16,3.91,3.41-3.91,3.5,3.25,3.33-3.41,3.5,4.16,3-3.41,5.02,3.71.06.04c-1.74-3.98-4.05-7.38-4.08-12.74,0-.03,0-.05,0-.08v-.92Z"/>
      <path class="cls-4" d="m163.35,136.01l-.42-.08c-.18.18-.32.4-.42.62-.65,1.4.08,3.47,0,5.04.08.58.17,1.08.25,1.67.67,4.91,1.5,9.91,3.33,14.58,2.33,5.16,7.58,7.83,10.66,12.33,1.17,2.17.75,4.75,1,7.08.08,3.16.08,6.25.08,9.41s-.08,6.5-.08,9.74c2.83,1.42,5.91,2.92,9.16,2.33,1.36-.35,3.54-.59,4.86-1.4.54-.34.94-.77,1.06-1.35,0-2.58-.08-5.25-.08-7.83-.08-8.41-.17-16.91-.33-25.32-1.08-3.41-4.5-5.16-7-7.33-2.08-2.08-4-4.33-5.75-6.75-.75-1.27-2.98-1.98-3.78-1.24-.35.33-.43.93.03,1.9.92,2.75,3.16,4.83,3.75,7.75.08,1.58,2,4.5.42,5.5,0,0,0,0,0-.01-1-1.74-2.49-3.24-4.32-4.15-1.83-1.42-4.83-1.92-5.41-4.41-.5-3.41-2.17-6.58-4.41-9.16.07-.26.09-.53.13-.79.01-.07.02-.14.03-.21.25-2.92-.42-6.16-2.75-7.91Z"/>
      <path class="cls-4" d="m173.28,144.81c0-.28.01-.56.06-.86,0,0,0-.02,0-.03.08-2-.58-4.08-1.92-5.58-.33-.33-.75-.67-1.17-.75-.45.13-.6.51-.61.93-.01.36.08.76.2,1.07.33,1.83.42,3.66.42,5.41v.17c1.58,1.25,2.5,3.08,3.41,4.83.58,1.17,1.08,2.42,1.25,3.66,1.2.4,2.24,1.18,3.2,1.98.04.03.09.07.13.1-.42-1.17-1.25-2.17-1.83-3.25-.67-1.17-1.25-2.33-1.5-3.58-.83-.91-1.41-2.07-1.58-3.32,0,0,0-.01,0-.02-.04-.27-.06-.52-.06-.78Z"/>
      <path class="cls-4" d="m353.74,137.12s-.03-.03-.05-.04c-.1-.1-.22-.18-.36-.23-.08-.03-.16-.07-.26-.08-.75,0-1.17.75-1.5,1.33-1.08,2.33-1.08,5-1.08,7.58-.88.57-1.54,1.41-2.11,2.3-.23.36-.44.72-.65,1.08-.11.18-.21.36-.31.54-.75,1.5-1.5,3.08-1.67,4.83-1.58.33-3,1.5-4.16,2.67-.83.83-.92,2-1.25,3-.11.36-.12.48-.07.47.07,0,.25-.24.48-.47.38-.34.79-.65,1.21-.95,1.51-1.07,3.22-1.91,4.79-2.88,0,0,0,0,0,0,.21-.17.45-.32.69-.47s.49-.31.71-.48c.44-.34.77-.76.77-1.38,0,0,0-.01,0-.02.5-3.4,2.16-6.38,4.31-8.96,0,0,.01-.01.02-.02-.17-.92-.21-1.87-.14-2.82.04-.47.1-.94.19-1.41.09-.46.21-.91.36-1.35.44-.62.55-1.67.08-2.23Z"/>
      <path class="cls-4" d="m344.99,153.75c.25-1.33.75-2.5,1.25-3.66.92-1.75,1.83-3.58,3.41-4.83,0-1.83,0-3.66.42-5.5.12-.33.23-.77.2-1.16-.03-.39-.2-.72-.61-.84-.5,0-.92.42-1.17.75-1.33,1.5-1.92,3.5-1.92,5.5h0c.03.23.05.46.05.69.02,1.14-.3,2.26-.86,3.23-.22.39-.48.75-.77,1.09-.25,1.33-.83,2.5-1.5,3.58,0,0,0,0,0,0-.46.85-1.06,1.59-1.5,2.47-.1.21-.2.42-.28.65-.02.04-.04.08-.05.13,1-.92,2.08-1.67,3.33-2.08Z"/>
      <path class="cls-4" d="m259.38,94.7h2.58v-9.74l8.69,4.3.23.11-4.96-6.78-.03-.05,6.68-2.2.15-.05-10.74-5.66v-.17c.42-.08.76-.23,1.02-.41.3-.22.48-.48.48-.75,0-.67-1.08-1.25-2.58-1.25-1.14,0-2.03.34-2.4.79-.12.14-.18.3-.18.46-.08.5.42.92,1.08,1.08v20.32Z"/>
      <path class="cls-4" d="m340.41,198.23c-1.67.92-3.41,1.67-5.33,1.67-2.17,0-4.33-.58-6.33-1.58-.58-.25-1.25-.75-1.83-.42-.08.04-.14.1-.2.16-.36.38-.28,1-.14,1.51.25,1.25,1.5,1.75,2.5,2.17,1.5.75,3.16,1.17,4.91,1.17h.75c2.67.08,5.33-.67,7.5-2.25.1-.08.21-.17.32-.27.43-.36.86-.8.93-1.4.17-.83-.5-1.83-1.33-1.75-.67.17-1.17.67-1.75,1Z"/>
      <path class="cls-6" d="m282.7,241.37c-.42,0-.75.33-.75.67,0,.42.33.67.75.67.09,0,.17-.02.25-.05.29-.1.5-.36.5-.62-.08-.33-.42-.67-.75-.67Z"/>
      <path class="cls-6" d="m221.4,209.97c.25-.33.42-.58.67-.92,1.67.08,3.25.33,4.91.25,1.17,0,2.17-.75,2.92-1.58,1-1.17,1.92-2.42,3.08-3.41.3-.09.43-.36.44-.65.02-.52-.35-1.09-.94-.77-.75.33-1,1.25-1.58,1.83-.92,1.17-1.92,2.33-3.08,3.25-.83.33-1.83.17-2.75,0-.03-.03-.04-.06-.05-.09-.08-.3.81-.61.96-.91.49-.49,1.05-.98,1.39-1.62,0-.01.02-.03.03-.04-.25-.58-1.17-.67-1.75-.67-1.5.17-2.67,1.5-4.16,1.58-.4.03-.57-.13-.6-.37-.06-.41.29-1.03.6-1.3,1-1.25,2.08-2.42,3.16-3.58.18-.3.79-.56.87-.87.03-.12-.02-.24-.2-.38-.25-.08-.5-.08-.75-.08-.53-.11-.96.16-1.27.55-.17.21-.31.46-.4.7-.46.86-1.04,1.7-1.91,2.31-.23.16-.47.32-.75.44-.75.25-1.67-.08-2.33-.5-.83-.42-.67-1.5-1-2.17-.58-.5-1.58.17-1.58.92,0,.02,0,.04,0,.07-.03.88.85,1.44,1.58,1.85.67.42,1.58.58,1.83,1.42,0,.75.25,1.5,1.08,1.25.69,0,.95.66.9,1.27-.02.2-.07.4-.15.57-.26.64-.46,1.33-.46,1.99,0,.2,0,.4.05.59.5.42.92-.67,1.25-.92Zm2-1.75c-.58.5-1.25-.42-.5-.67.42,0,1.33.42.5.67Zm.83-1.25c-.67.25-.67-.5-.08-.67.33-.17.67-.42,1.08-.42.75.5-.5,1.17-1,1.08Z"/>
      <path class="cls-6" d="m245.3,213.3c-.33,0-.75.08-1.17.42-1.61,1.11-2.34,2.41-2,3.31.01.04.04.07.06.11.13.27.35.5.69.67.71.33.8.72.33,1.19-.25.25-.66.52-1.24.81-2.42,1.25-4.58,1.08-8.66-.67-.59-.24-.91-.28-1.03-.09-.08.13-.07.38.03.76.17.75.75,1.17,1.92,1.58.33.08.67.25,1.17.33.42.08.92.17,1.42.25,1.83.17,3.75-.08,5.08-.67.62-.31,1.34-.81,2.01-1.43.22-.21.44-.43.65-.65l1.26-1.41.07-.08,1.5.17q1.92.25,1.92,1.17,0,.75,1.75.92c1,.08,2.33.17,2.92.17.83,0,1.25.17,1.5.5.33.5.58.5,3.41.25,2.67-.25,3.16-.25,4.41.17.83.25,1.75.42,2.5.33,1.55-.19,3.5-1.2,4.58-2.22.37-.35.64-.71.75-1.03,0,0,0,0,0,0,.08-.17.83-.42,1.67-.58.78-.19,1.27-.36,1.49-.5.22-.14.16-.25-.18-.31-.23-.03-.58-.05-1.06-.02-.83-.08-2.17-.42-2.83-.67-.75-.25-1.67-.5-2.17-.5-1,0-2,.67-2,1.33,0,.02,0,.03,0,.05.01.37.22.45,1.41.29,1.17-.17,1.5-.08,2.08.42.23.18.4.36.5.52.08.13.12.24.08.31-.25.42-2.67,1.58-3.75,1.75-.67.17-1.25.08-1.83-.25-.92-.5-2.33-.58-2.58-.17-.17.17-.42.08-.83-.33l-.67-.58-1.42.58c-1.37.61-1.9.65-1.98.09,0-.05-.02-.11-.02-.17,0-.07-.03-.13-.08-.18-.19-.18-.8-.2-2.51-.07-2.42.17-2.67.08-3.08-.42-.24-.24-.35-.4-.36-.58,0-.14.05-.29.19-.51.2-.41.23-.6.1-.79-.03-.04-.06-.08-.1-.13-.25-.25-.58-.25-1.5,0-1.84.53-2.63.41-2.89-.59-.07-.27-.11-.59-.11-1,0-.37-.06-.68-.17-.94-.23-.57-.68-.89-1.25-.89Zm-1.17,1.67c.25-.17.33-.25.5-.25s.25.08.42.25c.25.25.33.58.17.83-.08.28-.35.42-.64.43-.31.01-.64-.13-.77-.43-.08-.33,0-.58.33-.83Z"/>
      <path class="cls-6" d="m283.38,229.67c.11.04.23.04.35.02.12-.02.24-.07.33-.14.1-.07.18-.16.22-.26.01-.05,0-.11,0-.16-.1-.34-.71-.55-1.07-.26-.09.09-.13.21-.13.32,0,.1.01.19.05.27.06.1.16.17.26.21Z"/>
      <path class="cls-6" d="m306.96,178.33s-.02,0-.02,0c0,0,0,0,0,0-.24,0-.33.34-.24,1.16,0,.57.03.85.22,1.02.09.09.24.15.43.2.04,0,.07.02.1.03.42.08,1.67,1.17,2.83,2.33.15.15.29.29.43.42.56.54,1.05.97,1.38,1.23.25.2.41.29.44.26.04-.04.06-.15.06-.28,0-.07,0-.14-.02-.22s-.03-.16-.05-.25c-.25-.74-4.98-5.8-5.56-5.9Z"/>
      <path class="cls-6" d="m254.46,242.7c.33-.42.83-1.33.92-2.08.17-.67.33-2.08.42-3.16.08-1,.33-2.33.42-2.92.19-.65.2-1.08.06-1.28-.17-.24-.55-.17-1.14.28l-.83.58.17,2.08c.17,1.83-.17,5.33-.58,6.66,0,.14.03.21.07.23.08.05.24-.07.51-.4Z"/>
      <path class="cls-6" d="m289.19,235.71c.42-.92.75-1.83.75-1.92.25-.5-1-1-1.67-1-.25,0-.42-.08-.5-.17-.25-.25-.25-.75,0-1.67.33-1.33-.08-3-.67-3-.07,0-.19.07-.33.17-.17.13-.37.31-.51.5-.33.58-.42.83-.08,1.67.25.75.25,1.42-.08,2-.17.42-.5.75-.92,1.08-.5.42-.83.83-.83,1.25,0,.33.08.67.08.67.08,0,.64-.32,1.21-.64.01,0,.03-.02.04-.02l1.17-.67h0s.66.58.66.58c.42.33.67.83.67,1.08,0,.92-1.55,2.2-3.41,3.12-1.18.59-2.48,1.03-3.59,1.12-1.5.17-1.75.08-2.33-.5-.42-.42-.58-.83-.42-1.33.08-.42.25-1.08.33-1.58.11-.61.07-.87-.11-.85-.21.02-.6.45-1.14,1.27-.75,1.25-1,2.58-.58,3.25.33.58,2.75,1.08,4.41,1,1.08-.08,2.08-.33,3.16-.92.03-.02.06-.03.1-.05.12-.06.23-.12.35-.18.16-.09.33-.17.49-.26,1.84-1.07,2.94-2.35,3.73-4Z"/>
      <path class="cls-6" d="m259.49,238.78c-.28,0-.64.17-1.02.5,0,0,0,0,0,0-.37.31-.52.53-.49,1.01,0,.16.03.35.08.58.05.29.08.56.09.8,0,.24,0,.46-.05.65-.09.39-.29.7-.64.95-.09.06-.18.12-.29.18-.32.17-.73.31-1.24.43-.17.04-.35.08-.55.12-.39.07-.82.14-1.31.21-.24.03-.5.06-.77.1-.1.02-.26.03-.45.03-.1,0-.2,0-.31,0-.34-.01-.74-.04-1.15-.09-.28-.03-.56-.07-.83-.11-1.3-.16-2.08-.15-2.3.04-.04.04-.07.08-.06.14,0,.11.1.24.28.41.04.04.11.09.2.15.26.17.68.37,1.05.43,1.08.25,5.33.08,6.58-.33.83-.29,1.48-.69,2-1.25.52-.56.92-1.29,1.25-2.25.33-1,.58-2,.5-2.25-.08-.28-.28-.43-.55-.42Z"/>
      <path class="cls-6" d="m249.63,212.97c.4,0,.57-.16.58-.54,0-.02,0-.02,0-.04,0-.42-.17-.5-.5-.5-.38.08-.57.36-.57.62,0,.24.16.47.49.47Z"/>
      <path class="cls-6" d="m296.02,206.64c.67-1.25,2.17-1,3.33-1s2.17-1.42,1.75-2.58c-.33-1.33,1.08-2,2-2.5.33-.17.58-.33.83-.58.83-.67,1.42-1.75,1.33-2.92,0-.61,0-1.53-.4-2.01-.14-.18-.34-.3-.6-.32-1.17.67-.25,2.08-.08,3.08-.42,1.17-1.83,1.58-3,1.83-.08,0-.25.08-.33.08-1.75.25-2.92,1.67-3.58,3.25-.29.87-.95,2.11-1.72,1.44-.11-.1-.23-.23-.34-.42,0,0-.01-.02-.02-.02-.83-.83-2.33-1.5-3.25-.5-.74.66-.91,1.71-1.15,2.62,0,.02,0,.03-.01.05-.3-.48-.47-1.17-.89-1.62-.16-.17-.35-.31-.61-.38-1.42.25-.92,2.08-.25,2.83.58.92,1.17,2.08.58,3.16-.5,1.33-2.33,2.17-3.41,1.08-.1-.05-.17-.12-.23-.19-.53-.56-.33-1.75-.74-2.2-.09-.1-.2-.17-.36-.19-.45.38-.57,2.06-1.14,1.55-.06-.05-.12-.12-.19-.22-.56-.88-.36-2.15-.94-2.99-.02-.03-.03-.06-.06-.09-.66.07-1.25,1.23-1.22,2.02,0,.11.02.22.05.31.27.37.5.77.71,1.18.62,1.23.98,2.61,1.29,3.98.06.19.09.42.1.67.01.25.02.52.03.77.03.5.11.94.45,1.06h0c.12-.29.19-.59.23-.9.02-.15.03-.31.03-.46.01-.31,0-.62,0-.94s.01-.62.05-.92c.02-.15.05-.3.09-.44.12-.02.25-.03.39-.03.53-.01,1.1.1,1.68.16.14.01.29.02.43.03.28,0,.57,0,.84-.07,1.38-.22,2.51-1.27,3.17-2.53.09-.18.18-.37.25-.55.08-.54.06-1.1.02-1.67s-.1-1.12-.1-1.67h0c.33.04.66.07.99.1.97.09,1.91.17,2.85.48.67,1-.17,2.33-.33,3.33-.67,2.17-2.25,3.66-3.83,5.08-.08.05-.16.11-.22.18-.19.2-.29.46-.28.65.02.25.25.37.75.08,1.16-.51,2.16-1.34,2.97-2.36.64-.81,1.16-1.73,1.53-2.72.67-1.58.17-3.41.58-5.08Zm3.38-2.04c-.22,0-.45-.14-.63-.54-.18-.49.08-1.02.5-1.23.05-.02.1-.04.15-.06.01,0,.03,0,.04-.01.07-.02.14-.03.21-.03,0,0,.02,0,.03,0,.03,0,.05,0,.08,0,1.01.25.34,1.85-.37,1.87Zm-5.86,1.57c-.14-.05-.28-.14-.44-.27-.41-.2-.55-.55-.49-.84.06-.27.31-.48.7-.49.03,0,.06,0,.09,0,.01,0,.02,0,.04,0,1.55-.07,1.2,2.02.11,1.61Z"/>
      <path class="cls-6" d="m229.39,214.72c.05-.15,0-.26-.09-.34-.06-.05-.14-.08-.24-.08-.42,0-.75.5-.5.83.05.09.12.15.2.18.26.11.57-.14.64-.59Z"/>
      <path class="cls-6" d="m240.39,209.17c.07,0,.15,0,.24-.03.33-.08.58-.25.58-.5,0-.28-.23-.4-.48-.39-.28,0-.6.17-.69.48,0,.32.1.44.34.44Z"/>
      <path class="cls-6" d="m233.39,204.98s-.02.09-.07.18c-.26.47-1.26,1.85-2.51,3.24-1.05,1.22-1.76,2.1-2.19,2.78-.8,1.26-.59,1.79.44,2.38,1.25.75,2.75.67,4-.17l1-.67v1.25c0,1.58.33,2.17,1.5,2.83,1.5.83,3.41.75,4.91-.25.74-.48,1.09-.69,1.28-1.14.18-.42.22-1.04.3-2.27.17-1.83.08-2-.33-2-.38,0-.67.27-.86.78-.14.39-.23.9-.23,1.56,0,.5-.04.85-.14,1.14-.1.29-.27.53-.52.78-1.17,1.25-4.16.67-4.58-.83-.15-.46,0-.94.54-1.72.05-.07.08-.12.13-.19.35-.5.58-.9.71-1.19.36-.82-.12-.77-1.29.27-1.08,1-1.33,1-1.08.17.17-.75-.17-1.08-1.08-.83-.32.06-.54.28-.7.63-.05.11-.09.23-.13.37-.03.23-.1.39-.18.53-.13.22-.31.36-.57.47-.75.17-1.92-.5-1.92-1.08,0-.07.06-.19.14-.35.46-.82,2.05-2.8,4.02-4.9.91-.91,1.57-1.82,1.58-1.99,0,0,0,0,0,0,0-.17-.5-.25-1.08-.25-.49,0-.77.04-.92.15-.11.08-.16.18-.16.35Z"/>
      <path class="cls-6" d="m216.32,196.73c-.42-1.92-.42-2.17.33-2.33.28-.08.7,0,1.15.16,1.03.36,2.25,1.18,2.6,1.93.42.75.42.83-.25,1.5-.53.47-.68,1.02-.46,1.3.09.12.24.2.46.2.58,0,2.25-1.58,2.25-2.17,0-.32-.27-.79-.69-1.29-.67-.8-1.72-1.67-2.64-2.13-.92-.42-1.83-.67-2.83-.67-1.83,0-2.17.42-1.58,2.67.58,2.58-.25,3-2.25,1-.02-.02-.03-.04-.05-.05-1.46-1.48-2.12-2.97-2.03-5.36,0-.5,0-.92.08-1.33.33-1.67,1.25-2.58,3-2.83.95-.11,1.25-.33.9-.52-.17-.09-.49-.18-.98-.23-2.08-.33-3.83,1-4.58,3.41,0,.08-.08.25-.08.42-.74,2.28.31,5.06,2.36,7,.49.47,1.04.89,1.63,1.24,1.67,1,2.25,1,3.25.17q.75-.67.42-2.08Z"/>
      <path class="cls-6" d="m237.55,239.04c.83.25,2.58-.33,2.67.67-1.17,1.5,1.17,1.42,2,1.17,1.08-.17,2.58-.58,2.83.92.92,1,2.67.83,3.75.25.25-.17.42-.33.5-.42.02-.01.03-.03.05-.05.04-.03.07-.07.1-.11.14-.13.27-.27.38-.42.93-1.27.85-3.1,1.14-4.68,0-1.17.75-2.58.25-3.58-.33.06-.63.18-.88.34-.83.53-1.19,1.55-.62,2.57.08,1.58,0,3.24-.75,4.66,0,0,0,0,0,0-.67.92-2.67.67-2.58-.58.5-1.92-1.75-1-2.58-.5-.67.5-2.08.5-1.58-.67-.33-1.58-2.33-.58-3.41-.58-1,0-.08-2.17-1.58-1.75-2.75-.25-5.83,0-8.25-1.67-1.42-.67-1.17-2.42-.5-3.5.64-1.15.94-2.54,1.68-3.69.1-.15.2-.29.31-.43.01-.02.03-.04.04-.06.14-.17.3-.34.47-.49,0,0,0,0,.01-.01,1.3-1.31-1.35-.73-1.93-.32-.08.04-.15.09-.21.14-.99.83.06,2.58-.96,3.6-.33.53-.69,1.17-1.16,1.67-.49.52-1.08.87-1.84.75-2.17-.42-3.33-2.42-4.91-3.83-.27-.05-.45.01-.57.14-.46.51.12,2.13.65,2.53,1.33,1,2.92,1.75,4.5,2.25,1.58-.25,1.67,1.92,3,2.25,2.5,1.17,5.33,1.58,8.08,1.75,1.08.08.5,2.08,1.92,1.67Z"/>
      <path class="cls-6" d="m268.37,236.29c-1.08-1.08-1.5-1-2.33.33-.17.29-.29.52-.37.69-.23.52-.04.62.7.81.5.17,1,.5,1.33,1,.68,1.21.8,2.15.4,2.68-.23.31-.65.49-1.23.49-1.36,0-1.76.21-2.13.93-.04.07-.08.15-.12.24-.17.5-.33,1.08-.33,1.17,0,.42.58.33,1.08-.17.25-.25,1.08-.67,1.83-.92,1.08-.33,1.58-.75,2-1.42.3-.47.51-.92.64-1.36.39-1.4-.09-2.76-1.47-4.47Z"/>
      <path class="cls-6" d="m306.25,222.82c-.18-.02-.37.03-.49.15-.17.17-.17.42-.08.58.11.19.33.24.54.22.27-.02.53-.16.62-.39.05-.32-.27-.54-.6-.56Z"/>
      <path class="cls-6" d="m307.18,218.97c-.03-.4-.11-.63-.22-.73-.2-.17-.52.09-.94.73-.5.67-1.17,1.17-3.66,2.33-.67.33-.67.42-.83,3.16-.17,3.08-.58,4.25-2.25,6.41-.53.71-.8,1.09-.82,1.29-.02.17.14.21.49.21s1.08-.5,1.67-1.17c1.5-1.5,2.17-3.41,2.17-6.25v-2.17l1.25-.58c1.58-.75,3.16-2.33,3.16-3.25Z"/>
      <path class="cls-6" d="m285.19,240.54c-.42,0-.75.33-.75.67,0,.42.33.67.75.67.31,0,.58-.19.69-.42.04-.08.06-.16.06-.24,0-.42-.33-.67-.75-.67Z"/>
      <path class="cls-6" d="m224.39,228.46c-.93,1.4-.99,1.56-.66,1.58.02,0,.05,0,.07,0,.25,0,.75-.5,1.25-1.08.42-.58,1.17-1.75,1.5-2.67.33-.83.92-1.83,1.25-2.17.15-.19.23-.36.27-.51.08-.36-.18-.58-.75-.55-.13,0-.27.02-.44.06-.58.17-.83.33-1,.92,0,0,0,0,0,0-.33,1.75-1,3.58-1.5,4.41Z"/>
      <path class="cls-6" d="m220.06,221.55c-.42,0-1.25.33-1.92.83-2,1.5-4.25,1.25-5.41-.75-1-1.58-2-2.5-2.92-2.5-.62,0-.9.21-.87.48.03.23.28.49.79.69.5.17,1,.67,1.33,1.42,1.08,2.17,1.67,2.58,4.58,2.83l1.83.17.08,1.17c.08.67.17,1.17.33,1.17s.83-.25,1.58-.67c1.32-.66,2.55-2.29,2.66-3.37,0-.01,0-.03,0-.04,0-.67-1.08-1.42-2.08-1.42Zm0,2.92c-.17.58-.83.58-1.08.08-.25-.67.08-1.25.67-1.25s.75.42.42,1.17Z"/>
      <path class="cls-6" d="m262.27,233.34c-.41.05-1.26.7-1.4,1.12-.08.25.08.92.33,1.33.33.75.42,1.42.33,4.33-.1,2.23-.05,3.35.18,3.41.15.04.36-.35.65-1.16.25-.75.33-2.17.33-5-.08-2.08-.17-3.91-.25-4-.04-.04-.11-.04-.19-.04Z"/>
      <path class="cls-6" d="m294.86,234.13c.8-.61,1.62-1.41,2.31-2.25.53-.64.98-1.3,1.27-1.92.75-1.5.83-2,1-4.41,0,0,0,0,0,0,.02-.56.04-1.03.04-1.43,0-.4,0-.73-.02-1.01-.04-.56-.15-.94-.35-1.31-.36-.73-.54-.88-1.3-.91-.11,0-.23,0-.37,0h-.33c-.19,0-.34.01-.47.04-.26.05-.43.18-.62.42-.1.12-.2.27-.33.46-.31.44-.52,1.06-.62,1.72-.06.44-.08.89-.05,1.32.03.42.12.82.25,1.13.07.16.15.3.24.41.16.22.27.36.39.42.21.11.45,0,1.03-.25.94-.44,1.31-.55,1.44-.26.04.1.06.24.06.42,0,.69-.35,1.6-.93,2.57-.1.16-.2.32-.31.49-.22.33-.46.66-.72.99-.13.16-.26.33-.4.49-.55.65-1.17,1.28-1.82,1.84-.32.28-.65.54-.99.78-.04,0-.06.02-.08.04-.02.02-.04.04-.08.04-.67.5-1.33,1.08-1.42,1.25-.09.19-.01.29.19.32s.53-.04.93-.18c.27-.09.56-.22.87-.39.33-.25.75-.5,1.17-.83Zm2.93-10.36c-.03.41-.18.72-.43,1.03-.5.42-.58.42-1-.25-.67-1-.25-2.17.67-2.17.58,0,.67.08.75.92.02.17.02.33.01.47Z"/>
      <path class="cls-6" d="m280.95,210.22c-.33-1-.58-2-1-3-.08-.08-.17-.17-.25-.17-.58.25-.83.92-1.25,1.42-.17.08-.19.19-.14.3.04.1.14.2.23.29,1,1.17,1.42,2.67,1.92,4.08.38,1.27.8,2.63.77,3.98-.01.43-.07.85-.19,1.27-.25.67-.75,1.42-1.5,1.17-1.25-.08-2.42-.42-3.66-.42-1.08.08-1.92,1.08-3.08,1-.67.08-.67-1.5-1.33-1.08-.13.44-.17.91-.18,1.37,0,.41.01.82.01,1.21.08.17.42.08.67.08h2.25c.17.83.08,1.75.67,2.33.75.33,1.58.08,2.33-.25s.83-1.33,1.08-2.17c.25-.83,1.33-.58,1.92-.92,1.46-.41,2.44-1.92,2.41-3.46,0-.04,0-.08,0-.12-.08-2.42-1-4.66-1.67-6.91Zm-5.66,11.99c-.42-.58-.17-1.42.67-1.33.01,0,.02,0,.03,0,.81-.05,1.22.92.97,1.66-.12.33-.34.46-.58.47-.43.01-.93-.37-1.09-.8Z"/>
      <path class="cls-6" d="m285.86,203.98c-.42.42,0,1.25.5,1.08.19-.06.37-.22.49-.4.04-.06.07-.12.09-.18.08-.58-.67-.92-1.08-.5Z"/>
      <path class="cls-6" d="m300.94,190.15s0,0,0,0c0,0,0,0,0,0-.55-.26-1.08-.14-1.49.24-.39.36-.67.95-.76,1.68-.05.62-.04.92.16,1.16.05.06.12.12.2.18.08.06.17.12.28.18.04.02.07.04.1.06.67.42.83.67.67,1.25,0,0,0,0,0,0,0,0,0,0,0,0-.16.99.25,1.32.83.74.17-.17.33-.58.33-.92s.33-1,.67-1.5c.08-.12.17-.25.24-.37.23-.36.42-.67.42-.8,0-.5-.83-.5-1.49,0,0,0,0,0,0,0,0,0,0,0,0,0-.67.5-1.17.58-1.17,0h0c0-.17.33-.42.75-.58.5-.25.77-.5.81-.72.04-.23-.14-.44-.56-.61Z"/>
      <path class="cls-6" d="m309.18,183.65c-1.58-1.5-3.08-2.67-3.25-2.67-.09,0-.16.06-.22.15-.32.48-.19,2.04.3,2.18,1.08.33,1.67.75,3.33,2.33,1.92,1.75,2.75,3.41,2.33,4.33-.07.14-.15.24-.24.32-.47.46-1.1,0-2.51-1.57-.92-1-1.75-1.75-1.92-1.75-.06,0-.11.05-.16.12-.1.14-.17.38-.17.71,0,.58.33,1.17,1.17,2.17,1.28,1.43,1.53,2.38.78,3.16-.08.09-.17.17-.28.25-.42.33-.75.58-.92.58-.08,0-.42-.5-.67-1.08-.58-1.25-4.25-5.16-4.75-5.16-.08,0-.14.05-.19.11-.1.14-.15.41-.15.8,0,.75.17,1,.75,1.33.75.42,2.5,2.25,4.33,4.41.46.61.9,1.06,1.1,1.13.02,0,.05.03.06.03.08,0,.67-.42,1.25-1,.58-.5,1.08-1.17,1.08-1.33s.5-.75,1.08-1.17c1.58-1.25,1.92-2.58,1.17-4.58-.33-.75-1.25-1.92-3.33-3.83Z"/>
    </g>
  </g>
</svg>