<?xml version="1.0" encoding="UTF-8"?>
<svg id="Layer_2" data-name="Layer 2" xmlns="http://www.w3.org/2000/svg" viewBox="0 0 520 320">
  <defs>
    <style>
      .cls-1 {
        fill: #a3ab78;
      }

      .cls-1, .cls-2, .cls-3, .cls-4 {
        stroke-width: 0px;
      }

      .cls-2 {
        fill: #009e49;
      }

      .cls-3 {
        fill: #ef2b2d;
      }

      .cls-4 {
        fill: #fcd116;
      }
    </style>
  </defs>
  <g id="_500x300_Background" data-name="500x300 Background">
    <rect class="cls-1" width="520" height="320" rx="10" ry="10"/>
  </g>
  <g id="Burkina_Faso" data-name="Burkina Faso">
    <g>
      <polygon class="cls-2" points="280.22 166.54 292.63 204.83 260 181.19 227.37 204.83 239.78 166.54 230.79 160 10 160 10 310 510 310 510 160 289.21 160 280.22 166.54"/>
      <polygon class="cls-3" points="10 160 230.79 160 207.15 142.9 247.51 142.9 260 104.62 272.49 142.9 312.85 142.9 289.21 160 510 160 510 10 10 10 10 160"/>
      <polygon class="cls-4" points="227.37 204.83 260 181.19 292.63 204.83 280.22 166.54 289.21 160 312.85 142.9 272.49 142.9 260 104.62 247.51 142.9 207.15 142.9 230.79 160 239.78 166.54 227.37 204.83"/>
    </g>
  </g>
</svg>