<?xml version="1.0" encoding="UTF-8"?>
<svg id="Layer_2" data-name="Layer 2" xmlns="http://www.w3.org/2000/svg" viewBox="0 0 520 320">
  <defs>
    <style>
      .cls-1 {
        fill: #a3ab78;
      }

      .cls-1, .cls-2, .cls-3, .cls-4 {
        stroke-width: 0px;
      }

      .cls-2 {
        fill: #fff;
      }

      .cls-3 {
        fill: #1eb53a;
      }

      .cls-4 {
        fill: #ce1126;
      }
    </style>
  </defs>
  <g id="_500x300_Background" data-name="500x300 Background">
    <rect class="cls-1" width="520" height="320" rx="10" ry="10"/>
  </g>
  <g id="Burundi">
    <g>
      <path class="cls-4" d="m318.52,222.72c-15.43,13.83-35.97,22.26-58.52,22.26s-43.1-8.44-58.52-22.26h-.01s-148.4,87.28-148.4,87.28h413.87l-148.4-87.27h-.01Z"/>
      <path class="cls-4" d="m260,75.02c22.54,0,43.07,8.43,58.49,22.24L466.94,10H53.06l148.44,87.25c15.42-13.81,35.95-22.24,58.49-22.24Z"/>
      <path class="cls-3" d="m346.74,160c0,7.3-.94,14.38-2.7,21.14l165.97,97.55V41.31l-165.97,97.55c1.77,6.76,2.71,13.84,2.71,21.14Z"/>
      <path class="cls-3" d="m173.26,160c0-7.3.94-14.38,2.71-21.14L10,41.31v237.38l165.97-97.55c-1.77-6.76-2.7-13.84-2.7-21.14Z"/>
      <path class="cls-2" d="m344.03,181.14c1.77-6.76,2.7-13.84,2.7-21.14s-.94-14.38-2.71-21.14l165.97-97.55V10h-43.06l-148.44,87.25c-15.42-13.81-35.95-22.24-58.49-22.24s-43.07,8.43-58.49,22.24L53.06,10H10v31.31l165.97,97.55c-1.77,6.76-2.71,13.84-2.71,21.14s.94,14.38,2.7,21.14L10,278.69v31.31h43.06l148.4-87.27h.01c15.43,13.82,35.97,22.26,58.52,22.26s43.1-8.44,58.52-22.26h.01s148.4,87.28,148.4,87.28h43.06v-31.31l-165.97-97.55Zm-27.48,10.88h-11.81l-5.87,9.98-5.87-9.98h-11.81l5.87-9.98-5.87-9.98h11.81l5.87-9.98,5.87,9.98h11.81l-5.95,9.98,5.95,9.98Zm-62.42-85.98l5.87-9.98,5.87,9.98h11.81l-5.87,9.98,5.87,9.98h-11.81l-5.87,10.06-5.87-10.06h-11.81l5.87-9.98-5.87-9.98h11.81Zm-15.32,85.98h-11.81l-5.87,9.98-5.87-9.98h-11.81l5.95-9.98-5.95-9.98h11.81l5.87-9.98,5.87,9.98h11.81l-5.87,9.98,5.87,9.98Z"/>
      <path class="cls-3" d="m242.32,126.01h11.81l5.87,10.06,5.87-10.06h11.81l-5.87-9.98,5.87-9.98h-11.81l-5.87-9.98-5.87,9.98h-11.81l5.87,9.98-5.87,9.98Zm3.2-18.22h9.68l4.8-8.16,4.8,8.16h9.68l-4.8,8.23,4.8,8.23h-9.68l-4.8,8.16-4.8-8.16h-9.68l4.8-8.23-4.8-8.23Z"/>
      <path class="cls-3" d="m304.74,172.04l-5.87-9.98-5.87,9.98h-11.81l5.87,9.98-5.87,9.98h11.81l5.87,9.98,5.87-9.98h11.81l-5.95-9.98,5.95-9.98h-11.81Zm8.61,18.14h-9.68l-4.8,8.23-4.8-8.23h-9.68l4.8-8.23-4.8-8.16h9.68l4.8-8.23,4.8,8.23h9.68l-4.8,8.16,4.8,8.23Z"/>
      <path class="cls-3" d="m227,172.04l-5.87-9.98-5.87,9.98h-11.81l5.95,9.98-5.95,9.98h11.81l5.87,9.98,5.87-9.98h11.81l-5.87-9.98,5.87-9.98h-11.81Zm8.61,18.14h-9.68l-4.8,8.23-4.8-8.23h-9.68l4.8-8.23-4.8-8.16h9.68l4.8-8.23,4.8,8.23h9.68l-4.8,8.16,4.8,8.23Z"/>
      <polygon class="cls-4" points="245.52 124.25 255.2 124.25 260 132.41 264.8 124.25 274.48 124.25 269.68 116.02 274.48 107.79 264.8 107.79 260 99.63 255.2 107.79 245.52 107.79 250.32 116.02 245.52 124.25"/>
      <polygon class="cls-4" points="303.67 173.8 298.87 165.56 294.07 173.8 284.39 173.8 289.19 181.95 284.39 190.18 294.07 190.18 298.87 198.41 303.67 190.18 313.35 190.18 308.55 181.95 313.35 173.8 303.67 173.8"/>
      <polygon class="cls-4" points="225.93 173.8 221.13 165.56 216.33 173.8 206.65 173.8 211.45 181.95 206.65 190.18 216.33 190.18 221.13 198.41 225.93 190.18 235.61 190.18 230.81 181.95 235.61 173.8 225.93 173.8"/>
    </g>
  </g>
</svg>