<?xml version="1.0" encoding="UTF-8"?>
<svg id="Layer_2" data-name="Layer 2" xmlns="http://www.w3.org/2000/svg" viewBox="0 0 520 320">
  <defs>
    <style>
      .cls-1 {
        fill: #cf2027;
      }

      .cls-1, .cls-2, .cls-3, .cls-4, .cls-5 {
        stroke-width: 0px;
      }

      .cls-2 {
        fill: #a3ab78;
      }

      .cls-3 {
        fill: #fff;
      }

      .cls-4 {
        fill: #f7d116;
      }

      .cls-5 {
        fill: #003893;
      }
    </style>
  </defs>
  <g id="_500x300_Background" data-name="500x300 Background">
    <rect class="cls-2" width="520" height="320" rx="10" ry="10"/>
  </g>
  <g id="Cabo_Verde" data-name="Cabo Verde">
    <g>
      <rect class="cls-5" x="10" y="235" width="500" height="75"/>
      <rect class="cls-5" x="10" y="10" width="500" height="150"/>
      <rect class="cls-3" x="10" y="160" width="500" height="25"/>
      <rect class="cls-3" x="10" y="210" width="500" height="25"/>
      <rect class="cls-1" x="10" y="185" width="500" height="25"/>
      <g>
        <polygon class="cls-4" points="203.58 107.5 200.19 117.86 189.26 117.86 198.11 124.27 194.73 134.63 203.58 128.23 212.42 134.63 209.04 124.27 217.88 117.86 206.95 117.86 203.58 107.5"/>
        <polygon class="cls-4" points="206.95 267.87 203.58 257.5 200.19 267.87 189.26 267.87 198.11 274.27 194.73 284.64 203.58 278.23 212.42 284.64 209.04 274.27 217.88 267.87 206.95 267.87"/>
        <polygon class="cls-4" points="271.75 169.69 260.82 169.69 269.66 176.1 266.28 186.46 275.13 180.05 283.97 186.46 280.59 176.1 289.44 169.69 278.5 169.69 275.13 159.32 271.75 169.69"/>
        <polygon class="cls-4" points="137.49 222.45 146.33 216.04 135.39 216.04 132.02 205.68 128.64 216.04 117.71 216.04 126.55 222.45 123.18 232.81 132.02 226.4 140.86 232.81 137.49 222.45"/>
        <polygon class="cls-4" points="251.18 253.54 247.79 243.18 244.42 253.54 233.48 253.54 242.33 259.95 238.95 270.31 247.79 263.91 256.64 270.31 253.26 259.95 262.11 253.54 251.18 253.54"/>
        <polygon class="cls-4" points="153.88 138.6 150.51 148.96 159.35 142.55 168.2 148.96 164.82 138.6 173.66 132.19 162.73 132.19 159.35 121.82 155.97 132.19 145.04 132.19 153.88 138.6"/>
        <polygon class="cls-4" points="162.73 253.54 159.35 243.18 155.97 253.54 145.04 253.54 153.88 259.95 150.51 270.31 159.35 263.91 168.2 270.31 164.82 259.95 173.66 253.54 162.73 253.54"/>
        <polygon class="cls-4" points="242.33 138.6 238.95 148.96 247.79 142.55 256.64 148.96 253.26 138.6 262.11 132.19 251.18 132.19 247.79 121.82 244.42 132.19 233.48 132.19 242.33 138.6"/>
        <polygon class="cls-4" points="126.55 176.1 123.18 186.46 132.02 180.05 140.86 186.46 137.49 176.1 146.33 169.69 135.39 169.69 132.02 159.32 128.64 169.69 117.71 169.69 126.55 176.1"/>
        <polygon class="cls-4" points="278.5 216.04 275.13 205.68 271.75 216.04 260.82 216.04 269.66 222.45 266.28 232.81 275.13 226.4 283.97 232.81 280.59 222.45 289.44 216.04 278.5 216.04"/>
      </g>
    </g>
  </g>
</svg>