<?xml version="1.0" encoding="UTF-8"?>
<svg id="Layer_2" data-name="Layer 2" xmlns="http://www.w3.org/2000/svg" viewBox="0 0 520 320">
  <defs>
    <style>
      .cls-1 {
        fill: #032ea1;
      }

      .cls-1, .cls-2, .cls-3, .cls-4, .cls-5 {
        stroke-width: 0px;
      }

      .cls-2 {
        fill: #a3ab78;
      }

      .cls-4 {
        fill: #e00025;
      }

      .cls-5 {
        fill: #fff;
      }
    </style>
  </defs>
  <g id="_500x300_Background" data-name="500x300 Background">
    <rect class="cls-2" width="520" height="320" rx="10" ry="10"/>
  </g>
  <g id="Cambodia">
    <g>
      <rect class="cls-1" x="10" y="235" width="500" height="75"/>
      <rect class="cls-1" x="10" y="10" width="500" height="75"/>
      <rect class="cls-4" x="10" y="85" width="500" height="150"/>
      <g>
        <g>
          <polygon class="cls-5" points="221.19 169.18 222.53 169.18 222.87 169.52 222.87 181.65 224.75 181.65 224.75 169.52 225.01 169.18 227.63 169.18 227.96 169.52 227.96 181.65 230.11 181.65 230.11 169.52 230.44 169.18 233.06 169.18 233.39 169.52 233.39 181.65 235.54 181.65 235.54 169.52 235.87 169.18 238.49 169.18 238.75 169.52 238.75 181.65 240.63 181.65 240.63 169.52 240.97 169.18 242.37 169.18 242.37 167.57 221.19 167.57 221.19 169.18"/>
          <polygon class="cls-5" points="298.81 167.57 277.36 167.57 277.36 169.18 278.9 169.18 279.24 169.52 279.24 181.65 280.91 181.65 280.91 169.52 281.25 169.18 283.86 169.18 284.13 169.52 284.13 181.65 286.34 181.65 286.34 169.52 286.68 169.18 289.22 169.18 289.56 169.52 289.56 181.65 291.77 181.65 291.77 169.52 292.04 169.18 294.65 169.18 294.99 169.52 294.99 181.65 296.93 181.65 296.93 169.52 297.27 169.18 298.81 169.18 298.81 167.57"/>
          <polygon class="cls-5" points="221.19 163.08 241.7 163.08 240.83 161.94 222.06 161.94 221.19 163.08"/>
          <rect class="cls-5" x="279.5" y="156.65" width="17.69" height="1.27"/>
          <rect class="cls-5" x="222.8" y="156.65" width="17.02" height="1.27"/>
          <polygon class="cls-5" points="298.81 163.08 297.94 161.94 278.97 161.94 278.1 163.08 298.81 163.08"/>
          <rect class="cls-5" x="279.5" y="151.69" width="17.69" height="1.07"/>
          <rect class="cls-5" x="222.8" y="151.69" width="17.02" height="1.07"/>
          <rect class="cls-5" x="297.6" y="169.85" width="1.27" height="11.73"/>
          <polygon class="cls-5" points="298.81 163.75 277.63 163.75 277.36 164.02 277.36 166.9 298.81 166.9 298.81 163.75"/>
          <polygon class="cls-5" points="242.37 164.02 242.17 163.75 221.19 163.75 221.19 166.9 242.37 166.9 242.37 164.02"/>
          <rect class="cls-5" x="222.8" y="158.59" width="17.02" height="2.75"/>
          <polygon class="cls-5" points="297.2 158.59 279.5 158.59 279.5 161.07 279.64 161.07 279.5 161.21 279.5 161.27 297.2 161.27 297.2 158.59"/>
          <polygon class="cls-5" points="297.2 154.97 297.2 154.97 297.2 153.36 279.5 153.36 279.5 156.05 297.2 156.05 297.2 154.97"/>
          <polygon class="cls-5" points="222.8 156.05 239.83 156.05 239.83 153.36 222.8 153.36 222.8 154.97 222.8 154.97 222.8 156.05"/>
          <rect class="cls-5" x="241.3" y="169.85" width="1.07" height="11.73"/>
          <rect class="cls-5" x="277.36" y="169.85" width="1.21" height="11.73"/>
          <rect class="cls-5" x="221.19" y="169.85" width="1.07" height="11.73"/>
          <rect class="cls-5" x="225.35" y="169.85" width="1.94" height="11.73"/>
          <rect class="cls-5" x="230.78" y="169.85" width="1.94" height="11.73"/>
          <rect class="cls-5" x="236.21" y="169.85" width="1.94" height="11.73"/>
          <rect class="cls-5" x="281.58" y="169.85" width="1.94" height="11.73"/>
          <rect class="cls-5" x="286.94" y="169.85" width="1.94" height="11.73"/>
          <rect class="cls-5" x="292.37" y="169.85" width="1.94" height="11.73"/>
          <path class="cls-5" d="m296.93,185.47c.34-.2.67-.54.94-.87.07-.13.2-.2.27-.34s.13-.2.2-.34c.27-.47.47-1.07.47-1.61h-21.45c.07.54.4,1.14.87,1.61l.34.34c.13.13.27.2.4.34.4.34.87.67,1.34.87h16.62Z"/>
          <path class="cls-5" d="m223.07,185.47h17.02c.4-.2.8-.54,1.14-.87.13-.13.2-.2.27-.34s.13-.2.2-.34c.34-.47.54-1.07.6-1.61h-21.18c0,.54.2,1.14.47,1.61.07.13.13.2.2.34.07.13.13.2.27.34.34.34.67.6,1.01.87Z"/>
          <path class="cls-5" d="m331.25,185.47h.4c-.87-.74-1.68-1.81-2.14-3.08l-.74-.07c.2,1.21,1.41,2.48,2.48,3.15Z"/>
          <path class="cls-5" d="m190.56,182.32c-.4,1.27-1.27,2.35-2.14,3.08h.27c1.07-.67,2.35-1.94,2.41-3.15l-.54.07Z"/>
          <path class="cls-5" d="m260.6,98.94c-.2-.2-.4-.27-.67-.27s-.47.13-.67.27c-.47.54-.6,1.54-.67,2.14h2.61c0-.6-.13-1.68-.6-2.14Z"/>
          <path class="cls-5" d="m263.28,112.95l-1.41.74c.07.13.13.27.13.4.4-.54,1.14-.67,1.74-.8l.74-.2v2.41h1.88c-.07-.07-.07-.2-.13-.27-.2-.67.2-1.61.94-2.35.4-.47.47-1.07.13-1.68-.34.47-.74.74-1.07.8h-2.95v.94h0Z"/>
          <path class="cls-5" d="m267.31,135.8l-.34.34h-.67c-1.01.6-1.54,1.61-1.81,3.42.34.74.6,1.41.67,2.08,1.01-1.21,2.14-2.01,3.42-2.35l.4.34v2.35h1.21v-3.82c.07-1.27.74-1.88,1.27-2.41.47-.4.8-.74.8-1.34.07-.4.07-1.41,0-2.21-.6,1.41-1.27,1.47-1.61,1.47h-3.35v1.81h.13l-.13.07v.27Z"/>
          <path class="cls-5" d="m249.95,122.6c.4.67.8,1.41.8,2.35,0,.6-.13,1.07-.34,1.34h2.61v-2.01l.4-.34c1.07.34,1.94.94,2.48,1.68.2-.67.54-1.34.94-2.08l-2.01-1.88v-.87h-3.82c-1.07,0-1.21-.87-1.41-2.21,0-.13-.07-.34-.07-.47-.54.87-.6,2.08-.27,3.15.2.6.47,1.01.67,1.34Z"/>
          <path class="cls-5" d="m248.4,128.77c1.14,1.74,1.68,2.61,1.68,3.62,0,.27-.07.54-.2.74h2.55v-1.61l.4-.34c1.21.34,2.14.94,2.75,1.74.2-.6.54-1.21.94-1.88l-1.47-2.08h-1.68l-.34-.34v-1.74h-3.69c-1.07,0-1.47-1.07-1.74-2.61-.34,1.07-.4,2.61-.07,3.15.34.47.6.94.87,1.34Z"/>
          <path class="cls-5" d="m254.57,111.14c0,.13-.07.27-.07.34h2.28v-1.81l.67.2c.4.13.87.27,1.21.6.2-.54.47-.74.8-1.01.13-.07.27-.2.4-.34l.2-.2.2.2c.13.13.27.27.4.34.34.27.6.54.8,1.01.34-.4.8-.54,1.21-.6l.67-.2v1.81h2.01c-.07-.13-.07-.34-.07-.54l.54-2.82h-11.66l.4,3.02h0Z"/>
          <path class="cls-5" d="m252.43,133.66h-3.28c-.34.07-1.01-.07-1.61-1.47-.13.8-.07,1.74,0,2.21,0,.6.34.94.8,1.34.54.54,1.21,1.14,1.27,2.41v3.82h1.14v-2.35l.4-.34c1.54.4,2.61,1.41,3.42,2.35.13-.67.4-1.34.74-2.08-.27-1.88-.8-2.88-1.81-3.49h-.67l-.34-.34v-.27l-.13-.07h.13v-1.74h-.07Z"/>
          <path class="cls-5" d="m251.02,116.37c.47.8,1.47,2.55,1.07,3.69-.07.13-.13.27-.2.34h2.95v-2.68l.4.13c.13.07.27.07.34.13.74.2,1.54.47,2.01,1.21.13-.47.2-.87.34-1.21l-2.55-1.81h-3.15c-.54,0-.87-.47-1.21-1.54-.27.6-.47,1.27-.27,1.61l.27.13Z"/>
          <path class="cls-5" d="m267.51,116.03h-2.95l-2.55,1.81c.13.4.27.8.34,1.21.47-.74,1.34-1.01,2.01-1.21.13-.07.27-.07.34-.13l.4-.13v2.68h2.82c-.07-.13-.13-.2-.2-.34-.4-1.14.6-2.88,1.07-3.69l.13-.2c.13-.67-.07-1.27-.27-1.74-.34,1.27-.6,1.74-1.14,1.74h0Z"/>
          <path class="cls-5" d="m268.71,120.92h-3.55v.87l-2.21,2.01c.4.67.67,1.34.87,1.94.54-.8,1.41-1.41,2.48-1.74l.4.34v2.01h2.68c-.2-.27-.34-.67-.34-1.34,0-1.01.4-1.68.8-2.41.2-.4.47-.8.6-1.27.4-1.07.27-2.28-.27-3.15,0,.2-.07.34-.07.47-.2,1.41-.34,2.21-1.41,2.21v.07Z"/>
          <path class="cls-5" d="m270.72,126.89h-4.02v1.74l-.34.34h-1.68l-1.47,2.08c.4.67.74,1.34.94,1.94.6-.87,1.54-1.47,2.75-1.81l.4.34v1.61h2.61c-.13-.2-.2-.47-.2-.74,0-1.01.54-1.88,1.68-3.62.27-.4.54-.8.8-1.34.34-.54.27-2.08-.07-3.15-.2,1.41-.54,2.41-1.41,2.61h0Z"/>
          <path class="cls-5" d="m253.57,115.23c0,.13-.07.2-.13.27h2.01v-2.41l.74.2c.6.13,1.34.27,1.74.8.07-.13.13-.27.13-.4l-1.41-.74v-.87h-2.88c-.47.07-.94-.2-1.34-.8-.34.6-.27,1.21.13,1.61.87.74,1.21,1.68,1.01,2.35Z"/>
          <polygon class="cls-5" points="265.09 107.45 265.29 105.78 254.57 105.78 254.77 107.45 265.09 107.45"/>
          <polygon class="cls-5" points="264.29 105.11 264.49 103.83 255.38 103.83 255.51 105.11 264.29 105.11"/>
          <polygon class="cls-5" points="262.75 103.1 262.82 101.82 256.98 101.82 257.12 103.1 262.75 103.1"/>
          <path class="cls-5" d="m249.48,167.57v-5.76s0-.07-.07-.07h-7.91l.13.2.87,1.14.2.34.2.34.07.07v17.9h4.36v-12.13l.34-.34h1.81v-1.68Z"/>
          <path class="cls-5" d="m278.3,161.74h-8.11v7.51h1.94l.34.34v12.13h4.29v-17.9l.07-.07.27-.34.27-.34.87-1.14.07-.2Z"/>
          <path class="cls-5" d="m247.94,184.53c.13-.13.27-.2.34-.34l.34-.34c.47-.54.8-1.07.87-1.61h-6.43c0,.54-.2,1.14-.47,1.61-.07.13-.13.2-.2.34-.07.13-.13.2-.2.34-.27.34-.54.6-.87.87h5.43c.34-.2.74-.47,1.21-.87Z"/>
          <path class="cls-5" d="m279.03,185.47c-.4-.27-.74-.54-1.07-.87-.13-.13-.2-.2-.27-.34s-.2-.2-.27-.34c-.4-.54-.6-1.07-.67-1.61h-6.57c.07.54.47,1.07,1.07,1.61.13.13.27.2.4.34s.27.2.47.34c.47.34,1.01.67,1.47.87h5.43Z"/>
          <rect class="cls-5" x="247.94" y="169.85" width="1.47" height="11.73"/>
          <rect class="cls-5" x="270.19" y="169.85" width="1.61" height="11.73"/>
          <path class="cls-5" d="m277.69,144.45v7.57h0v7.91h-5.36c-.13.07-.2.13-.34.2-.54.34-1.07.67-1.41,1.07h8.31v-10.12l.07-9.85c-1.01.6-1.21,1.61-1.21,1.68l-.07,1.54h0Z"/>
          <path class="cls-5" d="m249.01,161.07c-.47-.54-1.21-.87-1.94-1.27h-5.16v-7.84h-.07v-9.12c-.07-.2-.4-1.07-1.34-1.68v20.04h0l8.51-.13h0Z"/>
          <path class="cls-5" d="m254.17,167.57v-2.75l-.74-1.07-.13-.27h-.4v-.6l-.07-.07h.07v-1.14h0v-.34h0v-.34h0v-1.34h-4.62c.6.34,1.07.74,1.47,1.34h0c.07.07.07.13.13.2,0,.07.07.07.07.13h0c0,.07.07.13.07.2v.13h0v19.91h4.09v-14.01h.07Z"/>
          <path class="cls-5" d="m265.56,166.9v14.75h3.95v-19.97h0v-.13c0-.07.07-.13.07-.2h0c0-.07.07-.07.07-.13s.07-.13.13-.2h0c.34-.54.87-.94,1.41-1.34h-4.36v1.34h0v.34h0v.34h0v1.14h0v.67h-.4l-.13.27-.74,1.07v2.08Z"/>
          <path class="cls-5" d="m272.27,185.47c-.4-.27-.8-.54-1.21-.87-.13-.13-.27-.2-.34-.34l-.34-.34c-.47-.47-.74-1.07-.8-1.61h-3.95c.07.54.34,1.14.74,1.61.07.13.2.2.27.34l.34.34c.34.34.74.67,1.14.87h4.16Z"/>
          <path class="cls-5" d="m253.23,184.26c.07-.13.2-.2.27-.34.4-.54.67-1.07.74-1.61h-4.09c-.07.54-.27,1.14-.67,1.61-.07.13-.13.2-.27.34-.07.13-.2.2-.27.34-.34.34-.67.6-1.07.87h3.89c.4-.2.8-.54,1.14-.87.07-.13.2-.27.34-.34Z"/>
          <polygon class="cls-5" points="275.75 151.09 275.75 151.35 275.75 151.42 275.75 151.69 275.75 151.69 275.75 151.96 275.75 152.76 275.75 153.1 275.75 153.36 275.75 155.17 277.02 155.17 277.02 153.36 277.02 153.1 277.02 152.76 277.02 151.96 277.02 151.69 277.02 151.69 277.02 151.42 277.02 151.35 277.02 151.09 277.02 145.12 275.75 145.12 275.75 151.09"/>
          <polygon class="cls-5" points="244.05 153.36 244.05 153.1 244.05 152.76 244.05 151.96 244.05 151.69 244.05 151.69 244.05 151.42 244.05 151.35 244.05 151.09 244.05 145.12 242.57 145.12 242.57 151.09 242.57 151.35 242.57 151.42 242.57 151.69 242.57 151.69 242.57 151.96 242.57 152.76 242.57 153.1 242.57 153.36 242.57 155.17 244.05 155.17 244.05 153.36"/>
          <path class="cls-5" d="m272.53,153.36v-4.02c-.8.4-1.54,1.01-2.14,1.68-.07.07-.13.2-.27.27,0,0,0,.07-.07.07-.07.07-.13.2-.2.27,0,0,0,.07-.07.07-.07.07-.13.2-.2.27-.2.27-.4.54-.54.8-.07.13-.13.2-.2.34-.07.13-.13.2-.2.34-.07.13-.13.2-.13.2l-.07.2h-.47v1.21h4.49v-1.68h.07Z"/>
          <path class="cls-5" d="m251.29,153.77l-.07-.2s-.07-.07-.13-.2c-.07-.07-.13-.2-.2-.34-.07-.07-.13-.2-.2-.34-.13-.2-.34-.47-.54-.8-.07-.07-.13-.2-.2-.27,0,0,0-.07-.07-.07-.07-.07-.13-.2-.2-.27,0,0,0-.07-.07-.07-.07-.07-.13-.2-.27-.27-.6-.67-1.34-1.27-2.08-1.68v5.7h4.49v-1.21h-.47Z"/>
          <path class="cls-5" d="m271.26,156.31c-.34.13-.74.2-1.14.34-.13.07-.27.07-.4.13-1.21.34-2.48.67-2.82,1.14-.07.07-.07.13-.07.27v.07h0v.87h10.25v-3.35h-4.42c-.13.07-.34.13-.47.2-.34.13-.67.27-.94.34Z"/>
          <path class="cls-5" d="m252.96,159.13v-.74l-.07-.13v-.07c0-.07,0-.13-.07-.27-.34-.47-1.54-.8-2.75-1.14-.13-.07-.27-.07-.4-.13-.34-.07-.74-.2-1.07-.34-.34-.07-.6-.2-.87-.34-.13-.07-.34-.13-.47-.2h-4.69v3.42h4.09l6.3-.07Z"/>
          <polygon class="cls-5" points="263.42 163.75 263.42 166.9 263.42 167.24 263.42 167.57 263.42 181.65 264.89 181.65 264.89 167.57 264.89 167.24 264.89 166.9 264.89 164.62 265.5 163.75 265.7 163.49 263.42 163.49 263.42 163.75"/>
          <polygon class="cls-5" points="254.24 163.75 254.84 164.62 254.84 166.9 254.84 167.24 254.84 167.57 254.84 181.65 256.31 181.65 256.31 167.57 256.31 167.24 256.31 166.9 256.31 163.75 256.31 163.49 254.1 163.49 254.24 163.75"/>
          <path class="cls-5" d="m266.9,185.47c-.34-.27-.67-.54-.94-.87-.07-.13-.2-.2-.27-.34s-.13-.2-.2-.34c-.34-.54-.54-1.07-.54-1.61h-1.47v3.15h3.42Z"/>
          <path class="cls-5" d="m254.84,182.32c0,.54-.27,1.14-.54,1.61-.07.13-.13.2-.2.34-.07.13-.13.2-.27.34-.27.34-.6.6-.94.87h3.42v-3.15h-1.47Z"/>
          <polygon class="cls-5" points="256.98 163.75 256.98 166.9 256.98 167.24 256.98 167.57 256.98 181.65 262.82 181.65 262.82 167.57 262.82 167.24 262.82 166.9 262.82 163.75 262.82 163.49 256.98 163.49 256.98 163.75"/>
          <polygon class="cls-5" points="256.98 182.32 256.98 183.93 256.98 184.26 256.98 184.53 256.98 185.4 262.82 185.4 262.82 184.53 262.82 184.26 262.82 183.93 262.82 182.32 262.82 182.32 256.98 182.32"/>
          <path class="cls-5" d="m266.7,155.84v1.41c.27-.2.67-.4,1.07-.54.34-.13.67-.2,1.01-.34.27-.07.47-.13.74-.2.13-.07.27-.07.47-.13.27-.07.54-.13.74-.2h-4.02Z"/>
          <path class="cls-5" d="m253.7,156.31v1.54q.07,0,.13.07c.27.07.54.2.74.34.2.07.34.2.47.34l.34.34c0,.07.07.07.07.13v-.13c0-.13,0-.27.07-.34,0-.13.07-.2.07-.34s.07-.2.07-.34c.13-.4.27-.87.4-1.27.07-.13.07-.2.13-.34s.07-.2.13-.34c.07-.07.07-.13.13-.2h-2.75v.54h0Z"/>
          <path class="cls-5" d="m263.55,156.31c.07.13.07.2.13.34.2.4.34.8.4,1.27,0,.13.07.2.07.34s.07.2.07.34.07.27.07.34v.13c0-.07.07-.07.13-.13.07-.13.2-.27.34-.34.13-.13.27-.2.47-.34.2-.13.47-.2.74-.34q.07,0,.13-.07v-2.08h-2.75c.07.07.07.13.13.2,0,.13,0,.27.07.34Z"/>
          <path class="cls-5" d="m250.21,156.18c.2.07.47.13.67.2.34.13.67.2,1.01.34.47.2.87.4,1.14.6v-1.54h-4.02c.27.07.47.13.74.2.13.07.34.13.47.2Z"/>
          <path class="cls-5" d="m247.27,143.04v5.7c1.21.54,2.21,1.47,2.95,2.41.07.07.13.2.2.27,0,0,0,.07.07.07.07.07.13.2.2.27,0,0,0,.07.07.07.07.07.13.2.2.27.2.27.4.54.54.8.07.13.13.2.2.34v.07h.07v-2.95l.47-.27c.47.2.8.4,1.14.74-.13-2.08-.54-4.36-1.68-5.97h-.6l-.34-.34v-1.94h-2.82v-.34c0-3.15-.07-4.42-.74-4.69v5.5h.07Z"/>
          <path class="cls-5" d="m271.93,142.31v.34h-2.88v1.94l-.34.34h-.47c-1.14,1.61-1.54,3.75-1.68,5.83.27-.27.6-.47,1.01-.6l.47.27v2.82h.07v-.07c.07-.07.13-.2.2-.34.13-.2.34-.47.54-.8.07-.07.13-.2.2-.27,0,0,0-.07.07-.07.07-.07.13-.2.2-.27,0,0,0-.07.07-.07.07-.07.13-.2.2-.27.8-.94,1.81-1.88,3.02-2.41v-11.06c-.54.34-.67,1.61-.67,4.69Z"/>
          <path class="cls-5" d="m275.08,153.36v-8.38c-.13-.07-.27-.13-.4-.27-.07-.07-.2-.2-.27-.34-.13-.13-.2-.34-.27-.6-.07-.2-.07-.54-.13-.8v-.13c0-1.27.34-2.28.87-2.82.34-.27.67-.47,1.07-.47v-3.02c-.87.27-2.88,1.14-2.88,4.29v14.34h1.94v-1.81h.07Z"/>
          <path class="cls-5" d="m245.72,142.91v.13c0,.54-.13,1.01-.27,1.27,0,.07-.07.13-.07.13-.07.13-.2.27-.27.34-.13.13-.27.2-.4.27v10.12h1.94v-14.88c-.13-2.82-2.01-3.69-2.82-3.89v3.02c.4.07.8.2,1.07.47.54.74.8,1.68.8,3.02Z"/>
          <path class="cls-5" d="m265.09,151.35q.07,0,0,0c0,.13.07.2.07.34v.34c0,.2.07.34.07.54.07-.2.2-.34.27-.54.07-.07.13-.2.13-.27,0,0,0-.07.07-.07.07-.07.13-.13.13-.2v-.4c.07-2.14.47-4.42,1.54-6.23h-4.62c1.01,1.74,1.88,3.89,2.21,6.23.13.07.13.2.13.27Z"/>
          <path class="cls-5" d="m253.97,151.35h0v.27h0s0,.07.07.07c.07.07.13.2.13.27.07.13.2.34.27.47,0-.2,0-.34.07-.47v-.34c0-.07,0-.2.07-.27v-.07c0-.07,0-.2.07-.27.34-2.28,1.21-4.49,2.28-6.23h-4.49c1.14,1.74,1.47,4.09,1.54,6.23v.34Z"/>
          <path class="cls-5" d="m259.66,111.47l.13-.13.2-.13.2.13.13.13c.2.13.4.34.6.54.27.27.54.6.74,1.01l1.01-.54v-2.01c-.54.13-.87.34-.94,1.01v.07h-.67v-.13c-.2-1.07-.4-1.27-.8-1.54l-.2-.2-.2.2c-.4.34-.67.47-.8,1.54v.13h-.67v-.07c-.07-.67-.4-.8-.94-1.01v2.01l1.01.54c.2-.4.4-.74.74-1.01.07-.13.27-.34.47-.54Z"/>
          <path class="cls-5" d="m256.11,113.89v1.81l.4.34,1.68,1.21c.2-.47.47-.87.74-1.21.13-.2.27-.34.47-.54l.34-.34.2-.2.2.2.34.34c.13.2.34.34.47.54.27.34.54.74.74,1.21l1.68-1.21.4-.34v-1.81c-.94.2-1.54.4-1.61,1.21h-.67c-.07-.47-.2-.87-.34-1.21-.07-.13-.07-.2-.13-.34s-.07-.2-.13-.34c-.27-.54-.6-.94-1.07-1.27-.47.34-.8.74-1.07,1.27-.07.13-.13.2-.13.34-.07.07-.07.2-.13.34-.13.34-.27.74-.34,1.21h-.67c.2-.8-.4-1.01-1.34-1.21Z"/>
          <path class="cls-5" d="m257.39,120.39c-.13-1.34-.94-1.54-1.88-1.81v2.95l1.74,1.61c.54-.8,1.07-1.54,1.74-2.21l.54-.54.13-.13h.4c.07.07.13.13.2.13.2.13.4.34.54.54.67.67,1.27,1.54,1.81,2.35l1.94-1.74v-2.95c-1.01.27-1.74.54-1.88,1.81v.13h-.67v-.13c-.13-.8-.27-1.54-.47-2.14-.07-.13-.07-.2-.13-.34s-.07-.2-.13-.34c-.27-.6-.6-1.14-1.01-1.54l-.2-.2-.2.2c-.4.47-.74.94-1.01,1.54-.07.13-.07.2-.13.34s-.07.2-.13.34c-.2.6-.34,1.27-.47,2.14v.13h-.67q0-.07-.07-.13Z"/>
          <path class="cls-5" d="m258.06,128.97h-2.21l1.07,1.54c.34-.54.74-1.07,1.14-1.54Z"/>
          <path class="cls-5" d="m263.89,128.97h-2.21c.4.47.8,1.01,1.14,1.47l1.07-1.47Z"/>
          <path class="cls-5" d="m264.09,138.62c.2-1.07.6-1.88,1.21-2.55h-3.02c.67.8,1.27,1.68,1.81,2.55Z"/>
          <path class="cls-5" d="m257.52,136.07h-3.02c.6.6,1.01,1.47,1.21,2.55.47-.87,1.14-1.74,1.81-2.55Z"/>
          <path class="cls-5" d="m256.45,126.76l-.54.07h-.07c-.07-.2-.13-.34-.2-.54-.4-.67-1.01-1.21-1.88-1.54v3.49h4.96c.34-.34.67-.67,1.01-.94h.4c.34.27.74.6,1.07.94h4.96v-3.49c-.8.34-1.41.87-1.81,1.54-.07.2-.2.34-.27.54h-.2l-.47-.07c0-.13,0-.27-.07-.47-.13-.54-.4-1.27-.8-2.08-.07-.07-.13-.2-.13-.27-.07-.07-.13-.2-.13-.27-.6-1.01-1.41-2.08-2.21-2.82h0c-.8.8-1.54,1.74-2.14,2.61-.07.07-.13.2-.2.27-.07.07-.13.2-.2.27-.47.8-.8,1.61-.94,2.21-.13.27-.13.4-.13.54Z"/>
          <path class="cls-5" d="m256.11,133.66v.27l-.6.13c-.07-.13-.13-.27-.2-.4-.07-.2-.2-.34-.34-.54-.4-.54-1.07-.94-1.81-1.21v3.55h4.96c.54-.54,1.14-1.01,1.61-1.34h.34c.54.34,1.07.8,1.61,1.34h4.96v-3.55c-.74.27-1.34.67-1.81,1.21-.13.13-.27.34-.34.54-.07.13-.13.27-.2.4l-.6-.13v-.27c0-.13-.07-.34-.13-.54-.13-.47-.4-.94-.67-1.47-.07-.13-.13-.2-.2-.34-.07-.07-.13-.2-.2-.27-.47-.74-1.01-1.41-1.61-2.08l-.34-.34h0l-.34-.34c-.13-.07-.2-.2-.34-.27l-.27.27-.34.34h0l-.34.34c-.6.67-1.21,1.41-1.68,2.08-.07.07-.13.2-.2.27-.07.13-.13.2-.2.27-.34.54-.54,1.07-.67,1.47,0,.27-.07.4-.07.6Z"/>
          <path class="cls-5" d="m257.32,144.18c.13-.2.2-.34.34-.47.07-.13.13-.2.27-.34.07-.13.2-.2.27-.34.13-.13.2-.27.34-.4l.34-.34h0c.13-.13.27-.2.34-.34.13-.07.2-.13.34-.2.07-.07.13-.13.2-.13h.34c.07.07.13.07.2.13.07.07.2.13.34.2.13.07.27.2.34.34h0l.34.34c.13.13.2.27.34.4.07.13.2.2.27.34s.13.2.27.34c.13.13.2.34.34.47,0,0,0,.07.07.07h5.97v-1.94h0v-2.28c-.94.34-1.81,1.01-2.61,1.94-.07.13-.2.2-.27.34h0c-.07.13-.13.2-.27.34h-.07l-.54-.2v-.13h0v-.34c-.07-.34-.13-.67-.27-1.07-.07-.2-.13-.47-.27-.67-.07-.2-.13-.4-.27-.6-.6-1.27-1.54-2.55-2.48-3.55h0l-.34-.34h0l-.34-.34c-.27-.27-.6-.47-.87-.67-.27.2-.6.4-.87.67l-.34.34h0l-.34.34h0c-.94,1.01-1.88,2.28-2.48,3.55-.07.2-.2.4-.27.54-.07.2-.2.47-.27.67-.13.4-.2.74-.27,1.07v.34h0v.13l-.54.2h-.07c-.07-.13-.13-.2-.27-.34h0c-.07-.13-.2-.2-.27-.34-.6-.74-1.47-1.54-2.61-1.94v4.22h5.97Z"/>
          <path class="cls-5" d="m267.37,154.97v-4.09c-.07.07-.13.07-.2.13-.13.07-.2.2-.34.27l-.07.07-.27.27h0l-.07.07c-.07.07-.13.2-.2.27,0,.07-.07.07-.07.13-.13.2-.2.4-.34.6v.07c-.07.13-.13.2-.13.34v.07c-.07.07-.07.2-.13.27v.07c0,.07-.07.07-.07.13s-.07.13-.07.2c-.07.13-.07.2-.13.34l-.6-.13v-1.27c0-.27,0-.54-.07-.8,0-.07,0-.2-.07-.27v-.07c0-.07,0-.2-.07-.27v-.07c0-.07,0-.2-.07-.27-.4-2.35-1.34-4.56-2.35-6.23,0,0,0-.07-.07-.07-.07-.07-.13-.2-.13-.27,0,0,0-.07-.07-.07-.07-.07-.13-.2-.2-.27,0,0,0-.07-.07-.07-.13-.2-.27-.34-.34-.47s-.2-.2-.27-.34-.2-.2-.27-.34l-.4-.4c-.13-.13-.27-.2-.4-.34h0l-.07-.07-.07.07h0c-.13.07-.27.2-.4.34l-.4.4c-.07.07-.2.2-.27.34s-.2.2-.27.34c-.13.13-.27.34-.34.47,0,0,0,.07-.07.07-.07.07-.13.2-.2.27,0,0,0,.07-.07.07-.07.07-.13.2-.13.27,0,0,0,.07-.07.07-1.07,1.68-1.94,3.89-2.35,6.23,0,.07,0,.2-.07.27v.07c0,.07,0,.2-.07.27v.07c0,.07,0,.2-.07.27,0,.27-.07.54-.07.8v1.27l-.6.13c-.07-.13-.13-.2-.13-.34-.07-.07-.07-.13-.13-.27,0,0,0-.07-.07-.07v-.07c-.07-.07-.07-.2-.13-.27v-.07s0-.07-.07-.07c-.07-.07-.07-.13-.13-.2-.07-.13-.13-.27-.2-.4-.07-.13-.13-.27-.2-.4,0-.07-.07-.07-.07-.13s-.07-.07-.13-.13c0,0,0-.07-.07-.07-.07-.07-.13-.2-.27-.27l-.07-.07c-.13-.07-.2-.2-.34-.27-.07-.07-.13-.07-.2-.13v4.36h4.42c.07-.07.07-.13.13-.2.07-.07.13-.13.13-.27.07-.13.13-.2.2-.34.07-.13.13-.2.27-.34.07-.13.2-.27.27-.34.07-.13.2-.2.27-.34l.07-.07.27-.27.07-.07.34-.34c.27-.27.6-.47.87-.67l.2-.13.2.13c.27.2.6.4.87.67l.34.34.07.07.27.27.07.07c.07.13.2.2.27.34s.2.2.27.34.13.2.27.34c.07.13.13.2.2.34.07.07.13.13.13.27.07.07.07.13.13.2h4.42v-.34h.27Z"/>
          <path class="cls-5" d="m266.17,162.88h0v-1.14h0v-.34h0v-.34h0v-1.54h0v-1.01q-.07,0-.07.07h0q-.07,0-.13.07c-.27.07-.4.2-.6.34-.07.07-.2.13-.27.2,0,0-.07.07-.07.13-.07.07-.13.13-.13.2s-.07.07-.07.13c-.07.07-.07.13-.13.2-.07.07-.07.2-.13.34v.07c-.07.13-.13.2-.2.34l-.6-.13v-1.41c0-.13-.07-.27-.07-.34,0-.13-.07-.2-.07-.34s-.07-.2-.07-.34c-.13-.4-.27-.87-.47-1.27-.07-.13-.07-.2-.13-.34s-.13-.2-.13-.34c-.07-.07-.07-.13-.13-.2h0c0-.07-.07-.13-.13-.2,0-.07-.07-.07-.07-.13-.07-.07-.07-.13-.13-.2,0-.07-.07-.07-.07-.13h0c-.07-.07-.07-.13-.13-.2-.07-.07-.13-.13-.2-.27-.07-.13-.13-.2-.27-.34-.07-.13-.2-.2-.27-.34-.13-.13-.2-.27-.34-.34l-.34-.34-.07-.07c-.13-.07-.2-.2-.34-.27l-.07-.07c-.13-.13-.27-.2-.4-.34h0c-.13.07-.27.2-.4.34l-.07.07c-.13.07-.2.2-.34.27l-.07.07-.34.34-.34.34c-.07.13-.2.2-.27.34s-.13.2-.27.34c-.07.07-.13.13-.2.27-.07.07-.07.13-.13.2h0c0,.07-.07.07-.07.13-.07.07-.07.13-.13.2,0,.07-.07.07-.07.13-.07.07-.07.13-.13.2h0c-.07.07-.07.13-.13.2-.07.13-.13.2-.13.34-.07.13-.07.2-.13.34-.2.4-.34.8-.47,1.27,0,.13-.07.2-.07.34s-.07.2-.07.34-.07.27-.07.34v1.41l-.6.13c-.07-.13-.13-.27-.13-.34,0,0,0-.07-.07-.07-.07-.07-.07-.2-.13-.27s-.07-.13-.13-.2c0-.07-.07-.07-.07-.13-.07-.07-.07-.13-.13-.2,0-.07-.07-.07-.07-.13-.07-.07-.13-.13-.27-.2-.2-.13-.4-.27-.74-.34h-.13v.94h0v1.68h0v.34h0v.34h0v1.14h12.67v-.27Z"/>
          <path class="cls-5" d="m190.7,166.57v15.08h.54v-18.57l-.74-1.34h-1.01v-11.06c0-.07-.07-.13-.13-.27s-.2-.34-.34-.54c-.34-.54-.87-1.14-1.61-1.27v13.94h0c1.21.34,2.75,2.08,3.28,4.02Z"/>
          <polygon class="cls-5" points="197.47 181.65 197.47 164.09 195.05 161.74 192.51 161.74 192.51 161.74 192.24 161.74 192.24 161.74 191.9 161.74 191.9 161.74 191.17 161.74 191.84 162.95 191.84 181.65 191.84 181.65 192.57 181.65 192.84 181.65 193.18 181.65 193.51 181.65 193.51 169.52 193.78 169.18 196.39 169.18 196.73 169.52 196.73 181.65 197.47 181.65"/>
          <polygon class="cls-5" points="219.65 161.74 219.32 161.74 219.12 161.74 218.98 161.74 216.7 161.74 214.29 164.09 214.29 181.65 215.7 181.65 215.7 169.52 216.03 169.18 218.58 169.18 218.91 169.52 218.91 181.65 218.98 181.65 219.32 181.65 219.65 181.65 219.65 181.65 219.99 181.65 220.52 181.65 220.52 181.58 220.52 169.85 220.52 169.52 220.52 169.18 220.52 167.57 220.52 167.24 220.52 166.9 220.52 163.75 220.52 163.42 220.52 163.08 220.52 162.88 221.26 161.94 221.46 161.74 220.66 161.74 220.66 161.74 219.65 161.74"/>
          <path class="cls-5" d="m197.47,182.32h-5.63c-.07,1.21-.94,2.35-1.94,3.15h5.16c1.07-.67,2.35-1.94,2.41-3.15Z"/>
          <path class="cls-5" d="m214.29,182.32c.07,1.21,1.34,2.48,2.41,3.15h5.36c-.27-.27-.54-.54-.74-.87-.07-.13-.13-.2-.2-.34-.07-.13-.13-.2-.2-.34-.27-.54-.4-1.07-.4-1.61h-6.23Z"/>
          <polygon class="cls-5" points="213.62 163.82 215.76 161.74 213.28 161.74 213.28 162.82 213.28 162.82 213.28 162.88 213.28 163.49 212.82 163.49 211.27 165.76 211.27 181.65 213.62 181.65 213.62 163.82"/>
          <polygon class="cls-5" points="200.48 165.76 198.94 163.49 198.54 163.49 198.54 162.88 198.47 162.82 198.54 162.82 198.54 161.74 195.99 161.74 198.14 163.82 198.14 181.65 200.48 181.65 200.48 165.76"/>
          <path class="cls-5" d="m213.75,185.47h1.88c-1.01-.8-1.88-1.94-1.94-3.15h-2.35c0,1.21,1.27,2.48,2.41,3.15Z"/>
          <path class="cls-5" d="m200.48,182.32h-2.35c-.07,1.21-.94,2.35-1.94,3.15h1.88c1.07-.67,2.28-1.94,2.41-3.15Z"/>
          <polygon class="cls-5" points="210.6 165.56 212.08 163.49 209.46 163.49 209.46 181.65 210.6 181.65 210.6 165.56"/>
          <polygon class="cls-5" points="201.15 165.56 201.15 181.65 202.29 181.65 202.29 163.49 199.68 163.49 201.15 165.56"/>
          <path class="cls-5" d="m212.01,185.47h.6c-1.01-.8-1.88-1.94-1.94-3.15h-1.21v3.15h2.55Z"/>
          <path class="cls-5" d="m201.09,182.32c-.07,1.21-.94,2.35-1.94,3.15h3.15v-3.15h-1.21Z"/>
          <rect class="cls-5" x="202.96" y="163.49" width="5.83" height="18.16"/>
          <polygon class="cls-5" points="202.96 182.32 202.96 185.4 208.79 185.4 208.79 182.32 208.79 182.32 202.96 182.32"/>
          <rect class="cls-5" x="194.12" y="169.85" width="1.94" height="11.73"/>
          <rect class="cls-5" x="216.37" y="169.85" width="1.94" height="11.73"/>
          <path class="cls-5" d="m194.32,158.93v-9.99h-2.41v7.44c1.01.74,1.81,1.47,2.41,2.55Z"/>
          <rect class="cls-5" x="191.9" y="146.6" width="2.41" height="1.74"/>
          <path class="cls-5" d="m219.32,157.18c.13-.07.2-.2.34-.27s.2-.2.34-.27c.13-.13.27-.2.47-.34.07-.07.2-.13.27-.2v-4.42h-2.95v7.51c.34-.67.74-1.27,1.21-1.74.13-.07.2-.13.34-.27Z"/>
          <path class="cls-5" d="m195.12,160.94h3.42v-3.28l.47.2c.74.27,1.41.67,1.94,1.01.13-.34.2-.74.34-1.07-.8-.87-2.21-2.61-2.68-3.49l-.07-.07v-4.49l.34.07c.2,0,.4.07.6.13-.47-.74-.87-1.47-.94-2.01v-4.49l.34.07c1.14.13,2.14.87,2.95,2.14.2-.67.4-1.34.6-1.94-.6-.67-1.88-2.08-2.14-3.02v-3.02l.34.07c.74.07,1.54.27,2.21,1.01,0-.07.07-.07.07-.13l-1.61-2.01v-2.88l.34.07c.67.07,1.07.27,1.47.8.07-.13.13-.27.2-.4l-.6-1.47v-2.28l.34.07c.4.07.67.13.94.4.07-.07.07-.13.13-.2l-1.41-1.27v-1.94l.34.07c.4.07.67.13.94.4.34-.8,1.01-1.41,1.81-1.81l.13-.07.13.07c.8.4,1.41,1.07,1.81,1.88.27-.27.54-.4.94-.4l.34-.07v1.94l-1.41,1.27c.07.07.07.13.13.2.27-.27.54-.4.94-.4l.34-.07v2.41l-.6,1.41c.07.13.13.27.2.47.4-.54.87-.74,1.47-.8l.34-.07v2.88l-1.61,2.01c0,.07.07.07.07.13.67-.74,1.41-.94,2.21-1.01l.34-.07v2.95c-.13,1.01-1.47,2.41-2.14,3.08.2.6.4,1.21.6,1.88.8-1.21,1.81-1.94,2.95-2.14l.34-.07v4.42c0,.54-.4,1.27-.87,2.01.13-.07.34-.07.47-.13l.34-.07v4.56c-.4,1.01-2.21,2.95-2.88,3.75.07.27.2.6.27.87.6-.4,1.27-.74,2.01-1.07l.47-.2v3.28h3.82v-20.64c-.07.2-.2.4-.27.54-.47.94-1.07,2.28-2.48,2.28-.54,0-.8-.27-.94-.47-.4-.67-.07-1.68.34-2.35.4-.74,1.01-1.74.54-3.62-.54.94-1.27,1.41-1.81,1.27-.27-.07-.54-.4-.4-1.01.2-.67.47-1.21.67-1.61.4-.74.74-1.34.54-2.55-.27.6-.6,1.01-.94,1.14-.27.07-.54.07-.74-.13-.27-.27-.34-.74-.2-1.27.13-.4.27-.8.4-1.14.34-.8.54-1.47.2-2.61-.34,1.01-.74,1.47-1.14,1.41-.27,0-.67-.27-.67-1.54v-.2c0-2.48,0-4.83-2.82-5.7l-.2-.07v-.2c-.07-.67-.34-2.01-1.01-2.01-.6,0-.94,1.34-1.01,2.01v.2l-.2.07c-2.82.87-2.82,3.22-2.82,5.7v.2c0,1.27-.47,1.54-.67,1.54-.4.07-.8-.4-1.14-1.41-.34,1.14-.07,1.74.2,2.61.13.34.27.67.4,1.14.13.54.07,1.01-.2,1.27-.2.2-.47.2-.74.13-.4-.13-.74-.54-.94-1.14-.2,1.21.13,1.81.54,2.55.27.47.54.94.67,1.61.13.6-.07.87-.4,1.01-.54.13-1.27-.34-1.81-1.27-.47,1.88.13,2.95.54,3.62.4.67.67,1.74.34,2.35-.13.2-.4.47-.94.47-1.41,0-2.01-1.27-2.48-2.28-.07-.13-.13-.34-.27-.54v20.17c0,.07.07.13.07.2-.07,0-.07.13,0,.2Z"/>
          <path class="cls-5" d="m190.56,155.58c.13.07.27.13.4.2h0c.13.07.27.13.34.2v-.07h0v-10.92c-.47-.2-.8-.2-1.14,0v5.56h0v1.47h0v1.47h0v1.74c.07.2.27.27.4.34h0Z"/>
          <path class="cls-5" d="m191.1,156.65h0c-.13-.07-.27-.13-.4-.27-.2-.13-.4-.2-.54-.34v4.96h4.36c0-.13-.07-.2-.07-.27s-.07-.13-.07-.2c-.47-1.54-1.34-2.55-2.41-3.42h0c-.13-.07-.2-.13-.34-.27h0c-.07,0-.07-.07-.13-.07h0c-.07-.07-.13-.07-.2-.13h0c-.07.07-.13.07-.2,0Z"/>
          <path class="cls-5" d="m221.73,155.58c.13-.07.2-.13.34-.2.07,0,.07-.07.13-.07v-4.56c-.27-.07-.6-.07-.8,0v.27h0v.67h0v4.02h0c.07,0,.2-.07.34-.13Z"/>
          <path class="cls-5" d="m219.65,157.79l-.13.13-.2.2c-.13.13-.2.27-.34.4-.47.67-.87,1.41-1.07,2.35,0,.07-.07.13-.07.2h4.42v-5.09h0c-.07,0-.07.07-.13.07-.13.07-.2.13-.34.2,0,0-.07,0-.07.07-.07.07-.2.13-.27.13h0c-.07.07-.13.07-.2.13l-.07.07c-.13.07-.2.13-.34.2-.54.34-.87.67-1.21.94Z"/>
          <path class="cls-5" d="m204.5,129.91c.34-.4.8-.8,1.27-1.07l.13-.07.13.07c.54.27.94.67,1.27,1.07h.07l1.14-.94v-.94c-.13.07-.34.2-.54.47l-.4.54-.2-.6c-.27-.8-.8-1.47-1.54-1.94-.74.47-1.27,1.07-1.54,1.88l-.2.6-.4-.54c-.2-.27-.34-.4-.54-.47v.94l1.34,1.01h0Z"/>
          <path class="cls-5" d="m203.36,131.05v1.41l.4.94c.4-.4.87-.74,1.41-1.01.2-.13.4-.2.6-.34l.2-.13.2.13c.2.13.34.2.47.27.6.34,1.07.67,1.54,1.07l.47-1.01v-1.41c-.13.07-.34.2-.54.47l-.4.54-.2-.6c-.07-.34-.27-.6-.4-.87-.07-.13-.13-.2-.2-.34-.07-.13-.2-.2-.34-.34-.2-.13-.34-.34-.6-.4-.2.13-.4.27-.6.4l-.34.34c-.07.13-.13.2-.27.34-.2.27-.34.54-.4.87l-.2.6-.4-.54c-.07-.2-.2-.34-.4-.4Z"/>
          <path class="cls-5" d="m202.96,135.34c-.4-.6-.67-.8-1.01-.94v1.94l1.21,1.54c.6-1.14,1.41-1.74,2.68-2.55l.2-.13.2.13c1.27.8,2.08,1.41,2.68,2.55l1.21-1.54v-1.94c-.4.13-.67.4-1.01,1.01l-.4.6-.2-.74c-.13-.4-.27-.74-.47-1.07-.07-.13-.13-.2-.27-.34l-.34-.34c-.27-.2-.6-.4-1.01-.67-.13-.07-.2-.13-.34-.2-.13.07-.27.2-.4.27-.34.2-.67.4-.94.6-.13.07-.27.2-.34.34-.07.07-.2.2-.27.34-.2.27-.34.6-.4,1.01l-.2.74-.6-.6Z"/>
          <path class="cls-5" d="m200.88,138.35v2.21c.2.67,1.07,1.74,1.74,2.48.67-1.61,1.54-2.82,2.68-3.75.13-.13.27-.2.4-.34l.07-.07.2-.13.2.13.07.07c.13.13.27.2.4.34,1.14,1.01,2.01,2.21,2.68,3.82.74-.74,1.68-1.81,1.74-2.48v-2.21c-.74.13-1.27.4-1.74,1.21l-.4.67-.2-.74c0-.13-.07-.2-.07-.34-.07-.13-.07-.27-.13-.4s-.07-.2-.13-.34c-.47-1.14-1.21-1.68-2.35-2.41-1.21.8-1.88,1.34-2.35,2.48-.07.13-.07.2-.13.34s-.07.27-.13.4c0,.13-.07.2-.07.34l-.2.74-.4-.67c-.54-.87-1.14-1.21-1.88-1.34Z"/>
          <path class="cls-5" d="m202.09,147.4l-.4-.8c-.67-1.27-1.54-2.14-2.48-2.41v3.69c.07.6.8,1.68,1.54,2.75.4.34.8.74,1.07,1.27.74-2.95,1.88-4.76,3.95-6.3l.2-.13.2.13c2.08,1.54,3.22,3.35,3.95,6.3.4-.6.8-1.01,1.27-1.41.74-1.01,1.41-2.08,1.41-2.68v-3.62c-1.01.27-1.81,1.14-2.48,2.41l-.4.8-.2-.87c-.2-.87-.4-1.68-.67-2.41-.07-.13-.07-.2-.13-.34s-.07-.2-.13-.34c-.67-1.68-1.61-2.95-2.82-3.95-1.21,1.01-2.14,2.21-2.82,3.95-.07.13-.07.2-.13.34s-.07.2-.13.34c-.27.74-.47,1.54-.67,2.41l-.13.87Z"/>
          <path class="cls-5" d="m199.14,154.03c.47.8,1.61,2.14,2.35,3.08.6-1.34,1.47-2.68,3.02-3.95.13-.13.27-.2.4-.34s.27-.2.4-.34c.13-.07.2-.13.34-.27l.2-.13.2.13c.13.07.2.13.34.27.13.13.27.2.4.34s.27.2.4.34c1.61,1.34,2.48,2.75,3.08,4.22.8-.87,2.14-2.41,2.55-3.28v-3.62c-.34.07-.67.27-.94.47-.6.4-1.14,1.07-1.54,1.94l-.07.07-.4.74-.13-.54-.07-.34h0c0-.13-.07-.2-.07-.34-.67-2.95-1.74-4.76-3.62-6.23-1.88,1.47-2.95,3.28-3.62,6.23,0,.13-.07.2-.07.34h0l-.07.34-.13.54-.4-.74-.07-.07c-.4-.8-.87-1.41-1.41-1.81-.34-.27-.74-.47-1.07-.6v3.55h0Z"/>
          <path class="cls-5" d="m209.73,157.79c-.67-1.74-1.68-3.22-3.62-4.69-.07-.07-.2-.13-.27-.2-.13.07-.2.13-.27.2-1.88,1.41-2.88,2.88-3.55,4.49-.07.13-.07.2-.13.34s-.07.2-.13.34c-.07.27-.2.6-.27.87.4.34.74.6,1.01.94.2-.67.4-1.21.6-1.68.07-.13.13-.2.13-.34.07-.13.13-.2.13-.34.54-1.01,1.27-1.88,2.14-2.82l.27-.27.47.54c.74.87,1.41,1.61,2.01,2.55.07.13.13.2.2.34.07.13.13.2.13.34.27.54.47,1.07.67,1.74.27-.34.54-.6.94-.87-.07-.27-.13-.54-.27-.8-.07-.13-.07-.2-.13-.34.07-.13,0-.2-.07-.34Z"/>
          <path class="cls-5" d="m200.75,159.46c-.47-.34-1.01-.6-1.61-.87v2.88h0v1.41h13.4v-1.41h0v-2.88c-.6.27-1.21.6-1.68.94-.07.07-.2.13-.27.2-.07.07-.2.13-.27.2-.34.34-.67.6-.87.94h0c0,.07-.07.13-.07.13h0l-.07.13h0l-.07.2h0l-.07.13h0l-.07.2-.07.13-.07-.13-.07-.2h0v-.13h0l-.07-.2h0v-.27h0c-.2-1.01-.54-1.74-.94-2.48-.07-.13-.13-.2-.2-.34-.07-.13-.13-.2-.2-.34-.47-.74-1.07-1.41-1.74-2.14h0c-.67.74-1.21,1.41-1.61,2.14-.07.13-.13.2-.2.34-.07.13-.13.2-.13.34-.34.67-.6,1.47-.87,2.48h0v.27h0l-.07.2h0v.13h0l-.07.2-.07.13-.07-.13-.07-.2h0l-.07-.13h0l-.07-.2h0l-.07-.13h0c0-.07-.07-.13-.07-.13h0c-.2-.34-.54-.67-.94-1.01-.07-.07-.2-.13-.27-.2-.2-.07-.27-.13-.4-.2Z"/>
          <path class="cls-5" d="m328.83,163.08v18.57h.54v-15.08c.47-1.94,2.01-3.69,3.28-4.16h0v-13.94c-.74.13-1.27.74-1.61,1.27-.13.2-.2.4-.34.54-.07.13-.13.27-.13.27v11.06h-1.01l-.74,1.47Z"/>
          <polygon class="cls-5" points="305.71 181.65 305.71 164.09 303.3 161.74 301.82 161.74 301.69 161.74 301.49 161.74 301.15 161.74 299.34 161.74 299.34 161.74 298.61 161.74 298.74 161.94 299.48 162.88 299.48 163.08 299.48 163.42 299.48 163.75 299.48 166.9 299.48 167.24 299.48 167.57 299.48 169.18 299.48 169.52 299.48 169.85 299.48 181.58 299.48 181.65 299.81 181.65 300.15 181.65 301.09 181.65 301.09 169.52 301.15 169.45 301.42 169.18 301.49 169.18 301.82 169.18 303.97 169.18 304.3 169.52 304.3 181.65 305.71 181.65"/>
          <path class="cls-5" d="m305.71,182.32h-6.23c0,.54-.2,1.14-.4,1.61-.07.13-.13.2-.2.34-.07.13-.13.2-.2.34-.2.34-.47.6-.74.87h5.36c1.07-.67,2.35-1.94,2.41-3.15Z"/>
          <path class="cls-5" d="m328.16,182.32h-5.63c.07,1.21,1.34,2.48,2.41,3.15h5.16c-.94-.8-1.88-1.94-1.94-3.15h0Z"/>
          <polygon class="cls-5" points="328.1 161.74 327.83 161.74 327.83 161.74 327.49 161.74 327.49 161.74 324.95 161.74 322.53 164.09 322.53 181.65 323.27 181.65 323.27 169.52 323.61 169.18 326.22 169.18 326.55 169.52 326.55 181.65 326.82 181.65 326.82 181.65 327.16 181.65 327.49 181.65 328.16 181.65 328.16 181.65 328.16 162.95 328.83 161.74 328.1 161.74"/>
          <polygon class="cls-5" points="321.46 163.49 321.13 163.49 319.52 165.76 319.52 181.65 321.86 181.65 321.86 163.82 324.01 161.74 321.46 161.74 321.46 162.82 321.53 162.82 321.46 162.88 321.46 163.49"/>
          <polygon class="cls-5" points="308.73 165.76 307.18 163.49 306.72 163.49 306.72 162.88 306.72 162.82 306.72 162.82 306.72 161.74 304.24 161.74 306.38 163.82 306.38 181.65 308.73 181.65 308.73 165.76"/>
          <path class="cls-5" d="m321.86,182.32h-2.35c.07,1.21,1.34,2.48,2.41,3.15h1.88c-.94-.8-1.88-1.94-1.94-3.15Z"/>
          <path class="cls-5" d="m308.73,182.32h-2.35c-.07,1.21-.94,2.35-1.94,3.15h1.88c1.07-.67,2.35-1.94,2.41-3.15Z"/>
          <polygon class="cls-5" points="317.71 181.65 318.91 181.65 318.91 165.56 320.32 163.49 317.71 163.49 317.71 181.65"/>
          <polygon class="cls-5" points="309.4 165.56 309.4 181.65 310.6 181.65 310.6 163.49 307.99 163.49 309.4 165.56"/>
          <path class="cls-5" d="m317.71,182.32v3.15h3.15c-1.01-.8-1.88-1.94-1.94-3.15h-1.21Z"/>
          <path class="cls-5" d="m309.4,182.32c-.07,1.21-.94,2.35-1.94,3.15h3.22v-3.15h-1.27Z"/>
          <rect class="cls-5" x="311.21" y="163.49" width="5.83" height="18.16"/>
          <polygon class="cls-5" points="311.21 182.32 311.21 185.4 317.04 185.4 317.04 182.32 317.04 182.32 311.21 182.32"/>
          <rect class="cls-5" x="323.94" y="169.85" width="1.94" height="11.73"/>
          <polygon class="cls-5" points="301.76 169.85 301.76 181.58 301.82 181.58 303.7 181.58 303.7 169.85 301.82 169.85 301.76 169.85"/>
          <path class="cls-5" d="m328.1,156.45v-7.44h-2.41v9.99c.6-1.14,1.47-1.88,2.41-2.55Z"/>
          <rect class="cls-5" x="325.68" y="146.6" width="2.41" height="1.74"/>
          <path class="cls-5" d="m300.01,156.65c.4.34.8.67,1.14,1.01.07.07.13.13.2.27l.13.13c.13.13.2.27.34.47.13.27.34.47.47.74v-7.51h-3.02v4.42c.07.07.2.13.27.2.2.07.34.2.47.27Z"/>
          <path class="cls-5" d="m306.72,160.94v-3.28l.47.2c.74.34,1.47.67,2.01,1.07.07-.27.2-.6.27-.87-.74-.8-2.48-2.75-2.88-3.75v-4.56l.34.07c.2,0,.34.07.47.13-.47-.74-.87-1.47-.87-2.01v-4.42l.34.07c1.14.13,2.14.87,2.95,2.14.2-.67.34-1.34.6-1.88-.67-.67-2.01-2.08-2.14-3.02v-3.02l.34.07c.74.07,1.54.27,2.21,1.01,0-.07.07-.07.07-.13l-1.61-2.01v-2.88l.34.07c.6.07,1.07.27,1.47.8.07-.13.13-.34.2-.47l-.67-1.47v-2.28l.34.07c.4.07.67.13.94.4.07-.07.07-.13.13-.2l-1.41-1.27v-1.94l.34.07c.4.07.67.13.94.4.4-.8,1.01-1.47,1.81-1.88l.13-.07.13.07c.8.47,1.47,1.07,1.81,1.81.27-.2.54-.34.94-.4l.34-.07v1.94l-1.41,1.27c.07.07.07.13.13.2.27-.27.54-.34.94-.4l.34-.07v2.41l-.6,1.34c.07.13.13.27.2.4.4-.47.87-.67,1.47-.8l.34-.07v2.88l-1.61,2.01c0,.07.07.07.07.13.67-.74,1.41-.94,2.21-1.01l.34-.07v3.02c-.27.94-1.54,2.35-2.14,3.02.2.6.4,1.21.6,1.94.8-1.21,1.81-1.94,2.95-2.14l.34-.07v4.42c-.07.54-.47,1.27-.94,2.01.2-.07.4-.13.6-.13l.34-.07v4.49l-.07.07c-.47.87-1.94,2.61-2.68,3.49.13.34.27.67.34,1.07.6-.34,1.21-.74,1.94-1.01l.47-.2v3.28h3.42c0-.07.07-.2.07-.27s.07-.13.07-.2v-11.8h0v-8.31c-.07.2-.2.4-.27.54-.47.94-1.07,2.28-2.48,2.28-.54,0-.8-.27-.94-.47-.4-.67-.07-1.68.34-2.35.4-.74,1.01-1.74.54-3.62-.54.94-1.27,1.41-1.81,1.27-.27-.07-.54-.4-.4-1.01.2-.67.47-1.21.67-1.61.4-.74.74-1.34.54-2.55-.27.6-.6,1.01-.94,1.14-.27.07-.54.07-.74-.13-.27-.27-.34-.74-.2-1.27.13-.4.27-.8.4-1.14.34-.8.54-1.47.2-2.61-.34,1.01-.74,1.47-1.14,1.41-.27,0-.67-.27-.67-1.54v-.2c0-2.48,0-4.83-2.82-5.7l-.2-.07v-.2c-.07-.67-.34-2.01-1.01-2.01-.6,0-.94,1.34-1.01,2.01v.2l-.2.07c-2.82.87-2.82,3.22-2.82,5.7v.2c0,1.27-.47,1.54-.67,1.54-.4.07-.8-.4-1.14-1.41-.34,1.14-.07,1.74.2,2.61.13.34.27.67.4,1.14.13.54.07,1.01-.2,1.27-.2.2-.47.2-.74.13-.4-.13-.74-.54-.94-1.14-.2,1.21.13,1.81.54,2.55.27.47.54.94.67,1.61.13.6-.07.87-.4,1.01-.54.13-1.27-.34-1.81-1.27-.47,1.88.13,2.95.54,3.62.4.67.67,1.74.34,2.35-.13.2-.4.47-.94.47-1.41,0-2.01-1.27-2.48-2.28-.07-.13-.13-.34-.27-.54v20.64h3.82Z"/>
          <path class="cls-5" d="m329.1,155.78c.13-.07.27-.13.4-.2h0c.13-.07.27-.13.47-.27v-1.74h0v-1.47h0v-1.47h0v-5.56c-.34-.2-.74-.2-1.14,0v10.92h0v.07c0-.13.13-.2.27-.27h0Z"/>
          <path class="cls-5" d="m327.63,161.07h2.28v-4.96c-.2.13-.4.2-.54.34h0c-.13.07-.27.13-.4.2h0c-.07.07-.13.07-.13.13h0c-.07.07-.13.07-.2.13h0s-.07.07-.13.07h0c-.13.07-.2.13-.34.27h0c-1.07.8-1.94,1.88-2.41,3.42,0,.07-.07.13-.07.2,0,.13-.07.2-.07.27h2.01v-.07Z"/>
          <path class="cls-5" d="m298.34,155.58c.13.07.2.13.34.2h0v-4.02h0v-.67h0v-.27c-.2-.07-.54-.07-.8,0v4.56c.07,0,.07.07.13.07.07,0,.2.07.34.13Z"/>
          <path class="cls-5" d="m297.94,161.01h4.29c0-.07-.07-.13-.07-.2-.07-.34-.2-.67-.34-.94-.07-.27-.2-.47-.34-.67-.07-.2-.2-.34-.34-.47-.07-.07-.07-.13-.13-.13-.07-.13-.2-.2-.27-.34s-.2-.2-.27-.34c-.34-.34-.74-.67-1.21-1.01-.13-.07-.2-.13-.34-.2l-.07-.07c-.07-.07-.13-.07-.2-.13h0c-.07-.07-.2-.13-.27-.13,0,0-.07,0-.07-.07-.13-.07-.2-.13-.34-.2-.07,0-.07-.07-.13-.07h0v5.09h.07v-.13Z"/>
          <path class="cls-5" d="m312.61,129.91c.34-.4.8-.8,1.27-1.07l.13-.07.13.07c.54.27.94.67,1.27,1.07h.07l1.14-.94v-.94c-.2.07-.34.2-.54.47l-.4.54-.2-.6c-.27-.8-.8-1.47-1.54-1.88-.74.47-1.27,1.14-1.54,1.94l-.2.6-.4-.54c-.2-.27-.34-.4-.54-.47v.94l1.14.94h.2v-.07Z"/>
          <path class="cls-5" d="m311.41,131.05v1.41l.47,1.01c.4-.47.94-.74,1.54-1.07.13-.07.34-.2.47-.27l.2-.13.2.13c.2.13.4.27.6.34.54.34,1.07.6,1.47,1.01l.4-.94v-1.41c-.2.07-.34.2-.54.47l-.4.54-.2-.6c-.07-.34-.27-.6-.4-.87-.07-.13-.13-.2-.27-.34-.07-.13-.2-.2-.34-.34-.2-.13-.34-.34-.6-.4-.2.13-.4.27-.6.4l-.34.34c-.07.13-.13.2-.2.34-.2.27-.34.54-.4.87l-.2.6-.4-.54c-.13-.34-.34-.47-.47-.54Z"/>
          <path class="cls-5" d="m311.01,135.4c-.4-.6-.67-.87-1.01-1.01v1.94l1.21,1.54c.6-1.14,1.41-1.74,2.68-2.55l.2-.13.2.13c1.27.8,2.08,1.41,2.68,2.55l1.21-1.54v-1.94c-.4.13-.67.34-1.01.94l-.4.6-.2-.74c-.13-.4-.27-.74-.4-1.01-.07-.13-.13-.2-.27-.34l-.34-.34c-.27-.2-.6-.4-.94-.6-.13-.07-.27-.13-.4-.27-.13.07-.2.13-.34.2-.4.2-.74.4-1.01.67-.13.07-.27.2-.34.34-.07.07-.2.2-.27.34-.2.27-.34.6-.47,1.07l-.2.74-.6-.6Z"/>
          <path class="cls-5" d="m308.93,138.35v2.21c.07.6,1.07,1.68,1.74,2.41.67-1.61,1.54-2.82,2.68-3.82.13-.13.27-.2.4-.34l.07-.07.2-.13.2.13.07.07c.13.13.27.2.4.34,1.14,1.01,2.01,2.21,2.68,3.75.67-.74,1.61-1.81,1.74-2.48v-2.21c-.74.13-1.27.4-1.74,1.21l-.4.67-.2-.74c0-.13-.07-.2-.07-.34-.07-.13-.07-.27-.13-.4s-.07-.2-.13-.34c-.47-1.14-1.21-1.68-2.35-2.48-1.21.8-1.88,1.34-2.35,2.41-.07.13-.07.2-.13.34s-.07.27-.13.4c0,.13-.07.2-.07.34l-.2.74-.4-.67c-.54-.54-1.14-.87-1.88-1.01Z"/>
          <path class="cls-5" d="m310.13,147.4l-.4-.8c-.67-1.27-1.54-2.14-2.48-2.41v3.69c0,.54.67,1.61,1.41,2.61.47.34.87.8,1.27,1.41.74-2.95,1.88-4.76,3.95-6.3l.2-.13.2.13c2.08,1.54,3.22,3.35,3.95,6.3.34-.54.67-.94,1.07-1.27.74-1.07,1.47-2.21,1.61-2.82v-3.62c-1.01.27-1.81,1.14-2.48,2.41l-.4.8-.2-.87c-.2-.87-.4-1.68-.67-2.41-.07-.13-.07-.2-.13-.34s-.07-.2-.13-.34c-.67-1.68-1.61-2.95-2.82-3.95-1.21,1.01-2.14,2.21-2.82,3.95-.07.13-.07.2-.13.34s-.07.2-.13.34c-.27.74-.47,1.54-.67,2.41l-.2.87Z"/>
          <path class="cls-5" d="m320.86,150.42c-.4.13-.74.34-1.07.6-.54.4-1.01,1.01-1.41,1.81l-.07.07-.4.74-.13-.54-.07-.34h0c0-.13-.07-.2-.07-.34-.67-2.95-1.74-4.76-3.62-6.23-1.88,1.47-2.95,3.28-3.62,6.23,0,.13-.07.2-.07.34h0l-.07.34-.13.54-.4-.74-.07-.07c-.47-.87-.94-1.47-1.54-1.94-.34-.2-.6-.4-.94-.47v3.62c.4.87,1.74,2.41,2.55,3.28.6-1.47,1.47-2.82,3.08-4.22.13-.13.27-.2.4-.34s.27-.2.4-.34c.13-.07.2-.13.34-.27l.2-.13.2.13c.13.07.2.13.34.27.13.13.27.2.4.34s.27.2.4.34c1.47,1.27,2.41,2.61,3.02,3.95.74-.87,1.94-2.28,2.35-3.08v-3.55h0Z"/>
          <path class="cls-5" d="m318.11,157.99c-.07-.13-.07-.2-.13-.34-.67-1.68-1.68-3.08-3.55-4.49-.07-.07-.2-.13-.27-.2-.13.07-.2.13-.27.2-1.94,1.47-2.95,2.95-3.62,4.69-.07.13-.07.2-.13.34s-.07.2-.13.34c-.07.27-.13.54-.27.8.4.27.67.6.94.87.2-.67.4-1.21.67-1.74.07-.13.13-.2.13-.34.07-.13.13-.2.2-.34.54-.94,1.21-1.68,2.01-2.55l.47-.54.27.27c.87,1.01,1.54,1.81,2.14,2.82.07.13.13.2.13.34.07.13.13.2.13.34.2.54.4,1.07.6,1.68.27-.34.6-.67,1.01-.94-.07-.34-.2-.6-.27-.87,0-.13,0-.27-.07-.34Z"/>
          <path class="cls-5" d="m320.86,162.88h0v-1.47h0v-2.88c-.6.27-1.14.54-1.61.87-.07.07-.2.13-.27.2-.07.07-.2.13-.27.2-.4.34-.74.67-.94,1.01h0c0,.07-.07.13-.07.13h0l-.07.13h0l-.07.2h0l-.07.13h0l-.07.2-.07.13-.07-.13-.07-.2h0v-.13h0l-.07-.2h0v-.27h0c-.2-1.01-.54-1.74-.87-2.48-.07-.13-.13-.2-.13-.34-.07-.13-.13-.2-.2-.34-.47-.74-1.01-1.41-1.61-2.14h0c-.67.74-1.21,1.41-1.74,2.14-.07.13-.13.2-.2.34-.07.13-.13.2-.2.34-.4.67-.67,1.47-.94,2.48h0v.27h0l-.07.2h0v.13h0l-.07.2-.07.13-.07-.13-.07-.2h0l-.07-.13h0l-.07-.2h0l-.07-.13h0c0-.07-.07-.13-.07-.13h0c-.2-.34-.47-.6-.87-.94-.07-.07-.2-.13-.27-.2-.07-.07-.2-.13-.27-.2-.47-.34-1.01-.67-1.68-.94v2.88h0v1.41h13.27v.07Z"/>
          <rect class="cls-5" x="212.01" y="204.84" width="41.69" height="8.71"/>
          <rect class="cls-5" x="265.9" y="204.84" width="41.96" height="8.71"/>
          <rect class="cls-5" x="171.73" y="204.84" width="28.02" height="8.71"/>
          <rect class="cls-5" x="320.19" y="204.84" width="28.08" height="8.71"/>
          <polygon class="cls-5" points="348.87 214.16 320.19 214.16 320.19 214.22 320.19 222.94 352.9 222.94 352.9 214.16 348.87 214.16"/>
          <polygon class="cls-5" points="167.04 214.16 167.04 222.94 199.75 222.94 199.75 214.22 199.75 214.16 171.13 214.16 167.04 214.16"/>
          <polygon class="cls-5" points="253.7 214.16 212.01 214.16 212.01 214.22 212.01 222.94 253.7 222.94 253.7 214.22 253.7 214.16"/>
          <polygon class="cls-5" points="265.9 214.22 265.9 222.94 307.92 222.94 307.92 214.22 307.92 214.16 265.9 214.16 265.9 214.22"/>
          <rect class="cls-5" x="212.01" y="190.76" width="41.69" height="5.36"/>
          <rect class="cls-5" x="320.19" y="190.76" width="18.77" height="5.36"/>
          <rect class="cls-5" x="181.05" y="190.76" width="18.7" height="5.36"/>
          <rect class="cls-5" x="265.9" y="190.76" width="41.96" height="5.36"/>
          <polygon class="cls-5" points="176.42 196.8 176.42 204.1 199.75 204.1 199.75 196.86 199.75 196.8 180.38 196.8 176.42 196.8"/>
          <polygon class="cls-5" points="265.9 196.86 265.9 204.1 307.92 204.1 307.92 196.86 307.92 196.8 265.9 196.8 265.9 196.86"/>
          <polygon class="cls-5" points="320.19 196.86 320.19 204.1 343.58 204.1 343.58 196.8 339.62 196.8 320.19 196.8 320.19 196.86"/>
          <polygon class="cls-5" points="253.7 196.8 212.01 196.8 212.01 196.86 212.01 204.1 253.7 204.1 253.7 196.86 253.7 196.8"/>
          <polygon class="cls-5" points="253.7 186.07 251.42 186.07 246.26 186.07 239.69 186.07 223.4 186.07 217.04 186.07 214.09 186.07 212.01 186.07 212.01 186.27 212.01 190.09 253.7 190.09 253.7 186.27 253.7 186.27 253.7 186.07"/>
          <polygon class="cls-5" points="194.72 186.07 188.42 186.07 187.14 186.07 183.79 186.07 183.79 190.09 199.75 190.09 199.75 186.27 199.75 186.07 197.67 186.07 194.72 186.07"/>
          <polygon class="cls-5" points="325.35 186.07 322.33 186.07 320.19 186.07 320.19 186.27 320.19 190.09 336.21 190.09 336.21 186.07 333.06 186.07 331.58 186.07 325.35 186.07"/>
          <polygon class="cls-5" points="302.96 186.07 296.6 186.07 280.71 186.07 273.94 186.07 268.38 186.07 265.9 186.07 265.9 186.27 265.9 186.27 265.9 190.09 307.92 190.09 307.92 186.27 307.92 186.07 305.98 186.07 302.96 186.07"/>
          <polygon class="cls-5" points="200.42 186.27 200.42 190.09 200.42 190.09 200.42 190.36 200.42 190.43 200.42 190.7 200.42 190.76 200.42 196.13 200.42 196.19 200.42 196.46 200.42 196.53 200.42 196.8 200.42 196.86 200.42 204.1 200.42 204.17 200.42 204.44 200.42 204.5 200.42 204.77 200.42 204.84 200.42 213.55 200.42 213.55 200.42 213.89 200.42 213.89 200.42 214.16 200.42 214.22 200.42 222.87 202.29 222.87 202.29 214.22 202.29 214.16 202.29 213.89 202.29 213.89 202.29 213.55 202.29 213.55 202.29 204.84 202.29 204.77 202.29 204.5 202.29 204.44 202.29 204.17 202.29 204.1 202.29 196.86 202.29 196.8 202.29 196.53 202.29 196.46 202.29 196.19 202.29 196.13 202.29 190.76 202.29 190.7 202.29 190.43 202.29 190.36 202.29 190.09 202.29 190.09 202.29 186.27 202.29 186.14 200.42 186.14 200.42 186.27"/>
          <polygon class="cls-5" points="209.46 186.27 209.46 190.09 209.46 190.09 209.46 190.36 209.46 190.43 209.46 190.7 209.46 190.76 209.46 196.13 209.46 196.19 209.46 196.46 209.46 196.53 209.46 196.8 209.46 196.86 209.46 204.1 209.46 204.17 209.46 204.44 209.46 204.5 209.46 204.77 209.46 204.84 209.46 213.55 209.46 213.55 209.46 213.89 209.46 213.89 209.46 214.16 209.46 214.22 209.46 222.87 211.27 222.87 211.27 214.22 211.27 214.16 211.27 213.89 211.27 213.89 211.27 213.55 211.27 213.55 211.27 204.84 211.27 204.77 211.27 204.5 211.27 204.44 211.27 204.17 211.27 204.1 211.27 196.86 211.27 196.8 211.27 196.53 211.27 196.46 211.27 196.19 211.27 196.13 211.27 190.76 211.27 190.7 211.27 190.43 211.27 190.36 211.27 190.09 211.27 190.09 211.27 186.27 211.27 186.14 209.46 186.14 209.46 186.27"/>
          <rect class="cls-5" x="203.03" y="209.46" width="5.76" height="4.02"/>
          <polygon class="cls-5" points="203.03 204.84 203.03 208.79 208.73 208.79 208.73 204.84 208.73 204.77 203.03 204.77 203.03 204.84"/>
          <polygon class="cls-5" points="203.03 222.87 203.03 222.87 208.73 222.87 208.73 222.87 208.73 218.85 203.03 218.85 203.03 222.87"/>
          <polygon class="cls-5" points="203.03 214.16 203.03 214.22 203.03 218.18 208.73 218.18 208.73 214.22 208.73 214.16 208.73 214.16 203.03 214.16"/>
          <polygon class="cls-5" points="203.03 196.13 203.03 196.19 203.03 196.46 203.03 196.53 203.03 196.8 203.03 196.86 203.03 199.48 208.73 199.48 208.73 196.86 208.73 196.8 208.73 196.53 208.73 196.46 208.73 196.19 208.73 196.13 208.73 195.39 203.03 195.39 203.03 196.13"/>
          <polygon class="cls-5" points="203.03 190.76 203.03 194.79 208.73 194.79 208.73 190.76 208.73 190.7 203.03 190.7 203.03 190.76"/>
          <polygon class="cls-5" points="203.03 204.1 203.03 204.17 208.73 204.17 208.73 204.1 208.73 200.08 203.03 200.08 203.03 204.1"/>
          <polygon class="cls-5" points="203.03 186.14 203.03 186.27 203.03 186.27 203.03 190.09 203.03 190.09 208.73 190.09 208.73 190.09 208.73 186.27 208.73 186.27 208.73 186.14 208.73 186.14 203.03 186.14"/>
          <polygon class="cls-5" points="254.37 186.27 254.37 186.27 254.37 190.09 254.37 190.09 254.37 190.36 254.37 190.43 254.37 190.7 254.37 190.76 254.37 196.13 254.37 196.19 254.37 196.46 254.37 196.53 254.37 196.8 254.37 196.86 254.37 204.1 254.37 204.17 254.37 204.44 254.37 204.5 254.37 204.77 254.37 204.84 254.37 213.55 254.37 213.55 254.37 213.89 254.37 213.89 254.37 214.16 254.37 214.22 254.37 222.87 256.31 222.87 256.31 214.22 256.31 214.16 256.31 213.89 256.31 213.89 256.31 213.55 256.31 213.55 256.31 204.84 256.31 204.77 256.31 204.5 256.31 204.44 256.31 204.17 256.31 204.1 256.31 196.86 256.31 196.8 256.31 196.53 256.31 196.46 256.31 196.19 256.31 196.13 256.31 190.76 256.31 190.7 256.31 190.43 256.31 190.36 256.31 190.09 256.31 190.09 256.31 186.27 256.31 186.27 256.31 186.14 254.37 186.14 254.37 186.27"/>
          <polygon class="cls-5" points="263.42 186.27 263.42 186.27 263.42 186.27 263.42 190.09 263.42 190.09 263.42 190.36 263.42 190.43 263.42 190.7 263.42 190.76 263.42 196.13 263.42 196.19 263.42 196.46 263.42 196.53 263.42 196.8 263.42 196.86 263.42 204.1 263.42 204.17 263.42 204.44 263.42 204.5 263.42 204.77 263.42 204.84 263.42 213.55 263.42 213.55 263.42 213.89 263.42 213.89 263.42 214.16 263.42 214.22 263.42 222.87 265.23 222.87 265.23 214.22 265.23 214.16 265.23 213.89 265.23 213.89 265.23 213.55 265.23 213.55 265.23 204.84 265.23 204.77 265.23 204.5 265.23 204.44 265.23 204.17 265.23 204.1 265.23 196.86 265.23 196.8 265.23 196.53 265.23 196.46 265.23 196.19 265.23 196.13 265.23 190.76 265.23 190.7 265.23 190.43 265.23 190.36 265.23 190.09 265.23 190.09 265.23 186.27 265.23 186.27 265.23 186.14 263.42 186.14 263.42 186.27"/>
          <rect class="cls-5" x="256.98" y="209.46" width="5.76" height="4.02"/>
          <polygon class="cls-5" points="256.98 204.84 256.98 208.86 262.75 208.86 262.75 204.84 262.75 204.77 256.98 204.77 256.98 204.84"/>
          <polygon class="cls-5" points="256.98 222.87 256.98 222.87 262.75 222.87 262.75 222.87 262.75 218.85 256.98 218.85 256.98 222.87"/>
          <polygon class="cls-5" points="256.98 214.16 256.98 214.22 256.98 218.18 262.75 218.18 262.75 214.22 262.75 214.16 262.75 214.16 256.98 214.16"/>
          <polygon class="cls-5" points="256.98 196.13 256.98 196.19 256.98 196.46 256.98 196.53 256.98 196.8 256.98 196.86 256.98 199.48 262.75 199.48 262.75 196.86 262.75 196.8 262.75 196.53 262.75 196.46 262.75 196.19 262.75 196.13 262.75 195.39 256.98 195.39 256.98 196.13"/>
          <polygon class="cls-5" points="256.98 190.76 256.98 194.79 262.75 194.79 262.75 190.76 262.75 190.7 256.98 190.7 256.98 190.76"/>
          <polygon class="cls-5" points="256.98 204.1 256.98 204.17 262.75 204.17 262.75 204.1 262.75 200.08 256.98 200.08 256.98 204.1"/>
          <polygon class="cls-5" points="256.98 186.14 256.98 186.27 256.98 186.27 256.98 186.27 256.98 190.09 256.98 190.09 262.75 190.09 262.75 190.09 262.75 186.27 262.75 186.27 262.75 186.27 262.75 186.14 262.75 186.14 256.98 186.14"/>
          <polygon class="cls-5" points="308.59 186.27 308.59 190.09 308.59 190.09 308.59 190.36 308.59 190.43 308.59 190.7 308.59 190.76 308.59 196.13 308.59 196.19 308.59 196.46 308.59 196.53 308.59 196.8 308.59 196.86 308.59 204.1 308.59 204.17 308.59 204.44 308.59 204.5 308.59 204.77 308.59 204.84 308.59 213.55 308.59 213.55 308.59 213.89 308.59 213.89 308.59 214.16 308.59 214.22 308.59 222.87 310.47 222.87 310.47 214.22 310.47 214.16 310.47 213.89 310.47 213.89 310.47 213.55 310.47 213.55 310.47 204.84 310.47 204.77 310.47 204.5 310.47 204.44 310.47 204.17 310.47 204.1 310.47 196.86 310.47 196.8 310.47 196.53 310.47 196.46 310.47 196.19 310.47 196.13 310.47 190.76 310.47 190.7 310.47 190.43 310.47 190.36 310.47 190.09 310.47 190.09 310.47 186.27 310.47 186.14 308.59 186.14 308.59 186.27"/>
          <polygon class="cls-5" points="317.57 186.14 317.57 186.27 317.57 186.27 317.57 190.09 317.57 190.09 317.57 190.36 317.57 190.43 317.57 190.7 317.57 190.76 317.57 196.13 317.57 196.19 317.57 196.46 317.57 196.53 317.57 196.8 317.57 196.86 317.57 204.1 317.57 204.17 317.57 204.44 317.57 204.5 317.57 204.77 317.57 204.84 317.57 213.55 317.57 213.55 317.57 213.89 317.57 213.89 317.57 214.16 317.57 214.22 317.57 222.87 319.45 222.87 319.45 214.22 319.45 214.16 319.45 213.89 319.45 213.89 319.45 213.55 319.45 213.55 319.45 204.84 319.45 204.77 319.45 204.5 319.45 204.44 319.45 204.17 319.45 204.1 319.45 196.86 319.45 196.8 319.45 196.53 319.45 196.46 319.45 196.19 319.45 196.13 319.45 190.76 319.45 190.7 319.45 190.43 319.45 190.36 319.45 190.09 319.45 190.09 319.45 186.27 319.45 186.14 317.71 186.14 317.57 186.14"/>
          <rect class="cls-5" x="311.14" y="209.46" width="5.76" height="4.02"/>
          <polygon class="cls-5" points="311.14 204.84 311.14 208.79 316.9 208.79 316.9 204.84 316.9 204.77 311.14 204.77 311.14 204.84"/>
          <polygon class="cls-5" points="311.14 222.87 311.14 222.87 316.9 222.87 316.9 222.87 316.9 218.85 311.14 218.85 311.14 222.87"/>
          <polygon class="cls-5" points="311.14 214.16 311.14 214.22 311.14 218.18 316.9 218.18 316.9 214.22 316.9 214.16 316.9 214.16 311.14 214.16"/>
          <polygon class="cls-5" points="311.14 196.13 311.14 196.19 311.14 196.46 311.14 196.53 311.14 196.8 311.14 196.86 311.14 199.48 316.9 199.48 316.9 196.86 316.9 196.8 316.9 196.53 316.9 196.46 316.9 196.19 316.9 196.13 316.9 195.39 311.14 195.39 311.14 196.13"/>
          <polygon class="cls-5" points="311.14 190.76 311.14 194.79 316.9 194.79 316.9 190.76 316.9 190.7 311.14 190.7 311.14 190.76"/>
          <polygon class="cls-5" points="311.14 204.1 311.14 204.17 316.9 204.17 316.9 204.1 316.9 200.08 311.14 200.08 311.14 204.1"/>
          <polygon class="cls-5" points="311.14 186.14 311.14 186.27 311.14 186.27 311.14 190.09 311.14 190.09 316.9 190.09 316.9 190.09 316.9 186.27 316.9 186.27 316.9 186.14 316.9 186.14 311.14 186.14"/>
        </g>
        <path class="cls-3" d="m353.57,213.55h-4.69v-9.38h-4.69v-8.04h-4.62v-6.03h-2.75v-4.69h-4.09c-1.07-.74-2.21-2.08-2.61-3.55l-.07-.27h-.07v-14.88c.47-1.81,1.94-3.42,3.02-3.75l.2-.07h0v-15.01h-.34c-1.07,0-1.88.74-2.35,1.47v-4.62l-.13-.07c-.6-.47-1.34-.54-2.14-.07l-.2.07v1.34h-2.35v-6.7h-.34c-.54,0-.87.6-1.14,1.27-.4.87-.87,1.88-1.88,1.88-.27,0-.34-.13-.4-.2-.2-.34-.07-1.07.34-1.74.47-.87,1.27-2.28.34-4.96l-.34-.87-.27.87c-.4,1.21-1.14,1.74-1.34,1.68v-.2c.13-.6.4-1.01.67-1.47.54-1.01,1.07-1.94.27-4.22l-.6.07c-.2,1.21-.6,1.68-.87,1.74h-.13c-.07-.07-.13-.27,0-.67s.2-.74.34-1.07c.4-1.07.74-2.01-.13-3.95l-.4-.87-.2.94c-.34,1.34-.6,1.74-.74,1.81-.07-.13-.13-.4-.13-.87v-.2c0-2.41,0-5.16-3.08-6.23-.07-.67-.4-2.41-1.61-2.41s-1.54,1.74-1.61,2.41c-3.08,1.07-3.08,3.82-3.08,6.23v.2c0,.54-.07.74-.13.87-.13-.13-.4-.54-.74-1.81l-.2-.94-.4.87c-.94,1.94-.54,2.88-.13,3.95.13.34.27.67.34,1.07.13.4,0,.6,0,.67h-.13c-.2-.07-.67-.54-.87-1.74l-.6-.07c-.8,2.28-.27,3.22.27,4.22.27.4.47.87.67,1.47,0,.13,0,.2.07.2-.27,0-1.01-.47-1.41-1.68l-.27-.87-.34.87c-.94,2.68-.13,4.09.34,4.96.4.67.54,1.41.34,1.74-.07.07-.13.2-.4.2-1.01,0-1.47-1.01-1.88-1.88-.34-.67-.6-1.27-1.14-1.27h-.47v11.8h-2.95v-.6l-.13-.07c-.54-.4-1.27-.34-1.81-.07l-.2.07v.67h-17.69v-10.86l-.47.2c-1.74.74-2.08,2.35-2.08,2.48v1.61h-1.61s-.74-.07-.74-1.54c0-1.14.27-1.94.67-2.35.27-.27.54-.34.94-.34h.34v-4.42l-.34.07s-2.08.34-3.15,2.28v-1.14h-.34c-1.41,0-1.54,1.81-1.54,5.09h-.4v-3.82c0-1.01.54-1.47,1.07-1.94.47-.47.94-.94,1.01-1.74,0-.07.27-2.41-.34-3.49l-.4-.67-.2.8c-.4,1.61-1.01,2.01-1.21,2.01s-.34-.27-.34-.67c0-.8.54-1.61,1.54-3.28.27-.4.54-.8.8-1.34.6-.94.27-3.75-.54-4.83l-.47-.6-.07.74c-.27,2.35-.6,3.15-1.27,3.15-.2,0-.74,0-.74-1.21,0-.8.34-1.41.74-2.08.27-.4.47-.87.67-1.41.54-1.61.2-3.35-.8-4.36l-.47-.4-.13.6c-.07.47-.13.87-.2,1.21-.2,1.41-.27,1.68-.67,1.68-.27-.07-.47-.27-.54-.47-.34-.87.6-2.48,1.01-3.15l.13-.27v-.07c.4-1.54-.67-2.82-.74-2.88l-.4-.47-.2.54c-.6,1.94-.74,1.88-1.07,1.81-.13-.07-.27-.13-.34-.34-.07-.4.07-1.07.74-1.74.74-.8.74-1.94-.13-2.88l-.34-.34-.2.4c-.34.74-.8,1.01-1.07.94-.13-.07-.13-.27-.07-.34l.67-3.55h-.8l.27-2.35h-1.07l.27-1.94h-1.47l.2-2.01h-1.68c0-.6-.13-1.94-.8-2.68-.34-.34-.67-.47-1.14-.47s-.8.2-1.14.47c-.67.74-.8,2.14-.8,2.68h-1.68l.2,2.01h-1.88l.27,1.94h-1.07l.27,2.35h-.8l.6,3.62c0,.13-.07.27-.2.27-.2,0-.54-.2-.87-.94l-.2-.4-.34.34c-.8.94-.87,2.14-.13,2.88.67.67.87,1.34.74,1.74-.07.13-.13.27-.34.34-.4.13-.54.13-1.07-1.81l-.2-.67-.4.6c-.13.2-1.21,1.94-.67,2.95l.13.27c.4.67,1.34,2.28,1.01,3.15-.07.2-.27.4-.54.47-.4,0-.47-.27-.67-1.68-.07-.34-.13-.74-.2-1.21l-.13-.6-.47.4c-1.07,1.01-1.41,2.75-.8,4.36.2.54.47.94.67,1.41.4.67.74,1.21.74,2.08,0,1.21-.54,1.21-.74,1.21-.67,0-.94-.8-1.27-3.15l-.07-.74-.47.6c-.8,1.07-1.14,3.82-.54,4.83.34.47.6.94.8,1.34,1.07,1.61,1.54,2.48,1.54,3.28,0,.4-.2.67-.34.67-.27.07-.8-.34-1.21-2.01l-.2-.8-.4.67c-.6,1.14-.4,3.42-.34,3.49,0,.8.54,1.27,1.01,1.74.54.54,1.01,1.01,1.07,1.94v3.82h-.2c0-3.49-.07-5.09-1.68-5.09h-.34v1.14c-1.07-1.94-3.08-2.21-3.15-2.21l-.34-.07v4.42h.34c.4,0,.67.07.94.34.47.4.67,1.27.67,2.35,0,1.47-.74,1.54-.74,1.54h-1.81v-1.68c0-.07-.47-1.68-2.14-2.35l-.47-.2v10.86h-17.02v-.67l-.2-.07c-.47-.27-1.27-.34-1.81.07l-.13.07v.6h-2.95v-12h-.34c-.54,0-.87.6-1.14,1.27-.4.87-.87,1.88-1.88,1.88-.27,0-.34-.13-.4-.2-.2-.34-.07-1.07.34-1.74.47-.87,1.27-2.28.34-4.96l-.34-.87-.27.87c-.4,1.21-1.14,1.68-1.34,1.68v-.2c.13-.6.4-1.01.67-1.47.54-1.01,1.07-1.94.27-4.22l-.6.07c-.2,1.21-.6,1.68-.87,1.74h-.13c-.07-.07-.13-.27,0-.67s.2-.74.34-1.07c.4-1.07.74-2.01-.13-3.95l-.4-.87-.2.94c-.34,1.34-.6,1.74-.74,1.81-.07-.13-.13-.4-.13-.87v-.2c0-2.41,0-5.16-3.08-6.23-.07-.67-.4-2.41-1.61-2.41s-1.54,1.74-1.61,2.41c-3.08,1.07-3.08,3.82-3.08,6.23v.2c0,.54-.07.74-.13.87-.13-.13-.4-.54-.74-1.81l-.2-.94-.4.87c-.94,1.94-.54,2.88-.13,3.95.13.34.27.67.34,1.07.13.4,0,.6,0,.67h-.13c-.2-.07-.67-.54-.87-1.74l-.6-.07c-.8,2.28-.27,3.22.27,4.22.27.4.47.87.67,1.47,0,.13,0,.2.07.2h0c-.2,0-1.01-.54-1.34-1.68l-.27-.87-.34.87c-.94,2.68-.13,4.09.34,4.96.4.67.54,1.41.34,1.74-.07.07-.13.2-.4.2-1.01,0-1.47-1.01-1.88-1.88-.34-.67-.6-1.27-1.14-1.27h-.54v6.7h-2.41v-1.34l-.2-.07c-.8-.4-1.54-.4-2.14.07l-.13.07v4.62c-.47-.74-1.27-1.47-2.35-1.47h-.34v15.01h0l.2.07c1.07.34,2.55,1.94,3.02,3.75v15.21c-.4,1.47-1.54,2.82-2.61,3.49h-4.22v4.69h-2.75v6.03h-4.62v8.04h-4.69v9.38h-4.69v10.05h187.13l.07-9.99Zm-186.53.6h32.71v8.71h-32.71v-8.71Zm9.38-17.36h23.39v7.37h-23.32v-7.37h-.07Zm10.99-47.86v-.4c.74.13,1.27.74,1.61,1.27.13.2.2.4.34.54l.13.27v11.06h1.01l.74,1.34v18.57h-.54v-15.08c-.47-1.94-2.01-3.69-3.28-4.16h0v-13.4h0Zm7.57-8.65c.07.2.2.4.27.54.47.94,1.07,2.28,2.48,2.28.54,0,.8-.27.94-.47.4-.67.07-1.68-.34-2.35-.4-.74-1.01-1.74-.54-3.62.54.94,1.34,1.41,1.81,1.27.27-.07.54-.4.4-1.01-.2-.67-.47-1.21-.67-1.61-.4-.74-.74-1.34-.54-2.55.27.6.6,1.01.94,1.14.27.07.54.07.74-.13.27-.27.34-.74.2-1.27-.13-.4-.27-.8-.4-1.14-.34-.8-.54-1.47-.2-2.61.34,1.01.74,1.47,1.14,1.41.27,0,.67-.27.67-1.54v-.2c0-2.48,0-4.83,2.82-5.7l.2-.07v-.2c.07-.67.34-2.01,1.01-2.01.6,0,.94,1.34,1.01,2.01v.2l.2.07c2.82.87,2.82,3.22,2.82,5.7v.2c0,1.27.47,1.54.67,1.54.47.07.8-.4,1.14-1.41.34,1.14.07,1.74-.2,2.61-.13.34-.27.67-.4,1.14-.13.54-.07,1.01.2,1.27.2.2.47.2.74.13.4-.13.74-.54.94-1.14.2,1.21-.13,1.81-.54,2.55-.27.47-.54.94-.67,1.61-.13.6.07.87.4,1.01.54.13,1.27-.34,1.81-1.27.47,1.88-.13,2.95-.54,3.62-.4.67-.67,1.74-.34,2.35.13.2.4.47.94.47,1.41,0,2.01-1.27,2.48-2.28.07-.13.13-.34.27-.54v20.64h-3.82v-3.28l-.47.2c-.74.34-1.47.67-2.01,1.07-.07-.27-.2-.6-.27-.87.74-.8,2.48-2.75,2.88-3.75v-4.56l-.34.07c-.2,0-.34.07-.47.13.47-.74.87-1.47.87-2.01v-4.42l-.34.07c-1.14.13-2.14.87-2.95,2.14-.2-.67-.34-1.34-.6-1.88.67-.67,2.01-2.08,2.14-3.08v-2.95l-.34.07c-.74.07-1.54.27-2.21,1.01,0-.07-.07-.07-.07-.13l1.61-2.01v-2.88l-.34.07c-.6.07-1.07.27-1.47.8-.07-.13-.13-.34-.2-.47l.6-1.41v-2.41l-.34.07c-.4.07-.67.13-.94.4-.07-.07-.07-.13-.13-.2l1.41-1.27v-1.94l-.34.07c-.4.07-.67.13-.94.4-.4-.8-1.01-1.41-1.81-1.88l-.13-.07-.13.07c-.8.47-1.47,1.07-1.81,1.81-.27-.2-.54-.34-.94-.4l-.34-.07v1.94l1.41,1.27c-.07.07-.07.13-.13.2-.27-.27-.54-.34-.94-.4l-.34-.07v2.28l.6,1.47c-.07.13-.13.27-.2.4-.4-.47-.8-.67-1.47-.8l-.34-.07v2.88l1.61,2.01c0,.07-.07.07-.07.13-.67-.74-1.41-.94-2.21-1.01l-.34-.07v3.02c.27.94,1.54,2.35,2.14,3.02-.2.6-.4,1.21-.6,1.94-.8-1.21-1.81-1.94-2.95-2.14l-.34-.07v4.49c.07.47.47,1.21.94,2.01-.2-.07-.4-.13-.6-.13l-.34-.07v4.49l.07.07c.47.87,1.94,2.61,2.68,3.49-.13.34-.27.67-.34,1.07-.6-.34-1.21-.74-1.94-1.01l-.47-.2v3.28h-3.42c0-.07-.07-.2-.07-.27s-.07-.13-.07-.2v-11.8h0v-8.31h.07Zm26.34,10.79v-.27c.2-.07.54-.07.8,0v4.56c-.07,0-.07.07-.13.07-.13.07-.2.13-.34.2-.13.07-.2.13-.34.2h0v-4.02h0v-.74h0Zm19.17,0v-9.85c.94.6,1.27,1.47,1.34,1.68v9.12h.07v7.91h5.16c.74.4,1.41.74,1.94,1.27h-8.45v-10.12h-.07Zm2.08-5.97h1.47v10.19h-1.47v-10.19Zm2.82-.67c0-.07.07-.13.07-.13.13-.27.27-.74.27-1.27v-.13c0-1.27-.34-2.28-.87-2.82-.34-.27-.67-.47-1.07-.47v-3.08c.8.27,2.68,1.07,2.82,3.89v14.81h-1.94v-10.25c.13-.07.27-.13.4-.27.13,0,.2-.13.34-.27Zm1.88-6.84c.67.27.74,1.54.74,4.69v.34h2.75v1.94l.34.34h.6c1.21,1.61,1.61,3.89,1.68,5.97-.34-.27-.67-.54-1.14-.74l-.47.27v2.82h-.07v-.07c-.07-.07-.13-.2-.2-.34-.13-.2-.34-.47-.54-.8-.07-.07-.13-.2-.2-.27,0,0,0-.07-.07-.07-.07-.07-.13-.2-.2-.27,0,0,0-.07-.07-.07-.07-.07-.13-.2-.2-.27-.74-.94-1.81-1.88-2.95-2.41v-11.06h0Zm2.35.54c-.07-1.27-.74-1.88-1.27-2.41-.47-.4-.8-.74-.8-1.34-.07-.4-.07-1.41,0-2.21.6,1.41,1.27,1.47,1.61,1.47h3.28v1.81h-.13l.13.07v.27l.34.34h.67c1.01.6,1.54,1.61,1.81,3.49-.34.74-.6,1.41-.74,2.08-.74-.94-1.88-1.88-3.42-2.35l-.4.34v2.35h-1.14l.07-3.89Zm-1.94-13.87c.27,1.54.67,2.61,1.74,2.61h3.69v1.74l.34.34h1.68l1.47,2.08c-.4.67-.74,1.34-.94,1.88-.6-.8-1.54-1.47-2.75-1.74l-.4.34v1.61h-2.55c.13-.2.2-.47.2-.74,0-1.01-.54-1.88-1.68-3.62-.27-.4-.54-.8-.8-1.34-.47-.54-.34-2.08,0-3.15Zm2.28-1.68c-.2-.4-.47-.8-.6-1.27-.4-1.07-.27-2.28.27-3.15,0,.2.07.34.07.47.2,1.41.34,2.21,1.41,2.21h3.82v.87l2.01,1.88c-.4.74-.74,1.41-.94,2.08-.54-.8-1.41-1.41-2.48-1.68l-.4.34v2.01h-2.61c.2-.27.34-.67.34-1.34-.07-1.01-.47-1.68-.87-2.41Zm1.07-6.23l-.13-.2c-.2-.34,0-1.07.27-1.61.34,1.07.67,1.54,1.21,1.54h3.15l2.55,1.81c-.13.4-.27.8-.34,1.21-.47-.74-1.34-1.01-2.01-1.21-.13-.07-.27-.07-.34-.13l-.4-.13v2.68h-2.95c.07-.13.13-.2.2-.34.27-1.07-.74-2.82-1.21-3.62Zm1.54-5.16c.4.6.87.94,1.34.8h2.88v.87l1.41.74c-.07.13-.13.27-.13.4-.47-.54-1.14-.67-1.74-.8l-.74-.2v2.41h-2.01c.07-.07.07-.2.13-.27.2-.67-.2-1.61-.94-2.35-.54-.4-.54-1.01-.2-1.61Zm10.25-9.38l-.13,1.27h-5.63l-.13-1.27h5.9Zm1.68,2.01l-.13,1.27h-8.78l-.13-1.27h9.05Zm.8,1.94l-.2,1.68h-10.32l-.2-1.68h10.72Zm.47,2.35l-.54,2.82c-.07.2,0,.4.07.54h-2.01v-1.81l-.67.2c-.4.13-.87.27-1.21.6-.2-.54-.47-.74-.8-1.01-.13-.07-.27-.2-.4-.34l-.2-.2-.2.2c-.13.13-.27.27-.4.34-.34.27-.6.54-.8,1.01-.34-.4-.8-.54-1.21-.6l-.67-.2v1.81h-2.28c.07-.13.07-.2.07-.34v-.07l-.54-2.95h11.8Zm1.41,4.76c-.74.74-1.07,1.68-.94,2.35,0,.13.07.2.13.27h-1.88v-2.41l-.74.2c-.6.13-1.34.27-1.74.8-.07-.13-.13-.27-.13-.4l1.41-.74v-.87h2.95c.34-.07.74-.34,1.07-.8.34.54.27,1.14-.13,1.61Zm1.74,3.28l-.13.2c-.47.8-1.47,2.55-1.07,3.69.07.13.13.27.2.34h-2.82v-2.68l-.4.13c-.13.07-.27.07-.34.13-.74.2-1.54.47-2.01,1.21-.13-.47-.2-.87-.34-1.21l2.55-1.81h2.95c.54,0,.8-.54,1.21-1.61.2.34.4.94.2,1.61Zm1.34,2.01c.54.87.6,2.08.27,3.15-.13.47-.4.87-.6,1.27-.4.67-.8,1.41-.8,2.41,0,.6.13,1.07.34,1.34h-2.68v-2.01l-.4-.34c-1.07.34-1.94.94-2.48,1.74-.2-.6-.47-1.27-.87-1.94l2.21-2.01v-.87h3.62c1.07,0,1.21-.87,1.41-2.21,0-.2,0-.34,0-.54Zm.2,8.71h.34c.87-.2,1.21-1.21,1.47-2.61.34,1.07.4,2.61.07,3.15-.34.47-.6.94-.8,1.34-1.14,1.74-1.68,2.61-1.68,3.62,0,.27.07.54.2.74h-2.61v-1.61l-.4-.34c-1.21.34-2.14.94-2.75,1.81-.2-.6-.54-1.27-.94-1.94l1.47-2.08h1.68l.34-.34v-1.74h3.55c-.07,0,0,0,.07,0Zm1.81,5.29c.13.8.07,1.81,0,2.21,0,.54-.34.87-.8,1.34-.54.54-1.21,1.14-1.27,2.41v3.82h-1.21v-2.35l-.4-.34c-1.27.34-2.41,1.14-3.42,2.35-.13-.67-.34-1.34-.67-2.08.27-1.88.8-2.88,1.81-3.42h.67l.34-.34v-.27l.13-.07h-.13v-1.81h3.35c.34.07,1.07-.07,1.61-1.47Zm-.34,10.12c0-3.08.13-4.36.6-4.69v11.06c-1.21.54-2.21,1.47-3.02,2.41-.07.07-.13.2-.2.27,0,0,0,.07-.07.07-.07.07-.13.2-.2.27,0,0,0,.07-.07.07-.07.07-.13.2-.2.27-.2.27-.4.54-.54.8-.07.13-.13.2-.2.34v.07h-.07v-2.88l-.47-.27c-.4.13-.74.34-1.01.6.13-2.08.54-4.29,1.68-5.83h.47l.34-.34v-1.94h2.88v-.27h.07Zm4.09-5.76v3.02c-.4.07-.8.2-1.07.47-.6.54-.87,1.54-.87,2.82v.13c0,.34.07.6.13.8.07.27.13.47.27.6.07.13.2.27.27.34.13.13.27.2.4.27v10.12h-1.94v-14.34c-.07-3.08,1.94-4.02,2.82-4.22Zm1.68,6.37c0-.07.2-1.07,1.21-1.68l-.07,9.85v10.12h-8.31c.34-.4.87-.74,1.41-1.07.13-.07.2-.13.34-.2h5.36v-7.98h0v-7.57h0l.07-1.47Zm20.17,8.18v-.27c.27-.07.6-.07.8,0v.27h0v.67h0v4.02h0c-.13-.07-.2-.13-.34-.2-.13-.07-.2-.13-.34-.2-.07,0-.07-.07-.13-.07v-4.22Zm5.03-10.79c.07.2.2.4.27.54.47.94,1.07,2.28,2.48,2.28.54,0,.8-.27.94-.47.4-.67.07-1.68-.34-2.35-.4-.74-1.01-1.74-.54-3.62.54.94,1.27,1.41,1.81,1.27.27-.07.54-.4.4-1.01-.2-.67-.47-1.21-.67-1.61-.4-.74-.74-1.34-.54-2.55.27.6.6,1.01.94,1.14.27.07.54.07.74-.13.27-.27.34-.74.2-1.27-.13-.4-.27-.8-.4-1.14-.34-.8-.54-1.47-.2-2.61.34,1.01.74,1.47,1.14,1.41.27,0,.67-.27.67-1.54v-.2c0-2.48,0-4.83,2.82-5.7l.2-.07v-.2c.07-.67.34-2.01,1.01-2.01.6,0,.94,1.34,1.01,2.01v.2l.2.07c2.82.87,2.82,3.22,2.82,5.7v.2c0,1.27.47,1.54.67,1.54.47.07.8-.4,1.14-1.41.34,1.14.07,1.74-.2,2.61-.13.34-.27.67-.4,1.14-.13.54-.07,1.01.2,1.27.2.2.47.2.74.13.4-.13.74-.54.94-1.14.2,1.21-.13,1.81-.54,2.55-.27.47-.54.94-.67,1.61-.13.6.07.87.4,1.01.54.13,1.27-.34,1.81-1.27.47,1.88-.13,2.95-.54,3.62-.4.67-.67,1.74-.34,2.35.13.2.4.47.94.47,1.41,0,2.01-1.27,2.48-2.28.07-.13.13-.34.27-.54v20.17c0,.07-.07.13-.07.2s-.07.2-.07.27h-3.42v-3.28l-.47.2c-.74.27-1.41.67-1.94,1.01-.13-.34-.2-.74-.34-1.07.8-.87,2.21-2.61,2.68-3.49l.07-.07v-4.49l-.34.07c-.2,0-.4.07-.6.13.47-.74.87-1.54.94-2.01v-4.42l-.34.07c-1.14.13-2.14.87-2.95,2.14-.2-.67-.4-1.34-.6-1.94.6-.67,1.88-2.08,2.14-3.02v-3.02l-.34.07c-.74.07-1.54.27-2.21,1.01,0-.07-.07-.07-.07-.13l1.61-2.01v-2.88l-.34.07c-.67.07-1.07.27-1.47.8-.07-.13-.13-.27-.2-.4l.6-1.34v-2.41l-.34.07c-.4.07-.67.13-.94.4-.07-.07-.07-.13-.13-.2l1.41-1.27v-1.94l-.34.07c-.4.07-.67.13-.94.4-.34-.8-1.01-1.41-1.81-1.81l-.13-.07-.13.07c-.8.4-1.41,1.07-1.81,1.88-.27-.27-.54-.4-.94-.4l-.34-.07v1.94l1.41,1.27c-.07.07-.07.13-.13.2-.27-.27-.54-.4-.94-.4l-.34-.07v2.28l.67,1.47c-.07.13-.13.27-.2.47-.4-.54-.87-.74-1.47-.8l-.34-.07v2.88l1.61,2.01c0,.07-.07.07-.07.13-.67-.74-1.41-.94-2.21-1.01l-.34-.07v3.02c.13.94,1.47,2.41,2.14,3.02-.2.6-.4,1.21-.6,1.88-.8-1.21-1.81-1.94-2.95-2.14l-.34-.07v4.42c0,.54.4,1.21.87,2.01-.13-.07-.34-.07-.47-.13l-.34-.07v4.56c.4,1.01,2.21,2.95,2.88,3.75-.07.27-.2.6-.27.87-.6-.4-1.27-.74-2.01-1.07l-.47-.2v3.28h-3.82v-20.71Zm29.69,8.24v13.94h0c-1.27.47-2.82,2.21-3.28,4.16v15.08h-.54v-18.57l.74-1.34h1.01v-11.06c0-.07.07-.2.13-.27.07-.13.2-.34.34-.54.34-.67.94-1.27,1.61-1.41Zm-23.99,65.68h0v-.34h0v-.34h0v-27.41h1.88v27.48h0v.34h0v.34h0v8.65h-1.88v-8.71Zm-108.18,0h0v-.34h0v-.34h0v-27.41h1.88v27.48h0v.34h0v.34h0v8.65h-1.88v-8.71Zm-9.32-57.57c.07.07.13.07.13.13h0c.07.07.13.07.2.13h0c.07,0,.07.07.13.07h0c.13.07.2.13.34.27h0c1.07.8,1.94,1.88,2.41,3.42,0,.07.07.13.07.2,0,.13.07.2.07.27h-4.36v-4.96c.2.13.4.2.54.34.2,0,.34.07.47.13h0Zm8.04,4.42v-2.55c.6.27,1.14.54,1.61.87.07.07.2.13.27.2.07.07.2.13.27.2.4.34.74.67.94,1.01h0c0,.07.07.13.07.13h0l.07.13h0l.07.2h0l.07.13h0l.07.2.07.13.07-.13.07-.2h0v-.13h0l.07-.2h0v-.27h0c.2-1.01.54-1.74.87-2.48.07-.13.13-.2.13-.34.07-.13.13-.2.2-.34.47-.74,1.01-1.41,1.61-2.14h0c.67.74,1.21,1.41,1.74,2.14.07.13.13.2.2.34.07.13.13.2.2.34.4.67.67,1.47.94,2.48h0v.27h0l.07.2h0v.13h0l.07.2.07.13.07-.13.07-.2h0l.07-.13h0l.07-.2h0l.07-.13h0c0-.07.07-.13.07-.13h0c.2-.34.47-.6.87-.94.07-.07.2-.13.27-.2.07-.07.2-.13.27-.2.47-.34,1.01-.67,1.68-.94v2.88h0v1.41h-13.4v-1.41h0v-.34h.13Zm5.36-31.17l-1.14-.94v-.94c.2.07.34.2.54.47l.4.54.2-.6c.27-.8.8-1.47,1.54-1.88.74.47,1.27,1.14,1.54,1.94l.2.6.4-.54c.2-.27.34-.4.54-.47v.94l-1.14.94h-.07c-.34-.4-.8-.8-1.27-1.07l-.13-.07-.13.07c-.67.2-1.07.6-1.47,1.01h0Zm.6.34c.07-.13.2-.2.34-.34.2-.13.34-.34.6-.4.2.13.4.27.6.4l.34.34c.07.13.13.2.2.34.2.27.34.54.4.87l.2.6.4-.54c.2-.27.34-.4.54-.47v1.41l-.47,1.01c-.4-.47-.94-.74-1.54-1.07-.13-.07-.34-.2-.47-.27l-.2-.13-.2.13c-.2.13-.4.27-.6.34-.54.34-1.01.6-1.41,1.01l-.4-.94v-1.41c.2.07.34.2.54.47l.4.54.2-.6c.07-.34.27-.6.4-.87-.07-.2,0-.27.13-.4Zm-.87,3.69l.34-.34c.27-.2.6-.4.94-.6.13-.07.27-.13.4-.27.13.07.2.13.34.2.4.2.74.4,1.01.67.13.07.27.2.34.34.07.07.2.2.27.34.2.27.34.6.47,1.07l.2.74.4-.6c.4-.6.67-.87,1.01-1.01v1.94l-1.21,1.54c-.6-1.14-1.41-1.74-2.68-2.55l-.2-.13-.2.13c-1.27.8-2.08,1.41-2.68,2.55l-1.21-1.54v-1.94c.4.13.67.34,1.01.94l.4.6.2-.74c.13-.4.27-.74.4-1.01.27-.13.4-.27.47-.34Zm-.87,5.23c.07-.13.07-.27.13-.4s.07-.2.13-.34c.47-1.14,1.21-1.68,2.35-2.48,1.21.8,1.88,1.34,2.35,2.41.07.13.07.2.13.34s.07.27.13.4c0,.13.07.2.07.34l.2.74.4-.67c.47-.8,1.01-1.07,1.74-1.21v2.21c-.07.67-1.07,1.74-1.74,2.48-.67-1.61-1.54-2.82-2.68-3.82-.13-.13-.27-.2-.4-.34l-.07-.07-.2-.13-.2.13-.07.07c-.13.13-.27.2-.4.34-1.14,1.01-2.01,2.21-2.68,3.75-.67-.74-1.61-1.81-1.74-2.48v-2.21c.74.13,1.27.4,1.74,1.21l.4.67.2-.74c.13,0,.13-.07.2-.2Zm-.4,4.96c.07-.13.07-.2.13-.34s.07-.2.13-.34c.67-1.68,1.61-2.95,2.82-3.95,1.21,1.01,2.14,2.21,2.82,3.95.07.13.07.2.13.34s.07.2.13.34c.27.74.47,1.54.67,2.41l.2.87.4-.8c.67-1.27,1.54-2.14,2.48-2.41v3.62c0,.6-.67,1.68-1.41,2.68-.47.34-.87.8-1.27,1.41-.74-2.95-1.88-4.76-3.95-6.3l-.2-.13-.2.13c-2.08,1.54-3.22,3.35-3.95,6.3-.34-.54-.74-.94-1.07-1.27-.74-1.07-1.47-2.21-1.54-2.75v-3.69c1.01.27,1.81,1.14,2.48,2.41l.4.8.2-.87c.13-.94.34-1.68.6-2.41Zm-1.27,8.71l.07.07.4.74.13-.54.07-.34h0c0-.13.07-.2.07-.34.67-2.95,1.74-4.76,3.62-6.23,1.88,1.47,2.95,3.28,3.62,6.23,0,.13.07.2.07.34h0l.07.34.13.54.4-.74.07-.07c.47-.87.94-1.47,1.54-1.94.34-.2.6-.4.94-.47v3.62c-.4.87-1.74,2.41-2.55,3.28-.6-1.47-1.47-2.82-3.08-4.22-.13-.13-.27-.2-.4-.34s-.27-.2-.4-.34c-.13-.07-.2-.13-.34-.27l-.2-.13-.2.13c-.13.07-.2.13-.34.27-.13.13-.27.2-.4.34s-.27.2-.4.34c-1.47,1.27-2.41,2.61-3.02,3.95-.74-.87-1.94-2.28-2.35-3.08v-3.55c.4.13.74.34,1.07.6.54.4,1.01,1.07,1.41,1.81Zm.2,5.16c.07-.13.07-.2.13-.34.67-1.68,1.68-3.08,3.55-4.49.07-.07.2-.13.27-.2.13.07.2.13.27.2,1.94,1.47,2.95,2.95,3.62,4.69.07.13.07.2.13.34s.07.2.13.34c.07.27.13.54.27.8-.4.27-.67.6-.94.87-.2-.67-.4-1.21-.67-1.74-.07-.13-.13-.2-.13-.34-.07-.13-.13-.2-.2-.34-.54-.94-1.21-1.68-2.01-2.55l-.47-.54-.27.27c-.87,1.01-1.54,1.81-2.14,2.82-.07.13-.13.2-.13.34-.07.13-.13.2-.13.34-.2.54-.4,1.07-.6,1.68-.27-.34-.6-.67-1.01-.94.07-.34.2-.6.27-.87,0-.13,0-.27.07-.34Zm17.43.13l.2-.2.13-.13c.34-.34.67-.6,1.07-.87.13-.07.2-.13.34-.2l.07-.07c.07-.07.13-.07.2-.13h0c.07-.07.2-.13.27-.13,0,0,.07,0,.07-.07.13-.07.2-.13.34-.2.07,0,.07-.07.13-.07h0v5.09h-4.42c0-.07.07-.13.07-.2.2-.94.6-1.68,1.07-2.35.27-.2.34-.34.47-.47Zm3.49-4.76h17.02v2.61h-17.02v-1.07h0v-1.54Zm17.02,4.56h-17.02v-1.27h17.02v1.27Zm9.99,3.15c-.34-.54-.87-.94-1.47-1.34h4.62v1.34h0v.34h0v.34h0v1.14h-.07l.07.07v.6h.4l.13.27.74,1.07v16.82h-4.09v-19.91h0v-.13c0-.07-.07-.13-.07-.2h0c0-.07-.07-.07-.07-.13-.13-.13-.2-.2-.2-.27h0Zm-2.55-7.71v-4.02c.8.4,1.54,1.01,2.08,1.68.07.07.13.2.27.27,0,0,0,.07.07.07.07.07.13.2.2.27,0,0,0,.07.07.07.07.07.13.2.2.27.2.27.4.54.54.8.07.13.13.2.2.34.07.13.13.2.2.34.07.13.13.2.13.2l.07.2h.47v1.21h-4.49v-1.68Zm5.16,0v-2.48c.07.07.13.07.2.13.13.07.2.2.34.27l.07.07.27.27s0,.07.07.07l.13.13c0,.07.07.07.07.13.07.13.13.27.2.4.07.13.13.27.2.4.07.07.07.13.13.2,0,0,0,.07.07.07v.07c.07.07.07.2.13.27v.07s0,.07.07.07c.07.07.07.13.13.27.07.13.13.2.13.34l.6-.13v-1.27c0-.27,0-.54.07-.8,0-.07,0-.2.07-.27v-.07c0-.07,0-.2.07-.27v-.07c0-.07,0-.2.07-.27.4-2.28,1.27-4.49,2.35-6.23,0,0,0-.07.07-.07.07-.07.13-.2.13-.27,0,0,0-.07.07-.07.07-.07.13-.2.2-.27,0,0,0-.07.07-.07.13-.2.27-.34.34-.47s.2-.2.27-.34.2-.2.27-.34l.4-.4c.13-.13.27-.2.4-.34h0l.07-.07.07.07h0c.13.07.27.2.4.34l.4.4c.07.07.2.2.27.34s.2.2.27.34c.13.13.27.34.34.47,0,0,0,.07.07.07.07.07.13.2.2.27,0,0,0,.07.07.07.07.07.13.2.13.27,0,0,0,.07.07.07,1.01,1.68,1.94,3.89,2.35,6.23,0,.07,0,.2.07.27v.07c0,.07,0,.2.07.27v.07c0,.07,0,.2.07.27,0,.27.07.54.07.8v1.27l.6.13c.07-.13.07-.2.13-.34,0-.07.07-.13.07-.2s.07-.07.07-.13v-.07c.07-.07.07-.2.13-.27v-.07c.07-.13.07-.2.13-.34v-.07c.07-.2.2-.4.34-.6,0-.07.07-.07.07-.13.07-.07.13-.2.2-.27l.07-.07h0c.07-.07.13-.2.27-.27l.07-.07c.13-.07.2-.2.34-.27.07-.07.13-.07.2-.13v4.36h-4.42c-.07-.07-.07-.13-.13-.2-.07-.07-.13-.13-.13-.27-.07-.13-.13-.2-.2-.34-.07-.13-.13-.2-.27-.34-.07-.13-.2-.27-.27-.34-.07-.13-.2-.2-.27-.34l-.07-.07-.27-.27-.07-.07-.34-.34c-.27-.27-.6-.47-.87-.67l-.2-.13-.2.13c-.27.2-.6.4-.87.67l-.34.34-.07.07-.27.27-.07.07c-.07.13-.2.2-.27.34s-.2.2-.27.34-.13.2-.27.34c-.07.13-.13.2-.2.34-.07.07-.13.13-.13.27-.07.07-.07.13-.13.2h-4.42v-1.81h-.27Zm-1.07-9.18v-4.16c1.14.4,2.01,1.21,2.61,1.94.07.13.2.2.27.34h0c.07.13.13.2.27.34h.07l.54-.2v-.13h0v-.34c.07-.34.13-.67.27-1.07.07-.2.13-.47.27-.67.07-.2.13-.4.27-.54.6-1.27,1.54-2.55,2.48-3.55h0l.34-.34h0l.34-.34c.27-.27.6-.47.87-.67.27.2.6.4.87.67l.34.34h0l.34.34h0c.94,1.01,1.88,2.28,2.48,3.55.07.2.2.4.27.6.07.27.2.47.27.67.13.4.2.74.27,1.07v.34h0v.13l.54.2h.07c.07-.13.13-.2.27-.34h0c.07-.13.2-.2.27-.34.8-.94,1.68-1.61,2.61-1.94v2.28h0v1.94h-5.97s0-.07-.07-.07c-.13-.2-.2-.34-.34-.47-.07-.13-.13-.2-.27-.34-.07-.13-.2-.2-.27-.34-.13-.13-.2-.27-.34-.4l-.34-.34h0c-.13-.13-.27-.2-.34-.34-.13-.07-.2-.13-.34-.2-.07-.07-.13-.13-.2-.13h-.34c-.07.07-.13.07-.2.13-.07.07-.2.13-.34.2-.13.07-.27.2-.34.34h0l-.34.34c-.13.13-.2.27-.34.4-.07.13-.2.2-.27.34s-.13.2-.27.34c-.13.13-.2.34-.34.47,0,0,0,.07-.07.07l-5.9-.13h0Zm1.74-10.52v-1.74c.74.27,1.41.67,1.81,1.21.13.2.27.34.34.54.07.13.13.27.2.4l.6-.13v-.27c0-.13.07-.34.13-.54.13-.47.4-.94.67-1.47.07-.07.13-.2.2-.27.07-.07.13-.2.2-.27.47-.67,1.01-1.41,1.68-2.08l.34-.34h0l.34-.34.27-.27c.13.07.2.2.34.27l.34.34h0l.34.34c.6.6,1.14,1.34,1.61,2.08.07.07.13.2.2.27.07.13.13.2.2.34.34.54.54,1.07.67,1.47.07.2.13.4.13.54v.27l.6.13c.07-.13.13-.27.2-.4.13-.2.2-.4.34-.54.47-.54,1.07-.94,1.81-1.21v3.55h-4.96c-.54-.54-1.14-1.01-1.61-1.34h-.34c-.54.34-1.07.8-1.61,1.34h-4.96v-1.88h-.07Zm.6-6.77v-2.08c.8.34,1.47.87,1.88,1.54.07.2.2.34.2.54h.07l.54-.07c0-.13,0-.27.07-.47.13-.6.47-1.41.94-2.21.07-.07.13-.2.2-.27.07-.07.13-.2.2-.27.6-.94,1.34-1.88,2.14-2.61h0c.8.74,1.61,1.74,2.21,2.82.07.07.13.2.13.27.07.07.13.2.13.27.4.74.67,1.47.8,2.08.07.2.07.34.07.47l.47.07h.2c.07-.2.13-.34.27-.54.4-.67,1.01-1.21,1.81-1.54v3.49h-4.96c-.34-.34-.67-.67-1.07-.94h-.4c-.34.27-.67.6-1.01.94h-4.83v-1.47h-.07Zm1.81-5.97v-2.35c1.01.27,1.74.54,1.88,1.81v.13h.67v-.13c.13-.8.27-1.54.47-2.14.07-.13.07-.2.13-.34s.07-.2.13-.34c.27-.6.6-1.14,1.01-1.54l.2-.2.2.2c.4.47.74.94,1.01,1.54.07.13.07.2.13.34s.07.2.13.34c.2.6.34,1.27.47,2.14v.13h.67v-.13c.13-1.34.94-1.54,1.88-1.81v2.95l-1.94,1.74c-.54-.8-1.14-1.68-1.81-2.35l-.54-.54c-.07-.07-.13-.13-.2-.13h-.4l-.13.13-.54.54c-.6.67-1.21,1.41-1.74,2.21l-1.74-1.61v-.6h.07Zm.6-5.16v-1.81c.94.2,1.54.4,1.61,1.21h.67c.07-.47.2-.87.34-1.21.07-.13.07-.2.13-.34s.07-.2.13-.34c.27-.54.6-.94,1.07-1.27.47.34.8.74,1.07,1.27.07.13.13.2.13.34.07.07.07.2.13.34.13.34.27.74.34,1.21h.67c.07-.8.67-1.01,1.61-1.21v1.81l-.4.34-1.68,1.21c-.2-.47-.47-.87-.74-1.21-.13-.2-.27-.34-.47-.54l-.34-.34-.2-.2-.2.2-.34.34c-.13.2-.34.34-.47.54-.27.34-.54.74-.74,1.21l-1.68-1.21-.67-.34Zm1.27-3.75v-1.54c.54.13.87.34.94,1.01v.07h.67v-.13c.2-1.07.4-1.27.8-1.54l.2-.2.2.2c.4.34.67.47.8,1.54v.13h.67v-.07c.07-.67.4-.8.94-1.01v2.01l-1.01.54c-.2-.4-.4-.74-.74-1.01-.2-.2-.4-.4-.6-.54l-.13-.13-.2-.13-.2.13-.13.13c-.2.13-.4.34-.6.54-.27.27-.54.6-.74,1.01l-1.01-.54v-.47h.13Zm4.36,16.96h2.21l-1.07,1.47c-.4-.54-.74-1.01-1.14-1.47Zm-3.69,0c-.4.47-.8,1.01-1.21,1.54l-1.07-1.54h2.28Zm4.22,7.1h3.02c-.6.6-1.01,1.47-1.21,2.55-.54-.87-1.14-1.74-1.81-2.55Zm-4.76,0c-.67.74-1.27,1.68-1.81,2.55-.2-1.07-.6-1.94-1.21-2.55h3.02Zm8.38,15.01v.4c-.07.07-.13.13-.13.2,0,0,0,.07-.07.07-.07.07-.13.2-.13.27-.07.2-.2.34-.27.54,0-.2,0-.34-.07-.54v-.34c0-.07,0-.2-.07-.27v-.07c0-.07,0-.2-.07-.27-.34-2.28-1.21-4.49-2.21-6.23h4.62c-1.14,1.81-1.54,4.09-1.61,6.23Zm-8.98-6.23c-1.01,1.74-1.88,3.89-2.28,6.23,0,.07,0,.2-.07.27v.07c0,.07,0,.2-.07.27v.34c0,.13-.07.34-.07.47-.07-.2-.2-.34-.27-.47-.07-.07-.13-.2-.13-.27,0,0,0-.07-.07-.07h0v-.6c-.07-2.14-.47-4.42-1.54-6.23h4.49Zm11.6,8.71s.07-.07.13-.2c.07-.07.13-.2.2-.34.07-.07.13-.2.2-.34.13-.2.34-.47.54-.8.07-.07.13-.2.2-.27,0,0,0-.07.07-.07.07-.07.13-.2.2-.27,0,0,0-.07.07-.07.07-.07.13-.2.27-.27.6-.67,1.34-1.27,2.14-1.68v5.7h-4.49v-1.21h.47v-.2Zm8.51,2.48v3.22h-10.25v-.87h0v-.07c0-.07,0-.13.07-.27.34-.47,1.61-.8,2.82-1.14.13-.07.27-.07.4-.13.4-.07.74-.2,1.14-.34.34-.07.6-.2.87-.34.13-.07.34-.13.47-.2h4.42v.13h.07Zm2.48,2.55h17.69v2.75h-17.69v-.07l.13-.13h-.13v-2.55Zm0-1.94h17.69v1.27h-17.69v-1.27Zm0-3.28h17.69v1.54h0v1.07h-17.69v-2.61Zm19.17,3.15h0c.07.07.2.13.27.13l.07.07c.13.07.2.13.34.2.4.27.8.6,1.21,1.01.07.13.2.2.27.34s.2.2.27.34c.07.07.07.13.13.13.13.13.2.34.34.47.13.2.2.47.34.67.13.27.2.6.34.94,0,.07.07.13.07.2h-4.42v-5.03h0c.07,0,.07.07.13.07.13.07.2.13.34.2,0,0,.07,0,.07.07.07.07.13.13.27.2Zm8.71,4.56v-2.55c.6.27,1.21.6,1.68.94.07.07.2.13.27.2.07.07.2.13.27.2.34.34.67.6.87.94h0c0,.07.07.13.07.13h0l.07.13h0l.07.2h0l.07.13h0l.07.2.07.13.07-.13.07-.2h0v-.13h0l.07-.2h0v-.27h0c.2-1.01.54-1.74.94-2.48.07-.13.13-.2.2-.34.07-.13.13-.2.2-.34.47-.74,1.07-1.41,1.74-2.14h0c.67.74,1.21,1.41,1.61,2.14.07.13.13.2.2.34.07.13.13.2.13.34.34.67.6,1.47.87,2.48h0v.27h0l.07.2h0v.13h0l.07.2.07.13.07-.13.07-.2h0l.07-.13h0l.07-.2h0l.07-.13h0c0-.07.07-.13.07-.13h0c.2-.34.54-.67.94-1.01.07-.07.2-.13.27-.2.07-.07.2-.13.27-.2.47-.34,1.01-.6,1.61-.87v2.88h0v1.41h-13.4v-1.41h0v-.34h.13Zm5.09-31.17l-1.14-.94v-.94c.13.07.34.2.54.47l.4.54.2-.6c.27-.8.8-1.47,1.54-1.94.74.47,1.27,1.07,1.54,1.88l.2.6.4-.54c.2-.27.34-.4.54-.47v.94l-1.14.94h-.07c-.34-.4-.8-.8-1.27-1.07l-.13-.07-.13.07c-.54.27-.94.67-1.27,1.07h-.2v.07Zm.67.34c.07-.13.2-.2.34-.34.2-.13.34-.34.6-.4.2.13.4.27.6.4l.34.34c.07.13.13.2.27.34.2.27.34.54.4.87l.2.6.4-.54c.2-.27.34-.4.54-.47v1.41l-.4.94c-.4-.4-.87-.67-1.47-1.01-.2-.13-.4-.2-.6-.34l-.2-.13-.2.13c-.2.13-.34.2-.47.27-.6.34-1.07.67-1.54,1.07l-.47-1.01v-1.41c.13.07.34.2.54.47l.4.54.2-.6c.07-.34.27-.6.4-.87,0-.07.07-.13.13-.27Zm-.87,3.69l.34-.34c.27-.2.6-.4,1.01-.67.13-.07.2-.13.34-.2.13.07.27.2.4.27.34.2.67.4.94.6.13.07.27.2.34.34.07.07.2.2.27.34.2.27.34.6.4,1.01l.2.74.4-.6c.4-.6.67-.8,1.01-.94v1.94l-1.21,1.54c-.6-1.14-1.41-1.74-2.68-2.55l-.2-.13-.2.13c-1.27.8-2.08,1.41-2.68,2.55l-1.21-1.54v-1.94c.4.13.67.4,1.01,1.01l.4.6.2-.74c.13-.4.27-.74.47-1.07.34-.13.4-.27.47-.34Zm-.87,5.23c.07-.13.07-.27.13-.4s.07-.2.13-.34c.47-1.14,1.21-1.68,2.35-2.41,1.21.8,1.88,1.34,2.35,2.48.07.13.07.2.13.34s.07.27.13.4c0,.13.07.2.07.34l.2.74.4-.67c.47-.8,1.01-1.07,1.74-1.21v2.21c-.2.67-1.07,1.74-1.74,2.48-.67-1.61-1.54-2.82-2.68-3.75-.13-.13-.27-.2-.4-.34l-.07-.07-.2-.13-.2.13-.07.07c-.13.13-.27.2-.4.34-1.14,1.01-2.01,2.21-2.68,3.82-.74-.74-1.68-1.81-1.74-2.41v-2.21c.74.13,1.27.4,1.74,1.21l.4.67.2-.74c.13-.34.13-.4.2-.54Zm-.4,4.96c.07-.13.07-.2.13-.34s.07-.2.13-.34c.67-1.68,1.61-2.95,2.82-3.95,1.21,1.01,2.14,2.21,2.82,3.95.07.13.07.2.13.34s.07.2.13.34c.27.74.47,1.54.67,2.41l.2.87.4-.8c.67-1.34,1.54-2.14,2.48-2.41v3.62c-.07.6-.8,1.74-1.61,2.82-.4.34-.74.74-1.07,1.27-.74-2.95-1.88-4.76-3.95-6.3l-.2-.13-.2.13c-2.08,1.54-3.22,3.35-3.95,6.3-.4-.6-.8-1.01-1.27-1.41-.74-1.01-1.41-2.08-1.41-2.61v-3.69c1.01.27,1.81,1.14,2.48,2.41l.4.8.2-.87c.2-.94.4-1.68.67-2.41Zm-1.27,8.71l.07.07.4.74.13-.54.07-.34h0c0-.13.07-.2.07-.34.67-2.95,1.74-4.76,3.62-6.23,1.88,1.47,2.95,3.28,3.62,6.23,0,.13.07.2.07.34h0l.07.34.13.54.4-.74.07-.07c.4-.8.87-1.41,1.41-1.81.34-.27.74-.47,1.07-.6v3.55c-.47.8-1.61,2.14-2.35,3.08-.6-1.34-1.47-2.68-3.02-3.95-.13-.13-.27-.2-.4-.34s-.27-.2-.4-.34c-.13-.07-.2-.13-.34-.27l-.2-.13-.2.13c-.13.07-.2.13-.34.27-.13.13-.27.2-.4.34s-.27.2-.4.34c-1.61,1.34-2.48,2.75-3.08,4.22-.8-.87-2.14-2.41-2.55-3.28v-3.62c.34.07.67.27.94.47.54.47,1.07,1.14,1.54,1.94Zm.34,5.63c.07-.13.07-.2.13-.34s.07-.2.13-.34c.67-1.74,1.68-3.22,3.62-4.69.07-.07.2-.13.27-.2.13.07.2.13.27.2,1.88,1.41,2.88,2.88,3.55,4.49.07.13.07.2.13.34s.07.2.13.34c.07.27.2.6.27.87-.4.34-.74.6-1.01.94-.2-.67-.4-1.21-.6-1.68-.07-.13-.13-.2-.13-.34-.07-.13-.13-.2-.13-.34-.54-1.01-1.27-1.88-2.14-2.82l-.27-.27-.47.54c-.74.87-1.41,1.61-2.01,2.55-.07.13-.13.2-.2.34-.07.13-.13.2-.13.34-.27.54-.47,1.07-.67,1.74-.27-.34-.54-.6-.94-.87,0-.27.07-.54.2-.8Zm18.83-1.81c.13-.07.27-.13.4-.2h0c.2-.13.4-.2.54-.34v4.96h-4.29c0-.13.07-.2.07-.27s.07-.13.07-.2c.47-1.54,1.34-2.55,2.41-3.42h0c.13-.07.2-.13.34-.27h0s.07-.07.13-.07h0c.07-.07.13-.07.2-.13h0s.07,0,.13-.07h0Zm-12,29.49v.13h0v3.75h-5.76v-3.75h0v-.13h5.76Zm0,9.99h0v3.35h-5.76v-4.09h5.76v.74Zm0,18.03h0v4.02h-5.76v-4.02h5.76Zm0,8.71h-5.76v-4.02h5.76v4.02Zm-51.01-18.03h41.96v8.71h-41.96v-8.71Zm0-7.98h0l41.96-.07v7.37h-41.96v-7.31Zm0-6.1h41.96v5.36h-41.96v-5.36Zm0-4.49h0v-.2h41.96v3.95h-41.96v-3.75Zm-3.15-.13v.13h0v3.75h-5.76v-3.75h0v-.13h5.76Zm0,10.05v3.28h-5.76v-4.09h5.76v.8h0Zm-50.74,8.65h41.69v8.71h-41.69v-8.71Zm0-7.98h0l41.69-.07v7.37h-41.69v-7.31Zm0-6.1h41.69v5.36h-41.69v-5.36Zm0-4.49v-.2h41.76v.2h0v3.75h-41.69v-3.75h-.07Zm-3.28,9.85h0v3.35h-5.7v-4.09h5.76v.74h-.07Zm0,18.03h0v4.02h-5.7v-4.02h5.7Zm0,8.71h-5.76v-4.02h5.76v4.02Zm-14.41-63.94c-.6-1.07-1.47-1.88-2.41-2.55v-7.44h2.41v9.99Zm56.57-2.61c-.2-.07-.47-.13-.67-.2-.13-.07-.34-.07-.47-.13-.27-.07-.47-.13-.74-.2h4.02v1.47c-.27-.27-.67-.47-1.14-.6-.27-.07-.6-.2-1.01-.34Zm-54.89,5.43h2.55v1.07h-.07l.07.07v.6h.4l1.54,2.28v15.88h-2.35v-17.83l-2.14-2.08Zm17.29,1.74v-.67h0v-1.07h2.48l-2.14,2.08v17.83h-2.35v-15.88l1.54-2.28h.47Zm36.19-1.68v7.44h-1.81l-.34.34v12.13h-4.36v-17.9l-.07-.07-.2-.34-.2-.34-.87-1.14-.13-.2h7.91s.07.07.07.07Zm5.36,5.76v-2.95l-.6-.94-.13-.27h2.21v18.16h-1.47v-14.01h0Zm-1.27-4.76v-1.14h0v-.34h0v-.34h0v-1.68h0v-.94h.13c.34.13.54.2.74.34.07.07.2.13.27.2,0,0,.07.07.07.13.07.07.13.13.13.2s.07.07.07.13c.07.07.07.13.13.2.07.07.07.2.13.27,0,0,0,.07.07.07.07.13.13.2.13.34l.6-.13v-1.41c0-.13.07-.27.07-.34,0-.13.07-.2.07-.34s.07-.2.07-.34c.13-.4.27-.87.47-1.27.07-.13.07-.2.13-.34s.13-.2.13-.34c.07-.07.07-.13.13-.2h0c0-.07.07-.13.13-.2,0-.07.07-.07.07-.13.07-.07.07-.13.13-.2,0-.07.07-.07.07-.13h0c.07-.07.07-.13.13-.2.07-.07.13-.13.2-.27.07-.13.13-.2.27-.34.07-.13.2-.2.27-.34.13-.13.2-.27.34-.34l.34-.34.07-.07c.13-.07.2-.2.34-.27l.07-.07c.13-.13.27-.2.4-.34h0c.13.07.27.2.4.34l.07.07c.13.07.2.2.34.27l.07.07.34.34.34.34c.07.13.2.2.27.34s.13.2.27.34c.07.07.13.13.2.27.07.07.07.13.13.2h0c0,.07.07.07.07.13.07.07.07.13.13.2,0,.07.07.07.07.13.07.07.07.13.13.2h0c.07.07.07.13.13.2.07.13.13.2.13.34.07.13.07.2.13.34.2.4.34.8.47,1.27,0,.13.07.2.07.34s.07.2.07.34.07.27.07.34v1.41l.6.13c.07-.13.13-.27.2-.34v-.07c.07-.13.13-.2.13-.34.07-.07.07-.13.13-.2,0-.07.07-.07.07-.13.07-.07.07-.13.13-.2,0-.07.07-.07.07-.13.07-.07.13-.13.27-.2.13-.13.34-.2.6-.34.07,0,.07-.07.13-.07h0q.07,0,.07-.07v1.01h0v1.54h0v.34h0v.34h0v1.14h-9.85l-2.82.27h0Zm.13-6.5v-.54h2.75c-.07.07-.07.13-.13.2-.07.13-.13.2-.13.34-.07.13-.07.2-.13.34-.2.4-.34.8-.4,1.27,0,.13-.07.2-.07.34s-.07.2-.07.34-.07.27-.07.34v.13c0-.07-.07-.07-.07-.13-.07-.13-.2-.27-.34-.34-.13-.13-.27-.2-.47-.34-.2-.13-.47-.2-.74-.34q-.07,0-.13-.07v-1.54h0Zm16.29-.27c-.13.07-.27.07-.47.13-.27.07-.47.13-.74.2-.34.13-.74.2-1.01.34-.4.13-.8.34-1.07.54v-1.47h4.02c-.2.13-.47.2-.74.27Zm-3.89,0v1.88q-.07,0-.13.07c-.27.07-.54.2-.74.34-.2.07-.34.2-.47.34l-.34.34-.13.13v-.13c0-.13,0-.27-.07-.34,0-.13-.07-.2-.07-.34s-.07-.2-.07-.34c-.13-.4-.27-.87-.4-1.27-.07-.13-.07-.2-.13-.34s-.07-.2-.13-.34c-.07-.07-.07-.13-.13-.2h2.75v.2h.07Zm-.6,7.71l-.6.94v17.02h-1.47v-18.16h2.21l-.13.2Zm4.69,3.82v-5.83h8.11l-.13.2-.87,1.14-.27.34-.27.34-.07.07v17.9h-4.29v-12.13l-.34-.34h-1.94v-1.68h.07Zm51.27-4.09v-.6l.07-.07h-.07v-1.07h2.55l-2.14,2.08v17.83h-2.35v-15.88l1.54-2.28h.4Zm.4,18.83c.07,1.21.94,2.35,1.94,3.15h-1.88c-1.07-.67-2.35-1.94-2.41-3.15h2.35Zm-65.55,0h0v3.15h-3.42c.34-.27.67-.54.94-.87.07-.13.2-.2.27-.34s.13-.2.2-.34c.34-.54.54-1.07.54-1.61h1.47Zm-13.94-18.3v2.88h-21.18v-3.15h20.98l.2.27Zm0,5.16h-1.41l-.34.34v12.13h-1.81v-12.13l-.34-.34h-2.61l-.34.34v12.13h-2.21v-12.13l-.34-.34h-2.61l-.34.34v12.13h-2.21v-12.13l-.34-.34h-2.61l-.34.34v12.13h-1.81v-12.13l-.34-.34h-1.34v-1.68h21.18v1.68h.13Zm0,12.4h-1.07v-11.73h1.07v11.73Zm14.61-14.01v-4.09h5.83v18.16h-5.83v-14.08Zm0,16.96v-2.28h5.83v3.15h-5.83v-.87Zm8.91.94h-2.48v-3.15h1.47c0,.54.27,1.14.54,1.61.07.13.13.2.2.34.07.13.13.2.27.34.27.34.6.6.94.87h-.94Zm-62.94-3.15h5.83v3.15h-5.83v-3.15Zm6.5,3.08v-3.15h1.21c.07,1.21.94,2.35,1.94,3.15h-3.15Zm1.81-3.08h2.35c.07,1.21.94,2.35,1.94,3.15h-1.81c-1.14-.67-2.41-1.94-2.48-3.15Zm3.02,0h6.3c0,.54.2,1.14.4,1.61.07.13.13.2.2.34.07.13.13.2.2.34.2.34.47.6.74.87h-5.36c-1.14-.67-2.41-1.94-2.48-3.15Zm2.08-.74v-11.73h1.94v11.73h-1.94Zm4.83-11.73h1.07v11.73h-1.07v-11.73Zm28.28,12.47h0c-.07.54-.4,1.07-.87,1.61-.07.13-.2.2-.34.34s-.27.2-.34.34c-.4.34-.87.67-1.27.87h-5.43c.34-.27.6-.54.87-.87.07-.13.13-.2.2-.34.07-.13.13-.2.2-.34.27-.54.47-1.07.47-1.61h6.5Zm-24.13-.74v-11.73h1.94v11.73h-1.94Zm5.43,0v-11.73h1.94v11.73h-1.94Zm5.43,0v-11.73h1.94v11.73h-1.94Zm-14.08,2.95c-.07-.13-.2-.2-.27-.34s-.13-.2-.2-.34c-.27-.47-.47-1.07-.47-1.61h21.18c0,.54-.27,1.14-.6,1.61-.07.13-.13.2-.2.34-.07.13-.2.2-.27.34-.34.34-.74.67-1.14.87h-17.02c-.4-.2-.74-.47-1.01-.87Zm-13.34-21.05v18.16h-5.83v-18.16h5.83Zm61.39,6.37h1.61v11.73h-1.61v-11.73Zm7.17,0h1.21v11.73h-1.21v-11.73Zm0-2.28h21.45v1.68h-1.61l-.34.34v12.13h-1.94v-12.13l-.34-.34h-2.61l-.34.34v12.13h-2.21v-12.13l-.34-.34h-2.61l-.34.34v12.13h-2.01v-12.13l-.34-.34h-2.61l-.34.34v12.13h-1.68v-12.13l-.34-.34h-1.54v-1.68h.07Zm0-3.55l.2-.34h21.18v3.15h-21.45v-2.82h.07Zm-5.7,20.24c-.13-.13-.27-.2-.4-.34-.6-.54-1.01-1.07-1.07-1.61h6.57c.07.54.27,1.14.67,1.61.07.13.13.2.27.34.07.13.2.2.27.34.34.34.67.6,1.07.87h-5.5c-.47-.2-1.01-.54-1.47-.87-.13-.13-.27-.27-.4-.34Zm27.14-2.68h-1.27v-11.73h1.27v11.73Zm4.89,0h-1.94v-11.73h1.94v11.73Zm-22.12,0v-11.73h1.94v11.73h-1.94Zm5.36,0v-11.73h1.94v11.73h-1.94Zm5.43,0v-11.73h1.94v11.73h-1.94Zm-13.4,2.95c-.13-.13-.27-.2-.4-.34l-.34-.34c-.47-.54-.8-1.07-.87-1.61h21.45c0,.54-.2,1.14-.47,1.61-.07.13-.13.2-.2.34-.07.13-.13.2-.27.34-.27.34-.6.67-.94.87h-16.62c-.47-.2-.94-.47-1.34-.87Zm19.71,0c.07-.13.13-.2.2-.34.07-.13.13-.2.2-.34.27-.54.4-1.07.4-1.61h6.23c-.07,1.21-1.34,2.48-2.41,3.15h-5.36c.27-.2.54-.54.74-.87Zm7.71-2.21h2.35c-.07,1.21-1.34,2.48-2.41,3.15h-1.88c.94-.8,1.88-1.94,1.94-3.15Zm3.02,0h1.21v3.15h-3.22c1.01-.8,1.94-1.94,2.01-3.15Zm7.64,0v3.15h-5.83v-3.15h5.83Zm0-18.83v18.16h-5.83v-18.16h5.83Zm.67,21.92v-3.15h1.21c.07,1.21.94,2.35,1.94,3.15h-3.15Zm1.21-19.84v16.09h-1.21v-18.16h2.61l-1.41,2.08Zm-8.31-2.08v18.16h-1.21v-16.09l-1.41-2.08h2.61Zm-4.89.6v17.56h-1.41v-12.13l-.34-.34h-2.61l-.27.27-.07.07v12.13h-1.68v-18.83l-.74-.94-.13-.2h4.76l2.48,2.41Zm-36.19,18.23h0c.07.6.34,1.14.8,1.61.07.13.2.2.34.34s.27.2.34.34c.4.34.8.6,1.21.87h-4.16c-.4-.2-.8-.54-1.14-.87l-.34-.34c-.07-.13-.2-.2-.27-.34-.4-.54-.67-1.07-.74-1.61h3.95Zm-15.35,0c-.07.54-.34,1.14-.74,1.61-.07.13-.2.2-.27.34l-.34.34c-.34.34-.74.67-1.14.87h-3.89c.34-.27.74-.54,1.07-.87.13-.13.2-.2.27-.34s.2-.2.27-.34c.4-.54.6-1.07.67-1.61h4.09Zm-35.19-20.58h2.48l-.13.2-.74.94v18.83h-1.68v-12.13l-.34-.34h-2.61l-.34.34v12.13h-1.41v-17.56l2.41-2.35h2.35v-.07Zm-8.38,3.82v16.09h-1.21v-18.16h2.61l-1.41,2.08Zm-8.31-2.08v18.16h-1.21v-16.09l-1.41-2.08h2.61Zm-1.21,18.83h1.21v3.15h-3.15c1.01-.8,1.88-1.94,1.94-3.15Zm105.63-19.5h0v.67h.4l1.54,2.28v15.88h-2.35v-17.83l-2.14-2.08h2.48v1.07h.07Zm-8.78-.87l.87,1.14h-20.71l.87-1.14h18.97Zm-50,19.64v-11.73h1.47v11.73h-1.47Zm-7.1-19.64l.87,1.14h-20.51l.87-1.14h18.77Zm-42.69,20.38h2.35c-.07,1.21-1.34,2.48-2.41,3.15h-1.88c.94-.8,1.88-1.94,1.94-3.15h0Zm125.8-.74v-11.73h1.94v11.73h-1.94Zm-129.83,0v-11.73h1.94v11.73h-1.94Zm14.61,31.9h-5.7v-4.02h5.76v4.02h-.07Zm0-8.65v4.02h-5.7v-4.02h5.7Zm0-.74h-5.76v-4.02h5.76v4.02Zm0-13.34v4.02h-5.7v-4.02h5.7Zm0-.67h-5.76v-3.75h0v-.2h5.76v.13h0v3.82Zm54.02,23.39h-5.76v-4.02h5.76v4.02Zm-5.76,9.38v-4.02h5.76v4.02h-5.76Zm5.76-8.65v4.02h-5.76v-4.02h5.76Zm0-5.36h-5.76v-4.02h5.76v4.02Zm0-4.69h-5.76v-4.02h5.76v4.02h0Zm0-9.38h-5.76v-4.09h5.76v4.09Zm54.16,18.7h-5.76v-4.02h5.76v4.02Zm0-8.65v4.02h-5.76v-4.02h5.76Zm0-.74h-5.76v-4.02h5.76v4.02Zm0-13.34v4.02h-5.76v-4.02h5.76Zm8.04-5.29c-1.07-.67-2.35-1.94-2.41-3.15h5.63c.07,1.21.94,2.35,1.94,3.15h-5.16Zm3.22-22.52v18.7h-1.68v-12.13l-.34-.34h-2.61l-.34.34v12.13h-.74v-17.56l2.41-2.35h3.89l-.6,1.21Zm-2.48-13.94h2.41v7.44c-.94.67-1.81,1.47-2.41,2.55v-9.99Zm-55.9,12.06c-.07.07-.07.13-.13.2,0,.07-.07.07-.07.13h0c0,.07-.07.13-.07.2v.13h0v19.97h-3.95v-16.82l.74-1.07.13-.27h.4v-.67h0v-1.14h0v-.34h0v-.34h0v-1.34h4.36c-.54.4-1.07.87-1.41,1.34h0Zm-29.96.2h-17.02v-2.75h17.02v2.75Zm-47.92.47h3.22l2.41,2.35v17.56h-.74v-12.13l-.34-.34h-2.61l-.34.34v12.13h-1.68v-18.7l-.67-1.21h.74Zm-.07,20.58h5.63c-.07,1.21-1.34,2.48-2.41,3.15h-5.16c.94-.8,1.88-1.94,1.94-3.15Zm62.53,31.84v-.34h0v-.34h0v-27.21h0v-.13h1.94v.13h0v27.35h0v.34h0v.34h0v8.65h-1.94v-8.78h0Zm22.65-63.07v4.22h-1.27v-10.25h1.27v6.03Zm-29.83,4.76c.13.07.34.13.47.2.27.13.6.2.87.34.34.13.74.2,1.07.34.13.07.27.07.4.13,1.21.34,2.41.67,2.75,1.14.07.07.07.13.07.27v.07l.07.13v.74h-10.39v-3.42h4.69v.07Zm-35.92,67.02h-1.88v-8.65h0v-.34h0v-.34h0v-27.41h1.88v27.48h0v.34h0v.34h0v8.58Zm53.95,0h-1.81v-8.65h0v-.34h0v-.34h0v-27.28h0v-.13h1.81v.13h0v27.35h0v.34h0v.34h0v8.58Zm54.22,0h-1.88v-8.65h0v-.34h0v-.34h0v-27.28h0v-.13h1.81v27.48h0v.34h0v.34h0v8.58h.07Zm28.82-9.32h-28.08v-8.71h28.08v8.71Zm-4.69-9.45h-23.39v-7.31h23.46v7.31h-.07Zm-4.62-7.98h-18.77v-5.36h18.77v5.36Zm-2.75-6.03h-16.02v-3.95h16.02v3.95h0Zm-4.96-4.62c-1.07-.67-2.35-1.94-2.41-3.15l.74.07c.4,1.27,1.27,2.35,2.14,3.08h-.47Zm-1.34-40.42v5.56h0v1.47h0v1.47h0v1.74c-.13.07-.27.13-.47.27h0c-.13.07-.27.13-.4.2h0c-.13.07-.27.13-.34.2v-.07h0v-10.92c.47-.2.87-.13,1.21.07Zm-1.81,3.28h-2.41v-1.74h2.41v1.74Zm-25.87,10.92c-.13-.27-.27-.54-.47-.74-.13-.13-.2-.34-.34-.47l-.13-.13c-.07-.07-.13-.13-.2-.27-.34-.4-.74-.74-1.14-1.01-.13-.13-.27-.2-.47-.34-.07-.07-.2-.13-.27-.2v-4.42h3.02v7.57h0Zm-5.03-6.5h-17.69v-1.07h17.69v1.07Zm-57.37,0h-17.02v-1.07h17.02v1.07Zm-20.17-1.01h1.07v4.42c-.07.07-.2.13-.27.2-.13.13-.27.2-.47.34-.13.07-.2.2-.34.27s-.2.2-.34.27l-.34.34c-.47.47-.87,1.07-1.21,1.74v-7.51h1.88v-.07Zm-25.34-3.42h-2.41v-1.74h2.41v1.74Zm-3.02,7.57h0v.07c-.13-.07-.27-.13-.34-.2h0c-.13-.07-.27-.13-.4-.2h0c-.13-.07-.27-.13-.47-.27v-1.74h0v-1.47h0v-1.47h0v-5.56c.34-.2.74-.2,1.14,0l.07,10.86Zm-.74,26.41h.6c-.13,1.21-1.34,2.48-2.41,3.15h-.27c.87-.8,1.68-1.88,2.08-3.15Zm-6.77,3.75h15.95v3.95h-15.95v-3.95Zm-2.75,4.69h18.7v5.36h-18.7v-5.36h0Zm-9.32,14.08h28.02v8.71h-28.02v-8.71Zm40.28,9.38h41.69v8.71h-41.69v-8.71Zm53.89,0h41.96v8.71h-41.96v-8.71Zm54.29,0h32.77v8.71h-32.77v-8.71Zm-60.25-115.62c.27,0,.47.13.67.27.47.54.6,1.54.67,2.14h-2.61c0-.6.13-1.68.67-2.14.13-.13.34-.27.6-.27Z"/>
      </g>
    </g>
  </g>
</svg>