<?xml version="1.0" encoding="UTF-8"?>
<svg id="Layer_2" data-name="Layer 2" xmlns="http://www.w3.org/2000/svg" viewBox="0 0 520 320">
  <defs>
    <style>
      .cls-1 {
        fill: #a3ab78;
      }

      .cls-1, .cls-2, .cls-3, .cls-4 {
        stroke-width: 0px;
      }

      .cls-2 {
        fill: red;
      }

      .cls-3 {
        fill: none;
      }

      .cls-4 {
        fill: #fff;
      }
    </style>
  </defs>
  <g id="_500x300_Background" data-name="500x300 Background">
    <rect class="cls-1" width="520" height="320" rx="10" ry="10"/>
  </g>
  <g id="Canada">
    <g>
      <rect class="cls-3" x="134.98" y="10" width=".08" height="300"/>
      <rect class="cls-2" x="10" y="10" width="124.98" height="300"/>
      <rect class="cls-2" x="385.09" y="10" width="124.91" height="300"/>
      <path class="cls-4" d="m135.06,10v300h250.04V10h-250.04Zm173.55,195.34l4.13,13.51c-16.14-1.88-30.63-4.65-46.76-6.38-1.43-.15-3.6,2.33-3.6,3.98l1.2,49.24h-7.88l2.18-49.39c0-1.65-2.4-3.98-3.83-3.83-16.14,1.73-30.63,4.5-46.76,6.38l4.13-13.51c.68-2.33-.23-4.95-2.1-6.38l-46.91-38.13,9.68-4.58c4.28-1.5,3.08-3.9,1.58-9.68l-7.13-26.05,27.25,5.7c2.63.38,4.43-1.35,4.8-2.93l3.53-12.24,21.54,24.1c3.08,3.83,9.31,3.83,7.36-5.1l-9.23-48.87,12.39,6.38c3.45,1.95,6.91,2.25,8.86-1.2l17.04-31.83,17.04,31.83c1.95,3.45,5.4,3.15,8.86,1.2l12.39-6.38-9.31,48.87c-1.95,8.93,4.28,8.93,7.36,5.1l21.54-24.1,3.53,12.24c.38,1.65,2.18,3.3,4.8,2.93l27.25-5.7-7.13,26.05c-1.5,5.78-2.7,8.18,1.58,9.68l9.68,4.58-46.91,38.13c-1.8,1.43-2.78,4.05-2.1,6.38Z"/>
      <path class="cls-2" d="m310.71,198.96l46.91-38.13-9.68-4.58c-4.28-1.5-3.08-3.9-1.58-9.68l7.13-26.05-27.25,5.7c-2.63.38-4.43-1.28-4.8-2.93l-3.53-12.24-21.54,24.1c-3.08,3.83-9.31,3.83-7.36-5.1l9.31-48.87-12.39,6.38c-3.45,1.95-6.91,2.25-8.86-1.2l-17.04-31.83-17.04,31.83c-1.95,3.45-5.4,3.15-8.86,1.2l-12.39-6.38,9.23,48.87c1.95,8.93-4.28,8.93-7.36,5.1l-21.54-24.1-3.53,12.24c-.38,1.58-2.18,3.3-4.8,2.93l-27.25-5.7,7.13,26.05c1.5,5.78,2.7,8.18-1.58,9.68l-9.68,4.58,46.91,38.13c1.88,1.43,2.78,4.05,2.1,6.38l-4.13,13.51c16.14-1.88,30.63-4.65,46.76-6.38,1.43-.15,3.83,2.18,3.83,3.83l-2.18,49.39h7.88l-1.2-49.24c0-1.65,2.18-4.13,3.6-3.98,16.14,1.73,30.63,4.5,46.76,6.38l-4.13-13.51c-.68-2.33.3-4.95,2.1-6.38Z"/>
    </g>
  </g>
</svg>