<?xml version="1.0" encoding="UTF-8"?>
<svg id="Layer_2" data-name="Layer 2" xmlns="http://www.w3.org/2000/svg" viewBox="0 0 520 320">
  <defs>
    <style>
      .cls-1 {
        fill: #a3ab78;
      }

      .cls-1, .cls-2, .cls-3 {
        stroke-width: 0px;
      }

      .cls-2 {
        fill: #ffde00;
      }

      .cls-3 {
        fill: #de2910;
      }
    </style>
  </defs>
  <g id="_500x300_Background" data-name="500x300 Background">
    <rect class="cls-1" width="520" height="320" rx="10" ry="10"/>
  </g>
  <g id="China">
    <g>
      <rect id="rect7" class="cls-3" x="10" y="10" width="500" height="300"/>
      <g>
        <polygon class="cls-2" points="95.36 71.13 85.22 40.02 75.15 71.13 42.33 71.13 68.88 90.33 58.74 121.44 85.22 102.24 111.77 121.44 101.63 90.33 128.18 71.13 95.36 71.13"/>
        <polygon class="cls-2" points="158.26 45.33 163.85 54.66 164.8 43.76 175.49 41.31 165.41 37.09 166.36 26.2 159.22 34.44 149.14 30.15 154.79 39.54 147.58 47.78 158.26 45.33"/>
        <polygon class="cls-2" points="186.45 73.99 188.01 84.81 193.12 75.15 203.87 77.05 196.25 69.22 201.42 59.56 191.55 64.39 183.93 56.56 185.49 67.39 175.69 72.15 186.45 73.99"/>
        <polygon class="cls-2" points="196.11 116.6 204.76 109.86 193.8 110.27 190.05 100.06 187.06 110.54 176.1 110.88 185.15 117.01 182.16 127.49 190.8 120.76 199.86 126.81 196.11 116.6"/>
        <polygon class="cls-2" points="165.28 141.86 165.82 130.97 158.94 139.48 148.73 135.66 154.72 144.79 147.92 153.29 158.47 150.37 164.46 159.49 165 148.6 175.55 145.74 165.28 141.86"/>
      </g>
    </g>
  </g>
</svg>