<?xml version="1.0" encoding="UTF-8"?>
<svg id="Layer_2" data-name="Layer 2" xmlns="http://www.w3.org/2000/svg" viewBox="0 0 520 320">
  <defs>
    <style>
      .cls-1 {
        fill: #a3ab78;
      }

      .cls-1, .cls-2, .cls-3, .cls-4, .cls-5, .cls-6 {
        stroke-width: 0px;
      }

      .cls-2 {
        fill: #3a75c4;
      }

      .cls-3 {
        fill: #fff;
      }

      .cls-4 {
        fill: #ce1126;
      }

      .cls-5 {
        fill: #3d8e33;
      }

      .cls-6 {
        fill: #ffc61e;
      }
    </style>
  </defs>
  <g id="_500x300_Background" data-name="500x300 Background">
    <rect class="cls-1" width="520" height="320" rx="10" ry="10"/>
  </g>
  <g id="Comoros">
    <g>
      <polygon class="cls-2" points="137.55 235 10 310 510 310 510 235 137.55 235"/>
      <polygon class="cls-4" points="137.55 235 510 235 510 160 265.09 160 137.55 235"/>
      <polygon class="cls-3" points="265.09 160 510 160 510 85 137.55 85 265.09 160"/>
      <polygon class="cls-6" points="510 85 510 10 10 10 137.55 85 510 85"/>
      <path class="cls-5" d="m265.09,160l-127.55-75L10,10v300l127.55-75,127.55-75Zm-165.2,44.45h9.29l2.86-8.63,2.86,8.63h9.29l-7.51,5.35,2.86,8.63-7.48-5.33-7.48,5.33,2.86-8.63-7.51-5.35Zm19.63-82.64l-7.48-5.33-7.48,5.33,2.86-8.63-7.51-5.35h9.29l2.86-8.63,2.86,8.63h9.29l-7.51,5.35,2.86,8.63Zm-10.34,18.25l2.86-8.63,2.86,8.63h9.29l-7.51,5.35,2.86,8.63-7.48-5.33-7.48,5.33,2.86-8.63-7.51-5.35h9.29Zm10.34,46.13l-7.48-5.33-7.48,5.33,2.86-8.63-7.51-5.35h9.29l2.86-8.63,2.86,8.63h9.29l-7.51,5.35,2.86,8.63Zm-22.76-93.71c5.27,0,10.39.6,15.31,1.69-30.67,6.83-53.58,33.69-53.58,65.82s22.9,58.99,53.58,65.82c-4.93,1.1-10.05,1.69-15.31,1.69-38.05,0-68.89-30.23-68.89-67.52s30.84-67.52,68.89-67.52Z"/>
      <path class="cls-3" d="m96.76,227.52c5.27,0,10.39-.6,15.31-1.69-30.67-6.83-53.58-33.69-53.58-65.82s22.9-58.99,53.58-65.82c-4.93-1.1-10.05-1.69-15.31-1.69-38.05,0-68.89,30.23-68.89,67.52s30.84,67.52,68.89,67.52Z"/>
      <polygon class="cls-3" points="114.89 107.84 112.04 99.21 109.18 107.84 99.89 107.84 107.41 113.19 104.55 121.81 112.04 116.48 119.52 121.81 116.67 113.19 124.18 107.84 114.89 107.84"/>
      <polygon class="cls-3" points="107.41 145.42 104.55 154.04 112.04 148.71 119.52 154.04 116.67 145.42 124.18 140.07 114.89 140.07 112.04 131.44 109.18 140.07 99.89 140.07 107.41 145.42"/>
      <polygon class="cls-3" points="114.89 172.22 112.04 163.59 109.18 172.22 99.89 172.22 107.41 177.57 104.55 186.2 112.04 180.87 119.52 186.2 116.67 177.57 124.18 172.22 114.89 172.22"/>
      <polygon class="cls-3" points="112.04 213.1 119.52 218.43 116.67 209.8 124.18 204.45 114.89 204.45 112.04 195.82 109.18 204.45 99.89 204.45 107.41 209.8 104.55 218.43 112.04 213.1"/>
    </g>
  </g>
</svg>