<?xml version="1.0" encoding="UTF-8"?>
<svg id="Layer_2" data-name="Layer 2" xmlns="http://www.w3.org/2000/svg" viewBox="0 0 520 320">
  <defs>
    <style>
      .cls-1 {
        fill: #a3ab78;
      }

      .cls-1, .cls-2, .cls-3, .cls-4, .cls-5 {
        stroke-width: 0px;
      }

      .cls-2 {
        fill: none;
      }

      .cls-3 {
        fill: #fff;
      }

      .cls-4 {
        fill: #cf142b;
      }

      .cls-5 {
        fill: #002a8f;
      }
    </style>
  </defs>
  <g id="_500x300_Background" data-name="500x300 Background">
    <rect class="cls-1" width="520" height="320" rx="10" ry="10"/>
  </g>
  <g id="Cuba">
    <g>
      <polygon class="cls-2" points="111.54 250.04 510 250.04 510 249.95 111.69 249.95 111.54 250.04"/>
      <polygon class="cls-2" points="213.24 130.02 510 130.02 510 129.93 213.09 129.93 213.24 130.02"/>
      <polygon class="cls-5" points="264.01 160 213.24 189.98 510 189.98 510 130.02 213.24 130.02 264.01 160"/>
      <polygon class="cls-5" points="510 69.96 510 10 10 10 111.54 69.96 510 69.96"/>
      <polygon class="cls-5" points="111.54 250.04 10 310 510 310 510 250.04 111.54 250.04"/>
      <polygon class="cls-3" points="111.69 249.95 510 249.95 510 189.98 213.24 189.98 111.69 249.95"/>
      <polygon class="cls-3" points="213.09 129.93 510 129.93 510 69.96 111.54 69.96 213.09 129.93"/>
      <path class="cls-4" d="m111.69,249.95l101.54-59.96,50.77-29.98-50.77-29.98-.15-.09-101.54-59.96L10,10v179.98h0v120.02l101.54-59.96.15-.09Zm-33.06-84.64l-25.83-19.19h31.93l9.99-31.13,9.91,31.13h31.93l-25.83,19.1,9.91,31.13-26-19.19-25.91,19.19,9.91-31.04Z"/>
      <polygon class="cls-3" points="94.64 177.16 120.64 196.35 110.74 165.22 136.56 146.11 104.63 146.11 94.73 114.98 84.73 146.11 52.81 146.11 78.63 165.31 68.73 196.35 94.64 177.16"/>
    </g>
  </g>
</svg>