<?xml version="1.0" encoding="UTF-8"?>
<svg id="Layer_2" data-name="Layer 2" xmlns="http://www.w3.org/2000/svg" viewBox="0 0 520 320">
  <defs>
    <style>
      .cls-1 {
        fill: #a3ab78;
      }

      .cls-1, .cls-2, .cls-3, .cls-4 {
        stroke-width: 0px;
      }

      .cls-2 {
        fill: #d57800;
      }

      .cls-3 {
        fill: #fff;
      }

      .cls-4 {
        fill: #4e5b31;
      }
    </style>
  </defs>
  <g id="_500x300_Background" data-name="500x300 Background">
    <rect class="cls-1" width="520" height="320" rx="10" ry="10"/>
  </g>
  <g id="Cyprus">
    <g>
      <rect class="cls-3" x="10" y="10" width="500" height="300"/>
      <g>
        <path class="cls-4" d="m196.52,244.64c.14-.41.14-.89-.07-1.5-.21-.55-.55-1.09-.96-1.5-.34-.27-.82-.68-1.44-.68-.27,0-.48.07-.68.14,0,0-.07,1.03.14,2.05.14.62.34,1.09.62,1.44.34.41.89.68,1.37.68.55.07.89-.27,1.03-.62Z"/>
        <path class="cls-4" d="m222.1,243.07c-3.35-9.98-9.85-11.63-13.47-11.69h-.62c-1.3,0-2.19.27-2.19.27,0,.14.68,2.39,2.94,4.92,2.12,2.33,6.15,5.4,13.33,6.5Z"/>
        <path class="cls-4" d="m214.57,248.75c-2.12-1.57-5.27-2.39-9.44-2.39h-.82c-4.65.14-8.75,1.16-8.75,1.16,3.76,3.76,9.85,5.13,14.22,5.13h.34c2.39-.07,4.1-.41,5.06-1.16.48-.34.68-.82.62-1.23-.14-.41-.48-.96-1.23-1.5Z"/>
        <path class="cls-4" d="m228.52,244.64c.62,0,1.16-.34,1.3-.75.14-.48.14-1.03-.14-1.71-.48-1.23-1.57-2.46-3.01-2.46h-.07c-.27,0-.62.07-.89.21,0,.14-.07,1.23.21,2.39.21.62.48,1.16.82,1.57.48.48,1.09.75,1.78.75Z"/>
        <path class="cls-4" d="m250.13,255.38c-6.43-12.1-13.06-13.4-15.66-13.4-.89,0-1.5.14-1.5.14,0,0-.41,2.74,1.5,5.61,1.71,2.74,5.88,6.29,15.66,7.66Z"/>
        <path class="cls-4" d="m220.59,251.34c2.12,1.44,5.27,2.12,9.44,2.12,1.91,0,4.1-.14,6.5-.48-5.2-4.99-10.12-6.09-13.33-6.09h-.68c-2.53.14-4.24.89-4.38.96.07.07.14.55.41,1.16.27.62.89,1.5,2.05,2.33Z"/>
        <path class="cls-4" d="m219.16,253.81c-.34,0-.62.07-.96.21,0,.14-.07,1.23.21,2.39.21.68.41,1.23.82,1.64.48.48,1.09.75,1.78.75.62,0,1.16-.34,1.3-.75.14-.48.14-1.03-.14-1.71-.48-1.3-1.64-2.53-3.01-2.53Z"/>
        <path class="cls-4" d="m234.27,255.72h-.07c-3.21,0-5.2.96-6.29,1.78-1.16.82-1.64,1.71-1.64,1.71,3.62,2.05,7.39,3.15,11.21,3.15,6.15.07,10.39-2.67,10.53-2.8-5.33-2.53-9.98-3.83-13.75-3.83Z"/>
        <path class="cls-4" d="m166.09,212.57c2.6,1.5,4.92,2.46,6.22,2.74h.14c.07,0,.14,0,.27-.07.07-.07.21-.14.21-.27.14-.27.07-.55,0-1.03-.14-.75-.48-1.78-1.16-3.21-1.03-2.26-2.26-4.51-2.46-4.79,0,0-1.78-2.26-4.03-4.51-1.3-1.3-2.53-2.33-3.69-3.08-1.44-.96-2.53-1.44-3.49-1.44-.27,0-.48.07-.75.14,0,.21-.21,1.91-.07,4.03.21,2.94.96,5.2,2.19,6.56,1.44,1.5,3.83,3.28,6.63,4.92Z"/>
        <path class="cls-4" d="m174.02,201.22c0,.14.21,1.57.41,3.21.21,1.37.48,3.76.48,4.86,0,1.16.82,2.6,1.71,3.97.82,1.3,1.71,2.39,1.71,2.39,0-.07.41-4.31.41-8.48s-4.51-5.88-4.72-5.95Z"/>
        <path class="cls-4" d="m171.42,219.41c-1.64-1.78-5.2-3.97-12.65-4.17,0,0,.21,1.71,1.03,3.49.75,1.64,2.12,3.69,4.51,4.17,2.46.41,4.79.55,6.29.55s2.6-.14,2.6-.14c0-.14-.07-2.05-1.78-3.9Z"/>
        <path class="cls-4" d="m176.07,218.31c-.41,0-.75.07-.75.07.48,5.27,4.31,8.68,7.45,10.6,3.35,2.05,6.7,2.94,6.77,2.94-2.46-5.47-5.13-9.37-8.07-11.63-2.33-1.78-4.24-1.98-5.13-1.98h-.27Z"/>
        <path class="cls-4" d="m201.99,233.63c.62,0,1.16-.27,1.3-.75.21-.48.14-1.03-.14-1.71-.48-1.23-1.57-2.46-3.01-2.46h-.07c-.27,0-.62.07-.89.21,0,.14-.07,1.23.21,2.33.21.75.48,1.3.82,1.64.41.48,1.09.75,1.78.75Z"/>
        <path class="cls-4" d="m173.68,226.59c-.48.07-.89.14-1.37.21,0,0-.14,1.03.34,2.05.27.62,1.23,2.12,3.9,2.12,1.03,0,1.71-.21,1.98-.68.34-.55-.07-1.3-.21-1.5-.75-1.09-2.39-2.19-4.58-2.19h-.07Z"/>
        <path class="cls-4" d="m195.97,234.32c-1.37,0-2.19.34-2.19.34,0,.14.14.68.48,1.37.34.75,1.09,1.91,2.39,3.08,2.33,2.05,6.91,4.58,15.8,4.86-7.18-8.41-13.33-9.64-16.28-9.64h-.21Z"/>
        <path class="cls-4" d="m190.71,217.77c-2.33-2.46-4.38-3.01-5.74-3.08h-.48c-.96.07-1.64.41-1.64.41,2.8,6.7,6.7,10.8,9.44,13.13,3.01,2.46,5.33,3.42,5.4,3.42-1.98-6.36-4.38-11.01-6.98-13.88Z"/>
        <path class="cls-4" d="m183.19,233.15c-1.57-.34-3.21-.48-4.86-.48h-.41c-3.42.07-5.88.75-5.88.75v.62c.07.34.21.82.62,1.44.68,1.03,2.33,2.46,6.02,3.42,2.12.55,4.38.82,6.77.82,3.97,0,6.84-.82,6.84-.82-.07-.14-3.15-4.58-9.1-5.74Z"/>
        <path class="cls-4" d="m267.5,259.28l-1.71-1.91-5.88,2.53-5.88-2.53-1.71,1.91,3.21,1.5-8.14,5.95s1.16.96,2.33,2.05c.55.48,1.16,1.09,1.64,1.57.21.21.41.48.55.62.07.14.14.21.14.27l-.48-.34-.55.41,1.09.14h.07c.07-.07.14-.07.21-.14l.07-.07c.21-.14.48-.48.89-.96.75-.82,1.78-2.12,2.67-3.21,1.78-2.19,3.21-4.03,3.49-4.44l.48-.55.48.55c.27.34,1.71,2.26,3.49,4.44.89,1.09,1.91,2.33,2.67,3.21.41.48.68.75.89.96l.07.07q.07.07.21.14h.07l1.09-.14-.55-.41-.48.34c0-.07.07-.14.14-.27.14-.21.34-.41.55-.62.48-.48,1.09-1.09,1.64-1.57,1.16-1.03,2.33-1.98,2.33-2.05l-8.27-5.95,3.21-1.5Z"/>
        <path class="cls-4" d="m291.3,244.64c.68,0,1.37-.27,1.78-.75.34-.41.62-.96.82-1.64.27-1.16.21-2.26.21-2.39-.27-.14-.62-.21-.89-.21h-.07c-1.44,0-2.53,1.23-3.01,2.46-.27.68-.34,1.3-.14,1.71.14.48.68.82,1.3.82Z"/>
        <path class="cls-4" d="m314.69,246.42c-4.17,0-7.32.82-9.44,2.39-.75.55-1.16,1.09-1.23,1.57-.07.41.14.89.62,1.23.96.68,2.67,1.09,5.06,1.16h.34c4.44,0,10.46-1.37,14.22-5.13,0-.14-4.1-1.16-8.75-1.23h-.82Z"/>
        <path class="cls-4" d="m341.49,228.78c-.14.21-.62.96-.21,1.5.27.48.96.68,1.98.68,2.74,0,3.62-1.5,3.9-2.12.48-1.03.34-2.05.34-2.05-.41-.14-.89-.14-1.37-.21h-.07c-2.19.07-3.83,1.16-4.58,2.19Z"/>
        <path class="cls-4" d="m325.83,241.09c-.68,0-1.16.34-1.44.68-.41.41-.75.96-.96,1.5-.21.55-.21,1.09-.07,1.5.14.34.48.68,1.03.68s1.03-.27,1.37-.68c.27-.34.48-.82.62-1.44.21-1.09.14-2.12.14-2.12-.21-.07-.41-.14-.68-.14Z"/>
        <path class="cls-4" d="m341.02,207.17c.07,4.24.48,8.48.48,8.48,0,0,.89-1.09,1.71-2.39.89-1.37,1.71-2.8,1.71-3.97s.27-3.56.41-4.86c.21-1.71.41-3.15.41-3.21-.21.07-4.72,1.78-4.72,5.95Z"/>
        <path class="cls-4" d="m361.67,196.84c-1.03,0-2.05.48-3.49,1.44-1.09.75-2.33,1.78-3.69,3.08-2.26,2.26-4.03,4.44-4.03,4.51-.14.27-1.44,2.6-2.46,4.79-.62,1.44-1.03,2.46-1.16,3.21-.07.48-.14.75,0,1.03.07.14.14.21.21.27.07,0,.14.07.27.07h.14c1.3-.21,3.69-1.23,6.22-2.74,2.87-1.64,5.2-3.42,6.56-4.92,1.23-1.44,1.98-3.62,2.19-6.56.21-2.12,0-3.9,0-4.03-.21-.07-.48-.14-.75-.14Z"/>
        <path class="cls-4" d="m330.28,231.92c.07,0,3.35-.89,6.77-2.94,3.15-1.91,6.98-5.33,7.45-10.6,0,0-.27-.07-.75-.07h-.21c-.96,0-2.87.27-5.13,1.98-2.94,2.26-5.68,6.15-8.14,11.63Z"/>
        <path class="cls-4" d="m348.4,219.41c-1.71,1.85-1.78,3.76-1.78,3.9,0,0,1.09.07,2.67.07s3.83-.07,6.29-.55c2.39-.41,3.83-2.46,4.51-4.17.82-1.78,1.03-3.49,1.03-3.49-7.52.27-11.08,2.46-12.72,4.24Z"/>
        <path class="cls-4" d="m341.9,232.68h-.41c-1.64,0-3.28.14-4.86.48-5.95,1.16-9.03,5.68-9.03,5.68,0,0,2.87.82,6.84.82,2.33,0,4.58-.27,6.77-.82,3.76-.96,5.33-2.33,6.02-3.42.41-.62.55-1.09.62-1.44,0-.27-.07-.55-.07-.55,0,0-2.46-.68-5.88-.75Z"/>
        <path class="cls-4" d="m336.91,215.1s-.62-.34-1.64-.41h-.48c-1.37.07-3.42.62-5.74,3.08-2.67,2.87-4.99,7.52-6.98,13.88,0,0,2.39-.96,5.33-3.42,2.87-2.33,6.7-6.5,9.51-13.13Z"/>
        <path class="cls-4" d="m307.37,243.96c8.89-.34,13.47-2.8,15.8-4.86,1.3-1.16,1.98-2.33,2.39-3.08.34-.68.48-1.3.48-1.37,0,0-.82-.27-2.19-.34h-.21c-2.94,0-9.1,1.23-16.28,9.64Z"/>
        <path class="cls-4" d="m289.73,253.46c4.17,0,7.39-.75,9.44-2.12,1.23-.82,1.78-1.71,2.05-2.33.27-.55.34-1.03.34-1.16-.14-.07-1.85-.82-4.38-.96h-.68c-3.15,0-8.07,1.03-13.27,6.09,2.39.34,4.58.48,6.5.48Z"/>
        <path class="cls-4" d="m317.83,233.63c.68,0,1.37-.27,1.78-.75.34-.41.62-.96.82-1.64.27-1.16.21-2.26.21-2.33-.27-.14-.62-.21-.89-.21h-.07c-1.44,0-2.53,1.23-3.01,2.46-.27.68-.34,1.23-.14,1.71.21.41.68.75,1.3.75Z"/>
        <path class="cls-4" d="m300.74,253.81c-1.5,0-2.6,1.23-3.08,2.46-.27.68-.34,1.3-.14,1.71.14.48.68.75,1.3.75.68,0,1.37-.27,1.78-.75.34-.41.62-.96.82-1.64.27-1.16.21-2.26.21-2.39-.27-.07-.62-.14-.89-.14Z"/>
        <path class="cls-4" d="m291.92,257.57c-1.09-.82-3.08-1.78-6.29-1.78h-.07c-3.76,0-8.41,1.3-13.75,3.83.21.14,4.38,2.87,10.46,2.87,3.83,0,7.59-1.03,11.21-3.15,0-.07-.48-.96-1.57-1.78Z"/>
        <path class="cls-4" d="m311.54,231.38h-.34c-3.62.07-10.12,1.71-13.47,11.69,7.18-1.09,11.21-4.17,13.33-6.5,2.26-2.46,2.94-4.79,2.94-4.92,0,0-.89-.21-2.19-.27h-.27Z"/>
        <path class="cls-4" d="m285.42,241.98c-2.67,0-9.3,1.3-15.73,13.4,9.78-1.37,13.95-4.92,15.73-7.66,1.85-2.87,1.5-5.61,1.5-5.61,0,0-.62-.14-1.5-.14Z"/>
        <path class="cls-2" d="m415.28,45.37l-.55.21-1.64-.07-1.5.75-2.67,1.85-.14.07-1.03.27-.96-.41-.55.21-.21,1.09-.48.75-.62.41-2.12.21-1.78.96-2.33-.62-.96.41-2.33,2.05-1.16.55h-.41l-1.57-.07-.68.21-.96.96-1.85.14-.62.41-.89,1.85-.96,1.03-.55.14-.62-.21-.48.07-.21,1.16-.48.48-1.23.41-1.03.82-.89.48h-1.44l-1.16.62-2.19.21-.89.89-.21.21-.41.27-.68.41-.21.14-.82-.14-.96.41-.41-.62-.68.41-.89.07-1.09-.48-.89-.41-.62.07-.21,1.09v.14l-.68.89-1.23.75-.14.21-1.44,1.78-2.67,2.8-2.26,1.16-2.33.68-1.64,1.37-4.31,2.12-6.77,3.35-1.37.41-1.98.34-3.56,1.3-3.15.96-.21.07-.62.21-4.38,1.3-2.05-.21-1.23.41-3.15-.34-2.19.07-1.37.27-2.6,1.23-4.45,2.12-1.44,1.3-2.26,1.16-2.67.82v-1.16l-.96.27-.68.21-2.19.34h-1.23l-.75-.21-.14.07-4.44,1.44-4.92.48-2.46.82h-1.85l-1.16.34-2.26.27-.82-.21-.21-.07-6.63.27-3.01-.34-1.44.34-2.39-.82-3.56-.41-.82-.27-1.85-.55-.82.48-.62.07-1.5-.55h-.55l-1.23.48-.68-.21-.68-.55-1.57-.21-.96-.82-5.33.68-1.44-.41-4.86-1.37-.75.07-.96.68-1.44.55-1.23.34-1.71.07-1.98-.75-2.05-.96-.75-.21-1.71.14-.55.07-3.08-1.64-3.97-2.46-2.67-1.3-1.03-.14-.14.48.48,1.57.21,1.57-.07,1.44v.89l.27.82.96,1.09.41,1.09.27,2.94v3.01l-.48,4.79-.14.75-.55,2.46-.55,2.26-1.98,6.09-.55.75-1.37.89-3.08,2.05-2.26,1.3-.68.27-1.85.14-1.16-.07-1.44-.75-1.37-.34-1.85-1.3-2.05-.41-2.26-1.3-.55-.68-1.23-.14-1.71-.48-.62-.21-.41-.14-2.12-.07-1.98-.89-1.03-.27-1.44-.07-1.5.68-.75.34-.96-.41-.68.07-.82,1.16-.14.21-.55.27h-1.23l-.55.27-.75.34-.68.27-.34.14-.21.07-.34.07-.48.07-.82-.48-.41-.27-.68-.14-.41.27-.07,1.3-.34.75-1.09.96-1.09.96-.75,1.16-2.05,4.72-1.3,1.91-.41.41-1.37,1.5-1.23.96-2.8,2.12-2.6.96-2.26.48h-1.09l-2.05-.27-1.85-.55-2.05-1.3-2.26-1.78-3.28-3.21-.48-.27-.14.14-1.03-.68h-.75l-.27.48-.14.68-.14.62-.34,3.56v.21l.21,1.5,2.46,3.49.75,1.85.14.21.48.89.41.68.07.07.82,2.53-.62,1.44.27.96-.75.62-.14.82,2.26,2.8.48,1.23-.55,1.71-.89.96-.27.27.14.75,1.03.89,1.71,1.57.96,2.33.68.62.82-.21.48.34h.68l.68.68.41.21.68.34.55.68.14,2.19,1.03,2.74v1.71l.62,1.09.21.89-.34,2.26.82.75.89-.21.55.07.89.75,1.09,1.71,1.09-.14.68.34,3.35,3.01.75.41h.07l.55.27.68.68,1.03-.68h.14l1.16-.07.48.34.96.62h1.23l2.74.82,1.16.27,2.39,1.5,1.03.62.62.48.82.68,1.57.68,1.37.34.75.21.55.21,3.01,1.16,1.64.34,1.5.55,1.09.41h.82l1.16-.96,1.09-.07.89.21.89-.14,1.44-.89.27-.41,1.03-.48,3.35-.41.96.34,2.53-1.09,1.71.48,1.5-.55,3.28.75.89.62.96,1.09h1.23l-.48.75,1.44,1.5,1.3,1.91.07.27.96,2.74.68.96.48,1.37v.89l-.75.55-.14.34-.07.14.14.34.27-.14.55-.27.68-.07,1.16.14.75.07,1.23-.62.82-.41,1.3.55h1.44l.62.27,1.71.75.89.07.34-.21.21-.48-.14-.55-.62-.75-1.44-1.64-.62-.82-.48-1.23-.14-1.57-.07-1.09.21-1.37.41-.48.27-1.09.07-.27.82-1.03,2.12-1.37,2.26-1.98,1.78-1.16,1.85-.82.07-.21.21.07,4.65-1.57h.07l2.05-.34,14.09.96.55-.14.48-1.3.27-.27.14-.14,1.57-.68.75-.14,1.98.48.82.21,1.3-.75h.96l1.91-1.03h1.16l.48-.21,2.33-1.64,2.26-.62.55-.34.21-.14,2.33-1.23,1.44-1.09,1.23-.68,1.37-.34,3.62-.27.75-1.23,1.57-.21.96-1.03,1.09-.41.75-1.09.62-.89.89-.55,2.87-.21,3.42.41.48-.27.75-2.74.82-.55,2.19-3.15v-2.12l.34-1.37-.27-2.46.27-2.53,1.37-3.15,1.16-1.3,1.91-1.3.96-.41,1.37-.21.21-.07.34-.07,4.79-.07c.07-.07,1.71,0,1.71,0h1.57l4.03.68.27.07,1.37.41,1.57,1.23,1.64,1.64.34.27,1.09.48.34.14.89-.14,1.23-.68.96-.82,1.3-.68v-.07l.75-1.09.27-.41,2.53-.96,2.94-.21.34-.21.21-.07.75-.89h.75l1.78.62,1.23-.27.96.41.75-.07,1.44-.21,1.57,1.09.89.14,3.21,1.85h.41l.41-.14.55-.14h.07l.07.07.34.48.48.07.62-.75-.21-.34-.07-.14-1.16-.21-1.03-1.78.96-1.03-1.5-1.85-.27-.34-.07-.14-.55-.82-2.67-4.1-3.49-2.8-1.23-.96-.41-.34-1.85-1.91-1.3-1.78-.21-.41-.27-.62-.82-1.71-1.37-1.09-1.16-1.23-.07-.07-2.33-3.15-.41-.55-.55-.34h-1.16l-.14-.14-.07-.07.07-.07.55-.55.62-.14.27-.62-1.16-3.42v-.14l-.07-1.09.96-4.99.14-.62,1.64-3.35,1.03-.82,1.09-2.19.96-1.37.89-.89.14-.07,1.64-1.03,1.37-.21,1.3-.21,2.33.68,2.19-.07.41-.07,1.03-.14,1.64-.55.75-.48.41-.62.82-2.8.27-.89.55-.96,3.01-3.42,2.26-2.12,5.06-3.69,2.46-1.5,1.3-.75,11.35-5.06,2.94-3.01,1.5-1.57,2.74-1.85,3.21-1.3,2.74-2.19.62-.75.75-2.39.62-.14.55-1.23.14-.34,2.26-1.57.27-.14,8.68-4.31,1.23.21.68-1.03,2.53-.41.48-.07.62-.34.55-.89v-.21l.07-2.39.55-.68.27-1.57.27-.34.27-.41.68-.48-.14-.27-1.23.82Z"/>
      </g>
    </g>
  </g>
</svg>