<?xml version="1.0" encoding="UTF-8"?>
<svg id="Layer_2" data-name="Layer 2" xmlns="http://www.w3.org/2000/svg" viewBox="0 0 520 320">
  <defs>
    <style>
      .cls-1 {
        fill: #a3ab78;
      }

      .cls-1, .cls-2, .cls-3, .cls-4, .cls-5 {
        stroke-width: 0px;
      }

      .cls-3 {
        fill: #fff;
      }

      .cls-4 {
        fill: #c09300;
      }

      .cls-5 {
        fill: #ce1126;
      }
    </style>
  </defs>
  <g id="_500x300_Background" data-name="500x300 Background">
    <rect class="cls-1" width="520" height="320" rx="10" ry="10"/>
  </g>
  <g id="Egypt">
    <g>
      <rect class="cls-2" x="10" y="209.98" width="500" height="100.02"/>
      <rect class="cls-3" x="10" y="110.02" width="500" height="100.02"/>
      <rect class="cls-5" x="10" y="10" width="500" height="100.02"/>
      <g>
        <path class="cls-4" d="m294.85,192.99l-2.42-57.75c-.13-2.87-1.05-4.77-2.68-5.75-3.33-1.83-8.75.85-10.98,2.09-3.01,1.89-6.34,2.87-10.06,2.81-1.44-2.42-2.61-7.32-2.42-11.37.2-5.62-.91-7.58-1.57-8.3-1.05-1.05-4.25-1.89-6.4-2.03-.46,0-.72.07-.91.33-.2.2-.2.46-.2.59-1.57-.39-4.18-.85-5.42-.07-.65.46-.98,1.96-.91,2.87,0,.33.13.52.26.59.07,0,.2.07.33-.07.52-.46,1.11-.59,1.63-.52.78.13,1.57.72,2.35,1.83.91,1.37.72,5.03-.46,9.02-.85,2.74-2.61,5.55-3.79,7.19-3.66,0-6.93-.91-9.93-2.81-2.16-1.24-7.58-3.92-10.98-2.09-1.7.91-2.61,2.87-2.68,5.75l-2.42,57.75h0v.13l.07-.07h.07l2.22-1.96,1.83-1.63h0l.98-.91v.07l.33-.33,11.17-10.13,2.03-1.63-3.92,13.85c-.91-.26-1.7-.52-2.29-.65-.52-.13-1.11.07-1.57.39-.85-.07-1.63.33-2.16,1.05-.65.91-.85,2.22-.39,3.07l.07.07h0c-.13.26-.2.59-.2.91-1.05-.13-1.63.65-2.16,1.37-.46.52-.78,1.05-1.37,1.05-.07,0-.2-.07-.33-.07-.07,0-.2.07-.2.13s.07.2.13.2c.13,0,.2.07.33.07.39.13.46.52.65,1.18.2.85.46,1.89,1.7,2.35,0,1.5.07,2.81,2.61,3.27,5.29,1.5,14.44,2.35,25.15,2.35s19.86-.85,25.22-2.35c2.42-.46,2.48-1.76,2.48-3.27,1.24-.46,1.5-1.5,1.7-2.35.13-.65.26-1.05.65-1.18.13,0,.2,0,.33-.07.07,0,.13-.13.13-.2s-.07-.13-.2-.13-.26,0-.33.07c-.52,0-.91-.52-1.37-1.05-.52-.72-1.18-1.5-2.16-1.37,0-.33-.07-.65-.2-.91h0q.07,0,.07-.07c.46-.91.26-2.22-.39-3.07-.52-.72-1.31-1.05-2.16-1.05-.46-.33-1.05-.52-1.57-.39-.59.2-1.37.39-2.29.65l-3.92-13.85,3.07,2.48v-.26l1.44,1.31h0l3.4,3.33v-.2l4.05,3.79,1.57,1.57v-.13l.98.91v.07h0l3.27,2.87.78.72h.07l.13.13.13-.2h0Zm-7.64-59.06l-.13.13c-.46.46-1.44,1.24-2.22,1.96-.65.52-1.18.98-1.37,1.18h0v.07l2.03,46.97h0l-1.44-1.31-2.03-44.43v-.2l-.13.13c-.46.46-1.18,1.05-1.76,1.5-.46.39-.85.65-1.05.85h0l1.57,38.94-1.44-1.31-1.57-36.85v-.13l-.13.07c-.13.07-.33.2-.59.26-.59.26-1.31.65-1.89.85v-.07h-.07c-.46.07-.85.13-1.24.13-3.33,0-11.56-1.89-13.46-4.44l-.07-.07-.07.07c-1.96,2.22-10.26,4.44-13.78,4.44-.46,0-.85-.07-1.24-.13h-.07v.07c-.59-.2-1.31-.52-1.89-.85-.2-.13-.39-.2-.59-.26l-.13-.07-1.57,37.3h0l-2.03,1.83.59-.59h0l1.57-39.2v-.07h0c-.2-.2-.59-.52-1.05-.85-.65-.52-1.31-1.05-1.76-1.5l-.13-.13-2.03,44.88-3.07,2.81,1.63-1.7,2.03-46.97v-.07h0c-.2-.2-.72-.65-1.37-1.18-.85-.72-1.83-1.5-2.22-1.96l-.13-.13-2.42,54.29-.98.91,2.35-55.79v-.07h-.07v-.07c-.78,0-2.74,1.18-3.85,1.89.13-2.68,1.05-4.51,2.61-5.42.78-.46,1.7-.59,2.68-.59,3.01,0,6.47,1.76,8.1,2.68,2.94,1.89,6.27,2.87,9.86,2.87-.59.85-1.05,1.37-1.05,1.44l-.13.13h.2c1.7,0,3.99-1.24,4.64-1.63l-.65,2.74.2-.07c1.83-.91,3.4-2.22,3.72-2.48l2.03,2.09.07-.07c.59-.78,1.63-1.76,1.96-2.03.33.33,1.89,1.7,4.18,1.96h.07c.07,0,.13,0,.13-.07.13-.2-.13-.98-.39-1.5,1.18.72,3.85.91,3.99.91l.07-.2c-.39-.2-.78-.59-1.18-1.18,3.66,0,7.06-.98,10-2.87,2.16-1.24,7.51-3.85,10.78-2.09,1.57.85,2.48,2.68,2.61,5.42-1.11-.78-3.07-1.89-3.85-1.89v.07h-.07v.07h0l2.35,55.73-.98-.91-2.68-54.29Zm-7.32,56.45c-.72.2-1.44.39-2.29.59h.07l-2.68-3.72h0l1.96-7.25,2.94,10.39Zm3.79-.26h-.13s-.07,0-.07.07v.07c.39.59.39.85.33,1.18-.07.26-.07.59.07,1.05h0c-.07.07-.13.13-.2.13-.07.07-.2.13-.33.2-.07,0-.13.07-.2.07-2.29.65-5.68,1.31-7.84,1.7v-.59c-.07-.52-.33-.98-.78-1.24-.07,0-.07-.07-.13-.07s-.07-.07-.13-.07c-.2-.07-.39-.13-.65-.13-.07,0-.13,0-.2.07-.07,0-.13.07-.2.07s-.07.07-.13.07c-.07.07-.13.07-.13.13l-.07.07c0,.07-.07.07-.07.13,0,0-.07.07-.07.13-.26.39-.39.85-.46,1.31v.39c0,.13,0,.26.07.39-2.35.26-5.62.46-7.97.2-.26-.07-.52-.13-.78-.2h0c0-.07,0-.13-.07-.2,0-.07-.07-.13-.07-.2-.13-.2-.33-.39-.52-.59s-.39-.33-.46-.46c.07-.72.78-1.37,1.5-1.37.85.13,1.83.13,2.81.13h.13c.85,0,1.7-.07,2.61-.13h.2c.91-.07,1.83-.2,2.68-.26h.2c.26,0,.46-.07.72-.07h.2c2.42-.33,4.64-.85,6.34-1.31h.13c.91-.26,1.7-.52,2.29-.65.52-.33.98-.26,1.37,0Zm2.22,1.11c.59.78.78,1.89.46,2.74l-.26-.26c-.13-.07-.26-.13-.39-.2-.13-.07-.33-.13-.46-.2-.07,0-.13-.07-.2-.07-.07-.07-.2-.07-.26-.13-.2-.07-.39-.2-.52-.33-.07-.07-.07-.13-.13-.13h0v-.2c-.13-.39-.07-.65-.07-.91.07-.33.13-.59-.26-1.18h.46c.59-.07,1.24.26,1.63.85Zm2.55,5.49c.33.46.72.91,1.18,1.11-.26.26-.39.72-.46,1.18-.2.78-.39,1.76-1.57,2.16-.07,0-.13.07-.13.2,0,1.57,0,2.68-2.22,3.07h0c-5.36,1.5-14.5,2.35-25.15,2.35h0c-10.65,0-19.8-.85-25.09-2.35h0c-2.29-.39-2.29-1.44-2.29-3.07,0-.07-.07-.13-.13-.2-1.18-.39-1.37-1.31-1.57-2.16-.13-.46-.2-.91-.46-1.18.46-.2.85-.65,1.18-1.11.59-.72,1.11-1.44,2.03-1.18.07,0,.13,0,.13-.07q.07-.07.07-.13c0-.72.2-1.31.59-1.76.13-.07.26-.13.46-.2.39-.13.78-.33,1.05-.59.13,0,.26-.07.39-.07.13.07.33.2.46.26,2.29.65,5.75,1.31,7.91,1.7.07.52.33.85.59,1.18.33.39.65.85.65,1.57,0,.07.07.07.07.07l.07-.07c0-.72.39-1.05.78-1.44.26-.26.52-.46.72-.85,1.57.2,3.46.33,5.29.33.98,0,1.89-.07,2.74-.13.26-.07.46-.07.72-.13v.07c0,.39.46.72.91,1.05.52.39,1.11.78,1.11,1.31q0,.07.07.07h0s.07,0,.07-.07c.52-.72.85-1.76.85-2.68h1.31c0,.98.33,2.03.85,2.68l.07.07h0c.07,0,.07-.07.07-.07,0-.59.59-.98,1.11-1.31.46-.33.91-.65.91-1.05v-.07c.2.07.46.13.72.13.85.13,1.76.13,2.74.13,1.83,0,3.72-.13,5.29-.33.13.39.46.65.72.85.39.33.78.65.78,1.44,0,.07.07.07.07.07l.07-.07c0-.72.33-1.11.65-1.57.26-.33.52-.72.59-1.18,2.16-.39,5.55-1.05,7.91-1.7.2-.07.33-.13.46-.26.13,0,.26,0,.39.07.26.26.65.39,1.05.59.13.07.33.13.46.2.39.46.59.98.59,1.76,0,.07,0,.13.07.13q.07.07.13.07c.91-.2,1.44.46,2.03,1.18Zm-54.29-5.49c.46-.59,1.05-.91,1.76-.91h.46c-.39.59-.33.85-.26,1.18.07.26.07.46-.07.91v.2h0c0,.07-.07.13-.13.13-.13.13-.33.26-.52.33-.07.07-.2.07-.26.13-.07,0-.13.07-.2.07-.13.07-.33.13-.46.2-.13.07-.26.13-.39.2-.13.07-.2.13-.26.26-.46-.78-.26-1.89.33-2.68Zm3.46-1.37c.59.2,1.37.39,2.29.65h.13c1.7.46,3.92.98,6.34,1.31h.2c.26,0,.46.07.72.07h.2c.85.13,1.76.2,2.68.26h.2c.85.07,1.76.13,2.61.13h.13c.98,0,1.96,0,2.87-.13.72,0,1.37.65,1.44,1.37-.07.2-.26.33-.46.52-.2.13-.33.26-.46.46-.07.07-.07.13-.13.2-.07.07-.07.13-.07.2v.13c-.2.07-.46.13-.78.2-2.29.33-5.62.13-7.97-.2.07-.13.07-.33.07-.52h0v-.39c-.07-.39-.2-.85-.39-1.18,0-.07-.07-.07-.07-.13s-.07-.07-.07-.13l-.07-.07-.13-.13c-.07,0-.07-.07-.13-.07-.07-.07-.13-.07-.2-.07s-.13-.07-.2-.07c-.2,0-.46.07-.65.13-.07,0-.07.07-.13.07s-.07.07-.13.07c-.39.26-.72.72-.78,1.18v.2h0v.46c-2.16-.39-5.55-1.05-7.77-1.7-.07,0-.13-.07-.2-.07-.13-.07-.2-.13-.33-.2-.07-.07-.13-.13-.2-.13h0c.13-.52.13-.78.07-1.05-.07-.33-.07-.59.33-1.18v-.07l-.07-.07h-.13c.26-.2.59-.26.91-.26.13.13.26.2.33.2Zm5.49-9.86l1.96,7.25h0l-2.68,3.72h0c-.85-.2-1.57-.39-2.29-.59l3.01-10.39Zm28.16-9.34l-.07-.07-.07-.07-1.96-1.89.59-5.75c.33-.59.65-1.18.98-1.76,0-.07.07-.07.07-.13s.07-.07.07-.13c.13-.33.33-.59.46-.91l2.68,9.54-.07-.07-1.11,2.68-1.57-1.44Zm-2.35-1.76v.26l-.59,5.23-3.66-4.77c.78-.78,1.44-1.63,2.09-2.42l.07-.07.07-.07c.07-.07.07-.13.13-.2l1.89,1.83v.2Zm3.59,25.81v-.39c.07-.46.2-.98.52-1.31l.07-.07.07-.07c.07-.07.13-.07.13-.13.07,0,.07-.07.13-.07s.13-.07.26-.07h.2c.07,0,.13.07.2.07s.13.07.13.07c.46.26.85.72.91,1.24v.07h0v.65c-.07.39-.33.72-.59,1.05s-.46.59-.59,1.05c-.13-.39-.46-.65-.72-.91-.26-.2-.46-.46-.65-.72,0,0,0-.07-.07-.07,0,0,0-.07-.07-.07.07-.07.07-.2.07-.33Zm-25.02.46s0,.07-.07.07c-.13.33-.39.52-.65.72-.26.26-.59.52-.72.91-.13-.39-.39-.72-.59-1.05-.26-.33-.52-.65-.59-1.05v-.65h0v-.2c.07-.46.46-.91.91-1.18.07,0,.13-.07.13-.07.07,0,.13-.07.2-.07h.2c.07,0,.2,0,.26.07.07,0,.07.07.13.07.07.07.13.07.13.13l.07.07.07.07c.26.33.39.78.46,1.18v.39h0c0,.2,0,.33-.07.46q.13.07.13.13Zm3.72-25.61v-.13l-.07-.72,1.89-1.83c.13.2.26.33.39.52l.07.07.07.07c.59.72,1.18,1.37,1.83,2.09l-3.66,4.77-.52-4.77v-.07Zm-2.35,1.05l-.07.07-1.57,1.5-1.11-2.68-.07.07,2.68-9.54c.13.33.26.59.46.91,0,.07.07.07.07.13s.07.07.07.13c.33.59.65,1.18.98,1.76l.59,5.75-1.96,1.89h-.07Zm-3.72-27.83h0c.2,0,.39.07.59.07h.65c3.46,0,11.69-2.22,13.85-4.38,2.09,2.48,10.19,4.38,13.52,4.38h.65c.2,0,.39-.07.59-.07h0v.07c0,.52.07,2.16-.2,4.57,0,.13-.07.33-.07.46s-.07.26-.07.39c-.2,1.37-.46,3.01-.91,4.7,0,.07-.07.2-.07.26s0,.13-.07.13v.07c-.52,1.76-1.18,3.79-2.16,5.95,0,.07-.07.07-.07.13s-.07.07-.07.13c-.13.26-.26.52-.39.78,0,.07-.07.07-.07.13s-.07.07-.07.13c-.26.59-.59,1.11-.91,1.7-.07.13-.13.26-.2.33-.72,1.24-1.57,2.48-2.55,3.72-.07.07-.07.13-.13.13-.07.07-.07.13-.13.2l-.07.07-.07.07c-.65.78-1.37,1.63-2.09,2.42l-.13.13c-.59.59-1.18,1.18-1.83,1.76l-.07.07-.07.07h0l-.07.07-.07.07c-.46.39-.91.78-1.37,1.18l-.07.07-.07.07s-.07,0-.07.07l-.07.07-.07.07c-.2.13-.33.26-.52.46-.2-.13-.33-.26-.52-.39l-.07-.07-.07-.07s-.07,0-.07-.07l-.07-.07-.07-.07c-.46-.39-.91-.78-1.37-1.18l-.07-.07-.07-.07h0l-.07-.07-.07-.07c-.65-.59-1.24-1.18-1.83-1.76l-.13-.13c-.65-.65-1.24-1.37-1.83-2.03l-.07-.07-.07-.07c-.13-.2-.26-.33-.39-.52-.07-.07-.07-.13-.13-.13-.98-1.24-1.83-2.48-2.55-3.72-.07-.13-.13-.26-.2-.39-.33-.59-.65-1.11-.91-1.7,0-.07-.07-.07-.07-.13s-.07-.07-.07-.13c-.13-.26-.26-.52-.39-.78,0-.07-.07-.07-.07-.13s-.07-.07-.07-.13c-.98-2.16-1.7-4.12-2.16-5.88q0-.07-.07-.13v-.13c0-.07-.07-.2-.07-.26-.46-1.7-.72-3.33-.91-4.7,0-.13-.07-.26-.07-.39s-.07-.33-.07-.46c-.26-2.42-.2-4.05-.2-4.57q-.33-.07-.33-.13Zm18.55,34.69l.13.2.13.2.07.07v.07l-.07.13-.07.13h0l-.2-.78h0Zm-1.05,15.48s-.07-.07,0,0c-.78,0-1.37.33-1.7.91-.13.26-.2.59-.26.91h-1.31c-.07-.33-.13-.59-.26-.85-.33-.59-.91-.91-1.63-.91h0c-.33-.46-.85-.78-1.37-.78h0c-.85.13-1.83.13-2.81.13l.59-2.55,1.37,1.37,1.76-1.31,2.35-16.66.07.07-.98,16.59h0l1.63,2.09,1.7-2.09-.98-16.59.07-.07,2.35,16.72,1.76,1.31,1.37-1.37.59,2.55c-.98,0-1.89,0-2.74-.13-.72-.2-1.24.13-1.57.65Zm.78,1.96l.07.07v.39c0,.33-.39.59-.85.85-.46.33-1.05.72-1.18,1.24-.39-.65-.65-1.57-.65-2.35v-.39c0-.33.13-.59.26-.85.26-.52.72-.78,1.31-.85-.13.26-.13.46-.07.59,0,.07.07.13.07.2.07.07.07.13.13.13.07.13.2.2.33.26.13.13.33.26.46.39.07.2.07.26.13.33Zm-6.86.33v-.26h0c0-.07.07-.13.13-.2.07-.07.07-.13.13-.2l.33-.33c.13-.07.26-.2.33-.33l.13-.13c.07-.07.07-.13.07-.2.07-.13,0-.33-.13-.59.59.07,1.05.33,1.31.85.13.26.2.52.2.78v.39c0,.85-.26,1.7-.65,2.42-.13-.52-.65-.91-1.18-1.24-.39-.26-.85-.59-.85-.85.13-.07.2-.07.2-.13Zm-.46-17.05l-.07-.13v-.07l.07-.13.13-.2.13-.2-.2.85-.07-.13Zm-10.71-28.94c.2,1.31.52,2.68.91,4.25,0,.07.07.13.07.2l-.65,16.4-1.57,5.49,1.24-26.33Zm28.29,4.38q0-.07.07-.13c.39-1.5.72-2.94.91-4.25l1.24,26.13-.07-.07-1.5-5.29-.65-16.4Zm-23.13,9.67c.72,1.11,1.5,2.29,2.35,3.4l-1.83,1.7-.52-5.1Zm4.97,6.47c.59.65,1.24,1.24,1.89,1.83l.07.07.07.07-1.18,5.23-.13.2-.13.2-.26.39-1.76-6.14,1.44-1.83Zm.46,8.69l.07.13.07.13-2.16,9.67-.07-.2-.07-.2-1.11-5.16h0l3.14-4.7.13.33Zm-2.22,10l.07.2.07.2-.13.65v.07l-.59,2.68c-.91,0-1.83-.07-2.74-.13l-1.05-3.14c0-.07-.07-.07-.07-.07q-.07,0-.07.07l-1.7,2.87c-.33-.07-.59-.07-.91-.13l-1.31-4.31h0l2.74-4.51,1.5,4.64c0,.07.07.07.07.07q.07,0,.07-.07l2.87-4.44,1.18,5.36Zm-3.59,3.66c-.85-.07-1.7-.2-2.48-.26l1.57-2.61.91,2.87Zm2.35-9.34l-2.87,4.44-1.5-4.64c0-.07-.07-.07-.07-.07h0q-.07,0-.07.07l-2.74,4.51-2.03-7.38,3.92-4.05,1.24,4.38c0,.07.07.07.07.07q.07,0,.07-.07l2.81-3.79,1.18,6.53h0Zm-6.14,8.95c-1.31-.2-2.61-.39-3.79-.65l2.48-3.53,1.31,4.18Zm23.52.39l.98-2.87,1.57,2.61c-.85.13-1.7.2-2.55.26Zm3.79-.39l1.24-4.18,2.48,3.53c-1.11.2-2.35.46-3.72.65Zm1.11-4.64l-2.74-4.51-.07-.07q-.07,0-.07.07l-1.5,4.64-2.87-4.44h0l1.18-6.47,2.81,3.79.07.07c.07,0,.07-.07.07-.07l1.24-4.38,3.92,4.05-2.03,7.32Zm-4.51.39l.07.07q.07,0,.07-.07l1.5-4.64,2.74,4.51h0l-1.31,4.31c-.26.07-.59.07-.91.13l-1.7-2.87-.07-.07q-.07,0-.07.07l-1.05,3.14c-.91.07-1.83.13-2.74.13l-.59-2.68v-.13l-.13-.59h0l.07-.2.07-.2,1.18-5.42,2.87,4.51Zm-4.05.52l-.07.2-.07.2h0l-2.16-9.67h0l.07-.13.07-.13.07-.26,3.14,4.7h0l-1.05,5.1Zm-2.35-10.65l-.13-.2-.13-.2h0l-1.18-5.23h0l.07-.07.07-.07c.65-.59,1.31-1.24,1.89-1.83l1.37,1.83-1.76,6.14-.2-.39Zm3.2-10.65c.91-1.18,1.7-2.29,2.35-3.46l-.52,5.16-1.83-1.7Zm-22.87,9.34l.07-.2.07-.2,1.37-4.83.07-.33.07-.33.2-.59,1.11,2.68h0l.07.07h.07l.26-.26,3.4-3.27.07.72v.26l.52,4.83q0,.07.07.07h0s.07,0,.07-.07l2.29-2.94,1.76,6.14-3.14,4.7-1.18-6.53c0-.07-.07-.07-.07-.07q-.07,0-.13.07l-2.81,3.79-1.24-4.38c0-.07-.07-.07-.07-.07h-.07l-3.92,3.99,1.11-3.27Zm28.68-.59s-.07-.07-.07,0c-.07,0-.07.07-.07.07l-1.24,4.38-2.81-3.79s-.07-.07-.13-.07-.07.07-.07.07l-1.18,6.53-3.14-4.7,1.76-6.14,2.29,2.94.07.07h0c.07,0,.07-.07.07-.07l.59-5.36v-.46l3.4,3.27.26.26h.07s.07,0,.07-.07h0l1.11-2.68.2.59.07.33.07.33,1.18,4.25.07.2.07.2,1.11,3.99-3.72-4.12Zm-21.43-41.03c1.18-1.7,2.87-4.44,3.72-7.19.91-3.14,1.24-6.08.91-7.91.07-.13.13-.26.39-.46.33-.26,1.7,0,1.7,0h.07v-.07c-1.89-3.2-4.05-3.99-5.03-3.92-1.05.07-1.63,1.31-1.76,1.7,0,0-.07,0-.07.07,0,0-.07.07-.13.07s-.13-.13-.13-.46c-.07-.46.07-1.18.26-1.76.2-.26.72-.65,1.76-.72,1.44-.07,1.89.13,3.01.98,1.11.91,2.03,1.31,2.55,1.24.13,0,.2.13.26.26.07.07.07.13.13.26l.07.07c.07.13.13.2.59.2.2,0,.39-.26.52-.52.07-.13.13-.26.2-.33.26-.2.65-.26.98-.39h.13c.52-.13.85-.13,1.18-.2.13,0,.26,0,.39-.07.39-.07,1.63-.07,2.16.52.52,1.18.98,3.27.85,7.06-.2,3.99.91,8.89,2.42,11.43,0,.07.07.07.07.13l.07.07c.33.52.65.91.98,1.11-.91-.07-3.07-.39-3.79-1.05-.07-.13-.13-.2-.2-.33,0,0-.07-.07-.07-.13s-.07-.07-.07-.13c-1.57-3.07-2.03-9.73-2.03-9.8h-.2c0,.26.39,6.66,1.96,9.8,0,.07.07.07.07.13s.07.07.07.13c.07.2.2.33.26.46h0c.33.65.59,1.5.52,1.63-2.35-.2-3.99-1.76-4.12-1.96-.07-.2-.13-.52-.2-.91v-.26c-.33-2.87-.33-9.41-.33-9.47h-.26c0,.33,0,6.47.33,9.41v.26c.07.46.13.78.2.98-.2.2-1.31,1.18-1.89,1.96l-1.89-1.96c.13-.33.33-.65.46-1.05q0-.07.07-.13v-.13c1.05-3.33,1.37-9.41,1.37-9.67h-.2c0,.07-.33,6.4-1.37,9.73q0,.07-.07.13t-.07.13c-.13.39-.26.65-.39.98-.07.07-1.63,1.5-3.59,2.42l.59-2.55s.07-.07.07-.13.07-.07.07-.13.07-.07.07-.13c1.89-2.68,2.94-9.93,3.01-10.26h-.2c0,.07-1.11,7.84-3.07,10.32,0,.07-.07.07-.07.13h0s-.07.07-.13.07c-.59.33-2.74,1.57-4.38,1.63.2-.26.59-.72,1.05-1.37l.07-.07c.07.26.07.2.13.13Zm8.49-19.08c0,.26-.2.52-.52.52s-.52-.2-.52-.52c0-.26.2-.52.52-.52s.52.26.52.52Z"/>
        <path class="cls-4" d="m237.23,191.03q.07,0,0,0l2.35.78h.13v-.07h-.07l-.07-.07c-.46-.39-1.57-.72-2.29-.72,0,0-.07,0-.07.07,0-.07,0,0,0,0h0Zm2.09.59l-1.5-.46c.59,0,1.18.2,1.5.46Z"/>
        <path class="cls-4" d="m241.22,192.27h0l2.81.78h0s.07,0,.07-.07v-.07c-.78-.39-2.35-.78-2.81-.78h-.07q-.07.07,0,.13h0Z"/>
        <path class="cls-4" d="m252.85,194.23l2.81-.33s.07,0,.07-.07v-.07l-.07-.07h0c-.85,0-2.35,0-2.81.39v.07c-.07,0-.07.07,0,.07h0Zm1.5-.39l-1.05.13c.26-.07.65-.07,1.05-.13Z"/>
        <path class="cls-4" d="m251.28,193.84h0q.07-.07.07-.13c-.07-.07-.13-.07-.2-.13-.07-.07-.2-.07-.33-.13-.07,0-.13-.07-.2-.07-.26-.07-.52-.07-.85-.07-.46,0-.98.13-1.31.33l-.07.07.07.07h2.81v.07Zm-.65-.26c.07,0,.13.07.2.07s.13.07.2.07h-2.22c.52-.2,1.31-.26,1.83-.13Z"/>
        <path class="cls-4" d="m280.42,191.82h0l2.35-.78.07-.07-.07-.07c-.72,0-1.83.33-2.35.72l-.07.07h0v.07h0q0,.07.07.07h0Zm.39-.26c.39-.2.91-.39,1.44-.46l-1.44.46Z"/>
        <path class="cls-4" d="m275.97,192.93s-.07.07,0,.07l.07.07h0l2.81-.78h.07v-.07s-.07-.07-.07,0c-.52-.07-2.09.33-2.87.72Z"/>
        <path class="cls-4" d="m264.48,193.71h0q-.07,0-.07.07v.07h.07l2.81.33h0s.07,0,.07-.07v-.07c-.52-.33-2.09-.33-2.87-.33Zm1.24.13c.39,0,.78.07,1.05.13l-1.05-.13Z"/>
        <path class="cls-4" d="m270.29,193.38c-.33,0-.59,0-.85.07-.07,0-.13,0-.2.07-.13,0-.2.07-.26.13s-.13.07-.2.13v.07q0,.07.07.07h2.81s.07,0,.07-.07c0,0,0-.07-.07-.07-.39-.26-.85-.33-1.37-.39Zm-.91.33h-.33c.07,0,.13-.07.2-.07s.13-.07.2-.07c.52-.13,1.31-.07,1.89.13h-1.96Z"/>
        <path class="cls-4" d="m236.64,197.37h.13c.13,0,.26,0,.33-.13h0q.07,0,.13-.07c.07-.07.2-.33.2-.39,0-.13-.33-.46-.46-.52-.13-.07-.26,0-.39,0-.13.07-.26.26-.33.46-.07.13,0,.26.07.39,0,.13.13.26.33.26Z"/>
        <path class="cls-4" d="m264.15,199.33c.07,0,.13.07.26.07s.33,0,.39-.13c.13-.07.2-.26.2-.39s-.07-.26-.13-.33c-.13-.13-.39-.26-.46-.26h0c-.26,0-.59.33-.59.59,0,.13.2.39.33.46Z"/>
        <path class="cls-4" d="m264.74,200.57c.26-.13.39-.33.39-.52,0-.26-.2-.39-.39-.46l-.2-.07h-.07l-.2.13c-.26.13-.33.26-.33.52s.13.39.39.52c.07,0,.13.07.2.07.07-.13.13-.2.2-.2Z"/>
        <path class="cls-4" d="m242,201.22c.2-.13.26-.39.26-.59.07-.26.13-.59.26-.85.07-.26.13-.59.2-.85,0-.07.2-.46.07-.72-.07-.07-.13-.13-.39-.07h0c-.07.07-.13.07-.2.13-.2.13-.33.26-.52.26s-.26.13-.33.2c-.07.2.07.46.2.59,0,.26-.07.59-.2.78-.13.07-.33,0-.59-.07-.07,0-.13-.07-.2-.07h0c-.2,0-.52-.07-.52-.2,0,0-.07-.07.07-.2h0c.07-.13.07-.26.07-.39,0-.2.07-.33.13-.46.13-.26.13-.52.2-.72,0-.07,0-.2.07-.26v-.07c-.07-.13-.13-.2-.2-.2-.13-.07-.26.07-.39.2-.07.07-.2.13-.2.13h-.07c-.07,0-.13.07-.2.07-.2.07-.39.13-.39.26s.07.26.13.26c.13.13.13.33.07.59,0,.07-.07.13-.07.2,0,.13-.07.2-.13.26-.13.07-.33.13-.52.07h0c-.2,0-.39-.07-.46-.2,0,0-.07-.07.07-.2v-.07c0-.13.07-.26.13-.39s.07-.33.13-.46.07-.26.13-.39c.07-.2.13-.39.2-.59h0c.07-.26.13-.59.33-.85v-.07c0-.13.07-.33.13-.46.07-.2.13-.33.13-.52-.07-.26-.2-.33-.33-.33-.2,0-.39.13-.52.2h-.07c-.07,0-.13.07-.2.07-.26.07-.52.13-.72,0h0c-.26-.07-.52-.07-.65.07-.13.07-.2.2-.26.39v.07c.07.2.2.33.39.46.2.07.39.07.59-.07h0c.13-.13.33-.26.52-.2.07,0,.13.07.13.2-.13.2-.2.39-.2.65-.07.2-.07.39-.13.52h0c0,.2-.07.39-.2.59h-.13c-.2,0-.39,0-.52.13-.33,0-.65.2-.85.46-.2.33-.39.59-.46.98h0c.07.33.39.52.85.59.2.07.39.13.59.2.13.07.26.07.39.13.26.07.52.13.78.2.26.07.52.13.78.2.46.13.91.2,1.37.33.33.07.72.13,1.05.26.07,0,.2.07.26.07h.13c-.2-.2-.13-.2,0-.26Zm-4.83-2.42s0,.07-.07.07l-.07.07c-.2,0-.2-.07-.2-.07h0s.07-.07.13-.07.13-.07.13-.07t.07.07h0Z"/>
        <path class="cls-4" d="m236.64,200.44c-.26.2-.33.33-.33.46s.13.26.2.39c.13.13.2.2.39.2h0c.2,0,.26,0,.39-.13.07-.07.2-.2.2-.33s-.07-.26-.26-.39c-.26-.33-.39-.39-.59-.2Z"/>
        <path class="cls-4" d="m238.15,200.77c-.33,0-.46.07-.52.33-.07.13,0,.26.07.39s.2.2.33.26h.13c.13,0,.33-.07.39-.13.13-.13.13-.2.13-.39,0-.39-.13-.46-.52-.46Z"/>
        <path class="cls-4" d="m282.96,200.83c-.26.13-.46.33-.46.59,0,.13.07.2.2.33h0c.13.13.2.13.46.13h.07c.26,0,.33,0,.46-.13.26-.26.26-.39.07-.72-.26-.33-.46-.33-.78-.2Z"/>
        <path class="cls-4" d="m240.56,201.42c-.13-.07-.2-.13-.33-.07-.13,0-.26.07-.33.13-.13.13-.2.2-.2.39,0,.26.13.46.33.52h0c.07,0,.2.07.26.07.2,0,.33-.07.46-.26.07-.13.13-.2.13-.33-.07-.2-.13-.33-.33-.46Z"/>
        <path class="cls-4" d="m251.67,202.92h0c.2-.13.2-.39.26-.59v-.07h0c0-.07,0-.2.07-.26,0-.07.07-.2.07-.26v-.33c0-.2,0-.39.07-.59h0c0-.13,0-.33.07-.46,0-.13,0-.33.07-.46,0-.13,0-.2.07-.33,0-.07.07-.2.07-.26h0c0-.13,0-.33.2-.39.13-.07.26-.2.26-.33,0-.07,0-.13-.13-.2h0c-.26-.2-.46-.46-.65-.72-.07-.13-.2-.13-.2-.13-.13.07-.26.26-.26.39-.07.2-.07.39-.07.59s0,.33-.07.46c-.07.2-.07.46-.13.72s-.07.52-.13.78c0,.2-.07.46-.07.65-.07.2-.07.33-.07.52v.26c-.07.26-.13.52-.13.85h0c0,.07.07.13.13.13,0,0,.07,0,.07.07h0c.13.13.26.13.39.13-.07-.13.07-.2.13-.2Z"/>
        <path class="cls-4" d="m269.05,202.47h0c-.07-.2-.07-.39-.07-.52,0-.2,0-.33-.07-.52s-.07-.39-.07-.65v-.39c0-.13-.13-.33-.26-.33-.13-.07-.33,0-.46.13-.07.07-.13.13-.26.13-.13.07-.26.13-.39.26-.13.26.07.39.2.46.07.07.13.07.2.13.07.13.07.33.07.46v.39c-.07.07-.2.07-.33.13h-.07c-.33.13-.59.07-.65-.13-.07-.13-.07-.33-.07-.52v-.2c0-.26-.07-.52-.07-.72s-.07-.39-.07-.59c0-.33-.07-.59-.07-.91,0-.26-.07-.52-.07-.72s0-.46-.2-.59c-.07-.07-.2-.07-.33-.07h-.07c-.26.2-.46.39-.65.59h0c-.07.07-.13.13-.13.2,0,.13.13.2.26.33l.13.13c.07.2.07.46.07.65v.2h0c.07.26.13.52.13.85,0,.13-.07.13-.26.2-.13.07-.2.07-.33.13-.2.07-.26.2-.39.33l-.2.2h0c-.13.26-.2.59-.2.85v.2c-.07.13-.07.33.07.52v.07s0,.07.07.07c.07.07.13.07.2.07h.33c.2,0,.39,0,.59-.07.52-.07.98-.13,1.5-.13h.33c.2,0,.39,0,.59-.07.2,0,.33-.07.52-.07.13,0,.26,0,.33-.07.07,0,.13-.2.13-.39Zm-3.46-.39s.07,0,0,0h.13v.2l-.13.07c-.07,0-.13,0-.13.07,0,0-.07,0-.07-.07v-.07s0-.07.13-.2h.07Z"/>
        <path class="cls-4" d="m250.95,197.5c0-.13-.07-.2-.13-.26s-.13-.07-.2,0h0c-.07,0-.2.13-.26.2-.13.07-.26.2-.33.2h0c-.2,0-.39.13-.39.26-.07.2.07.39.26.46v.39c0,.2,0,.33-.07.52s-.13.39-.07.59c0,.2-.07.39-.07.59-.07.2-.07.46-.07.65-.07.26-.13.59-.13.85,0,.2-.07.33-.07.52,0,.07,0,.13-.07.2-.07.07-.2,0-.33-.07v-.46c.07-.13,0-.26-.07-.39-.13-.2-.39-.26-.59-.26h0c-.13,0-.2,0-.26-.07s-.07-.2-.07-.33c.07-.07.26-.07.46-.07h.2c.2.07.39-.07.46-.2.13-.2.07-.59-.13-.72-.07-.13-.26-.26-.39-.39s-.26-.2-.33-.33c.07-.52-.33-.91-.65-1.18h-.07c-.59-.07-1.05.46-1.24.91-.2.07-.39.13-.65.2-.26.07-.59.39-.65.72,0,.2.07.33.26.39h.07c.2.07.65.2.72.33q0,.07-.07.13h0c-.13.26-.46.33-.85.2h0c-.2,0-.46-.07-.52-.2-.07-.07-.13-.2-.13-.33h0c0-.13-.07-.26-.07-.33,0-.26-.07-.52-.2-.78-.07-.26-.26-.33-.39-.33-.2,0-.33.13-.39.39-.13.13-.26.26-.26.46s.07.46.2.65c.13.33,0,.72-.13,1.05h0c-.07.26-.33.33-.59.46-.07,0-.2.07-.26.07h-.2c-.2,0-.39,0-.46.2-.07.07,0,.2.07.26l.07.07c.39.13.85.26,1.24.13.39-.07.78-.33,1.05-.72.2-.2.46-.13.72-.13h.33c.13,0,.26.07.39.07.26.07.52.13.78,0,0,0,.07,0,.07-.07.07-.2.33-.39.46-.39,0,0,.07,0,.13.13,0,.2.07.39.2.52s.39.2.65.2c.07,0,.13,0,.2.07.07.07,0,.13,0,.26v.2c.07.52.39.78.78.98h.46c.39-.13.85-.33.98-.78.07-.2.13-.46.2-.65,0-.13.07-.33.13-.46,0-.13.07-.26.07-.33.07-.46.13-.91.2-1.37.07-.26.13-.59.13-.91,0-.26.07-.46.07-.72-.26-.39-.2-.78-.2-1.24h0Zm-3.72,2.03s.07.07.07.2c0,.2.13.39.26.46h0s-.13.07-.26.07c-.26,0-.39-.07-.59-.2h.07l.26-.26c.13-.26.2-.26.2-.26Z"/>
        <path class="cls-4" d="m284.73,199.33c-.07-.07-.2-.13-.2-.2h-.07c-.26-.13-.59.07-.78.2-.33.2-.52.33-.78.07-.33-.26-.39-.59-.46-.98-.07-.2-.07-.33-.13-.52,0-.13-.07-.33-.07-.46-.07-.59-.13-1.11-.52-1.57-.33-.33-.78-.46-1.37-.46-.26,0-.59.07-.85.13-.33,0-.52.13-.65.39-.07.2,0,.39.26.59.07.2.2.26.26.33.2.07.39-.07.52-.2s.33-.2.46-.2c.59.13.72.72.78,1.24v.2c.07.59.2,1.11.39,1.7v.07c.07.07.13.2.13.33,0,.07-.13.13-.26.2-.13,0-.33,0-.46-.13-.26-.26-.65-.52-.98-.52-.2,0-.33.07-.46.2-.26.13-.39.33-.52.59-.07.2-.2.33-.33.39-.33.07-.46-.13-.65-.46-.07-.13-.13-.26-.26-.39-.26-.33-.65-.46-1.05-.52-.13,0-.2-.07-.26-.07-.07-.13-.07-.33-.13-.52-.07-.39-.13-.72-.46-.98h-.07c-.33.13-.72.52-.78.91,0,.13,0,.33.26.46.13.07.13.2.13.26,0,.13-.2.26-.33.39-.13.07-.26.2-.33.26-.39.39-.46.98-.52,1.5-.13.07-.26.07-.33,0-.2-.13-.26-.52-.33-.85,0-.2-.07-.33-.26-.46s-.52,0-.78.13c-.39.13-.59.46-.78.72-.07.13-.2.2-.26.33v1.11h0c.13.39.52.33.85.26h.2c.13-.07.26-.07.33.07s0,.26-.13.39h0c-.07.13-.26.13-.46.2-.26.07-.65.2-.59.59,0,.07.07.07.07.07h.85c.59-.13,1.18-.59,1.24-1.24.07-.33.33-.33.78-.39.13,0,.26,0,.39-.07.39-.13.72-.13.91,0,.13.07.2.2.26.39v.07c.26.26.72.59,1.18.52.2,0,.39-.13.52-.26.39-.26.65-.72.59-1.24,0-.07,0-.13.07-.2.2-.07.46-.07.52.07.33.52,1.24.33,1.63.07l.39-.39c.2-.26.33-.46.65-.46h0c.33-.13.72-.2,1.05-.26.52-.13,1.11-.26,1.63-.46.2-.07.33-.13.33-.26.39-.26.2-.46,0-.65Zm-4.57,1.57s-.07-.07-.13-.07q-.13-.07-.13-.13c0-.13.13-.2.33-.2s.26.07.26.13c.07.07,0,.13,0,.13,0,.07-.07.07-.2.13,0,0-.07,0-.13,0Zm-2.87,1.11h0q0-.07.07-.13c.07-.07.2-.07.26-.07h0c.07,0,.13,0,.13.07l.07.07s0,.07-.07.07-.33.07-.46,0h0Zm-.39-1.18c0-.07-.07-.2-.07-.26,0,0-.07-.07,0-.13l.07-.07h0l.07-.07c.07,0,.13,0,.2.07.2.13.33.26.33.39v.07h0s-.07.07-.13.07h0c-.13.07-.2.07-.2.07-.07,0-.2-.13-.26-.13Zm-1.05-.26q.07.07.13.26v.26h-.33v-.2q0-.2.07-.26c.07-.07.13-.07.13-.07q-.07-.07,0,0Zm-2.81.98c-.07.07-.33.07-.33.07l-.07-.07h0q.07-.07.07-.13s0-.07.07-.07c.07-.07.13-.07.2-.07s.13.07.13.13,0,.13-.07.13Z"/>
        <path class="cls-4" d="m271.2,202.07c0-.07-.07-.2-.07-.26,0-.13-.07-.33-.13-.39,0-.07-.07-.07-.07-.13-.07-.2-.2-.39-.33-.59-.07-.13-.13-.26-.2-.46-.07-.13-.2-.2-.33-.26-.07,0-.2,0-.26.07h0c-.07.13-.13.26-.2.39-.07.07-.07.2-.13.26,0,.07-.07.07-.07.13-.07.13-.13.2-.13.39.07.13.2.26.26.26s.07.07.13.07c.13.07.33.2.39.46.07.2.07.39.07.59v.13c0,.07,0,.13-.07.2-.07.07-.13.13-.13.2-.2.26-.39.39-.65.52h-.07c-.13.07-.33.13-.39.26q-.07.07-.07.13c0,.07.07.13.13.13h0s.07.07.13.07h.72c.13,0,.26-.07.33-.13.07,0,.07-.07.13-.07.26-.07.39-.26.59-.39h0l.13-.13c.07-.07.13-.13.2-.26.13-.26.13-.59.13-.85,0-.07,0-.2-.07-.33Z"/>
        <path class="cls-4" d="m267.55,203.58c-.13-.07-.2-.13-.33-.13-.2,0-.46.13-.52.33h0s-.13,0-.39-.13c-.39-.2-.52-.2-.85.07-.13.13-.2.2-.2.39,0,.13.07.26.2.39.13.13.2.2.39.2h0c.13,0,.26,0,.33-.07.13-.13.26-.2.33-.2s.07,0,.13-.07c.07.2.2.33.46.33.2,0,.26,0,.39-.13.2-.13.2-.2.2-.46.07-.33.07-.39-.13-.52Z"/>
        <path class="cls-4" d="m263.36,202.07q0-.07,0,0c-.07-.2-.07-.33-.07-.52,0-.26,0-.52-.2-.78h-.07c-.26-.07-.52.07-.72.13-.13.07-.33.13-.46.13h0c-.52.26-.91.72-.91,1.24-.07.13-.13.13-.2.07-.13-.07-.26-.33-.13-.46v-.59h0c-.2-.26-.52-.26-.85-.26h-.26c-.26,0-.52,0-.78-.07-.26,0-.52-.07-.72-.07h-.52c-.26,0-.59,0-.85-.07h0c-.33,0-.33-.2-.39-.52,0-.07,0-.2-.07-.26,0,0,0-.07-.07-.07-.13-.07-.2-.13-.39-.13h0c-.39,0-.78.33-.85.72h0c0,.13.07.26.13.39.13.26.2.46.07.72v.07c.07.2,0,.33-.13.39s-.33.07-.46-.07c-.07-.13-.13-.33-.2-.46-.13-.33-.26-.65-.46-.98l-.07-.07c-.33-.07-.52.2-.72.46-.07.13-.13.26-.26.33-.07,0-.07.07,0,.13.07.13.13.33.26.46.13.2.33.46.33.72.07.39-.13.85-.52,1.11h0c-.2.2-.52.2-.78.2h-.39c-.07.07-.26.13-.2.26.07.26.72.33.85.33.65.07,1.18-.07,1.5-.39.2-.13.26-.33.39-.46.13-.2.2-.39.39-.39.46,0,.91,0,1.37.07.33,0,.65.07.98.07.13.07.33.07.52.07.33,0,.59,0,.78.2,0,.46.33.85.98,1.18h.13c.13,0,.33-.07.46-.2.13-.07.2-.13.26-.13.33-.13.39-.39.46-.65.07-.13.07-.26.13-.33.59,0,1.18-.07,1.76-.07h.72c.13,0,.26-.13.33-.2,0-.07.07-.07.07-.13l.07-.07v-.13c-.2-.39-.2-.65-.26-.91Zm-1.11-.07s.07,0,0,0c0,0,0,.07.07.13v.07c0,.07,0,.13.07.13h0c-.2.07-.39.07-.46,0,0,0,0-.13.07-.13.13-.13.26-.2.26-.2h0Zm-3.14.59h0c-.13-.13-.33-.2-.46-.2h-1.63c-.26,0-.46,0-.65-.07q-.07,0-.13-.07c-.13,0-.2-.07-.2-.07h0v-.07c0-.07.07-.13.13-.13.13-.07.26-.07.46-.07.13,0,.26,0,.46.07h.72c.33.07.59.07.91.07.2,0,.39,0,.59.07.07,0,.13.07.2.13v1.11q0,.13-.07.2s-.07,0-.07.07c-.13-.07-.2-.13-.26-.2v-.85Z"/>
        <path class="cls-4" d="m246.57,148.18c0,.13.07.26.07.39s.07.26.07.39c.2,1.31.46,2.61.78,3.92.07.13.07.33.13.46h0c.13.59.33,1.11.52,1.63.07.2.13.33.2.52.13.39.26.78.39,1.18.07.2.13.39.2.52.07.2.2.46.26.65,0,0,0,.07.07.07,0,.07.07.13.07.2v.07c0,.07.07.07.07.13s.07.13.07.13c0,.07.07.07.07.13.07.13.13.33.2.46.2.39.39.78.59,1.11.13.2.2.39.33.59.2.33.33.65.52.98.07.2.2.33.26.52.26.46.59.98.91,1.44,0,.07.07.07.07.13.33.46.65.91.98,1.37.07.07.13.13.13.2.26.39.59.78.91,1.11l.07.07.07.07.07.07.07.07.13.13h0c.91,1.11,1.96,2.16,3.01,3.2l.07.07.07.07h0l.07.07.07.07c.39.39.85.72,1.24,1.11l.07.07.07.07.07.07c.13.13.26.2.39.33l.07.07.07-.07c.13-.13.26-.2.39-.33l.07-.07.07-.07.07-.07c.46-.33.85-.72,1.24-1.11l.07-.07.07-.07h0l.07-.07.07-.07c.98-.91,1.83-1.83,2.68-2.81v.07l.13-.13c.26-.26.46-.59.72-.85l.07-.07.07-.07c1.89-2.35,3.46-4.97,4.7-7.71,0-.07.07-.13.07-.13,0,0,0-.07.07-.07v-.07c0-.07.07-.13.07-.2v-.07c.59-1.44,1.18-2.94,1.57-4.51.07-.26.13-.52.2-.72.07-.26.13-.52.2-.72.13-.46.2-.85.26-1.31.07-.33.13-.72.2-1.05,0-.13.07-.33.07-.46s.07-.26.07-.39.07-.26.07-.39c.07-.72.13-1.37.2-2.09v-.52c0-.26,0-.59.07-.85v-.72h-.59c-.46,0-.98-.07-1.57-.13h-.13c-.26,0-.52-.07-.78-.13h-.2c-.13,0-.2-.07-.33-.07h-.13c-1.57-.26-3.33-.72-4.9-1.24h0c-1.96-.65-3.79-1.44-4.9-2.42l-.07-.07-.07.07c-1.18.91-3.2,1.76-5.29,2.42h-.13c-1.5.46-3.14.85-4.64,1.11h-.13c-1.18.2-2.22.33-3.01.33h-.13c-.13,0-.26,0-.39-.07h-.07v.07c0,.78.07,1.57.07,2.09.26.52.33,1.24.39,1.96Zm18.42,16.2v2.61c-.85.98-1.76,1.96-2.74,2.87l-.07.07-.07.07h0l-.07.07-.07.07c-.39.39-.85.72-1.24,1.11l-.07.07-.07.07-.07.07c-.13.13-.26.26-.46.39-.13-.13-.26-.2-.39-.33l-.07-.07-.07-.07-.07-.07c-.46-.33-.85-.72-1.24-1.11l-.07-.07-.07-.07h0l-.07-.07-.07-.07c-1.11-1.05-2.09-2.09-3.07-3.2v-24.24c2.16-.65,4.12-1.5,5.36-2.42,1.11.98,2.94,1.76,4.83,2.42v21.89h-.13Z"/>
      </g>
    </g>
  </g>
</svg>