<?xml version="1.0" encoding="UTF-8"?>
<svg id="Layer_2" data-name="Layer 2" xmlns="http://www.w3.org/2000/svg" viewBox="0 0 520 320">
  <defs>
    <style>
      .cls-1 {
        fill: #e4002b;
      }

      .cls-1, .cls-2, .cls-3, .cls-4, .cls-5 {
        stroke-width: 0px;
      }

      .cls-2 {
        fill: #a3ab78;
      }

      .cls-3 {
        fill: #ffc72c;
      }

      .cls-4 {
        fill: #418fde;
      }

      .cls-5 {
        fill: #43b02a;
      }
    </style>
  </defs>
  <g id="_500x300_Background" data-name="500x300 Background">
    <rect class="cls-2" width="520" height="320" rx="10" ry="10"/>
  </g>
  <g id="Eritrea">
    <g>
      <path class="cls-1" d="m10,310l500-150L10,10v300Zm50-155.42c0-7.96,2.71-12.25,3.67-12.46-.67,5.88,5.71,14.46,8.58,16.62l.54-1.79c-5.83-4.92-7.83-14-8.5-19.12-1-9.17,8.42-19.5,9.71-20.17-2.04,10.17-.12,14.67,1.67,18.38l.83-1.96c-7.12-12.75,4.04-31.33,12.33-30.96-4.42,4.08-3.42,11.83-2.75,13.71.46-.75.58-.88,1.17-1.5-1.75-12.96,10.46-20.29,14.96-21.83,2.75-.83,6.58-.92,6.62-.38-1.25,1.42-9.38,4.29-9.29,12.12.46-.54,2.75-1.88,4.04-2.25,1.54-6.92,10.08-11.75,17.04-11.75.88,0,1.42.12,1.58.21-.38.25-7.88,6.67-7.21,7.62.58.38,3.42-3.54,6.79-5.08,2.88-1.33,6.08-1.29,9.08-.79-.92,5.12-16.12,6.08-16.21,8.12,1.46.29,5.62-1.21,12-2.25-9.04,12.25-19.79,6.46-23.33,7.38-2,.5-4.46,2.33-4.46,3.29,4.92-1.96,7.04,2.25,11.83-.29-1.58,9.25-17.92,13.25-21.33,7.83-2.67,2.71-2.46,3.75-2.75,4.38,5.29-2.5,8.33,3.33,12.04-1.33-.54,9.25-12.79,15.46-19.42,14.79-.46.83-2.67,5.58-2.5,6.46.75-.29.29-1.58,4.71-2.08,6.75-.75,6.83-2.12,8.96-6.33,2.58,4.75-7.5,20.25-15.88,24.75-.12,1.12.04,4.17,1.12,5.42.62-2.46,2.12-3.08,4.04-4.29,3.04-1.88,5.38-2.83,6.46-9.08,3.67,5.79-.38,24.83-6.75,32.21.67,1.42,2.33,5.04,2.88,5.88-.83-3.33,1.83-4.21,4.17-8.08,2.33-3.92,2.29-10.79,2.21-11.79,6.33,8.42,6.71,33.58,5.71,36.29.46.88,4.71,4.5,6.54,5.71.21-.54.08-.46-.83-2.42-1.67-3.29-.46-13.08-4.25-19.79,6.21.67,16.71,16.79,20.21,23.04,3.88,6.25,8.29,11.08,16.25,14,.01,0,.03.01.04.02.26-10.66-.53-24.87-3.29-34.35-2.12-1.88-8.33-9.21-10.12-10.83-3.88,3.17-18.71,3.25-21.79-8.75,2.33,1.58,8.67,3.92,12.04,3.29-5.12-1.83-13.08-7.83-12.25-15.54,1.21.79,3.04,3.46,4.67,4.08,1.83.62,6.17-.17,7.54.67,1.54.88,3,3.58,3.33,4.29.5-1.33.33-7.83-4.33-9.46,1.38-1.17,6.08-.21,9.25,3.92,4.62,6.29,2.71,12.33,3.54,14.83.67,2.04,5.54,6.71,6.79,7.67.04-3.54-2.67-9,.79-21.17,1.21-4.25,5.21-10.58,6.08-13.38-1.83-1.96-6.62-6.62-7.58-7.21-1.04-.04-10.25,1.62-14.12-.75-2.08-1.21-3.92-2.67-4.71-4.71,1.33.17,8.42,1.08,8.5.38.08-.75-.38-.38-3.25-2.33-2.12-1.96-4.67-4.42-4.46-11.33,1.42,2.04,2.54,4.92,6.5,4.12,2.62-.38,5.46,2.79,6.12,4.33.08-1.58-.67-6.29-3.25-9.21.79-1.12,9.33,5.58,9.71,11.38.08,1.92-.12,3.38-.29,4.92-.08,1.12,6.71,7.71,8.67,7.21.79-.12,2.75-8.62,3.5-12.58.92-4.83,2.79-14.21-.83-19.67-.88.54-5.17,2.21-10.58-3.58-2.25-2.58-2.46-5.25-1.58-6.04.79,1.42,4.96,4.96,5.96,4.29.33-1.42-5.21-2.04-3.12-10.17.33-1.04,1.12-1.46,1.75-1.54.62,3.62,3.71,4.17,6,9.17.88-1.62-.17-3.88.12-5.42.33-1.67.29-3.58-.62-4.29.92-.29,2.58,0,5.21,6.21,1.46,3.67-.12,8.96-.92,10.08-.04,1.42,2.04,2.96,2.71,8.75.75,5-1.08,12.42-1.46,13.96,1.58-1,3.54-1.92,4.17-3.92.67-2.33.12-6.96,2.33-10.5,1.54-2.67,4.17-4.58,8.46-3.25-.5,1.42-1.71.62-3.29,2.42-1.25,2-1.83,3.46-1.29,4.96,1-.17.71-1.92,2.62-3.08,2.92-1.5,4.17.12,5.92-.29,1.62-.5,2.62-1.62,3.08-2.25.5,1.29-.21,5.33-5.25,8.46-.12.08-.29.17-.42.25-1.75.96-1.79.33-2.12.62-.5.54.83,1.17,3,.88s4.12-1,4.58-2.42c.5.33,1.12,2.92-4.08,6.38-3.46,2.08-9.25,1.33-11,.42-.83.46-6.42,3.92-6.96,5.08-1.04,4.71-5.67,15.83-9.92,23.46.08.71,3.42-.29,7-3.5,1.58-1.33,3.96-11,7.12-13.58,2.71-2.08,5.88-1.75,8.38-1.58-1.21.42-5,2.5-5,6.08.5.46,1.38-1.5,3.67-1.92,2.21-.25,4.08,1.12,5.75,1.12,1.67.08,4.42-1.46,4.79-1.96-1.54,7.38-8.42,9.33-13,9.67.92,1.46,6.12,2.67,10.83-.62.21.71-1.58,5.25-8,7.21-6.92,2.08-7.83-1.83-10.75-1.67-2.83.12-5.33,2.79-6.54,3.42-1.83,1-4.54.92-5.08,1.62-.75.96-.62,9.29.62,15.12.88,4,2.79,10.17,3.88,14.04,1.67-1.67,6.29-2.38,9.21-9.25-1.04-3.12-2.92-15.58,12.17-18.58.29.62-2.54,1.88-3.5,3.71-1.33,2-1.46,5.79-1,7.12,1.46-1.83,3-4.42,8.04-4.12,3.17.21,5.33-.92,7.12-3.08.54.21-.54,5.67-3.46,8.96-2.5,2.92-5.83,4.25-6.25,5.46,2.04-.12,5.33-.42,10.46-5.12.21,1.12-2.71,7.67-8.62,10.71-3.75,1.71-10.38,1.71-14.25-.46-1,1.67-4.46,6.33-8.88,8.58,1.28,11.84,1.48,18.46,1.24,23.92,7.57-2.94,11.86-7.67,15.63-13.76,3.5-6.25,14-22.38,20.21-23.04-3.79,6.71-2.58,16.5-4.25,19.79-.92,1.96-1.04,1.88-.83,2.42,1.83-1.21,6.08-4.83,6.54-5.71-1-2.71-.62-27.88,5.71-36.29-.08,1-.12,7.88,2.21,11.79,2.33,3.88,5,4.75,4.17,8.08.54-.83,2.21-4.46,2.88-5.88-6.38-7.38-10.42-26.42-6.75-32.21,1.08,6.25,3.42,7.21,6.46,9.08,1.92,1.21,3.42,1.83,4.04,4.29,1.08-1.25,1.25-4.29,1.12-5.42-8.38-4.5-18.46-20-15.88-24.75,2.12,4.21,2.21,5.58,8.96,6.33,4.42.5,3.96,1.79,4.71,2.08.17-.88-2.04-5.62-2.5-6.46-6.62.67-18.88-5.54-19.42-14.79,3.71,4.67,6.75-1.17,12.04,1.33-.29-.62-.08-1.67-2.75-4.38-3.42,5.42-19.75,1.42-21.33-7.83,4.79,2.54,6.92-1.67,11.83.29,0-.96-2.46-2.79-4.46-3.29-3.54-.92-14.29,4.88-23.33-7.38,6.38,1.04,10.54,2.54,12,2.25-.08-2.04-15.29-3-16.21-8.12,3-.5,6.21-.54,9.08.79,3.38,1.54,6.21,5.46,6.79,5.08.67-.96-6.83-7.38-7.21-7.62.17-.08.71-.21,1.58-.21,6.96,0,15.5,4.83,17.04,11.75,1.29.38,3.58,1.71,4.04,2.25.08-7.83-8.04-10.71-9.29-12.12.04-.54,3.88-.46,6.62.38,4.5,1.54,16.71,8.88,14.96,21.83.58.62.71.75,1.17,1.5.67-1.88,1.67-9.63-2.75-13.71,8.29-.38,19.46,18.21,12.33,30.96l.83,1.96c1.79-3.71,3.71-8.21,1.67-18.38,1.29.67,10.71,11,9.71,20.17-.67,5.12-2.67,14.21-8.5,19.12l.54,1.79c2.88-2.17,9.25-10.75,8.58-16.62.96.21,3.67,4.5,3.67,12.46,0,2.25.25,20.87-16.96,28.42l-.33,2.33c4.5-2.33,11.33-5.29,16.29-14.92.46.67,1.42,10.46-6.33,23.25-4.54,7.25-19.12,14.83-24.54,13.25l-2.42,2.33c5,.38,20.88-2.71,25.08-6.62.58.83-6.46,14.17-20.54,19.96-10.58,4.32-20.43,7.3-41.12,5.76,5.21,3.09,10.12,7.12,12.7,9.9l-3.5,3c-1.42-1.21-6.27-5.95-10.5-9.35-.23,5.36,1.03,6.81.17,8.01-1.25-1.29-6.67-.21-7.29-.83.52-1,.96-3.53,1.26-7.02-4.19,3.38-8.91,7.99-10.3,9.18l-3.5-3c2.58-2.78,7.49-6.81,12.7-9.9-20.68,1.54-30.54-1.44-41.12-5.76-14.08-5.79-21.12-19.12-20.54-19.96,4.21,3.92,20.08,7,25.08,6.62l-2.42-2.33c-5.42,1.58-20-6-24.54-13.25-7.75-12.79-6.79-22.58-6.33-23.25,4.96,9.62,11.79,12.58,16.29,14.92l-.33-2.33c-17.21-7.54-16.96-26.17-16.96-28.42Z"/>
      <polygon class="cls-5" points="10 10 510 160 510 10 10 10"/>
      <polygon class="cls-4" points="510 310 510 160 10 310 510 310"/>
      <path class="cls-3" d="m76.96,183l.33,2.33c-4.5-2.33-11.33-5.29-16.29-14.92-.46.67-1.42,10.46,6.33,23.25,4.54,7.25,19.12,14.83,24.54,13.25l2.42,2.33c-5,.38-20.88-2.71-25.08-6.62-.58.83,6.46,14.17,20.54,19.96,10.58,4.32,20.43,7.3,41.12,5.76-5.21,3.09-10.12,7.12-12.7,9.9l3.5,3c1.39-1.19,6.11-5.8,10.3-9.18-.3,3.48-.74,6.02-1.26,7.02.62.62,6.04-.46,7.29.83.86-1.2-.4-2.65-.17-8.01,4.24,3.4,9.09,8.14,10.5,9.35l3.5-3c-2.58-2.78-7.49-6.81-12.7-9.9,20.68,1.54,30.54-1.44,41.12-5.76,14.08-5.79,21.12-19.12,20.54-19.96-4.21,3.92-20.08,7-25.08,6.62l2.42-2.33c5.42,1.58,20-6,24.54-13.25,7.75-12.79,6.79-22.58,6.33-23.25-4.96,9.62-11.79,12.58-16.29,14.92l.33-2.33c17.21-7.54,16.96-26.17,16.96-28.42,0-7.96-2.71-12.25-3.67-12.46.67,5.88-5.71,14.46-8.58,16.62l-.54-1.79c5.83-4.92,7.83-14,8.5-19.12,1-9.17-8.42-19.5-9.71-20.17,2.04,10.17.12,14.67-1.67,18.38l-.83-1.96c7.12-12.75-4.04-31.33-12.33-30.96,4.42,4.08,3.42,11.83,2.75,13.71-.46-.75-.58-.88-1.17-1.5,1.75-12.96-10.46-20.29-14.96-21.83-2.75-.83-6.58-.92-6.62-.38,1.25,1.42,9.38,4.29,9.29,12.12-.46-.54-2.75-1.88-4.04-2.25-1.54-6.92-10.08-11.75-17.04-11.75-.88,0-1.42.12-1.58.21.38.25,7.88,6.67,7.21,7.62-.58.38-3.42-3.54-6.79-5.08-2.88-1.33-6.08-1.29-9.08-.79.92,5.12,16.12,6.08,16.21,8.12-1.46.29-5.62-1.21-12-2.25,9.04,12.25,19.79,6.46,23.33,7.38,2,.5,4.46,2.33,4.46,3.29-4.92-1.96-7.04,2.25-11.83-.29,1.58,9.25,17.92,13.25,21.33,7.83,2.67,2.71,2.46,3.75,2.75,4.38-5.29-2.5-8.33,3.33-12.04-1.33.54,9.25,12.79,15.46,19.42,14.79.46.83,2.67,5.58,2.5,6.46-.75-.29-.29-1.58-4.71-2.08-6.75-.75-6.83-2.12-8.96-6.33-2.58,4.75,7.5,20.25,15.88,24.75.12,1.12-.04,4.17-1.12,5.42-.62-2.46-2.12-3.08-4.04-4.29-3.04-1.88-5.38-2.83-6.46-9.08-3.67,5.79.38,24.83,6.75,32.21-.67,1.42-2.33,5.04-2.88,5.88.83-3.33-1.83-4.21-4.17-8.08-2.33-3.92-2.29-10.79-2.21-11.79-6.33,8.42-6.71,33.58-5.71,36.29-.46.88-4.71,4.5-6.54,5.71-.21-.54-.08-.46.83-2.42,1.67-3.29.46-13.08,4.25-19.79-6.21.67-16.71,16.79-20.21,23.04-3.77,6.08-8.07,10.82-15.63,13.76.24-5.47.04-12.08-1.24-23.92,4.42-2.25,7.88-6.92,8.88-8.58,3.88,2.17,10.5,2.17,14.25.46,5.92-3.04,8.83-9.58,8.62-10.71-5.12,4.71-8.42,5-10.46,5.12.42-1.21,3.75-2.54,6.25-5.46,2.92-3.29,4-8.75,3.46-8.96-1.79,2.17-3.96,3.29-7.12,3.08-5.04-.29-6.58,2.29-8.04,4.12-.46-1.33-.33-5.12,1-7.12.96-1.83,3.79-3.08,3.5-3.71-15.08,3-13.21,15.46-12.17,18.58-2.92,6.88-7.54,7.58-9.21,9.25-1.08-3.88-3-10.04-3.88-14.04-1.25-5.83-1.38-14.17-.62-15.12.54-.71,3.25-.62,5.08-1.62,1.21-.62,3.71-3.29,6.54-3.42,2.92-.17,3.83,3.75,10.75,1.67,6.42-1.96,8.21-6.5,8-7.21-4.71,3.29-9.92,2.08-10.83.62,4.58-.33,11.46-2.29,13-9.67-.38.5-3.12,2.04-4.79,1.96-1.67,0-3.54-1.38-5.75-1.12-2.29.42-3.17,2.38-3.67,1.92,0-3.58,3.79-5.67,5-6.08-2.5-.17-5.67-.5-8.38,1.58-3.17,2.58-5.54,12.25-7.12,13.58-3.58,3.21-6.92,4.21-7,3.5,4.25-7.62,8.88-18.75,9.92-23.46.54-1.17,6.12-4.62,6.96-5.08,1.75.92,7.54,1.67,11-.42,5.21-3.46,4.58-6.04,4.08-6.38-.46,1.42-2.42,2.12-4.58,2.42s-3.5-.33-3-.88c.33-.29.38.33,2.12-.62.12-.08.29-.17.42-.25,5.04-3.12,5.75-7.17,5.25-8.46-.46.62-1.46,1.75-3.08,2.25-1.75.42-3-1.21-5.92.29-1.92,1.17-1.62,2.92-2.62,3.08-.54-1.5.04-2.96,1.29-4.96,1.58-1.79,2.79-1,3.29-2.42-4.29-1.33-6.92.58-8.46,3.25-2.21,3.54-1.67,8.17-2.33,10.5-.62,2-2.58,2.92-4.17,3.92.38-1.54,2.21-8.96,1.46-13.96-.67-5.79-2.75-7.33-2.71-8.75.79-1.12,2.38-6.42.92-10.08-2.62-6.21-4.29-6.5-5.21-6.21.92.71.96,2.62.62,4.29-.29,1.54.75,3.79-.12,5.42-2.29-5-5.38-5.54-6-9.17-.62.08-1.42.5-1.75,1.54-2.08,8.12,3.46,8.75,3.12,10.17-1,.67-5.17-2.88-5.96-4.29-.88.79-.67,3.46,1.58,6.04,5.42,5.79,9.71,4.12,10.58,3.58,3.62,5.46,1.75,14.83.83,19.67-.75,3.96-2.71,12.46-3.5,12.58-1.96.5-8.75-6.08-8.67-7.21.17-1.54.38-3,.29-4.92-.38-5.79-8.92-12.5-9.71-11.38,2.58,2.92,3.33,7.62,3.25,9.21-.67-1.54-3.5-4.71-6.12-4.33-3.96.79-5.08-2.08-6.5-4.12-.21,6.92,2.33,9.38,4.46,11.33,2.88,1.96,3.33,1.58,3.25,2.33-.08.71-7.17-.21-8.5-.38.79,2.04,2.62,3.5,4.71,4.71,3.88,2.38,13.08.71,14.12.75.96.58,5.75,5.25,7.58,7.21-.88,2.79-4.88,9.12-6.08,13.38-3.46,12.17-.75,17.62-.79,21.17-1.25-.96-6.12-5.62-6.79-7.67-.83-2.5,1.08-8.54-3.54-14.83-3.17-4.12-7.88-5.08-9.25-3.92,4.67,1.62,4.83,8.12,4.33,9.46-.33-.71-1.79-3.42-3.33-4.29-1.38-.83-5.71-.04-7.54-.67-1.62-.62-3.46-3.29-4.67-4.08-.83,7.71,7.12,13.71,12.25,15.54-3.38.62-9.71-1.71-12.04-3.29,3.08,12,17.92,11.92,21.79,8.75,1.79,1.62,8,8.96,10.12,10.83,2.77,9.48,3.56,23.69,3.29,34.35-.01,0-.03-.01-.04-.02-7.96-2.92-12.38-7.75-16.25-14-3.5-6.25-14-22.38-20.21-23.04,3.79,6.71,2.58,16.5,4.25,19.79.92,1.96,1.04,1.88.83,2.42-1.83-1.21-6.08-4.83-6.54-5.71,1-2.71.62-27.88-5.71-36.29.08,1,.12,7.88-2.21,11.79-2.33,3.88-5,4.75-4.17,8.08-.54-.83-2.21-4.46-2.88-5.88,6.38-7.38,10.42-26.42,6.75-32.21-1.08,6.25-3.42,7.21-6.46,9.08-1.92,1.21-3.42,1.83-4.04,4.29-1.08-1.25-1.25-4.29-1.12-5.42,8.38-4.5,18.46-20,15.88-24.75-2.12,4.21-2.21,5.58-8.96,6.33-4.42.5-3.96,1.79-4.71,2.08-.17-.88,2.04-5.62,2.5-6.46,6.62.67,18.88-5.54,19.42-14.79-3.71,4.67-6.75-1.17-12.04,1.33.29-.62.08-1.67,2.75-4.38,3.42,5.42,19.75,1.42,21.33-7.83-4.79,2.54-6.92-1.67-11.83.29,0-.96,2.46-2.79,4.46-3.29,3.54-.92,14.29,4.88,23.33-7.38-6.38,1.04-10.54,2.54-12,2.25.08-2.04,15.29-3,16.21-8.12-3-.5-6.21-.54-9.08.79-3.38,1.54-6.21,5.46-6.79,5.08-.67-.96,6.83-7.38,7.21-7.62-.17-.08-.71-.21-1.58-.21-6.96,0-15.5,4.83-17.04,11.75-1.29.38-3.58,1.71-4.04,2.25-.08-7.83,8.04-10.71,9.29-12.12-.04-.54-3.88-.46-6.62.38-4.5,1.54-16.71,8.88-14.96,21.83-.58.62-.71.75-1.17,1.5-.67-1.88-1.67-9.63,2.75-13.71-8.29-.38-19.46,18.21-12.33,30.96l-.83,1.96c-1.79-3.71-3.71-8.21-1.67-18.38-1.29.67-10.71,11-9.71,20.17.67,5.12,2.67,14.21,8.5,19.12l-.54,1.79c-2.88-2.17-9.25-10.75-8.58-16.62-.96.21-3.67,4.5-3.67,12.46,0,2.25-.25,20.87,16.96,28.42Z"/>
    </g>
  </g>
</svg>