<?xml version="1.0" encoding="UTF-8"?>
<svg id="Layer_2" data-name="Layer 2" xmlns="http://www.w3.org/2000/svg" viewBox="0 0 520 320">
  <defs>
    <style>
      .cls-1 {
        fill: #a3ab78;
      }

      .cls-1, .cls-2, .cls-3, .cls-4, .cls-5, .cls-6, .cls-7, .cls-8 {
        stroke-width: 0px;
      }

      .cls-3 {
        fill: #3e5eb9;
      }

      .cls-4 {
        fill: #b3b3b3;
      }

      .cls-5 {
        fill: #333;
      }

      .cls-6 {
        fill: #fff;
      }

      .cls-7 {
        fill: #ffd900;
      }

      .cls-8 {
        fill: #b10c0c;
      }
    </style>
  </defs>
  <g id="_500x300_Background" data-name="500x300 Background">
    <rect class="cls-1" width="520" height="320" rx="10" ry="10"/>
  </g>
  <g id="Eswatini">
    <g>
      <path class="cls-3" d="m10,10h500v300H10V10Z"/>
      <path class="cls-7" d="m10,66.25h500v187.5H10V66.25Z"/>
      <path class="cls-8" d="m10,85h500v150H10V85Z"/>
      <g>
        <g id="a">
          <g>
            <path class="cls-6" d="m404.64,125.71l-18.21,6.43,18.21,6.43,18.21-6.43-18.21-6.43Z"/>
            <path class="cls-2" d="m404.64,138.97l-19.35-6.83,19.35-6.83,19.35,6.83-19.35,6.83Zm-17.08-6.83l17.08,6.03,17.08-6.03-17.08-6.03-17.08,6.03Z"/>
          </g>
          <g>
            <path class="cls-7" d="m129.47,130h263.19c1.29,0,2.33.96,2.33,2.14h0c0,1.18-1.04,2.14-2.33,2.14H129.47c-1.29,0-2.33-.96-2.33-2.14h0c0-1.18,1.04-2.14,2.33-2.14Z"/>
            <path class="cls-2" d="m392.66,134.66H129.47c-1.49,0-2.71-1.13-2.71-2.52s1.21-2.52,2.71-2.52h263.19c1.49,0,2.71,1.13,2.71,2.52s-1.21,2.52-2.71,2.52Zm-263.19-4.29c-1.08,0-1.95.79-1.95,1.76s.88,1.76,1.95,1.76h263.19c1.08,0,1.95-.79,1.95-1.76s-.88-1.76-1.95-1.76H129.47Z"/>
          </g>
          <g>
            <path class="cls-7" d="m388.58,134.28c1.07,0,2.14-1.07,2.14-2.14s-1.07-2.14-2.14-2.14m-2.15,4.29c1.07,0,2.14-1.07,2.14-2.14s-1.07-2.14-2.14-2.14m-2.15,4.29c1.07,0,2.14-1.07,2.14-2.14s-1.07-2.14-2.14-2.14"/>
            <path class="cls-2" d="m388.58,134.66v-.76c.86,0,1.77-.91,1.77-1.76s-.91-1.76-1.77-1.76v-.76c1.27,0,2.52,1.25,2.52,2.52s-1.25,2.52-2.52,2.52Zm-2.15,0v-.76c.86,0,1.77-.91,1.77-1.76s-.91-1.76-1.77-1.76v-.76c1.27,0,2.52,1.25,2.52,2.52s-1.25,2.52-2.52,2.52Zm-2.15,0v-.76c.86,0,1.77-.91,1.77-1.76s-.91-1.76-1.77-1.76v-.76c1.27,0,2.52,1.25,2.52,2.52s-1.25,2.52-2.52,2.52Z"/>
          </g>
        </g>
        <g id="a-2" data-name="a">
          <g>
            <path class="cls-6" d="m387.19,138.57l-18.21,6.43,18.21,6.43,18.21-6.43-18.21-6.43Z"/>
            <path class="cls-2" d="m387.19,151.83l-19.35-6.83,19.35-6.83,19.35,6.83-19.35,6.83Zm-17.08-6.83l17.08,6.03,17.08-6.03-17.08-6.03-17.08,6.03Z"/>
          </g>
          <g>
            <path class="cls-7" d="m112.01,142.86h263.19c1.29,0,2.33.96,2.33,2.14h0c0,1.18-1.04,2.14-2.33,2.14H112.01c-1.29,0-2.33-.96-2.33-2.14h0c0-1.18,1.04-2.14,2.33-2.14Z"/>
            <path class="cls-2" d="m375.2,147.53H112.01c-1.49,0-2.71-1.13-2.71-2.52s1.21-2.52,2.71-2.52h263.19c1.49,0,2.71,1.13,2.71,2.52s-1.21,2.52-2.71,2.52Zm-263.19-4.29c-1.08,0-1.95.79-1.95,1.76s.88,1.76,1.95,1.76h263.19c1.08,0,1.95-.79,1.95-1.76s-.88-1.76-1.95-1.76H112.01Z"/>
          </g>
          <g>
            <path class="cls-7" d="m371.13,147.15c1.07,0,2.14-1.07,2.14-2.14s-1.07-2.14-2.14-2.14m-2.15,4.29c1.07,0,2.14-1.07,2.14-2.14s-1.07-2.14-2.14-2.14m-2.15,4.29c1.07,0,2.14-1.07,2.14-2.14s-1.07-2.14-2.14-2.14"/>
            <path class="cls-2" d="m371.13,147.52v-.76c.86,0,1.77-.91,1.77-1.76s-.91-1.76-1.77-1.76v-.76c1.27,0,2.52,1.25,2.52,2.52s-1.25,2.52-2.52,2.52Zm-2.15,0v-.76c.86,0,1.77-.91,1.77-1.76s-.91-1.76-1.77-1.76v-.76c1.27,0,2.52,1.25,2.52,2.52s-1.25,2.52-2.52,2.52Zm-2.15,0v-.76c.86,0,1.77-.91,1.77-1.76s-.91-1.76-1.77-1.76v-.76c1.27,0,2.52,1.25,2.52,2.52s-1.25,2.52-2.52,2.52Z"/>
          </g>
        </g>
        <g>
          <path class="cls-7" d="m83.03,156.79h357.94c1.75,0,3.17,1.44,3.17,3.21h0c0,1.78-1.42,3.21-3.17,3.21H83.03c-1.75,0-3.17-1.44-3.17-3.21h0c0-1.78,1.42-3.21,3.17-3.21Z"/>
          <path class="cls-2" d="m440.97,163.62H83.03c-1.97,0-3.57-1.62-3.57-3.62s1.6-3.62,3.57-3.62h357.94c1.97,0,3.57,1.62,3.57,3.62s-1.6,3.62-3.57,3.62Zm-357.94-6.43c-1.52,0-2.76,1.26-2.76,2.81s1.24,2.81,2.76,2.81h357.94c1.52,0,2.76-1.26,2.76-2.81s-1.24-2.81-2.76-2.81H83.03Z"/>
        </g>
      </g>
      <g>
        <path class="cls-6" d="m367.14,160c-21.43,21.43-50,64.29-107.14,64.29-50,0-85.71-42.86-107.14-64.29,21.43-21.43,57.14-64.29,107.14-64.29,57.14,0,85.71,42.86,107.14,64.29Z"/>
        <path class="cls-2" d="m260,224.66c-44.96,0-78.24-34.35-100.26-57.09-2.53-2.61-4.92-5.08-7.15-7.31l-.27-.27.27-.27c2.22-2.22,4.61-4.69,7.14-7.29,22.02-22.74,55.31-57.1,100.28-57.1,48.46,0,76.44,30.72,96.88,53.15,3.71,4.08,7.22,7.93,10.53,11.24l.27.27-.27.27c-3.31,3.31-6.81,7.16-10.53,11.23-20.43,22.44-48.42,53.16-96.89,53.16Zm-106.61-64.66c2.16,2.16,4.46,4.54,6.89,7.05,21.93,22.64,55.08,56.86,99.72,56.86,48.14,0,75.99-30.58,96.33-52.91,3.62-3.97,7.04-7.73,10.29-10.99-3.25-3.26-6.67-7.02-10.29-11-20.34-22.33-48.19-52.91-96.32-52.91-44.65,0-77.8,34.22-99.73,56.87-2.43,2.51-4.73,4.88-6.88,7.04Z"/>
      </g>
      <path class="cls-2" d="m252.51,118.07c5.7,6.41.94,9,6.98,9.42,6.36.47,2.76,6.78,8.11,7,3.74.16-.37,15.11,3.23,20.05,3.67,5.14,6.74,1.51,6.81,5.22.06,3.84-9.99,3.46-10.16,15.29-.29,6.82-8.48,7.26-8.87,11.65-.49,4.13,16.13,6.45,15.91,10.14-.23,3.68-17.94,3.11-18.71,7.31-.4,3.77,24.33,6.87,26.32,17.79-3.69,1.21-14.19,2.34-22.12,2.35-49.99.04-85.71-42.86-107.14-64.29,21.43-21.43,57.14-64.29,107.14-64.29,0,0-14.84,13.56-7.48,22.36h0Z"/>
      <g id="d">
        <g id="c">
          <g id="b">
            <path class="cls-2" d="m195.45,154.29v-17.14m10.39,0v17.14m10.4-17.14v17.14"/>
            <path class="cls-6" d="m218.83,154.28h-5.2v-17.14h5.2v17.14Zm-10.4,0h-5.2v-17.14h5.2v17.14Zm-10.39,0h-5.2v-17.14h5.2v17.14Z"/>
          </g>
          <g id="b-2" data-name="b">
            <path class="cls-2" d="m195.45,182.86v-17.14m10.39,0v17.14m10.4-17.14v17.14"/>
            <path class="cls-6" d="m218.83,182.86h-5.2v-17.14h5.2v17.14Zm-10.4,0h-5.2v-17.14h5.2v17.14Zm-10.39,0h-5.2v-17.14h5.2v17.14Z"/>
          </g>
        </g>
        <g id="c-2" data-name="c">
          <g id="b-3" data-name="b">
            <path class="cls-2" d="m226.62,154.29v-17.14m10.39,0v17.14m10.4-17.14v17.14"/>
            <path class="cls-6" d="m250,154.28h-5.2v-17.14h5.2v17.14Zm-10.4,0h-5.2v-17.14h5.2v17.14Zm-10.39,0h-5.2v-17.14h5.2v17.14Z"/>
          </g>
          <g id="b-4" data-name="b">
            <path class="cls-2" d="m226.62,182.86v-17.14m10.39,0v17.14m10.4-17.14v17.14"/>
            <path class="cls-6" d="m250,182.86h-5.2v-17.14h5.2v17.14Zm-10.4,0h-5.2v-17.14h5.2v17.14Zm-10.39,0h-5.2v-17.14h5.2v17.14Z"/>
          </g>
        </g>
      </g>
      <g id="d-2" data-name="d">
        <g id="c-3" data-name="c">
          <g id="b-5" data-name="b">
            <path class="cls-2" d="m274.02,154.29v-17.14m10.39,0v17.14m10.4-17.14v17.14"/>
            <path class="cls-2" d="m297.4,154.28h-5.2v-17.14h5.2v17.14Zm-10.4,0h-5.2v-17.14h5.2v17.14Zm-10.39,0h-5.2v-17.14h5.2v17.14Z"/>
          </g>
          <g id="b-6" data-name="b">
            <path class="cls-2" d="m274.02,182.86v-17.14m10.39,0v17.14m10.4-17.14v17.14"/>
            <path class="cls-2" d="m297.4,182.86h-5.2v-17.14h5.2v17.14Zm-10.4,0h-5.2v-17.14h5.2v17.14Zm-10.39,0h-5.2v-17.14h5.2v17.14Z"/>
          </g>
        </g>
        <g id="c-4" data-name="c">
          <g id="b-7" data-name="b">
            <path class="cls-2" d="m305.19,154.29v-17.14m10.39,0v17.14m10.4-17.14v17.14"/>
            <path class="cls-2" d="m328.57,154.28h-5.2v-17.14h5.2v17.14Zm-10.4,0h-5.2v-17.14h5.2v17.14Zm-10.39,0h-5.2v-17.14h5.2v17.14Z"/>
          </g>
          <g id="b-8" data-name="b">
            <path class="cls-2" d="m305.19,182.86v-17.14m10.39,0v17.14m10.4-17.14v17.14"/>
            <path class="cls-2" d="m328.57,182.86h-5.2v-17.14h5.2v17.14Zm-10.4,0h-5.2v-17.14h5.2v17.14Zm-10.39,0h-5.2v-17.14h5.2v17.14Z"/>
          </g>
        </g>
      </g>
      <g>
        <path class="cls-5" d="m418.51,157.45c-3.25,5.62,2.49-1.87,16.49,7.54,2.59,1.75,4.86,6.37,4.86,9.57-.66-.44-1.15-1.42-1.87-2.06-1.02,1.02.97,5.68,1.26,7.89-2.19-1.22-1.98-1.8-2.7-3.31.14,1.82-.38,6.83.49,8.76-1.73-.49-1.61-1.88-2.51-2.16.61,2.18-.53,4.56-.23,7.02-1.01-1-2.08-1.78-2.55-2.18-.08,1.17-1.94,4.24-1.98,5.35-.86-.52-1.09-1.32-1.23-1.86-1.06,1.34-4.84,6.27-5.08,7.77-2.91-2.57-10.37-8.83-11.34-12.15-.86,1.89-2.1,2.52-4.55,3.9-.97-5.27-4.6-11.19-2.66-15.7-1.38.82-2.51,1.63-3.88,2.63,1.3-7.63,7.94-16.57,17.49-21h0Z"/>
        <path class="cls-2" d="m423.68,200.4l-.44-.39c-.27-.24-.58-.51-.93-.81-3.12-2.73-8.74-7.64-10.24-10.81-.85,1.44-2.07,2.12-4.07,3.24l-.68.38-.08-.44c-.31-1.68-.91-3.47-1.49-5.21-1.12-3.36-2.28-6.83-1.45-9.81-1.02.65-1.96,1.32-3.09,2.15l-.64.47.13-.78c1.42-8.31,8.64-17.01,17.58-21.19l.04-.07h.19l.08.37.19.11c-.25.44-.92,1.6-.84,1.82.1.09.73.08,1.29.06,2.56-.06,7.87-.19,15.94,5.23,2.62,1.76,5,6.45,5,9.84v.6l-.5-.33c-.4-.27-.72-.68-1.06-1.12-.18-.23-.36-.47-.56-.68-.22.86.36,2.9.8,4.45.31,1.08.6,2.11.7,2.87l.08.63-.56-.31c-1.4-.78-1.88-1.34-2.21-2,0,.27-.01.55-.02.84-.05,2.08-.11,4.93.46,6.19l.28.63-.66-.19c-1.12-.32-1.56-1.01-1.89-1.51-.02-.03-.04-.06-.06-.09.08.95-.06,1.93-.21,2.88-.16,1.05-.32,2.15-.19,3.23l.11.92-.66-.65c-.71-.71-1.46-1.3-2.01-1.74-.04-.03-.07-.06-.11-.09-.18.61-.54,1.41-.92,2.23-.44.96-.94,2.05-.95,2.54l-.02.54-.47-.28c-.67-.41-1.01-.98-1.19-1.46-1.84,2.36-4.46,6.02-4.64,7.15l-.09.57Zm-11.5-13.7l.24.83c.85,2.92,7.01,8.3,10.31,11.19.2.17.38.33.56.49.87-2.21,4.81-7.17,4.99-7.4l.4-.5.16.62c.1.36.24.93.7,1.38.17-.61.53-1.4.91-2.23.46-1.01.93-2.05.97-2.57l.04-.64.49.42c.13.11.3.25.51.41.41.32.92.74,1.46,1.22,0-.88.12-1.73.24-2.57.19-1.26.37-2.45.05-3.57l-.16-.57.56.17c.49.15.74.54.98.92.23.35.46.71.91.98-.38-1.51-.33-3.84-.28-5.77.02-.99.04-1.85,0-2.4l.61-.17c.16.32.27.6.37.85.32.78.51,1.26,1.6,1.96-.13-.62-.34-1.35-.56-2.1-.67-2.35-1.3-4.57-.49-5.37l.21-.21.23.2c.36.31.65.69.93,1.06.12.16.24.31.36.46-.33-3.07-2.45-7.02-4.68-8.52-7.9-5.31-13.07-5.18-15.57-5.12-1.04.03-1.61.04-1.86-.38-.19-.33-.09-.75.34-1.57-8.1,4.09-14.61,11.91-16.24,19.53,1.13-.82,2.1-1.49,3.25-2.17l.85-.5-.39.9c-1.26,2.94-.03,6.64,1.17,10.22.54,1.61,1.09,3.26,1.42,4.86,2.17-1.21,3.27-1.85,4.03-3.54l.36-.79Z"/>
      </g>
      <path class="cls-4" d="m406.41,185.29c1.35-2.69,2.59-3.55,3.46-5.28,1.54-3.05,1.76-5.47,3.1-5.12,1.34.36,1.34,1.6-.4,4.6-1.74,3-2.56,3.64-6.16,5.8Zm9.11,6.42c-.17-2.05.42-2.91.31-4.23-.18-2.32-1.14-3.92.1-4.03,1.24-.11,1.81.68,1.82,3.02,0,2.34-.36,2.96-2.23,5.24h0Zm6.91,4.02c-.54-2.86-.14-4.13-.48-5.98-.6-3.25-1.79-5.38-.65-5.68s1.84.75,2.27,4.04c.43,3.29.2,4.2-1.14,7.61h0Zm7.19-20.06c-1.69-1.28-2.67-1.37-3.76-2.19-1.92-1.45-2.89-2.99-3.51-2.22-.62.77-.18,1.61,1.83,2.94,2.01,1.33,2.69,1.44,5.44,1.47h0Zm-1.19,9.5c-.89-1.85-1.83-2.32-2.4-3.51-1.02-2.09-1.02-3.9-2.12-3.43s-1.19,1.41-.01,3.43c1.18,2.02,1.8,2.39,4.54,3.51Z"/>
      <g>
        <path class="cls-5" d="m95.59,162.87c-.18-1.64.17-1.83-.84-3.07,1.47.61,1.52,2.24,3.31,1.09.65-.34.94-.35.14-2.17,1.86.09,7.95,2.17,8.92,2.22,2.56.12,7.23-2.69,10.48.76,3.11,3.15,2.07,6.41,2.07,10.77-1.25-.6-.65-.9-1.98-2.45,1,3.81-.05,10.68-.05,14.72-.51-.97-.44-.55-.94-1.56-1.33,3.69-2.92,4.45-2.92,8.81-.48-1.71-.02-1.35-.55-2.25-1.29,2.8-9.94,5.19-6.61,8.01-3.01-1.76-4.33-1.58-5.69-3.17-.59.38-1.06,1.1-1.6,2.08-5.29-2.43-3.4-7.69-7.55-11.2-.72,1.47-.39,1.26-1.17,3.65-.84-3.33-1.07-5.44-2.01-7.88-.81,1.35-.74.84-2.22,2.88-.61-4.05-1.61-5.01-1.21-7.69-1.57,1.11-.54.66-2.11,2.02,1.49-10.38,7.92-18.05,12.53-15.59h0Z"/>
        <path class="cls-2" d="m106.43,198.09c-1.23-.72-2.19-1.12-2.96-1.44-1.03-.43-1.81-.75-2.58-1.54-.4.36-.77.95-1.21,1.74l-.18.32-.34-.16c-3.07-1.41-3.86-3.78-4.63-6.06-.56-1.67-1.14-3.4-2.62-4.83-.2.45-.26.7-.35,1.1-.1.41-.23.97-.57,2.01l-.43,1.32-.34-1.35c-.3-1.18-.52-2.22-.72-3.14-.3-1.41-.57-2.67-1.01-3.95-.17.24-.31.39-.48.58-.25.28-.6.66-1.31,1.65l-.57.79-.15-.97c-.24-1.59-.54-2.71-.79-3.62-.31-1.16-.56-2.06-.51-3.26-.15.13-.2.21-.27.31-.14.21-.32.47-1.1,1.15l-.81.7.15-1.06c1.04-7.23,4.59-13.71,8.64-15.76,1.34-.68,2.65-.82,3.84-.41,0-.15-.01-.29-.02-.41-.02-.73-.03-.97-.68-1.77l.46-.62c.58.24.97.63,1.28.94.54.54.76.76,1.65.18l.15-.08c.38-.19.45-.23-.15-1.6l-.26-.59.64.03c1.13.05,3.6.77,5.79,1.4,1.36.4,2.78.8,3.14.82.69.03,1.61-.18,2.58-.4,2.55-.59,5.71-1.32,8.17,1.29,2.58,2.61,2.44,5.32,2.27,8.47-.04.83-.09,1.68-.09,2.58v.64l-.57-.27c-.65-.31-.88-.57-1.08-.93.24,2.48.03,5.55-.15,8.34-.11,1.66-.22,3.23-.22,4.5l-.75.19c-.23-.44-.33-.57-.42-.69-.03-.04-.06-.08-.09-.12-.37.9-.75,1.61-1.09,2.27-.84,1.58-1.49,2.83-1.49,5.61l-.79.11c-.24-.85-.26-1.22-.27-1.47-.76.91-2.08,1.75-3.37,2.57-1.68,1.07-3.43,2.19-3.49,3.18-.02.35.18.7.62,1.07l-.46.65Zm-5.42-4.04l.23.26c.73.85,1.45,1.15,2.54,1.6.49.2,1.05.44,1.71.76-.02-.12-.02-.24-.02-.36.09-1.4,1.92-2.56,3.86-3.8,1.52-.97,3.09-1.97,3.54-2.95l.32-.69.39.66s0,.01.01.02c.28-1.46.8-2.45,1.38-3.55.43-.81.91-1.73,1.35-2.96l.32-.88.42.84c.09.17.15.3.21.4.04-.99.11-2.08.19-3.21.24-3.53.51-7.53-.15-10.06l.69-.36c.61.72.84,1.19,1.01,1.53.09.2.16.33.27.45.02-.66.05-1.28.08-1.9.16-3.08.29-5.51-2.05-7.87-2.15-2.29-4.95-1.64-7.41-1.07-1.03.24-1.99.46-2.8.42-.43-.02-1.54-.34-3.32-.85-1.69-.49-3.72-1.08-4.95-1.29.45,1.19.31,1.59-.49,1.99l-.1.05c-1.19.77-1.84.42-2.36-.05.02.19.03.38.04.61,0,.23.02.49.04.81l.4.21-1.1.74-.05-.44c-1.08-.5-2.27-.42-3.56.23-3.61,1.83-6.81,7.47-8.01,13.96.04-.06.08-.11.11-.15.18-.27.33-.45,1.18-1.05l.76-.54-.14.92c-.23,1.53.03,2.46.41,3.86.2.74.44,1.62.65,2.78.38-.49.62-.75.81-.96.27-.3.44-.48.83-1.14l.42-.7.29.76c.62,1.62.94,3.1,1.31,4.82.11.51.23,1.07.37,1.66.05-.21.09-.38.13-.52.13-.55.21-.88.64-1.75l.23-.46.39.33c1.95,1.65,2.61,3.63,3.25,5.55.71,2.13,1.39,4.15,3.87,5.43.51-.89.97-1.52,1.55-1.89l.29-.19Z"/>
      </g>
      <path class="cls-4" d="m89.08,179.81c1.36-3.34,2.59-4.39,3.47-6.54,1.56-3.78,1.81-6.8,3.12-6.34,1.31.46,1.29,2.02-.46,5.73-1.75,3.72-2.57,4.5-6.13,7.15h0Zm5.16,8.36c.55-3,1.41-4.09,1.76-6.02.63-3.39.28-5.92,1.49-5.79,1.22.13,1.49,1.41.68,4.79-.81,3.38-1.37,4.17-3.94,7.01h0Zm6.18,5.81c.15-2.9.83-4.04.94-5.91.18-3.29-.45-5.65.71-5.66s1.57,1.17,1.22,4.46c-.36,3.29-.78,4.12-2.86,7.11h0Zm13.26-19c-2.54-2.53-4.07-3-5.7-4.62-2.88-2.85-4.27-5.53-5.3-4.58-1.03.95-.41,2.37,2.62,5.09,3.03,2.71,4.09,3.11,8.38,4.12Zm-1.54,9.76c-1.65-2.54-2.86-3.19-3.93-4.83-1.88-2.87-2.53-5.33-3.59-4.72-1.07.61-.83,1.9,1.21,4.68,2.04,2.78,2.86,3.29,6.31,4.87h0Z"/>
      <g>
        <path class="cls-5" d="m225.35,107.12c-2.97,5.74,5.2-1.91,18,7.7,2.37,1.79,5.77,8.84,5.77,12.11-2.73-.58-7.55-3.27-7.55-3.27,0,0,5.66,5.67,5.66,12.21-2-1.25-3-1.06-3.67-2.6,0,2.12,1.78,3.47,1.78,6.74-1.22-.98-2.52-1.85-3.89-2.6,1.89,3.27-3.44,9.61-.77,11.73-4.66-.67-9.43-3.65-11.32-6.92-1,.67-1.11,1.73-1.15,2.86.15.12-7.1-5.38-6.43-7.49-.97,1.36-1.11,2.11-1.33,3.65-2.66-2.62-5.1-5.25-5.99-8.64-1.18,1.54-1.26,1.54-2.44,3.07-.89-5.38-.89-5.19.89-9.8-1.26.83-2.29,1.67-3.55,2.69,1.19-7.79,7.26-16.92,15.99-21.45h0Z"/>
        <path class="cls-2" d="m241.77,149.62l-1.14-.16c-4.58-.66-9.28-3.48-11.36-6.77-.6.56-.71,1.36-.75,2.26l.09.08-.29.46-.25-.11s-.03-.02-.07-.05h0s-.05-.04-.05-.04c-.83-.62-5.59-4.35-6.41-6.76-.5.88-.62,1.55-.8,2.77l-.09.61-.44-.43c-2.53-2.49-4.88-5-5.9-8.19-.37.47-.61.77-.85,1.06-.31.38-.63.76-1.21,1.53l-.43.57-.15-.9c-.8-4.83-.83-5.15.58-8.83-.89.63-1.71,1.3-2.71,2.11l-.62.51.12-.8c1.3-8.48,7.9-17.35,16.07-21.63l.24-.46.41.82-.19.1c-.45.89-.62,1.44-.49,1.65.16.26,1.06.24,2.11.22,3.14-.07,8.97-.18,16.34,5.35,2.48,1.87,5.9,9.03,5.9,12.36v.38l-.37-.08c-1.81-.38-4.46-1.65-6.12-2.5,1.68,2.06,4.61,6.34,4.61,11.14v.56l-.47-.3c-.67-.42-1.22-.67-1.7-.89-.5-.23-.92-.42-1.28-.72.13.4.31.8.5,1.23.5,1.11,1.06,2.37,1.06,4.25v.65l-.5-.4c-.97-.78-2.01-1.5-3.09-2.13.39,1.59-.28,3.57-.92,5.49-.76,2.23-1.47,4.34-.27,5.3l.9.71Zm-12.31-7.84l.17.29c1.74,3.02,6.05,5.77,10.28,6.63-.7-1.3-.04-3.25.65-5.29.73-2.15,1.48-4.37.63-5.84l-.55-.96.97.53c1.19.65,2.33,1.39,3.41,2.21-.11-1.4-.57-2.42-.98-3.34-.4-.89-.77-1.73-.77-2.74l.59-.12c.39.9.88,1.12,1.78,1.53.36.16.79.36,1.28.64-.3-6.1-5.51-11.39-5.56-11.44l.37-.49s4.38,2.43,7.08,3.14c-.25-3.29-3.4-9.79-5.63-11.47-7.19-5.4-12.89-5.29-15.95-5.23-1.43.03-2.3.05-2.65-.52-.2-.33-.18-.77.11-1.49-7.41,4.18-13.37,12.18-14.87,19.96,1.02-.82,1.9-1.5,2.93-2.19l.81-.54-.48,1.23c-1.54,4-1.59,4.14-.86,8.61.33-.42.56-.7.79-.98.31-.38.63-.77,1.21-1.53l.39-.5.16.61c.82,3.15,3.03,5.63,5.47,8.07.19-1.19.43-1.96,1.29-3.18l.55.27c-.45,1.44,4,5.35,5.86,6.8.08-.99.32-1.9,1.25-2.52l.28-.19Z"/>
      </g>
      <path class="cls-4" d="m218.03,135.18c.48-3.96,1.51-5.45,1.82-7.99.55-4.48-.1-7.76,1.49-7.67,1.59.08,2.04,1.74,1.26,6.21-.78,4.47-1.45,5.56-4.56,9.46h0Zm8.29,7.24c-.32-3.34.29-4.76.09-6.91-.35-3.78-1.52-6.35-.14-6.58,1.38-.24,2.08,1.03,2.23,4.85.15,3.82-.22,4.84-2.19,8.64h0Zm12.94,5.91c-1.41-2.89-2.62-3.75-3.52-5.61-1.6-3.27-1.94-5.93-3.18-5.45-1.24.48-1.17,1.86.62,5.06,1.79,3.2,2.6,3.85,6.08,6Zm4.48-25.87c-3.58-1.89-5.42-1.91-7.73-3.12-4.07-2.12-6.43-4.53-7.27-3.2-.84,1.32.28,2.64,4.47,4.57s5.48,2.02,10.53,1.76h0Zm1.31,10.81c-2.61-2.17-4.15-2.49-5.84-3.89-2.96-2.45-4.44-4.86-5.43-3.88-.99.98-.33,2.26,2.78,4.57,3.11,2.31,4.18,2.6,8.48,3.19h0Z"/>
    </g>
  </g>
</svg>