<?xml version="1.0" encoding="UTF-8"?>
<svg id="Layer_2" data-name="Layer 2" xmlns="http://www.w3.org/2000/svg" viewBox="0 0 520 320">
  <defs>
    <style>
      .cls-1 {
        fill: #a3ab78;
      }

      .cls-1, .cls-2, .cls-3, .cls-4, .cls-5 {
        stroke-width: 0px;
      }

      .cls-2 {
        fill: #298c08;
      }

      .cls-3 {
        fill: #006bc6;
      }

      .cls-4 {
        fill: #ef2118;
      }

      .cls-5 {
        fill: #ffc621;
      }
    </style>
  </defs>
  <g id="_500x300_Background" data-name="500x300 Background">
    <rect class="cls-1" width="520" height="320" rx="10" ry="10"/>
  </g>
  <g id="Ethiopia">
    <g>
      <path class="cls-5" d="m322.5,164.85c0,18.12-7.72,34.42-20.03,45.84h207.53v-95.23h-211.72c14.73,11.43,24.22,29.3,24.22,49.39Z"/>
      <path class="cls-5" d="m197.5,164.85c0-20.09,9.49-37.95,24.22-49.39H10v95.23h207.53c-12.31-11.42-20.03-27.72-20.03-45.84Z"/>
      <path class="cls-4" d="m302.47,210.69c-11.15,10.34-26.07,16.66-42.47,16.66s-31.32-6.33-42.47-16.66H10v99.31h500v-99.31h-207.53Z"/>
      <path class="cls-2" d="m260,102.35c14.43,0,27.7,4.9,38.28,13.11h211.72V10H10v105.46h211.72c10.58-8.21,23.85-13.11,38.28-13.11Z"/>
      <path class="cls-3" d="m322.5,164.85c0-20.09-9.49-37.95-24.22-49.39-10.58-8.21-23.85-13.11-38.28-13.11s-27.7,4.9-38.28,13.11c-14.73,11.43-24.22,29.3-24.22,49.39,0,18.12,7.72,34.42,20.03,45.84,11.15,10.34,26.07,16.66,42.47,16.66s31.32-6.33,42.47-16.66c12.31-11.42,20.03-27.72,20.03-45.84Zm-15.36,19.89l-21.7-8.08,1.57-4.04,21.6,7.77-1.47,4.35Zm-62.64,4.5l24.87-18.97,2.18,6.52-6.02,4.64,22.19,16.24,2.83,9.85-30.23-22.26-17.78,13.32,1.95-9.33Zm-5.83,12.9l-8.14,5.85,11.01-36.75-17.69-13.44,9.14-.96,25.07,18.69-5.29,4.17-6.11-4.51-7.99,26.95Zm70.18-53.58l-29.94,22.67,6.48,21.76-7.89-4.9-9.37-30.54,6.64-.07,2.32,7.41,21.88-16.68,9.88.35Zm-15.95-24.02l-14.05,18.97-3.21-2.79,13.74-18.97,3.52,2.79Zm-32.62-12.8l11.58,36.57,21.92.27-6.91,6.29-30.85-.09,1.97-6.59,7.49-.02-8.56-26.76,3.36-9.67Zm-13.95,28.21l-3.53,2.34-13.25-19.35,3.62-2.65,13.16,19.66Zm2.28,8.37l6.87-21.62,3.69,8.74-9.42,30.53-5.45-3.94,2.25-7.43-27.14.39-7.85-6.24,37.04-.42Zm-36.16,33.98l-1.31-4.41,22.04-6.96,1.06,4.21-21.79,7.15Zm48.98,35.14l-4.43-.07.45-23.94,4.18.26-.2,23.75Z"/>
      <polygon class="cls-5" points="274.77 157.47 268.13 157.54 277.51 188.08 285.39 192.98 278.92 171.23 308.85 148.56 298.97 148.2 277.09 164.88 274.77 157.47"/>
      <polygon class="cls-5" points="242.79 142.28 246.33 139.94 233.17 120.28 229.55 122.93 242.79 142.28"/>
      <polygon class="cls-5" points="278.85 143.5 292.9 124.53 289.38 121.74 275.64 140.71 278.85 143.5"/>
      <polygon class="cls-5" points="265.48 148.16 257.99 148.18 256.02 154.76 286.87 154.86 293.78 148.56 271.86 148.29 260.28 111.73 256.92 121.4 265.48 148.16"/>
      <polygon class="cls-5" points="246.55 154.58 244.31 162.01 249.75 165.95 259.17 135.42 255.48 126.68 248.61 148.3 211.56 148.72 219.42 154.97 246.55 154.58"/>
      <polygon class="cls-5" points="257.45 193.42 257 217.36 261.43 217.43 261.63 193.68 257.45 193.42"/>
      <polygon class="cls-5" points="233.19 170.92 211.15 177.88 212.45 182.29 234.24 175.14 233.19 170.92"/>
      <polygon class="cls-5" points="252.77 179.69 258.07 175.52 232.99 156.84 223.86 157.79 241.54 171.24 230.54 207.99 238.68 202.14 246.66 175.19 252.77 179.69"/>
      <polygon class="cls-5" points="290.56 207.52 287.74 197.67 265.54 181.43 271.56 176.79 269.38 170.27 244.51 189.24 242.55 198.57 260.33 185.26 290.56 207.52"/>
      <polygon class="cls-5" points="285.44 176.66 307.14 184.74 308.61 180.4 287.01 172.63 285.44 176.66"/>
    </g>
  </g>
</svg>