<?xml version="1.0" encoding="UTF-8"?>
<svg id="Layer_2" data-name="Layer 2" xmlns="http://www.w3.org/2000/svg" viewBox="0 0 520 320">
  <defs>
    <style>
      .cls-1 {
        fill: #a3ab78;
      }

      .cls-1, .cls-2, .cls-3 {
        stroke-width: 0px;
      }

      .cls-2 {
        fill: red;
      }

      .cls-3 {
        fill: #fff;
      }
    </style>
  </defs>
  <g id="_500x300_Background" data-name="500x300 Background">
    <rect class="cls-1" width="520" height="320" rx="10" ry="10"/>
  </g>
  <g id="Georgia">
    <g>
      <rect class="cls-3" x="290.09" y="190" width="219.91" height="120"/>
      <rect class="cls-3" x="290.09" y="10" width="219.91" height="120"/>
      <g>
        <polygon class="cls-3" points="34.3 130 229.91 130 229.91 10 10 10 10 130 34.29 130 34.3 130"/>
        <polygon class="cls-3" points="34.3 190 34.29 190 10 190 10 310 229.91 310 229.91 190 34.3 190"/>
        <polygon class="cls-2" points="290.09 130 290.09 10 229.91 10 229.91 130 10 130 10 190 229.91 190 229.91 310 290.09 310 290.09 190 510 190 510 130 290.09 130"/>
      </g>
      <path class="cls-2" d="m410.52,97.82c-6.67-.82-13.32-.86-20-.11,1.23-6.73,2-13.48,2.34-20.31-7.55.37-15.02,1.27-22.46,2.73.96-6.88,1.07-13.74.34-20.64,7.31,1.41,14.67,2.3,22.12,2.66-.38-7.76-1.33-15.44-2.87-23.08,7.04.83,14.04.79,21.07-.12-.78,3.84-1.41,7.69-1.89,11.55-.48,3.86-.81,7.73-1.01,11.64,7.13-.35,14.18-1.17,21.2-2.48-.7,6.77-.6,13.52.34,20.28-7.12-1.35-14.28-2.19-21.53-2.55.33,6.87,1.12,13.66,2.36,20.43Z"/>
      <path class="cls-2" d="m130.43,97.82c-6.67-.82-13.32-.86-20-.11,1.23-6.73,2-13.48,2.34-20.31-7.55.37-15.02,1.27-22.46,2.73.96-6.88,1.07-13.74.34-20.64,7.31,1.41,14.67,2.3,22.12,2.66-.38-7.76-1.33-15.44-2.87-23.08,7.04.83,14.04.79,21.07-.12-.78,3.84-1.41,7.69-1.89,11.55s-.81,7.73-1.01,11.64c7.13-.35,14.18-1.17,21.2-2.48-.7,6.77-.6,13.52.34,20.28-7.12-1.35-14.28-2.19-21.53-2.55.33,6.87,1.12,13.66,2.36,20.43Z"/>
      <path class="cls-2" d="m130.43,279.22c-6.67-.82-13.32-.86-20-.11,1.23-6.73,2-13.48,2.34-20.31-7.55.37-15.02,1.27-22.46,2.73.96-6.88,1.07-13.74.34-20.64,7.31,1.41,14.67,2.3,22.12,2.66-.38-7.76-1.33-15.44-2.87-23.08,7.04.83,14.04.79,21.07-.12-.78,3.84-1.41,7.69-1.89,11.55-.48,3.86-.81,7.73-1.01,11.64,7.13-.35,14.18-1.17,21.2-2.48-.7,6.77-.6,13.52.34,20.28-7.12-1.35-14.28-2.19-21.53-2.55.34,6.86,1.12,13.66,2.36,20.43Z"/>
      <path class="cls-2" d="m410.52,279.37c-6.67-.82-13.32-.86-20-.11,1.23-6.73,2-13.48,2.34-20.31-7.55.37-15.02,1.27-22.46,2.73.96-6.88,1.07-13.74.34-20.64,7.31,1.41,14.67,2.3,22.12,2.66-.38-7.76-1.33-15.44-2.87-23.08,7.04.83,14.04.79,21.07-.12-.78,3.84-1.41,7.69-1.89,11.55-.48,3.86-.81,7.73-1.01,11.64,7.13-.35,14.18-1.17,21.2-2.48-.7,6.77-.6,13.52.34,20.28-7.12-1.35-14.28-2.19-21.53-2.55.33,6.86,1.12,13.66,2.36,20.43Z"/>
    </g>
  </g>
</svg>