<?xml version="1.0" encoding="UTF-8"?>
<svg id="Layer_2" data-name="Layer 2" xmlns="http://www.w3.org/2000/svg" viewBox="0 0 520 320">
  <defs>
    <style>
      .cls-1 {
        fill: #007a5e;
      }

      .cls-1, .cls-2, .cls-3, .cls-4, .cls-5 {
        stroke-width: 0px;
      }

      .cls-2 {
        fill: #a3ab78;
      }

      .cls-3 {
        fill: none;
      }

      .cls-4 {
        fill: #ce1126;
      }

      .cls-5 {
        fill: #fcd116;
      }
    </style>
  </defs>
  <g id="_500x300_Background" data-name="500x300 Background">
    <rect class="cls-2" width="520" height="320" rx="10" ry="10"/>
  </g>
  <g id="Grenada">
    <g>
      <path class="cls-3" d="m228.09,176.63h.14c-.04-.08-.09-.16-.14-.24v.24Z"/>
      <polygon class="cls-3" points="228.72 150.05 228.69 150.05 247.99 163.82 247.99 163.8 228.72 150.05"/>
      <polygon class="cls-3" points="254.05 176.63 260 172.39 254.02 176.63 254.05 176.63"/>
      <path class="cls-3" d="m291.99,176.63v-.37c-.07.13-.15.25-.21.37h.21Z"/>
      <polygon class="cls-3" points="276.28 176.63 272.01 163.8 276.24 176.63 276.28 176.63"/>
      <path class="cls-3" d="m291.99,143.45h-.17c.05.1.12.19.17.29v-.29Z"/>
      <path class="cls-3" d="m228.18,143.45h-.17v.29c.05-.1.12-.19.17-.29Z"/>
      <path class="cls-4" d="m10,10v300h500V10H10Zm345.59,15.05l4.41-13.15,4.41,13.15h14.13l-11.47,8.21,4.41,13.22-11.47-8.21-11.47,8.21,4.41-13.22-11.47-8.21h14.13Zm-100,0l4.41-13.15,4.41,13.15h14.13l-11.47,8.21,4.41,13.22-11.47-8.21-11.47,8.21,4.41-13.22-11.47-8.21h14.13Zm-100,0l4.41-13.15,4.41,13.15h14.13l-11.47,8.21,4.41,13.22-11.47-8.21-11.47,8.21,4.41-13.22-11.47-8.21h14.13Zm15.88,279.4l-11.47-8.13-11.47,8.13,4.41-13.15-11.47-8.21h14.13l4.41-13.22,4.41,13.22h14.13l-11.47,8.21,4.41,13.15Zm100,0l-11.47-8.13-11.47,8.13,4.41-13.15-11.47-8.21h14.13l4.41-13.22,4.41,13.22h14.13l-11.47,8.21,4.41,13.15Zm100,0l-11.47-8.13-11.47,8.13,4.41-13.15-11.47-8.21h14.13l4.41-13.22,4.41,13.22h14.13l-11.47,8.21,4.41,13.15Zm96.58-36.4H52.02V52.03h416.03v216.02Z"/>
      <path class="cls-1" d="m291.99,143.74c2.58,4.86,4.03,10.41,4.03,16.26s-1.44,11.4-4.03,16.26v.37l176.06,91.42V52.03l-176.06,91.42v.29Z"/>
      <path class="cls-1" d="m228.09,176.63v-.24s-.05-.09-.08-.13c-2.58-4.86-4.03-10.41-4.03-16.26s1.44-11.4,4.03-16.26c0,0,0,0,0,0v-.29S52.02,52.03,52.02,52.03v216.02l175.99-91.42h.08Zm-122.26,1.39c-1.9-3.72-5.24-7.98-9.27-11.63,1.29,5.02,2.13,10.03,2.05,14.36-4.03-1.67-8.36-4.94-12.23-8.89,1.22,4.86,3.27,9.5,5.85,12.99-39.06-7.45-15.65-39.29-22.19-52.66,9.57,11.63,46.05,9.42,35.79,45.82Z"/>
      <path class="cls-1" d="m85.46,159.17c-.53,3.95-.15,8.43.91,12.69-.99-4.26-1.37-8.74-.91-12.69Z"/>
      <path class="cls-5" d="m291.78,176.63c-6.07,11.04-18.03,18.63-31.78,18.63s-25.71-7.51-31.78-18.63h-.21l-175.99,91.42h416.03l-176.06-91.42h-.21Z"/>
      <path class="cls-5" d="m228.01,143.45h.17c6.06-11.08,18.04-18.7,31.82-18.7s25.77,7.55,31.82,18.7h.17l176.06-91.42H52.02l175.99,91.42Z"/>
      <path class="cls-4" d="m228.01,143.74c-2.58,4.86-4.03,10.41-4.03,16.26s1.44,11.4,4.03,16.26c.02.04.05.09.08.13.04.08.09.16.14.24,6.07,11.12,18.03,18.63,31.78,18.63s25.71-7.58,31.78-18.63c.07-.13.15-.24.21-.37,2.58-4.86,4.03-10.41,4.03-16.26s-1.44-11.4-4.03-16.26c-.05-.1-.11-.19-.17-.29-6.06-11.16-18.04-18.7-31.82-18.7s-25.76,7.62-31.82,18.7c-.05.1-.12.19-.17.29,0,0,0,0,0,0Zm31.99-16.11l7.37,22.34h24.01l-19.38,13.83,4.28,12.83,3.17,9.51-.1-.07.02.07-19.38-13.75-5.95,4.25-13.43,9.58.03-.1-.03.02,7.37-22.32-19.3-13.77h.03l-.11-.08h24.01l7.37-22.34Z"/>
      <polygon class="cls-5" points="228.62 149.97 228.72 150.05 247.99 163.8 247.99 163.82 240.62 186.14 240.66 186.12 240.62 186.22 254.05 176.63 254.02 176.63 260 172.39 279.38 186.14 279.35 186.07 279.45 186.14 276.28 176.63 276.24 176.63 272.01 163.8 291.38 149.97 291.31 149.97 267.37 149.97 260 127.63 252.63 149.97 228.62 149.97"/>
      <polygon class="cls-5" points="148.53 46.48 160 38.27 171.47 46.48 167.07 33.26 178.54 25.05 164.41 25.05 160 11.9 155.59 25.05 141.46 25.05 152.93 33.26 148.53 46.48"/>
      <polygon class="cls-5" points="248.53 46.48 260 38.27 271.47 46.48 267.07 33.26 278.54 25.05 264.41 25.05 260 11.9 255.59 25.05 241.46 25.05 252.93 33.26 248.53 46.48"/>
      <polygon class="cls-5" points="348.53 46.48 360 38.27 371.47 46.48 367.07 33.26 378.54 25.05 364.41 25.05 360 11.9 355.59 25.05 341.46 25.05 352.93 33.26 348.53 46.48"/>
      <polygon class="cls-5" points="164.41 283.1 160 269.88 155.59 283.1 141.46 283.1 152.93 291.31 148.53 304.45 160 296.32 171.47 304.45 167.07 291.31 178.54 283.1 164.41 283.1"/>
      <polygon class="cls-5" points="264.41 283.1 260 269.88 255.59 283.1 241.46 283.1 252.93 291.31 248.53 304.45 260 296.32 271.47 304.45 267.07 291.31 278.54 283.1 264.41 283.1"/>
      <polygon class="cls-5" points="364.41 283.1 360 269.88 355.59 283.1 341.46 283.1 352.93 291.31 348.53 304.45 360 296.32 371.47 304.45 367.07 291.31 378.54 283.1 364.41 283.1"/>
      <path class="cls-4" d="m86.37,171.86c3.88,3.95,8.21,7.22,12.23,8.89.08-4.33-.76-9.35-2.05-14.36-3.42-3.12-7.29-5.78-11.09-7.22-.46,3.95-.08,8.43.91,12.69Z"/>
      <path class="cls-5" d="m70.03,132.2c6.53,13.37-16.87,45.21,22.19,52.66-2.58-3.5-4.64-8.13-5.85-12.99-1.06-4.26-1.44-8.74-.91-12.69,3.8,1.44,7.67,4.1,11.09,7.22,4.03,3.65,7.37,7.9,9.27,11.63,10.26-36.4-26.22-34.19-35.79-45.82Z"/>
    </g>
  </g>
</svg>