<?xml version="1.0" encoding="UTF-8"?>
<svg id="Layer_2" data-name="Layer 2" xmlns="http://www.w3.org/2000/svg" xmlns:xlink="http://www.w3.org/1999/xlink" viewBox="0 0 520 320">
  <defs>
    <style>
      .cls-1 {
        fill: #a3ab78;
      }

      .cls-1, .cls-2, .cls-3, .cls-4, .cls-5, .cls-6, .cls-7, .cls-8, .cls-9, .cls-10, .cls-11, .cls-12 {
        stroke-width: 0px;
      }

      .cls-13, .cls-14, .cls-15, .cls-16, .cls-17, .cls-18, .cls-19 {
        stroke-width: .22px;
      }

      .cls-13, .cls-20 {
        fill: #ba1f3e;
        stroke: #511124;
      }

      .cls-14, .cls-21 {
        stroke: #6c301e;
      }

      .cls-14, .cls-21, .cls-11 {
        fill: #fab81c;
      }

      .cls-22 {
        stroke-width: .44px;
      }

      .cls-22, .cls-23, .cls-24 {
        stroke: #24420e;
      }

      .cls-22, .cls-25 {
        fill: none;
      }

      .cls-26 {
        fill: url(#radial-gradient-4);
      }

      .cls-26, .cls-27, .cls-28, .cls-29, .cls-30, .cls-31, .cls-32, .cls-33, .cls-34, .cls-23, .cls-35, .cls-24, .cls-25 {
        stroke-width: .16px;
      }

      .cls-26, .cls-27, .cls-28, .cls-29, .cls-30, .cls-31, .cls-32, .cls-33, .cls-34, .cls-35 {
        stroke: #999270;
      }

      .cls-20 {
        stroke-width: .19px;
      }

      .cls-2, .cls-15 {
        fill: #448127;
      }

      .cls-27 {
        fill: url(#linear-gradient-2);
      }

      .cls-3 {
        fill: #a08307;
      }

      .cls-28 {
        fill: #f9f0aa;
      }

      .cls-29 {
        fill: url(#radial-gradient-5);
      }

      .cls-30 {
        fill: url(#linear-gradient-4);
      }

      .cls-4 {
        fill: #485654;
      }

      .cls-15 {
        stroke: #34541f;
      }

      .cls-16 {
        fill: url(#radial-gradient-6);
        stroke: #4c0505;
      }

      .cls-5 {
        fill: #34541f;
      }

      .cls-6, .cls-36 {
        fill: #8c959d;
      }

      .cls-17 {
        stroke: #351710;
        stroke-linejoin: round;
      }

      .cls-17, .cls-12 {
        fill: #6c301e;
      }

      .cls-7 {
        fill: #4997d0;
      }

      .cls-8 {
        fill: #fff;
      }

      .cls-31 {
        fill: url(#radial-gradient-3);
      }

      .cls-36, .cls-21 {
        stroke-width: .11px;
      }

      .cls-36, .cls-18, .cls-25 {
        stroke: #485654;
      }

      .cls-37 {
        stroke: #000;
        stroke-width: .1px;
      }

      .cls-32 {
        fill: url(#linear-gradient);
      }

      .cls-9 {
        fill: #b07e09;
      }

      .cls-10 {
        fill: url(#radial-gradient-7);
      }

      .cls-33 {
        fill: url(#radial-gradient-2);
      }

      .cls-18 {
        fill: #b2b6ba;
      }

      .cls-19 {
        fill: #eac102;
        stroke: #a08307;
      }

      .cls-34 {
        fill: url(#radial-gradient);
      }

      .cls-23 {
        fill: #406325;
      }

      .cls-35 {
        fill: url(#linear-gradient-3);
      }

      .cls-24 {
        fill: #67923d;
      }
    </style>
    <radialGradient id="radial-gradient" cx="246.26" cy="152.87" fx="246.26" fy="152.87" r="8.61" gradientTransform="translate(-6.95 322.37) scale(1.01 -1.03)" gradientUnits="userSpaceOnUse">
      <stop offset=".22" stop-color="#f9f0aa"/>
      <stop offset="1" stop-color="#b07e09"/>
    </radialGradient>
    <radialGradient id="radial-gradient-2" cx="248.41" cy="150.41" fx="248.41" fy="150.41" r="5.68" xlink:href="#radial-gradient"/>
    <radialGradient id="radial-gradient-3" cx="249.74" cy="152.68" fx="249.74" fy="152.68" r="5.09" xlink:href="#radial-gradient"/>
    <radialGradient id="radial-gradient-4" cx="251.97" cy="153.5" fx="251.97" fy="153.5" r="9.04" xlink:href="#radial-gradient"/>
    <linearGradient id="linear-gradient" x1="260.05" y1="178.44" x2="259.24" y2="192.61" gradientTransform="translate(-6.95 322.37) scale(1.01 -1.03)" gradientUnits="userSpaceOnUse">
      <stop offset=".22" stop-color="#b07e09" stop-opacity="0"/>
      <stop offset="1" stop-color="#b07e09"/>
    </linearGradient>
    <linearGradient id="linear-gradient-2" x1="264.85" y1="158.92" x2="266.09" y2="143.33" xlink:href="#linear-gradient"/>
    <radialGradient id="radial-gradient-5" cx="245.5" cy="181.99" fx="245.5" fy="181.99" r="6.78" xlink:href="#radial-gradient"/>
    <linearGradient id="linear-gradient-3" x1="248.4" y1="183.47" x2="250.39" y2="188.13" gradientTransform="translate(-6.95 322.37) scale(1.01 -1.03)" gradientUnits="userSpaceOnUse">
      <stop offset=".22" stop-color="#f9f0aa"/>
      <stop offset="1" stop-color="#b07e09"/>
    </linearGradient>
    <linearGradient id="linear-gradient-4" x1="259.74" y1="189.86" x2="261.11" y2="172.57" xlink:href="#linear-gradient-3"/>
    <radialGradient id="radial-gradient-6" cx="262.11" cy="201.31" fx="262.11" fy="201.31" r=".18" gradientTransform="translate(-6.95 322.37) scale(1.01 -1.03)" gradientUnits="userSpaceOnUse">
      <stop offset=".26" stop-color="#a50a0a"/>
      <stop offset="1" stop-color="#4c0505"/>
    </radialGradient>
    <radialGradient id="radial-gradient-7" cx="268" cy="203.83" fx="268" fy="203.83" r=".18" gradientTransform="translate(-6.7 329.91) scale(.99 -1.06)" gradientUnits="userSpaceOnUse">
      <stop offset="0" stop-color="#fff"/>
      <stop offset="1" stop-color="#fff" stop-opacity="0"/>
    </radialGradient>
  </defs>
  <g id="_500x300_Background" data-name="500x300 Background">
    <rect class="cls-1" width="520" height="320" rx="10" ry="10"/>
  </g>
  <g id="Guatemala">
    <g>
      <path class="cls-7" d="m10,10h500v300H10V10Z"/>
      <path class="cls-8" d="m176.67,10h166.67v300h-166.67V10Z"/>
      <g>
        <g>
          <path class="cls-22" d="m245.27,201.69c1.41-.22,2.22-.61,3.19-.96m1.17-2.18c.71.77,1.28,1.59,1.58,2.49m-4.29-2.73c.74.71,1.26,1.46,1.66,2.23m-26.19-73.48c-.55.86-1.63,1.47-2.52,1.84m-.18-.11c.02-.74-.12-1.63.03-2.36m-1.05,2.7l.36,1.09m1.07.5l-1.07.18m-2.09-.47c0,1.36.15,2.99.28,4.21m-.95-.52c.25.41.5.81.82,1.01m-2.42,3.48c.26.51.5,1.14.69,2.13m1.96-2.49c-.22.11-.64.5-1.02.83m.84,2.36c-.52.47-1.16.81-1.81,1.14m-2.01,21.74c.61,1.02,1.28,1.92,2.09,2.52m.31.91c-.68-.09-1.14-.29-1.56-.52m2.32,4.52l.89.52m-.23,1.87c.66.44,1.33,1.23,1.99,2.08m-.76,1.53c.73.16,1.32.34,1.71.57m-.56,1.3l1.12.04m.64-2.9l-.26,2.29m.54.86l.23-.88m2.48,3.22l-.08,1.74m20.71,15.01l-.61.86m-1.27-2.11l-.36-.99"/>
          <path class="cls-23" d="m263.23,205.7c-.42-.68-1.11-1.09-1.73-1.43-4.08-2.18-8.14-3.14-12.74-3.9-1.06-.18-2.13-1.2-3.22-1.71-2.62-1.27-5.54-1.77-8.09-3.07-.17-.08-.82-.47-1.11-.83-1.01-1.2-2.84-1.56-3.98-2.68-4.4-4.23-9.08-8.13-11.5-13.74-2.94-6.83-6.6-13.87-6.11-21.64.32-4.91-.4-9.87.79-14.55,1.76-6.94,4.01-13.8,8.14-19.54l-.69.44c-4.16,5.74-6.41,12.6-8.16,19.54-1.19,4.68-.47,9.64-.79,14.55-.49,7.77,3.17,14.81,6.11,21.67,2.42,5.59,7.12,9.48,11.5,13.74,1.14,1.09,2.97,1.45,3.98,2.68.3.34.96.75,1.11.83,2.55,1.3,5.47,1.79,8.09,3.04,1.09.55,2.15,1.53,3.22,1.72,4.6.75,8.66,1.74,12.74,3.9.64.34,1.31.75,1.73,1.43l.72-.44"/>
          <g>
            <path class="cls-24" d="m221.09,177.02c-1.48-3.39-.72-11.63-.1-12.66,3.5,7,2.34,12.77.1,12.66Zm24.22,24.42c-3.75.2-10.89,5-11.55,6.13,7.97.06,12.69-3.94,11.55-6.13Zm3.94-2.31c-3.62-2.93-7.49-12.73-7.41-14.26,7.98,5.83,10,13.06,7.41,14.26Z"/>
            <path class="cls-24" d="m246.59,199.16c-3.67-2.28-8.34-10.82-8.42-12.24,8.03,4.41,10.67,10.83,8.42,12.24Zm-8.22-3.65c.52-4.21-2.99-13.04-4.01-13.98-1.56,8.86,1.58,14.83,4.01,13.98Zm-14.43-13.06c-1.22-3.04-.32-10.4.25-11.3,2.92,6.29,1.72,11.42-.25,11.3Zm-7.24-41.34c1.9-3.58,9.71-8.45,11.09-8.57-3.58,7.84-9.53,10.67-11.09,8.57Z"/>
            <path class="cls-24" d="m217.08,138.12c1.14-3.92,7.86-10.37,9.17-10.78-1.97,8.43-7.22,12.47-9.17,10.78Zm14.69,53.34c-2.64-3.32-4.23-12.84-3.85-14.18,5.95,6.73,6.35,13.58,3.85,14.18Zm-15.13-19.62c-3.65.59-11.28-2.49-12.11-3.41,7.68-1.69,12.83,1.11,12.11,3.41Zm-1.17-5.21c.43-3,4.58-8.51,5.47-8.96-.59,6.43-3.93,10.01-5.47,8.96Zm27.11,31.5c-4.48.23-13.01,5.98-13.8,7.33,9.52.08,15.16-4.7,13.8-7.33Z"/>
          </g>
          <g>
            <path class="cls-23" d="m221.13,176.94c2.23.11,3.38-5.59-.14-12.58.64,6.63.64,12,.14,12.58Zm5.91,10.76c-2.36-2.94-10.24-6.09-11.47-5.99,4.69,6.5,10.5,8.12,11.47,5.99Zm-12.9-28.5c-.61-4.33-6.51-12.22-7.79-12.9.8,9.24,5.57,14.36,7.79,12.9Zm4.43,18.45c-2.64-1.98-10.02-2.88-11.06-2.54,5.35,4.47,10.68,4.55,11.06,2.54Zm-4.94-13.36c-1.52-3.06-7.82-7.25-8.92-7.37,2.91,6.66,7.69,9.11,8.92,7.37Zm1.44-25.58c.48-4.07-2.92-12.61-3.88-13.54-1.51,8.57,1.54,14.35,3.88,13.54Zm2.36-8.03c1.4-3.49.4-12.07-.28-13.14-3.38,7.27-2.02,13.26.28,13.14h0Zm2.65-4.12c1.66-2.57,2.2-9.51,1.84-10.48-3.82,5.23-3.68,10.19-1.84,10.48Zm3.14-3.3c2.33-1.87,4.87-8.34,4.8-9.38-5.14,3.74-6.46,8.52-4.8,9.38h0Zm-8.48,23.24c.06.47-.52-4.4-5.31-9.85.22,7.97,3.3,10.99,5.31,9.85Zm17.2,46.15c-3.26-2.45-12.35-3.62-13.61-3.19,6.64,5.57,13.14,5.68,13.61,3.19Zm6.38,2.82c-2.4.86-5.52-5.07-3.98-13.93,1.48,7.51,3.26,13.48,3.98,13.93Zm7.03,6c1.12,2.2-3.54,6.15-11.51,6.09,6.31-2.63,11.22-5.31,11.51-6.09Zm3.9-2.4c2.57-1.21.58-8.36-7.4-14.19,4.54,7.11,7.64,13.24,7.4,14.19Zm-2.68.04c2.26-1.43-.36-7.77-8.39-12.18,4.97,6.02,8.5,11.28,8.39,12.18Zm-22.6-16.67c1.97.12,3.15-4.98.25-11.26.38,5.9.22,10.75-.25,11.26Zm-7.27-41.29c1.56,2.1,7.42-.7,11.01-8.57-5.37,5.02-10.15,8.64-11.01,8.57Zm.44-3.02c1.94,1.69,7.15-2.31,9.12-10.75-4.28,6.05-8.26,10.62-9.12,10.75Zm14.64,53.31c2.5-.61,2.09-7.42-3.83-14.13,2.65,7.22,4.23,13.32,3.83,14.13Zm-15.25-19.62c.74-2.28-4.38-5.04-12.04-3.37,6.48,1.18,11.64,2.71,12.04,3.37Zm-1.02-5.17c1.53,1.02,4.85-2.51,5.43-8.94-2.47,4.94-4.84,8.75-5.43,8.94Zm27.04,31.57c1.36,2.62-4.2,7.35-13.75,7.28,7.54-3.14,13.41-6.34,13.75-7.28Z"/>
            <path class="cls-23" d="m217.41,174.15c-1.4-3.37-7.82-8.32-8.97-8.52,2.61,7.34,7.53,10.3,8.97,8.52Z"/>
          </g>
          <g>
            <path class="cls-24" d="m213.74,145.97c2.15-2.51,9.23-4.91,10.35-4.77-4.25,5.6-9.48,6.73-10.35,4.77Zm13.24,41.75c-.95,2.11-6.71.49-11.43-6,5.75,3.67,10.69,6.19,11.43,6Zm-12.88-28.54c-2.22,1.47-6.93-3.63-7.76-12.85,3.5,7.1,6.89,12.58,7.76,12.85Zm4.45,18.48c-.41,2.01-5.65,1.93-11.02-2.54,5.67,1.83,10.43,2.87,11.02,2.54Zm-4.99-13.42c-1.23,1.74-5.96-.68-8.88-7.35,4.33,4.29,8.18,7.39,8.88,7.35Zm1.46-25.58c-2.34.84-5.37-4.88-3.85-13.45,1.41,7.26,3.13,13.01,3.85,13.45Zm2.36-8c-2.27.12-3.63-5.82-.25-13.09-.43,6.89-.27,12.5.25,13.09Zm2.66-4.13c-1.83-.28-1.96-5.19,1.86-10.42-1.45,5.37-2.19,9.88-1.86,10.42Zm3.16-3.27c-1.66-.88-.37-5.61,4.77-9.33-2.92,4.65-4.92,8.7-4.77,9.33Z"/>
            <path class="cls-24" d="m214.71,146.5c-2.01,1.13-5.06-1.88-5.28-9.86,2.69,6.29,4.54,9.58,5.28,9.86Zm17.2,46.16c-.47,2.49-6.94,2.37-13.56-3.17,6.96,2.3,12.81,3.6,13.56,3.17Zm-4.32-5.1c-2.12-2.34-3.78-9.33-3.56-10.35,4.76,4.7,5.4,9.77,3.56,10.35Zm-8.92-13.45c-1.89-3.11-2.05-11.25-1.54-12.35,4.36,6.35,3.83,12.15,1.54,12.35Zm-1.39.05c-1.45,1.78-6.3-1.16-8.91-8.52,4.3,4.9,8.17,8.51,8.91,8.52Z"/>
          </g>
          <g>
            <path class="cls-23" d="m213.71,146.01c.85,1.95,6.05.82,10.3-4.78-6.32,3.65-8.83,5.24-10.3,4.78Zm4.93,28.01c2.29-.2,2.82-5.94-1.55-12.29,1.41,6.38,2,11.66,1.55,12.29Zm8.96,13.51c1.83-.58,1.19-5.62-3.55-10.32,2.33,5.23,3.81,9.69,3.55,10.32Z"/>
            <path class="cls-23" d="m214.7,155.58c1.09-4.51-.9-12.16-2.27-13.75-2.49,8.3-.13,14.31,2.27,13.75Z"/>
          </g>
          <g>
            <g>
              <path class="cls-24" d="m214.54,156.65c-3.11.72-4.57-6.47-2.16-14.57.57,7.29,1.5,14.07,2.16,14.57Z"/>
              <path class="cls-24" d="m213.9,156.62c-.29-4.05,3.66-12.42,4.71-13.29,1.06,8.5-2.36,14.15-4.71,13.29Z"/>
            </g>
            <path class="cls-23" d="m213.96,156.57c2.33.88,5.73-4.71,4.67-13.22-1.85,7.14-3.93,12.79-4.67,13.22Z"/>
            <path class="cls-24" d="m214.64,161.76c0-4.09,4.47-11.96,5.58-12.71.44,8.7-3.34,13.9-5.58,12.71Z"/>
            <path class="cls-23" d="m214.69,161.84c2.23,1.19,5.97-3.96,5.53-12.66-2.33,6.92-4.78,12.32-5.53,12.66Z"/>
          </g>
          <g>
            <g>
              <ellipse class="cls-20" cx="216.07" cy="133.79" rx=".57" ry=".58"/>
              <ellipse class="cls-20" cx="220.49" cy="130.45" rx=".57" ry=".58"/>
              <ellipse class="cls-20" cx="218.57" cy="128.64" rx=".57" ry=".58"/>
            </g>
            <g>
              <ellipse class="cls-13" cx="213.78" cy="167.06" rx=".67" ry=".69"/>
              <ellipse class="cls-13" cx="215.12" cy="158.46" rx=".67" ry=".69"/>
              <ellipse class="cls-13" cx="222.08" cy="178.54" rx=".67" ry=".69"/>
              <ellipse class="cls-13" cx="219.01" cy="179.6" rx=".67" ry=".69"/>
              <ellipse class="cls-13" cx="242.41" cy="196.39" rx=".67" ry=".69"/>
              <ellipse class="cls-13" cx="243.95" cy="200.2" rx=".67" ry=".69"/>
            </g>
          </g>
          <g>
            <path class="cls-22" d="m302.86,137.93c.33.33.62.43,1.21,1.02m-3.5-10.19c-.02-.74-.33-1.94-.48-2.68m1.82,1.6c.03,1.05-.12,2.05-.56,2.96m-2.2-.29c.93.85,1.85,1.66,2.78,2.09"/>
            <path class="cls-22" d="m303.95,133.11c.06,1.07-.08,2.13-.36,3.2m.17.81l.69-1.22m-.98,6.58c.74.16,1.48,1.05,1.85,1.87m.25-.7l.87-1.18m.9,16.53c-.4.7-.84,1.31-1.3,1.87m-2.09-.04c.42.78.82,1.59,1.37,2.17m1.3,3.16c-.69.95-1.46,1.7-2.34,2.17m.07,2.42c-.58.4-1.28,1.59-1.95,2.54m4.46-10.86l-1.12.47m-.74-4.03l.66.6m-4.91,20.12c-.44-.06-.77,0-1.12.04m-1.05-1.04l.32.88m-4.08,2.76c-.14,1-.04,2.01.11,3.01m2.27-4.85l.54,1.21m2.02-.11l-1.33.22m-16.3,13.6l-.48.94m6.28-2.11c-.79.1-1.47-.02-2.16-.11m-2.89,3.2c-.51-.2-1.02-.37-1.55-.51m-7.79,1.43c-.48.42-1.05,1.31-1.62,2.2m-.29-2.46c-1.29.67-1.68,2-2.34,3.12m1.48,1.54c-.82-.25-1.8-.66-2.81-1.1m8.86-.37c-1.23-.65-2.51-.58-3.77-.79m5.68-.18c-1.92-.38-3.7-.33-5.43-.07m4.11-1.4l-.74-.31m-2.92,2.96l-1.23-.7m30.61-26.47c-.66.44-1.33,1.23-1.99,2.08m.96-42.84l-1.14-.39"/>
          </g>
          <g>
            <path class="cls-23" d="m257.04,205.65c.42-.68,1.11-1.09,1.73-1.43,4.08-2.18,8.14-3.14,12.74-3.9,1.06-.18,2.13-1.2,3.22-1.71,2.62-1.27,5.54-1.77,8.09-3.07.17-.08.82-.47,1.11-.83,1.01-1.2,2.84-1.56,3.98-2.68,4.4-4.23,9.08-8.13,11.5-13.74,2.94-6.83,6.6-13.87,6.11-21.64-.32-4.91.4-9.87-.79-14.55-1.76-6.94-4.01-13.8-8.14-19.54l.69.44c4.16,5.74,6.41,12.6,8.16,19.54,1.19,4.68.47,9.64.79,14.55.49,7.77-3.17,14.81-6.11,21.67-2.42,5.59-7.12,9.48-11.5,13.74-1.14,1.09-2.97,1.45-3.98,2.68-.3.34-.96.75-1.11.83-2.55,1.3-5.47,1.79-8.09,3.04-1.09.55-2.15,1.53-3.22,1.72-4.6.75-8.66,1.74-12.74,3.9-.64.34-1.31.75-1.73,1.43l-.72-.44"/>
            <path class="cls-23" d="m298.9,178.62c1.45-3.99,0-13.36-.79-14.5-3.51,8.27-1.76,14.8.79,14.5Zm-3.76,3.79c1.22-3.04.32-10.4-.25-11.3-2.92,6.29-1.72,11.42.25,11.3Zm8.88-39.89c-1.74-3.28-8.91-7.76-10.17-7.86,3.28,7.19,8.74,9.79,10.17,7.86Zm-.84-4.31c-.95-3.26-6.55-8.64-7.64-8.98,1.64,7.03,6.02,10.39,7.64,8.98Zm2.5,8.05c-1.87-2.18-8.01-4.27-8.99-4.14,3.69,4.86,8.23,5.85,8.99,4.14Zm-1.48,24.93c3.24.52,10.01-2.21,10.75-3.03-6.81-1.5-11.39.99-10.75,3.03Zm-.08-3.03c-.02-3.03-3.38-9.07-4.2-9.65-.29,6.45,2.54,10.47,4.2,9.65Zm.22-7.36c0-4.09-4.47-11.96-5.58-12.71-.44,8.69,3.34,13.9,5.58,12.71Zm-27.94,40.5c2.36,2.96,10.38,5.99,11.67,5.87-4.65-6.58-10.6-8.1-11.67-5.87Z"/>
          </g>
          <g>
            <path class="cls-24" d="m298.86,178.53c-2.55.3-4.27-6.15-.74-14.41-.26,7.64.13,13.79.74,14.41Zm-28.19,23.49c3.75.2,10.89,5,11.55,6.13-7.97.06-12.69-3.94-11.55-6.13Z"/>
            <path class="cls-24" d="m270.66,197.75c1.11-4.29,7.93-11.41,9.25-11.92-1.9,9.22-7.26,13.74-9.25,11.92h0Zm11.24-2.28c-.52-4.21,2.99-13.04,4.01-13.98,1.56,8.86-1.58,14.84-4.01,13.98Zm11.34-7.82c2.36-2.94,10.24-6.09,11.47-5.99-4.69,6.5-10.5,8.12-11.47,5.99Zm13.62-28.66c.48-3.41,5.13-9.62,6.13-10.15-.63,7.27-4.39,11.31-6.13,10.15Zm-6.17,20.48c3.07-2.31,11.68-3.35,12.89-2.96-6.24,5.21-12.44,5.3-12.89,2.96Zm5.42-13.19c1.6-3.22,8.22-7.62,9.38-7.75-3.06,7-8.08,9.58-9.38,7.75Zm-.78-24.51c-.05-4.1,4.22-12.23,5.26-13.04.62,8.68-3.02,14.1-5.26,13.04h0Zm-3.66-13.95c-1.23-2.84-.58-9.91-.05-10.8,2.93,5.9,1.94,10.85.05,10.8Zm-2.23-1.17c-2.79-2.52-5.62-10.63-5.5-11.89,6.21,4.98,7.6,10.95,5.5,11.89Zm6.14,18.58c-.17.44,1.56-4.14,7.51-8.24-2.12,7.68-5.83,9.83-7.51,8.24Zm-18.01,48.37c3.7-2.78,14.01-4.11,15.44-3.62-7.53,6.32-14.91,6.44-15.44,3.62Zm7.57-11.21c-1.97.12-3.15-4.98-.25-11.26-.38,5.9-.22,10.75.25,11.26Zm8.9-39.85c-1.43,1.92-6.81-.65-10.1-7.86,4.93,4.61,9.32,7.93,10.1,7.86Zm-.9-4.34c-1.62,1.41-5.96-1.93-7.6-8.96,3.56,5.04,6.89,8.85,7.6,8.96Zm2.58,8.09c-.74,1.69-5.25.71-8.94-4.15,5.49,3.17,7.66,4.55,8.94,4.15Zm-1.42,24.86c-.66-2.03,3.89-4.47,10.69-2.99-5.75,1.05-10.34,2.41-10.69,2.99Zm-.21-3.01c-1.66.79-4.46-3.17-4.17-9.62,1.77,5.24,3.61,9.35,4.17,9.62Zm.22-7.27c-2.23,1.19-5.97-3.96-5.53-12.66,2.33,6.92,4.78,12.32,5.53,12.66Zm-27.83,40.39c1.07-2.23,6.95-.74,11.61,5.86-5.81-3.63-10.82-6.08-11.61-5.86Z"/>
          </g>
          <g>
            <path class="cls-23" d="m281.95,195.42c2.4.86,5.52-5.07,3.98-13.93-1.48,7.51-3.27,13.49-3.98,13.93Z"/>
            <path class="cls-23" d="m287.38,192.6c2.29-3.58,2.93-13.21,2.42-14.51-5.25,7.31-4.97,14.16-2.42,14.51Zm-16.74,9.44c-1.12,2.2,3.54,6.15,11.51,6.09-6.31-2.63-11.22-5.3-11.51-6.09Zm.08-4.33c2,1.8,7.29-2.66,9.2-11.88-4.29,6.68-8.31,11.73-9.2,11.88h0Zm22.56-10.03c.95,2.11,6.71.49,11.43-6-5.75,3.67-10.69,6.19-11.43,6Zm13.6-28.69c1.74,1.16,5.46-2.85,6.11-10.12-2.75,5.59-5.42,9.9-6.11,10.12Zm-6.17,20.5c.47,2.34,6.58,2.25,12.84-2.96-6.6,2.14-12.15,3.34-12.84,2.96Zm5.47-13.26c1.3,1.83,6.27-.72,9.33-7.72-4.55,4.5-8.6,7.77-9.33,7.72Zm-.8-24.51c2.24,1.08,5.84-4.28,5.23-12.96-2.15,7.06-4.47,12.6-5.23,12.96Zm-3.68-13.92c1.87.05,2.86-4.86-.07-10.76.5,5.65.48,10.27.07,10.76Zm-2.23-1.21c2.1-.94.7-6.84-5.5-11.82,3.42,5.93,5.73,11.07,5.5,11.82Zm6.13,18.65c1.68,1.6,5.36-.57,7.48-8.25-4.12,5.43-6.7,8.16-7.48,8.25Zm-18.01,48.37c.53,2.82,7.88,2.69,15.39-3.6-7.89,2.61-14.53,4.09-15.39,3.6Zm3.64-4.16c1.73-2.65,2.26-9.83,1.88-10.8-3.96,5.42-3.78,10.53-1.88,10.8Zm10.35-15.39c1.89-3.11,2.05-11.25,1.54-12.35-4.37,6.35-3.83,12.15-1.54,12.35Z"/>
          </g>
          <path class="cls-24" d="m287.36,192.58c-2.55-.34-2.82-7.16,2.4-14.46-1.92,7.45-2.89,13.69-2.4,14.46Zm18.57-36.76c-.5-4.18,2.1-10.84,3.5-12.12,1.36,7.74-1.41,12.89-3.5,12.12Zm-14.71,33.62c-1.9-.27-2.06-5.36,1.87-10.76-1.47,5.55-2.23,10.19-1.87,10.76Zm12.34-56.08c-1.14-3.16.02-10.78.65-11.71,2.79,6.59,1.39,11.9-.65,11.71Zm-30.68,64.64c1.31-4.35,8.55-11.34,9.93-11.79-2.29,9.37-7.96,13.74-9.93,11.79Zm28.8-22.38c1.4-3.37,7.82-8.32,8.97-8.52-2.61,7.34-7.53,10.3-8.97,8.52Zm-.06-1.63c-2.29-.2-2.82-5.94,1.55-12.29-1.41,6.38-2,11.66-1.55,12.29Z"/>
          <g>
            <path class="cls-23" d="m305.95,156.8c2.72.99,4.8-5.32,3.49-12.87-1.28,6.49-2.84,12.49-3.49,12.87Z"/>
            <path class="cls-23" d="m306.36,156.58c.29-4.05-3.66-12.42-4.71-13.29-1.06,8.5,2.36,14.15,4.71,13.29Zm-2.76-23.25c2.03.18,3.42-5.08.63-11.67.17,6.16-.15,11.16-.63,11.67Zm-30.66,64.62c2,1.95,7.59-2.38,9.88-11.75-4.67,6.65-8.96,11.63-9.88,11.75h0Zm28.86-22.32c1.44,1.78,6.3-1.16,8.91-8.52-4.3,4.9-8.17,8.51-8.91,8.52Z"/>
          </g>
          <path class="cls-24" d="m306.3,156.52c-2.33.88-5.73-4.71-4.67-13.22,1.85,7.14,3.93,12.79,4.67,13.22Z"/>
          <g>
            <ellipse class="cls-13" cx="304.7" cy="135.74" rx=".57" ry=".58"/>
            <ellipse class="cls-13" cx="306.7" cy="142.15" rx=".57" ry=".58"/>
            <ellipse class="cls-13" cx="307.41" cy="162.32" rx=".67" ry=".69"/>
            <ellipse class="cls-13" cx="304.71" cy="158.55" rx=".67" ry=".69"/>
            <ellipse class="cls-13" cx="296.93" cy="180" rx=".67" ry=".69"/>
            <ellipse class="cls-13" cx="300.25" cy="181.47" rx=".67" ry=".69"/>
            <ellipse class="cls-13" cx="277.85" cy="198.88" rx=".67" ry=".69"/>
            <ellipse class="cls-13" cx="274.15" cy="201.59" rx=".67" ry=".69"/>
            <ellipse class="cls-13" cx="300.7" cy="132.7" rx=".57" ry=".58"/>
          </g>
        </g>
        <g id="N">
          <path class="cls-36" d="m235.83,179.52c-.07.57.44,1.26,1.12,1.11.2-.04.33-.31.07-.26-.22.06-.46-.04-.63-.2-.32-.3-.35-.73-.21-1.03l-.35.38h0s0,0,0,0Z"/>
          <g>
            <path class="cls-6" d="m237.41,180.63c-.54.63-1.36.9-1.81.45-.3-.3-.41-.65-.25-1.03l-.59.66s.38.7.9.95c.65.3,1.57-.15,2.12-.84.39-.49.82-1.31.51-1.94-.19-.39-.65-.77-1.04-.91l-.54.59c.27-.13.61-.07.9.17.67.56.28,1.34-.2,1.91h0s0,0,0,0Z"/>
            <path class="cls-4" d="m237.41,180.63c-.17.21-.38.39-.61.51s-.51.21-.78.17c-.14-.02-.27-.07-.38-.16-.11-.09-.2-.19-.27-.31-.07-.12-.12-.26-.13-.4-.01-.14.02-.28.07-.41l.06.04-.59.67v-.05c.15.26.34.5.56.7.11.1.23.18.37.24s.28.08.42.07c.29,0,.57-.11.83-.26.26-.15.49-.34.69-.56.2-.22.36-.48.49-.75.13-.27.22-.56.2-.86-.01-.15-.05-.29-.12-.42s-.16-.25-.26-.35c-.21-.21-.45-.39-.72-.5h.05s-.55.58-.55.58l-.04-.06c.12-.06.26-.08.4-.06.13.02.26.06.38.13.23.14.42.35.49.62s0,.54-.11.78c-.11.24-.27.45-.44.65h0s0,0,0,0Zm0,0c.17-.2.31-.42.42-.66s.16-.51.09-.76-.26-.44-.48-.57-.49-.16-.71-.05l-.04-.06.54-.6.02-.02h.03c.29.12.55.31.76.53.11.11.21.23.28.37s.12.3.13.46c.02.32-.07.63-.2.91-.13.28-.3.54-.51.78-.21.23-.45.43-.72.58-.27.15-.57.26-.88.27-.16,0-.31-.02-.46-.08s-.28-.15-.39-.25c-.23-.21-.42-.46-.57-.73l-.02-.03.02-.02.6-.66.06.04c-.05.12-.08.25-.07.38s.05.26.11.37.15.22.25.3.22.14.35.16c.26.04.52-.03.76-.15s.45-.29.63-.49h0Z"/>
          </g>
          <path class="cls-17" d="m278.61,132.7l-21.2,21.26c-1.61,1.63-20.05,19.57-21.71,21.19l-2.41,2.88c-1.12,1.24-2.34,2.87-3.8,4.32-.26.33-.6.21-.92.4-.96.56-1.95,1.54-2.67,2.35l-6.45,7.27c-.42.46-.53.74-.25,1.01l3.5,4.76c.65.65,1.4.99,1.69.44,1.66-2.93,5.79-7.4,7.35-10.94.93-2.11,2.1-5.95,2.94-6.88,1.02-1.16,3.79-4.16,6.24-6.84l.49-.54.5-.55,37.25-39.58c-.41-.42-.15-.17-.55-.56h0Z"/>
          <path class="cls-36" d="m234.59,175.13c-.65.02-1.07-.38-1.5-.75.62.19,1.24.43,1.82.18l-.32.57h0Z"/>
          <path class="cls-18" d="m300.7,117.02l-16.8,14.11c-.16.2-.33.14-.49,0l-1.53-1.3s0-.04,0-.06c0-.09-.02-.17-.04-.25l.75-.78c.09-.12.06-.17-.06-.29l-.31-.32c-.12-.09-.22-.02-.34.1l-.76.79c-.39.02-.7.34-.71.73l-29.02,28.98-11.92,11.59c-.43.56-2.27,1.56-3.48,2.37-.43.29-.8.55-.96.83l-.97,2.92c-.31.64-1.28,2.15-1.33,2.26l2.04,2.01c.96-1.09,3.53-3.83,5.87-6.38.19-.21.2-.23.44-.52-.22-.32-.47-.61-.74-.89-.21-.2-.44-.41-.63-.59-.13-.11-.25-.21-.33-.29s.13-.24.22-.35l41.35-41.21c.07.02.14.03.21.03.12,0,.23-.03.33-.08l1.47,1.73c.35.35.64.34.92.21l16.83-15.36h0Z"/>
          <path class="cls-4" d="m234.09,176.35c.11.02.21.02.32.02.11,0,.21-.04.3-.09h0s.38-1.27.38-1.27l.4-1.27h0c-.1-.11-.23-.21-.39-.25.16.03.3.13.41.25h0s0,.01,0,.01l-.37,1.28-.4,1.27h0s0,.01,0,.01c-.1.05-.21.07-.32.08-.11,0-.22-.01-.32-.04h0Z"/>
          <g>
            <ellipse class="cls-25" cx="237.91" cy="175.14" rx=".33" ry=".33"/>
            <ellipse class="cls-25" cx="235.93" cy="177.15" rx=".33" ry=".33"/>
          </g>
          <path class="cls-4" d="m239.38,172.04c-.17-.13-.32-.27-.48-.42l-.44-.46c.17.13.33.27.48.42l.44.46Z"/>
          <path class="cls-36" d="m271.71,137.98l1.84,1.83.34-.32-1.84-1.83-.34.31Z"/>
        </g>
        <g id="N-2" data-name="N">
          <path class="cls-36" d="m282.82,180.46c.04.58-.51,1.23-1.18,1.06-.2-.05-.31-.33-.06-.27.22.07.47-.01.64-.17.33-.29.38-.71.26-1.02l.33.4h0s0,0,0,0Z"/>
          <g>
            <path class="cls-6" d="m281.19,181.49c.51.65,1.31.97,1.79.54.32-.29.44-.63.3-1.01l.56.69s-.41.68-.95.9c-.66.26-1.56-.23-2.08-.95-.37-.51-.76-1.35-.42-1.97.21-.38.69-.73,1.08-.86l.51.62c-.26-.14-.6-.1-.9.12-.7.52-.35,1.33.11,1.92h0s0,0,0,0Z"/>
            <path class="cls-4" d="m281.19,181.49c.16.21.36.4.59.54s.49.24.77.21c.14-.01.27-.06.38-.14.11-.08.2-.18.28-.3.08-.12.13-.25.15-.39.02-.14,0-.29-.05-.42l-.07.04.55.7v-.05c-.16.25-.36.49-.59.67-.12.09-.24.17-.38.22s-.28.06-.42.05c-.29-.02-.57-.14-.82-.3-.25-.16-.47-.36-.66-.59-.19-.23-.34-.49-.46-.77-.11-.28-.19-.57-.16-.87.02-.15.06-.29.14-.41s.17-.24.28-.34c.22-.2.47-.37.75-.46h-.05s.52.6.52.6l.05-.06c-.12-.06-.26-.09-.39-.08-.13,0-.26.05-.38.11-.23.13-.44.33-.52.59s-.03.54.07.78c.1.25.25.47.41.67h0s0,0,0,0Zm0,0c-.16-.21-.29-.44-.39-.68s-.13-.51-.05-.76.28-.43.5-.55.5-.14.71-.02l.05-.06-.51-.62-.02-.02h-.03c-.3.11-.56.28-.79.49-.11.11-.22.22-.3.36s-.14.29-.15.45c-.04.32.04.64.16.92.12.29.28.56.47.8.19.24.43.45.69.62.26.16.56.29.87.31.16.01.32,0,.47-.06s.28-.14.4-.23c.24-.2.44-.44.6-.7l.02-.03-.02-.03-.57-.69-.07.04c.05.12.07.25.06.38s-.06.25-.13.36-.16.21-.26.29-.23.12-.35.14c-.26.03-.52-.05-.75-.19s-.43-.31-.6-.52h0Z"/>
          </g>
          <path class="cls-17" d="m242.37,131.54l20.14,22.3c1.53,1.71,19.08,20.56,20.65,22.26l2.27,3c1.06,1.3,2.2,2.98,3.59,4.51.24.35.59.24.9.44.93.61,1.88,1.64,2.55,2.48l6.09,7.58c.39.48.49.77.2,1.02l-3.73,4.58c-.68.62-1.44.92-1.71.35-1.52-3.01-5.42-7.69-6.81-11.3-.83-2.16-1.81-6.05-2.6-7.02-.97-1.21-3.58-4.35-5.9-7.14l-.46-.56-.47-.57-35.28-41.41c.43-.4.16-.16.58-.53h0Z"/>
          <path class="cls-36" d="m284.28,176.14c.65.06,1.09-.33,1.54-.68-.63.15-1.26.37-1.83.09l.29.59h0Z"/>
          <path class="cls-18" d="m221.08,114.76l16.09,14.94c.15.21.32.16.49.02l1.59-1.22s0-.04,0-.06c0-.09.03-.17.06-.25l-.71-.82c-.09-.12-.06-.17.08-.29l.33-.31c.12-.09.22,0,.33.11l.72.83c.39.04.69.37.68.77l27.57,30.41,11.34,12.18c.4.58,2.19,1.68,3.36,2.55.42.31.78.59.92.88l.83,2.97c.28.66,1.18,2.22,1.22,2.32l-2.14,1.9c-.91-1.14-3.34-4-5.55-6.67-.18-.21-.19-.24-.41-.54.24-.3.5-.59.78-.85.22-.19.46-.39.66-.55.13-.11.26-.2.35-.28s-.11-.24-.21-.36l-39.29-43.25c-.07.02-.14.02-.21.02-.12,0-.23-.04-.33-.1l-1.55,1.65c-.36.33-.65.31-.93.17l-16.06-16.19h0Z"/>
          <path class="cls-4" d="m284.72,177.39c-.11.01-.21.01-.32,0-.11-.01-.21-.05-.3-.1h0s-.31-1.29-.31-1.29l-.34-1.29h0c.11-.1.24-.2.4-.23-.16.02-.3.12-.42.23h0s0,.01,0,.01l.31,1.3.34,1.29h0s0,.01,0,.01c.1.05.2.08.31.09.11,0,.22,0,.32-.02h0Z"/>
          <g>
            <ellipse class="cls-25" cx="280.96" cy="175.98" rx=".33" ry=".33"/>
            <ellipse class="cls-25" cx="282.84" cy="178.09" rx=".33" ry=".33"/>
          </g>
          <path class="cls-4" d="m279.64,172.81c.17-.12.34-.25.5-.39l.46-.44c-.17.12-.34.25-.5.39l-.46.44Z"/>
          <path class="cls-36" d="m249.01,137.16l-1.93,1.74-.32-.33,1.93-1.74.32.33Z"/>
        </g>
        <g>
          <path class="cls-24" d="m235.66,195.17c-4.15-1.79-14.2-.36-15.43.5,8.6,4.31,15.6,2.46,15.43-.5Zm47.02,1.79c4.15-1.79,14.2-.36,15.43.5-8.6,4.29-15.6,2.46-15.43-.5Z"/>
          <path class="cls-23" d="m235.58,195.23c.17,2.96-6.76,4.78-15.36.49,8.08.5,14.68.2,15.36-.49Zm47.18,1.77c-.17,2.96,6.76,4.78,15.36.49-8.08.5-14.68.22-15.36-.49Z"/>
        </g>
        <g id="O">
          <path class="cls-18" d="m275.05,192.28c-10.95-16.2-27.46-29.38-40.2-36.58,1.88-.09,6.05,2.09,7.75,3.2,12.65,8.3,23.4,19.26,34.68,32.19-.66.67-1.1,1.07-1.82,1.64l-.42-.45h0Z"/>
          <path class="cls-6" d="m276.14,192.15l-.77.75c-12.15-15.94-29.1-31.18-40.5-37.19,15.89,7.45,29.26,22.47,41.22,36.4l.04.05h0Z"/>
          <path class="cls-4" d="m276.14,192.15l-.76.75h0s0,0,0,0c-2.81-3.67-5.8-7.2-8.91-10.62s-6.34-6.71-9.7-9.87-6.84-6.18-10.46-9.02c-1.81-1.42-3.67-2.78-5.57-4.07s-3.85-2.5-5.88-3.57l.05-.11c4.17,1.96,8.1,4.41,11.82,7.15s7.22,5.76,10.58,8.95,6.56,6.53,9.68,9.95,6.14,6.94,9.16,10.45h0Zm0,0l-9.2-10.41c-3.12-3.42-6.33-6.76-9.69-9.93-3.36-3.18-6.87-6.2-10.58-8.93-3.72-2.73-7.65-5.17-11.81-7.12l.05-.11c2.03,1.08,3.98,2.3,5.89,3.59s3.75,2.66,5.57,4.08c3.63,2.84,7.1,5.87,10.46,9.04,3.35,3.17,6.59,6.46,9.69,9.88,3.1,3.42,6.07,6.97,8.87,10.65h0l.77-.75h0Z"/>
          <g>
            <g>
              <path class="cls-14" d="m279.81,189.63c-1.04.27-1.97.67-2.78,1.2-.12.75-1.03,1.59-1.89,1.78l-.31-.41s-.05-.04-.09-.02l-.3.18c-.32-.05-.71.11-.88.53-.2.52.2,1.21.65,1.66.49.39.73.58,1.3.49.57-.12.89-.65,1.02-.82,1.96,2.42,3.44,3.73,5.93,5.72,1.11,0,1.7-.7,1.33-1.51-.12-.27-.44-.45-.7-.35.02-.08.01-.16,0-.24,1.3-1.22,1.86-2.74.48-5.31-1.17-2.17-2.49-2.9-3.74-2.89h0,0Zm3.3,2.44c.23.4.37.74.54,1.1.78,1.61.1,3.55-1.23,4.15-.06,0-.04-.01-.11.01.22-.37-.44-1.16-.77-.88.16-.41-.35-1.09-.77-.91.22-.38-.28-1.03-.75-.82.24-.41-.17-1-.66-.9.15-.44-.22-.94-.71-.86.04-.39-.08-.6-.27-.78.59-.46,1.24-1.16,1.82-1.47,1.44-.63,2.33.58,2.92,1.35h0Z"/>
              <g>
                <path class="cls-21" d="m283.71,193.78c-.27-.14-.4-.41-.31-.59s.37-.23.64-.1.42.4.33.59-.39.24-.67.11h0Z"/>
                <path class="cls-21" d="m283.55,193.23c-.27-.14-.4-.41-.31-.59s.37-.23.64-.1.42.4.33.59-.39.24-.67.1h0s0,0,0,0Z"/>
                <path class="cls-21" d="m283.23,192.62c-.27-.14-.4-.41-.31-.59s.37-.23.64-.1.42.4.33.59-.39.24-.67.11h0Z"/>
                <path class="cls-21" d="m282.81,192.07c-.27-.14-.4-.41-.31-.59s.37-.23.64-.1.42.4.33.59-.39.24-.67.11h0Z"/>
                <path class="cls-21" d="m282.27,191.54c-.27-.14-.4-.41-.31-.59.01-.02,0-.07.03-.06.11.06.34.1.31-.07-.03-.06-.08-.12-.04-.08.08,0,.25.07.34.12.27.14.42.4.33.59s-.39.24-.67.11h0s0,0,0,0Z"/>
              </g>
            </g>
            <path class="cls-11" d="m276.52,194.22c.36-.95,1.08-1.84,1.85-2.05m-1.73,2.18c.67.14,1.75-.67,2.01-1.39m-1.38,2.17c.87.2,1.74-.65,2.08-1.3m-1.29,2.15c1.03.03,1.67-.71,1.97-1.29m-1.18,2.11c.88,0,1.68-.73,1.93-1.3m-1.15,2.06c.95-.04,1.63-.48,1.91-1.12m-1.05,1.88c.88.05,1.59-.48,1.82-1m-.88,1.78c.88.05,1.42-.5,1.66-1.02"/>
          </g>
          <g>
            <path class="cls-12" d="m276.52,194.22c.07-.23.17-.45.29-.66.12-.21.25-.41.4-.59.16-.18.33-.35.52-.49s.41-.25.64-.3c-.22.08-.43.19-.61.34-.19.15-.35.31-.5.49-.3.36-.54.78-.74,1.22h0Z"/>
            <path class="cls-12" d="m276.64,194.36c.21.03.43-.02.62-.1.2-.08.38-.19.55-.32.17-.13.33-.27.48-.43s.27-.34.36-.54c-.06.21-.19.4-.32.57s-.3.32-.48.45c-.18.13-.37.24-.57.31s-.43.12-.64.06h0Zm.63.78c.21.04.43.02.64-.05.2-.07.4-.17.57-.29.18-.12.33-.27.48-.43.15-.16.28-.34.39-.52-.1.2-.22.39-.36.55-.14.17-.3.32-.48.45-.18.13-.38.23-.59.29s-.44.07-.65,0h0Zm.79.85c.21,0,.41-.03.61-.1s.38-.15.55-.27c.17-.12.32-.26.46-.41.14-.16.26-.33.37-.5-.18.39-.45.72-.79.96-.17.12-.36.21-.57.27-.2.06-.41.07-.62.06h0Zm.8.82c.41-.02.79-.18,1.12-.41.17-.12.32-.25.45-.4.14-.15.26-.31.35-.49-.07.19-.19.37-.32.53-.13.16-.29.3-.46.42-.17.12-.35.21-.55.28s-.4.1-.6.09h0Zm.77.75c.19-.02.38-.05.57-.1.19-.05.37-.12.54-.21.17-.09.33-.2.46-.34.14-.14.25-.29.34-.47-.07.18-.18.35-.31.5-.14.14-.29.27-.47.36-.35.18-.74.27-1.13.26h0Zm.87.76c.18,0,.36-.02.54-.06.18-.04.34-.11.5-.19.16-.08.31-.19.44-.31s.25-.27.34-.43c-.07.17-.18.33-.31.46-.13.13-.28.24-.44.33-.16.09-.34.15-.52.19s-.37.04-.55.02h0Zm.94.78c.17,0,.34-.02.51-.06.16-.04.32-.11.46-.2.15-.09.27-.2.39-.33.11-.13.21-.27.29-.43-.12.33-.36.62-.65.8-.15.09-.31.16-.48.2-.17.04-.34.04-.52.02h0Z"/>
          </g>
        </g>
        <g id="O-2" data-name="O">
          <path class="cls-18" d="m244.21,190.9c11.88-15.51,29.13-27.67,42.26-34.08-1.87-.2-6.16,1.72-7.92,2.73-13.11,7.52-24.48,17.81-36.5,30.03.62.71,1.04,1.13,1.72,1.75l.44-.42h0Z"/>
          <path class="cls-6" d="m243.13,190.71l.72.8c13.06-15.17,30.87-29.36,42.6-34.68-16.3,6.48-30.52,20.66-43.27,33.84l-.05.04h0Z"/>
          <path class="cls-4" d="m243.12,190.71l.72.8h0s0,0,0,0c3.02-3.49,6.21-6.84,9.51-10.06s6.73-6.31,10.26-9.26,7.19-5.76,10.97-8.37c1.89-1.3,3.82-2.55,5.8-3.72s3.99-2.27,6.08-3.21l-.04-.11c-4.28,1.7-8.35,3.91-12.21,6.42s-7.55,5.32-11.08,8.29-6.93,6.12-10.24,9.35-6.54,6.55-9.75,9.88h0Zm0,0l9.79-9.84c3.32-3.22,6.72-6.36,10.25-9.33,3.54-2.97,7.22-5.77,11.09-8.27,3.87-2.5,7.94-4.7,12.21-6.39l-.04-.11c-2.09.95-4.11,2.05-6.09,3.23s-3.9,2.43-5.8,3.74c-3.78,2.62-7.43,5.43-10.97,8.39-3.53,2.96-6.95,6.05-10.25,9.28-3.29,3.23-6.46,6.59-9.47,10.1h0s-.72-.79-.72-.79h0Z"/>
          <g>
            <g>
              <path class="cls-14" d="m239.61,187.97c1.02.34,1.93.79,2.7,1.36.08.76.94,1.65,1.79,1.89l.34-.4s.06-.04.09-.02l.29.2c.32-.04.7.15.84.58.17.53-.27,1.2-.74,1.62-.51.36-.76.53-1.32.42-.56-.15-.85-.71-.97-.88-2.1,2.3-3.65,3.52-6.25,5.36-1.11-.06-1.66-.8-1.24-1.59.14-.26.47-.42.72-.31-.02-.08,0-.16.01-.24-1.23-1.29-1.69-2.84-.17-5.33,1.3-2.09,2.65-2.75,3.91-2.66h0s0,0,0,0Zm-3.44,2.23c-.25.38-.41.72-.6,1.07-.88,1.56-.31,3.54.99,4.21.07,0,.05,0,.11.02-.2-.38.5-1.13.82-.83-.13-.42.42-1.06.82-.86-.2-.39.34-1.01.8-.77-.22-.43.23-.99.71-.86-.12-.45.28-.93.76-.81-.02-.39.12-.6.31-.76-.56-.49-1.17-1.23-1.73-1.58-1.4-.72-2.36.43-2.99,1.18h0s0,0,0,0h0Z"/>
              <g>
                <path class="cls-21" d="m235.47,191.87c.28-.12.42-.38.34-.57s-.36-.25-.64-.13-.45.37-.37.56.38.27.66.15h0Z"/>
                <path class="cls-21" d="m235.66,191.33c.28-.12.42-.38.34-.57s-.36-.26-.64-.13-.45.37-.37.56.38.27.66.15h0s0,0,0,0Z"/>
                <path class="cls-21" d="m236.03,190.75c.28-.12.42-.38.34-.57s-.36-.26-.64-.13-.45.37-.37.56.38.27.66.15h0Z"/>
                <path class="cls-21" d="m236.47,190.22c.28-.12.42-.38.34-.57s-.36-.25-.64-.13-.45.37-.37.56.38.27.66.15h0Z"/>
                <path class="cls-21" d="m237.04,189.73c.28-.12.42-.38.34-.57-.01-.03,0-.07-.03-.06-.11.05-.35.08-.31-.09.04-.06.08-.12.04-.07-.08,0-.25.06-.34.1-.28.12-.45.37-.37.56s.38.27.66.15h0s0,0,0,0Z"/>
              </g>
            </g>
            <path class="cls-11" d="m242.63,192.75c-.3-.97-.97-1.9-1.73-2.16m1.6,2.28c-.67.1-1.71-.77-1.93-1.51m1.25,2.25c-.89.15-1.7-.76-2-1.42m1.16,2.22c-1.03-.03-1.63-.81-1.9-1.4m1.05,2.18c-.88-.05-1.63-.83-1.85-1.42m1.03,2.12c-.95-.1-1.6-.58-1.84-1.23m.93,1.94c-.88,0-1.56-.58-1.76-1.11m.77,1.83c-.88,0-1.39-.59-1.59-1.12"/>
          </g>
          <g>
            <path class="cls-12" d="m242.63,192.75c-.06-.23-.15-.46-.25-.67-.1-.22-.23-.42-.37-.62-.14-.19-.31-.37-.49-.52s-.39-.28-.62-.34c.22.09.42.22.59.38.18.16.33.33.47.52.28.38.5.81.66,1.26h0Z"/>
            <path class="cls-12" d="m242.5,192.88c-.22.02-.43-.05-.62-.14-.19-.09-.37-.21-.53-.35-.17-.14-.32-.29-.45-.46s-.25-.35-.33-.56c.05.21.16.41.29.59s.28.34.45.48c.17.14.35.26.55.35s.42.14.63.1h0Zm-.67.74c-.21.02-.43,0-.63-.08-.2-.08-.38-.19-.55-.33-.17-.13-.32-.29-.46-.46-.14-.17-.26-.35-.36-.55.08.2.19.4.33.57.13.18.28.34.45.48.17.14.36.26.57.33s.43.09.65.04h0Zm-.84.8c-.21-.02-.41-.06-.6-.13s-.37-.18-.53-.31c-.16-.13-.31-.27-.43-.44-.13-.16-.24-.34-.34-.52.15.4.41.74.73,1.01.17.13.35.23.55.3.2.07.41.1.61.09h0Zm-.84.77c-.4-.05-.78-.23-1.09-.48-.16-.12-.3-.27-.43-.42-.13-.16-.24-.33-.32-.52.06.2.17.38.29.54.13.16.27.31.43.44.16.13.34.24.53.31s.39.12.6.12h0Zm-.81.71c-.19-.03-.38-.08-.56-.13-.18-.06-.36-.14-.52-.24-.16-.1-.31-.22-.44-.37-.13-.15-.24-.31-.32-.49.06.19.16.36.28.52.13.15.28.28.45.39.34.2.72.31,1.11.33h0Zm-.91.71c-.18-.01-.36-.04-.53-.1-.17-.05-.34-.13-.49-.22-.15-.09-.3-.21-.42-.34s-.23-.28-.31-.45c.06.18.16.34.28.48.12.14.27.26.42.36.16.09.33.17.51.22s.36.07.55.05h0Zm-.98.72c-.17-.01-.34-.04-.5-.1-.16-.05-.31-.13-.45-.23-.14-.1-.26-.22-.37-.35-.11-.14-.2-.28-.27-.44.1.34.32.64.61.84.14.1.3.18.47.22.17.05.34.06.52.05h0Z"/>
          </g>
        </g>
        <g>
          <path class="cls-23" d="m222.62,127.73c3.81-1.27,9.89-8.31,10.29-9.64-8.24,2.23-12.02,7.72-10.29,9.64h0Zm76.98,2.53c-.9-3.79-7.01-10.23-8.22-10.71,1.46,8.16,6.29,12.24,8.22,10.71Z"/>
          <path class="cls-24" d="m222.62,127.73c-1.76-1.92,2-7.35,10.22-9.59-5.79,4.52-10.14,8.7-10.22,9.59h0Zm76.98,2.53c-1.93,1.56-6.72-2.5-8.18-10.64,3.78,5.96,7.36,10.5,8.18,10.64Z"/>
        </g>
        <g>
          <g>
            <path class="cls-34" d="m245.32,169.74s-3.25.36-4.16-4.21c-.98-4.89,2.8-5.41,2.8-5.41,0,0,4.28-.42,6.95-.49l1.18,9.66-6.77.45h0Z"/>
            <path class="cls-33" d="m245.75,168.27s-2.1.41-2.54-2.99c-.31-2.41,1.15-2.75,1.15-2.75l4.88.84.03,4.43-3.52.46h0Z"/>
            <path class="cls-31" d="m244.37,162.53l4.75-.45.68,3.07-3.75.24s-.26-2.77-1.67-2.87h0Z"/>
            <path class="cls-26" d="m243.71,160.2s4-1,4.5,3.49c.13,1.17-.5,3.86-2.46,4.58l7.33-.78-.66-8.07-2.47.21s-5.24.18-6.24.58h0Z"/>
            <path class="cls-28" d="m245.32,169.74s27.42-1.88,30.22-1.76c8.32-4.65-.04-22.9-7.05-33.11.8-2.3-15.77-7.47-23.27-7.01l-2.72.19c-4.07.44-4.11,5.75-2.45,9.1,1.61,3.25,16.01,29.66,5.88,32.45l-.62.13h0Z"/>
            <path class="cls-32" d="m274.68,145.66c-1.78-3.75-3.85-7.36-6.19-10.79.8-2.3-15.77-7.47-23.27-7.01l-2.72.19c-4.07.44-4.11,5.75-2.45,9.1.5,1.02,2.27,4.33,4.14,8.46"/>
            <path class="cls-27" d="m246.82,151.91c2.93,7.88,4.58,16.2-.87,17.7l-.62.13s27.42-1.88,30.22-1.76c4.51-2.52,4.12-9.04,1.69-16.11"/>
            <path class="cls-29" d="m242.78,129.6c-1.96,0-2.46,1.92-2.43,3.13.07,3.18,2.43,3.33,2.43,3.33l3.15-.18,1.51-6.54-4.66.26Z"/>
            <path class="cls-35" d="m242.78,129.62l4.66-.26.48,4.89-4.07.18s1.32-3.91-1.07-4.81h0Z"/>
            <path class="cls-30" d="m268.52,134.87c3.53-.58,3.48-5.42,1.07-7.36-8.19-.31-18.96-.08-26.74.52.89-.03,3.35.2,3.62,3.5.13,1.54-.62,2.95-1.62,3.76-.98.79-2.06.79-2.06.79.13.05,1.14,0,1.9-.05.39-.03,1.35-.14,1.61-.18,11.1-1.49,22.18-.98,22.18-.98h.04s0,0,0,0Z"/>
          </g>
          <g>
            <path class="cls-9" d="m248.63,142.47c-.08-.18-.17-.4-.39-.43-.13,0-.34-.03-.3-.21.12-.06.28-.02.42-.03.3,0,.59-.06.88-.08.18.05.14.29-.06.25-.22.05-.09.3-.04.44l.7,1.67c.07.16.2.31.38.33.19.02.4.02.58-.06.16-.11.13-.34.11-.5-.07-.2.28-.15.26.02l.24.68c-.01.11-.15.08-.22.09l-1.57.12c-.17,0-.42.15-.52-.05-.06-.21.27-.09.31-.25,0-.18-.1-.33-.16-.49l-.62-1.48h0Zm2.55-.18c-.07-.17-.16-.39-.36-.43-.13-.01-.34,0-.33-.2.08-.09.24-.03.35-.05.31.01.62-.05.93-.08.15-.02.21.28.01.24-.19,0-.2.22-.12.35l.76,1.84c.06.13.13.29.29.32.13.03.34-.02.37.17-.02.14-.23.06-.33.09-.28-.02-.55.02-.82.06-.12.03-.29.01-.3-.15.03-.15.31-.04.32-.22-.02-.18-.11-.33-.17-.49l-.6-1.45h0Zm2.36.38c.05.12.21.03.31.04.14-.01.29-.12.27-.27-.02-.24-.14-.49-.33-.64-.18-.13-.41-.11-.62-.09-.01.08.05.16.08.24l.29.71h0Zm.35.86c.09.19.15.4.3.55.13.09.3.05.45.03.16-.01.25-.18.2-.33-.08-.34-.29-.7-.65-.77-.16-.03-.33-.03-.48,0-.01.08.05.16.07.23l.12.29h0Zm-1.07-1.28c-.08-.19-.16-.41-.36-.5-.13-.04-.34.02-.37-.17.03-.16.3-.05.42-.09.46-.01.92-.14,1.37,0,.39.1.74.44.77.85.01.2-.14.37-.31.45-.02-.07.19.03.27.04.31.1.59.31.73.61.11.21.19.5.02.71-.19.21-.5.22-.76.24-.4.01-.79.01-1.19.09-.14.02-.24-.26-.05-.24.2,0,.21-.22.13-.36l-.67-1.64h0Zm3.92-1.02c.17-.03.19.17.24.29.05.15.15.29.18.45-.15.15-.27-.08-.33-.19-.08-.13-.2-.26-.36-.24-.22,0-.43,0-.64.04-.08.09.03.21.06.31l.3.72c.14-.01.33,0,.43-.11.04-.12-.14-.4.11-.34.16.09.14.32.22.47.07.21.2.39.26.6-.14.16-.28-.07-.33-.2-.1-.19-.33-.16-.51-.16-.13-.03-.04.09-.02.15.11.27.2.54.35.79.11.18.34.16.53.15.17,0,.39-.01.49-.18.11-.14-.14-.4.07-.45.18-.02.18.2.23.33.04.15.1.3.15.44-.01.11-.15.08-.22.09l-1.62.1c-.16,0-.43.13-.48-.11.01-.15.34-.07.29-.29-.04-.19-.13-.36-.2-.53l-.59-1.45c-.07-.16-.19-.33-.39-.34-.13.02-.32-.07-.24-.22.18-.04.38-.01.56-.03l1.46-.09h0Zm1.22.71c-.08-.19-.16-.41-.36-.5-.14-.04-.38,0-.37-.21.13-.1.35-.02.51-.05.42,0,.86-.13,1.27,0,.44.12.8.52.83.99.01.22-.16.4-.36.46-.16,0,.12.05.16.11.33.16.56.47.74.79.04.12.27.37.31.13-.01-.26.34-.04.26.14,0,.19-.19.32-.36.31-.25.02-.48-.12-.6-.34-.22-.3-.37-.66-.67-.89-.12-.09-.3-.14-.44-.08-.03.07.04.15.05.22.1.22.16.45.29.66.11.17.31.19.49.19.19.05.14.31-.07.23-.31,0-.62-.02-.93.04-.14.07-.46,0-.34-.2.15,0,.36-.09.25-.28l-.55-1.4-.13-.34h0Zm.74.48c.07.18.31.08.45.06.19-.04.18-.27.12-.42-.09-.25-.2-.55-.47-.64-.14-.02-.45-.11-.47.08l.33.85.03.07h0Zm3.81.92c.06.14.11.33.28.35.13.03.35-.01.38.18-.03.14-.23.06-.34.08-.28-.03-.57,0-.85.05-.12.04-.29-.02-.27-.17.07-.11.34-.02.33-.22-.05-.22-.15-.41-.22-.62l-.61-1.55c-.05-.16-.23-.16-.37-.15-.14,0-.36.03-.36.22-.05.12.11.33-.02.4-.16.03-.19-.15-.23-.26-.05-.17-.14-.33-.2-.5.02-.12.17-.09.26-.1l2.18-.09c.16-.03.27.1.27.26.06.18.14.35.22.52-.06.18-.27.03-.29-.11-.11-.19-.27-.37-.5-.38-.14,0-.34-.05-.43.08,0,.13.08.24.12.36l.65,1.66h0Zm1.97-.49c-.1,0-.05.13-.06.2,0,.15,0,.31.02.46.07.17.28.13.41.17.12.07.09.27-.07.21-.22-.01-.45-.04-.67.02-.13.07-.38-.07-.26-.21.11-.02.24-.05.26-.18.04-.22.02-.45.02-.68v-2c.08-.15.28-.02.33.09l1.9,2.44c.1.13.24.22.41.22.14,0,.21.29.01.23-.27-.02-.54-.03-.81.01-.12,0-.26.06-.37-.01-.13-.1-.04-.23.1-.22.19-.05,0-.26-.06-.35l-.31-.4c-.09-.05-.2-.01-.29-.02l-.56.02h0Zm.62-.28c.1,0-.03-.08-.05-.13l-.67-.89s0,.09.02.14v.91s.7-.02.7-.02h0Zm1.61-.99c-.08-.21-.18-.48-.43-.53-.13.02-.37-.1-.24-.24h.87c.37-.04.75-.03,1.1.1.77.26,1.41.96,1.54,1.79.06.32-.04.7-.33.88-.39.25-.87.2-1.3.18-.25-.01-.5.02-.74.05-.16-.02-.18-.28.01-.25.2,0,.19-.23.12-.36l-.6-1.63h0Zm1.04,1.34c.08.18.13.41.3.53.16.08.35.06.52.04.23-.03.38-.27.38-.49.01-.41-.15-.79-.33-1.14-.2-.38-.56-.66-.97-.74-.17-.03-.35-.06-.52-.03-.04.07.03.15.05.22l.59,1.61h0Zm-11.15,6.68c.06.19.23.32.43.34.14.02.37,0,.38.19-.07.13-.28.04-.41.07-.27,0-.55,0-.82.05-.15,0-.3.07-.44.03-.13-.06-.1-.25.06-.23.13-.03.32-.07.33-.24-.01-.15-.1-.29-.15-.43l-.61-1.48c-.05-.17-.24-.18-.38-.15-.13.03-.33.07-.36-.12.02-.16.26-.13.37-.21l.5-.19c.11-.03.17.08.2.17l.9,2.21h0Zm.4-2.43c.36-.01.72.04,1.08,0,.16-.02.05-.27.2-.25.2,0,.16.26.18.4.02.15-.09.29-.24.31-.02,0-.04,0-.06,0-.28.02-.56-.03-.84-.01.06.22.15.44.24.65.01-.07.24-.08.34-.1.56-.03,1.15.3,1.38.83.11.26.17.59-.02.83-.2.25-.54.3-.84.3-.26,0-.56-.06-.71-.3-.09-.12-.07-.37.12-.34.16,0,.35.14.32.32.09.12.28.08.41.08.16,0,.31-.13.3-.3,0-.26-.1-.52-.24-.73-.15-.23-.41-.38-.69-.37-.16-.03-.29.08-.44.08-.15-.02-.18-.2-.23-.31l-.34-.98c-.01-.06.04-.1.09-.1h0Zm3.62.55c-.08-.21-.2-.47-.44-.52-.13.03-.37-.09-.24-.23l.88-.04c.37-.05.76-.04,1.11.09.78.27,1.43.98,1.55,1.82.05.31-.06.67-.33.84-.38.25-.85.21-1.28.2-.24,0-.48.04-.71.07-.16-.02-.19-.27,0-.25.2-.01.18-.24.11-.37l-.64-1.63h0Zm1.07,1.32c.08.18.14.41.31.52.16.07.35.05.51.03.23-.04.36-.28.36-.51,0-.41-.17-.8-.37-1.14-.21-.37-.57-.65-.99-.72-.17-.02-.35-.05-.52-.01-.03.07.04.15.05.22l.64,1.61h0Zm3.4-2.29c.16-.03.19.16.23.27.05.15.13.3.18.45-.1.17-.27-.03-.31-.15-.08-.13-.19-.28-.36-.28-.22-.01-.44,0-.65.02-.12.05,0,.21.03.31l.29.73c.14,0,.3,0,.42-.08.09-.11-.14-.4.11-.37.17.06.15.31.22.45.07.21.19.4.26.61-.09.18-.29-.03-.31-.16-.07-.17-.28-.19-.44-.19-.11-.02-.2,0-.12.12.11.28.2.57.35.83.11.19.34.16.53.16.17,0,.39,0,.5-.17.11-.13-.1-.35.04-.44.18-.05.22.15.25.28.04.17.1.33.15.48-.02.11-.15.07-.23.08l-1.63.07c-.15-.01-.36.11-.46-.06-.1-.21.27-.1.28-.28.01-.16-.08-.31-.13-.46l-.61-1.56c-.07-.17-.19-.36-.39-.37-.13.02-.32-.07-.24-.22.19-.03.38,0,.58-.02l1.47-.06h0Zm-14.41,7.68c.08.26.35.37.59.44.41.14.85.28,1.13.62.16.2.27.46.26.72-.02.27-.25.47-.49.53-.3.1-.63.07-.92-.05-.14-.06-.09.25-.26.15-.13-.1-.09-.3-.16-.44-.06-.18-.13-.35-.2-.52,0-.18.25-.08.26.05.17.32.49.6.86.61.19,0,.43-.1.44-.31,0-.29-.22-.51-.46-.64-.34-.18-.73-.24-1.05-.44-.29-.18-.5-.51-.5-.87,0-.24.2-.42.41-.49.27-.1.56-.11.83-.03.13.07.18-.15.31-.04.06.11.04.25.1.36.04.15.14.29.18.44-.08.13-.25,0-.27-.11-.12-.2-.27-.42-.52-.43-.18-.01-.42-.02-.53.15-.05.08-.05.19-.02.28h0Zm3.53-.89c.17-.03.18.17.22.28.04.15.11.28.15.43-.07.15-.26.01-.28-.11-.07-.14-.18-.31-.36-.3-.22,0-.43.01-.65.04-.12.05,0,.21.01.31l.25.73c.14,0,.3,0,.42-.1.1-.11-.1-.32.07-.37.2-.03.18.24.23.37.05.24.18.46.25.69-.08.17-.28,0-.29-.13-.06-.18-.26-.21-.42-.2-.09,0-.22,0-.15.11l.29.81c.06.15.24.19.38.17.21-.01.45,0,.61-.15.13-.13.02-.31.05-.46.13-.11.28.04.26.18.04.19.08.37.14.55-.02.11-.15.08-.24.09l-1.61.12c-.15,0-.36.13-.45-.05-.08-.21.24-.11.28-.27s-.05-.31-.09-.46l-.53-1.58c-.06-.17-.17-.36-.37-.36-.13.03-.31-.07-.23-.22.18-.04.38-.02.56-.04l1.47-.11h0Zm2.21,2.23c.05.16.14.34.32.38.13.05.35-.04.39.15,0,.18-.26.08-.38.11-.27-.01-.54,0-.8.06-.12.02-.29.06-.32-.1-.03-.18.24-.08.3-.21.04-.14-.03-.28-.07-.41l-.53-1.62c-.06-.16-.14-.36-.33-.38-.12,0-.33-.02-.29-.2.09-.09.26-.03.38-.04.39,0,.77-.1,1.15-.08.4.02.78.27.92.66.09.22.12.49-.04.69-.2.24-.54.29-.83.33-.11-.02-.02.1-.01.16l.17.51h0Zm-.3-.93c.11.02.24-.01.36-.04.17-.03.25-.21.21-.37-.05-.23-.12-.47-.29-.63-.16-.14-.39-.14-.59-.09-.07.07,0,.17.02.25l.29.89h0Zm3.25.77c.05.14.09.33.26.35.13.03.35-.02.36.17-.03.14-.23.06-.34.08-.28-.02-.57.02-.85.06-.12.04-.29-.01-.26-.17.07-.11.34-.03.34-.22-.03-.21-.12-.41-.17-.61l-.5-1.56c-.04-.17-.23-.16-.36-.14s-.33.03-.37.19c-.04.14.02.29,0,.42-.13.09-.25-.05-.24-.18-.04-.19-.11-.36-.18-.54,0-.13.16-.12.25-.13l2.19-.13c.16-.03.26.1.25.25.04.18.12.35.18.52-.04.15-.26.07-.26-.06-.09-.19-.24-.39-.46-.41-.15,0-.33-.03-.45.07-.03.11.04.22.07.32l.55,1.72h0Zm1.11-1.77c-.06-.16-.12-.37-.3-.42-.12-.03-.34,0-.33-.19.05-.11.22-.04.32-.06.32.01.63-.03.94-.06.14-.07.25.23.08.23-.13,0-.29.1-.23.25.07.29.17.56.26.84l.38,1.18c.04.12.13.23.26.24.13,0,.35.02.31.2-.1.08-.25.03-.37.04-.28-.02-.57.03-.85.06-.12.05-.28-.07-.21-.2.11-.05.34-.02.33-.21-.04-.22-.13-.43-.19-.65l-.4-1.25h0Zm3.04-.86c.17-.03.18.16.21.28.04.15.11.29.15.44-.08.15-.26,0-.28-.12-.07-.14-.17-.31-.35-.3-.22,0-.43,0-.65.03-.12.05,0,.21,0,.31l.23.73c.14,0,.31,0,.43-.09.11-.11-.1-.33.08-.37.2-.02.18.24.22.37.05.24.17.46.23.69-.06.16-.28.02-.28-.11-.05-.17-.23-.24-.39-.23-.08,0-.27-.04-.19.09l.28.83c.06.15.24.19.38.18.21-.01.45.02.61-.14.13-.12.03-.31.06-.46.13-.1.28.04.26.19.03.19.08.37.13.55-.02.1-.15.07-.23.09l-1.63.09c-.15,0-.34.11-.44-.03-.11-.21.2-.14.27-.26.07-.14-.02-.29-.06-.44l-.51-1.61c-.06-.17-.17-.38-.37-.38-.13.03-.31-.08-.22-.22.18-.03.37,0,.56-.03l1.48-.08h0Zm1.06.52c-.03-.19-.18-.36-.39-.33-.2.05-.26-.31-.02-.23.27,0,.54-.04.81.02.13.14.23.31.35.46l1.15,1.56c-.08.02-.02-.1-.03-.16l.19-1.91c.14-.12.39-.07.57-.11.15-.02.49-.07.39.19-.18.03-.41.12-.28.35l.59,1.93c.04.22.26.29.45.28.17,0,.18.3-.03.23-.31,0-.63-.03-.94.03-.14.05-.43.03-.34-.19.16-.03.42-.08.31-.31l-.52-1.71c.04.05,0,.14,0,.2l-.15,1.6c-.02.14.03.31-.04.43-.12.06-.2-.06-.27-.15l-1.51-1.99c.05-.02.04.11.07.16l.48,1.55c.05.21.26.27.45.27.2.1.05.29-.12.22-.26-.04-.53.02-.79.05-.17,0-.17-.28.02-.24.25,0,.17-.28.11-.43l-.54-1.76h.02s0,0,0,0Zm4.62.46c.03.12.19.04.28.05.15,0,.33-.09.34-.27,0-.23-.08-.49-.26-.64-.17-.14-.41-.12-.61-.1-.02.08.03.16.05.24l.21.72h0Zm.26.86c.07.19.1.4.24.55.13.1.3.06.44.05.14,0,.26-.12.24-.27-.02-.32-.17-.68-.48-.8-.18-.07-.38-.07-.56-.05-.06.05.02.16.03.23l.09.3h0Zm-.94-1.29c-.06-.19-.12-.41-.31-.5-.12-.05-.34,0-.35-.18.04-.16.29-.04.41-.07.47,0,.95-.12,1.41.03.37.1.68.44.68.84,0,.22-.18.39-.36.47-.01-.07.19.04.26.05.28.1.54.3.65.59.09.22.15.51-.02.71-.19.22-.5.23-.77.24-.42,0-.84,0-1.25.06-.15.02-.21-.27-.02-.24.19,0,.24-.2.17-.35l-.49-1.64h0Zm2.64-.09c-.06-.19-.12-.41-.31-.5-.13-.05-.36,0-.35-.2.1-.14.35-.02.5-.06.36,0,.72-.07,1.07-.02.42.05.82.35.92.78.08.23.03.51-.19.64-.05.05-.27.11-.23.1.32.13.59.37.75.68.08.14.13.31.25.43.14.11.16-.09.18-.18.19-.09.28.17.2.31-.08.23-.36.27-.56.22-.18-.04-.32-.18-.4-.35-.18-.29-.29-.63-.54-.87-.12-.1-.3-.17-.45-.11-.04.07.02.16.03.23.07.21.11.43.2.63.08.18.29.22.46.22.17,0,.18.3-.02.23-.32,0-.65-.04-.97.02-.12,0-.28.07-.36-.05-.11-.23.22-.12.29-.25.05-.15-.03-.3-.07-.45l-.43-1.46h0Zm.69.49c.05.18.29.08.43.08.15-.02.24-.18.21-.32-.04-.24-.1-.51-.29-.68-.16-.12-.38-.12-.57-.09-.08.07,0,.18.01.27l.21.74h0Zm3.64-1.36c.16-.03.17.16.2.27.04.15.1.3.14.45-.07.14-.26.02-.27-.11-.07-.14-.15-.32-.33-.33-.23-.02-.45,0-.68,0-.12.04-.02.21,0,.3l.21.73c.14,0,.28,0,.41-.06.15-.09-.06-.32.1-.38.2-.04.19.21.23.34.04.25.16.48.22.72-.07.15-.28.02-.28-.12-.04-.16-.2-.24-.35-.24-.07.01-.29-.06-.23.07l.26.84c.06.16.23.2.38.19.21,0,.45.03.62-.12.14-.12.04-.31.08-.45.14-.1.28.05.26.2.03.18.07.37.11.55-.03.1-.16.07-.24.08l-1.65.04c-.14-.01-.32.09-.43-.03-.14-.2.16-.16.25-.25.1-.12.02-.28-.01-.41l-.47-1.65c-.05-.17-.14-.37-.34-.39-.13,0-.32-.05-.26-.22.16-.06.35,0,.52-.02l1.56-.03h0Zm-17.34,7.06c-.05-.2-.11-.46-.34-.51-.13,0-.34-.03-.26-.21.16-.07.36-.02.53-.04.43-.02.87-.13,1.3-.01.63.15,1.18.64,1.36,1.27.12.39.14.86-.12,1.2-.27.36-.74.46-1.17.46-.33,0-.65,0-.97.06-.12.08-.33-.05-.22-.19.14-.04.35-.08.31-.28l-.19-.82-.23-.94h0Zm.87,1.31c.05.17.07.38.21.51.15.09.33.05.48.04.25-.03.43-.26.47-.5.07-.41-.04-.83-.2-1.2-.14-.32-.42-.58-.76-.65-.2-.04-.41-.06-.61-.02-.04.06.01.15.02.22l.39,1.61h0Zm3.73-2.38c.17-.03.16.16.19.28.03.15.08.29.11.44-.07.14-.26.03-.26-.1-.06-.14-.14-.31-.31-.32-.23-.01-.45.01-.67.03-.12.05-.03.21-.02.31l.18.73c.14,0,.31,0,.43-.09.11-.1-.07-.33.11-.37.2-.02.16.24.19.37.03.24.13.46.18.69-.06.15-.28.03-.27-.11-.04-.17-.21-.24-.37-.22-.08.01-.26-.04-.2.09.07.28.12.56.22.83.05.16.23.19.37.18.22-.01.48.01.64-.16.13-.12,0-.32.09-.45.15-.09.26.08.23.22.02.18.05.35.09.53-.03.11-.16.08-.25.09l-1.62.1c-.14,0-.29.08-.41,0-.14-.15.05-.22.17-.24.15-.05.14-.24.1-.36l-.41-1.74c-.04-.16-.13-.36-.32-.38-.12.02-.32-.04-.24-.21.16-.06.34-.02.51-.04l1.55-.1h0Zm3.43,2.21c.02.17.15.31.31.33.13.05.32-.02.39.13.05.19-.2.13-.31.14-.3,0-.61-.01-.91.04-.15,0-.3.05-.45.03-.15-.06-.08-.27.08-.24.14-.03.33-.07.37-.24.02-.14-.04-.28-.07-.42l-.34-1.49c-.02-.18-.2-.18-.34-.16-.12,0-.31.09-.35-.09-.02-.18.25-.14.35-.22l.58-.2c.11-.03.16.08.17.17l.5,2.21h0Z"/>
            <path class="cls-9" d="m268.12,158.99c-.04-.2-.15-.42-.36-.45-.15-.03-.35.02-.41.18-.06.2.02.44.19.55.14.11.31.17.47.24.03-.06.13-.19.13-.3,0-.08,0-.15-.02-.23h0Zm.44,1.56c-.05-.26-.3-.41-.53-.51-.1-.02-.24-.15-.29-.1-.16.14-.24.38-.17.6.06.26.25.52.53.54.18.02.4-.06.46-.26.03-.09.02-.18,0-.27h0Zm.47-.11c.07.26-.03.55-.25.7-.31.22-.72.23-1.06.12-.31-.09-.57-.36-.63-.69-.06-.26.04-.56.27-.71.05-.05.26-.08.09-.12-.26-.13-.52-.35-.58-.66-.06-.26.06-.56.29-.69.45-.25,1.1-.1,1.36.36.11.2.14.46,0,.66-.07.1-.17.21-.3.24.26.05.49.21.65.43.07.1.12.22.15.34h0Zm1.72.3c.13,0,.27-.07.29-.21.04-.11-.04-.33.13-.32.16.01.15.2.16.32.01.21,0,.47-.18.61-.13.09-.29.05-.44.05-.3-.01-.59-.07-.89-.04-.12.01-.26.15-.38.05-.1-.12-.04-.28,0-.41.1-.33.33-.6.58-.83.18-.17.38-.35.4-.61.02-.22-.04-.45-.15-.64-.15-.24-.5-.33-.74-.17-.12.08-.22.27-.12.4.11.09.32,0,.37.19.07.13,0,.32-.16.32-.23.04-.44-.15-.5-.37-.1-.27.01-.61.26-.76.26-.17.6-.16.89-.09.3.08.55.31.64.61.08.23.08.5-.04.72-.2.39-.61.58-.88.9-.08.08-.13.2-.1.32.04-.11.21-.07.31-.09.18,0,.36.04.55.04h0Zm2.08-.23c.02.17.14.31.31.34.12.05.3,0,.38.12.08.19-.18.15-.28.15-.31-.01-.63-.03-.94.01-.15,0-.31.04-.46.02-.15-.07-.07-.27.08-.24.14-.03.33-.06.38-.23.02-.14-.04-.28-.06-.42l-.31-1.49c-.01-.15-.17-.19-.29-.17-.12-.01-.3.09-.38-.05-.09-.19.18-.19.29-.24l.64-.21c.11-.02.16.08.16.17l.45,2.22h0Z"/>
          </g>
        </g>
        <g>
          <path class="cls-16" d="m257.78,116.64l-1.99,2.41c-.63,2.82.94,4.94,4.04,6.79,2.51,1.59,7.16,1.98,8.62.71l-7.24-7.03-3.43-2.87h0Z"/>
          <path class="cls-15" d="m272.46,189.2l-1.07-1.3c-4.52,6.08-10.17,11.53-17.23,15.37,7.96-2.3,13.18-8.21,18.3-14.07Zm-8.16,19.21c2.81-5.8,6.2-11.59,9.61-17.39l-1.13-1.42c-3.88,6.56-8.44,14.35-8.48,18.8h0Zm22.04-61.6c-.52-2.28-1.2-4.75-2.28-7.02-1.4-2.92-3.5-5.83-6.25-9.04-4.96-5.47-9.92-10.76-16.86-14.66l.04-.07.04.02h.09l-.09-.11h.25l-.13-.14h.23l-.19-.22h.24l-.17-.18h.26l-.14-.2.21.02-.2-.21.29-.06-.23-.15.25-.05-.21-.15.31-.1-.27-.16.34-.15-.33-.25.35-.12-.38-.16.32-.17-.38-.07.26-.3-.37.02.17-.32-.35.03s-.02-.02-.02-.03l.19-.24-.36.06.16-.33-.34.17.1-.38-.33.23.05-.39-.31.27.03-.37-.27.29.02-.39-.27.33-.03-.38-.21.3-.11-.36-.18.36-.09-.39-.17.39-.08-.39-.14.39-.11-.36-.11.36-.08-.32-.13.38-.12-.36-.13.41-.15-.37-.07.44-.19-.36-.02.43-.2-.32v.42s-.23-.31-.23-.31l.02.37-.23-.2.11.4-.28-.16.1.35-.23-.13.08.34-.21-.07.11.25s-.01.02-.02.03l-.16-.03.09.2h0c-.2.56-.22,1.23-.19,1.89,0,.12.31.25.36.33.15.23.12.36.12.36-.84,1.39-1.59,2.46-1.68,4.05.68-.87,1.38-1.94,2.36-1.94-.49.83-.72,3.32-.17,3.7l.41-.73c.01.58.1.96.21,1.25.17-.35.34-.68.51-.94.04.81.14,1.46.37,1.78.23-.4.53-.64.85-.85-.11.46-.27.9-.21,1.45.34-.59.68-.94,1.02-1.35-.2.85-.02,1.49.22,2.43.21-1.12.29-1.24.8-1.71.06,1.02-.14,1.95.08,2.53.46-.9.77-.77,1.05-1.36-.05.85-.22,1.77,0,2.53.18-.76.66-1.17,1.03-1.44.03,1.18.3.99-.42,1.99.31.14,1.34-.2,1.9-.45-.27.63-.19,1.13-.46,1.58.57-.29,1.06-.76,1.53-1.25-.22.73-.81,1.45-.51,2.18.13-.68.67-1.24,1.18-1.34-.08.38-.13,1.17-.67,1.55,1.29.14,1.8-.75,2.45-1.45-.08.73-.06,1.31.82,2.34-.18-1.31.13-1.04.71-1.82.28,1.16.6,2.38,1.79,3.24-.49-1.22-.58-1.85-.3-2.62.15.79.89,1.75,1.07,2.5.11-.83.23-1.64.51-2.18.34.95.63,1.92.71,3.01.26-.54.47-1.09.61-1.66,10.42,11.1,12.75,25.2,1.33,40.1,4.1-2.82,5.16-7.3,7.44-11.12-2.23,5-3.22,10.62-7.14,14.75,3.8-3.34,4.6-6.39,6.88-9.61-2.43,6.73-5.8,14.1-10.47,20.84l2.49,2.79,2.16-3.68c4.95-8.3,13.02-20.18,8.93-38.28h0Z"/>
        </g>
        <path class="cls-19" d="m256.39,114.43c-.53.12-.74.35-1.12.78.48.11.89.13,1.33.14.14-.01.18-.19.15-.31l-.07-.51c-.01-.12-.32-.11-.46-.05l.16-.04h0Z"/>
        <path class="cls-3" d="m255.27,115.2c.18-.06.37-.12.56-.16l.57-.1c-.18.06-.37.12-.56.16l-.57.1Z"/>
        <ellipse class="cls-37" cx="258.78" cy="114.5" rx=".41" ry=".44"/>
        <ellipse class="cls-10" cx="258.87" cy="114.41" rx=".18" ry=".19"/>
        <path class="cls-5" d="m264.32,208.26l.81-2.39.94-2.34,2.18-4.54,2.46-4.39,1.3-2.15,1.33-2.13-1.28,2.16-1.27,2.17-2.44,4.4-2.2,4.52-.97,2.32-.86,2.37h0Zm-9.95-5.09l2.58-1.28,2.48-1.46c1.62-1.03,3.16-2.18,4.61-3.45,1.46-1.26,2.81-2.63,4.1-4.07.64-.72,1.27-1.46,1.88-2.21.61-.75,1.21-1.51,1.8-2.28-.57.78-1.15,1.55-1.75,2.31-.6.76-1.22,1.5-1.86,2.23-1.27,1.46-2.64,2.83-4.09,4.1-1.46,1.26-3.01,2.42-4.64,3.44-.82.51-1.65.99-2.5,1.43-.85.44-1.72.85-2.6,1.23h0Zm19.69-15.79l1.16-1.77,1.11-1.81,2.09-3.69,1.98-3.76,1.94-3.78-.92,1.92-.94,1.91-1.96,3.77-2.12,3.68-2.35,3.53h0Zm3.11-13.51c.9-1.09,1.73-2.25,2.48-3.45.75-1.2,1.42-2.46,2.01-3.75,1.18-2.59,2.03-5.32,2.63-8.11l.22-1.05c.06-.35.11-.7.16-1.06.09-.71.16-1.42.21-2.13.1-1.42.09-2.85-.02-4.27-.11-1.42-.33-2.83-.65-4.22-.32-1.39-.75-2.75-1.27-4.08.54,1.32.98,2.68,1.32,4.06.33,1.39.56,2.8.68,4.23.12,1.42.12,2.86.04,4.29-.04.71-.11,1.43-.2,2.13-.04.36-.1.71-.15,1.06l-.21,1.05c-.61,2.79-1.48,5.53-2.67,8.12-.6,1.29-1.28,2.55-2.04,3.75-.76,1.2-1.61,2.34-2.53,3.42h0Zm-.87-3.07c.97-.95,1.83-2.01,2.59-3.15.76-1.13,1.42-2.33,2-3.56l1.6-3.77.72-1.92.18-.48.16-.49.31-.98h0c.27-1.35.41-2.73.43-4.12s-.09-2.77-.3-4.14-.53-2.72-.91-4.05c-.38-1.33-.84-2.64-1.35-3.93l1.4,3.91c.4,1.33.71,2.68.94,4.06.22,1.37.33,2.76.32,4.16s-.15,2.78-.41,4.15h0s0,0,0,0l-.31.98-.16.49-.18.48-.73,1.92-1.62,3.77c-.6,1.23-1.26,2.43-2.03,3.56-.77,1.13-1.65,2.18-2.63,3.11h0Zm-3.07,15.69l1.89-2.69.94-1.35.92-1.36c.56-.94,1.05-1.92,1.53-2.91l1.43-2.97c.94-1.98,1.85-3.98,2.62-6.04.78-2.06,1.39-4.17,1.82-6.33.45-2.15.75-4.34,1-6.53.23-2.19.25-4.4.02-6.59s-.72-4.35-1.44-6.42c-.71-2.08-1.65-4.08-2.69-6,1.06,1.92,2.01,3.91,2.75,5.98.73,2.08,1.23,4.24,1.46,6.43s.22,4.41,0,6.61c-.24,2.19-.54,4.38-.98,6.54s-1.06,4.28-1.85,6.34-1.7,4.06-2.64,6.04l-1.44,2.96c-.48.99-.97,1.97-1.54,2.91-.28.47-.61.91-.93,1.36l-.95,1.34-1.91,2.67h0Zm1.46,1.62l3.67-6.23c1.19-2.1,2.37-4.2,3.41-6.38s1.95-4.42,2.64-6.74c.34-1.16.63-2.33.87-3.52.12-.59.23-1.19.31-1.79l.25-1.8c.31-2.4.49-4.82.49-7.24s-.19-4.84-.63-7.22-1.13-4.71-2.1-6.92c-.96-2.21-2.2-4.3-3.67-6.21,1.49,1.89,2.74,3.97,3.73,6.18.98,2.21,1.68,4.55,2.12,6.93s.64,4.81.65,7.24-.17,4.85-.47,7.26l-.25,1.8c-.09.6-.2,1.2-.32,1.79-.24,1.19-.54,2.36-.88,3.52-.69,2.32-1.61,4.57-2.66,6.74s-2.24,4.28-3.43,6.37c-1.2,2.09-2.46,4.15-3.72,6.2h0Zm-14.69-70.74c.25,0,.5.02.75.06.25.04.49.09.74.16.48.13.96.31,1.42.51.92.41,1.78.95,2.59,1.56.8.62,1.55,1.3,2.25,2.04l1.01,1.14.93,1.2-.97-1.17-1.03-1.11c-.71-.72-1.45-1.4-2.25-2.01-.8-.61-1.65-1.15-2.56-1.57-.45-.22-.92-.4-1.4-.54-.48-.14-.97-.25-1.47-.27h0Z"/>
        <g>
          <path class="cls-2" d="m268.65,123.19s1.62.97,2.5,2.39c0,0-2.49-.47-4.26-2.5"/>
          <path class="cls-5" d="m268.65,123.19c.25.14.49.3.73.47l.68.55c.22.19.42.41.61.63.19.22.37.46.53.71l.07.12-.13-.03c-.41-.09-.81-.23-1.2-.38s-.77-.34-1.13-.56c-.72-.43-1.39-.97-1.92-1.62.57.61,1.24,1.13,1.96,1.54.36.2.74.38,1.12.54.38.16.78.28,1.18.37l-.06.09c-.15-.24-.32-.48-.51-.7s-.39-.43-.59-.63l-.65-.57-.69-.52h0Z"/>
          <path class="cls-2" d="m265.06,122.71l4.37,2.68s-.85-1.87-2.67-2.68"/>
          <path class="cls-5" d="m265.06,122.71l2.19,1.34,1.09.67.55.32.56.29-.07.08c-.14-.29-.3-.56-.49-.82-.18-.26-.38-.51-.6-.74-.22-.23-.46-.45-.71-.64-.25-.19-.53-.36-.81-.5.3.12.58.28.84.46s.51.39.74.62c.23.23.44.48.63.74.19.26.36.54.51.83l.07.13-.13-.06c-.41-.18-.76-.41-1.13-.63l-1.09-.68-2.14-1.42h0Z"/>
          <path class="cls-2" d="m266.58,121.46s1.99.86,2.44,2.36c0,0-3.57-1.53-4.21-2.34"/>
          <path class="cls-5" d="m266.58,121.46c.27.11.52.24.77.39.25.15.48.32.71.51.22.19.43.41.6.64.17.24.32.5.41.79l.04.12-.11-.05-1.1-.5-1.08-.54-1.05-.6-.5-.34c-.16-.12-.32-.25-.45-.41.13.15.3.27.46.39l.51.32,1.06.57,2.19,1.01-.08.07c-.08-.27-.22-.53-.38-.76-.17-.23-.36-.45-.58-.64-.21-.19-.44-.37-.68-.53-.24-.16-.49-.31-.74-.44h0Z"/>
          <path class="cls-2" d="m263.57,123.01s3.51,2.56,4.55,2.56c0,0-1.03-1.75-2.85-2.56"/>
          <path class="cls-5" d="m263.57,123.01l1.1.73,1.11.7,1.14.65.59.27c.2.08.41.16.61.16l-.05.08c-.17-.27-.36-.53-.57-.78s-.43-.48-.66-.7-.48-.42-.75-.61-.54-.35-.83-.49c.6.24,1.14.61,1.63,1.04.24.22.47.45.68.7.21.25.41.51.58.79l.05.09h-.1c-.24,0-.45-.09-.65-.17-.2-.08-.4-.18-.6-.28l-1.14-.66-1.1-.73-1.06-.78h0Z"/>
          <path class="cls-2" d="m263.57,123.82s1.83,1.57,2.87,1.57c0,0-1.03-1.75-2.85-2.56"/>
          <path class="cls-5" d="m263.57,123.82l.67.49.69.45c.24.14.48.27.73.38.13.05.25.1.38.14.13.04.26.06.39.06l-.05.08c-.17-.27-.36-.53-.57-.78-.21-.25-.43-.48-.66-.7s-.48-.42-.75-.61-.54-.35-.83-.49c.6.24,1.14.61,1.63,1.04.24.22.47.45.68.7.21.25.41.51.58.79l.05.08h-.1c-.29,0-.56-.1-.82-.21s-.5-.25-.73-.4l-.68-.48-.64-.54h0Z"/>
          <path class="cls-2" d="m262.66,120.29s3.81,2.75,4.26,4.25c0,0-3.44-1.61-4.08-2.42"/>
          <path class="cls-5" d="m262.66,120.29l1.22.9,1.16.97c.38.34.74.69,1.08,1.07.17.19.33.39.48.6.15.21.29.43.36.69l.04.13-.12-.06-1.07-.53-1.05-.56-1.02-.62-.49-.35c-.16-.12-.31-.25-.43-.41.13.15.29.27.45.39l.5.33,1.03.59,2.13,1.07-.08.07c-.07-.23-.2-.45-.34-.66-.15-.21-.3-.4-.47-.59-.33-.38-.7-.73-1.07-1.07l-1.14-1-1.18-.95h0Z"/>
        </g>
        <g>
          <path class="cls-23" d="m241.52,197.84c-2.58,1.96-9.8,2.92-10.8,2.58,5.25-4.45,10.42-4.56,10.8-2.58h0Zm36.85,2.39c2.78,2.57,11.15,4.33,12.4,4.01-5.57-5.79-11.67-6.38-12.4-4.01Z"/>
          <path class="cls-24" d="m241.5,197.83c-.38-1.98-5.52-1.86-10.76,2.57,5.52-1.85,10.16-2.91,10.76-2.57Zm36.93,2.37c.72-2.37,6.76-1.8,12.34,4.01-6.28-2.7-11.59-4.36-12.34-4.01Z"/>
        </g>
      </g>
    </g>
  </g>
</svg>