<?xml version="1.0" encoding="UTF-8"?>
<svg id="Layer_2" data-name="Layer 2" xmlns="http://www.w3.org/2000/svg" viewBox="0 0 520 320">
  <defs>
    <style>
      .cls-1 {
        fill: #a3ab78;
      }

      .cls-1, .cls-2, .cls-3, .cls-4, .cls-5, .cls-6 {
        stroke-width: 0px;
      }

      .cls-2 {
        fill: #009e49;
      }

      .cls-4 {
        fill: #fff;
      }

      .cls-5 {
        fill: #ce1126;
      }

      .cls-6 {
        fill: #fcd116;
      }
    </style>
  </defs>
  <g id="_500x300_Background" data-name="500x300 Background">
    <rect class="cls-1" width="520" height="320" rx="10" ry="10"/>
  </g>
  <g id="Guyana">
    <g>
      <g>
        <polygon class="cls-2" points="510 310 510 160 10 310 510 310"/>
        <polygon class="cls-2" points="10 10 510 160 510 10 10 10"/>
      </g>
      <polygon class="cls-4" points="10 310 510 160 10 10 53.54 36.15 466.01 160 53.54 283.85 10 310"/>
      <polygon class="cls-6" points="466.01 160 53.54 36.15 260 160 53.54 283.85 466.01 160"/>
      <polygon class="cls-3" points="53.54 36.15 10 10 10 23.07 10 27.46 230.82 160 10 292.54 10 296.93 10 310 53.54 283.85 260 160 53.54 36.15"/>
      <polygon class="cls-5" points="10 27.46 10 292.54 230.82 160 10 27.46"/>
    </g>
  </g>
</svg>