<?xml version="1.0" encoding="UTF-8"?>
<svg id="Layer_2" data-name="Layer 2" xmlns="http://www.w3.org/2000/svg" viewBox="0 0 520 320">
  <defs>
    <style>
      .cls-1 {
        fill: #a3ab78;
      }

      .cls-1, .cls-2, .cls-3, .cls-4 {
        stroke-width: 0px;
      }

      .cls-2 {
        fill: none;
      }

      .cls-3 {
        fill: #fff;
      }

      .cls-4 {
        fill: #0073cf;
      }
    </style>
  </defs>
  <g id="_500x300_Background" data-name="500x300 Background">
    <rect class="cls-1" width="520" height="320" rx="10" ry="10"/>
  </g>
  <g id="Honduras">
    <g>
      <polygon class="cls-2" points="182.23 128.14 178.58 116.63 182.23 128.14 182.23 128.14"/>
      <polygon class="cls-2" points="250.61 173.39 250.59 173.47 260.09 166.37 260.04 166.34 250.61 173.39"/>
      <polygon class="cls-2" points="169.12 146.79 176.17 141.52 169.14 146.71 169.12 146.79"/>
      <polygon class="cls-2" points="269.56 173.39 269.68 173.47 266.02 161.96 275.56 154.83 265.93 161.96 269.56 173.39"/>
      <rect class="cls-2" x="244.7" y="154.82" width="11.69" height="0"/>
      <polygon class="cls-2" points="169.14 196.77 169.12 196.85 178.62 189.75 178.58 189.71 169.14 196.77"/>
      <polygon class="cls-2" points="332.06 146.79 340.12 140.76 332.11 146.62 332.06 146.79"/>
      <polygon class="cls-2" points="182.23 178.2 178.58 166.69 182.23 178.2 182.23 178.2"/>
      <polygon class="cls-2" points="351.03 146.71 351.15 146.79 347.49 135.28 357.04 128.14 356.95 128.14 347.4 135.28 351.03 146.71"/>
      <polygon class="cls-2" points="345.17 178.2 341.51 166.69 345.17 178.2 345.17 178.2"/>
      <polygon class="cls-2" points="332.11 196.68 332.06 196.85 341.56 189.75 341.51 189.71 332.11 196.68"/>
      <polygon class="cls-2" points="356.95 178.2 347.4 185.34 351.03 196.77 351.15 196.85 347.49 185.34 357.04 178.2 356.95 178.2"/>
      <polygon class="cls-2" points="263.7 154.82 260.04 143.31 263.7 154.82 275.57 154.82 275.57 154.82 263.7 154.82"/>
      <rect class="cls-4" x="10" y="209.97" width="500" height="100.03"/>
      <rect class="cls-4" x="10" y="10" width="500" height="100.03"/>
      <path class="cls-3" d="m510,110.03H10v99.94h500v-99.94Zm-183.83,18.11h11.69l3.66-11.51,3.66,11.51h11.87l-9.55,7.14,3.66,11.51-.12-.09.03.09-9.55-7.05-1.39,1.02-8.07,6.03.05-.17-.23.17,3.66-11.51-9.55-7.14h.18Zm-137.95,68.71l-9.59-7.11-9.5,7.11.03-.09-.12.09,3.66-11.51-9.55-7.14h11.78l3.66-11.51,3.66,11.51h11.87l-9.55,7.14,3.66,11.51Zm-3.66-61.57l3.66,11.51-9.64-7.05-2.41,1.78-7.05,5.27.03-.09-.12.09,3.66-11.51-9.55-7.14h11.78l3.66-11.51,3.66,11.51h11.87l-9.55,7.14Zm91.02,19.54h0s-9.54,7.14-9.54,7.14l3.66,11.51-.12-.09.03.09-9.5-7.11-9.5,7.11.03-.09-.12.09,3.66-11.51-9.64-7.14h.18,0s11.69,0,11.69,0l3.66-11.51,3.66,11.51h11.87,0s0,0,0,0Zm75.58,42.03l-.12-.09.03.09-9.5-7.11-9.5,7.11.05-.17-.23.17,3.66-11.51-9.55-7.14h11.87l3.66-11.51,3.66,11.51h11.87l-9.55,7.14,3.66,11.51Z"/>
      <polygon class="cls-4" points="260.04 143.31 256.39 154.82 256.39 154.82 244.7 154.82 244.52 154.82 254.16 161.96 250.5 173.47 250.61 173.39 260.04 166.34 260.09 166.37 269.59 173.47 269.56 173.39 265.93 161.96 275.56 154.83 275.57 154.82 275.57 154.82 263.7 154.82 260.04 143.31"/>
      <polygon class="cls-4" points="331.88 146.79 332.11 146.62 340.12 140.76 341.51 139.74 351.06 146.79 351.03 146.71 347.4 135.28 356.95 128.14 345.17 128.14 341.51 116.63 337.86 128.14 326.17 128.14 325.99 128.14 335.54 135.28 331.88 146.79"/>
      <polygon class="cls-4" points="356.95 178.2 345.17 178.2 345.17 178.2 341.51 166.69 337.86 178.2 326.17 178.2 325.99 178.2 335.54 185.34 331.88 196.85 332.11 196.68 341.51 189.71 341.56 189.75 351.06 196.85 351.03 196.77 347.4 185.34 356.95 178.2"/>
      <polygon class="cls-4" points="182.23 128.14 178.58 116.63 174.92 128.14 163.23 128.14 163.14 128.14 172.69 135.28 169.03 146.79 169.14 146.71 176.17 141.52 178.58 139.74 188.21 146.79 184.55 135.28 194.1 128.14 182.23 128.14 182.23 128.14"/>
      <polygon class="cls-4" points="182.23 178.2 182.23 178.2 178.58 166.69 174.92 178.2 163.23 178.2 163.14 178.2 172.69 185.34 169.03 196.85 169.14 196.77 178.58 189.71 178.62 189.75 188.21 196.85 184.55 185.34 194.1 178.2 182.23 178.2"/>
    </g>
  </g>
</svg>