<?xml version="1.0" encoding="UTF-8"?>
<svg id="Layer_2" data-name="Layer 2" xmlns="http://www.w3.org/2000/svg" viewBox="0 0 520 320">
  <defs>
    <style>
      .cls-1 {
        fill: #a3ab78;
      }

      .cls-1, .cls-2, .cls-3, .cls-4, .cls-5 {
        stroke-width: 0px;
      }

      .cls-2 {
        fill: #128807;
      }

      .cls-3 {
        fill: #f93;
      }

      .cls-4 {
        fill: #fff;
      }

      .cls-5 {
        fill: #008;
      }
    </style>
  </defs>
  <g id="_500x300_Background" data-name="500x300 Background">
    <rect class="cls-1" width="520" height="320" rx="10" ry="10"/>
  </g>
  <g id="India">
    <g>
      <rect class="cls-3" x="10" y="10" width="500" height="99.98"/>
      <rect class="cls-2" x="10" y="210.02" width="500" height="99.98"/>
      <g>
        <rect class="cls-4" x="10" y="109.98" width="500" height="99.98"/>
        <path class="cls-4" d="m286.51,139.79c-.61-.75-.48-1.84.27-2.45-.61-.75-1.23-1.43-1.91-2.11l-14.02,15.72-5.58,4.36c.27.27.48.54.68.88l5.65-4.22,18.85-9.46-17.63,11.57-6.53,2.79c.14.34.34.68.41,1.02l6.6-2.65,20.69-4.29-20.01,6.6-7.01,1.02c.07.34.14.75.14,1.09l7.01-.82,21.03,1.23c0-.95-.07-1.91-.14-2.86-.95.07-1.77-.54-1.91-1.5-.14-.95.54-1.84,1.5-1.97-.34-1.91-.82-3.68-1.5-5.44-.88.34-1.91-.07-2.25-.95s.07-1.91.88-2.25c-.82-1.7-1.77-3.33-2.86-4.9-.75.48-1.84.34-2.38-.41Z"/>
        <path class="cls-4" d="m260.37,152.99c.41,0,.75.07,1.09.14l1.02-7.01,6.6-19.94-4.29,20.62-2.65,6.53c.34.14.68.27,1.02.41l2.79-6.47,11.57-17.56-9.46,18.78-4.22,5.65c.34.2.61.41.88.68l4.36-5.58,15.72-14.02c-.68-.68-1.36-1.29-2.11-1.91-.61.75-1.7.88-2.45.27s-.88-1.63-.34-2.45c-1.57-1.09-3.2-2.04-4.9-2.86-.41.88-1.36,1.29-2.25.88-.88-.34-1.29-1.36-.95-2.25-1.77-.61-3.61-1.09-5.51-1.43-.14.95-1.02,1.57-1.97,1.5-.95-.14-1.63-.95-1.5-1.91-.95-.07-1.91-.14-2.86-.14l1.23,21.03-.82,7.01Z"/>
        <path class="cls-4" d="m267.04,160.34c0,.41-.07.75-.14,1.09l7.01,1.02,20.01,6.6-20.69-4.29-6.6-2.65c-.14.34-.27.68-.41,1.02l6.53,2.79,17.63,11.57-18.78-9.46-5.65-4.22c-.2.34-.41.61-.68.88l5.58,4.36,14.02,15.72c.68-.68,1.29-1.36,1.91-2.11-.75-.61-.88-1.7-.27-2.45s1.63-.88,2.45-.34c1.09-1.57,2.04-3.2,2.86-4.9-.88-.41-1.29-1.36-.88-2.25.34-.88,1.36-1.29,2.25-.95.61-1.77,1.16-3.61,1.5-5.44-.95-.14-1.57-1.02-1.5-1.97.14-.95.95-1.63,1.91-1.5.07-.95.14-1.91.14-2.86l-21.03,1.23-7.15-.88Z"/>
        <path class="cls-4" d="m255.34,154.83c.27-.27.54-.48.88-.68l-4.22-5.65-9.46-18.78,11.57,17.56,2.79,6.47c.34-.14.68-.34,1.02-.41l-2.65-6.53-4.29-20.62,6.6,19.94,1.02,7.01c.34-.07.75-.14,1.09-.14l-.82-7.01,1.23-21.03h0c-.95,0-1.91.07-2.86.14.07.95-.54,1.77-1.5,1.91-.95.14-1.84-.54-1.97-1.5-1.91.34-3.74.82-5.51,1.43.34.88-.07,1.91-.95,2.25s-1.91-.07-2.25-.88c-1.7.82-3.33,1.77-4.9,2.86.54.75.41,1.84-.34,2.45s-1.84.48-2.45-.27c-.75.61-1.43,1.23-2.11,1.91l15.72,14.02,4.36,5.58Z"/>
        <path class="cls-4" d="m264.73,165.17c-.27.27-.54.48-.88.68l4.22,5.65,9.46,18.78-11.57-17.56-2.79-6.47c-.34.14-.68.34-1.02.41l2.65,6.53,4.29,20.62-6.6-19.94-1.02-7.01c-.34.07-.75.14-1.09.14l.82,7.01-1.23,21.03c.95,0,1.91-.07,2.86-.14-.07-.95.54-1.77,1.5-1.91.95-.14,1.84.54,1.97,1.5,1.91-.34,3.74-.82,5.51-1.43-.34-.88.07-1.91.95-2.25s1.91.07,2.25.88c1.7-.82,3.33-1.77,4.9-2.86-.54-.75-.41-1.84.34-2.45s1.84-.48,2.45.27c.75-.61,1.43-1.23,2.11-1.91l-15.72-14.02-4.36-5.58Z"/>
        <path class="cls-4" d="m259.69,167.01c-.41,0-.75-.07-1.09-.14l-1.02,7.01-6.6,19.94,4.29-20.62,2.65-6.53c-.34-.14-.68-.27-1.02-.41l-2.79,6.47-11.57,17.56,9.46-18.78,4.22-5.65c-.34-.2-.61-.41-.88-.68l-4.36,5.58-15.72,14.02c.68.68,1.36,1.29,2.11,1.91.61-.75,1.7-.88,2.45-.27s.88,1.63.34,2.45c1.57,1.09,3.2,2.04,4.9,2.86.41-.88,1.36-1.29,2.25-.88.88.34,1.29,1.36.95,2.25,1.77.61,3.61,1.09,5.51,1.43.14-.95,1.02-1.57,1.97-1.5.95.14,1.63.95,1.5,1.91.95.07,1.91.14,2.86.14l-1.23-21.03.82-7.01Z"/>
        <path class="cls-4" d="m253.02,159.66c0-.41.07-.75.14-1.09l-7.01-1.02-20.01-6.6,20.62,4.29,6.6,2.65c.14-.34.27-.68.41-1.02l-6.53-2.79-17.63-11.57,18.85,9.46,5.65,4.22c.2-.34.41-.61.68-.88l-5.58-4.36-14.02-15.72c-.68.68-1.29,1.36-1.91,2.11.75.61.88,1.7.27,2.45s-1.63.88-2.45.34c-1.09,1.57-2.04,3.2-2.86,4.9.88.41,1.29,1.36.88,2.25-.34.88-1.36,1.29-2.25.95-.61,1.77-1.16,3.61-1.5,5.44.95.14,1.57,1.02,1.5,1.97-.14.95-.95,1.63-1.91,1.5-.07.95-.14,1.91-.14,2.86l21.03-1.23,7.15.88Z"/>
        <path class="cls-4" d="m254.79,164.7c-.27-.27-.48-.54-.68-.88l-5.65,4.22-18.85,9.46,17.63-11.57,6.53-2.79c-.14-.34-.34-.68-.41-1.02l-6.6,2.65-20.69,4.29,20.01-6.6,7.01-1.02c-.07-.34-.14-.75-.14-1.09l-7.01.82-21.03-1.23h0c0,.95.07,1.91.14,2.86.95-.07,1.77.54,1.91,1.5.14.95-.54,1.84-1.5,1.97.34,1.91.82,3.68,1.5,5.44.88-.34,1.91.07,2.25.95s-.07,1.91-.88,2.25c.82,1.7,1.77,3.33,2.86,4.9.75-.54,1.84-.41,2.45.34s.48,1.84-.27,2.45c.61.75,1.23,1.43,1.91,2.11l14.02-15.72,5.51-4.29Z"/>
      </g>
      <path class="cls-5" d="m260.03,119.98c-22.19,0-40.09,17.9-40.09,40.02s17.97,40.02,40.09,40.02,40.09-17.9,40.09-40.02-17.9-40.02-40.09-40.02Zm33.08,51.79c-.88-.34-1.91.07-2.25.95s.07,1.91.88,2.25c-.82,1.7-1.77,3.33-2.86,4.9-.75-.54-1.84-.41-2.45.34s-.48,1.84.27,2.45c-.61.75-1.23,1.43-1.91,2.11s-1.36,1.29-2.11,1.91c-.61-.75-1.7-.88-2.45-.27s-.88,1.63-.34,2.45c-1.57,1.09-3.2,2.04-4.9,2.86-.41-.88-1.36-1.29-2.25-.88-.88.34-1.29,1.36-.95,2.25-1.77.61-3.61,1.09-5.51,1.43-.14-.95-1.02-1.57-1.97-1.5-.95.14-1.63.95-1.5,1.91-.95.07-1.91.14-2.86.14s-1.91-.07-2.86-.14c.07-.95-.54-1.77-1.5-1.91-.95-.14-1.84.54-1.97,1.5-1.91-.34-3.74-.82-5.51-1.43.34-.88-.07-1.91-.95-2.25s-1.91.07-2.25.88c-1.7-.82-3.33-1.77-4.9-2.86.54-.75.41-1.84-.34-2.45s-1.84-.48-2.45.27c-.75-.61-1.43-1.23-2.11-1.91s-1.29-1.36-1.91-2.11c.75-.61.88-1.7.27-2.45s-1.63-.88-2.45-.34c-1.09-1.57-2.04-3.2-2.86-4.9.88-.41,1.29-1.36.88-2.25-.34-.88-1.36-1.29-2.25-.95-.61-1.77-1.16-3.61-1.5-5.44.95-.14,1.57-1.02,1.5-1.97-.14-.95-.95-1.63-1.91-1.5-.07-.95-.14-1.91-.14-2.86h0c0-.95.07-1.91.14-2.86.95.07,1.77-.54,1.91-1.5.14-.95-.54-1.84-1.5-1.97.34-1.91.82-3.68,1.5-5.44.88.34,1.91-.07,2.25-.95s-.07-1.91-.88-2.25c.82-1.7,1.77-3.33,2.86-4.9.75.54,1.84.41,2.45-.34s.48-1.84-.27-2.45c.61-.75,1.23-1.43,1.91-2.11s1.36-1.29,2.11-1.91c.61.75,1.7.88,2.45.27s.88-1.63.34-2.45c1.57-1.09,3.2-2.04,4.9-2.86.41.88,1.36,1.29,2.25.88.88-.34,1.29-1.36.95-2.25,1.77-.61,3.61-1.09,5.51-1.43.14.95,1.02,1.57,1.97,1.5.95-.14,1.63-.95,1.5-1.91.95-.07,1.91-.14,2.86-.14h0c.95,0,1.91.07,2.86.14-.07.95.54,1.77,1.5,1.91.95.14,1.84-.54,1.97-1.5,1.91.34,3.74.82,5.51,1.43-.34.88.07,1.91.95,2.25s1.91-.07,2.25-.88c1.7.82,3.33,1.77,4.9,2.86-.54.75-.41,1.84.34,2.45s1.84.48,2.45-.27c.75.61,1.43,1.23,2.11,1.91l-15.72,14.02-4.36,5.58c-.27-.27-.54-.48-.88-.68l4.22-5.65,9.46-18.78-11.57,17.56-2.79,6.47c-.34-.14-.68-.34-1.02-.41l2.65-6.53,4.29-20.62-6.6,19.94-1.02,7.01c-.34-.07-.75-.14-1.09-.14l.82-7.01-1.23-21.03-1.23,21.03.82,7.01c-.41,0-.75.07-1.09.14l-1.02-7.01-6.6-19.94,4.29,20.62,2.65,6.53c-.34.14-.68.27-1.02.41l-2.79-6.47-11.57-17.56,9.46,18.78,4.22,5.65c-.34.2-.61.41-.88.68l-4.36-5.58-15.72-14.02,14.02,15.72,5.58,4.36c-.27.27-.48.54-.68.88l-5.65-4.22-18.85-9.46,17.63,11.57,6.53,2.79c-.14.34-.34.68-.41,1.02l-6.6-2.65-20.62-4.29,20.01,6.6,7.01,1.02c-.07.34-.14.75-.14,1.09l-7.01-.82-21.03,1.23,21.03,1.23,7.01-.82c0,.41.07.75.14,1.09l-7.01,1.02-20.01,6.6,20.69-4.29,6.6-2.65c.14.34.27.68.41,1.02l-6.53,2.79-17.63,11.57,18.85-9.46,5.65-4.22c.2.34.41.61.68.88l-5.58,4.36-14.02,15.72,15.72-14.02,4.36-5.58c.27.27.54.48.88.68l-4.22,5.65-9.46,18.78,11.57-17.56,2.79-6.47c.34.14.68.34,1.02.41l-2.65,6.53-4.29,20.62,6.6-19.94,1.02-7.01c.34.07.75.14,1.09.14l-.82,7.01,1.23,21.03,1.23-21.03-.82-7.01c.41,0,.75-.07,1.09-.14l1.02,7.01,6.6,19.94-4.29-20.62-2.65-6.53c.34-.14.68-.27,1.02-.41l2.79,6.47,11.57,17.56-9.46-18.78-4.22-5.65c.34-.2.61-.41.88-.68l4.36,5.58,15.72,14.02-14.02-15.72-5.58-4.36c.27-.27.48-.54.68-.88l5.65,4.22,18.85,9.46-17.63-11.57-6.53-2.79c.14-.34.34-.68.41-1.02l6.6,2.65,20.69,4.29-20.01-6.6-7.01-1.02c.07-.34.14-.75.14-1.09l7.01.82,21.03-1.23-21.03-1.23-7.01.82c0-.41-.07-.75-.14-1.09l7.01-1.02,20.01-6.6-20.69,4.29-6.6,2.65c-.14-.34-.27-.68-.41-1.02l6.53-2.79,17.63-11.57-18.85,9.46-5.65,4.22c-.2-.34-.41-.61-.68-.88l5.58-4.36,14.02-15.72c.68.68,1.29,1.36,1.91,2.11-.75.61-.88,1.7-.27,2.45s1.63.88,2.45.34c1.09,1.57,2.04,3.2,2.86,4.9-.88.41-1.29,1.36-.88,2.25.34.88,1.36,1.29,2.25.95.61,1.77,1.16,3.61,1.5,5.44-.95.14-1.57,1.02-1.5,1.97.14.95.95,1.63,1.91,1.5.07.95.14,1.91.14,2.86s-.07,1.91-.14,2.86c-.95-.07-1.77.54-1.91,1.5-.14.95.54,1.84,1.5,1.97-.48,1.84-.95,3.68-1.57,5.44Z"/>
    </g>
  </g>
</svg>