<?xml version="1.0" encoding="UTF-8"?>
<svg id="Layer_2" data-name="Layer 2" xmlns="http://www.w3.org/2000/svg" viewBox="0 0 520 320">
  <defs>
    <style>
      .cls-1 {
        fill: #a3ab78;
      }

      .cls-1, .cls-2, .cls-3, .cls-4 {
        stroke-width: 0px;
      }

      .cls-2 {
        fill: #fff;
      }

      .cls-3 {
        fill: #da0000;
      }

      .cls-4 {
        fill: #239f40;
      }
    </style>
  </defs>
  <g id="_500x300_Background" data-name="500x300 Background">
    <rect class="cls-1" width="520" height="320" rx="10" ry="10"/>
  </g>
  <g id="Iran">
    <g>
      <rect class="cls-3" x="10" y="210" width="500" height="100"/>
      <rect class="cls-2" x="10" y="110" width="500" height="100"/>
      <rect class="cls-4" x="10" y="10" width="500" height="100"/>
      <path class="cls-2" d="m214.43,109.23h-20.05v1.54h19.98v-1.54h.08Zm0,100h-20.05v1.54h19.98v-1.54h.08Zm-41.91-104.31h6.33v-1.54h-4.82v-3.15h7.39v4.69h10.4v-11.31h-1.51v9.77h-2.94v-9.77h-1.51v9.77h-2.94v-9.77h-1.51v5.08h-8.89v6.23Zm-44.4,0h6.33v-1.54h-4.82v-3.15h7.39v4.69h10.4v-11.31h-1.51v9.77h-2.94v-9.77h-1.51v9.77h-2.94v-9.77h-1.51v5.08h-8.89v6.23h0Zm41.84,104.31h-19.98v1.54h19.98v-1.54Zm0-100h-19.98v1.54h19.98v-1.54Zm-13.34-4.31v-1.54h-2.19v1.54h2.19Zm22.24-10.85h-28.87v1.54h28.87v-1.54Zm79.98,15.15h-19.98v1.54h19.98v-1.54Zm-57.74-4.31v-1.54h-2.19v1.54h2.19Zm57.74,104.31h-19.98v1.54h19.98v-1.54Zm-13.34-104.31v-1.54h-2.19v1.54h2.19Zm-31.43,0v-6.23h-6.33v1.54h4.82v3.15h-7.39v-4.69h-10.4v6.62h1.51v-5.08h7.39v4.69h10.4Zm2.94,0h6.33v-1.54h-4.82v-3.15h7.39v4.69h10.4v-11.31h-1.51v9.77h-2.94v-9.77h-1.51v9.77h-2.94v-9.77h-1.51v5.08h-8.89v6.23Zm6.33-10.85h-28.95v1.54h28.87v-1.54h.08Zm-111.11,10.85v-1.54h-2.26v1.54h2.26Zm-44.47,0v-1.54h-2.19v1.54h2.19Zm-28.57,0h6.33v-1.54h-4.82v-3.15h7.39v4.69h10.4v-11.31h-1.51v9.77h-2.94v-9.77h-1.51v9.77h-2.94v-9.77h-1.51v5.08h-8.89v6.23Zm41.91,104.31h-19.98v1.54h19.98v-1.54Zm0-100h-19.98v1.54h19.98v-1.54Zm-35.58-15.15h-28.87v1.54h28.87v-1.54Zm-8.89,15.15h-19.98v1.54h19.98v-1.54Zm-.3-4.31v-6.23h-6.33v1.54h4.82v3.15h-7.39v-4.69h-10.4v6.62h1.51v-5.08h7.39v4.69h10.4Zm-13.04,0v-1.54h-2.19v1.54h2.19Zm60.38,0h6.33v-1.54h-4.82v-3.15h7.39v4.69h10.4v-11.31h-1.51v9.77h-2.94v-9.77h-1.51v9.77h-2.94v-9.77h-1.51v5.08h-8.89v6.23h0Zm174.88,0v-6.23h-6.33v1.54h4.82v3.15h-7.39v-4.69h-10.4v6.62h1.51v-5.08h7.39v4.69h10.4Zm-133.05,4.31h-19.98v1.54h19.98v-1.54Zm-.3-4.31v-6.23h-6.33v1.54h4.82v3.15h-7.39v-4.69h-10.4v6.62h1.51v-5.08h7.39v4.69h10.4Zm-88.57,104.31h-19.98v1.54h19.98v-1.54Zm53.37-115.15h-28.87v1.54h28.87v-1.54Zm-9.27,10.85v-6.23h-6.33v1.54h4.82v3.15h-7.39v-4.69h-10.4v6.62h1.51v-5.08h7.39v4.69h10.4Zm44.78,104.31h-19.98v1.54h19.98v-1.54Zm8.89-115.15h-28.87v1.54h28.87v-1.54Zm302.28,115.15h-19.98v1.54h19.98v-1.54Zm0-100h-19.98v1.54h19.98v-1.54Zm-13.34-4.31v-1.54h-2.19v1.54h2.19Zm12.97,0v-6.23h-6.33v1.54h4.82v3.15h-7.39v-4.69h-10.4v6.62h1.51v-5.08h7.39v4.69h10.4Zm-44.47,0v-6.23h-6.33v1.54h4.82v3.15h-7.39v-4.69h-10.4v6.62h1.51v-5.08h7.39v4.69h10.4Zm53.75-10.85h-28.87v1.54h28.87v-1.54Zm-44.47,0h-28.87v1.54h28.87v-1.54Zm-6.33,10.85h6.33v-1.54h-4.82v-3.15h7.39v4.69h10.4v-11.31h-1.51v9.77h-2.94v-9.77h-1.51v9.77h-2.94v-9.77h-1.51v5.08h-8.89v6.23h0Zm86.31,104.31h-19.98v1.54h19.98v-1.54Zm8.89-115.15h-28.87v1.54h28.87v-1.54Zm-6.33,10.85h6.33v-1.54h-4.82v-3.15h7.39v4.69h10.4v-11.31h-1.51v9.77h-2.94v-9.77h-1.51v9.77h-2.94v-9.77h-1.51v5.08h-8.89v6.23h0Zm-2.86,0v-6.23h-6.33v1.54h4.82v3.15h-7.39v-4.69h-10.4v6.62h1.51v-5.08h7.39v4.69h10.4Zm-101.91,0v-1.54h-2.19v1.54h2.19Zm60.38,0h6.33v-1.54h-4.82v-3.15h7.39v4.69h10.4v-11.31h-1.51v9.77h-2.94v-9.77h-1.51v9.77h-2.94v-9.77h-1.51v5.08h-8.89v6.23h0Zm41.84,4.31h-19.98v1.54h19.98v-1.54Zm-13.34-4.31v-1.54h-2.19v1.54h2.19Zm-111.11-10.85h-28.87v1.54h28.87v-1.54Zm-66.64,10.85v-1.54h-2.19v1.54h2.19Zm12.97,0v-6.23h-6.33v1.54h4.82v3.15h-7.39v-4.69h-10.4v6.62h1.51v-5.08h7.39v4.69h10.4Zm9.27-10.85h-28.87v1.54h28.87v-1.54Zm-50.81,10.85h6.33v-1.54h-4.82v-3.15h7.39v4.69h10.4v-11.31h-1.51v9.77h-2.94v-9.77h-1.51v9.77h-2.94v-9.77h-1.51v5.08h-8.89v6.23Zm44.47,0h6.33v-1.54h-4.82v-3.15h7.39v4.69h10.4v-11.31h-1.51v9.77h-2.94v-9.77h-1.51v9.77h-2.94v-9.77h-1.51v5.08h-8.89v6.23Zm-2.56,104.31h-19.98v1.54h19.98v-1.54Zm0-100h-19.98v1.54h19.98v-1.54Zm88.87,100h-19.98v1.54h19.98v-1.54Zm-44.47,0h-19.98v1.54h19.98v-1.54Zm-79.98-115.15h-28.87v1.54h28.87v-1.54Zm124.45,15.15h-19.98v1.54h19.98v-1.54Zm-41.84-4.31h6.33v-1.54h-4.82v-3.15h7.39v4.69h10.4v-11.31h-1.51v9.77h-2.94v-9.77h-1.51v9.77h-2.94v-9.77h-1.51v5.08h-8.89v6.23Zm-2.64,4.31h-19.98v1.54h19.98v-1.54Zm-13.27-4.31v-1.54h-2.19v1.54h2.19Zm12.97,0v-6.23h-6.33v1.54h4.82v3.15h-7.39v-4.69h-10.4v6.62h1.51v-5.08h7.39v4.69h10.4Zm-177.82,0v-6.23h-6.33v1.54h4.82v3.15h-7.39v-4.69h-10.4v6.62h1.51v-5.08h7.39v4.69h10.4Zm135.91,5.85h20.05v-1.54h-19.98v1.54h-.08Zm26.68,115.15h2.19v-1.54h-2.19v1.54Zm8.89-4.62h4.82v3.15h-7.39v-4.69h-10.4v6.62h1.51v-5.08h7.39v4.69h10.4v-6.23h-6.33v1.54Zm15.53-6.23h-28.87v1.54h28.87v-1.54Zm11.53,9.31h-2.94v-9.77h-1.51v9.77h-2.94v-9.77h-1.51v5.08h-8.89v6.23h6.33v-1.54h-4.82v-3.15h7.39v4.69h10.4v-11.31h-1.51v9.77Zm-18.17-13.62h19.98v-1.54h-19.98v1.54Zm26.68,15.15h2.19v-1.54h-2.19v1.54Zm-26.68-115.15h19.98v-1.54h-19.98v1.54Zm51.11,104.31h-28.87v1.54h28.87v-1.54Zm-121.89,9.31h-2.94v-9.77h-1.51v9.77h-2.94v-9.77h-1.51v5.08h-8.89v6.23h6.33v-1.54h-4.82v-3.15h7.39v4.69h10.4v-11.31h-1.51v9.77Zm-18.09-113.62h19.98v-1.54h-19.98v1.54Zm0,100h19.98v-1.54h-19.98v1.54Zm44.4,0h20.05v-1.54h-19.98v1.54h-.08Zm-259.99,4.31h-28.87v1.54h28.87v-1.54Zm242.27,10.85h2.19v-1.54h-2.19v1.54Zm8.82-4.62h4.82v3.15h-7.39v-4.69h-10.4v6.62h1.51v-5.08h7.39v4.69h10.4v-6.23h-6.33v1.54Zm15.6-6.23h-28.87v1.54h28.87v-1.54Zm153.32,10.85h2.19v-1.54h-2.19v1.54Zm8.89-4.62h4.82v3.15h-7.39v-4.69h-10.4v6.62h1.51v-5.08h7.39v4.69h10.4v-6.23h-6.33v1.54Zm15.53-6.23h-28.87v1.54h28.87v-1.54Zm-51.11-104.31h19.98v-1.54h-19.98v1.54Zm0,100h19.98v-1.54h-19.98v1.54Zm44.47-101.54v1.54h19.98v-1.54h-19.98Zm0,101.54h19.98v-1.54h-19.98v1.54Zm18.09,13.62h-2.94v-9.77h-1.51v9.77h-2.94v-9.77h-1.51v5.08h-8.89v6.23h6.33v-1.54h-4.82v-3.15h7.39v4.69h10.4v-11.31h-1.51v9.77h0Zm-44.4,0h-2.94v-9.77h-1.51v9.77h-2.94v-9.77h-1.51v5.08h-8.89v6.23h6.33v-1.54h-4.82v-3.15h7.39v4.69h10.4v-11.31h-1.51v9.77h0Zm-62.57-13.62h19.98v-1.54h-19.98v1.54Zm0-100h19.98v-1.54h-19.98v1.54Zm18.09,113.62h-2.94v-9.77h-1.51v9.77h-2.94v-9.77h-1.51v5.08h-8.89v6.23h6.33v-1.54h-4.82v-3.15h7.39v4.69h10.4v-11.31h-1.51v9.77h0Zm17.41-3.08h4.82v3.15h-7.39v-4.69h-10.4v6.62h1.51v-5.08h7.39v4.69h10.4v-6.23h-6.33v1.54Zm-44.4,0h4.82v3.15h-7.39v-4.69h-10.4v6.62h1.51v-5.08h7.39v4.69h10.4v-6.23h-6.33v1.54Zm35.5,4.62h2.19v-1.54h-2.19v1.54Zm24.5-10.85h-28.87v1.54h28.87v-1.54Zm-121.89,9.31h-2.94v-9.77h-1.51v9.77h-2.94v-9.77h-1.51v5.08h-8.89v6.23h6.33v-1.54h-4.82v-3.15h7.39v4.69h10.4v-11.31h-1.51v9.77Zm-240.39-13.62h19.98v-1.54h-19.98s0,1.54,0,1.54Zm-8.89,10.54h4.82v3.15h-7.39v-4.69h-10.4v6.62h1.51v-5.08h7.39v4.69h10.4v-6.23h-6.33v1.54Zm27.06,3.08h-2.94v-9.77h-1.51v9.77h-2.94v-9.77h-1.51v5.08h-8.89v6.23h6.33v-1.54h-4.82v-3.15h7.39v4.69h10.4v-11.31h-1.51v9.77h0Zm32.94-9.31h-28.87v1.54h28.87v-1.54Zm-51.11-104.31h19.98v-1.54h-19.98s0,1.54,0,1.54Zm26.68,115.15h2.19v-1.54h-2.19v1.54Zm35.96-1.54h-2.94v-9.77h-1.51v9.77h-2.94v-9.77h-1.51v5.08h-8.89v6.23h6.33v-1.54h-4.82v-3.15h7.39v4.69h10.4v-11.31h-1.51v9.77h0Zm-27.06-3.08h4.82v3.15h-7.39v-4.69h-10.4v6.62h1.51v-5.08h7.39v4.69h10.4v-6.23h-6.33v1.54Zm8.89-10.54h19.98v-1.54h-19.98v1.54Zm-97.77,10.54h4.82v3.15h-7.39v-4.69h-10.4v6.62h1.51v-5.08h7.39v4.69h10.4v-6.23h-6.33v1.54Zm-8.89,4.62h2.19v-1.54h-2.19v1.54Zm44.47,0h2.19v-1.54h-2.19v1.54Zm-8.59-1.54h-2.94v-9.77h-1.51v9.77h-2.94v-9.77h-1.51v5.08h-8.89v6.23h6.33v-1.54h-4.82v-3.15h7.39v4.69h10.4v-11.31h-1.51v9.77Zm33.02-9.31h-28.87v1.54h28.87v-1.54Zm-51.11-104.31h19.98v-1.54h-19.98v1.54Zm0,100h19.98v-1.54h-19.98v1.54Zm115.56,15.15h2.19v-1.54h-2.19v1.54Zm-26.68-115.15h19.98v-1.54h-19.98v1.54Zm79.98,110.54h4.82v3.15h-7.39v-4.69h-10.4v6.62h1.51v-5.08h7.39v4.69h10.4v-6.23h-6.33v1.54Zm8.89-10.54h19.98v-1.54h-19.98v1.54Zm18.17,13.62h-2.94v-9.77h-1.51v9.77h-2.94v-9.77h-1.51v5.08h-8.89v6.23h6.33v-1.54h-4.82v-3.15h7.39v4.69h10.4v-11.31h-1.51v9.77h0Zm-18.17-113.62h19.98v-1.54h-19.98v1.54Zm26.68,115.15h2.19v-1.54h-2.19v1.54Zm24.42-10.85h-28.87v1.54h28.87v-1.54Zm-68.9,10.85h2.19v-1.54h-2.19v1.54Zm53.37-4.62h4.82v3.15h-7.39v-4.69h-10.4v6.62h1.51v-5.08h7.39v4.69h10.4v-6.23h-6.33v1.54Zm-73.35-6.23h-28.87v1.54h28.87v-1.54Zm44.47,0h-28.95v1.54h28.87v-1.54h.08Zm-60,6.23h4.82v3.15h-7.39v-4.69h-10.4v6.62h1.51v-5.08h7.39v4.69h10.4v-6.23h-6.33v1.54Zm8.89-110.54h19.98v-1.54h-19.98v1.54Zm18.09,113.62h-2.94v-9.77h-1.51v9.77h-2.94v-9.77h-1.51v5.08h-8.89v6.23h6.33v-1.54h-4.82v-3.15h7.39v4.69h10.4v-11.31h-1.51v9.77Zm-18.09-13.62h19.98v-1.54h-19.98v1.54Z"/>
    </g>
    <path class="cls-3" d="m244.58,132.23c-7.31,1.85-13.54,6.77-17.31,13.46-7.69,13.69-3.15,31.23,10.15,39.15l-.08-.08c-12.08-16.62-8.85-40.15,7.23-52.54Zm8.08-2.08c2.38,1.69,5.69,1.15,7.31-1.31,1.69,2.46,4.92,3,7.31,1.31,2-1.46,2.77-4.08,1.85-6.46-.54,2.77-3.08,4.62-5.77,4.08-1.38-.31-2.69-1.15-3.38-2.46-.69,1.31-1.92,2.15-3.38,2.46-2.69.54-5.31-1.31-5.77-4.08-.92,2.31-.15,5,1.85,6.46Zm40,15.54c-3.77-6.69-10-11.54-17.31-13.46,16.08,12.46,19.31,35.92,7.23,52.54l-.08.08c13.31-7.92,17.85-25.46,10.15-39.15Zm-10.77,23.69c4.15-13.15.23-27.54-9.92-36.54,11.08,16.85,7.08,39.54-8.77,51.31l1.08-28v-22.08c-1.69-.85-3.23-2.15-4.31-3.69-1.08,1.62-2.62,2.85-4.31,3.69v22.08l1.08,28c-15.85-11.85-19.85-34.54-8.77-51.31-10.15,9-14.08,23.38-9.92,36.54,2.77,8.85,8.77,15.69,16.15,19.69-4.54,1.69-9.38,2.46-14.23,2.23,5.69,1.92,11.62,2.15,17.08.92l.08,1.15,2.85,4,2.85-4,.08-1.15c5.46,1.23,11.38,1,17.08-.92-4.85.23-9.69-.54-14.23-2.23,7.38-3.92,13.31-10.85,16.15-19.69Z"/>
  </g>
</svg>