<?xml version="1.0" encoding="UTF-8"?>
<svg id="Layer_2" data-name="Layer 2" xmlns="http://www.w3.org/2000/svg" viewBox="0 0 520 320">
  <defs>
    <style>
      .cls-1 {
        fill: #a3ab78;
      }

      .cls-1, .cls-2, .cls-3, .cls-4, .cls-5 {
        stroke-width: 0px;
      }

      .cls-3 {
        fill: #fff;
      }

      .cls-4 {
        fill: #ce1126;
      }

      .cls-5 {
        fill: #007a3d;
      }
    </style>
  </defs>
  <g id="_500x300_Background" data-name="500x300 Background">
    <rect class="cls-1" width="520" height="320" rx="10" ry="10"/>
  </g>
  <g id="Iraq">
    <g>
      <rect class="cls-3" x="10" y="110" width="500" height="100.07"/>
      <path class="cls-3" d="m299.32,169.59c.81,1.15,3.45,1.15,3.31-.81-.41-1.69-3.92-1.01-3.31.81Z"/>
      <rect class="cls-4" x="10" y="10" width="500" height="99.93"/>
      <rect class="cls-2" x="10" y="210.07" width="500" height="99.93"/>
      <path class="cls-5" d="m304.53,141.62h0c2.23,1.15,4.66,1.01,6.49-.34.81-.61,1.08-.61,2.64-.07,1.28.47,2.09.54,2.91.34,1.76-.47,2.7-2.5,2.03-4.26-.34-.88-1.01-1.15-1.01-.27.07.68-1.49,2.64-2.23,2.84-.27.07-1.28-.27-2.23-.74l-1.69-.88-1.42,1.22c-1.62,1.35-3.24,1.62-5.81.95-1.42-.41-1.62-.34-1.28.14.27.2.95.74,1.62,1.08Z"/>
      <path class="cls-5" d="m310.81,135.88c.54.74.88.2.95-1.69.14-2.36-.07-3.04-1.08-3.38-.61-.2-.81-.07-1.01.61-.2.68.54,3.65,1.15,4.46h0Z"/>
      <path class="cls-5" d="m250,154.66c-3.72,2.09-9.19,2.43-9.19,8.24-8.04.34-17.5.68-26.08.47,2.91-3.65,18.72-19.05,23.04-23.38.74-.41,1.82-.27,2.7-.61-1.22-.68-3.99-4.19-3.78-5.68-6.96,6.76-14.93,13.85-16.01,15-11.35,11.28-11.15,11.15-12.77,12.84,0,2.16.07,5.2.07,6.69h39.12c1.96,0-.41-6.76,2.03-6.76,2.64,0,1.76,5.27,1.76,8.58-16.69,0-34.32.14-50.68.14v-10.47c-4.19,3.58-4.66,3.85-7.3,4.8,2.03.41,2.16,3.51,1.96,6.15-6.89.2-16.15,1.01-13.58-6.76-3.65,2.43-4.19,2.77-7.84,4.12,2.16,3.99,5.54,8.24,4.46,15.2-1.35,3.18-5.07,3.99-7.3,6.28,7.16,1.76,12.3-2.57,13.58-8.24h73.11v-19.32c-.61-4.53-5.41-4.26-7.3-7.3Z"/>
      <path class="cls-5" d="m340.74,170.61v-29.46c.34-1.49,1.55-2.03,1.96-3.38-3.31-.88-5.47-2.91-8.24-4.32v47.84h16.01c.14-3.72-2.91-8.31-3.38-13.04-1.82,1.08-2.64,3.18-6.35,2.36Z"/>
      <path class="cls-5" d="m323.04,141.01c0,9.12.14,19.05.14,28.85h-4.19v-25.74c0,.2-5.81,5.07-5.81,5.07,0,.68-.07,20.61-.07,20.61h-4.26s-.07-11.89-.07-16.96c-4.8,4.19-5.41,4.66-7.16,6.42.14.88.74.07,1.08.68v3.92c-11.15-2.09-11.08,7.77-10.54,17.3h36.76v-46.01c-.88,1.69-4.19,4.19-5.88,5.88Zm-23.72,28.58c-.61-1.82,2.91-2.43,3.31-.81.2,1.96-2.5,1.96-3.31.81Z"/>
      <circle class="cls-5" cx="193.04" cy="186.69" r="2.23"/>
      <path class="cls-5" d="m268.58,170.68v-29.46c.34-1.49,1.55-2.03,1.96-3.38-3.31-.88-5.47-2.91-8.24-4.32v47.84h15.95c.14-3.72-2.91-8.31-3.38-13.04-1.82,1.08-2.57,3.18-6.28,2.36Z"/>
    </g>
  </g>
</svg>