<?xml version="1.0" encoding="UTF-8"?>
<svg id="Layer_2" data-name="Layer 2" xmlns="http://www.w3.org/2000/svg" viewBox="0 0 520 320">
  <defs>
    <style>
      .cls-1 {
        fill: #a3ab78;
      }

      .cls-1, .cls-2, .cls-3 {
        stroke-width: 0px;
      }

      .cls-2 {
        fill: #0039ba;
      }

      .cls-3 {
        fill: #fff;
      }
    </style>
  </defs>
  <g id="_500x300_Background" data-name="500x300 Background">
    <rect class="cls-1" width="520" height="320" rx="10" ry="10"/>
  </g>
  <g id="Israel">
    <g>
      <rect class="cls-3" x="10" y="84.88" width="500" height="150.24"/>
      <rect class="cls-3" x="10" y="281.76" width="500" height="28.24"/>
      <rect class="cls-3" x="10" y="10" width="500" height="28.24"/>
      <rect class="cls-2" x="10" y="38.24" width="500" height="46.64"/>
      <rect class="cls-2" x="10" y="235.13" width="500" height="46.64"/>
      <path class="cls-2" d="m298.97,158.69l19.48-33.75h-38.96l-19.5-33.76-19.48,33.76h-38.98l19.48,33.76-19.48,33.76h38.98l19.48,33.76,19.48-33.76h38.99l-19.5-33.77Zm-38.98,41.75l-4.61-7.98h9.2l-4.6,7.98Zm-36.14-20.86l4.61-7.98,4.62,7.98h-9.22Zm9.2-41.74l-4.61,7.98-4.61-7.98h9.21Zm26.94-20.87l4.61,7.98h-9.2l4.6-7.98Zm36.14,20.87l-4.61,7.97-4.61-7.97h9.21Zm-12.04,20.86l-12.05,20.87h-24.09l-12.05-20.87,12.04-20.86h24.11l12.04,20.86Zm7.44,12.89l4.61,7.98h-9.22l4.61-7.98Z"/>
    </g>
  </g>
</svg>