<?xml version="1.0" encoding="UTF-8"?>
<svg id="Layer_2" data-name="Layer 2" xmlns="http://www.w3.org/2000/svg" viewBox="0 0 520 320">
  <defs>
    <style>
      .cls-1 {
        fill: #a3ab78;
      }

      .cls-1, .cls-2, .cls-3, .cls-4 {
        stroke-width: 0px;
      }

      .cls-3 {
        fill: #009b3a;
      }

      .cls-4 {
        fill: #fed100;
      }
    </style>
  </defs>
  <g id="_500x300_Background" data-name="500x300 Background">
    <rect class="cls-1" width="520" height="320" rx="10" ry="10"/>
  </g>
  <g id="Jamaica">
    <g>
      <polygon class="cls-3" points="463.42 10 56.58 10 260 132.05 463.42 10"/>
      <polygon class="cls-3" points="56.58 310 463.42 310 260 187.95 56.58 310"/>
      <polygon class="cls-2" points="306.59 160 510 282.05 510 37.95 306.59 160"/>
      <polygon class="cls-2" points="10 37.95 10 282.05 213.41 160 10 37.95"/>
      <polygon class="cls-4" points="510 10 510 10 463.42 10 260 132.05 56.58 10 10 10 10 10 10 37.95 213.41 160 10 282.05 10 310 10 310 56.58 310 260 187.95 463.42 310 510 310 510 310 510 282.05 306.59 160 510 37.95 510 10"/>
    </g>
  </g>
</svg>