<?xml version="1.0" encoding="UTF-8"?>
<svg id="Layer_2" data-name="Layer 2" xmlns="http://www.w3.org/2000/svg" viewBox="0 0 520 320">
  <defs>
    <style>
      .cls-1 {
        fill: #a3ab78;
      }

      .cls-1, .cls-2, .cls-3 {
        stroke-width: 0px;
      }

      .cls-2 {
        fill: #bc002d;
      }

      .cls-3 {
        fill: #fff;
      }
    </style>
  </defs>
  <g id="_500x300_Background" data-name="500x300 Background">
    <rect class="cls-1" width="520" height="320" rx="10" ry="10"/>
  </g>
  <g id="Japan">
    <g>
      <path class="cls-3" d="m10,10v300h500V10H10Zm319.73,214.51c-17.35,18.75-42.17,30.49-69.73,30.49s-52.37-11.74-69.73-30.49c-15.68-16.94-25.27-39.61-25.27-64.51s9.59-47.57,25.27-64.51c17.35-18.75,42.17-30.49,69.73-30.49s52.37,11.74,69.73,30.49c15.68,16.94,25.27,39.61,25.27,64.51s-9.59,47.57-25.27,64.51Z"/>
      <path class="cls-2" d="m260,65c-27.56,0-52.37,11.74-69.73,30.49-15.68,16.94-25.27,39.61-25.27,64.51s9.59,47.57,25.27,64.51c17.35,18.75,42.17,30.49,69.73,30.49s52.37-11.74,69.73-30.49c15.68-16.94,25.27-39.61,25.27-64.51s-9.59-47.57-25.27-64.51c-17.35-18.75-42.17-30.49-69.73-30.49Z"/>
    </g>
  </g>
</svg>