<?xml version="1.0" encoding="UTF-8"?>
<svg id="Layer_2" data-name="Layer 2" xmlns="http://www.w3.org/2000/svg" viewBox="0 0 520 320">
  <defs>
    <style>
      .cls-1 {
        fill: #a3ab78;
      }

      .cls-1, .cls-2, .cls-3, .cls-4, .cls-5 {
        stroke-width: 0px;
      }

      .cls-3 {
        fill: #fff;
      }

      .cls-4 {
        fill: #ce1126;
      }

      .cls-5 {
        fill: #007a3d;
      }
    </style>
  </defs>
  <g id="_500x300_Background" data-name="500x300 Background">
    <rect class="cls-1" width="520" height="320" rx="10" ry="10"/>
  </g>
  <g id="Jordan">
    <g>
      <polygon class="cls-5" points="510 209.97 510 310 10 310 205.49 209.97 510 209.97"/>
      <polygon class="cls-3" points="510 110.03 510 209.97 205.49 209.97 303.24 160 205.49 110.03 510 110.03"/>
      <polygon class="cls-2" points="510 10 510 110.03 205.49 110.03 10 10 510 10"/>
      <path class="cls-4" d="m205.49,110.03L10,10v300l195.49-100.03,97.75-49.97-97.75-49.97Zm-121.22,36.63l11.88,3.75,4.57-11.78,4.57,11.78,11.88-3.75-6.12,10.96,10.23,7.13-12.24,1.92.91,12.61-9.14-8.59-9.04,8.59.91-12.61-12.24-1.92,10.23-7.13-6.39-10.96Z"/>
      <polygon class="cls-3" points="108.84 166.67 109.67 179.28 100.62 170.69 91.49 179.28 92.4 166.67 80.16 164.75 90.39 157.62 84.27 146.66 96.05 150.32 100.62 138.53 105.19 150.32 116.97 146.66 110.85 157.62 121.08 164.75 108.84 166.67"/>
    </g>
  </g>
</svg>