<?xml version="1.0" encoding="UTF-8"?>
<svg id="Layer_2" data-name="Layer 2" xmlns="http://www.w3.org/2000/svg" viewBox="0 0 520 320">
  <defs>
    <style>
      .cls-1 {
        fill: #a3ab78;
      }

      .cls-1, .cls-2, .cls-3 {
        stroke-width: 0px;
      }

      .cls-2 {
        fill: #00afca;
      }

      .cls-3 {
        fill: #fec50c;
      }
    </style>
  </defs>
  <g id="_500x300_Background" data-name="500x300 Background">
    <rect class="cls-1" width="520" height="320" rx="10" ry="10"/>
  </g>
  <g id="Kazakhstan">
    <rect class="cls-2" x="10" y="10" width="500" height="300"/>
    <g>
      <path class="cls-3" d="m55.67,106.77c4.67.59,7.13,3.82,7.13,7.89,0,2.55-.42,4.16-1.61,6.62,0,0-9.34,19.86-12.99,27.5-.42.93-.59,2.04-.59,3.65,0,2.46,2.38,4.5,4.75,4.58,2.21.08,4.67-2.12,4.67-4.58,0-3.06-1.53-4.41-3.14-4.41-1.95,0-2.72.85-2.72,2.21,0,.93.42,1.36,1.1,1.36,1.7,0,1.19-2.29,1.19-2.29.85.17,1.53,1.02,1.1,2.12.59.17,1.19.42,1.61,1.02-.42.42-.93.76-1.61.93.42,1.36-.17,1.95-1.27,2.21.25-.51.25-.93.17-1.44-1.78.51-4.5-.34-4.5-3.4s2.12-5.69,6.03-5.09c-.93-.42-1.44-1.44-1.53-2.46.68.25,1.53.34,1.53.34-.42-.85-1.1-1.53-1.1-3.23.76.34,1.44.93,2.38.59-1.44-2.97.34-7.05,4.92-7.98-1.7,2.04-2.55,4.24-2.55,6.37,0,7.05,1.95,8.23,1.95,13.16,0,2.04-1.02,4.24-2.97,5.69,1.27.34,2.12,1.02,2.63,1.95h0c-.51.93-1.36,1.61-2.63,1.95,1.95,1.53,2.97,3.65,2.97,5.69,0,4.92-1.95,6.11-1.95,13.16,0,2.21.85,4.33,2.55,6.37-4.58-.93-6.45-5.09-4.92-7.98-.93-.42-1.61.25-2.38.59,0-1.61.59-2.38,1.1-3.23,0,0-.76,0-1.53.34.08-1.02.59-2.04,1.53-2.46-3.99.68-6.03-1.95-6.03-5.09s2.72-3.99,4.5-3.4c.08-.42.08-.93-.17-1.44,1.1.25,1.61.93,1.27,2.21.68.08,1.19.42,1.61.93-.42.51-1.02.85-1.61,1.02.42,1.1-.25,1.95-1.1,2.12,0,0,.51-2.29-1.19-2.29-.68,0-1.1.42-1.1,1.36,0,1.36.76,2.21,2.72,2.21,1.61,0,3.14-1.36,3.14-4.41,0-2.46-2.46-4.67-4.67-4.58-2.46.08-4.75,2.04-4.75,4.58,0,1.61.17,2.72.59,3.65,3.65,7.64,12.99,27.5,12.99,27.5,1.19,2.46,1.61,4.07,1.61,6.62,0,4.07-2.46,7.3-7.13,7.89,4.67.59,7.13,3.82,7.13,7.89,0,2.55-.42,4.16-1.61,6.62,0,0-9.34,19.86-12.99,27.5-.42.93-.59,2.04-.59,3.65,0,2.46,2.38,4.5,4.75,4.58,2.21.08,4.67-2.12,4.67-4.58,0-3.06-1.53-4.41-3.14-4.41-1.95,0-2.72.85-2.72,2.21,0,.93.42,1.36,1.1,1.36,1.7,0,1.19-2.29,1.19-2.29.85.17,1.53,1.02,1.1,2.12.59.17,1.19.42,1.61,1.02-.42.42-.93.76-1.61.93.42,1.36-.17,1.95-1.27,2.21.25-.51.25-.93.17-1.44-1.78.51-4.5-.34-4.5-3.4s2.12-5.69,6.03-5.09c-.93-.42-1.44-1.44-1.53-2.46.68.25,1.53.34,1.53.34-.42-.85-1.1-1.53-1.1-3.23.76.34,1.44.93,2.38.59-1.44-2.97.34-7.05,4.92-7.98-1.7,2.04-2.55,4.24-2.55,6.37,0,7.05,1.95,8.23,1.95,13.16,0,2.04-1.02,4.24-2.97,5.69,1.27.34,2.12,1.02,2.63,1.95h0c-.93,1.27-1.53,1.7-3.14,1.78,1.78.93,3.57,2.97,3.57,6.11,0,4.84-1.95,6.88-1.95,12.31,0,3.06,2.46,6.88,2.46,6.88-4.33-.42-6.45-4.5-5.18-7.72-.68-.08-1.27.08-1.87.59-.34-.93.17-1.95.85-2.89-.51-.25-.93-.08-1.78.08.08-.93.59-1.95,1.95-2.8-3.82,1.02-6.2-1.7-6.2-4.58,0-2.21,1.53-3.74,2.97-3.74.51,0,1.19.17,1.53.51.25-.59.17-1.36-.17-2.04,1.1.25,1.78.93,1.27,2.29.85.08,1.44.34,1.95.93-.42.59-1.1.93-1.95.93.59,1.27-.08,1.95-1.02,2.55,0,0,.59-2.55-.93-2.55-.68,0-1.36.25-1.36,1.27,0,.93.76,2.21,2.63,2.12s3.31-1.27,3.31-4.33c0-2.8-2.21-4.16-5.09-4.24-2.63-.08-4.58,1.36-4.58,4.07,0,3.65,5.09,11.97,5.09,15.2,0,2.46-2.12,3.82-4.24,3.82-1.27,0-2.55-.59-3.4-1.27-.93.68-2.12,1.27-3.4,1.27-2.12,0-4.24-1.36-4.24-3.82,0-3.23,5.09-11.54,5.09-15.2,0-2.72-1.95-4.16-4.58-4.07-2.89.08-5.09,1.44-5.09,4.24,0,2.97,1.53,4.24,3.31,4.33,1.87.08,2.63-1.19,2.63-2.12,0-1.1-.68-1.27-1.36-1.27-1.61,0-.93,2.55-.93,2.55-.93-.59-1.61-1.27-1.02-2.55-.76,0-1.44-.34-1.95-.93.42-.51,1.1-.85,1.95-.93-.51-1.36.17-2.04,1.27-2.29-.25.59-.42,1.36-.17,2.04.42-.34,1.1-.51,1.53-.51,1.44,0,2.97,1.53,2.97,3.74,0,2.89-2.38,5.6-6.2,4.58,1.36.93,1.87,1.95,1.95,2.8-.85-.17-1.27-.34-1.78-.08.68.93,1.19,1.95.85,2.89-.51-.51-1.19-.68-1.87-.59,1.19,3.23-.93,7.3-5.18,7.72,0,0,2.46-3.82,2.46-6.88,0-5.43-1.95-7.47-1.95-12.31,0-3.14,1.78-5.18,3.57-6.11-1.61-.08-2.21-.51-3.14-1.78h0c.51-.93,1.36-1.61,2.63-1.95-1.95-1.53-2.97-3.65-2.97-5.69,0-4.92,1.95-6.11,1.95-13.16,0-2.21-.85-4.33-2.55-6.37,4.58.93,6.45,5.09,4.92,7.98.93.42,1.61-.25,2.38-.59,0,1.61-.59,2.38-1.1,3.23,0,0,.76,0,1.53-.34-.08,1.02-.59,2.04-1.53,2.46,3.99-.68,6.03,1.95,6.03,5.09s-2.72,3.99-4.5,3.4c-.08.42-.08.93.17,1.44-1.1-.25-1.61-.93-1.27-2.21-.68-.08-1.19-.42-1.61-.93.42-.51,1.02-.85,1.61-1.02-.42-1.1.25-1.95,1.1-2.12,0,0-.51,2.29,1.19,2.29.68,0,1.1-.42,1.1-1.36,0-1.36-.76-2.21-2.72-2.21-1.61,0-3.14,1.36-3.14,4.41,0,2.46,2.46,4.67,4.67,4.58,2.46-.08,4.75-2.04,4.75-4.58,0-1.61-.17-2.72-.59-3.65-3.65-7.64-12.99-27.5-12.99-27.5-1.19-2.46-1.61-4.07-1.61-6.62,0-4.07,2.46-7.3,7.13-7.89-4.67-.59-7.13-3.82-7.13-7.89,0-2.55.42-4.16,1.61-6.62,0,0,9.34-19.86,12.99-27.5.42-.93.59-2.04.59-3.65,0-2.46-2.38-4.5-4.75-4.58-2.21-.08-4.67,2.12-4.67,4.58,0,3.06,1.53,4.41,3.14,4.41,1.95,0,2.72-.85,2.72-2.21,0-.93-.42-1.36-1.1-1.36-1.7,0-1.19,2.29-1.19,2.29-.85-.17-1.53-1.02-1.1-2.12-.59-.17-1.19-.42-1.61-1.02.42-.42.93-.76,1.61-.93-.42-1.36.17-1.95,1.27-2.21-.25.51-.25.93-.17,1.44,1.78-.51,4.5.34,4.5,3.4s-2.12,5.69-6.03,5.09c.93.42,1.44,1.44,1.53,2.46-.68-.25-1.53-.34-1.53-.34.42.85,1.1,1.53,1.1,3.23-.76-.34-1.44-.93-2.38-.59,1.44,2.97-.34,7.05-4.92,7.98,1.7-2.04,2.55-4.24,2.55-6.37,0-7.05-1.95-8.23-1.95-13.16,0-2.04,1.02-4.24,2.97-5.69-1.27-.34-2.12-1.02-2.63-1.95h0c.51-.93,1.36-1.61,2.63-1.95-1.95-1.53-2.97-3.65-2.97-5.69,0-4.92,1.95-6.11,1.95-13.16,0-2.21-.85-4.33-2.55-6.37,4.58.93,6.45,5.09,4.92,7.98.93.42,1.61-.25,2.38-.59,0,1.61-.59,2.38-1.1,3.23,0,0,.76,0,1.53-.34-.08,1.02-.59,2.04-1.53,2.46,3.99-.68,6.03,1.95,6.03,5.09s-2.72,3.99-4.5,3.4c-.08.42-.08.93.17,1.44-1.1-.25-1.61-.93-1.27-2.21-.68-.08-1.19-.42-1.61-.93.42-.51,1.02-.85,1.61-1.02-.42-1.1.25-1.95,1.1-2.12,0,0-.51,2.29,1.19,2.29.68,0,1.1-.42,1.1-1.36,0-1.36-.76-2.21-2.72-2.21-1.61,0-3.14,1.36-3.14,4.41,0,2.46,2.46,4.67,4.67,4.58,2.46-.08,4.75-2.04,4.75-4.58,0-1.61-.17-2.72-.59-3.65-3.65-7.64-12.99-27.5-12.99-27.5-1.19-2.46-1.61-4.07-1.61-6.62,0-4.07,2.46-7.3,7.13-7.89-4.67-.59-7.13-3.82-7.13-7.89,0-2.55.42-4.16,1.61-6.62,0,0,9.34-19.86,12.99-27.5.42-.93.59-2.04.59-3.65,0-2.46-2.38-4.5-4.75-4.58-2.21-.08-4.67,2.12-4.67,4.58,0,3.06,1.53,4.41,3.14,4.41,1.95,0,2.72-.85,2.72-2.21,0-.93-.42-1.36-1.1-1.36-1.7,0-1.19,2.29-1.19,2.29-.85-.17-1.53-1.02-1.1-2.12-.59-.17-1.19-.42-1.61-1.02.42-.42.93-.76,1.61-.93-.42-1.36.17-1.95,1.27-2.21-.25.51-.25.93-.17,1.44,1.78-.51,4.5.34,4.5,3.4s-2.12,5.69-6.03,5.09c.93.42,1.44,1.44,1.53,2.46-.68-.25-1.53-.34-1.53-.34.42.85,1.1,1.53,1.1,3.23-.76-.34-1.44-.93-2.38-.59,1.44,2.97-.34,7.05-4.92,7.98,1.7-2.04,2.55-4.24,2.55-6.37,0-7.05-1.95-8.23-1.95-13.16,0-2.04,1.02-4.24,2.97-5.69-1.27-.34-2.12-1.02-2.63-1.95h0c.93-1.27,1.53-1.7,3.14-1.78-1.78-.93-3.57-2.97-3.57-6.11,0-4.84,1.95-6.88,1.95-12.31,0-3.06-2.46-6.88-2.46-6.88,4.33.42,6.45,4.5,5.18,7.72.68.08,1.27-.08,1.87-.59.34.93-.17,1.95-.85,2.89.51.25.93.08,1.78-.08-.08.93-.59,1.95-1.95,2.8,3.82-1.02,6.2,1.7,6.2,4.58,0,2.21-1.53,3.74-2.97,3.74-.51,0-1.19-.17-1.53-.51-.25.59-.17,1.36.17,2.04-1.1-.25-1.78-.93-1.27-2.29-.85-.08-1.44-.34-1.95-.93.42-.59,1.1-.93,1.95-.93-.59-1.27.08-1.95,1.02-2.55,0,0-.59,2.55.93,2.55.68,0,1.36-.25,1.36-1.27,0-.93-.76-2.21-2.63-2.12-1.87.08-3.31,1.27-3.31,4.33,0,2.8,2.21,4.16,5.09,4.24,2.63.08,4.58-1.36,4.58-4.07,0-3.65-5.09-11.97-5.09-15.2,0-2.46,2.12-3.82,4.24-3.82,1.27,0,2.55.59,3.4,1.27.93-.68,2.12-1.27,3.4-1.27,2.12,0,4.24,1.36,4.24,3.82,0,3.23-5.09,11.54-5.09,15.2,0,2.72,1.95,4.16,4.58,4.07,2.89-.08,5.09-1.44,5.09-4.24,0-2.97-1.53-4.24-3.31-4.33-1.87-.08-2.63,1.19-2.63,2.12,0,1.1.68,1.27,1.36,1.27,1.61,0,.93-2.55.93-2.55.93.59,1.61,1.27,1.02,2.55.76,0,1.44.34,1.95.93-.42.51-1.1.85-1.95.93.51,1.36-.17,2.04-1.27,2.29.25-.59.42-1.36.17-2.04-.42.34-1.1.51-1.53.51-1.44,0-2.97-1.53-2.97-3.74,0-2.89,2.38-5.6,6.2-4.58-1.36-.93-1.87-1.95-1.95-2.8.85.17,1.27.34,1.78.08-.68-.93-1.19-1.95-.85-2.89.51.51,1.19.68,1.87.59-1.19-3.23.93-7.3,5.18-7.72,0,0-2.46,3.82-2.46,6.88,0,5.43,1.95,7.47,1.95,12.31,0,3.14-1.78,5.18-3.57,6.11,1.61.08,2.21.51,3.14,1.78h0c-.51.93-1.36,1.61-2.63,1.95,1.95,1.53,2.97,3.65,2.97,5.69,0,4.92-1.95,6.11-1.95,13.16,0,2.21.85,4.33,2.55,6.37-4.58-.93-6.45-5.09-4.92-7.98-.93-.42-1.61.25-2.38.59,0-1.61.59-2.38,1.1-3.23,0,0-.76,0-1.53.34.08-1.02.59-2.04,1.53-2.46-3.99.68-6.03-1.95-6.03-5.09s2.72-3.99,4.5-3.4c.08-.42.08-.93-.17-1.44,1.1.25,1.61.93,1.27,2.21.68.08,1.19.42,1.61.93-.42.51-1.02.85-1.61,1.02.42,1.1-.25,1.95-1.1,2.12,0,0,.51-2.29-1.19-2.29-.68,0-1.1.42-1.1,1.36,0,1.36.76,2.21,2.72,2.21,1.61,0,3.14-1.36,3.14-4.41,0-2.46-2.46-4.67-4.67-4.58-2.46.08-4.75,2.04-4.75,4.58,0,1.61.17,2.72.59,3.65,3.65,7.64,12.99,27.5,12.99,27.5,1.19,2.46,1.61,4.07,1.61,6.62,0,4.07-2.46,7.3-7.13,7.89Zm-10.44-64.52c1.7-4.24,4.92-10.1,3.74-11.54-.93-1.19-3.65,1.1-3.74,1.19h0c-.08-.08-2.8-2.38-3.74-1.19-1.19,1.44,2.04,7.22,3.74,11.54Zm0,14.94h0c.59-1.1,2.46-3.31,5.26-3.57.17-.08.34-.08.51-.17-2.46-.59-4.58-1.53-5.77-3.57-1.19,1.95-3.23,2.97-5.77,3.57.17.08.34.08.51.17,2.8.34,4.67,2.46,5.26,3.57Zm-7.72,49.58c3.06.42,6.37,2.38,7.72,5.86,1.36-3.48,4.67-5.43,7.72-5.86-3.06-.42-6.37-2.38-7.72-5.86-1.36,3.48-4.67,5.43-7.72,5.86Zm0,106.45c3.06.42,6.37,2.38,7.72,5.86,1.36-3.48,4.67-5.43,7.72-5.86-3.06-.42-6.37-2.38-7.72-5.86-1.36,3.48-4.67,5.43-7.72,5.86Zm7.72,64.52c-1.7,4.24-4.92,10.1-3.74,11.54.93,1.19,3.65-1.1,3.74-1.19h0c.08.08,2.8,2.38,3.74,1.19,1.19-1.44-2.04-7.22-3.74-11.54Zm0-14.94h0c-.59,1.1-2.46,3.31-5.26,3.57-.17.08-.34.08-.51.17,2.46.59,4.58,1.53,5.77,3.57,1.19-1.95,3.23-2.97,5.77-3.57-.17-.08-.34-.08-.51-.17-2.8-.34-4.67-2.46-5.26-3.57Zm9-46.1c-2.21,0-4.41,1.7-4.41,3.82,0,1.36.68,2.21,1.78,2.21,2.46,0,2.29-2.12,1.87-3.48,1.53.68,2.46,1.95,2.21,3.31.85.08,1.7.51,2.46,1.44-.59.76-1.36,1.36-2.46,1.36.51,2.04-.85,2.97-2.21,3.4.42-1.53.68-3.31-1.87-3.31-1.87,0-3.31-.34-4.16-1.53-.08,1.61-.17,8.06-.17,8.06-.08,2.46,3.14,2.38,5.26,1.61-.76,2.8-2.38,4.33-6.11,3.9.93.42,1.87,1.27,1.87,2.97,0,2.29-1.78,4.84-2.97,5.52h0c-1.19-.76-2.97-3.31-2.97-5.52,0-1.7.93-2.55,1.87-2.97-3.74.42-5.35-1.1-6.11-3.9,2.12.76,5.35.76,5.26-1.61,0,0-.17-6.45-.17-8.06-.85,1.19-2.29,1.53-4.16,1.53-2.55,0-2.29,1.78-1.87,3.31-1.36-.51-2.72-1.36-2.21-3.4-1.1,0-1.87-.59-2.46-1.36.76-.85,1.61-1.27,2.46-1.44-.25-1.36.68-2.63,2.21-3.31-.51,1.36-.68,3.48,1.87,3.48,1.02,0,1.78-.85,1.78-2.21,0-2.12-2.21-3.82-4.41-3.82-1.87,0-5.09,1.27-5.09,4.84,0,1.44.34,2.8.93,3.99,2.72,5.86,11.38,24.62,13.16,28.52h0c1.87-3.9,10.44-22.67,13.16-28.52.59-1.27.93-2.55.93-3.99-.17-3.57-3.4-4.84-5.26-4.84Zm-9-44.31h0c-1.87,3.9-10.44,22.67-13.16,28.52-.59,1.27-.93,2.55-.93,3.99,0,3.65,3.23,4.84,5.09,4.84,2.21,0,4.41-1.7,4.41-3.82,0-1.36-.68-2.21-1.78-2.21-2.46,0-2.29,2.12-1.87,3.48-1.53-.68-2.46-1.95-2.21-3.31-.85-.08-1.7-.51-2.46-1.44.59-.76,1.36-1.36,2.46-1.36-.51-2.04.85-2.97,2.21-3.4-.42,1.53-.68,3.31,1.87,3.31,1.87,0,3.31.34,4.16,1.53.08-1.61.17-8.06.17-8.06.08-2.46-3.14-2.38-5.26-1.61.76-2.8,2.38-4.33,6.11-3.9-.93-.42-1.87-1.27-1.87-2.97,0-2.29,1.78-4.84,2.97-5.52h0c1.19.76,2.97,3.31,2.97,5.52,0,1.7-.93,2.55-1.87,2.97,3.74-.42,5.35,1.1,6.11,3.9-2.12-.76-5.35-.76-5.26,1.61,0,0,.17,6.45.17,8.06.85-1.19,2.29-1.53,4.16-1.53,2.55,0,2.29-1.78,1.87-3.31,1.36.51,2.72,1.36,2.21,3.4,1.1,0,1.87.59,2.46,1.36-.76.85-1.61,1.27-2.46,1.44.25,1.36-.68,2.63-2.21,3.31.51-1.36.68-3.48-1.87-3.48-1.02,0-1.78.85-1.78,2.21,0,2.12,2.21,3.82,4.41,3.82,1.87,0,5.09-1.27,5.09-4.84,0-1.44-.34-2.8-.93-3.99-2.55-5.86-11.12-24.62-12.99-28.52Zm0-16.13h0c-.59,1.1-2.46,3.31-5.26,3.57-.08,0-.17.08-.25.08.08,0,.17.08.25.08,2.8.34,4.67,2.46,5.26,3.57h0c.59-1.1,2.46-3.31,5.26-3.57.08,0,.17-.08.25-.08-.08,0-.17-.08-.25-.08-2.8-.25-4.67-2.46-5.26-3.57Zm9-46.1c-2.21,0-4.41,1.7-4.41,3.82,0,1.36.68,2.21,1.78,2.21,2.46,0,2.29-2.12,1.87-3.48,1.53.68,2.46,1.95,2.21,3.31.85.08,1.7.51,2.46,1.44-.59.76-1.36,1.36-2.46,1.36.51,2.04-.85,2.97-2.21,3.4.42-1.53.68-3.31-1.87-3.31-1.87,0-3.31-.34-4.16-1.53-.08,1.61-.17,8.06-.17,8.06-.08,2.46,3.14,2.38,5.26,1.61-.76,2.8-2.38,4.33-6.11,3.9.93.42,1.87,1.27,1.87,2.97,0,2.29-1.78,4.84-2.97,5.52h0c-1.19-.76-2.97-3.31-2.97-5.52,0-1.7.93-2.55,1.87-2.97-3.74.42-5.35-1.1-6.11-3.9,2.12.76,5.35.76,5.26-1.61,0,0-.17-6.45-.17-8.06-.85,1.19-2.29,1.53-4.16,1.53-2.55,0-2.29,1.78-1.87,3.31-1.36-.51-2.72-1.36-2.21-3.4-1.1,0-1.87-.59-2.46-1.36.76-.85,1.61-1.27,2.46-1.44-.25-1.36.68-2.63,2.21-3.31-.51,1.36-.68,3.48,1.87,3.48,1.02,0,1.78-.85,1.78-2.21,0-2.12-2.21-3.82-4.41-3.82-1.87,0-5.09,1.27-5.09,4.84,0,1.44.34,2.8.93,3.99,2.72,5.86,11.38,24.62,13.16,28.52h0c1.87-3.9,10.44-22.67,13.16-28.52.59-1.27.93-2.55.93-3.99-.17-3.57-3.4-4.84-5.26-4.84Zm5.09-11.71c0-1.44-.34-2.8-.93-3.99-2.72-5.86-11.38-24.62-13.16-28.52h0c-1.87,3.9-10.44,22.67-13.16,28.52-.59,1.27-.93,2.55-.93,3.99,0,3.65,3.23,4.84,5.09,4.84,2.21,0,4.41-1.7,4.41-3.82,0-1.36-.68-2.21-1.78-2.21-2.46,0-2.29,2.12-1.87,3.48-1.53-.68-2.46-1.95-2.21-3.31-.85-.08-1.7-.51-2.46-1.44.59-.76,1.36-1.36,2.46-1.36-.51-2.04.85-2.97,2.21-3.4-.42,1.53-.68,3.31,1.87,3.31,1.87,0,3.31.34,4.16,1.53.08-1.61.17-8.06.17-8.06.08-2.46-3.14-2.38-5.26-1.61.76-2.8,2.38-4.33,6.11-3.9-.93-.42-1.87-1.27-1.87-2.97,0-2.29,1.78-4.84,2.97-5.52h0c1.19.76,2.97,3.31,2.97,5.52,0,1.7-.93,2.55-1.87,2.97,3.74-.42,5.35,1.1,6.11,3.9-2.12-.76-5.35-.76-5.26,1.61,0,0,.17,6.45.17,8.06.85-1.19,2.29-1.53,4.16-1.53,2.55,0,2.29-1.78,1.87-3.31,1.36.51,2.72,1.36,2.21,3.4,1.1,0,1.87.59,2.46,1.36-.76.85-1.61,1.27-2.46,1.44.25,1.36-.68,2.63-2.21,3.31.51-1.36.68-3.48-1.87-3.48-1.02,0-1.78.85-1.78,2.21,0,2.12,2.21,3.82,4.41,3.82,2.04,0,5.26-1.27,5.26-4.84Z"/>
      <ellipse class="cls-3" cx="284.87" cy="135.98" rx="39.47" ry="40.41"/>
      <path class="cls-3" d="m284.87,90.14c2.38,0,3.23-1.53,3.23-3.31,0-2.38-3.23-13.84-3.23-13.84,0,0-3.23,11.46-3.23,13.84,0,1.78.85,3.31,3.23,3.31Z"/>
      <path class="cls-3" d="m333.01,132.67c-1.78,0-3.23.93-3.23,3.31s1.53,3.31,3.23,3.31c2.38,0,13.5-3.31,13.5-3.31,0,0-11.21-3.31-13.5-3.31Z"/>
      <path class="cls-3" d="m281.65,185.21c0,2.38,3.23,13.84,3.23,13.84,0,0,3.23-11.46,3.23-13.84,0-1.78-.85-3.31-3.23-3.31-2.38,0-3.23,1.53-3.23,3.31Z"/>
      <path class="cls-3" d="m240.05,135.98c0-2.38-1.53-3.31-3.23-3.31-2.38,0-13.5,3.31-13.5,3.31,0,0,11.21,3.31,13.5,3.31,1.7,0,3.23-.85,3.23-3.31Z"/>
      <path class="cls-3" d="m302.02,93.62c2.21.85,3.57-.17,4.24-1.78.93-2.21,2.21-14.01,2.21-14.01,0,0-7.22,9.34-8.15,11.54-.68,1.53-.42,3.31,1.7,4.24Z"/>
      <path class="cls-3" d="m330.54,151.77c-1.61-.68-3.31-.42-4.24,1.78-.85,2.21.17,3.65,1.78,4.33,2.21.93,13.75,2.21,13.75,2.21,0,0-9.08-7.39-11.29-8.32Z"/>
      <path class="cls-3" d="m267.73,178.42c-2.21-.85-3.57.17-4.24,1.78-.93,2.21-2.21,14.01-2.21,14.01,0,0,7.22-9.34,8.15-11.54.68-1.61.42-3.4-1.7-4.24Z"/>
      <path class="cls-3" d="m243.45,118.4c.85-2.21-.17-3.65-1.78-4.33-2.21-.93-13.75-2.21-13.75-2.21,0,0,9.08,7.39,11.29,8.32,1.61.68,3.4.51,4.24-1.78Z"/>
      <path class="cls-3" d="m316.62,103.55c1.7,1.7,3.31,1.27,4.58,0,1.7-1.7,7.3-12.14,7.3-12.14,0,0-10.19,5.77-11.8,7.47-1.36,1.27-1.78,2.97-.08,4.67Z"/>
      <path class="cls-3" d="m321.21,168.49c-1.27-1.27-2.89-1.7-4.58,0-1.61,1.7-1.19,3.4,0,4.67,1.7,1.7,11.8,7.47,11.8,7.47,0,0-5.6-10.44-7.22-12.14Z"/>
      <path class="cls-3" d="m253.21,168.4c-1.7-1.7-3.31-1.27-4.58,0-1.7,1.7-7.3,12.14-7.3,12.14,0,0,10.19-5.77,11.8-7.47,1.27-1.19,1.7-2.97.08-4.67Z"/>
      <path class="cls-3" d="m253.21,103.55c1.61-1.7,1.19-3.4,0-4.67-1.7-1.7-11.8-7.47-11.8-7.47,0,0,5.6,10.44,7.3,12.14,1.1,1.27,2.8,1.7,4.5,0Z"/>
      <path class="cls-3" d="m326.3,118.4c.93,2.21,2.63,2.46,4.24,1.78,2.21-.93,11.29-8.32,11.29-8.32,0,0-11.54,1.36-13.75,2.21-1.61.76-2.63,2.12-1.78,4.33Z"/>
      <path class="cls-3" d="m308.47,194.21s-1.27-11.8-2.21-14.01c-.68-1.7-2.04-2.72-4.24-1.78-2.12.93-2.38,2.72-1.7,4.33.85,2.21,8.15,11.46,8.15,11.46Z"/>
      <path class="cls-3" d="m243.45,153.55c-.93-2.21-2.63-2.46-4.24-1.78-2.21.93-11.29,8.32-11.29,8.32,0,0,11.54-1.36,13.75-2.21,1.61-.68,2.72-2.12,1.78-4.33Z"/>
      <path class="cls-3" d="m267.73,93.62c2.12-.93,2.38-2.72,1.7-4.33-.93-2.21-8.15-11.54-8.15-11.54,0,0,1.27,11.8,2.21,14.01.68,1.7,2.04,2.8,4.24,1.87Z"/>
      <path class="cls-3" d="m293.62,90.98c2.29.42,3.48-.85,3.82-2.63.42-2.38-.51-14.18-.51-14.18,0,0-5.35,10.53-5.77,12.9-.42,1.78.17,3.48,2.46,3.9Z"/>
      <path class="cls-3" d="m332.67,142.34c-1.7-.34-3.4.25-3.82,2.55-.42,2.38.85,3.57,2.55,3.9,2.29.51,13.92-.51,13.92-.51,0,0-10.36-5.43-12.65-5.94Z"/>
      <path class="cls-3" d="m272.31,183.6c-.42,2.38.51,14.18.51,14.18,0,0,5.35-10.53,5.77-12.9.34-1.78-.25-3.48-2.55-3.9-2.21-.42-3.4.85-3.74,2.63Z"/>
      <path class="cls-3" d="m240.9,127.06c.42-2.38-.85-3.57-2.55-3.9-2.29-.51-13.92.51-13.92.51,0,0,10.36,5.43,12.65,5.94,1.7.34,3.4-.17,3.82-2.55Z"/>
      <path class="cls-3" d="m309.83,97.86c1.95,1.27,3.48.59,4.5-.93,1.27-2.04,4.84-13.33,4.84-13.33,0,0-8.91,7.64-10.19,9.68-1.02,1.44-1.1,3.23.85,4.58Z"/>
      <path class="cls-3" d="m326.64,160.59c-1.44-1.02-3.23-1.1-4.5.93s-.51,3.57.93,4.58c1.95,1.36,13.07,4.92,13.07,4.92,0,0-7.56-9.08-9.51-10.44Z"/>
      <path class="cls-3" d="m260.85,178.76c1.02-1.53,1.1-3.31-.85-4.58s-3.48-.59-4.5.93c-1.27,2.04-4.84,13.33-4.84,13.33,0,0,8.91-7.72,10.19-9.68Z"/>
      <path class="cls-3" d="m243.11,111.44c1.44,1.02,3.23,1.1,4.5-.93s.51-3.57-.93-4.58c-1.95-1.36-13.07-4.92-13.07-4.92,0,0,7.56,9.08,9.51,10.44Z"/>
      <path class="cls-3" d="m322.14,110.51c1.36,1.95,3.06,1.87,4.5.93,1.95-1.36,9.42-10.44,9.42-10.44,0,0-11.12,3.57-13.07,4.92-1.36,1.02-2.12,2.63-.85,4.58Z"/>
      <path class="cls-3" d="m319.08,188.44s-3.57-11.38-4.84-13.33c-1.02-1.53-2.55-2.29-4.5-.93s-1.87,3.14-.85,4.58c1.36,1.95,10.19,9.68,10.19,9.68Z"/>
      <path class="cls-3" d="m247.61,161.44c-1.36-1.95-3.06-1.87-4.5-.93-1.95,1.36-9.42,10.44-9.42,10.44,0,0,11.12-3.57,13.07-4.92,1.36-.93,2.12-2.55.85-4.58Z"/>
      <path class="cls-3" d="m260,97.86c1.95-1.36,1.87-3.14.85-4.58-1.27-2.04-10.19-9.68-10.19-9.68,0,0,3.57,11.38,4.84,13.33.93,1.53,2.55,2.29,4.5.93Z"/>
      <path class="cls-3" d="m331.39,123.16c-1.7.34-3.06,1.53-2.55,3.9.51,2.38,2.12,2.97,3.82,2.55,2.29-.51,12.65-5.94,12.65-5.94,0,0-11.63-.93-13.92-.51Z"/>
      <path class="cls-3" d="m293.62,180.97c-2.29.51-2.89,2.12-2.55,3.9.42,2.38,5.77,12.9,5.77,12.9,0,0,1.02-11.88.51-14.18-.25-1.78-1.44-3.06-3.74-2.63Z"/>
      <path class="cls-3" d="m240.9,144.97c-.51-2.38-2.12-2.97-3.82-2.55-2.29.51-12.65,5.94-12.65,5.94,0,0,11.63,1.02,13.92.51,1.7-.42,2.97-1.61,2.55-3.9Z"/>
      <path class="cls-3" d="m276.13,90.98c2.29-.51,2.89-2.12,2.55-3.9-.42-2.38-5.77-12.9-5.77-12.9,0,0-1.02,11.88-.51,14.18.25,1.78,1.44,3.14,3.74,2.63Z"/>
      <path class="cls-3" d="m287.16,230.63c1.36,0,2.8.34,4.16.08.34-.08.85-.08,1.02-.34-.59-.34-1.36-.34-2.04-.51h-5.6c-1.53-.17-3.14-.17-4.67-.76-.42-.17-.76-.51-1.1-.17-.59.17-1.19.34-1.7.34-1.02.08-2.04-.17-2.97-.51.68-.93,1.53-1.78,2.29-2.72-.59-.08-1.19-.25-1.78-.34,1.1-.76,2.04-1.61,3.06-2.38-1.02.08-2.12.17-3.06.51-1.36.17-2.72.68-4.07.93l-.51.08-.93.08c.08.25.08.51.08.76s0,.51-.08.76c-.08.17-.25.51-.42.59-.17.25-.42.42-.68.51s-.51.17-.76.17-.51,0-.76-.08-.51-.25-.76-.42c-.25.08-.59.08-.85.17h-.76c-.25-.08-.59-.17-.85-.25-.25-.08-.51-.25-.76-.42-1.02.59-2.12,1.19-2.72,2.21-.34.51-.42,1.02-.51,1.61-.08.68.08,1.44.42,2.12.08.17.17-.68.51-.85.59-.51,1.27-.85,1.95-1.02.59-.34.51,0,.25.51-.08.25-.42,1.19.08.68,1.95-.93,4.16-1.1,6.37-1.27,3.14-.34,6.2-.42,9.34-.42,2.97.25,5.94.25,8.83.34Z"/>
      <path class="cls-3" d="m313.23,223.92c-1.61.17-3.23-.08-3.06,1.87-.34,1.53-3.48,1.02-2.55,2.29,1.02,1.61-1.78,2.63-2.89,3.4-7.05,2.72-14.86,1.02-22.16,1.95-4.24.34-9.34,2.04-10.61,6.79,3.14.85,5.77-1.87,8.23-3.4.76.42-.51,3.23.68,4.16,2.46-.17,3.99-2.89,5.35-4.75,1.19,1.36-.51,3.48.51,4.75,2.8.25,3.9-3.06,5.94-4.41,1.36-.25-.59,2.97.51,3.9,1.95.85,3.9-.59,4.5-2.46.93-2.72,1.7-.68,2.04,1.02,1.1,1.95,3.31.08,4.07-1.19,1.02-2.63,1.95-.34,3.23.76,2.72.42,3.57-2.89,5.26-4.33-.17,1.61,1.61,3.74,3.06,2.12,1.19-1.1,1.27-3.48,2.55-4.16,1.78.68,3.4,2.97,5.52,1.7h0c1.27-.93,1.1-2.8,1.36-4.24-.42-2.72,1.78,1.02,3.23.76,3.14,1.1,6.96-1.36,6.45-4.92-7.05-.42-14.09-1.95-21.22-1.61Z"/>
      <path class="cls-3" d="m376.21,166.2c.25-2.04-2.89-2.21-3.65-.68-4.07,4.07-7.81,8.83-13.07,11.29,5.01-4.92,9.17-10.87,12.82-16.89.76-1.78,2.89-3.99,1.7-6.03-1.87-1.53-4.07-.17-5.09,1.7-3.14,4.24-5.6,9.25-9.68,12.65,3.57-6.96,7.3-14.43,7.39-22.5,0-1.7-.34-4.07-2.55-3.82-1.78.34-1.36,2.97-2.04,4.33-1.61,5.52-2.29,11.46-5.6,16.3.76-4.5,2.04-9.17,1.02-13.67-.42-2.04-3.65-1.19-3.23.85-3.82,19.78-16.81,37.01-33.7,47.03-7.72,4.5-16.47,7.39-25.21,8.74-2.38.51-4.92.25-7.22,1.02-5.52,4.33-8.83,11.54-15.79,13.75-3.14,1.61-7.22,1.87-9.42,4.84-.17.34-.25.85-.25,1.27h0c1.53,1.44,2.63,0,3.99-.76-.08.17-.17.34-.17.51,0,.42.34.68.68.68.42,0,.68-.34.68-.68,0-.42-.34-.68-.68-.68h-.08c5.18-1.87,9.68-5.01,14.18-8.23,2.72-2.29,5.01-5.26,8.66-6.03,7.05-2.21,14.6-1.95,21.73-3.99,5.43-7.56,14.6-10.27,22.33-14.69,1.7-.51,2.38-2.04,2.97-3.65,2.97-4.75,6.96-9,11.71-11.8,2.21-1.27,4.92-1.95,7.47-1.44-.17,3.06-1.95,5.86-3.99,7.98,1.7,0,3.23-1.1,4.92-1.1.59,3.14-2.72,4.84-4.5,6.79,1.02.25,4.75.51,2.72,1.53-2.63,1.87-5.69,3.14-8.06,5.35,2.21.42,2.55.93.25,1.7-1.27.85-3.65,1.19-3.82,2.8,1.7,1.1-.76,2.12-1.7,2.46-1.87.42-3.74,1.27-1.36,2.63-.93,1.44-2.89,1.7-4.5,1.61.51,1.61,1.19,3.4-.85,4.16-4.58,3.57-9.93,6.11-15.7,6.71,7.22.59,14.6-.76,20.71-4.84.85-1.02,5.09-2.04,2.72-2.89-1.1-.51-3.57-1.02-3.65-1.87,3.31-2.12,7.56-1.36,11.12-2.63.08-1.19-2.72-.85-3.74-1.1-2.55-.17-2.38-.85.08-1.1,3.06-.85,6.54-1.02,9.08-3.06-2.12-1.02-4.75-.08-6.96-.93,3.82-1.7,8.23-1.87,11.63-4.41,1.53-1.78-1.95-1.19-2.97-1.19-2.12.34-3.06-.68-.68-1.53,4.07-3.06,9.25-5.09,12.05-9.51.68-1.02,1.61-3.99-.59-2.89-2.8.93-5.35,4.24-8.57,3.23,6.03-4.58,12.14-10.36,16.47-17.32Z"/>
      <path class="cls-3" d="m213.4,172.65c1.44,1.36.93-1.27,2.12-1.53,1.27.93,2.55,1.78,3.65,2.89,5.77,5.09,9.17,12.48,15.11,17.4,2.8,2.46,6.28,3.65,9.68,4.58,3.82,2.29,6.54,5.94,9.93,8.83,3.23,3.06,7.72,3.4,11.88,3.65,5.01.25,10.78.08,14.77,3.82,1.36-1.7,1.95-3.9,2.97-5.77h0c-1.19-.08-2.38-.08-3.48-.25-12.9-.76-25.55-5.26-36.16-12.73-12.9-9.08-22.84-22.75-27.25-38.2-.76-2.29-.93-4.92-1.78-7.05-1.02-.85-2.63-.42-2.8,1.02-.76,4.5.34,9,1.1,13.41-3.48-5.26-4.16-11.63-5.94-17.57-.59-1.1-.25-3.4-2.04-3.06-2.04-.08-2.21,2.29-2.29,3.9.08,8.06,3.82,15.45,7.39,22.41-4.16-3.57-6.62-8.66-9.93-12.99-.85-1.53-2.55-2.63-4.24-1.78-1.7.59-.76,2.63-.17,3.82,3.14,6.37,7.47,11.97,11.97,17.4.34.68,3.14,2.55,1.36,1.7-4.92-2.63-8.49-7.13-12.39-11.04-.76-1.53-3.82-1.19-3.57.76,3.57,5.94,8.57,10.78,13.75,15.28.59.93,3.14,1.95,2.72,2.63-3.57.59-5.94-3.14-9.17-3.57-1.1.25.25,2.29.76,3.06,4.24,4.58,10.19,6.96,15.7,9.42-1.95.85-4.16.17-6.2.17-.76.25-3.65-.85-2.97.51,2.97,3.48,7.98,2.29,11.8,3.9-.93.76-2.21.93-3.4,1.19-.93.42-3.23.08-3.31,1.02,2.21,1.53,5.01,1.19,7.47,1.87,2.46.17,1.36.68-.34,1.1-.93.42-2.55.42-3.06,1.27,2.89,1.87,6.45,2.04,9.68,2.72-1.61.68-3.31.93-4.84,1.7,3.48,1.27,6.88,2.8,10.19,4.24,6.54,2.97,13.41,5.09,20.54,5.52-2.46-.51-4.84-1.27-7.22-2.04-5.94-2.04-11.97-4.24-17.4-7.47,1.19-.93,2.72-1.53,3.82-2.55-2.38-.08-4.75-.85-6.79-2.04-2.21-.85.42-1.87,1.19-2.72-.17-.85-2.29-.93-3.23-1.44-1.53,0-1.95-1.87-.76-2.63,1.7-.85-.76-1.36-1.53-1.7-1.27-.68.25-2.38-.34-3.14-3.06-.51-5.52-2.46-7.81-4.41.42-.42,2.63-.34,3.74-.51-2.38-1.7-4.41-3.9-6.03-6.37.59-.42,2.72-.08,3.99-.17-.25-3.06-2.04-5.77-3.82-8.15.25-.93,2.21-.85,2.97-.34Z"/>
    </g>
  </g>
</svg>