<?xml version="1.0" encoding="UTF-8"?>
<svg id="Layer_2" data-name="Layer 2" xmlns="http://www.w3.org/2000/svg" viewBox="0 0 520 320">
  <defs>
    <style>
      .cls-1 {
        fill: #a3ab78;
      }

      .cls-1, .cls-2, .cls-3, .cls-4, .cls-5 {
        stroke-width: 0px;
      }

      .cls-3 {
        fill: #fff;
      }

      .cls-4 {
        fill: #060;
      }

      .cls-5 {
        fill: #b00;
      }
    </style>
  </defs>
  <g id="_500x300_Background" data-name="500x300 Background">
    <rect class="cls-1" width="520" height="320" rx="10" ry="10"/>
  </g>
  <g id="Kenya">
    <g>
      <path class="cls-3" d="m10,10h500v300H10V10Z"/>
      <path class="cls-2" d="m10,10h500v90H10V10Z"/>
      <path class="cls-4" d="m10,220h500v90H10v-90Z"/>
      <g id="B">
        <g id="A">
          <path class="cls-2" d="m206.41,249.06l3.25,1.88,87.59-151.7c5.12-1.37,7.94-6.24,10.75-11.12,1.88-3.25,9.38-16.24,12.63-33.12-12.99,11.25-20.49,24.24-22.37,27.49-2.81,4.87-5.62,9.74-4.25,14.87l-87.59,151.7Z"/>
          <path class="cls-2" d="m210.01,252.22l-4.87-2.81,87.87-152.19c-1.24-5.35,1.65-10.35,4.44-15.19,7.81-13.53,16.58-22.55,22.57-27.73l2.05-1.77-.51,2.66c-1.5,7.77-4.92,19.87-12.73,33.41-2.79,4.84-5.68,9.84-10.94,11.44l-87.87,152.19Zm-2.31-3.5l1.62.94,87.31-151.23.38-.1c4.75-1.27,7.39-5.84,10.18-10.68,6.81-11.79,10.22-22.46,11.93-30.05-5.71,5.28-13.25,13.57-20.05,25.36-2.79,4.84-5.43,9.41-4.16,14.15l.1.38-.19.34-87.12,150.89Z"/>
        </g>
        <g id="A-2" data-name="A">
          <path class="cls-3" d="m206.41,249.06l3.25,1.88,87.59-151.7c5.12-1.37,7.94-6.24,10.75-11.12,1.88-3.25,9.38-16.24,12.63-33.12-12.99,11.25-20.49,24.24-22.37,27.49-2.81,4.87-5.62,9.74-4.25,14.87l-87.59,151.7Z"/>
        </g>
      </g>
      <g id="B-2" data-name="B">
        <g id="A-3" data-name="A">
          <path class="cls-2" d="m313.59,249.06l-3.25,1.88-87.59-151.7c-5.12-1.37-7.94-6.24-10.75-11.12-1.88-3.25-9.38-16.24-12.63-33.12,12.99,11.25,20.49,24.24,22.37,27.49,2.81,4.87,5.62,9.74,4.25,14.87l87.59,151.7Z"/>
          <path class="cls-2" d="m309.99,252.22l-87.87-152.19c-5.26-1.6-8.14-6.6-10.94-11.44-7.81-13.54-11.24-25.64-12.73-33.41l-.51-2.66,2.05,1.77c5.98,5.18,14.75,14.2,22.57,27.73,2.79,4.84,5.68,9.84,4.44,15.19l87.87,152.19-4.87,2.81ZM200.88,57.6c1.71,7.59,5.13,18.26,11.93,30.05,2.79,4.84,5.43,9.41,10.18,10.68l.38.1.19.34,87.12,150.89,1.62-.94-87.31-151.23.1-.38c1.27-4.75-1.37-9.32-4.16-14.15-6.8-11.79-14.34-20.08-20.05-25.36Z"/>
        </g>
        <g id="A-4" data-name="A">
          <path class="cls-3" d="m313.59,249.06l-3.25,1.88-87.59-151.7c-5.12-1.37-7.94-6.24-10.75-11.12-1.88-3.25-9.38-16.24-12.63-33.12,12.99,11.25,20.49,24.24,22.37,27.49,2.81,4.87,5.62,9.74,4.25,14.87l87.59,151.7Z"/>
        </g>
      </g>
      <path class="cls-5" d="m10,115v90h214.38c5.62,15,24.38,45,35.62,45s30-30,35.62-45h214.38v-90h-214.38c-5.62-15-24.38-45-35.62-45s-30,30-35.62,45H10Z"/>
      <g id="C">
        <path class="cls-2" d="m295.62,205c5.62-15,9.38-30,9.38-45s-3.75-30-9.38-45c-5.62,15-9.38,30-9.38,45s3.75,30,9.38,45"/>
      </g>
      <g id="C-2" data-name="C">
        <path class="cls-2" d="m224.38,205c-5.62-15-9.38-30-9.38-45s3.75-30,9.38-45c5.62,15,9.38,30,9.38,45s-3.75,30-9.38,45"/>
      </g>
      <g>
        <ellipse class="cls-3" cx="260" cy="160" rx="7.5" ry="11.25"/>
        <g id="D">
          <path class="cls-3" d="m261.88,170.97s7.5,15,7.5,39.38-7.5,39.37-7.5,39.37v-78.75Z"/>
        </g>
        <g id="D-2" data-name="D">
          <path class="cls-3" d="m258.12,149.03s-7.5-15-7.5-39.38,7.5-39.37,7.5-39.37v78.75Z"/>
        </g>
        <g id="D-3" data-name="D">
          <path class="cls-3" d="m258.12,170.97s-7.5,15-7.5,39.38,7.5,39.37,7.5,39.37v-78.75Z"/>
        </g>
        <g id="D-4" data-name="D">
          <path class="cls-3" d="m261.88,149.03s7.5-15,7.5-39.38-7.5-39.37-7.5-39.37v78.75Z"/>
        </g>
      </g>
    </g>
  </g>
</svg>