<?xml version="1.0" encoding="UTF-8"?>
<svg id="Layer_2" data-name="Layer 2" xmlns="http://www.w3.org/2000/svg" viewBox="0 0 520 320">
  <defs>
    <style>
      .cls-1 {
        fill: #c81010;
      }

      .cls-1, .cls-2, .cls-3, .cls-4, .cls-5, .cls-6 {
        stroke-width: 0px;
      }

      .cls-2 {
        fill: #a3ab78;
      }

      .cls-4 {
        fill: #f8d000;
      }

      .cls-5 {
        fill: #183070;
      }

      .cls-6 {
        fill: #fff;
      }
    </style>
  </defs>
  <g id="_500x300_Background" data-name="500x300 Background">
    <rect class="cls-2" width="520" height="320" rx="10" ry="10"/>
  </g>
  <g id="Kiribati">
    <g>
      <path class="cls-1" d="m10,171.87c1.14.07,2.28.12,3.42.13h1.16c8.28-.08,16.57-1.78,24.97-5.14,22.86-9.15,46.05-9.15,68.91,0,8.4,3.36,16.68,5.07,24.97,5.14h1.16c8.28-.08,16.57-1.78,24.97-5.14,6.4-2.56,12.9-4.37,19.5-5.5l-12.71-4.04,27.08-3.34c-7.52-3.84-14.04-9.55-18.85-16.7l-.55-.81.85.48c7.7,4.38,16.36,6.58,25.05,6.51l-24.13-19.4,26.46,6.67c-5.62-6.3-9.65-13.97-11.54-22.38l-.22-.95.62.76c5.6,6.87,12.87,12.04,20.99,15.11l-15.48-26.79,22.27,15.77c-2.97-7.9-3.95-16.51-2.68-25.04l.14-.97.3.93c2.74,8.43,7.66,15.89,14.13,21.69l-4.76-30.59,15.06,22.75c.09-8.44,2.29-16.83,6.54-24.31l.48-.85-.05.98c-.49,8.85,1.4,17.58,5.34,25.33l6.61-30.25,5.82,26.66c3.13-7.84,8.21-14.86,14.89-20.31l.76-.62-.4.89c-3.65,8.07-5.04,16.89-4.17,25.53l17.08-25.8-4.2,26.96c5.75-6.18,13.02-10.9,21.22-13.56l.93-.3-.7.69c-6.33,6.21-10.81,13.94-13.12,22.32l25.26-17.9-13.65,23.62c7.6-3.68,16.08-5.45,24.68-4.98l.98.05-.9.39c-8.14,3.51-15.11,9.09-20.29,16.07l30.02-7.56-21.27,17.1c8.42-.69,16.96.72,24.81,4.28l.89.4-.98.04c-8.85.33-17.37,3.01-24.71,7.64l30.71,3.79-12.72,4.04c6.6,1.13,13.1,2.94,19.5,5.5,8.4,3.36,16.68,5.07,24.97,5.14h1.16c8.28-.08,16.57-1.78,24.97-5.14,22.86-9.15,46.05-9.15,68.91,0,8.4,3.36,16.68,5.07,24.97,5.14h1.16c1.14-.01,2.28-.06,3.42-.13V10H10v161.87ZM175.99,36.64c8.6-.36,15.27-2.44,21.71-4.45,4.75-1.48,9.61-3,15.3-3.85.04,0,.09-.02.13-.02h0c2.72-.4,5.63-.65,8.81-.67,2.29.02,4.52.09,6.74.22.03,0,.05,0,.08,0h0c1.25.08,2.5.17,3.75.29,0,0,0,0,0,0h0c6.04.57,12.18,1.72,19.29,3.89,0,0,0,0,0,0h0c2.59.79,5.31,1.72,8.21,2.8.02,0,.04,0,.06.01h0c1.81.69,3.68,1.41,5.64,2.22,4.07-3.85,6.35-7.25,8.37-10.25,3.48-5.17,5.99-8.9,15.15-10.41,9.29-1.53,25.17-.81,54.8,2.46l1.33.15-1.3.31c-3.21.75-6.34,1.42-9.56,1.99h0s-.02,0-.03,0c-3.12.56-6.35,1.02-9.82,1.39h0s-.02,0-.02,0c-2.26.24-4.62.43-7.14.58h0s0,0,0,0c-3.04.18-6.29.29-9.86.33-1.96,4.73-9.15,14.27-17.39,19.69l.28.18c1.19.78,2.43,1.58,3.06,2.27h34.76l-29.93,6h25.11l-38.35,5.07c-3.02.82-6.18,1.73-9.23,2.6-10.9,3.14-22.1,6.37-31.27,6.37-1.89,0-3.68-.14-5.38-.44-2.7-.48-5.08-2.32-7.39-4.09-1.7-1.31-3.31-2.55-4.86-3.07-4.85-1.62-24.16-3.78-26.83-.08l-.41.56v-.69c-.04-2.18.42-3.73,1.42-4.74.99-1.01,2.5-1.5,4.61-1.5,3.67,0,6.32.17,8.44.31,3.32.21,5.52.36,8.77-.29,6.07-6.66,13.3-5.46,19.68-4.4.31.05.62.1.93.15-4.01-5.01-7.87-9.3-23.62-10.96-8.92,8.17-26.78,8.43-37.42,4.51-.11-.03-.19-.05-.2-.06v-.02c-1.9-.72-3.56-1.57-4.89-2.54-.05-.01-.09-.02-.09-.02v-.04c-.59-.44-1.12-.91-1.57-1.39l-.34-.37.5-.02Z"/>
      <path class="cls-4" d="m341.84,19.1c-7.14-.78-13.44-1.4-19.01-1.87-3.41,1.08-6.7,1.61-9.44,1.87,4,.53,13.93,1.44,28.45,0Z"/>
      <path class="cls-4" d="m196.1,35.6c-1.39.14-2.08.28-2.1.29l-.1-.45s1.67-.35,5.12-.5c0,0,.01-.01.02-.02l.02.02c4.17-.18,11-.09,20.9,1.18h0c16.44,1.71,20.14,6.26,24.35,11.53,2.23.35,4.08.55,5.76.42,4.84-2.64,8.92-5.33,12.39-8.15-3.53-1.58-6.36-1.27-6.39-1.27l-.05-.46c.13-.02,3.09-.34,6.83,1.39.46-.38.92-.77,1.36-1.16-4.12-1.38-11.62-1.51-11.69-1.51v-.46c.34,0,7.95.13,12.08,1.61.24-.22.49-.44.72-.66-.23-.1-.46-.18-.69-.28-7.68-1.9-14.44-1.62-14.51-1.62l-.02-.46c.06,0,5.38-.22,11.95,1.04-.74-.29-1.46-.56-2.17-.83-7.55-2.12-15.51-.82-15.58-.81l-.08-.45c.07-.01,5.95-.96,12.43.09-.6-.21-1.2-.41-1.78-.61h0c-6.57-1.21-16.25-.71-16.35-.71l-.02-.46c.08,0,7.48-.39,13.77.32-.19-.06-.38-.11-.57-.17-8.8-1.95-18.44-.37-18.53-.35l-.08-.45c.08-.01,7.19-1.17,14.79-.29-1.54-.41-3.05-.77-4.52-1.09h0c-8.06-1.1-16.93.85-17.02.87l-.1-.45c.08-.02,6.38-1.4,13.21-1.19-.98-.17-1.94-.32-2.9-.45-8.88-.17-13.99,1.89-14.04,1.91l-.18-.43s3.92-1.58,10.76-1.9c-.2-.02-.4-.04-.61-.06-7.78-.25-14.25,2.46-14.31,2.49l-.18-.42c.05-.02,4.23-1.77,9.91-2.35-7.74.07-14.6,2.98-14.67,3.01l-.18-.42c.06-.03,4.79-2.03,10.83-2.78-.64-.01-1.28-.03-1.93-.03-.99,0-1.95.04-2.89.09v.04c-6.8,1.08-11.5,3.27-11.54,3.29l-.2-.42s3.16-1.47,7.99-2.6c-.76.09-1.51.19-2.24.3-5.58.96-11.87,3.98-11.93,4.01l-.2-.41s2.42-1.16,5.54-2.27c-1.97.49-3.87,1.04-5.73,1.61h0c-2.15.64-6.77,3.05-6.82,3.07l-.21-.41c.09-.05,1.2-.63,2.57-1.28-5.58,1.73-11.45,3.39-18.65,3.88,3.35.64,11.46,1.68,18.47-1.39Z"/>
      <path class="cls-4" d="m198.49,35.42c-.62.03-1.17.07-1.65.11l.09.2c-3.91,1.88-8.22,2.43-11.91,2.43s-6.85-.56-8.26-.87c.29.26.6.51.93.76,1.62.36,14.34,2.98,20.8-2.63Z"/>
      <path class="cls-4" d="m204.97,35.35c-.83-.02-1.61-.03-2.34-.03-5.01,5.24-10.81,6.39-14.92,6.39-.7,0-1.34-.04-1.93-.09,2.18.57,4.59.99,7.11,1.22.64-.19,8.68-2.68,12.07-7.49Z"/>
      <path class="cls-4" d="m201.98,35.32c-1.03,0-1.95.03-2.78.06-3.33,3.2-8.49,4.04-12.95,4.04-3.2,0-6.03-.43-7.59-.72,1.13.71,2.45,1.34,3.92,1.89.83.24,11.13,3.03,19.4-5.28Z"/>
      <path class="cls-4" d="m285.96,56.27l30.54-4.04h-20.44c-4.04,0-8.44,2.85-10.1,4.04Z"/>
      <path class="cls-4" d="m304.64,16.13c-4.53-.12-8.26-.04-11.37.22,1.68.6,5.97,1.68,11.37-.22Z"/>
      <path class="cls-4" d="m321.38,20.22c3.07.45,7.77.92,13.03.65,1.98-.35,3.93-.74,5.88-1.16-5.13.46-9.66.63-13.52.63-1.98,0-3.77-.04-5.39-.11Z"/>
      <path class="cls-4" d="m299.61,18.95c1.46.92,5.06,2.81,11.78,4.15,1.33-.04,2.62-.08,3.87-.14-6.53-1.15-10.8-3.38-11.35-3.68-1.62-.02-3.12-.17-4.29-.33Z"/>
      <path class="cls-4" d="m239.7,52.23v-.46c3.17,0,7.65-2.23,9.48-3.21-.07,0-.13,0-.19,0-1.29,0-2.68-.16-4.26-.39h0s-.59-.09-.59-.09c-.5-.08-1.01-.16-1.52-.25-6.28-1.04-13.41-2.22-19.32,4.31l-.05.06-.07.02c-3.35.67-5.58.53-8.96.31-2.12-.14-4.76-.31-8.42-.31-1.98,0-3.38.44-4.28,1.36-.82.83-1.24,2.09-1.3,3.83,1.55-1.34,5.17-1.81,9.3-1.81,6.79,0,14.97,1.29,17.63,2.18,1.62.54,3.26,1.8,5,3.14,2.26,1.74,4.61,3.54,7.19,4,9.83,1.75,23.36-2.15,36.44-5.92,3.04-.88,6.18-1.78,9.22-2.6.46-.37,5.91-4.61,11.02-4.63l27.64-5.54h-30.33l-.07-.08c-.57-.66-1.88-1.51-3.04-2.26l-.54-.35c-8.9-1.86-11.33-4.8-11.43-4.92l.36-.29s2.45,2.93,11.11,4.75c.53-.34,1.05-.7,1.57-1.08-7.62-1.05-11.29-4.62-11.45-4.78l.33-.33s3.87,3.77,11.64,4.71c.69-.51,1.36-1.05,2.03-1.6-8.13-1.3-11.88-4.44-12.04-4.58l.3-.35s3.94,3.31,12.21,4.54c.63-.54,1.24-1.1,1.84-1.67-6.58-.62-12.34-4.4-12.39-4.44l.25-.38c.06.04,5.95,3.92,12.58,4.4.57-.55,1.14-1.12,1.68-1.69-7.99-1.05-12.14-4.84-12.19-4.88l.31-.34s4.2,3.83,12.26,4.8c.52-.55,1.02-1.11,1.5-1.66-7.44-.71-12.26-4.77-12.31-4.81l.3-.35s4.9,4.13,12.38,4.73c.6-.7,1.17-1.4,1.71-2.08-9.57-.97-12.56-4.28-12.68-4.42l.35-.3s3.07,3.39,12.66,4.3c.46-.59.89-1.18,1.3-1.75-9.11-.87-12.4-4.36-12.54-4.51l.34-.31s3.39,3.59,12.5,4.39c.36-.52.7-1.03,1.01-1.52-6.65-.09-12.39-4.35-12.45-4.4l.28-.37c.06.04,5.82,4.34,12.46,4.31.23-.37.44-.73.63-1.07-4.69-.1-11.86-4.37-12.17-4.56l.24-.39c.08.05,7.64,4.56,12.19,4.49.31-.57.56-1.09.76-1.57-5.68-.93-11.71-4.65-11.77-4.69l.24-.39c.06.04,6.22,3.84,11.88,4.67.66,0,1.3-.02,1.94-.03-7.4-1.72-10.41-4-10.84-4.35-.82-.14-1.34-.25-1.44-.28l.1-.45c.11.02,10.75,2.4,15.75-1.56-2.62-.16-5.03-.27-7.26-.34l.02.05c-2.69,1.1-5.16,1.46-7.22,1.46-3.79,0-6.22-1.21-6.26-1.23h0c-11.41,1.13-13.96,4.89-17.82,10.63-2.05,3.05-4.38,6.5-8.55,10.43l-.11.1h0c-4.09,3.84-9.17,7.4-15.55,10.88-.28.16-6.38,3.74-10.54,3.74Zm-9.64.73c-.87,0-1.57-.71-1.57-1.57s.71-1.57,1.57-1.57,1.57.71,1.57,1.57-.71,1.57-1.57,1.57Zm59.22-35.95s3.14,1.89,5.94,1.82v.46s-.11,0-.17,0c-2.88,0-5.88-1.81-6.01-1.89l.24-.39Zm-1.78,1.33s4.13,2.3,6.85,1.73l.1.45c-.34.07-.69.1-1.06.1-2.74,0-5.96-1.79-6.11-1.88l.23-.4Zm-.88,1.15s2.32,2.46,6.5,2.39v.46c-.07,0-.15,0-.22,0-4.24,0-6.52-2.43-6.61-2.54l.34-.31Zm-1.4,2.38s3.65,2.02,6.7,1.57l.07.46c-.33.05-.67.07-1.01.07-2.92,0-5.85-1.62-5.99-1.7l.22-.4Zm-1.19,2.04s2.73,1.78,6.14,1.82v.46c-3.55-.04-6.28-1.82-6.39-1.9l.25-.38Zm-1.62,2.14s2.32,1.58,6.27,1.48v.46c-.12,0-.24,0-.36,0-3.89,0-6.08-1.5-6.17-1.57l.26-.38Zm-1.87,2.11s3.36,1.17,6.37,1.46l-.04.46c-3.06-.29-6.44-1.47-6.48-1.48l.15-.43Zm-1.52,1.77s2.48,1.56,5.89,1.85l-.04.46c-3.53-.3-5.99-1.86-6.09-1.93l.25-.39Zm-1.7,1.52s2.54,2.22,5.67,2.29v.46c-3.32-.08-5.87-2.31-5.98-2.41l.3-.34Zm-1.64,2.08s2.17,1.84,5.49,2.01l-.02.46c-3.49-.18-5.68-2.05-5.77-2.13l.3-.35Zm-1.86,1.87s2.91,1.97,5.44,1.9v.46s-.07,0-.11,0c-2.64,0-5.46-1.9-5.58-1.98l.26-.38Zm-1.63,1.68s2.42,2.22,5.22,1.82l.06.46c-.26.04-.52.05-.77.05-2.66,0-4.73-1.91-4.83-1.99l.31-.34Zm-1.76,1.71s2.13,1.81,5,1.79v.46h-.02c-3.02,0-5.18-1.82-5.27-1.9l.3-.35Zm-1.45,1.39s2.48,1.86,4.69,1.76l.02.46c-.05,0-.1,0-.15,0-2.35,0-4.73-1.78-4.83-1.86l.28-.37Z"/>
      <path class="cls-4" d="m309,19.31c-1.66,0-2.69-.09-2.84-.11-.42.03-.84.05-1.26.06,1.78.86,6.33,2.78,12.6,3.57,1.49-.09,2.93-.19,4.33-.31-6.52-.72-12.15-3.1-12.43-3.22-.13,0-.28,0-.41,0Z"/>
      <path class="cls-4" d="m317.59,20c-4.04-.32-6.21-.74-6.26-.75h0c-.25.01-.5.02-.74.03,2.27.86,8.05,2.82,14.04,2.98,2.27-.24,4.44-.52,6.54-.85-7.67-.01-13.52-1.39-13.58-1.41h0Z"/>
      <path class="cls-4" d="m321.56,17.13c-2.82-.23-5.46-.43-7.91-.58-1.33,1.2-3.08,1.9-4.94,2.3,2.8.02,7.61-.23,12.85-1.72Z"/>
      <path class="cls-4" d="m207.87,35.46c-.82-.04-1.6-.07-2.34-.09-2.8,4.22-8.89,6.69-11.43,7.56.81.05,1.63.1,2.46.11,1.14.02,2.27,0,3.37-.05.54-.38,5.76-4.12,7.94-7.54Z"/>
      <path class="cls-4" d="m210.39,35.62c-.69-.05-1.35-.09-1.99-.12-1.83,3.04-6,6.27-7.62,7.46.8-.05,1.59-.12,2.36-.21.34-.23,5.06-3.44,7.24-7.13Z"/>
      <path class="cls-4" d="m210.9,35.65c-1.76,3.12-5.25,5.86-6.78,6.97,1.02-.14,2.01-.3,2.98-.51.28-.28,3.97-3.9,5.3-6.35-.51-.04-1.01-.08-1.5-.12Z"/>
      <path class="cls-4" d="m212.9,35.81c-1.05,2.05-3.78,4.92-4.96,6.11,1.08-.25,2.12-.54,3.11-.87.19-.17,3.23-2.96,4.12-5.03-.78-.08-1.54-.15-2.28-.21Z"/>
      <path class="cls-4" d="m212.12,40.68c2.85-1.06,5.31-2.47,7.27-4.17-1.3-.16-2.54-.31-3.73-.43-.63,1.59-2.47,3.55-3.54,4.6Z"/>
      <path class="cls-3" d="m177.41,38.42v.04s.03,0,.08.02c1.33.97,3,1.82,4.9,2.54v.02s.08.03.2.06c10.64,3.92,28.49,3.66,37.42-4.51,15.75,1.66,19.61,5.95,23.62,10.96-.31-.05-.62-.1-.93-.15-6.38-1.06-13.61-2.26-19.68,4.4-3.25.65-5.45.5-8.77.29-2.13-.14-4.78-.31-8.44-.31-2.11,0-3.62.49-4.61,1.5-1,1.01-1.47,2.56-1.43,4.74v.69s.42-.56.42-.56c2.67-3.69,21.98-1.54,26.83.08,1.55.52,3.16,1.76,4.86,3.07,2.31,1.77,4.69,3.61,7.39,4.09,1.69.3,3.49.44,5.38.44,9.17,0,20.38-3.23,31.27-6.37,3.05-.88,6.21-1.79,9.23-2.6l38.35-5.07h-25.11l29.93-6h-34.76c-.64-.69-1.87-1.49-3.06-2.27l-.28-.18c8.24-5.42,15.44-14.96,17.39-19.69,3.57-.04,6.82-.15,9.86-.33,0,0,0,0,0,0h0c2.52-.15,4.88-.34,7.14-.58,0,0,.02,0,.02,0h0c3.47-.37,6.69-.83,9.82-1.39,0,0,.02,0,.03,0h0c3.22-.58,6.35-1.25,9.56-2l1.3-.31-1.33-.15c-29.63-3.28-45.51-3.99-54.8-2.46-9.16,1.51-11.67,5.24-15.15,10.41-2.02,3-4.31,6.4-8.37,10.25-1.96-.81-3.83-1.54-5.64-2.22h0s-.04-.02-.06-.02c-2.89-1.08-5.62-2.01-8.21-2.8h0s0,0,0,0c-7.11-2.17-13.25-3.31-19.29-3.88h0s0,0,0,0c-1.25-.12-2.5-.21-3.75-.29h0s-.05,0-.08,0c-2.22-.13-4.45-.2-6.74-.22-3.18.02-6.08.27-8.81.68h0s-.09.01-.13.02c-5.68.85-10.55,2.37-15.3,3.85-6.45,2.01-13.11,4.09-21.71,4.45l-.5.02.34.37c.45.49.98.95,1.58,1.39Zm5.17,2.19c-1.47-.55-2.79-1.19-3.92-1.89,1.56.29,4.39.72,7.59.72,4.46,0,9.62-.84,12.95-4.04.82-.03,1.75-.06,2.78-.06-8.27,8.31-18.57,5.53-19.4,5.28Zm3.2,1.01c.59.05,1.23.09,1.93.09,4.11,0,9.91-1.15,14.92-6.39.73,0,1.51.01,2.34.03-3.4,4.81-11.44,7.3-12.07,7.49-2.53-.23-4.93-.65-7.11-1.22Zm10.77,1.43c-.83-.02-1.65-.06-2.46-.11,2.54-.88,8.63-3.35,11.43-7.56.74.02,1.52.05,2.34.09-2.18,3.42-7.41,7.16-7.94,7.54-1.1.05-2.23.07-3.37.05Zm4.23-.1c1.62-1.19,5.79-4.42,7.62-7.46.64.03,1.31.08,1.99.12-2.18,3.69-6.9,6.9-7.24,7.13-.78.09-1.56.16-2.36.21Zm6.32-.83c-.96.2-1.96.37-2.98.51,1.54-1.11,5.02-3.85,6.78-6.97.49.04.99.08,1.5.12-1.34,2.44-5.02,6.07-5.3,6.35Zm3.96-1.06c-1,.33-2.04.62-3.11.87,1.18-1.19,3.91-4.06,4.96-6.11.74.06,1.49.13,2.28.21-.89,2.07-3.94,4.86-4.12,5.03Zm1.07-.38c1.06-1.05,2.91-3.01,3.54-4.6,1.19.12,2.43.27,3.73.43-1.95,1.71-4.41,3.11-7.27,4.17Zm104.39,11.55l-30.54,4.04c1.67-1.19,6.07-4.04,10.1-4.04h20.44Zm-5.12-29.14c-6.71-1.33-10.32-3.22-11.78-4.15,1.18.16,2.68.31,4.29.33.55.3,4.83,2.53,11.35,3.68-1.25.06-2.54.1-3.87.14Zm6.12-.26c-6.27-.79-10.82-2.72-12.6-3.57.42,0,.83-.03,1.26-.06.15.01,1.18.11,2.84.11.13,0,.28,0,.41,0,.28.12,5.91,2.5,12.43,3.22-1.4.12-2.83.23-4.33.31Zm7.13-.58c-5.99-.16-11.77-2.12-14.04-2.98.24,0,.48-.02.74-.03h0c.05.01,2.23.44,6.26.75h0c.07.02,5.91,1.4,13.58,1.42-2.1.32-4.26.61-6.54.85Zm9.78-1.39c-5.26.27-9.96-.2-13.03-.65,1.62.07,3.41.11,5.39.11,3.86,0,8.39-.17,13.52-.63-1.95.42-3.9.81-5.88,1.16Zm7.43-1.77c-14.52,1.43-24.45.53-28.45,0,2.74-.25,6.03-.79,9.44-1.87,5.57.47,11.87,1.09,19.01,1.87Zm-20.28-1.98c-5.24,1.49-10.05,1.74-12.85,1.72,1.87-.39,3.62-1.1,4.94-2.3,2.45.15,5.09.35,7.91.58Zm-16.93-.99c-5.4,1.9-9.69.82-11.37.22,3.11-.26,6.84-.33,11.37-.22Zm-38.84,21.47h0s.11-.1.11-.1c4.17-3.93,6.5-7.38,8.55-10.43,3.87-5.74,6.41-9.51,17.82-10.64h0s2.47,1.23,6.26,1.23c2.06,0,4.52-.36,7.22-1.46l-.02-.05c2.23.07,4.64.18,7.26.34-5,3.96-15.64,1.58-15.75,1.56l-.1.45c.09.02.62.14,1.44.28.43.35,3.45,2.63,10.84,4.35-.64.01-1.28.02-1.94.03-5.66-.84-11.82-4.64-11.88-4.67l-.24.39c.06.04,6.1,3.76,11.77,4.69-.2.48-.45,1-.76,1.57-4.55.07-12.12-4.45-12.19-4.49l-.24.39c.31.19,7.49,4.46,12.17,4.56-.19.35-.4.7-.63,1.07-6.64.03-12.4-4.27-12.46-4.31l-.28.37c.06.04,5.8,4.31,12.45,4.4-.31.49-.65,1-1.01,1.52-9.11-.8-12.47-4.36-12.5-4.39l-.34.31c.14.15,3.43,3.65,12.54,4.51-.4.57-.84,1.16-1.3,1.75-9.59-.91-12.63-4.26-12.66-4.3l-.35.3c.12.14,3.11,3.46,12.68,4.42-.54.69-1.11,1.38-1.71,2.08-7.48-.6-12.33-4.69-12.38-4.73l-.3.35s4.86,4.1,12.31,4.81c-.49.56-.99,1.11-1.5,1.66-8.05-.97-12.22-4.77-12.26-4.8l-.31.34s4.19,3.82,12.19,4.88c-.54.57-1.11,1.13-1.68,1.69-6.63-.48-12.52-4.36-12.58-4.4l-.25.38c.06.04,5.81,3.82,12.39,4.44-.6.57-1.21,1.13-1.84,1.67-8.26-1.24-12.17-4.51-12.21-4.54l-.3.35c.16.14,3.91,3.28,12.04,4.58-.66.56-1.34,1.09-2.03,1.6-7.77-.94-11.6-4.67-11.64-4.71l-.33.33c.16.16,3.83,3.73,11.45,4.78-.52.37-1.04.73-1.57,1.08-8.66-1.82-11.09-4.72-11.11-4.75l-.36.29c.1.12,2.53,3.07,11.43,4.92l.54.35c1.16.75,2.47,1.61,3.04,2.26l.07.08h30.33l-27.64,5.54c-5.11.02-10.56,4.26-11.02,4.63-3.04.82-6.18,1.72-9.22,2.6-13.08,3.77-26.61,7.67-36.44,5.92-2.58-.46-4.93-2.26-7.19-4-1.74-1.33-3.37-2.59-5-3.14-2.66-.89-10.84-2.18-17.63-2.18-4.13,0-7.75.48-9.3,1.81.05-1.74.48-3,1.3-3.83.9-.91,2.3-1.36,4.28-1.36,3.65,0,6.29.17,8.42.31,3.38.22,5.61.36,8.96-.31l.07-.02.05-.06c5.91-6.54,13.03-5.36,19.32-4.31.51.08,1.02.17,1.52.25l.59.09h0c1.58.23,2.97.39,4.26.39.07,0,.13,0,.19,0-1.83.99-6.31,3.21-9.48,3.21v.46c4.17,0,10.27-3.58,10.54-3.74,6.38-3.48,11.47-7.04,15.55-10.88Zm-69.51-4.5c-1.37.66-2.48,1.24-2.57,1.28l.21.41s4.67-2.44,6.82-3.07h0c1.86-.57,3.75-1.11,5.73-1.61-3.13,1.11-5.5,2.25-5.54,2.27l.2.41c.06-.03,6.34-3.05,11.93-4.01.73-.11,1.48-.21,2.24-.3-4.83,1.13-7.95,2.59-7.99,2.6l.2.42s4.74-2.21,11.55-3.29v-.04c.93-.05,1.89-.08,2.88-.09.65,0,1.29.02,1.93.03-6.04.75-10.77,2.75-10.83,2.78l.18.42c.07-.03,6.93-2.94,14.67-3.01-5.69.58-9.86,2.33-9.91,2.35l.18.42c.06-.03,6.53-2.74,14.31-2.49.2.02.4.04.61.06-6.83.32-10.71,1.88-10.76,1.9l.18.43c.05-.02,5.16-2.08,14.04-1.91.96.13,1.92.28,2.9.45-6.83-.21-13.14,1.17-13.21,1.19l.1.45c.09-.02,8.96-1.97,17.02-.87h0c1.47.32,2.97.68,4.52,1.09-7.6-.89-14.71.27-14.79.29l.08.45c.1-.02,9.73-1.6,18.53.35.19.06.38.11.57.17-6.28-.71-13.68-.33-13.77-.32l.02.46c.1,0,9.78-.5,16.35.71h0c.59.2,1.18.4,1.78.61-6.48-1.05-12.36-.1-12.43-.09l.08.45c.08-.01,8.03-1.31,15.58.81.72.27,1.43.54,2.17.83-6.57-1.26-11.89-1.04-11.95-1.04l.02.46c.07,0,6.84-.28,14.51,1.62.23.09.46.18.69.28-.24.22-.48.44-.72.66-4.13-1.49-11.75-1.61-12.08-1.61v.46c.07,0,7.57.12,11.69,1.51-.44.39-.9.77-1.36,1.16-3.74-1.74-6.71-1.41-6.83-1.39l.05.46s2.86-.31,6.39,1.27c-3.47,2.82-7.56,5.51-12.39,8.15-1.68.13-3.53-.07-5.76-.42-4.21-5.27-7.91-9.82-24.35-11.53h0c-9.9-1.27-16.72-1.36-20.9-1.18l-.02-.02s-.01.01-.02.02c-3.45.15-5.08.49-5.12.5l.1.45s.7-.15,2.1-.29c-7,3.08-15.12,2.03-18.47,1.39,7.21-.49,13.07-2.15,18.65-3.88Zm-11.26,5.04c3.69,0,8-.55,11.91-2.43l-.09-.2c.49-.04,1.04-.08,1.65-.11-6.46,5.61-19.18,2.99-20.8,2.63-.33-.25-.64-.5-.93-.76,1.41.31,4.51.87,8.26.87Z"/>
      <circle class="cls-3" cx="230.06" cy="51.39" r="1.57"/>
      <path class="cls-3" d="m277.47,39.37l-.06-.46c-2.8.4-5.2-1.8-5.22-1.82l-.31.34c.09.09,2.17,1.99,4.83,1.99.25,0,.51-.02.77-.05Z"/>
      <path class="cls-3" d="m288.7,27.99v-.46c-3.97.1-6.26-1.46-6.28-1.48l-.26.38c.09.07,2.28,1.57,6.17,1.57.12,0,.25,0,.37,0Z"/>
      <path class="cls-3" d="m284.91,31.79c-3.41-.29-5.86-1.84-5.89-1.85l-.25.39c.1.07,2.57,1.62,6.09,1.93l.04-.46Z"/>
      <path class="cls-3" d="m290.17,25.73c-3.41-.04-6.11-1.8-6.14-1.82l-.25.38c.11.08,2.84,1.86,6.38,1.9v-.46Z"/>
      <path class="cls-3" d="m292.89,22.33c.08,0,.15,0,.23,0v-.46c-4.19.07-6.48-2.36-6.51-2.39l-.34.31c.1.11,2.37,2.54,6.61,2.54Z"/>
      <path class="cls-3" d="m294.45,20.52l-.1-.45c-2.71.57-6.81-1.7-6.85-1.73l-.23.4c.15.09,3.38,1.88,6.11,1.88.36,0,.72-.03,1.06-.1Z"/>
      <path class="cls-3" d="m291.99,23.9l-.07-.46c-3.05.44-6.67-1.55-6.7-1.57l-.22.4c.14.08,3.07,1.7,5.99,1.7.34,0,.68-.02,1.01-.07Z"/>
      <path class="cls-3" d="m273.69,42.42l-.02-.46c-2.21.09-4.67-1.75-4.69-1.76l-.28.37c.1.08,2.49,1.86,4.83,1.86.05,0,.1,0,.15,0Z"/>
      <path class="cls-3" d="m283,33.75c-3.13-.08-5.65-2.27-5.67-2.29l-.3.34c.11.09,2.66,2.33,5.97,2.41v-.46Z"/>
      <path class="cls-3" d="m275.43,41.05v-.46c-2.87.02-4.98-1.77-5-1.79l-.3.35c.09.08,2.26,1.9,5.27,1.9h.03Z"/>
      <path class="cls-3" d="m281.17,35.55c-3.32-.17-5.47-2-5.49-2.01l-.3.35c.09.08,2.28,1.94,5.77,2.13l.02-.46Z"/>
      <path class="cls-3" d="m279.27,37.77v-.46c-2.54.07-5.42-1.88-5.45-1.9l-.26.38c.12.08,2.94,1.98,5.58,1.98.04,0,.08,0,.12,0Z"/>
      <path class="cls-3" d="m286.91,29.62c-3.01-.28-6.33-1.45-6.37-1.46l-.15.43s3.41,1.19,6.48,1.48l.04-.46Z"/>
      <path class="cls-3" d="m295.24,19.29v-.46c-2.82.08-5.93-1.8-5.96-1.82l-.24.39c.13.08,3.13,1.89,6.01,1.89.06,0,.12,0,.19,0Z"/>
      <path class="cls-4" d="m210.39,151.88l-9.91-7.97c-8.64.17-17.26-1.88-24.98-6.08,4.84,6.9,11.31,12.38,18.73,16.05l16.17-1.99Z"/>
      <path class="cls-4" d="m168.47,157.52l11.56,3.67c9.49-1.51,19.16-1.56,28.98-.11.29-3.01.84-5.93,1.63-8.76l-42.17,5.2Z"/>
      <path class="cls-4" d="m218.83,134.91l-6.37-11.02c-8.11-2.96-15.4-7.99-21.08-14.69,2.02,8.18,6.07,15.63,11.67,21.73l15.78,3.98Z"/>
      <path class="cls-4" d="m218.93,135.41l-41.22-10.39,33.11,26.63c1.73-5.92,4.5-11.41,8.1-16.24Z"/>
      <path class="cls-4" d="m232.84,122.14l-1.96-12.57c-6.5-5.69-11.49-13.02-14.37-21.32-1.07,8.36.02,16.77,3.03,24.48l13.29,9.42Z"/>
      <path class="cls-4" d="m232.76,122.65l-34.69-24.57,21.28,36.81c3.71-4.83,8.25-8.98,13.41-12.24Z"/>
      <path class="cls-4" d="m253.24,102.87c-4-7.66-6.01-16.29-5.69-25.08-4.02,7.4-6.04,15.64-6.02,23.92l8.99,13.58,2.72-12.43Z"/>
      <path class="cls-4" d="m250.25,115.71l-23.45-35.43,6.54,41.99c5.12-3.13,10.83-5.39,16.92-6.57Z"/>
      <path class="cls-4" d="m276.5,104.68c-.96-8.58.29-17.35,3.75-25.42-6.42,5.45-11.29,12.4-14.25,20.13l3.47,15.9,7.02-10.61Z"/>
      <path class="cls-4" d="m260,114.77c3.1,0,6.13.29,9.08.82l-9.07-41.51-9.08,41.51c2.95-.53,5.97-.82,9.07-.82Z"/>
      <path class="cls-4" d="m287.15,122.14l10.38-7.35c2.2-8.35,6.53-16.09,12.69-22.37-7.96,2.76-15,7.49-20.56,13.62l-2.5,16.09Z"/>
      <path class="cls-4" d="m286.67,122.28l6.53-41.99-23.45,35.43c6.09,1.18,11.8,3.43,16.92,6.56Z"/>
      <path class="cls-4" d="m301.17,134.92l12.33-3.11c5.07-6.99,11.91-12.64,19.91-16.27-8.42-.3-16.7,1.56-24.09,5.27l-8.15,14.1Z"/>
      <path class="cls-4" d="m300.66,134.88l21.27-36.81-34.69,24.58c5.16,3.26,9.71,7.41,13.41,12.24Z"/>
      <path class="cls-4" d="m309.62,151.88l12.63,1.56c7.25-4.68,15.66-7.47,24.43-7.97-7.74-3.32-16.13-4.57-24.37-3.78l-12.69,10.2Z"/>
      <path class="cls-4" d="m309.17,151.66l33.12-26.62-41.22,10.38c3.61,4.83,6.37,10.32,8.1,16.24Z"/>
      <path class="cls-4" d="m309.36,152.31c.79,2.83,1.34,5.76,1.63,8.77,9.82-1.44,19.49-1.4,28.98.11l11.56-3.67-42.17-5.2Z"/>
      <path class="cls-3" d="m168.47,157.52l42.17-5.2c-.79,2.83-1.34,5.76-1.63,8.76.15.02.3.05.46.07,2.45-25.73,24.17-45.92,50.53-45.92s48.08,20.19,50.53,45.92c.15-.02.3-.05.46-.07-.29-3.01-.84-5.93-1.63-8.77l42.17,5.2-11.56,3.67c.33.05.66.11.99.17l12.72-4.04-30.71-3.79c7.35-4.63,15.86-7.32,24.71-7.64l.98-.04-.89-.4c-7.85-3.55-16.4-4.97-24.81-4.28l21.27-17.1-30.02,7.56c5.18-6.98,12.15-12.57,20.29-16.07l.9-.39-.98-.05c-8.6-.47-17.09,1.3-24.68,4.98l13.65-23.62-25.26,17.9c2.31-8.38,6.79-16.11,13.12-22.32l.7-.69-.93.3c-8.19,2.67-15.46,7.38-21.22,13.56l4.2-26.96-17.08,25.8c-.87-8.64.52-17.46,4.17-25.53l.4-.89-.76.62c-6.68,5.44-11.75,12.47-14.89,20.31l-5.82-26.66-6.61,30.25c-3.94-7.75-5.83-16.48-5.34-25.33l.05-.98-.48.85c-4.26,7.49-6.46,15.87-6.54,24.31l-15.06-22.75,4.76,30.59c-6.47-5.8-11.39-13.26-14.13-21.69l-.3-.93-.14.97c-1.27,8.52-.29,17.13,2.68,25.04l-22.27-15.77,15.48,26.79c-8.12-3.07-15.4-8.25-20.99-15.11l-.62-.76.22.95c1.9,8.4,5.92,16.08,11.54,22.38l-26.46-6.67,24.13,19.4c-8.69.07-17.35-2.12-25.05-6.51l-.85-.48.55.81c4.81,7.15,11.33,12.85,18.85,16.7l-27.08,3.34,12.71,4.04c.33-.06.66-.12.99-.17l-11.56-3.67Zm178.21-12.05c-8.77.5-17.18,3.29-24.43,7.97l-12.63-1.56,12.69-10.2c8.24-.79,16.63.46,24.37,3.78Zm-4.39-20.44l-33.12,26.62c-1.73-5.92-4.49-11.41-8.1-16.24l41.22-10.38Zm-8.88-9.49c-8,3.63-14.84,9.28-19.91,16.27l-12.33,3.11,8.15-14.1c7.39-3.71,15.67-5.57,24.09-5.27Zm-11.48-17.47l-21.27,36.81c-3.71-4.83-8.25-8.98-13.41-12.24l34.69-24.58Zm-11.71-5.64c-6.15,6.28-10.48,14.01-12.69,22.37l-10.38,7.35,2.5-16.09c5.56-6.13,12.6-10.86,20.56-13.62Zm-17.02-12.14l-6.53,41.99c-5.12-3.13-10.83-5.39-16.92-6.56l23.45-35.43Zm-12.94-1.03c-3.47,8.07-4.72,16.84-3.75,25.42l-7.02,10.61-3.47-15.9c2.97-7.73,7.83-14.68,14.25-20.13Zm-20.25-5.18l9.07,41.51c-2.95-.53-5.98-.82-9.08-.82s-6.12.29-9.07.82l9.08-41.51Zm-12.46,3.72c-.32,8.78,1.69,17.42,5.69,25.08l-2.72,12.43-8.99-13.58c-.03-8.28,2-16.52,6.02-23.92Zm-20.75,2.49l23.45,35.43c-6.09,1.18-11.8,3.43-16.92,6.57l-6.54-41.99Zm-10.27,7.97c2.88,8.3,7.87,15.63,14.37,21.32l1.96,12.57-13.29-9.42c-3.01-7.71-4.11-16.12-3.03-24.48Zm-18.45,9.82l34.69,24.57c-5.16,3.26-9.71,7.41-13.41,12.24l-21.28-36.81Zm-6.69,11.13c5.68,6.7,12.98,11.73,21.08,14.69l6.37,11.02-15.78-3.98c-5.59-6.1-9.65-13.55-11.67-21.73Zm-13.66,15.82l41.22,10.39c-3.61,4.83-6.37,10.32-8.1,16.24l-33.11-26.63Zm-2.22,12.81c7.72,4.2,16.35,6.25,24.98,6.08l9.91,7.97-16.17,1.99c-7.42-3.67-13.89-9.15-18.73-16.05Z"/>
      <path class="cls-4" d="m260,115.23c-26.36,0-48.08,20.19-50.53,45.92,7.14,1.08,14.36,2.92,21.63,5.57,9.34,3.4,18.56,5.14,27.77,5.28h2.27c9.21-.13,18.43-1.88,27.77-5.28,7.28-2.65,14.49-4.49,21.63-5.57-2.45-25.73-24.17-45.92-50.53-45.92Z"/>
      <path class="cls-5" d="m471.54,285.14c-17.19-6.88-33.9-6.88-51.09,0-22.86,9.15-46.05,9.15-68.91,0-17.32-6.93-35.13-6.88-54.44.14-24.62,8.95-49.58,8.95-74.2,0-19.31-7.02-37.12-7.07-54.44-.14-22.86,9.15-46.05,9.15-68.91,0-17.19-6.88-33.9-6.88-51.09,0-12.76,5.1-25.61,7.35-38.46,6.76v18.1h500v-18.1c-1.33.06-2.67.1-4,.1-11.51,0-23.02-2.29-34.46-6.86Z"/>
      <path class="cls-5" d="m471.54,237.14c-17.19-6.88-33.9-6.88-51.09,0-22.86,9.15-46.05,9.15-68.91,0-17.32-6.93-35.13-6.89-54.44.14-24.62,8.95-49.58,8.95-74.2,0-19.31-7.02-37.12-7.07-54.44-.14-22.86,9.15-46.05,9.15-68.91,0-17.19-6.88-33.9-6.88-51.09,0-12.76,5.1-25.61,7.35-38.46,6.76v23.97c9.81.63,19.6-1.04,29.54-5.01,22.86-9.15,46.05-9.15,68.91,0,17.19,6.88,33.9,6.88,51.09,0,22.73-9.09,46.8-9.14,71.56-.14,19.45,7.07,38.35,7.07,57.8,0,24.75-9,48.83-8.96,71.56.14,17.19,6.88,33.9,6.88,51.09,0,22.86-9.15,46.05-9.15,68.91,0,9.95,3.98,19.73,5.64,29.54,5.01v-23.97c-1.33.06-2.67.1-4,.1-11.51,0-23.02-2.29-34.46-6.86Z"/>
      <path class="cls-5" d="m471.54,189.14c-17.19-6.88-33.9-6.88-51.09,0-22.86,9.15-46.05,9.15-68.91,0-17.32-6.93-35.13-6.89-54.44.14-24.62,8.95-49.58,8.95-74.2,0-19.31-7.02-37.12-7.07-54.44-.14-22.86,9.15-46.05,9.15-68.91,0-17.19-6.88-33.9-6.88-51.09,0-12.76,5.1-25.61,7.35-38.46,6.76v23.97c9.81.63,19.6-1.04,29.54-5.01,22.86-9.15,46.05-9.15,68.91,0,17.19,6.88,33.9,6.88,51.09,0,22.73-9.09,46.8-9.14,71.56-.14,19.45,7.07,38.35,7.07,57.8,0,24.75-9,48.83-8.96,71.56.14,17.19,6.88,33.9,6.88,51.09,0,22.86-9.15,46.05-9.15,68.91,0,9.95,3.98,19.73,5.64,29.54,5.01v-23.97c-1.33.06-2.67.1-4,.1-11.51,0-23.02-2.29-34.46-6.86Z"/>
      <path class="cls-6" d="m505.42,172c-8.28-.08-16.57-1.78-24.97-5.14-22.86-9.15-46.05-9.15-68.91,0-8.4,3.36-16.68,5.07-24.97,5.14h-1.16c-8.28-.08-16.57-1.78-24.97-5.14-6.4-2.56-12.9-4.38-19.5-5.5-.33-.06-.66-.12-.99-.17-9.49-1.51-19.16-1.55-28.98-.11-.15.02-.3.05-.46.07-7.14,1.08-14.36,2.92-21.63,5.57-9.34,3.4-18.56,5.14-27.77,5.28h-2.27c-9.21-.13-18.43-1.88-27.77-5.28-7.28-2.65-14.49-4.49-21.63-5.57-.15-.02-.3-.05-.46-.07-9.82-1.44-19.5-1.4-28.98.11-.33.05-.66.11-.99.17-6.59,1.13-13.1,2.94-19.5,5.5-8.4,3.36-16.68,5.07-24.97,5.14h-1.16c-8.28-.08-16.57-1.78-24.97-5.14-22.86-9.15-46.05-9.15-68.91,0-8.4,3.36-16.68,5.07-24.97,5.14h-1.16c-1.14-.01-2.28-.06-3.42-.13v24.03c12.84.59,25.7-1.66,38.46-6.76,17.19-6.88,33.9-6.88,51.09,0,22.86,9.15,46.05,9.15,68.91,0,17.32-6.93,35.13-6.89,54.44.14,24.62,8.95,49.58,8.95,74.2,0,19.31-7.02,37.12-7.06,54.44-.14,22.86,9.15,46.05,9.15,68.91,0,17.19-6.88,33.9-6.88,51.09,0,11.43,4.57,22.94,6.86,34.46,6.86,1.33,0,2.67-.04,4-.1v-24.03c-1.14.07-2.28.12-3.42.13h-1.16Z"/>
      <path class="cls-6" d="m480.46,214.86c-22.86-9.15-46.05-9.15-68.91,0-17.19,6.88-33.9,6.88-51.09,0-22.73-9.09-46.8-9.14-71.56-.14-19.45,7.07-38.35,7.07-57.8,0-24.75-9-48.83-8.96-71.56.14-17.19,6.88-33.9,6.88-51.09,0-22.86-9.15-46.05-9.15-68.91,0-9.95,3.98-19.73,5.64-29.54,5.01v24.03c12.84.59,25.7-1.66,38.46-6.76,17.19-6.88,33.9-6.88,51.09,0,22.86,9.15,46.05,9.15,68.91,0,17.32-6.93,35.13-6.89,54.44.14,24.62,8.95,49.58,8.95,74.2,0,19.31-7.02,37.12-7.06,54.44-.14,22.86,9.15,46.05,9.15,68.91,0,17.19-6.88,33.9-6.88,51.09,0,11.43,4.57,22.94,6.86,34.46,6.86,1.33,0,2.67-.04,4-.1v-24.03c-9.81.63-19.6-1.04-29.54-5.01Z"/>
      <path class="cls-6" d="m480.46,262.86c-22.86-9.15-46.05-9.15-68.91,0-17.19,6.88-33.9,6.88-51.09,0-22.73-9.09-46.8-9.14-71.56-.14-19.45,7.07-38.35,7.07-57.8,0-24.75-9-48.83-8.96-71.56.14-17.19,6.88-33.9,6.88-51.09,0-22.86-9.15-46.05-9.15-68.91,0-9.95,3.98-19.73,5.64-29.54,5.01v24.03c12.84.59,25.7-1.66,38.46-6.76,17.19-6.88,33.9-6.88,51.09,0,22.86,9.15,46.05,9.15,68.91,0,17.32-6.93,35.13-6.89,54.44.14,24.62,8.95,49.58,8.95,74.2,0,19.31-7.02,37.12-7.06,54.44-.14,22.86,9.15,46.05,9.15,68.91,0,17.19-6.88,33.9-6.88,51.09,0,11.43,4.57,22.94,6.86,34.46,6.86,1.33,0,2.67-.04,4-.1v-24.03c-9.81.63-19.6-1.04-29.54-5.01Z"/>
    </g>
  </g>
</svg>