<?xml version="1.0" encoding="UTF-8"?>
<svg id="Layer_2" data-name="Layer 2" xmlns="http://www.w3.org/2000/svg" viewBox="0 0 520 320">
  <defs>
    <style>
      .cls-1 {
        fill: #a3ab78;
      }

      .cls-1, .cls-2, .cls-3, .cls-4 {
        stroke-width: 0px;
      }

      .cls-2 {
        fill: #244aa5;
      }

      .cls-3 {
        fill: #d0a650;
      }

      .cls-4 {
        fill: #fff;
      }
    </style>
  </defs>
  <g id="_500x300_Background" data-name="500x300 Background">
    <rect class="cls-1" width="520" height="320" rx="10" ry="10"/>
  </g>
  <g id="Kosovo">
    <g>
      <rect class="cls-2" x="10" y="10" width="500" height="300"/>
      <path class="cls-3" d="m353.14,173.77c-.91-.2-.91-.33-.98-.65-.07-.26-.2-.78-.2-1.11s-.2-.65-.72-.65-.85-.65-.59-.91.26-.72-.2-1.04-.39-.52-1.04,0-1.24.39-1.57.39-.98,0-1.3.13-.72.2-1.04-.07-1.63.33-1.96.59c-.33.2-1.17.33-1.17.33v1.11c0,.33-.2.59-.72.98-.59.39-.52.13-1.24-.26s-.65-.52-.65-.85-.39-1.24-.39-1.24c0,0-.33-.65-.26-1.17.07-.59-.52-.59-1.04-.13-.59.39-.98.33-1.5.26s-1.57-.2-1.89-.59c-.33-.33-.65-.52-1.17-.65s.2-.72.72-1.11c.59-.39-.26-.98-.52-1.3s-.85-.33-1.24-.39-.72-.07-1.17-.65c-.39-.59-1.17-.13-1.3.33-.2.52-.85.59-1.17.13-.33-.39-.65-.07-.91.2s-.59.26-.91.26-.39.07-.65-.26-.33-.72-.91-.65-1.04.07-1.04-.26-.2-.59-.65-.59-.52.13-.91-.39c-.39-.59-.91-.07-1.17.39-.26.52-.33.85-.65.39-.33-.39-.39-.2-.85-.52-.39-.26-.59-.2-.59-.85s-.91-.26-1.24-.07-.91.2-1.3.2-1.83-.07-1.83-.07c0,0,0,.59-.39.59s-.59.13-1.17-.59-.33-1.24.2-1.3.65-.07.65-.52c0-.39.85-.65,1.24-.91s.52-.52-.2-.72c-.65-.2-.39-.91-.07-1.04s.52-.33-.07-.72c-.59-.33.07-.91.2-1.24.07-.33.59-.26,1.17-.26s.52-.33.52-.33c0,0,.07-.65.07-.91s.2-.78-.33-.85c-.52-.07-.39-.39-.07-.65.33-.2.33-.13.33-.65s.33-.65.33-1.17c0-.59.33-.59.65-.52s.65,0,.52-.65c-.2-.65,0-.59.2-.98s-.2-1.11-.2-1.11c0,0-.65-.26-1.17-.39s-1.83.13-1.83.13c0,0-.98.26-1.24.59-.26.26-.39.39-.85.2-.39-.2-.72-.2-.91-.52-.2-.26-.39-.2-.85,0-.39.2-.52-.07-.52-.39s-.52-.33-.98-.33c-.52,0-.52-.59-.07-.85.39-.26-.33-.91-.59-1.5s-.65-.52-.65-.52c0,0-1.57-.07-1.89-.07s-.72,0-1.04-.2-.98.07-1.3.2c-.33.13-.85.2-.98.78-.2.59-.52.07-.98.07-.52,0-.39-.2-.39-.2,0,0-.07-.91-.07-1.24s-.52-.98-.91-1.04-.91-.52-.91-.85-.65-.85-.65-1.17.07-.59-.59-1.04c-.65-.52-.59-.78-.85-1.17-.26-.39-.07-.78.33-1.04s.26-.39.26-.72c0-.26-.07-.85.2-1.17s.33-.39-.2-.72-.52-1.04-.52-1.04c0,0-.2-1.3-.2-1.89s-.85-.52-.85-.85-.2-.72-.59-.72-.52.2-1.04-.39c-.59-.65-1.04,0-1.04,0,0,0-.2.72-.52.91s-.26.59.07.91.07.59-.26.65-.39.2-.85.52-1.04-.2-1.17-.52c-.07-.26-.39-.52-.85-.65-.39-.13-.2-.85.26-1.04.39-.2.2-.39.2-.98s-.2-.59-.91-.52-.59-.39-.52-.72-.2-1.57-.2-1.57c0,0-.52-1.24-.52-1.57,0-.26-.26-.52-.65-.78-.39-.26-.26-.85-.26-1.3,0-.52.2-.59.65-.85.52-.26.39-1.24-.2-1.57-.59-.26-.39-.33-.33-1.17s-.72-.72-1.04-.33c-.33.33-1.37.26-1.83.13-.39-.13-1.04-1.11-1.04-1.37s-.39-.65-.72-.85-.85-.65-.91-.2c-.07.39-.59.39-.59.85,0,.39.52.65.52.91s-.33.26-.85.26-1.04.33-1.5.65c-.39.26-1.17.13-1.3-.13-.2-.26-.26-.91-.26-.91,0,0-.91,0-1.37-.72-.52-.72-.33-.78-.33-.78,0,0-1.5-.59-2.02-.78s-1.3-.07-1.57.33-1.17.13-1.57.13-.65.13-.65.59c0,.39-.59.65-.59.65,0,0-.72-.07-1.17,0-.39.07-.65-.07-.65-.33s-.2-.65-.2-.65l-1.57-.52-.07-.72s-.39-.59-.65-.85-.91-.13-1.3.07c-.39.2-.65.07-.72-.26s-.33-.52-.72-.72c-.39-.2-.85-.26-.91-.85s-.59-.78-.98-.59c-.39.2-.59.2-1.04.2s-.85,0-1.04-.65c-.26-.65-.59-.39-.98-.07s-.85.26-1.04-.07c-.26-.33-.52-.26-.52-.72,0-.39.2-.85.72-.85s.85.2,1.17-.13.59-.2.59-.72-.26-.65-.91-.78-.26-.91.2-.91c.39,0,.98-.13.98-.13,0,0,.26-.2.65-.26s.65.13,1.83.65.26-.52.26-.52c0,0-.52-.59-.65-.91-.2-.33-.07-.59-.07-.91s-.26-.65-.72-.78c-.52-.13-.65-.33-.65-.72s-.2-.65-.65-.59c-.52.07-.52-.2-.33-.59.2-.33-.33-.59-.72-.78-.39-.2-.72-.52-.72-.91s-.85-.85-1.3-.85c-.52,0-.91-.07-1.57-.07s-.65-.07-1.3.33-.26.72.07.91.2.72.2.98-.2.85-.2.85c0,0-.85,0-1.37-.33-.59-.33-1.17-.2-1.57-.07-.39.13-1.24,0-1.24,0,0,0-.72-.13-1.3-.59-.59-.46-1.37-.13-1.5.07-.07.2-.39.78-.39,1.04s-.2.72-.59.72-.91.72-1.3.91-.85.72-.85.98-.65.78-.98.91c-.33.13-1.3.2-1.7,0s-1.3-.13-1.83.26-.91.13-1.24-.13c-.33-.26-.59-.07-1.24.2s-1.5.13-1.96-.2c-.52-.33-.59,0-.98.52s-.2.72.72.91,1.04.59,1.3,1.04c.26.52.07,1.11-.59,1.5-.65.33,0,.91.59.91s2.68.52,2.68.52l1.17.65s.78.2.78,1.3-.39.59-.39,1.04c0,.39.52.52,1.11.65.59.2.98.59,1.11.85s.72.85,1.11,1.3c.39.39.39,1.3.33,1.76-.13.39-.39.52-.39,1.3s-.98.91-1.3,1.17-1.3.26-1.89.33-.39.46-.33.91c.07.52.78.33,1.3.39s.26.91-.2,1.44c-.52.52.39,1.24.78,1.63s-.39.78-.91.65-.52.07-.91.33.13.65-.59.65-.78.33-.78.33c0,0-.13.65-.2,1.17-.13.52-.39.78-.85.52-.46-.26-.59.13-.91.39-.26.26-.85,0-1.3-.2-.39-.2-.59-.2-.78-.65-.2-.52-.52-.2-1.11-.07-.59.07-.78.39-.78.78,0,.33-.33.91-.78.91s-.72.33-.78.78-.39.65-.78,1.17-.46,1.5-.65,1.76c-.13.26-.85.46-1.04.2-.26-.26-.39-.39-.72-.91-.26-.52-.91-.33-1.04-.07-.2.26-2.02,1.63-2.02,1.63l-.59.65s0,.85.07,1.24-.2.72-.59.72c-.46,0-.52.33-.52.72s.2.39.59.39c.46,0,.52.2.52.59s.46.39.59.65c.13.26.39.46.46.85.07.39-.39.78.46.85s.78,0,.85.52c.07.52,0,.26,1.24.59s.52.52.52.91-.39.39-1.17.33-.72.26-.78.59-.2.72-1.44.59c-1.24-.13-.78.07-1.24.13-.46.07-1.3.39-1.37.85-.07.46-.91.78-.91.78,0,0-.59.2-.91.52-.26.33-.46.65-.46.91s-.07.59-.46.59-.78.2-.91.46c-.2.26-.98,0-.98,0,0,0-1.24-.59-1.44-.91-.26-.33-.98-.72-1.37-.72s-1.04.33-1.04.33c0,0-1.11.33-1.37.39-.33.07-1.17.59-1.17.59l-.07-.07c-.2,0-.33.39-.52.33s-.59.07-.78.07c-.2-.07-.2-.33-.39-.39-.33-.13-.65-.07-.98-.07-.13.07-1.04.72-1.11.78-.07.13.13.33.07.39-.07.2-.85.65-1.11.59-.13.07-.2.2-.33.26s-1.04-.46-1.11-.59l-.26-.39c-.07,0-.33.07-.46.07-1.3.13-1.83,1.17-3.26,1.3-.39.2-.39.59-.65.85-.2.2-.59.33-.65.39-.13.13.13.52.07.65,0,.07-.72.98-.78.98-.33.33-.91.46-1.37.59-.2.07-.59-.13-.59-.07,0,.13.39,1.44.52,1.63,0,.07.33.52.07.46-.2-.07-.78-.59-1.04-.52-.39.13-.78,2.22-.85,2.22-.85.07-.85-.13-1.44-.26-.13,0-.33.39-.52.33s-.39-.2-.59-.2c-.13-.07-1.57.2-1.83.26-.2.07-.52.13-.65.07-.85-.33-1.57-1.04-2.48-1.17-.85-.13-.33.59-1.24.13-.33-.13-.39-.59-.72-.78-.26-.13-1.89-.46-2.35-.65-.65-.2-1.17-.72-1.5-.85-.33.13-1.04.2-1.3.33-.91.59-.52,1.17-2.15,1.5l-.33-.07c-.2.07-.46.13-.59.26-.2.07-.39-.07-.52-.13l-.2.07c-.07.26-.33.59-.39.78-.85,1.5-1.83.2-2.48,1.83-.07.13-.26.26-.26.39.33.2.46.52.85.72l.07.13c-.13.33-.39.78-.33,1.11,0,.13.2.33.13.46-.2,0-1.5.2-1.57.39,0,.07.65.78.46,1.04l-.13.07c0,.07,0,.13.07.13.2,0,.65,0,.78.13.26.59-.13,1.5.98,1.76.26.07.52-.07.72,0,0,.13-.26.59-.13.72,1.3.39.85-.07,1.44.13.46.13.46.39.98.39.85-.07,1.37-.26,2.22-.13.65.13,1.37,1.11,2.02,1.44.33.2.85.2,1.24.33.26.07.65.26.98.33l.13.13c0,.13.13.2.2.33.26.07.65.33.78.33.26.07.59-.07.85.13.13.2-.07.59-.2.78-.13.2-.98.59-1.24.78-.39.26-.59,1.17-.85,1.57-.13.13-.59.39-.78.52,0,.07-.2.2-.2.2-.33.33-.2.52-.26.91-.33,1.76.33,1.63.85,3,.2.39.2,1.04.33,1.5.07.26-.26.52-.39.78-.07.13-.46,1.3-.46,1.37,0,.13.13.33.07.39.52.33.98.46.98,1.11,0,0,.52.39.59.59.13.2.26.91.52.98.13-.07,1.83.65,2.09.78s.2.39.52.52c1.3.46,2.48.85,3.46,1.63.13.07.39.07.52.2.07.2.2.52-.07.65v.13c.13.07.26.52.33.59.2.33.91.65,1.04.85.2.39-.07,1.24.39,1.63.26.26,1.44.91,1.3,1.37-1.17,1.37-.39.91.72,1.63.39.2.2,1.24,1.24,1.3.2.13.2.33.39.46.13.52.46.91.52,1.44.2,1.11-.85.85-1.37,1.44-.13.13-.13.39-.2.59-.07.13-.26.13-.26.33-.07.46.98.72,1.24.91.13.07.2.2.26.33.33.39.85.59,1.24.91.13,0,.46.2.52.26.13.26,0,.59.13.85.07.26.33.39.39.65.07.2-.13.78-.13,1.11,0,.2.13.52,0,.65-.39.26-.78.46-1.17.72,1.7.72,1.04,2.48,1.24,2.61.33.33.59.07.98.26.52,1.04,2.87-.46,3.72,0,.13.39.33.33.59.52.13.13.2.26.39.33.52.26.59-.33.91-.52.2-.13.52-.13.72-.26.65-.59.78-.72,1.76-.65.39.2.13.26.72.39.26.2.46.59.85.91,0,.33,0,.52-.13.85,0,.13.59.07.78.2.65.33,2.15.39,2.61.98.13,0,.2,0,.26.07.72-.2.78,1.3,1.17,1.63.52.39,1.44.33,2.02.46.07,0,.2.46.33.52.13.07,1.17.13,1.44.13.33.26.98.33,1.37.52.13.07.2.13.26.26.52.46,1.04.78,1.63,1.17.46,1.57,1.11,1.17,1.44,1.57.13.13.07.33.2.39.2.13.39.13.52.33.26.39.33,1.24.52,1.44.2.33,1.3.59,1.3.59.13.2.2.59.33.85.13.2.46.39.59.65,0,.2.98,3.46,1.11,3.78.2.33.59.65.72.98s-.2.2.2.52c.39.39-.2.65,0,.85.2.26,1.3,1.24,1.5,1.5.13.2-.39.39-.33.72.13.59,1.24,1.76,1.24,2.28,0,.39-.72,1.24-.85,1.57-.13.33.52.98.59,1.17.07.65-1.11,1.44-1.04,1.76,0,.2.33.39.39.59.2.39.2.65.46,1.11.26.39.46.78.72,1.11.13.13,1.96,1.04,2.48,2.48-.07.13.07,1.96.07,2.09,0,.07.39.26.46.39s.65,1.76.72,2.09c.13.33-.13.72,0,1.04.39,1.17.91,1.11,1.44,1.83.59.78-.07,3.78-.65,4.57-.07.13-.33.2-.52.26-.39.2-.39.46-.59.72-1.63-.59-1.37.85-2.28,1.44h-.85c.52,1.5,1.83,3.13,1.83,4.7.13.46,1.17,1.44,1.5,1.83.2.2.98,1.04,1.3,1.11.13,0,.33-.26.46-.33.46-.33.91-.65,1.37-1.04.26-.2.26-.52.52-.72.85-.78,2.09-.65,2.94,0,.2.13.39.52.39.65s.2.65.39.72c.33.13,3.59-1.5,3.91-1.76.13-.13.2-.52.39-.52.33-.13.59.26.91-.07.2-.2.07-.98.2-1.3.52-.91.85-.46,1.24-.85.65-.59,1.17-1.7,1.83-2.28.26-.2,1.63-.46,1.57-.65,0-.13-1.7-1.24-1.96-1.5-.2-.2-.39-.46-.59-.65-1.3-1.44.98-.91.78-2.41-.07-.2-1.11-2.15-1.24-2.28-.13-.13-.39-.2-.46-.39-.07-.07-.2-.91-.2-1.04-.07-.78.26-1.83.39-2.68,0-.33-.46-1.17-.33-1.44.33-.65,1.3-1.3,1.5-1.96.07-.2-.78-.72-.59-1.24.07-.13,1.04-.52,1.17-.59.13-.07.2-.2.26-.33.2-.39.91-.91,1.24-1.24,0,0-.13-.2-.13-.26v-.33c0-.2.59-.72.78-.78.52-.13.98.2,1.04.2.85-.07,1.57-.2,2.35-.33,1.37-.13,1.17-1.63,1.76-1.7.52-.13,2.28-.07,2.87.07.33.07.78.26,1.11.26.26,0,.52-.13.72-.33.26-.2.33-.46.52-.65.13-.13,1.7-1.37,1.7-1.37.13-.26.39-1.3.52-1.5.26.07.39.2.65.13.33-.13,1.3-1.11,1.63-1.24.59-.2,1.76.2,2.48.13.33-.07.52-.33.85-.39.2,0,.52.13.59.07.2-.13.26-.26.46-.39.07-.07.26-.13.39-.13,1.37-.26,1.37-.65,1.76-.78.2-.07.59,0,.85-.07l.85-.2c.13-.07.07-.26.2-.33.39-.46.98-.72,1.37-1.17.07-.07.39.13.59-.07.52-.46.85-1.44,1.3-1.83.78-.65,1.63-.59,2.41-1.17.78-.52.98-1.17,1.76-1.7.2-.13.46,0,.65,0,.26,0,.52-.13.78-.13.07,0,.26.39.33.46.26.2.52.2.85.26.59.07,3.13.33,3.52.52.33.2.26,1.11.33,1.37.13.33.52.46.72.72.2.26-.07.52,0,.65.26.46.72,1.11,1.24,1.37.46.33.72,1.44.91,1.89.33.59,1.5,1.17,1.63,1.89s-.13,1.44-.33,2.09c0,.07.46,1.04.52,1.11.59.33.2.78.46.91.13.07.59-.26.78-.2.39.13,1.11.2,1.44.39.2.07.26.2.46.2.33,0,.72-.33,1.04-.33.33-.07.78.13.98.07.33-.07.85-1.04,1.7-1.04.13,0,.65.07.72,0,.13-.13.2-1.3.72-1.3,1.24,0-.2,1.5.59,1.5.26,0,1.57-.52,1.5-.78,0,0-.65-.78-.65-.91-.13-.33.2-.26.13-.52-.13-.26-.39-.07-.46-.2-.46-.78.07-.52-.85-1.37-.07-.07.2-.33,0-.52-.13-.13-.72-.33-.65-.59.07-.2.52-.13.65-.26.13-.13.2-.46.26-.65.07-.13.85-.85,1.04-1.11.26-.33-.39-.78-.2-1.24.52-1.11,2.35-1.63,1.5-3.2-.13-.2-.07-.33,0-.52.07-.07.13-.2.2-.26.39-.65.65.33.98.07.65-.52.72-1.24,1.17-1.76.52-.52.85-.33,1.3-.59.52-.39.39-.78.78-1.24.13-.13.78-.65.78-.65.13-.26-.33-.59.2-.72.33-.07.59.2.85.2.33-.07.39-.33.72-.33,1.3-.07,1.5,1.11,2.35,1.7,1.5,1.11,2.54.13,1.96-1.3-.2-.52-.98-.72-1.04-1.37-.07-.46.91-1.11,1.17-1.5.26-.52-.78-.65-.39-.91,1.04-.78,1.04.91,2.41.46.72-.26-.52-1.3,1.17-1.24.85.07.59.65,1.17,1.04.33.2,1.44-.52,2.02.2.2.2.65.98.78,1.24.13.39.46,2.22.91,2.35.91.33.98-.39,1.63-.65.72-.33.59.52,1.17.33.26-.13.26-.39.52-.52.26-.2.59-.07.85-.2.52-.2.72-1.17,1.5-1.3,0,0-.52-1.76-.85-2.02-.33-.2-.65-.78-1.04-1.17-.39-.39-.39-.91-.52-1.89-.07-.98-1.24-.72-1.3-.2s-.59.59-1.17.59-.59-.39-.59-.85c0-.39-.26-1.17-.85-1.5-.59-.26-.52-1.04-.39-1.37.07-.33.07-.59.39-.85s.52-.26.59-1.11c.07-.85-.59-.78-.39-1.63s1.3-.39,1.7.2c.39.65,1.7,0,2.28.07s.72-.52.39-.85.39-.78.39-.78c0,0,.59-.39.98-.52.39-.07,1.17-.07,1.24.33s.2.39.59.59c.39.13,1.04.13,1.57-.33.52-.52.65-.33.65-.78,0-.39,0-.72.39-.91s.26-.2.26-.78.26-.59.72-.78c.52-.2.52-.26.72-.78.26-.52-.2-.65-.85-.65s-.2-.39-.07-.98-.26-.65-.65-.85-.65-1.3-.98-1.7c-.33-.33-.26-.65,0-.98s.72-.85,1.57-.91.65-.65.72-.98,1.04-.52,1.04-.52c0,0,.07-.78.52-.85.39-.07.52-.33.52-.65,0-.26.39-.78.65-1.04s.52-.39,1.04-.39.65-.85.72-1.37c.07-.59.72-.65,1.04-.13s.65.59.65-.13-.52-1.04-.52-1.04c0,0-.59-.52-.72-.85-.2-.33-.39-1.24.2-1.17s.65-.13.98-.72,1.57-.26,2.02-.2.72.2.85-.33c.07-.59.65-.33,1.17-.33s.72-.78.26-.91c-.52-.13,0-.85.2-1.17s.39-.59.39-.59l-.72-1.04s-.2-.52-.85-.85-.72-1.3-.39-1.5c.33-.13.72-.39,1.04-.2.33.2.52-.85.85-1.04.33-.2.33-.52,0-.98-.33-.52.2-1.04.39-1.3.26-.26.72-.26.72-.26l.72.13s.72-.13.85-.52c.07-.33.26-.59.72-.59.52,0,.52-.26.33-.65s1.17-.13.26-.39Z"/>
      <path class="cls-4" d="m300.88,65.33l-11.35,7.7,4.37,12.46-11.42-7.7-11.42,7.7,4.37-12.46-11.35-7.7h14.03l4.37-12.46,4.37,12.46h14.03Zm30.21,7.31l-4.37-12.46-4.37,12.46h-14.03l11.35,7.7-4.37,12.46,11.35-7.7,11.35,7.7-4.37-12.46,11.35-7.7h-13.9Zm56.31,14.29h-14.03l-4.37-12.46-4.37,12.46h-14.03l11.35,7.7-4.37,12.46,11.35-7.7,11.35,7.7-4.37-12.46,11.48-7.7Zm-145.56-21.6l-4.37-12.46-4.37,12.46h-14.03l11.35,7.7-4.37,12.46,11.35-7.7,11.35,7.7-4.37-12.46,11.35-7.7h-13.9Zm-44.3,7.31l-4.37-12.46-4.37,12.46h-14.03l11.35,7.7-4.37,12.46,11.35-7.7,11.35,7.7-4.37-12.46,11.35-7.7h-13.9Zm-42.21,14.29l-4.37-12.46-4.37,12.46h-14.03l11.35,7.7-4.37,12.46,11.35-7.7,11.35,7.7-4.37-12.46,11.35-7.7h-13.9Z"/>
    </g>
  </g>
</svg>