<?xml version="1.0" encoding="UTF-8"?>
<svg id="Layer_2" data-name="Layer 2" xmlns="http://www.w3.org/2000/svg" viewBox="0 0 520 320">
  <defs>
    <style>
      .cls-1 {
        fill: #a3ab78;
      }

      .cls-1, .cls-2, .cls-3 {
        stroke-width: 0px;
      }

      .cls-2 {
        fill: #ffef00;
      }

      .cls-3 {
        fill: #e8112d;
      }
    </style>
  </defs>
  <g id="_500x300_Background" data-name="500x300 Background">
    <rect class="cls-1" width="520" height="320" rx="10" ry="10"/>
  </g>
  <g id="Kyrgyzstan">
    <g>
      <rect class="cls-3" x="10" y="10" width="500" height="300"/>
      <g>
        <path class="cls-2" d="m264.27,214.01q0-.08-.08-.16c-1.42.08-2.85.16-4.27.16s-2.93-.08-4.35-.16c0,.08.08.08.08.16,4.27,11-4.91,28.01,4.27,36.01-3.01-11.95,7.2-25.01,4.35-36.01Z"/>
        <path class="cls-2" d="m204.92,164.23q.08,0,.16-.08c-.08-1.35-.16-2.77-.16-4.19s.08-2.85.16-4.27c-.08,0-.08.08-.16.08-11.24,4.19-28.57-4.83-36.72,4.19,12.19-2.93,25.48,7.04,36.72,4.27Z"/>
        <path class="cls-2" d="m255.73,106.07q0,.08.08.16c1.42-.08,2.85-.16,4.27-.16s2.93.08,4.35.16c0-.08-.08-.08-.08-.16-4.27-11,4.91-28.01-4.27-36.01,3.01,11.95-7.2,25.01-4.35,36.01Z"/>
        <path class="cls-2" d="m315.08,155.85q-.08,0-.16.08c.08,1.35.16,2.77.16,4.19s-.08,2.85-.16,4.27c.08,0,.08-.08.16-.08,11.24-4.19,28.57,4.83,36.72-4.19-12.19,2.93-25.48-7.04-36.72-4.27Z"/>
        <path class="cls-2" d="m247.02,212.51c-2.85-.63-5.54-1.5-8.15-2.61v.16c.63,11.79-13.45,25.16-7.28,35.53.87-12.35,14.64-21.6,15.43-32.92v-.16Z"/>
        <path class="cls-2" d="m206.43,147.38c.71-2.77,1.58-5.46,2.69-7.99h-.16c-12.03.63-25.64-13.22-36.24-7.12,12.58.87,22.08,14.4,33.63,15.11h.08Z"/>
        <path class="cls-2" d="m272.98,107.57c2.85.63,5.54,1.5,8.15,2.61v-.16c-.63-11.79,13.45-25.16,7.28-35.53-.87,12.35-14.64,21.6-15.43,32.92v.16Z"/>
        <path class="cls-2" d="m313.57,172.7c-.71,2.77-1.58,5.46-2.69,7.99h.16c12.03-.63,25.64,13.22,36.24,7.12-12.58-.87-22.08-14.4-33.63-15.11h-.08Z"/>
        <path class="cls-2" d="m231.12,206.18q0-.08.08-.16c-2.45-1.5-4.75-3.17-6.96-4.99q0,.08-.08.16c-3.17,11.4-20.73,19.86-18.12,31.57,4.75-11.4,20.73-15.99,25.09-26.59Z"/>
        <path class="cls-2" d="m212.91,131.71q.08,0,.16.08c1.5-2.37,3.17-4.67,5.06-6.81q-.08,0-.16-.08c-11.63-3.09-20.26-20.34-32.21-17.73,11.63,4.59,16.38,20.34,27.14,24.53Z"/>
        <path class="cls-2" d="m288.88,113.9q0,.08-.08.16c2.45,1.5,4.75,3.17,6.96,4.99q0-.08.08-.16c3.17-11.4,20.73-19.86,18.12-31.57-4.75,11.4-20.73,15.99-25.09,26.59Z"/>
        <path class="cls-2" d="m307.09,188.37q-.08,0-.16-.08c-1.5,2.37-3.17,4.67-5.06,6.81q.08,0,.16.08c11.63,3.09,20.26,20.34,32.21,17.73-11.63-4.59-16.38-20.34-27.14-24.53Z"/>
        <path class="cls-2" d="m217.9,195.18c0-.08.08-.08.08-.16-1.82-2.14-3.56-4.43-5.06-6.81,0,.08-.08.08-.08.16-6.57,9.89-25.96,12.58-27.22,24.53,8.23-9.42,24.93-9.02,32.29-17.73Z"/>
        <path class="cls-2" d="m224.15,118.81c.08,0,.08.08.16.08,2.22-1.82,4.51-3.48,6.96-4.99-.08,0-.08-.08-.16-.08-10.05-6.41-12.82-25.48-25.09-26.67,9.65,7.99,9.18,24.37,18.12,31.65Z"/>
        <path class="cls-2" d="m302.1,124.9c0,.08-.08.08-.08.16,1.82,2.14,3.56,4.43,5.06,6.81,0-.08.08-.08.08-.16,6.57-9.89,25.96-12.58,27.22-24.53-8.23,9.42-24.93,9.02-32.29,17.73Z"/>
        <path class="cls-2" d="m295.85,201.27c-.08,0-.08-.08-.16-.08-2.22,1.82-4.51,3.48-6.96,4.99.08,0,.08.08.16.08,10.05,6.41,12.82,25.48,25.09,26.67-9.65-7.99-9.18-24.37-18.12-31.65Z"/>
        <path class="cls-2" d="m209.04,180.61c-1.11-2.61-1.98-5.22-2.61-7.99-.08,0-.08.08-.16.08-9.34,7.36-28.73,4.12-33.63,15.11,10.68-6.57,26.43-1.03,36.24-7.12.08,0,.16,0,.16-.08Z"/>
        <path class="cls-2" d="m238.95,110.11c2.61-1.03,5.38-1.9,8.15-2.61,0-.08-.08-.08-.08-.16-7.52-9.18-4.19-28.09-15.43-32.92,6.73,10.52,1.11,25.96,7.28,35.53q.08.08.08.16Z"/>
        <path class="cls-2" d="m310.96,139.46c1.11,2.61,1.98,5.22,2.61,7.99.08,0,.08-.08.16-.08,9.34-7.36,28.73-4.12,33.63-15.11-10.68,6.57-26.43,1.03-36.24,7.12-.08,0-.16,0-.16.08Z"/>
        <path class="cls-2" d="m281.05,209.97c-2.61,1.03-5.38,1.9-8.15,2.61,0,.08.08.08.08.16,7.52,9.18,4.19,28.09,15.43,32.92-6.73-10.52-1.11-25.96-7.28-35.53q-.08-.08-.08-.16Z"/>
        <path class="cls-2" d="m255.65,214.01v-.16c-2.93-.24-5.7-.63-8.47-1.35v.16c2.45,11.55-9.34,26.91-1.5,36.24-1.19-12.27,11-23.58,9.97-34.9Z"/>
        <path class="cls-2" d="m204.92,155.77h.16c.24-2.85.71-5.62,1.35-8.31h-.16c-11.79,2.45-27.46-9.1-36.96-1.5,12.58-1.11,24.06,10.84,35.61,9.81Z"/>
        <path class="cls-2" d="m264.35,106.07v.16c2.93.24,5.7.63,8.47,1.35v-.16c-2.45-11.55,9.34-26.91,1.5-36.24,1.19,12.27-11,23.58-9.97,34.9Z"/>
        <path class="cls-2" d="m315.08,164.31h-.16c-.24,2.85-.71,5.62-1.35,8.31h.16c11.79-2.45,27.46,9.1,36.96,1.5-12.58,1.11-24.06-10.84-35.61-9.81Z"/>
        <path class="cls-2" d="m238.87,209.89c-2.69-1.11-5.22-2.37-7.68-3.8v.16c-1.27,11.71-17.33,22.79-12.82,33.95,2.85-12.03,17.96-19.07,20.5-30.15-.08,0-.08-.08,0-.16Z"/>
        <path class="cls-2" d="m209.12,139.31c1.11-2.61,2.45-5.14,3.88-7.52h-.16c-11.95-1.27-23.27-17.01-34.66-12.58,12.27,2.77,19.47,17.57,30.78,20.1h.16Z"/>
        <path class="cls-2" d="m281.13,110.18c2.69,1.11,5.22,2.37,7.68,3.8v-.16c1.27-11.71,17.33-22.79,12.82-33.95-2.85,12.03-17.96,19.07-20.5,30.15.08,0,.08.08,0,.16Z"/>
        <path class="cls-2" d="m310.88,180.77c-1.11,2.61-2.45,5.14-3.88,7.52h.16c11.95,1.27,23.27,17.01,34.66,12.58-12.27-2.77-19.47-17.57-30.78-20.1h-.16Z"/>
        <path class="cls-2" d="m224.07,201.19c0-.08.08-.08.08-.16-2.22-1.82-4.19-3.8-6.09-5.94,0,.08-.08.08-.08.16-4.91,10.76-23.66,16.38-22.95,28.41,6.49-10.6,23.11-12.74,29.04-22.47Z"/>
        <path class="cls-2" d="m217.98,124.82c.08,0,.08.08.16.08,1.9-2.14,3.88-4.12,6.09-5.94-.08,0-.08-.08-.16-.08-11-4.83-16.78-23.19-29.04-22.47,10.84,6.33,12.98,22.63,22.95,28.41Z"/>
        <path class="cls-2" d="m295.93,118.89c0,.08-.08.08-.08.16,2.22,1.82,4.19,3.8,6.09,5.94,0-.08.08-.08.08-.16,4.91-10.76,23.66-16.38,22.95-28.41-6.49,10.6-23.11,12.74-29.04,22.47Z"/>
        <path class="cls-2" d="m302.02,195.25c-.08,0-.08-.08-.16-.08-1.9,2.14-3.88,4.12-6.09,5.94.08,0,.08.08.16.08,11,4.83,16.78,23.19,29.04,22.47-10.84-6.33-12.98-22.63-22.95-28.41Z"/>
        <path class="cls-2" d="m212.99,188.21c-1.5-2.37-2.77-4.91-3.88-7.52,0,.08-.08.08-.08.16-8.07,8.7-27.7,8.47-30.78,20.1,9.5-8.15,25.96-5.14,34.66-12.58,0-.08,0-.16.08-.16Z"/>
        <path class="cls-2" d="m231.27,113.98c2.45-1.42,4.99-2.77,7.68-3.8-.08,0-.08-.08-.16-.08-8.94-7.91-8.63-27.14-20.5-30.15,8.31,9.34,5.22,25.48,12.82,33.95.08,0,.16,0,.16.08Z"/>
        <path class="cls-2" d="m307.01,131.87c1.5,2.37,2.77,4.91,3.88,7.52,0-.08.08-.08.08-.16,8.07-8.7,27.7-8.47,30.78-20.1-9.5,8.15-25.96,5.14-34.66,12.58,0,.08,0,.16-.08.16Z"/>
        <path class="cls-2" d="m288.73,206.1c-2.45,1.42-4.99,2.77-7.68,3.8.08,0,.08.08.16.08,8.94,7.91,8.63,27.14,20.5,30.15-8.31-9.34-5.22-25.48-12.82-33.95-.08,0-.16,0-.16-.08Z"/>
        <path class="cls-2" d="m206.27,172.62c.08,0,.08-.08.16-.08-.63-2.69-1.11-5.46-1.35-8.31-.08,0-.08.08-.16.08-10.45,5.86-28.96-.4-35.61,9.81,11.63-4.83,26.27,3.01,36.96-1.5Z"/>
        <path class="cls-2" d="m247.18,107.34c0,.08.08.08.08.16,2.77-.63,5.62-1.11,8.47-1.27,0-.08-.08-.08-.08-.16-6.01-10.21.4-28.41-9.97-34.9,4.91,11.32-3.09,25.72,1.5,36.16Z"/>
        <path class="cls-2" d="m313.73,147.46c-.08,0-.08.08-.16.08.63,2.69,1.11,5.46,1.35,8.31.08,0,.08-.08.16-.08,10.45-5.86,28.96.4,35.61-9.81-11.63,4.83-26.27-3.01-36.96,1.5Z"/>
        <path class="cls-2" d="m272.82,212.74c0-.08-.08-.08-.08-.16-2.77.63-5.62,1.11-8.47,1.27,0,.08.08.08.08.16,6.01,10.21-.4,28.41,9.97,34.9-4.91-11.32,3.09-25.72-1.5-36.16Z"/>
        <path class="cls-2" d="m249.63,137.72c1.11.55,2.22,1.19,3.24,1.82.95-.71,1.98-1.42,3.01-2.06-1.03-.63-2.14-1.19-3.24-1.82-1.03.71-2.06,1.35-3.01,2.06Z"/>
        <path class="cls-2" d="m289.36,191.69c-1.11-18.36-9.65-34.74-22.71-46.29-1.03.71-1.98,1.5-2.93,2.29,12.9,11.79,21.05,28.49,21.45,47.01,1.42-.95,2.85-1.98,4.19-3.01Z"/>
        <path class="cls-2" d="m224.15,128.94c-.32.4-.63.79-.95,1.27.32,0,.71.08,1.03.08,7.04.63,13.85,2.37,20.1,4.99.95-.71,1.98-1.42,3.01-2.06-6.96-2.93-14.48-4.67-22.32-5.22-.32.32-.63.63-.87.95Z"/>
        <path class="cls-2" d="m264.12,137.49c1.03.63,1.98,1.35,3.01,2.06,1.03-.63,2.14-1.27,3.24-1.82-.95-.71-1.98-1.42-3.01-2.06-1.03.63-2.14,1.19-3.24,1.82Z"/>
        <path class="cls-2" d="m219.8,135.27c-.55,1.03-1.11,2.06-1.58,3.17-.63,1.35-1.19,2.69-1.66,4.04-.24.63-.4,1.27-.63,1.9-1.19,4.04-1.9,8.31-1.9,12.74,0,5.38.95,10.52,2.77,15.35,4.59-13.53,12.98-25.4,23.9-34.34-6.01-2.69-12.58-4.43-19.39-5.22-.55.71-1.03,1.5-1.5,2.37Z"/>
        <path class="cls-2" d="m249.16,142.47c-1.03-.63-2.14-1.27-3.17-1.9-12.42,10.29-21.29,24.45-24.77,40.6,1.11,1.66,2.29,3.24,3.56,4.75,2.53-17.25,11.47-32.52,24.37-43.44Z"/>
        <path class="cls-2" d="m260,202.06c6.81,0,13.22-1.42,18.99-4.04v-1.98c0-17.57-7.28-33.47-18.99-45.03-11.79,11.55-18.99,27.46-18.99,45.03v1.98c5.78,2.61,12.19,4.04,18.99,4.04Z"/>
        <path class="cls-2" d="m260,131.47c-1.11.55-2.22,1.11-3.24,1.74,1.11.55,2.22,1.11,3.24,1.74,1.11-.63,2.14-1.19,3.24-1.74-1.03-.63-2.14-1.19-3.24-1.74Z"/>
        <path class="cls-2" d="m296.09,130.21c.24,0,.47,0,.71-.08-.55-.71-1.19-1.42-1.74-2.14-.32,0-.71.08-1.03.08-7.52.63-14.64,2.37-21.29,5.14,1.03.63,1.98,1.35,3.01,2.06,6.33-2.69,13.22-4.43,20.34-5.06Z"/>
        <path class="cls-2" d="m298.78,181.17c-3.4-16.14-12.35-30.31-24.77-40.6-1.11.63-2.14,1.27-3.17,1.9,12.9,10.84,21.84,26.19,24.37,43.44,1.27-1.5,2.45-3.09,3.56-4.75Z"/>
        <path class="cls-2" d="m305.9,157.03c0-5.14-.87-10.05-2.53-14.64-.32-.87-.63-1.74-.95-2.53-.55-1.27-1.11-2.45-1.74-3.64-.63-1.19-1.27-2.29-1.98-3.4h-.08c-6.81.71-13.29,2.53-19.39,5.22,10.92,8.94,19.31,20.81,23.9,34.34,1.82-4.83,2.77-9.97,2.77-15.35Z"/>
        <path class="cls-2" d="m257.07,142.31c1.03.71,1.98,1.42,2.93,2.22.95-.79,1.98-1.5,2.93-2.22-.95-.71-1.98-1.42-2.93-2.14-1.03.63-1.98,1.35-2.93,2.14Z"/>
        <path class="cls-2" d="m256.28,147.69c-.95-.79-1.9-1.58-2.93-2.29-13.06,11.55-21.6,27.93-22.71,46.29,1.35,1.11,2.69,2.06,4.12,3.01.47-18.6,8.63-35.29,21.52-47.01Z"/>
        <path class="cls-2" d="m290.7,123.56c-.63,0-1.27.08-1.98.08-8.23.55-16.06,2.37-23.34,5.3,1.11.55,2.22,1.11,3.24,1.74,7.44-3.01,15.59-4.83,24.06-5.22l-.71-.71c-.4-.32-.79-.79-1.27-1.19Z"/>
        <path class="cls-2" d="m281.21,117.07c-.47-.24-.95-.47-1.42-.71-1.9-.87-3.8-1.66-5.78-2.22-.47-.16-.87-.24-1.35-.4-2.06-.55-4.12-1.03-6.25-1.27-.4-.08-.87-.08-1.27-.16-1.66-.16-3.4-.32-5.14-.32h-1.27c-.4,0-.87,0-1.27.08-2.14.08-4.27.4-6.33.79-.4.08-.87.16-1.27.24-2.06.47-4.04,1.03-6.01,1.74-.47.16-.87.32-1.35.55-1.9.79-3.64,1.66-5.38,2.61-.47.24-.95.55-1.42.87-.87.55-1.74,1.11-2.61,1.74.79,0,1.58.08,2.37.16,8.63.55,16.93,2.61,24.53,5.78,7.6-3.17,15.83-5.14,24.45-5.78.24,0,.55,0,.79-.08.55,0,1.11-.08,1.66-.08-.24-.16-.4-.32-.63-.47-1.58-1.11-3.32-2.14-5.06-3.09Z"/>
        <path class="cls-2" d="m229.3,123.56c-.71.63-1.42,1.27-2.06,1.9.63,0,1.27.08,1.82.08,7.83.55,15.27,2.29,22.24,5.14,1.03-.63,2.14-1.19,3.24-1.74-7.76-3.17-16.22-5.06-25.01-5.38h-.24Z"/>
      </g>
      <path class="cls-3" d="m314.92,155.85h0c-.24-2.93-.71-5.7-1.35-8.39v-.08c-.63-2.77-1.58-5.46-2.61-7.99v-.08c-1.11-2.61-2.37-5.14-3.88-7.52v-.08c-1.5-2.37-3.17-4.67-5.06-6.81v-.08c-1.9-2.14-3.88-4.12-6.09-5.94h-.08c-2.14-1.82-4.51-3.48-6.96-4.99h-.08c-2.45-1.5-4.99-2.77-7.68-3.8h-.08c-2.61-1.11-5.38-1.98-8.15-2.61h-.08c-2.77-.63-5.62-1.11-8.47-1.35h-.08c-1.42-.08-2.85-.16-4.35-.16-1.42,0-2.85.08-4.27.16h-.08c-2.93.24-5.7.63-8.47,1.27h-.08c-2.85.63-5.54,1.5-8.15,2.61h-.08c-2.69,1.11-5.22,2.37-7.68,3.8h-.08c-2.45,1.5-4.75,3.17-6.96,4.99h-.08c-2.22,1.82-4.19,3.8-6.09,5.94v.08c-1.9,2.14-3.56,4.43-5.06,6.81v.08c-1.5,2.37-2.77,4.91-3.88,7.52v.08c-1.11,2.61-1.98,5.22-2.69,7.99v.08c-.63,2.69-1.11,5.46-1.35,8.31v.08c-.08,1.42-.16,2.85-.16,4.27s.08,2.77.16,4.19v.08c.24,2.85.71,5.62,1.35,8.31v.08c.63,2.77,1.58,5.46,2.61,7.99v.08c1.11,2.61,2.37,5.14,3.88,7.52v.08c1.5,2.37,3.17,4.67,5.06,6.81v.08c1.9,2.14,3.88,4.12,6.09,5.94h.08c2.14,1.82,4.51,3.48,6.96,4.99h.08c2.45,1.5,4.99,2.77,7.68,3.8h.08c2.61,1.11,5.38,1.98,8.15,2.61h.08c2.77.63,5.62,1.11,8.47,1.35h.08c1.42.08,2.85.16,4.35.16,1.42,0,2.85-.08,4.27-.16h.08c2.93-.24,5.7-.63,8.47-1.27h.08c2.85-.63,5.54-1.5,8.15-2.61h.08c2.69-1.11,5.22-2.37,7.68-3.8h.08c2.45-1.5,4.75-3.17,6.96-4.99h.08c2.22-1.82,4.19-3.8,6.09-5.94v-.08c1.9-2.14,3.56-4.43,5.06-6.81v-.08c1.5-2.37,2.77-4.91,3.88-7.52v-.08c1.11-2.61,1.98-5.22,2.69-7.99v-.08c.63-2.69,1.11-5.46,1.35-8.31v-.08c.08-1.42.16-2.85.16-4.27s0-2.77-.16-4.19Zm-77.87-37.83c1.74-.95,3.56-1.82,5.38-2.61.47-.16.87-.32,1.35-.55,1.98-.71,3.96-1.27,6.01-1.74.4-.08.87-.16,1.27-.24,2.06-.4,4.19-.63,6.33-.79.4,0,.87-.08,1.27-.08h1.27c1.74,0,3.48.08,5.14.32.4.08.87.08,1.27.16,2.14.32,4.19.71,6.25,1.27.47.16.87.24,1.35.4,1.98.63,3.96,1.35,5.78,2.22.47.24.95.47,1.42.71,1.74.87,3.48,1.9,5.14,3.01.24.16.4.32.63.47-.55,0-1.11.08-1.66.08-.24,0-.55,0-.79.08-8.63.63-16.86,2.61-24.45,5.78-7.68-3.17-15.91-5.14-24.53-5.78-.79-.08-1.58-.08-2.37-.16.87-.63,1.66-1.19,2.61-1.74.4-.24.87-.47,1.35-.79Zm63.62,18.2c.63,1.19,1.19,2.37,1.74,3.64.32.87.71,1.66.95,2.53,1.58,4.59,2.53,9.5,2.53,14.64s-.95,10.52-2.77,15.35c-4.59-13.53-12.98-25.4-23.9-34.34,6.01-2.69,12.5-4.43,19.39-5.22h.08c.71,1.11,1.35,2.22,1.98,3.4Zm-40.68,65.84c-6.81,0-13.22-1.42-18.99-4.04v-1.98c0-17.57,7.28-33.47,18.99-45.03,11.79,11.55,18.99,27.46,18.99,45.03v1.98c-5.78,2.61-12.19,4.04-18.99,4.04Zm-29.36-10.37c1.11-18.36,9.65-34.74,22.71-46.29,1.03.71,1.98,1.5,2.93,2.29-12.9,11.79-21.05,28.49-21.45,47.01-1.42-.95-2.85-1.98-4.19-3.01Zm-16.54-34.66c0-4.43.63-8.7,1.9-12.74.16-.63.4-1.27.63-1.9.47-1.35,1.03-2.77,1.66-4.04.47-1.11,1.03-2.14,1.58-3.17.47-.87.95-1.66,1.5-2.45,6.88.71,13.37,2.53,19.39,5.22-10.92,8.94-19.31,20.81-23.9,34.34-1.82-4.75-2.77-9.89-2.77-15.27Zm10.05-28.09c.24-.32.55-.63.79-.95,7.83.55,15.35,2.29,22.32,5.22-1.03.63-1.98,1.35-3.01,2.06-6.25-2.61-13.06-4.35-20.1-4.99-.32,0-.71-.08-1.03-.08.4-.47.71-.87,1.03-1.27Zm5.14-5.38h.24c8.86.4,17.25,2.22,25.01,5.38-1.11.55-2.22,1.11-3.24,1.74-6.96-2.77-14.4-4.59-22.24-5.14-.63-.08-1.19-.08-1.82-.08.63-.63,1.35-1.27,2.06-1.9Zm33.95,9.65c-1.11.55-2.22,1.11-3.24,1.74-1.11-.63-2.14-1.19-3.24-1.74,1.11-.63,2.14-1.19,3.24-1.74,1.11.55,2.22,1.11,3.24,1.74Zm7.12,4.51c-1.11.55-2.22,1.19-3.24,1.82-.95-.71-1.98-1.42-3.01-2.06,1.03-.63,2.14-1.19,3.24-1.82,1.03.71,2.06,1.35,3.01,2.06Zm-10.37,6.81c-.95-.79-1.98-1.5-2.93-2.22.95-.71,1.98-1.42,2.93-2.14,1.03.71,1.98,1.42,2.93,2.14-.95.71-1.98,1.42-2.93,2.22Zm-10.37-6.81c.95-.71,1.98-1.42,3.01-2.06,1.11.55,2.14,1.19,3.24,1.82-1.03.63-1.98,1.35-3.01,2.06-1.11-.63-2.14-1.19-3.24-1.82Zm-3.64,2.85c1.11.63,2.14,1.27,3.17,1.9-12.9,10.84-21.84,26.19-24.37,43.44-1.27-1.5-2.53-3.09-3.56-4.75,3.4-16.14,12.35-30.31,24.77-40.6Zm39.17,54.13c-.4-18.52-8.55-35.21-21.45-47.01.95-.79,1.9-1.58,2.93-2.29,13.06,11.55,21.6,27.93,22.71,46.29-1.35,1.03-2.77,2.06-4.19,3.01Zm-14.32-52.23c1.03-.63,2.14-1.27,3.17-1.9,12.42,10.29,21.29,24.45,24.77,40.6-1.11,1.66-2.29,3.24-3.56,4.75-2.53-17.25-11.47-32.52-24.37-43.44Zm25.96-12.35c-.24,0-.47,0-.71.08-7.2.63-14.09,2.37-20.42,5.06-.95-.71-1.98-1.42-3.01-2.06,6.65-2.77,13.77-4.51,21.29-5.14.32,0,.71-.08,1.03-.08.71.71,1.27,1.42,1.82,2.14Zm-4.75-5.3l.71.71c-8.47.4-16.62,2.22-24.06,5.22-1.03-.63-2.14-1.19-3.24-1.74,7.28-2.93,15.11-4.75,23.34-5.3.63-.08,1.27-.08,1.98-.08.4.32.79.79,1.27,1.19Z"/>
    </g>
  </g>
</svg>