<?xml version="1.0" encoding="UTF-8"?>
<svg id="Layer_2" data-name="Layer 2" xmlns="http://www.w3.org/2000/svg" viewBox="0 0 520 320">
  <defs>
    <style>
      .cls-1 {
        fill: #a3ab78;
      }

      .cls-1, .cls-2, .cls-3, .cls-4 {
        stroke-width: 0px;
      }

      .cls-2 {
        fill: #ed1c24;
      }

      .cls-3 {
        fill: #00a651;
      }

      .cls-4 {
        fill: #fff;
      }
    </style>
  </defs>
  <g id="_500x300_Background" data-name="500x300 Background">
    <rect class="cls-1" width="520" height="320" rx="10" ry="10"/>
  </g>
  <g id="Lebanon">
    <g>
      <polygon class="cls-2" points="10 10 10 85 257.69 85 257.69 85 257.69 85 510 85 510 10 10 10"/>
      <rect class="cls-2" x="9.97" y="235" width="500" height="75"/>
      <path class="cls-4" d="m240.86,117.9c2.55.34,2.95-4.36.34-4.5-2.69-.47-2.82,4.36-.34,4.5Z"/>
      <path class="cls-4" d="m274.37,121.86c2.62.07,3.49-4.3,1.01-5.24h0c-.81-.07-1.61.2-2.35.47-2.28.94-1.14,5.1,1.34,4.77Z"/>
      <path class="cls-4" d="m242.74,153.15c-1.54,1.54.87,4.7,2.75,3.42,1.54-1.48-.87-4.7-2.75-3.42Z"/>
      <path class="cls-4" d="m236.57,177.52h0c-.6-.07-.94.6-.94,1.07.6,2.28.6,4.9,2.22,6.78,1.81,1.81,4.97-1.48,3.16-3.22.34-2.42-1.95-4.9-4.43-4.63Z"/>
      <path class="cls-4" d="m247.31,121.59h0c-1.61.34-3.02,1.21-4.23,2.22-1.41,1.21-3.83,2.82-2.89,4.97,1.75,1.75,3.96-.4,5.64-1.28,2.22-.81,3.29-4.16,1.48-5.91Z"/>
      <path class="cls-4" d="m276.58,140.46c2.15.81,5.1.54,6.31-1.61.87-2.82-2.35-5.57-5.04-4.7h0c-1.07.07-2.22.34-3.16,1.07-2.22,1.48-.54,5.1,1.88,5.24Z"/>
      <path class="cls-4" d="m240.8,138.85c1.88-1.61-.47-5.24-2.69-4.03h0c-2.48-.81-4.36,2.55-3.22,4.57,1.41,2.01,4.63,1.28,5.91-.54Z"/>
      <path class="cls-4" d="m227.84,136.5h0c-1.07-.27-2.28.07-2.89,1.01-1.01,2.28.67,4.77,2.62,5.98,1.68,1.95,5.64.47,5.44-2.15-1.01-2.22-2.62-4.5-5.17-4.83Z"/>
      <path class="cls-4" d="m227.1,161.48h0c-.87,0-1.68,0-2.55.07-2.48.47-5.44-.07-7.45,1.81.74,2.08,1.48,4.57,3.56,5.71,2.75.2,5.3-1.14,7.86-1.95,1.61-.47,3.83-1.54,3.56-3.49-.4-2.15-3.09-2.69-4.97-2.15Z"/>
      <path class="cls-4" d="m306.26,178.8c1.95-1.95-.2-5.77-2.89-5.3h0c-.94.34-1.75.81-2.69,1.21-2.08.74-4.03,3.09-3.09,5.37,2.48,2.15,6.85,1.41,8.66-1.28Z"/>
      <path class="cls-4" d="m291.62,151.34c2.35-1.54.34-5.91-2.35-5.24h0c-1.14.07-2.28.81-2.82,1.81-1.21,2.75,3.02,5.37,5.17,3.42Z"/>
      <path class="cls-4" d="m282.83,175.91c2.95,2.42,7.72,1.88,10.21-1.01,1.95-1.75-.54-5.51-2.95-4.3h0c-1.01-.07-1.95.34-2.89.6-2.22.34-4.77,2.15-4.36,4.7Z"/>
      <path class="cls-4" d="m252.35,122.4c1.95,1.01,3.96-.34,5.91-.74,2.62-.07,3.09-4.5.47-5.04-1.34.27-2.55.87-3.96,1.14-1.75.54-3.96,2.95-2.42,4.63Z"/>
      <path class="cls-4" d="m266.51,120.38c2.55-.2,2.01-4.83-.54-4.43-3.09-.27-2.15,4.9.54,4.43Z"/>
      <path class="cls-4" d="m259.46,159.13c.47,2.48,4.5,3.02,5.51.74-.27-2.48-1.54-4.9-3.76-6.24h0c-1.81,1.01-2.55,3.56-1.75,5.51Z"/>
      <path class="cls-4" d="m259.87,131.73c-.47.2-1.07.2-1.61.27-2.82-.4-2.89,4.1-.34,4.36,2.55.6,4.43-3.49,1.95-4.63h0Z"/>
      <path class="cls-4" d="m266.65,136.97c2.89.27,4.23-4.43,1.61-5.64-.4.27-.81.54-1.28.67-2.42.34-2.75,4.36-.34,4.97Z"/>
      <path class="cls-4" d="m255.7,178.93c-.4,1.14-.27,2.35-.27,3.49-.13,2.42,3.76,3.16,4.77,1.07,1.34-2.62-1.95-5.71-4.5-4.57Z"/>
      <path class="cls-4" d="m246.37,180.61c-.4,2.15.94,5.17,3.49,4.97,1.48-2.22-.87-5.57-3.49-4.97Z"/>
      <path class="cls-4" d="m254.36,151.07c-2.35-.2-2.82,3.69-.6,4.1,2.15.13,2.89-3.83.6-4.1Z"/>
      <polygon class="cls-4" points="257.7 85 9.97 85 9.97 235 509.97 235 509.97 85 257.7 85"/>
      <path class="cls-4" d="m267.72,157.38c-.87.67-1.34,2.22-.54,3.09,2.35,2.08,3.29-3.76.54-3.09Z"/>
      <path class="cls-3" d="m242.81,101.05c-.94.81-3.36,2.42-1.61,3.69,1.48-1.68,5.51.54,3.16,2.28-2.08,1.95-5.04,2.69-7.39,4.3-2.08,1.14-4.16,2.28-5.84,4.03-.13,2.69,3.36,1.21,4.77,2.35,1.81,1.95-.81,5.24-3.16,4.5-3.09.07-5.17,2.75-6.38,5.37-2.42,3.69-6.92,4.77-10.54,6.92-2.08,1.21-4.1,2.55-5.98,3.96-2.48,1.68-.34,5.04,2.35,4.23,2.89-.27,5.44-2.55,8.39-1.88,2.69.94,3.42,4.43,2.55,6.85-.67,1.95-2.28,3.36-3.63,4.83-2.15,2.15-4.9,3.56-7.86,4.23-2.82.94-5.37,2.69-7.25,5.04-2.15,2.15-4.3,4.36-6.78,6.18-.81,2.01,1.41,3.69,3.29,3.63,3.89-.27,6.58-3.42,9.94-5.04,2.75-1.21,5.98,1.75,5.3,4.57-.2,2.75-2.82,4.16-5.17,5.04-6.85,3.42-12.76,8.39-17.99,13.83-1.07,2.22-4.1,1.54-5.71,3.09-1.07,1.95,1.61,2.95,3.16,2.75,6.78-.81,13.03-3.63,19-6.78,2.22-1.07,4.3-2.48,6.65-3.29,2.15-.54,5.17.4,5.57,2.89,0,2.62-2.55,4.03-4.63,5.04-6.31,3.29-13.23,5.1-19.94,7.32-2.55-.67-4.43,3.76-1.68,4.57,2.95,1.01,6.04.2,9,.07,9.27-1.41,17.32-6.38,25.98-9.6,3.63-1.14,7.86.47,9.6,3.83,1.81,3.02,1.61,6.92-.27,9.87-2.95,6.31-7.52,12.15-13.56,15.78-3.83,1.88-8.26,2.62-11.55,5.51-3.02,1.01,1.54,5.04,2.15,1.81,1.81-2.48,5.04-3.22,7.92-3.29,4.36-.47,9-1.28,12.35-4.3,3.02-2.35,6.04-5.57,10.14-5.64,2.28.27,4.57,2.08,6.85,1.01,2.01-.94,5.17-.4,5.71,2.08.94,2.89,3.96,4.23,6.38,5.77.87,1.21,3.76,4.3,4.36,1.54-.54-1.95.2-4.97,2.82-4.3,2.28.07,4.36.94,6.65,1.07,3.02.6,5.51,2.69,7.18,5.1,1.14,1.61,3.69,4.36,5.64,2.22,1.21-2.22-1.07-4.03-2.89-4.83-2.69-1.68-4.97-3.83-7.32-5.91-3.42-3.22-6.45-7.32-6.98-12.09-.74-4.77-.34-9.67.27-14.44.81-3.09,4.7-4.77,7.45-3.09,3.89,1.75,7.72,4.3,12.15,4.03,6.45.13,13.03-1.07,19.27.74,6.11,1.95,10.47,7.05,16.38,9.27,1.34.81,3.02.07,3.49-1.41.6-1.28.2-2.89-1.07-3.63-6.92-6.92-16.32-10.27-24.24-15.71-2.48-.6-2.95-4.63-.67-5.84,3.02-2.22,7.39-1.21,10.07,1.07,2.28,1.34,4.83,2.35,7.52,2.35,2.75-.87,1.41-4.83-1.07-5.1-4.43-2.48-7.65-6.65-11.48-9.87-2.22-1.88-4.63-3.76-7.65-4.16-1.61-.27-3.29-.34-4.97-.27-1.54-1.68.54-4.23,2.55-4.03,2.08.13,4.1.27,6.18,0,2.28-.13,4.57-.4,6.92-.4,1.88,1.28,5.57-.94,3.89-3.09-1.81-1.61-4.5-1.48-6.65-2.28-3.83-1.28-7.79-2.28-11.75-3.09-2.75-.13-2.42-3.83,0-4.23,1.61-.6,2.95.6,4.5.81,2.62.54,5.3.54,7.92,1.14,2.22-1.07.47-4.3-1.48-4.5-4.7-1.68-8.8-4.7-12.82-7.72-4.43-3.29-8.39-7.12-12.89-10.34-1.61-1.01-4.3-1.28-4.7-3.49-.13-2.01,2.28-2.95,3.96-2.48,2.42.74,4.7,1.95,7.18,2.55,1.95.34,3.96.87,5.84.67,2.35-1.48-1.01-2.42-2.22-2.95-3.16-1.68-5.98-3.96-8.8-6.11-2.42-2.01,2.01-2.95,3.56-2.15,2.55,1.07,2.82-2.62.94-3.56-2.28-.94-4.16-2.55-6.24-3.89-3.69-2.62-7.86-4.7-12.42-5.24-5.1-.54-9.8-3.42-12.56-7.79-1.68-2.48-2.89-5.17-4.1-7.92-3.16,6.71-9.2,11.48-15.04,15.98Zm-14.23,66.07c-2.55.81-5.1,2.08-7.86,1.95-2.08-1.21-2.82-3.63-3.56-5.71,2.01-1.88,4.97-1.34,7.45-1.81.87-.07,1.68-.07,2.55-.07h0c1.88-.54,4.57,0,5.04,2.15.2,1.95-2.01,3.02-3.63,3.49Zm-1.07-23.63c-1.95-1.21-3.63-3.69-2.62-5.98.6-.94,1.88-1.28,2.89-1.01h0c2.55.34,4.16,2.62,5.1,4.83.27,2.62-3.63,4.1-5.37,2.15Zm73.19,31.15c.87-.4,1.75-.87,2.69-1.21h0c2.69-.47,4.77,3.36,2.89,5.3-1.81,2.75-6.11,3.42-8.59,1.21-1.01-2.22.94-4.57,3.02-5.3Zm-14.3-26.72c.54-1.01,1.68-1.75,2.82-1.81h0c2.75-.74,4.7,3.63,2.35,5.24-2.08,1.95-6.31-.67-5.17-3.42Zm.81,23.3c.94-.27,1.88-.67,2.89-.6h0c2.35-1.14,4.9,2.55,2.95,4.3-2.48,2.82-7.25,3.36-10.21,1.01-.4-2.55,2.15-4.36,4.36-4.7Zm-9.33-37.13c2.69-.81,5.91,1.95,5.04,4.7-1.21,2.15-4.16,2.42-6.31,1.61-2.42-.13-4.1-3.76-1.88-5.3.87-.6,2.01-.87,3.16-1.01h0Zm-4.83-16.99c.74-.27,1.54-.47,2.35-.47h0c2.48.87,1.61,5.3-1.01,5.24-2.48.34-3.63-3.83-1.34-4.77Zm-31.76-3.63c2.62.07,2.22,4.77-.34,4.5-2.55-.2-2.42-5.04.34-4.5Zm-6.38,25.92c-1.21-2.01.74-5.37,3.22-4.57h0c2.22-1.21,4.57,2.42,2.69,4.03-1.28,1.81-4.5,2.55-5.91.54Zm2.95,45.99c-1.61-1.88-1.54-4.5-2.22-6.78,0-.54.34-1.14.94-1.07h0c2.48-.27,4.77,2.22,4.43,4.63,1.81,1.75-1.34,5.04-3.16,3.22Zm2.28-56.6c-.94-2.15,1.48-3.76,2.89-4.97,1.28-1.01,2.69-1.88,4.23-2.22h0c1.81,1.75.74,5.1-1.48,5.91-1.61.87-3.83,3.02-5.64,1.28Zm5.37,27.8c-1.88,1.34-4.3-1.88-2.75-3.42,1.88-1.28,4.3,1.95,2.75,3.42Zm4.43,29.01c-2.55.2-3.89-2.82-3.49-4.97,2.55-.6,4.9,2.75,3.49,4.97Zm3.89-30.35c-2.28-.4-1.75-4.36.6-4.1,2.22.2,1.48,4.16-.6,4.1Zm6.38,28.27c-1.01,2.08-4.9,1.41-4.77-1.07,0-1.14-.13-2.35.27-3.49,2.55-1.14,5.84,1.95,4.5,4.57Zm6.98-23.03c-.81-.94-.34-2.42.54-3.09,2.75-.67,1.81,5.17-.54,3.09Zm1.01-29.21h0c2.62,1.21,1.28,5.98-1.61,5.64-2.35-.6-2.08-4.63.34-4.97.47-.13.87-.4,1.28-.67h0Zm-2.22-15.24c2.55-.47,3.09,4.16.54,4.43-2.69.4-3.63-4.77-.54-4.43Zm-1.01,43.78c-1.01,2.28-5.04,1.75-5.51-.74-.81-1.95-.07-4.43,1.81-5.51h0c2.15,1.34,3.42,3.76,3.69,6.24Zm-6.98-23.37c-2.55-.27-2.48-4.77.34-4.36.54,0,1.07-.07,1.61-.27h0c2.42,1.07.54,5.17-1.95,4.63Zm-3.16-18.67c1.34-.27,2.55-.87,3.96-1.14h0c2.62.54,2.15,4.97-.47,5.04-1.88.4-3.96,1.75-5.91.74-1.61-1.68.6-4.1,2.42-4.63Z"/>
    </g>
  </g>
</svg>