<?xml version="1.0" encoding="UTF-8"?>
<svg id="Layer_2" data-name="Layer 2" xmlns="http://www.w3.org/2000/svg" viewBox="0 0 520 320">
  <defs>
    <style>
      .cls-1 {
        fill: #a3ab78;
      }

      .cls-1, .cls-2, .cls-3, .cls-4, .cls-5 {
        stroke-width: 0px;
      }

      .cls-2 {
        fill: #224c9f;
      }

      .cls-3 {
        fill: #00a35a;
      }

      .cls-4 {
        fill: #fff;
      }

      .cls-5 {
        fill: #231f20;
      }
    </style>
  </defs>
  <g id="_500x300_Background" data-name="500x300 Background">
    <rect class="cls-1" width="520" height="320" rx="10" ry="10"/>
  </g>
  <g id="Lesotho">
    <g>
      <rect class="cls-4" x="10" y="100" width="500" height="120"/>
      <rect class="cls-3" x="10" y="220" width="500" height="90"/>
      <rect class="cls-2" x="10" y="10" width="500" height="90"/>
      <path class="cls-5" d="m300.27,185.21l-.09-.19-4.03,1.76-24.61-32.55c1.05-2.21,7.95-17.34,6.4-28.32-1.49-10.52-6.13-16.09-14.49-17.3v-1.35l-.06-.07c-.07-.08-1.83-1.88-3.62-1.85-1.78.04-3.47,1.92-3.54,2l-.05.06v1.24c-8.11,1.38-13.31,7.68-14.42,17.74-1.26,11.48,6.22,27.41,6.53,28.08l.17.36-23.85,32.12-4.56-1.57-8.07,17.22.17.11c.19.12,19.4,11.95,46.91,11.95.37,0,.75,0,1.13,0,30.86-.36,48.02-12.39,48.19-12.51l.15-.11-8.27-16.8Zm-24.52-58.99c1.3,9.15-3.92,21.95-5.73,26.02l-4.72-6.24-.04-11.66h5.51l-7.37-6.93.03-16.56c7.12,1.18,10.99,6.04,12.31,15.36Zm-31.82.42c.98-8.94,5.29-14.43,12.25-15.76l.12,16.76-6.68,7h5.47l-.04,11.31-5.11,6.87c-1.43-3.2-7.07-16.63-6.01-26.19Z"/>
      <g id="path3649">
        <path class="cls-4" d="m222.79,192.57c-.34.46-2.88,5.53-2.88,5.53l4.38-.92-1.5-4.61Z"/>
      </g>
      <g id="path3651">
        <path class="cls-4" d="m225.32,199.14l-4.61,1.5,5.53,2.19-.92-3.69Z"/>
      </g>
      <g id="path3653">
        <path class="cls-4" d="m227.4,192.69l2.31,6.8,5.65-1.61-1.5-3.23-6.46-1.96Z"/>
      </g>
      <g id="path3655">
        <path class="cls-4" d="m230.97,201.91l.81,2.77,7.49,1.84-3-6.34-5.3,1.73Z"/>
      </g>
      <g id="path3657">
        <path class="cls-4" d="m239.26,196.14l2.65,6.34,5.65-2.19-1.84-2.77-6.46-1.39Z"/>
      </g>
      <g id="path3659">
        <path class="cls-4" d="m242.95,204.79l.92,2.42,8.76,1.27-3.69-5.77-5.99,2.08Z"/>
      </g>
      <g id="path3661">
        <path class="cls-4" d="m251.37,197.99l3.23,5.65,8.18-3-.92-2.19-10.49-.46Z"/>
      </g>
      <g id="path3663">
        <path class="cls-4" d="m256.1,205.71l1.73,3,10.14-.34-3.8-5.65-8.07,2.99Z"/>
      </g>
      <g id="path3665">
        <path class="cls-4" d="m266.82,198.22l2.77,4.72,6.46-3.11-1.73-2.53-7.49.92Z"/>
      </g>
      <g id="path3667">
        <path class="cls-4" d="m277.42,201.79l-6.46,3.22,1.73,2.77,8.64-1.38-3.92-4.61Z"/>
      </g>
      <g id="path3669">
        <path class="cls-4" d="m279.49,196.83l3.34,4.15,5.42-4.27-1.84-1.96-6.92,2.07Z"/>
      </g>
      <g id="path3671">
        <path class="cls-4" d="m289.41,199.02l-5.19,3.92,1.39,2.42,7.15-1.84-3.34-4.5Z"/>
      </g>
      <g id="path3673">
        <path class="cls-4" d="m296.55,190.84l1.27,1.84-3.57,5.3-3.69-4.72,5.99-2.42Z"/>
      </g>
      <g id="path3675">
        <path class="cls-4" d="m298.97,195.45l2.19,4.38-4.38,1.5-.34-2.08,2.53-3.8Z"/>
      </g>
    </g>
  </g>
</svg>