<?xml version="1.0" encoding="UTF-8"?>
<svg id="Layer_2" data-name="Layer 2" xmlns="http://www.w3.org/2000/svg" viewBox="0 0 520 320">
  <defs>
    <style>
      .cls-1 {
        fill: #a3ab78;
      }

      .cls-1, .cls-2, .cls-3, .cls-4, .cls-5, .cls-6 {
        stroke-width: 0px;
      }

      .cls-3 {
        fill: none;
      }

      .cls-4 {
        fill: #ce1126;
      }

      .cls-5 {
        fill: #002b7f;
      }

      .cls-6 {
        fill: #ffd83d;
      }
    </style>
  </defs>
  <g id="_500x300_Background" data-name="500x300 Background">
    <rect class="cls-1" width="520" height="320" rx="10" ry="10"/>
  </g>
  <g id="Liechtenstein">
    <g>
      <rect class="cls-5" x="10" y="10" width="500" height="150"/>
      <rect class="cls-4" x="10" y="160" width="500" height="150"/>
      <path class="cls-3" d="m116.67,69.49c0,.07,0,.22-.07.29.29-.37.73-.59,1.17-.73-.88-.15-1.54-.95-1.54-1.83s.66-1.69,1.54-1.83c-.81-.07-1.61-.29-2.35-.66.44.44.73,1.1.73,1.76,0,1.1-.66,2.05-1.69,2.42l1.98.29c.15.07.22.15.22.29Z"/>
      <path class="cls-3" d="m120.12,67.21c0,.88-.66,1.69-1.54,1.83.44.07.88.37,1.17.73,0-.07,0-.22-.07-.29,0-.07.07-.15.15-.22l1.98-.29c-.95-.37-1.69-1.32-1.69-2.42,0-.66.29-1.32.73-1.76-.66.37-1.47.66-2.35.66.95.15,1.61.88,1.61,1.76Z"/>
      <path class="cls-6" d="m96.94,69.56c.73.22,1.54.44,2.35.73v18.34c-.07,0-.15-.07-.22-.07-.66-.15-1.39-.37-2.13-.51v-18.48Zm-18.41,4.91c-.59,1.25-1.03,2.79-1.03,4.69,0,2.49.37,4.91,1.03,7.19v-11.88Zm31.39,11.88c.44-.95.81-2.13,1.03-3.52.29-1.61-.07-3.3-1.03-4.91v8.44Zm-31.17.95c.44,1.32.88,2.64,1.47,3.96h.07q.07,0,.07.07c.22.29.44.51.73.66v-20.54c-.95.66-1.76,1.54-2.35,2.64v13.2Zm2.64,4.84c.44.22.88.37,1.32.44.29,0,.66,0,1.03-.07v-22.44c-.81.29-1.61.73-2.35,1.25,0,0,0,20.83,0,20.83Zm2.57.22c.81-.22,1.61-.66,2.35-1.25v-21.93c-.81.15-1.61.37-2.35.66v22.52Zm7.78-4.77c.81-.15,1.54-.15,2.35,0v-18.7c-.81-.07-1.54-.15-2.35-.15v18.85Zm-2.57-18.7v19.88c.73-.51,1.54-.88,2.35-1.1v-18.85h-.59c-.51,0-1.1,0-1.76.07Zm5.21.07v18.63h.15c.73.15,1.47.29,2.2.44v-18.56c-.66-.15-1.25-.29-1.76-.37q-.07,0-.07-.07c-.22,0-.37-.07-.51-.07Zm5.21,19.8c.81.22,1.61.37,2.35.59v-17.82c-.81-.37-1.54-.73-2.35-1.03v18.26Zm2.57.59c.81.15,1.61.29,2.35.29v-16.8c-.73-.44-1.54-.88-2.35-1.32v17.82Zm7.56-2.49v-9.32c0-.07-.07-.07-.07-.15-.59-.88-1.39-1.69-2.27-2.42v14.3c.22-.07.37-.15.59-.29.66-.51,1.25-1.17,1.76-2.13Zm-21.64,2.79h0l.15-.07c.22-.22.51-.44.73-.66v-20.1c-.73.07-1.54.15-2.35.29v21.78c.59-.37,1.1-.81,1.47-1.25Zm16.72.07c.88,0,1.61-.07,2.35-.37v-14.6c-.73-.59-1.54-1.17-2.35-1.69v16.65Zm6.38-23.25c0,1.03.73,1.98,1.76,2.2h.07l.59.07c1.25-.07,2.27-1.03,2.27-2.27s-1.03-2.27-2.35-2.27-2.35,1.03-2.35,2.27Zm-3.3,1.03c1.32,0,2.35-1.03,2.35-2.27s-1.03-2.27-2.35-2.27-2.35,1.03-2.35,2.27c0,1.25,1.03,2.27,2.35,2.27Zm-5.72-1.47c1.32,0,2.35-1.03,2.35-2.27s-1.03-2.27-2.35-2.27-2.35,1.03-2.35,2.27,1.03,2.27,2.35,2.27Zm-5.79-.95c1.32,0,2.35-1.03,2.35-2.27s-1.03-2.27-2.35-2.27-2.35,1.03-2.35,2.27,1.03,2.27,2.35,2.27Zm-5.79-.51c1.32,0,2.35-1.03,2.35-2.27s-1.03-2.27-2.35-2.27-2.35,1.03-2.35,2.27,1.1,2.27,2.35,2.27Zm-5.65.29c1.32,0,2.35-1.03,2.35-2.27s-1.03-2.27-2.35-2.27-2.35,1.03-2.35,2.27c0,1.25,1.1,2.27,2.35,2.27Zm-5.35,1.83c1.32,0,2.35-1.03,2.35-2.27s-1.03-2.27-2.35-2.27-2.35,1.03-2.35,2.27,1.03,2.27,2.35,2.27Zm-4.55,3.23c1.32,0,2.35-1.03,2.35-2.27s-1.03-2.27-2.35-2.27-2.35,1.03-2.35,2.27c0,1.25,1.03,2.27,2.35,2.27Zm-3.23,4.62c1.32,0,2.35-1.03,2.35-2.27s-1.03-2.27-2.35-2.27-2.35,1.03-2.35,2.27c0,1.25,1.03,2.27,2.35,2.27Zm-1.54,5.35c1.32,0,2.35-1.03,2.35-2.27s-1.03-2.27-2.35-2.27-2.35,1.03-2.35,2.27c0,1.25,1.03,2.27,2.35,2.27Zm2.35,3.23c0-1.25-1.03-2.27-2.35-2.27s-2.35,1.03-2.35,2.27,1.03,2.27,2.35,2.27c1.32.07,2.35-.95,2.35-2.27Zm-1.25,7.78c1.32,0,2.35-1.03,2.35-2.27s-1.03-2.27-2.35-2.27-2.35,1.03-2.35,2.27c0,1.25,1.1,2.27,2.35,2.27Zm35.87-19.66h.15c.81.22,1.61.37,2.35.59h.29c.88.22,1.76.44,2.57.59.07-.59.07-1.17.15-1.76h0v-.15h0v-.22c0-.29,0-.59.07-.88-1.25-.29-2.49-.59-3.74-.88-6.16-1.54-13.13-3.23-19.88-3.23-10.27,0-15.77,7.33-15.77,14.3,0,4.33.81,8.07,2.13,11.66.37,0,.66.07.95.15h.37c.07,0,.15,0,.22.07.07,0,.15,0,.22.07.15.07.29.07.44.15,1.1.29,2.13.81,3.08,1.47-.29-.59-.51-1.17-.81-1.76q0-.07-.07-.15t-.07-.15c-.37-.95-.73-1.83-1.03-2.86-.07-.15-.07-.22-.15-.37s-.07-.29-.15-.44c-.81-2.71-1.32-5.5-1.32-8.44,0-2.05.44-3.89,1.32-5.35.07-.07.07-.15.15-.22s.07-.15.15-.22c.59-.88,1.39-1.69,2.35-2.35l.07-.07h.07c.07,0,.07-.07.15-.07.66-.44,1.47-.88,2.35-1.17q.07,0,.15-.07c.07-.07.07,0,.15-.07.73-.29,1.54-.44,2.35-.66.07,0,.15,0,.22-.07,1.32-.22,2.86-.37,4.4-.37h.88c.81,0,1.54.07,2.35.15h.29c.81.07,1.54.15,2.35.29h.29c.22.07.51.07.73.15.51.07.95.15,1.47.29h.44c.22.07.51.07.73.15.51.15,1.1.22,1.61.37h.29c.81.15,1.54.37,2.35.59h.29c.73.15,1.39.37,2.13.51.07,0,.15.07.22.07-.37.37-.29.37-.29.37Zm45.48,21.2c.37.07.66.15,1.03.07.51,0,.95-.15,1.32-.44v-20.83c-.73-.51-1.54-.88-2.35-1.25v22.44Zm-18.19-3.15c.73-.15,1.54-.37,2.35-.59v-18.34c-.73.29-1.54.66-2.35,1.03v17.9Zm-2.64.37c.73-.07,1.54-.15,2.35-.29v-17.75c-.81.37-1.61.81-2.35,1.32v16.72Zm7.85-20.17v18.56c.73-.15,1.47-.29,2.2-.44h.15v-18.63c-.15,0-.29,0-.44.07l-.07.07c-.59.07-1.25.22-1.83.37Zm2.57,18.19c.81-.15,1.54-.15,2.35,0v-18.78c-.81,0-1.54.07-2.35.15v18.63Zm5.94,1.91h.15c.37.37.88.88,1.47,1.32v-21.78c-.81-.15-1.61-.22-2.35-.29v20.1c.22.22.44.44.73.66Zm-19.73-.59c.15.15.37.22.51.29v-14.3c-.88.73-1.61,1.54-2.27,2.42,0,.07-.07.07-.07.15v9.32c.51.95,1.1,1.61,1.83,2.13Zm27.65,2.27c.51-1.32,1.03-2.64,1.47-3.96v-13.28c-.59-1.1-1.39-1.91-2.35-2.64v20.54c.22-.22.51-.37.73-.66l.07-.07h.07v.07Zm-29.71-13.35c-.95,1.61-1.32,3.23-1.03,4.91.29,1.39.59,2.57,1.03,3.52v-8.44Zm31.39,8.51c.59-2.35,1.03-4.69,1.03-7.19,0-1.91-.37-3.45-1.03-4.69v11.88Zm-5.43,5.94v-22.52c-.73-.29-1.54-.51-2.35-.66v21.93c.73.59,1.54,1.03,2.35,1.25Zm-7.56-23.55v18.85c.81.15,1.61.59,2.35,1.1v-19.88c-.66-.07-1.25-.07-1.76-.07-.22,0-.37,0-.59,0Zm-15.55,20.54c.73.29,1.47.37,2.35.37v-16.65c-.81.51-1.61,1.1-2.35,1.69v14.6Zm7.78-.66c.07,0,.15-.07.22-.07.66-.15,1.39-.37,2.13-.51v-18.56c-.73.22-1.54.44-2.35.81v18.34Zm-14.3-19.88l.59-.07h.07c1.03-.29,1.76-1.17,1.76-2.2,0-1.25-1.03-2.27-2.35-2.27s-2.35,1.03-2.35,2.27c0,1.17,1.03,2.2,2.27,2.27Zm3.45-3.67c0,1.25,1.03,2.27,2.35,2.27s2.35-1.03,2.35-2.27-1.03-2.27-2.35-2.27c-1.32,0-2.35,1.03-2.35,2.27Zm8.07.88c1.32,0,2.35-1.03,2.35-2.27s-1.03-2.27-2.35-2.27-2.35,1.03-2.35,2.27,1.03,2.27,2.35,2.27Zm5.79-.95c1.32,0,2.35-1.03,2.35-2.27s-1.03-2.27-2.35-2.27-2.35,1.03-2.35,2.27,1.03,2.27,2.35,2.27Zm5.72-.51c1.32,0,2.35-1.03,2.35-2.27s-1.03-2.27-2.35-2.27-2.35,1.03-2.35,2.27,1.03,2.27,2.35,2.27Zm5.65.29c1.32,0,2.35-1.03,2.35-2.27s-1.03-2.27-2.35-2.27-2.35,1.03-2.35,2.27,1.1,2.27,2.35,2.27Zm5.43,1.83c1.32,0,2.35-1.03,2.35-2.27s-1.03-2.27-2.35-2.27-2.35,1.03-2.35,2.27,1.03,2.27,2.35,2.27Zm4.55,3.23c1.32,0,2.35-1.03,2.35-2.27s-1.03-2.27-2.35-2.27-2.35,1.03-2.35,2.27c0,1.25,1.03,2.27,2.35,2.27Zm.88,2.27c0,1.25,1.03,2.27,2.35,2.27s2.35-1.03,2.35-2.27-1.03-2.27-2.35-2.27-2.35,1.03-2.35,2.27Zm1.54,5.43c0,1.25,1.03,2.27,2.35,2.27s2.35-1.03,2.35-2.27-1.03-2.27-2.35-2.27c-1.32-.07-2.35.95-2.35,2.27Zm4.62,5.5c0-1.25-1.03-2.27-2.35-2.27s-2.35,1.03-2.35,2.27,1.03,2.27,2.35,2.27c1.32.07,2.35-.95,2.35-2.27Zm-3.45,7.78c1.32,0,2.35-1.03,2.35-2.27s-1.03-2.27-2.35-2.27-2.35,1.03-2.35,2.27,1.1,2.27,2.35,2.27Zm-5.79.73c.07,0,.15,0,.22-.07.07,0,.15,0,.22-.07h.37c.29-.07.66-.07.95-.15,1.25-3.59,2.13-7.41,2.13-11.66,0-6.97-5.5-14.3-15.77-14.3-6.82,0-13.79,1.76-19.88,3.23-1.32.29-2.57.66-3.74.88,0,.29,0,.59.07.88v.22h0v.15h0c.07.59.07,1.17.15,1.76.81-.15,1.69-.37,2.57-.59h.29c.73-.22,1.54-.37,2.35-.59h.29c.07,0,.15-.07.22-.07.66-.15,1.39-.37,2.13-.51h.29c.73-.22,1.54-.37,2.35-.59h.29c.51-.15,1.1-.22,1.61-.37.22-.07.51-.07.73-.15h.44c.51-.07.95-.15,1.47-.29.22-.07.51-.07.73-.15h.29c.81-.15,1.54-.22,2.35-.29h.29c.81-.07,1.54-.15,2.35-.15h.88c1.61,0,3.08.15,4.4.37.07,0,.15,0,.22.07.81.15,1.61.37,2.35.66q.07,0,.15.07.07,0,.15.07c.88.29,1.61.73,2.35,1.17.07,0,.07.07.15.07h.07l.07.07c.95.66,1.76,1.47,2.35,2.35.07.07.07.15.15.22.07.07.07.15.15.22.88,1.54,1.32,3.3,1.32,5.35,0,2.93-.51,5.72-1.32,8.44-.07.15-.07.29-.15.44-.07.15-.07.22-.15.37-.29.95-.66,1.91-1.03,2.86q0,.07-.07.15,0,.07-.07.15c-.22.59-.51,1.17-.81,1.69.95-.66,1.98-1.17,3.08-1.47-.29-.37-.15-.44,0-.44Zm-42.76-36.75c.51-.15,1.1-.29,1.69-.29s1.17.07,1.69.29l.73-1.32-2.13-3.96h-.59l-2.13,3.96.73,1.32Zm1.76-9.46h.22l2.2-4.03-2.42-4.47-2.42,4.47,2.2,4.03h.22Zm2.13,2.13c0,.15,0,.29-.07.37l3.08,1.91,3.81-2.35-3.81-2.35-3.15,1.98c.15.15.15.29.15.44Zm-4.25.37c0-.15-.07-.22-.07-.37s0-.29.07-.51l-3.15-1.98-3.81,2.35,3.81,2.35,3.15-1.83Zm.37.15c.22.59.66,1.03,1.25,1.17.07,0,.15,0,.15.07h.59c.07,0,.15,0,.15-.07.59-.15,1.1-.59,1.25-1.17,0-.07.07-.07.07-.15v-.66c0-.07,0-.15-.07-.15,0-.07,0-.15-.07-.15-.22-.51-.66-.95-1.25-1.1h-.88c-.59.15-1.1.59-1.25,1.1,0,.07-.07.15-.07.15,0,.07,0,.15-.07.15v.66c.22.07.22.15.22.15Zm-3.15,10.42c1.1-.15,2.27-.29,3.45-.37v-2.93h-.07c-.07,0-.07.07-.15.07s-.07.07-.15.07c-1.54.51-2.64,1.69-3.08,3.15Zm9.83,2.93c-1.61-.29-3.3-.37-4.99-.37s-3.3.15-4.99.37c.59,2.13,2.64,3.67,4.99,3.67s4.4-1.54,4.99-3.67Zm-10.12-1.39c0,.37.07.73.15,1.1,1.69-.29,3.37-.37,4.99-.37s3.37.15,5.06.37c.07-.37.15-.73.15-1.1,0-.44-.07-.88-.15-1.25-1.17-.22-2.42-.29-3.67-.37-.07,0-.15-.07-.15-.15v-3.15c-.37-.07-.81-.15-1.25-.15s-.81.07-1.25.15v3.23c0,.07-.07.15-.15.15-1.25.07-2.42.15-3.67.37,0,.29-.07.73-.07,1.17Zm6.75-4.84s-.07,0,0,0l-.07.15v2.86c1.17.07,2.27.15,3.45.37-.44-1.47-1.61-2.64-3.08-3.15-.07,0-.07-.07-.15-.07-.07-.07-.07-.15-.15-.15Zm-9.9,34.55h0q.07-.07.15-.07c1.1-.88,2.49-1.54,4.03-1.98.29-1.54.59-3.08.81-4.62.07-.51.15-1.03.22-1.54.07-.59.15-1.25.22-1.83.22-2.05.44-4.03.59-5.72.07-1.1.22-2.05.29-2.93v-.29c.07-.44.07-.81.15-1.17l-2.71-.44-.44-.07v.51c0,.29,0,.59-.07.88h0v.37c-.07.59-.07,1.17-.15,1.76v.29c-.44,5.28-1.25,10.78-2.93,15.55-.07.15-.07.22-.15.37-.07.15-.07.22-.15.37-.15.37-.29.73-.44,1.1.15-.15.29-.29.44-.44q.07,0,.15-.07Zm11.52-8.22c.07.51.15,1.03.22,1.54.22,1.54.51,3.15.81,4.62,1.54.44,2.93,1.03,4.03,1.98l.07.07h0q.07.07.15.15c.15.15.29.29.44.44-.15-.37-.29-.73-.44-1.17-.07-.15-.07-.22-.15-.37s-.07-.22-.15-.37c-1.69-4.77-2.49-10.27-2.93-15.55v-.29c-.07-.59-.07-1.17-.15-1.76v-.37h0c0-.29-.07-.59-.07-.88v-.51l-.44.07-2.71.44c.07.37.07.73.15,1.17v.29c.07.88.22,1.83.29,2.93.15,1.76.37,3.74.59,5.79.15.51.22,1.17.29,1.76Zm48.56,12.98c-3.23,2.79-5.5,8.29-7.78,13.64-1.76,4.33-3.45,8.44-5.57,11.15-.15-.51-.88-1.03-2.13-1.47l.44-1.47c0-.07,0-.15-.07-.15s-.15,0-.15.07l-.44,1.47c-.51-.15-1.1-.29-1.76-.44l.44-1.54c0-.07,0-.15-.07-.15s-.15,0-.15.07l-.44,1.54c-.59-.15-1.17-.22-1.83-.37l.29-1.47c0-.07,0-.15-.07-.15s-.15,0-.15.07l-.29,1.47c-.59-.07-1.17-.22-1.83-.29l.29-1.54c0-.07,0-.15-.07-.15s-.15,0-.15.07l-.29,1.54c-.73-.07-1.47-.22-2.27-.29l.22-1.54c0-.07,0-.15-.07-.15s-.15,0-.15.07l-.22,1.54c-.81-.07-1.61-.15-2.49-.22l.22-1.25c0-.07,0-.15-.07-.15s-.15,0-.15.07l-.22,1.25c-.81-.07-1.61-.15-2.49-.22l.22-1.91c0-.07-.07-.15-.15-.15s-.15.07-.15.15l-.22,1.98c-.73-.07-1.47-.07-2.27-.15l.22-1.61c0-.07-.07-.15-.15-.15s-.15.07-.15.15l-.22,1.61c-.73-.07-1.47-.07-2.27-.15l.22-1.83c0-.07-.07-.15-.15-.15s-.15.07-.15.15l-.22,1.83c-.73,0-1.39-.07-2.13-.07l.15-1.98c0-.07-.07-.15-.15-.15s-.15.07-.15.15l-.15,1.98c-.81,0-1.61-.07-2.42-.07l.15-1.91c0-.07-.07-.15-.15-.15s-.15.07-.15.15l-.15,1.91c-.73,0-1.39-.07-2.13-.07l.07-1.98c0-.07-.07-.15-.15-.15s-.15.07-.15.15l-.07,1.98c-.81,0-1.61,0-2.42-.07l.07-2.13c0-.07-.07-.15-.15-.15s-.15.07-.15.15l-.07,2.13h-2.79l.07-2.13c0-.07-.07-.15-.15-.15s-.15.07-.15.15l-.07,2.13h-3.45v-2.35c0-.07-.07-.15-.15-.15s-.15.07-.15.15v2.35h-3.45l-.07-2.13c0-.07-.07-.15-.15-.15s-.15.07-.15.15l.07,2.13h-2.79l-.07-2.13c0-.07-.07-.15-.15-.15s-.15.07-.15.15l.07,2.13c-.81,0-1.61,0-2.42.07l-.07-1.98c0-.07-.07-.15-.15-.15s-.15.07-.15.15l.07,1.98c-.73,0-1.47,0-2.13.07l-.15-1.91c0-.07-.07-.15-.15-.15s-.15.07-.15.15l.15,1.91c-.81,0-1.61.07-2.42.07l-.15-1.98c0-.07-.07-.15-.15-.15s-.15.07-.15.15l.15,1.98c-.73,0-1.47.07-2.13.07l-.22-1.83c0-.07-.07-.15-.15-.15s-.15.07-.15.15l.22,1.83c-.73,0-1.54.07-2.27.15l-.22-1.61c0-.07-.07-.15-.15-.15s-.15.07-.15.15l.22,1.61c-.73.07-1.54.07-2.27.15l-.22-1.98c0-.07-.07-.15-.15-.15s-.15.07-.15.15l.22,1.91c-.88.07-1.69.15-2.49.22l-.22-1.25c0-.07-.07-.15-.15-.07-.07,0-.15.07-.07.15l.22,1.25c-.88.07-1.69.15-2.49.22l-.22-1.54c0-.07-.07-.15-.15-.07-.07,0-.15.07-.07.15l.22,1.54c-.81.07-1.54.15-2.27.29l-.29-1.54c0-.07-.07-.15-.15-.07-.07,0-.15.07-.07.15l.29,1.54c-.66.07-1.25.15-1.83.29l-.29-1.47c0-.07-.07-.15-.15-.07-.07,0-.15.07-.07.15l.29,1.47c-.66.15-1.25.22-1.83.37l-.44-1.54c0-.07-.07-.07-.15-.07s-.07.07-.07.15l.44,1.54c-.66.15-1.25.29-1.76.44l-.44-1.47c0-.07-.07-.07-.15-.07s-.07.07-.07.15l.44,1.47c-1.25.44-1.98.88-2.13,1.47-2.13-2.71-3.81-6.82-5.65-11.15-2.2-5.35-4.47-10.93-7.7-13.64,2.64-2.05,5.79-3.01,8.73-2.79h.44c.29,0,.59.07.88.15h.29c.07,0,.15,0,.22.07.07,0,.15,0,.22.07.07,0,.15,0,.22.07.07,0,.15,0,.22.07,1.32.37,2.49.95,3.52,1.83l.07.07c.07,0,.07.07.15.15.07,0,.07.07.15.15h0c.15.07.22.22.37.29.73.73,1.39,1.54,1.98,2.42.07.07.07.15.15.22.07.07.07.15.15.22.37.66.73,1.39,1.03,2.2,0,.07.15.15.22.07.07,0,.15-.07.15-.15-.37-4.11,1.1-7.63,3.23-9.76.07-.07.15-.15.22-.22.07-.07.15-.07.15-.15l.07-.07.07-.07c.07,0,.07-.07.15-.15.73-.59,1.54-.95,2.35-1.17h.29c.59-.07,1.1-.15,1.69-.07h.29c.07,0,.22,0,.29.07h.37c.81.15,1.54.44,2.35.81.07,0,.07.07.15.07s.07.07.15.07c.81.44,1.61.88,2.35,1.47.07,0,.07.07.15.07s.07.07.15.07c.81.66,1.61,1.32,2.35,2.05q.07.07.15.15.07.07.15.15c.88.88,1.69,1.83,2.35,2.64q.07.07.15.15c.07.07.07.15.15.15.73.95,1.25,1.76,1.54,2.27.07.07.15.07.22.07s.15-.07.15-.15c.07-2.35.59-4.18,1.39-5.57,0-.07.07-.07.07-.15.22-.37.44-.73.66-1.03.29-.37.59-.73.95-1.03q.07-.07.15-.15.07-.07.15-.07c1.17-1.03,2.49-1.61,3.96-2.05.07,0,.15,0,.15-.07.07,0,.15,0,.22-.07.15,0,.22-.07.37-.07h.29c.95-.15,1.98-.29,2.86-.29h.66c.95,0,1.91.07,2.86.29h.29c.15,0,.22.07.37.07.07,0,.15,0,.22.07.07,0,.15,0,.15.07,1.47.37,2.79,1.03,3.96,2.05.07,0,.07.07.15.07q.07.07.15.15c.37.29.66.66.95,1.1.22.29.44.66.66,1.03,0,.07.07.07.07.15.81,1.47,1.25,3.3,1.39,5.57,0,.07.07.15.15.15s.15,0,.22-.07c.29-.51.81-1.32,1.54-2.27q.07-.07.15-.15.07-.07.15-.15c.66-.81,1.47-1.76,2.35-2.64q.07-.07.15-.15.07-.07.15-.15c.73-.73,1.54-1.47,2.35-2.05.07,0,.07-.07.15-.07s.07-.07.15-.07c.73-.59,1.54-1.1,2.35-1.47.07,0,.07-.07.15-.07s.07-.07.15-.07c.73-.37,1.54-.66,2.35-.81h.37c.07,0,.22,0,.29-.07h.29c.59-.07,1.1,0,1.69.07h.22c.81.22,1.61.59,2.35,1.17.07,0,.07.07.15.15h0l.07.07q.07.07.15.15c.07.07.15.15.22.22,2.13,2.05,3.59,5.65,3.23,9.76,0,.07.07.15.15.15s.15,0,.22-.07c.29-.81.66-1.54,1.03-2.2.07-.07.07-.15.15-.22.07-.07.07-.15.15-.22.59-.95,1.25-1.76,1.98-2.42.15-.07.22-.22.37-.29h0q.07-.07.15-.15c.07,0,.07-.07.15-.15l.07-.07c1.03-.81,2.2-1.39,3.52-1.83.07,0,.15,0,.22-.07.07,0,.15,0,.22-.07.07,0,.15,0,.22-.07.07,0,.15,0,.22-.07h.29c.29-.07.59-.07.88-.15h.44c2.13-.22,5.28.73,7.92,2.79Zm-10.93,3.81h.15c.15,0,.37-.07.51-.29q.07-.07.15-.15s0-.07.07-.07c0-.07.07-.15.07-.15.07-.07.07-.22.15-.29.22-.44.51-.95.73-1.47.15-.29.15-.51.07-.66s-.22-.22-.37-.22-.37.07-.51.15c-.07,0-.07.07-.15.15q-.07.07-.15.15c-.07.07-.07.15-.15.22-.15.37-.22.66-.29.88-.07.29-.22.59-.37,1.03-.22.59,0,.73.07.73Zm-2.13-1.25c0,.22-.07.37-.07.51h0l-.07.37v.07c0,.37.15.59.29.59h.07c.15,0,.29-.07.37-.29.07-.15.15-.37.29-.66.15-.37.37-.73.51-1.17.07-.29,0-.44-.07-.59-.07-.15-.22-.15-.37-.22h-.22c-.07,0-.15,0-.22.07-.22.07-.37.22-.44.51,0,.44-.07.66-.07.81Zm-1.91.51h0c-.07.59-.15,1.1-.15,1.61,0,.29.15.51.29.51h0c.15,0,.29-.15.44-.44.07-.22.07-.37.15-.59.07-.29.22-.66.29-.95.07-.29,0-.51-.07-.59-.07-.07-.22-.15-.37-.15-.29,0-.59.22-.59.59Zm-9.1-3.15c-.15.29-.22.59-.37.88-.22.37-.15.66.07.73.07,0,.07.07.15.07.15,0,.29-.07.37-.29.07-.15.22-.37.44-.59.22-.37.51-.73.73-1.1.15-.29.22-.66.07-.88-.07-.15-.22-.22-.37-.29-.22,0-.51.07-.66.44-.22.37-.37.73-.44,1.03Zm-1.32-2.2c-.07.37-.22.73-.29,1.03,0,.15-.07.22-.07.29-.07.29,0,.59.22.66h.07c.07,0,.29-.07.37-.37.15-.29.29-.51.37-.73.07-.15.22-.37.37-.59.07-.22.07-.44,0-.66s-.29-.29-.44-.37c-.15.07-.44.15-.59.73Zm4.18,5.5c-.22,0-.37.15-.44.29-.15.22-.37.51-.59.88-.22.29-.44.59-.59.88-.29.44-.07.66,0,.66.07.07.15.07.22.07.15,0,.29-.07.44-.22.07-.07.22-.22.37-.37.29-.29.73-.66,1.1-1.17.22-.29.22-.51.15-.66-.07-.15-.22-.29-.44-.37q-.15,0-.22,0Zm-1.1-2.2c-.37.59-.66,1.03-.88,1.32-.15.22-.29.44-.44.59-.15.29-.15.59,0,.73,0,0,.07.07.15.07s.29-.07.44-.29c.22-.29.51-.59.73-.81.22-.29.44-.51.66-.73.22-.29.29-.88.15-1.1-.07-.15-.22-.22-.29-.15h0c-.15-.07-.29.07-.51.37Zm-5.35-1.61h.15c.15,0,.29-.07.44-.44.15-.37.37-.66.51-.95.15-.22.29-.51.44-.81.15-.29.15-.51,0-.73-.07-.15-.22-.22-.37-.22h0c-.15,0-.44.07-.66.59-.44.95-.59,1.39-.73,1.83v.07c-.15.22,0,.51.22.66Zm-2.05,0h.07c.15,0,.37-.15.51-.44.15-.37.29-.73.51-1.03.15-.29.29-.59.37-.81.07-.22.07-.37,0-.51s-.15-.22-.29-.29h-.22c-.29.07-.51.29-.59.66-.22.59-.29.95-.37,1.25-.07.22-.07.37-.15.51-.15.37-.07.59.15.66Zm-2.49.88h.07c.15,0,.44-.15.59-.59.15-.29.29-.59.37-.88.15-.37.29-.66.44-1.03.07-.29.07-.59,0-.81-.07-.15-.22-.22-.37-.29-.15,0-.51,0-.73.73-.22.81-.37,1.39-.51,1.91-.07.15-.07.29-.07.44-.07.29.07.44.22.51Zm-14.38-4.11h-.22c-.15,0-.44.15-.44.81,0,.81.07,1.61.07,1.98,0,.29.22.51.44.51h0c.15,0,.29-.15.29-.44,0-.66.15-1.39.29-1.98.07-.51-.15-.81-.44-.88Zm2.93,5.57c-.15.51-.22.95-.22,1.32-.07.22-.07.44-.15.66-.07.22.07.37.15.44.07.07.15.07.22.07h.15c.22-.07.37-.29.44-.51.07-.51.22-1.03.37-1.54l.07-.29c.07-.22,0-.37-.07-.51s-.22-.22-.37-.22h-.15c-.22.07-.37.22-.44.59Zm-1.69-.66c0,.29.15.59.37.59h.07c.15,0,.29-.07.44-.44.07-.44.22-.73.37-1.1.07-.22.15-.51.22-.73s0-.44-.15-.66c-.15-.15-.29-.29-.51-.29h0c-.29,0-.44.22-.59.59-.07.88-.22,1.54-.22,2.05Zm10.86.15h.07c.15,0,.37-.15.44-.37.07-.15.07-.37.15-.51.15-.44.37-1.1.44-1.39.07-.37-.07-.59-.29-.66h-.15c-.29,0-.59.29-.73.73-.07.37-.15.66-.15.88s-.07.37-.15.66c0,.37.15.66.37.66Zm-14.89-3.37c.07.29.29.59.51.59h0c.07,0,.37-.07.44-.59v-.15c0-.37.07-.66.15-.95v-.15c0-.22.07-.44.07-.59s-.07-.22-.07-.37c-.07-.07-.07-.15-.15-.22-.07-.07-.22-.15-.37-.15h-.15c-.15,0-.44.07-.44.59-.15.88-.07,1.47,0,1.98Zm-2.05-1.98v.81c0,.51,0,.81.07,1.25.07.37.29.59.51.59h0c.15,0,.37-.07.44-.59.07-.29.07-.73.15-1.1.07-.37.07-.73.15-1.03.07-.29-.07-.51-.15-.59-.15-.15-.29-.22-.44-.22s-.37.07-.44.22c-.15.07-.29.29-.29.66Zm-1.98-.07c.07.29.07.66.15,1.03.07.37.07.81.15,1.1.07.51.29.59.44.59h0c.22,0,.44-.22.51-.59.07-.44.07-.73.07-1.25v-.81c0-.37-.15-.59-.22-.73-.15-.15-.29-.22-.44-.22s-.37.07-.44.22c-.15.15-.22.37-.22.66Zm-1.83.15c0,.22.07.37.07.59v.15c.07.29.07.59.15.95v.15c.07.51.29.59.44.59h0c.22,0,.44-.22.51-.59.07-.44.15-1.1.07-1.98,0-.51-.29-.59-.44-.59h-.15c-.15,0-.22.07-.37.15-.07.07-.15.15-.15.22-.15.15-.15.22-.15.37Zm-5.06,5.21h-.15c-.15,0-.29.07-.37.22-.07.15-.15.37-.07.51l.07.29c.15.51.29,1.03.37,1.54.07.29.22.44.44.51h.15c.07,0,.22,0,.22-.07.07-.07.15-.22.15-.44-.07-.22-.07-.44-.15-.66-.07-.37-.15-.81-.22-1.32,0-.37-.22-.51-.44-.59Zm2.13-.07c0-.51-.15-1.17-.29-1.98-.07-.37-.29-.59-.59-.59h0c-.15,0-.37.07-.51.29s-.22.44-.15.66.15.51.22.73c.15.37.22.66.37,1.1.07.44.29.44.44.44h.07c.29-.07.51-.37.44-.66Zm.81-4.11c.15.59.29,1.32.29,1.98,0,.37.15.44.29.44h0c.22,0,.44-.22.44-.51,0-.37.07-1.17.07-1.98,0-.44-.15-.59-.22-.73-.07-.07-.22-.15-.37-.07-.29.15-.59.44-.51.88Zm-12.76,1.91c.07.37.29.95.44,1.39.07.22.15.37.15.51.07.29.29.37.44.37h.07c.22-.07.37-.29.29-.73-.07-.29-.07-.51-.15-.66-.07-.22-.07-.44-.15-.88-.15-.44-.44-.73-.73-.73h-.15c-.15.22-.29.37-.22.73Zm-2.64-1.03c.15.37.29.66.44,1.03.15.29.29.59.37.88.15.44.37.59.59.59h.07c.15-.07.29-.22.22-.51,0-.15-.07-.22-.07-.44-.07-.44-.22-1.03-.51-1.91-.22-.73-.59-.73-.73-.73s-.29.15-.37.29c-.07.22-.07.51,0,.81Zm-2.42-.81c.15.29.22.59.37.81.15.37.37.66.51,1.03.15.29.29.44.51.44h.07c.15-.07.29-.29.22-.66-.07-.22-.07-.37-.15-.51-.07-.29-.22-.66-.37-1.25-.22-.59-.59-.73-.81-.66-.15.07-.22.15-.29.29-.22.15-.22.29-.07.51Zm-1.1-.22c-.22-.51-.51-.59-.66-.59h0c-.15,0-.29.07-.37.22-.15.22-.15.51,0,.73.15.29.29.59.44.81.15.29.37.59.51.95s.37.44.44.44h.15c.22-.07.37-.37.22-.66v-.07c-.15-.44-.29-.95-.73-1.83Zm-4.47,2.71c.22.37.51.73.73,1.1.15.22.29.44.44.59.15.22.29.29.37.29s.15,0,.15-.07c.15-.07.29-.37.07-.73-.15-.29-.29-.51-.37-.88-.07-.29-.22-.66-.37-.95-.15-.37-.44-.44-.66-.44h0c-.15,0-.29.07-.37.29-.22.22-.15.51,0,.81Zm2.79.22h.07c.22-.07.29-.37.22-.66,0-.07-.07-.22-.07-.37-.07-.29-.22-.66-.29-1.03-.15-.59-.44-.66-.59-.59-.15,0-.37.15-.44.37-.15.22-.15.44,0,.66s.22.44.37.59c.15.22.22.44.37.73.07.22.22.29.37.29Zm-3.96,2.05c.22.22.44.51.66.73.22.29.51.51.73.81.15.22.29.29.44.29.07,0,.15,0,.15-.07.15-.15.22-.44,0-.73-.15-.15-.22-.37-.44-.59-.22-.29-.51-.73-.88-1.32-.22-.29-.37-.44-.51-.44s-.22.07-.29.15c-.07.29-.07.88.15,1.17Zm-.81,2.42c.37.51.81.88,1.1,1.17.15.15.29.29.37.37.07.15.29.22.44.22.07,0,.15,0,.22-.07.07-.07.29-.22,0-.66-.15-.29-.37-.59-.59-.88-.22-.29-.44-.66-.59-.88-.15-.22-.37-.29-.59-.29h0c-.22,0-.44.15-.44.37-.15.07-.15.37.07.66Zm-10.64-3.3l-.15-.15c-.15-.07-.37-.15-.51-.15s-.29.07-.37.22c-.07.15-.07.37.07.66.22.51.51.95.73,1.47.07.07.07.22.15.29,0,.07.07.15.07.15l.07.07c.07.07.07.15.15.15.15.15.37.29.51.29h.15c.07-.07.29-.22.07-.66-.15-.37-.22-.73-.37-1.03-.07-.29-.15-.51-.29-.88,0-.07-.07-.15-.15-.22-.07-.15-.07-.22-.15-.22Zm3.89,2.27c.07.37.15.66.29.95.07.22.15.37.15.59.07.37.29.44.44.44h0c.22,0,.29-.22.29-.51,0-.51-.07-1.03-.15-1.54h0c-.07-.29-.37-.51-.59-.59-.15,0-.22.07-.37.15-.07,0-.15.15-.07.51Zm-1.83-1.83c-.15,0-.29.07-.37.22-.07.07-.15.29-.07.59.15.37.29.81.51,1.17.15.22.22.44.29.66s.22.29.37.29h.07c.22-.07.37-.29.29-.66v-.07l-.07-.37v-.07c0-.15-.07-.37-.07-.51s-.07-.37-.07-.59c-.07-.22-.22-.44-.44-.51-.07,0-.15-.07-.22-.07-.07-.07-.15-.07-.22-.07q.07,0,0,0h0Zm-5.57.88h0c-.37-.44-.73-.88-1.54-1.32-.22-.07-.37-.15-.59-.15s-.37.07-.44.29.07.44.29.59c.15.07.29.22.44.29.37.22.73.51,1.17.81.22.22.44.22.59.22s.22-.07.22-.07c.15-.15.07-.44-.15-.66Zm1.76.59c.07,0,.15,0,.15-.07.15-.15.15-.44,0-.73-.15-.22-.29-.44-.51-.73-.15-.15-.29-.37-.44-.59-.22-.37-.44-.51-.66-.51h0c-.15,0-.29.07-.37.22-.15.22-.07.66.15.95.44.59.81.88,1.32,1.39.15.07.29.07.37.07Zm9.02,14.16c-.88-2.05-1.39-4.11-1.25-5.65v-.29c0-.07,0-.22.07-.29.07-.51.22-.95.29-1.32.15-.51.22-.95.29-1.39v-.37c0-.59-.29-.66-.37-.66h0c-.07,0-.15.07-.29.15-.15.15-.22.29-.29.51v.07c0,.07,0,.15-.07.15,0,.07,0,.15-.07.15-.15.37-.29.81-.37.95-.07.07-.15.15-.29.15-.22,0-.59-.07-.95-.59-.66-.88-2.35-2.57-2.86-2.93-.22-.15-.44-.29-.66-.29h0c-.15,0-.29.07-.29.07h0c-.07.07-.07.22,0,.37.07.07.07.22.22.29.73.95,1.61,2.49,1.61,3.15,0,.22,0,.37-.07.44s-.22.07-.37.07c-.51,0-.88-.22-1.25-.44-.07,0-.07-.07-.15-.07s-.07-.07-.15-.07-.07-.07-.15-.07c-.15-.07-.37-.15-.59-.22-.66-.15-.81.07-.88.15-.07.22.07.51.37.73.37.22.73.51,1.03.73.07,0,.07.07.15.07s.07.07.15.07c.15.07.29.22.37.29s.15.07.15.15c.07.07.15.07.15.15,2.2,1.69,4.4,3.59,5.35,5.35.29.51.66.95.95.95h.07c.37,0,.22-.37.15-.51Zm15.11-2.35c-.22-1.17-.37-2.27-.44-3.3v-.29c-.07-1.1-.15-2.13-.07-3.01v-.29c.07-1.32.29-2.35.73-3.15.22-.44.22-.88.07-1.1-.07-.07-.15-.15-.22-.15-.22,0-.44.29-.66.81-.22.51-.51.81-.81.81-.22,0-.44-.07-.59-.37-.59-.81-1.69-2.86-1.98-3.81-.15-.37-.29-.59-.51-.66h-.15c-.07,0-.15.07-.22.15-.07.22-.15.51,0,.81.66,2.42.95,3.81.81,4.4-.07.22-.15.37-.29.44s-.29.07-.51-.07c-.44-.22-1.03-.51-1.39-.81-.29-.15-.59-.15-.66,0-.15.15-.07.44.29.73.73.59,1.32,1.17,1.98,1.76.07.07.15.15.15.15.07.07.07.15.15.15.95.95,1.69,1.98,2.27,3.01,0,.07.07.07.07.15s.07.07.07.15c.59,1.1,1.03,2.2,1.32,3.3.07.37.29.66.51.66h.07c-.15.22.07.07,0-.44Zm20.24-3.3v-.29c.51-2.05,1.47-3.67,2.57-5.21.07-.07.07-.15.15-.22.07-.07.07-.15.15-.22.29-.37.51-.73.81-1.1.22-.37.51-.73.73-1.03.59-.81.44-1.1.37-1.25-.15-.15-.51-.15-.88.15-.44.29-.73.51-1.1.73-.07,0-.15.07-.15.07-.07,0-.15.07-.15.07-.07.07-.15.07-.29.15-.73.37-1.25.37-1.61-.07-.44-.59-.95-1.83-1.03-3.08,0-.22,0-.73-.29-.88-.07,0-.07-.07-.15-.07h-.29c-.07,0-.07.07-.15.07-.22.22-.29.66-.29.88-.07,1.25-.59,2.49-1.03,3.08-.37.44-.88.51-1.61.07-.07-.07-.15-.07-.29-.15-.07,0-.15-.07-.15-.07-.07,0-.15-.07-.15-.07-.29-.22-.66-.37-1.1-.73-.37-.29-.73-.37-.88-.15-.15.15-.22.44.37,1.25.29.37.51.73.81,1.1.29.37.51.73.81,1.1.07.07.07.15.15.22.07.07.07.15.15.22,1.1,1.54,2.05,3.15,2.57,5.21v.29c.22,1.03.37,2.05.37,3.3,0,.51.07,1.03.59,1.03s.59-.51.59-1.03c.07-1.32.15-2.35.44-3.37Zm20.39,0c0-.07.07-.07.07-.15s.07-.07.07-.15c.59-1.03,1.39-2.05,2.27-3.01.07-.07.07-.15.15-.15.07-.07.15-.15.15-.15.59-.59,1.25-1.17,1.98-1.76.37-.29.37-.59.29-.73-.15-.22-.44-.22-.66,0-.37.29-.95.59-1.39.81-.22.07-.37.15-.51.07s-.22-.22-.29-.44c-.15-.66.15-2.05.81-4.4.07-.29.07-.59,0-.81-.07-.07-.15-.15-.22-.15h-.15c-.22,0-.37.29-.51.66-.29.95-1.47,3.01-1.98,3.81-.22.29-.37.37-.59.37-.29,0-.59-.37-.81-.81-.22-.51-.44-.81-.66-.81-.07,0-.22,0-.22.15-.15.22-.15.66.07,1.1.37.81.59,1.91.73,3.15v.29c.07.88,0,1.91-.07,3.01v.29c-.07,1.03-.22,2.05-.44,3.3-.07.59.15.66.22.73h.07c.22,0,.37-.22.51-.66.07-1.47.51-2.57,1.1-3.59Zm21.86-2.2c-.07-.15-.22-.29-.88-.15-.22.07-.37.15-.59.22-.07,0-.07.07-.15.07s-.07.07-.15.07-.07.07-.15.07c-.37.22-.73.44-1.25.44-.15,0-.29,0-.37-.07s-.07-.22-.07-.44c.07-.66.88-2.2,1.61-3.15.07-.15.15-.22.22-.37s.07-.22,0-.37h0c-.07-.07-.15-.15-.29-.15s-.44.15-.66.29c-.51.44-2.2,2.05-2.86,2.93-.44.51-.81.59-.95.59s-.29-.07-.29-.15c-.15-.15-.29-.51-.37-.95,0-.07,0-.15-.07-.15,0-.07,0-.15-.07-.15v-.07c-.07-.29-.15-.44-.29-.59-.07-.07-.15-.07-.22-.07h-.07c-.07,0-.37.07-.37.66v.37c0,.44.15.88.29,1.39.07.37.22.81.29,1.32,0,.07,0,.22.07.29v.29c.07,1.54-.37,3.59-1.25,5.65-.07.15-.22.51,0,.66h.07c.29,0,.66-.44.95-.95.95-1.76,3.15-3.67,5.35-5.35.07-.07.15-.07.15-.15.07-.07.15-.07.15-.15.15-.07.29-.22.44-.29.07,0,.07-.07.15-.07s.07-.07.15-.07c.37-.29.73-.51,1.03-.73.37-.29.51-.59.44-.73Zm1.83-7.85c.22-.29.29-.73.15-.95-.07-.15-.22-.22-.37-.22-.22,0-.44.22-.66.51-.15.22-.29.44-.44.59-.22.29-.37.51-.51.73-.15.29-.15.59,0,.73.07,0,.07.07.15.07s.22-.07.37-.15c.59-.44.88-.73,1.32-1.32Zm2.64-.22c-.07-.15-.22-.29-.44-.29-.15,0-.37.07-.59.15-.88.44-1.17.81-1.54,1.25h0c-.22.22-.22.51-.07.73,0,0,.15.07.22.07.15,0,.29-.07.59-.22.37-.29.81-.59,1.17-.81.15-.07.29-.22.44-.29.15-.15.29-.37.22-.59Zm-47.68-26.77c.88,0,1.69-.73,1.69-1.61s-.73-1.61-1.69-1.61c-.88,0-1.69.73-1.69,1.61,0,.95.73,1.61,1.69,1.61Zm1.76,2.05v-.15c0-.15-.07-.22-.07-.37-.29-.66-.88-1.1-1.69-1.1-.73,0-1.39.44-1.69,1.1-.07.15-.07.22-.07.37v.29h0v.29c.15.73.73,1.32,1.47,1.47h.59c.73-.15,1.32-.73,1.47-1.47v-.29h0q0-.07,0-.15Zm-1.47,2.35h-.59c-.95.15-1.69.95-1.69,1.91s.73,1.76,1.69,1.91h.59c.95-.15,1.69-.95,1.69-1.91-.07-.95-.81-1.76-1.69-1.91Zm-.15,4.25h-.44c-1.1.15-1.98,1.03-1.98,2.2,0,1.1.88,2.05,1.98,2.2h.59c1.1-.15,1.98-1.03,1.98-2.2,0-1.1-.88-2.05-1.98-2.2h-.15Zm-.44,9.61h.59c1.25-.15,2.2-1.17,2.2-2.42s-.95-2.27-2.2-2.42h-.59c-1.25.15-2.2,1.17-2.2,2.42s.95,2.27,2.2,2.42Z"/>
      <path class="cls-2" d="m107.87,67.8c1.47,0,2.71-1.17,2.71-2.64s-1.17-2.64-2.71-2.64-2.71,1.17-2.71,2.64c0,1.47,1.25,2.64,2.71,2.64Zm0-4.91c1.32,0,2.35,1.03,2.35,2.27s-1.03,2.27-2.35,2.27-2.35-1.03-2.35-2.27c0-1.25,1.03-2.27,2.35-2.27Zm-5.72,3.52c1.47,0,2.71-1.17,2.71-2.64s-1.17-2.64-2.71-2.64-2.71,1.17-2.71,2.64,1.17,2.64,2.71,2.64Zm2.35-2.64c0,1.25-1.03,2.27-2.35,2.27s-2.35-1.03-2.35-2.27,1.03-2.27,2.35-2.27c1.25,0,2.35,1.03,2.35,2.27Zm-8.14,1.69c1.47,0,2.71-1.17,2.71-2.64s-1.17-2.64-2.71-2.64-2.71,1.17-2.71,2.64,1.25,2.64,2.71,2.64Zm0-4.91c1.32,0,2.35,1.03,2.35,2.27s-1.03,2.27-2.35,2.27-2.35-1.03-2.35-2.27,1.03-2.27,2.35-2.27Zm-5.79,4.33c1.47,0,2.71-1.17,2.71-2.64s-1.17-2.64-2.71-2.64-2.71,1.17-2.71,2.64c.07,1.47,1.25,2.64,2.71,2.64Zm0-4.91c1.32,0,2.35,1.03,2.35,2.27s-1.03,2.27-2.35,2.27-2.35-1.03-2.35-2.27,1.1-2.27,2.35-2.27Zm-5.65,5.28c1.47,0,2.71-1.17,2.71-2.64s-1.17-2.64-2.71-2.64-2.71,1.17-2.71,2.64c0,1.47,1.25,2.64,2.71,2.64Zm0-4.99c1.32,0,2.35,1.03,2.35,2.27s-1.03,2.27-2.35,2.27-2.35-1.03-2.35-2.27c0-1.25,1.1-2.27,2.35-2.27Zm-5.35,6.75c1.47,0,2.71-1.17,2.71-2.64s-1.17-2.64-2.71-2.64-2.71,1.17-2.71,2.64,1.17,2.64,2.71,2.64Zm0-4.91c1.32,0,2.35,1.03,2.35,2.27s-1.03,2.27-2.35,2.27-2.35-1.03-2.35-2.27,1.03-2.27,2.35-2.27Zm-4.55,8.22c1.47,0,2.71-1.17,2.71-2.64s-1.17-2.64-2.71-2.64-2.71,1.17-2.71,2.64c0,1.47,1.25,2.64,2.71,2.64Zm0-4.91c1.32,0,2.35,1.03,2.35,2.27s-1.03,2.27-2.35,2.27-2.35-1.03-2.35-2.27c0-1.25,1.03-2.27,2.35-2.27Zm-3.23,9.46c1.47,0,2.71-1.17,2.71-2.64s-1.17-2.64-2.71-2.64-2.71,1.17-2.71,2.64c0,1.47,1.25,2.64,2.71,2.64Zm0-4.91c1.32,0,2.35,1.03,2.35,2.27s-1.03,2.27-2.35,2.27-2.35-1.03-2.35-2.27c0-1.25,1.03-2.27,2.35-2.27Zm-1.54,10.34c1.47,0,2.71-1.17,2.71-2.64s-1.17-2.64-2.71-2.64-2.71,1.17-2.71,2.64c0,1.39,1.17,2.64,2.71,2.64Zm2.35-2.64c0,1.25-1.03,2.27-2.35,2.27s-2.35-1.03-2.35-2.27,1.03-2.27,2.35-2.27c1.25-.07,2.35.95,2.35,2.27Zm-2.35,2.93c-1.47,0-2.71,1.17-2.71,2.64s1.17,2.64,2.71,2.64,2.71-1.17,2.71-2.64-1.17-2.64-2.71-2.64Zm0,4.91c-1.32,0-2.35-1.03-2.35-2.27s1.03-2.27,2.35-2.27,2.35,1.03,2.35,2.27-1.03,2.27-2.35,2.27Zm-1.54,3.15c0,1.47,1.17,2.64,2.71,2.64s2.71-1.17,2.71-2.64-1.17-2.64-2.71-2.64-2.71,1.17-2.71,2.64Zm2.64,2.27c-1.32,0-2.35-1.03-2.35-2.27s1.03-2.27,2.35-2.27,2.35,1.03,2.35,2.27-1.03,2.27-2.35,2.27Zm54.5-25.75c0,1.47,1.17,2.64,2.71,2.64s2.71-1.17,2.71-2.64-1.17-2.64-2.71-2.64c-1.54,0-2.71,1.17-2.71,2.64Zm2.71-2.27c1.32,0,2.35,1.03,2.35,2.27s-1.03,2.27-2.35,2.27-2.35-1.03-2.35-2.27,1.03-2.27,2.35-2.27Zm5.72,3.52c1.47,0,2.71-1.17,2.71-2.64s-1.17-2.64-2.71-2.64-2.71,1.17-2.71,2.64,1.25,2.64,2.71,2.64Zm2.35-2.64c0,1.25-1.03,2.27-2.35,2.27s-2.35-1.03-2.35-2.27,1.03-2.27,2.35-2.27,2.35,1.03,2.35,2.27Zm3.45,1.69c1.47,0,2.71-1.17,2.71-2.64s-1.17-2.64-2.71-2.64-2.71,1.17-2.71,2.64,1.17,2.64,2.71,2.64Zm0-4.91c1.32,0,2.35,1.03,2.35,2.27s-1.03,2.27-2.35,2.27-2.35-1.03-2.35-2.27,1.03-2.27,2.35-2.27Zm5.72,4.33c1.47,0,2.71-1.17,2.71-2.64s-1.17-2.64-2.71-2.64-2.71,1.17-2.71,2.64,1.25,2.64,2.71,2.64Zm0-4.91c1.32,0,2.35,1.03,2.35,2.27s-1.03,2.27-2.35,2.27-2.35-1.03-2.35-2.27,1.03-2.27,2.35-2.27Zm5.65,5.28c1.47,0,2.71-1.17,2.71-2.64s-1.17-2.64-2.71-2.64-2.71,1.17-2.71,2.64c.07,1.47,1.25,2.64,2.71,2.64Zm0-4.99c1.32,0,2.35,1.03,2.35,2.27s-1.03,2.27-2.35,2.27-2.35-1.03-2.35-2.27,1.1-2.27,2.35-2.27Zm5.43,6.75c1.47,0,2.71-1.17,2.71-2.64s-1.17-2.64-2.71-2.64-2.71,1.17-2.71,2.64,1.17,2.64,2.71,2.64Zm0-4.91c1.32,0,2.35,1.03,2.35,2.27s-1.03,2.27-2.35,2.27-2.35-1.03-2.35-2.27,1.03-2.27,2.35-2.27Zm1.83,5.57c0,1.47,1.17,2.64,2.71,2.64s2.71-1.17,2.71-2.64-1.17-2.64-2.71-2.64-2.71,1.17-2.71,2.64Zm2.71-2.27c1.32,0,2.35,1.03,2.35,2.27s-1.03,2.27-2.35,2.27-2.35-1.03-2.35-2.27c0-1.25,1.03-2.27,2.35-2.27Zm.51,6.82c0,1.47,1.17,2.64,2.71,2.64s2.71-1.17,2.71-2.64-1.17-2.64-2.71-2.64-2.71,1.17-2.71,2.64Zm2.71-2.27c1.32,0,2.35,1.03,2.35,2.27s-1.03,2.27-2.35,2.27-2.35-1.03-2.35-2.27,1.03-2.27,2.35-2.27Zm-1.17,7.7c0,1.47,1.17,2.64,2.71,2.64s2.71-1.17,2.71-2.64-1.17-2.64-2.71-2.64c-1.47,0-2.71,1.17-2.71,2.64Zm2.71,2.27c-1.32,0-2.35-1.03-2.35-2.27s1.03-2.27,2.35-2.27,2.35,1.03,2.35,2.27-1.1,2.27-2.35,2.27Zm2.64,3.23c0-1.47-1.17-2.64-2.71-2.64s-2.71,1.17-2.71,2.64,1.17,2.64,2.71,2.64,2.71-1.17,2.71-2.64Zm-2.71,2.35c-1.32,0-2.35-1.03-2.35-2.27s1.03-2.27,2.35-2.27,2.35,1.03,2.35,2.27-1.03,2.27-2.35,2.27Zm-3.81,3.15c0,1.47,1.17,2.64,2.71,2.64s2.71-1.17,2.71-2.64-1.17-2.64-2.71-2.64-2.71,1.17-2.71,2.64Zm2.71,2.27c-1.32,0-2.35-1.03-2.35-2.27s1.03-2.27,2.35-2.27,2.35,1.03,2.35,2.27-1.03,2.27-2.35,2.27Zm5.28,3.45c-2.71-2.13-5.94-3.15-9.02-3.01,1.25-3.59,2.05-7.33,2.05-11.66,0-7.11-5.65-14.67-16.14-14.67-6.82,0-13.79,1.76-20.02,3.23-1.32.29-2.49.59-3.74.88v-.15c1.1-.29,1.98-1.32,1.98-2.49,0-1.47-1.17-2.64-2.71-2.64-.37,0-.73.07-1.03.22,1.17-.95,1.91-2.42,1.91-4.03,0-2.27-1.47-4.18-3.45-4.99l.73-1.32v-.15l-2.13-3.96c.66-.22,1.17-.66,1.39-1.32l3.08,1.91h.15l4.18-2.57c.07,0,.07-.07.07-.15s0-.15-.07-.15l-4.18-2.57h-.15l-3.15,1.98c-.22-.59-.81-1.03-1.39-1.25l2.2-4.03v-.15l-2.64-4.84c-.07-.07-.22-.07-.29,0l-2.64,4.84v.15l2.2,4.03c-.66.15-1.17.59-1.39,1.25l-3.15-1.98h-.15l-4.18,2.57c-.07,0-.07.07-.07.15s0,.15.07.15l4.18,2.57h.15l3.08-1.91c.22.59.73,1.1,1.39,1.32l-2.13,3.96v.15l.73,1.32c-2.05.81-3.45,2.71-3.45,4.99,0,1.61.73,3.08,1.91,4.03-.29-.15-.66-.22-1.03-.22-1.47,0-2.71,1.17-2.71,2.64,0,1.17.81,2.2,1.98,2.49v.15c-1.17-.29-2.42-.59-3.74-.88-6.16-1.54-13.13-3.23-20.02-3.23-10.49,0-16.14,7.56-16.14,14.67,0,4.33.81,8.07,2.05,11.66-3.08-.15-6.31.88-9.02,3.01-.07,0-.07.07-.07.15s0,.07.07.15c3.3,2.64,5.57,8.22,7.78,13.64,1.83,4.4,3.52,8.66,5.79,11.37,0,.07.07.07.15.07h0c.44,1.98,8,3.37,11.3,3.96,7.56,1.25,17.16,1.91,27.14,1.91s19.58-.66,27.14-1.91c3.3-.51,10.86-1.98,11.3-3.96h0q.07,0,.15-.07c2.2-2.71,3.96-6.89,5.79-11.37,2.2-5.43,4.55-11,7.78-13.64.07,0,.07-.07.07-.15.15-.07.15-.15.07-.15Zm-8.07,13.79c-1.76,4.33-3.45,8.44-5.57,11.15-.15-.51-.88-1.03-2.13-1.47l.44-1.47c0-.07,0-.15-.07-.15s-.15,0-.15.07l-.44,1.47c-.51-.15-1.1-.29-1.76-.44l.44-1.54c0-.07,0-.15-.07-.15s-.15,0-.15.07l-.44,1.54c-.59-.15-1.17-.22-1.83-.37l.29-1.47c0-.07,0-.15-.07-.15s-.15,0-.15.07l-.29,1.47c-.59-.07-1.17-.22-1.83-.29l.29-1.54c0-.07,0-.15-.07-.15s-.15,0-.15.07l-.29,1.54c-.73-.07-1.47-.22-2.27-.29l.22-1.54c0-.07,0-.15-.07-.15s-.15,0-.15.07l-.22,1.54c-.81-.07-1.61-.15-2.49-.22l.22-1.25c0-.07,0-.15-.07-.15s-.15,0-.15.07l-.22,1.25c-.81-.07-1.61-.15-2.49-.22l.22-1.91c0-.07-.07-.15-.15-.15s-.15.07-.15.15l-.22,1.98c-.73-.07-1.47-.07-2.27-.15l.22-1.61c0-.07-.07-.15-.15-.15s-.15.07-.15.15l-.22,1.61c-.73-.07-1.47-.07-2.27-.15l.22-1.83c0-.07-.07-.15-.15-.15s-.15.07-.15.15l-.22,1.83c-.73,0-1.39-.07-2.13-.07l.15-1.98c0-.07-.07-.15-.15-.15s-.15.07-.15.15l-.15,1.98c-.81,0-1.61-.07-2.42-.07l.15-1.91c0-.07-.07-.15-.15-.15s-.15.07-.15.15l-.15,1.91c-.73,0-1.39-.07-2.13-.07l.07-1.98c0-.07-.07-.15-.15-.15s-.15.07-.15.15l-.07,1.98c-.81,0-1.61,0-2.42-.07l.07-2.13c0-.07-.07-.15-.15-.15s-.15.07-.15.15l-.07,2.13h-2.79l.07-2.13c0-.07-.07-.15-.15-.15s-.15.07-.15.15l-.07,2.13h-3.45v-2.35c0-.07-.07-.15-.15-.15s-.15.07-.15.15v2.35h-3.45l-.07-2.13c0-.07-.07-.15-.15-.15s-.15.07-.15.15l.07,2.13h-2.79l-.07-2.13c0-.07-.07-.15-.15-.15s-.15.07-.15.15l.07,2.13c-.81,0-1.61,0-2.42.07l-.07-1.98c0-.07-.07-.15-.15-.15s-.15.07-.15.15l.07,1.98c-.73,0-1.47,0-2.13.07l-.15-1.91c0-.07-.07-.15-.15-.15s-.15.07-.15.15l.15,1.91c-.81,0-1.61.07-2.42.07l-.15-1.98c0-.07-.07-.15-.15-.15s-.15.07-.15.15l.15,1.98c-.73,0-1.47.07-2.13.07l-.22-1.83c0-.07-.07-.15-.15-.15s-.15.07-.15.15l.22,1.83c-.73,0-1.54.07-2.27.15l-.22-1.61c0-.07-.07-.15-.15-.15s-.15.07-.15.15l.22,1.61c-.73.07-1.54.07-2.27.15l-.22-1.98c0-.07-.07-.15-.15-.15s-.15.07-.15.15l.22,1.91c-.88.07-1.69.15-2.49.22l-.22-1.25c0-.07-.07-.15-.15-.07-.07,0-.15.07-.07.15l.22,1.25c-.88.07-1.69.15-2.49.22l-.22-1.54c0-.07-.07-.15-.15-.07-.07,0-.15.07-.07.15l.22,1.54c-.81.07-1.54.15-2.27.29l-.29-1.54c0-.07-.07-.15-.15-.07-.07,0-.15.07-.07.15l.29,1.54c-.66.07-1.25.15-1.83.29l-.29-1.47c0-.07-.07-.15-.15-.07-.07,0-.15.07-.07.15l.29,1.47c-.66.15-1.25.22-1.83.37l-.44-1.54c0-.07-.07-.07-.15-.07s-.07.07-.07.15l.44,1.54c-.66.15-1.25.29-1.76.44l-.44-1.47c0-.07-.07-.07-.15-.07s-.07.07-.07.15l.44,1.47c-1.25.44-1.98.88-2.13,1.47-2.13-2.71-3.81-6.82-5.65-11.15-2.2-5.35-4.47-10.93-7.7-13.64,2.64-2.05,5.79-3.01,8.73-2.79h.44c.29,0,.59.07.88.15h.29c.07,0,.15,0,.22.07.07,0,.15,0,.22.07.07,0,.15,0,.22.07.07,0,.15,0,.22.07,1.32.37,2.49.95,3.52,1.83l.07.07c.07,0,.07.07.15.15.07,0,.07.07.15.15h0c.15.07.22.22.37.29.73.73,1.39,1.54,1.98,2.42.07.07.07.15.15.22.07.07.07.15.15.22.37.66.73,1.39,1.03,2.2,0,.07.15.15.22.07.07,0,.15-.07.15-.15-.37-4.11,1.1-7.63,3.23-9.76.07-.07.15-.15.22-.22.07-.07.15-.07.15-.15l.07-.07.07-.07c.07,0,.07-.07.15-.15.73-.59,1.54-.95,2.35-1.17h.29c.59-.07,1.1-.15,1.69-.07h.29c.07,0,.22,0,.29.07h.37c.81.15,1.54.44,2.35.81.07,0,.07.07.15.07s.07.07.15.07c.81.44,1.61.88,2.35,1.47.07,0,.07.07.15.07s.07.07.15.07c.81.66,1.61,1.32,2.35,2.05q.07.07.15.15t.15.15c.88.88,1.69,1.83,2.35,2.64q.07.07.15.15c.07.07.07.15.15.15.73.95,1.25,1.76,1.54,2.27.07.07.15.07.22.07s.15-.07.15-.15c.07-2.35.59-4.18,1.39-5.57,0-.07.07-.07.07-.15.22-.37.44-.73.66-1.03.29-.37.59-.73.95-1.03q.07-.07.15-.15.07-.07.15-.07c1.17-1.03,2.49-1.61,3.96-2.05.07,0,.15,0,.15-.07.07,0,.15,0,.22-.07.15,0,.22-.07.37-.07h.29c.95-.15,1.98-.29,2.86-.29h.66c.95,0,1.91.07,2.86.29h.29c.15,0,.22.07.37.07.07,0,.15,0,.22.07.07,0,.15,0,.15.07,1.47.37,2.79,1.03,3.96,2.05.07,0,.07.07.15.07q.07.07.15.15c.37.29.66.66.95,1.1.22.29.44.66.66,1.03,0,.07.07.07.07.15.81,1.47,1.25,3.3,1.39,5.57,0,.07.07.15.15.15s.15,0,.22-.07c.29-.51.81-1.32,1.54-2.27q.07-.07.15-.15.07-.07.15-.15c.66-.81,1.47-1.76,2.35-2.64q.07-.07.15-.15.07-.07.15-.15c.73-.73,1.54-1.47,2.35-2.05.07,0,.07-.07.15-.07s.07-.07.15-.07c.73-.59,1.54-1.1,2.35-1.47.07,0,.07-.07.15-.07s.07-.07.15-.07c.73-.37,1.54-.66,2.35-.81h.37c.07,0,.22,0,.29-.07h.29c.59-.07,1.1,0,1.69.07h.22c.81.22,1.61.59,2.35,1.17.07,0,.07.07.15.15h0l.07.07q.07.07.15.15c.07.07.15.15.22.22,2.13,2.05,3.59,5.65,3.23,9.76,0,.07.07.15.15.15s.15,0,.22-.07c.29-.81.66-1.54,1.03-2.2.07-.07.07-.15.15-.22.07-.07.07-.15.15-.22.59-.95,1.25-1.76,1.98-2.42.15-.07.22-.22.37-.29h0q.07-.07.15-.15c.07,0,.07-.07.15-.15l.07-.07c1.03-.81,2.2-1.39,3.52-1.83.07,0,.15,0,.22-.07.07,0,.15,0,.22-.07.07,0,.15,0,.22-.07.07,0,.15,0,.22-.07h.29c.29-.07.59-.07.88-.15h.44c2.93-.15,6.09.81,8.73,2.79-4.11,2.71-6.38,8.29-8.58,13.64Zm-73.13-42.76c6.82,0,13.79,1.76,19.88,3.23,1.32.29,2.57.66,3.74.88,0,.29,0,.59-.07.88v.22h0v.15h0c-.07.59-.07,1.17-.15,1.76-.81-.15-1.69-.37-2.57-.59h-.29c-.73-.22-1.54-.37-2.35-.59h-.29c-.07,0-.15-.07-.22-.07-.66-.15-1.39-.37-2.13-.51h-.29c-.73-.22-1.54-.37-2.35-.59h-.29c-.51-.15-1.1-.22-1.61-.37-.22-.07-.51-.07-.73-.15h-.44c-.51-.07-.95-.15-1.47-.29-.22-.07-.51-.07-.73-.15h-.29c-.81-.15-1.54-.22-2.35-.29h-.29c-.81-.07-1.54-.15-2.35-.15h-.88c-1.61,0-3.08.15-4.4.37-.07,0-.15,0-.22.07-.81.15-1.61.37-2.35.66q-.07,0-.15.07c-.07.07-.07,0-.15.07-.88.29-1.61.73-2.35,1.17-.07,0-.07.07-.15.07h-.07l-.07.07c-.95.66-1.76,1.47-2.35,2.35-.07.07-.07.15-.15.22s-.07.15-.15.22c-.88,1.54-1.32,3.3-1.32,5.35,0,2.93.51,5.72,1.32,8.44.07.15.07.29.15.44s.07.22.15.37c.29.95.66,1.91,1.03,2.86q0,.07.07.15,0,.07.07.15c.22.59.51,1.17.81,1.76-.95-.66-1.98-1.17-3.08-1.47-.15-.07-.29-.07-.44-.15-.07,0-.15,0-.22-.07-.07,0-.15,0-.22-.07h-.37c-.29-.07-.66-.07-.95-.15-1.25-3.59-2.13-7.41-2.13-11.66.44-7.33,5.94-14.67,16.21-14.67Zm24.06,3.89v-.22l.44.07,2.71.44c-.07.37-.07.73-.15,1.17v.29c-.07.88-.22,1.83-.29,2.93-.15,1.76-.37,3.67-.59,5.72-.07.59-.15,1.17-.22,1.83-.07.51-.15,1.03-.22,1.54-.22,1.54-.51,3.15-.81,4.62-1.54.44-2.93,1.03-4.03,1.98l-.07.07h0q-.07.07-.15.15c-.15.15-.29.29-.44.44.15-.37.29-.73.44-1.1.07-.15.07-.22.15-.37.07-.15.07-.22.15-.37,1.69-4.77,2.49-10.27,2.93-15.55v-.29c.07-.59.07-1.17.15-1.76v-.37h0c0-.29.07-.59.07-.88v-.15c-.07-.07-.07-.15-.07-.22Zm.37-5.06c1.32,0,2.35,1.03,2.35,2.27s-1.03,2.2-2.27,2.27l-.59-.07h-.07c-1.03-.29-1.76-1.17-1.76-2.2,0-1.25,1.03-2.27,2.35-2.27Zm-.51-4.18c0-.44.07-.88.15-1.25,1.17-.22,2.42-.29,3.67-.37.07,0,.15-.07.15-.15v-3.23c.37-.07.81-.15,1.25-.15s.81.07,1.25.15v3.15c0,.07.07.15.15.15,1.25.07,2.42.15,3.67.37.07.37.15.81.15,1.25,0,.37-.07.73-.15,1.1-1.69-.29-3.37-.37-5.06-.37s-3.37.15-4.99.37c-.15-.29-.22-.66-.22-1.03Zm3.37-12.1v-.66c0-.07,0-.15.07-.15,0-.07,0-.15.07-.15.22-.51.66-.95,1.25-1.1h.88c.59.15,1.1.59,1.25,1.1,0,.07.07.15.07.15,0,.07,0,.15.07.15v.66c0,.07,0,.15-.07.15-.22.59-.66,1.03-1.25,1.17-.07,0-.15,0-.15.07h-.59c-.07,0-.15,0-.15-.07-.59-.15-1.1-.59-1.25-1.17-.15,0-.15-.07-.22-.15Zm-7.26-.44l3.81-2.35,3.15,1.98c-.07.15-.07.29-.07.51,0,.15,0,.29.07.37l-3.08,1.91-3.89-2.42Zm9.1-10.56l2.42,4.47-2.2,4.03h-.44l-2.2-4.03,2.42-4.47Zm9.02,10.56l-3.81,2.35-3.08-1.91c0-.15.07-.22.07-.37s0-.29-.07-.51l3.15-1.98,3.74,2.42Zm-9.02,2.2h.29l2.13,3.96-.73,1.32c-.51-.15-1.1-.29-1.69-.29s-1.17.07-1.69.29l-.73-1.32,2.13-3.96h.29Zm1.47,6.38v-.88h.07c.07,0,.07.07.15.07s.07.07.15.07c1.47.59,2.57,1.76,3.08,3.15-1.17-.15-2.27-.29-3.45-.37v-2.05Zm-3.23-.81c.07,0,.07-.07.15-.07h.07v2.93c-1.17.07-2.27.15-3.45.37.44-1.47,1.61-2.64,3.01-3.15.15,0,.22-.07.22-.07Zm1.76,5.72c1.61,0,3.3.15,4.99.37-.59,2.13-2.64,3.67-4.99,3.67s-4.33-1.54-4.99-3.67c1.61-.22,3.3-.37,4.99-.37Zm0,7.85c-.88,0-1.69-.73-1.69-1.61s.73-1.61,1.69-1.61c.88,0,1.69.73,1.69,1.61-.07.95-.81,1.61-1.69,1.61Zm5.06.44v.29c0,.29,0,.59.07.88h0v.37c.07.59.07,1.17.15,1.76v.29c.44,5.28,1.25,10.78,2.93,15.55.07.15.07.22.15.37s.07.22.15.37c.15.37.29.73.44,1.17-.15-.15-.29-.29-.44-.44q-.07-.07-.15-.15h0l-.07-.07c-1.1-.88-2.49-1.54-4.03-1.98-.29-1.54-.59-3.08-.81-4.62-.07-.51-.15-1.03-.22-1.54-.07-.59-.15-1.17-.22-1.83-.22-2.05-.44-4.03-.59-5.79-.07-1.1-.22-2.05-.29-2.93v-.29c-.07-.44-.07-.81-.15-1.17l2.71-.44.44-.07v.07q-.07.15-.07.22Zm4.11-.66c6.16-1.54,13.13-3.23,19.88-3.23,10.27,0,15.77,7.33,15.77,14.3,0,4.33-.81,8.07-2.13,11.66-.37,0-.66.07-.95.15h-.37c-.07,0-.15,0-.22.07-.07,0-.15,0-.22.07-.15.07-.29.07-.44.15-1.1.29-2.13.81-3.08,1.47.29-.59.51-1.17.81-1.69q0-.07.07-.15,0-.07.07-.15c.37-.95.73-1.83,1.03-2.86.07-.15.07-.22.15-.37.07-.15.07-.29.15-.44.81-2.71,1.32-5.5,1.32-8.44,0-2.05-.44-3.89-1.32-5.35-.07-.07-.07-.15-.15-.22-.07-.07-.07-.15-.15-.22-.59-.88-1.39-1.69-2.35-2.35l-.07-.07h-.07c-.07,0-.07-.07-.15-.07-.66-.44-1.47-.88-2.35-1.17q-.07,0-.15-.07-.07,0-.15-.07c-.73-.29-1.54-.44-2.35-.66-.07,0-.15,0-.22-.07-1.32-.22-2.86-.37-4.4-.37h-.88c-.81,0-1.54.07-2.35.15h-.29c-.81.07-1.54.15-2.35.29h-.29c-.22.07-.51.07-.73.15-.51.07-.95.15-1.47.29h-.44c-.22.07-.51.07-.73.15-.51.15-1.1.22-1.61.37h-.29c-.81.15-1.54.37-2.35.59h-.29c-.73.15-1.39.37-2.13.51-.07,0-.15.07-.22.07h-.29c-.81.22-1.61.37-2.35.59h-.29c-.88.22-1.76.44-2.57.59-.07-.59-.07-1.17-.15-1.76h0v-.15h0v-.22c0-.29,0-.59-.07-.88,1.61.07,2.86-.22,4.18-.59Zm-48.85,17.82c-.59-2.35-1.03-4.69-1.03-7.19,0-1.91.37-3.45,1.03-4.69v11.88Zm.22-12.4c.59-1.1,1.39-1.91,2.35-2.64v20.54c-.22-.22-.51-.37-.73-.66l-.07-.07h-.07c-.51-1.32-1.03-2.64-1.47-3.96v-13.2Zm7.56,17.16c-.73.51-1.54.95-2.35,1.25v-22.52c.73-.29,1.54-.51,2.35-.66v21.93Zm-2.57,1.25c-.37.07-.66.15-1.03.07-.51,0-.95-.15-1.32-.44v-20.83c.73-.51,1.54-.88,2.35-1.25,0,0,0,22.44,0,22.44Zm4.4-2.79q-.07,0,0,0c-.44.44-.95.88-1.54,1.32v-21.78c.81-.15,1.61-.22,2.35-.29v20.1c-.29.15-.51.37-.81.66h0Zm1.03-20.76c.66-.07,1.25-.07,1.76-.07h.59v18.85c-.81.15-1.61.51-2.35,1.1,0,0,0-19.88,0-19.88Zm2.57-.07c.81,0,1.54.07,2.35.15v18.7c-.81-.15-1.54-.15-2.35,0v-18.85Zm3.08.22l.07.07c.51.07,1.17.22,1.76.37v18.56c-.73-.15-1.47-.29-2.2-.44h-.15v-18.63c.22,0,.37.07.51.07Zm2.13.51c.73.22,1.54.44,2.35.73v18.34c-.07,0-.15-.07-.22-.07-.66-.15-1.39-.37-2.13-.51v-18.48Zm2.64.88c.73.29,1.54.66,2.35,1.03v17.82c-.73-.15-1.54-.37-2.35-.59v-18.26Zm2.57,1.17c.81.37,1.61.81,2.35,1.32v16.8c-.73-.07-1.54-.15-2.35-.29v-17.82Zm2.64,1.39c.81.51,1.61,1.1,2.35,1.69v14.6c-.73.29-1.47.37-2.35.37v-16.65Zm2.57,1.98c.88.73,1.61,1.54,2.27,2.42,0,.07.07.07.07.15v9.32c-.51.95-1.1,1.61-1.76,2.05-.15.15-.37.22-.59.29v-14.23h0Zm2.57,2.93c.95,1.61,1.32,3.23,1.03,4.91-.29,1.39-.59,2.57-1.03,3.52v-8.44Zm8.22,9.17h-.29c-1.25-.15-2.2-1.17-2.2-2.42s.95-2.27,2.2-2.42h.59c1.25.15,2.2,1.17,2.2,2.42s-.95,2.27-2.2,2.42h-.29c.07,0,.07.07,0,0,.07.07,0,0,0,0Zm-.22-13.86h.59c.95.15,1.69.95,1.69,1.91s-.73,1.76-1.69,1.91h-.59c-.95-.15-1.69-.95-1.69-1.91s.73-1.76,1.69-1.91Zm0,4.25h.59c1.1.15,1.98,1.03,1.98,2.2,0,1.1-.88,2.05-1.98,2.2h-.59c-1.1-.15-1.98-1.03-1.98-2.2s.88-2.05,1.98-2.2Zm2.05-6.67v.29h0v.29c-.15.73-.73,1.32-1.47,1.47h-.59c-.73-.15-1.32-.73-1.47-1.47v-.29h0v-.29c0-.15.07-.22.07-.37.29-.66.88-1.1,1.69-1.1.73,0,1.39.44,1.69,1.1,0,.07,0,.22.07.37Zm22-1.83v18.63h-.15c-.73.15-1.47.29-2.2.44v-18.56c.66-.15,1.25-.29,1.76-.37q.07,0,.07-.07c.22,0,.37-.07.51-.07Zm-2.57,19.14c-.73.15-1.39.37-2.13.51-.07,0-.15.07-.22.07v-18.34c.81-.29,1.61-.59,2.35-.81v18.56Zm-12.76-10.56c0-.07.07-.07.07-.15.59-.88,1.39-1.69,2.27-2.42v14.3c-.22-.07-.37-.15-.51-.29-.73-.44-1.32-1.17-1.76-2.05v-9.39h-.07Zm2.64-2.79c.73-.59,1.54-1.17,2.35-1.69v16.65c-.88,0-1.61-.07-2.35-.37v-14.6Zm2.57-1.91c.73-.44,1.54-.88,2.35-1.32v17.75c-.81.15-1.61.29-2.35.29v-16.72Zm2.64-1.39c.81-.37,1.54-.73,2.35-1.03v18.34c-.81.22-1.61.37-2.35.59v-17.9Zm-8.07,6.45v8.44c-.44-.95-.81-2.13-1.03-3.52-.29-1.61,0-3.3,1.03-4.91Zm15.84-8.95c.81-.07,1.54-.15,2.35-.15v18.78c-.81-.15-1.54-.15-2.35,0v-18.63Zm2.57-.15h.59c.59,0,1.17,0,1.76.07v19.88c-.73-.51-1.54-.95-2.35-1.1v-18.85Zm2.64.07c.73.07,1.54.15,2.35.29v21.78c-.59-.44-1.1-.95-1.47-1.32h-.15c-.22-.22-.44-.44-.73-.66v-20.1h0Zm10.34,5.57c.59,1.25,1.03,2.79,1.03,4.69,0,2.49-.37,4.91-1.03,7.19v-11.88Zm-.22,12.84c-.44,1.32-.88,2.64-1.47,3.96h-.07q-.07,0-.07.07c-.22.29-.44.51-.73.66v-20.54c.95.66,1.76,1.54,2.35,2.64v13.2h0Zm-2.57,4.84c-.44.22-.88.37-1.32.44-.37,0-.66,0-1.03-.07v-22.44c.81.29,1.61.73,2.35,1.25v20.83Zm-2.64.22c-.81-.22-1.61-.66-2.35-1.25v-21.93c.81.15,1.61.37,2.35.66v22.52Zm-28.9-23.62h-.07l-.59.07c-1.25-.07-2.27-1.03-2.27-2.27s1.03-2.27,2.35-2.27,2.35,1.03,2.35,2.27c-.07,1.03-.81,1.91-1.76,2.2Zm-3.3-2.27c0,1.1.66,2.05,1.69,2.42l-1.98.29c-.07,0-.15.07-.15.22,0,.07,0,.22.07.29-.29-.37-.73-.59-1.17-.73.88-.15,1.54-.95,1.54-1.83s-.66-1.69-1.54-1.83c.81-.07,1.61-.29,2.35-.66-.59.51-.81,1.17-.81,1.83Zm-2.42-1.1c-.88.15-1.54.95-1.54,1.83s.66,1.69,1.54,1.83c-.51.07-.88.37-1.17.73,0-.07,0-.22.07-.29,0-.07-.07-.15-.15-.22l-1.98-.29c.95-.37,1.69-1.32,1.69-2.42,0-.66-.29-1.32-.73-1.76.66.29,1.47.51,2.27.59Zm-42.25,30.59c-.15-.29-.15-.51-.07-.66.07-.15.22-.22.37-.22s.37.07.51.15c.07,0,.07.07.15.15l.15.15c.07.07.07.15.15.22.15.37.22.66.29.88.07.29.22.59.37,1.03.22.51,0,.66-.07.66h-.15c-.15,0-.37-.07-.51-.29l-.15-.15-.07-.07c0-.07-.07-.15-.07-.15-.07-.07-.07-.15-.15-.29-.22-.37-.51-.88-.73-1.39Zm85.89,7.7c.07.22-.07.51-.37.73-.37.22-.66.51-1.03.73-.07,0-.07.07-.15.07s-.07.07-.15.07c-.15.07-.29.22-.44.29-.07.07-.15.07-.15.15-.07.07-.15.07-.15.15-2.2,1.69-4.4,3.59-5.35,5.35-.29.51-.66.95-.95.95h-.07c-.22-.15-.07-.51,0-.66.88-2.05,1.39-4.11,1.25-5.65v-.29c0-.07,0-.22-.07-.29-.07-.51-.22-.95-.29-1.32-.15-.51-.22-.95-.29-1.39v-.37c0-.59.29-.66.37-.66h.07c.07,0,.15.07.22.07.15.15.22.29.29.59v.07c0,.07,0,.15.07.15,0,.07,0,.15.07.15.15.37.29.81.37.95.07.07.15.15.29.15.22,0,.59-.07.95-.59.66-.88,2.35-2.57,2.86-2.93.22-.15.44-.29.66-.29s.29.07.29.15h0c.07.07.07.22,0,.37-.07.07-.07.22-.22.37-.73.95-1.61,2.49-1.61,3.15,0,.22,0,.37.07.44s.22.07.37.07c.51,0,.88-.22,1.25-.44.07,0,.07-.07.15-.07s.07-.07.15-.07.07-.07.15-.07c.15-.07.37-.15.59-.22.59-.22.73,0,.81.15Zm-77.6,7.85c.07.15.22.51,0,.66h-.07c-.29,0-.66-.44-.95-.95-.95-1.76-3.15-3.67-5.35-5.35-.07-.07-.15-.07-.15-.15-.07-.07-.15-.07-.15-.15-.15-.07-.29-.22-.37-.29-.07,0-.07-.07-.15-.07s-.07-.07-.15-.07c-.37-.29-.73-.51-1.03-.73-.37-.22-.51-.51-.37-.73.07-.15.22-.29.88-.15.22.07.44.15.59.22.07,0,.07.07.15.07s.07.07.15.07.07.07.15.07c.37.22.73.44,1.25.44.15,0,.29,0,.37-.07s.07-.22.07-.44c-.07-.66-.88-2.2-1.61-3.15-.07-.15-.15-.22-.22-.29-.07-.15-.07-.29,0-.37h0c.07-.07.15-.15.29-.07h0c.15,0,.44.15.66.29.51.44,2.2,2.05,2.86,2.93.44.51.81.59.95.59s.29-.07.29-.15c.15-.15.29-.51.37-.95,0-.07,0-.15.07-.15,0-.07,0-.15.07-.15v-.07c.07-.22.15-.44.29-.51.07-.07.15-.15.29-.15h0c.07,0,.37.07.37.66v.37c0,.44-.15.88-.29,1.39-.07.37-.22.81-.29,1.32,0,.07,0,.22-.07.29v.29c-.22,1.39.22,3.45,1.1,5.5Zm-8.88-14.23c-.07,0-.07.07-.15.07s-.22-.07-.37-.15c-.59-.51-.88-.81-1.32-1.39-.22-.29-.29-.73-.15-.95.07-.15.22-.22.37-.22h0c.22,0,.44.22.66.51.15.22.29.44.44.59.22.29.37.51.51.73.22.37.22.73,0,.81Zm86.99-1.47c.15-.15.29-.37.44-.59.22-.37.44-.51.66-.51.15,0,.29.07.37.22.15.22.07.66-.15.95-.44.59-.81.88-1.32,1.39-.15.15-.29.15-.37.15s-.15,0-.15-.07c-.15-.15-.15-.44,0-.73.15-.29.29-.51.51-.81Zm1.39.88c.37-.44.66-.81,1.54-1.25.22-.07.37-.15.59-.15s.37.07.44.29-.07.44-.29.59c-.15.07-.29.22-.44.29-.37.22-.73.51-1.17.81-.22.22-.44.22-.59.22s-.22-.07-.22-.07c-.07-.15-.07-.44.15-.73h0Zm-90.29.07c.22.22.22.51.07.73,0,0-.15.07-.22.07-.15,0-.29-.07-.59-.22-.37-.29-.81-.59-1.17-.81-.15-.07-.29-.22-.44-.29-.22-.15-.37-.37-.29-.59.07-.15.22-.29.44-.29.15,0,.37.07.59.15.95.37,1.25.81,1.61,1.25h0Zm43.5-6.45c-.07-.29.07-.51.15-.59.15-.15.29-.22.44-.22s.37.07.44.22c.15.15.22.37.22.73v.81c0,.51,0,.81-.07,1.25-.07.37-.29.59-.51.59h0c-.15,0-.37-.07-.44-.59-.07-.29-.07-.73-.15-1.1.07-.44,0-.88-.07-1.1Zm-17.38,7.63c.15.22.15.66-.07,1.1-.37.81-.59,1.91-.73,3.15v.29c-.07.88,0,1.91.07,3.01v.29c.07,1.03.22,2.05.44,3.3.07.59-.15.66-.22.73h-.07c-.22,0-.37-.22-.51-.66-.29-1.17-.73-2.27-1.32-3.3,0-.07-.07-.07-.07-.15s-.07-.07-.07-.15c-.59-1.03-1.39-2.05-2.27-3.01-.07-.07-.07-.15-.15-.15-.07-.07-.15-.15-.15-.15-.59-.59-1.25-1.17-1.98-1.76-.37-.29-.37-.59-.29-.73.15-.22.44-.22.66,0,.37.29.95.59,1.39.81.22.07.37.15.51.07s.22-.22.29-.44c.15-.66-.15-2.05-.81-4.4-.07-.29-.07-.59,0-.81.07-.07.15-.15.22-.15h.15c.22,0,.37.29.51.66.29.95,1.47,3.01,1.98,3.81.22.29.37.37.59.37.29,0,.59-.37.81-.81.22-.51.44-.81.66-.81.29-.22.44-.22.44-.15Zm-9.83,1.76c.29.44.07.66,0,.66-.07.07-.15.07-.22.07-.15,0-.29-.07-.44-.22-.07-.07-.22-.22-.37-.37-.29-.29-.73-.66-1.1-1.17-.22-.29-.22-.51-.15-.66.07-.15.22-.29.44-.37h0c.22-.07.51.07.59.29.15.22.37.51.59.88.22.29.44.59.66.88Zm11.88-4.62c.07.44-.07.66-.29.73h-.07c-.15,0-.37-.15-.44-.37-.07-.15-.07-.37-.15-.51-.15-.44-.37-1.1-.44-1.39-.07-.37.07-.59.29-.66h.15c.29,0,.59.29.73.73.07.37.15.66.15.88,0,.07.07.29.07.59Zm-10.27.22c.22.37.15.66-.07.73-.07,0-.07.07-.15.07-.15,0-.29-.07-.37-.29-.07-.15-.22-.37-.44-.59-.22-.37-.51-.73-.73-1.1-.15-.29-.22-.66-.07-.88.07-.15.22-.22.37-.29h0c.22,0,.51.07.66.44s.29.66.37.95c.15.37.29.66.44.95Zm19.58,2.93c.07.22-.07.37-.15.44-.07.07-.15.07-.22.07h-.15c-.22-.07-.37-.29-.44-.51-.07-.51-.22-1.03-.37-1.54l-.07-.29c-.07-.22,0-.37.07-.51s.22-.22.37-.22h.15c.22,0,.44.22.51.59.15.51.22.95.22,1.32,0,.22,0,.44.07.66Zm-18.56-3.96c-.07,0-.29-.07-.37-.37-.15-.29-.29-.51-.37-.73-.07-.15-.22-.37-.37-.59-.07-.22-.07-.44,0-.66s.29-.29.44-.37c.15,0,.44.07.59.59.07.37.22.73.29,1.03,0,.15.07.22.07.37.07.29,0,.59-.22.66,0,.07-.07.07-.07.07Zm5.21-1.91c-.07-.29-.07-.59,0-.81.07-.15.22-.22.37-.29.15,0,.51,0,.73.73.22.81.37,1.39.51,1.91,0,.15.07.29.07.44.07.29-.07.44-.22.51h-.07c-.15,0-.44-.15-.59-.59-.15-.29-.29-.59-.37-.88-.15-.37-.29-.73-.44-1.03Zm-4.55-.66c-.15-.29-.15-.51,0-.73.07-.15.22-.22.37-.22h0c.15,0,.44.07.66.59.44.88.59,1.39.73,1.83v.07c.07.29,0,.59-.22.66h-.15c-.15,0-.29-.07-.44-.44-.15-.37-.37-.66-.51-.95-.15-.22-.29-.51-.44-.81Zm-2.57,5.72c.15.29.15.59,0,.73,0,0-.07.07-.15.07s-.29-.07-.44-.29c-.22-.29-.51-.59-.73-.81-.22-.29-.44-.51-.66-.73-.22-.29-.29-.88-.15-1.1.07-.15.22-.22.29-.15.15,0,.29.15.51.44.37.59.66.95.88,1.32.22.15.37.29.44.51Zm4.69-5.87c-.07-.22-.07-.37,0-.51s.15-.22.29-.29c.29-.07.66.07.81.66.22.59.29.95.37,1.25.07.22.07.37.15.51.15.37,0,.59-.22.66h-.07c-.15,0-.37-.15-.51-.44-.15-.37-.29-.73-.51-1.03-.07-.22-.22-.51-.29-.81Zm16.72,2.05c.15.81.29,1.47.29,1.98,0,.29-.15.59-.37.59h-.07c-.15,0-.29-.07-.44-.44-.07-.44-.22-.73-.37-1.1-.07-.22-.15-.51-.22-.73s0-.44.15-.66c.15-.15.29-.29.51-.29h0c.22,0,.44.29.51.66Zm1.1-2.13c-.07-.37.15-.73.44-.81.15,0,.29,0,.37.07.15.07.22.29.22.73,0,.81-.07,1.61-.07,1.98,0,.29-.22.51-.44.51h0c-.15,0-.29-.15-.29-.44.07-.81-.07-1.54-.22-2.05Zm2.2-.44c0-.22-.07-.44-.07-.59s.07-.22.07-.37c.07-.07.07-.15.15-.22.07-.07.22-.15.37-.15h.15c.15,0,.44.07.44.59.07.88,0,1.54-.07,1.98-.07.29-.29.59-.51.59h0c-.07,0-.37-.07-.44-.59v-.15c0-.37-.07-.66-.15-.95.07,0,.07-.07.07-.15Zm-36.6,5.65c-.07-.29,0-.44.07-.59.07-.15.22-.15.37-.22h.22c.07,0,.15,0,.22.07.22.07.37.22.44.51.07.22.07.44.07.59,0,.22.07.37.07.51v.07l.07.37v.07c0,.37-.15.59-.29.66h-.07c-.15,0-.29-.07-.37-.29-.07-.15-.15-.37-.29-.66-.22-.29-.44-.73-.51-1.1Zm2.27,1.03c-.07-.29,0-.51.07-.59.07-.07.22-.15.37-.15.22,0,.51.22.59.59h0c.07.51.15,1.1.15,1.54,0,.29-.15.51-.29.51h0c-.15,0-.29-.15-.44-.44-.07-.22-.07-.37-.15-.59-.15-.22-.22-.51-.29-.88Zm40.12-5.35c-.07-.44-.15-1.1-.07-1.98,0-.51.29-.59.44-.59h.15c.15,0,.22.07.37.15.07.07.15.15.15.22.07.07.15.22.07.37,0,.22-.07.37-.07.59v.15c-.07.29-.07.59-.15.95v.15c-.07.51-.29.59-.44.59h0c-.15-.07-.37-.29-.44-.59Zm-2.05-1.17v-.81c0-.37.15-.59.22-.73.15-.15.29-.22.44-.22.22,0,.37.07.44.22.07.07.22.29.15.59s-.07.66-.15,1.03c-.07.37-.07.81-.15,1.1-.07.51-.29.59-.44.59h0c-.22,0-.44-.22-.51-.59,0-.37,0-.66,0-1.17Zm40.42,6.45c.15-.37.22-.73.37-1.03.07-.29.15-.51.29-.88,0-.07.07-.15.15-.22q.07-.07.15-.15.07-.07.15-.15c.15-.07.37-.15.51-.15s.29.07.37.22c.07.15.07.37-.07.66-.22.44-.51.95-.73,1.47-.07.07-.07.22-.15.29,0,.07-.07.15-.07.15,0,0,0,.07-.07.07-.07.07-.07.15-.15.15-.15.15-.37.29-.51.29h-.15c-.07-.07-.29-.22-.07-.73Zm-22.37-4.25c-.07.37-.29.95-.44,1.39-.07.22-.15.37-.15.51-.07.29-.29.37-.44.37h-.07c-.22-.07-.37-.29-.29-.73.07-.29.07-.51.15-.66.07-.22.07-.44.15-.88.15-.44.44-.73.73-.73h.15c.15.22.29.37.22.73Zm12.84,4.69c.07.15.07.37-.15.66-.37.51-.81.88-1.1,1.17-.15.15-.29.29-.37.37-.07.15-.29.22-.44.22-.07,0-.15,0-.22-.07s-.29-.22,0-.66c.15-.29.37-.59.59-.88.22-.29.44-.66.59-.88.07-.15.22-.22.44-.29h.15c.22,0,.44.15.51.37Zm-4.84,1.61c.15.15.07.44-.29.73-.73.59-1.32,1.17-1.98,1.76-.07.07-.15.15-.15.15-.07.07-.07.15-.15.15-.95.95-1.69,1.98-2.27,3.01,0,.07-.07.07-.07.15s-.07.07-.07.15c-.59,1.1-1.03,2.2-1.32,3.3-.07.37-.29.66-.51.66h-.07c-.07,0-.29-.15-.22-.73.22-1.17.37-2.27.44-3.3v-.29c.07-1.1.15-2.13.07-3.01v-.29c-.07-1.32-.29-2.35-.73-3.15-.22-.44-.22-.88-.07-1.1.07-.07.15-.15.22-.15.22,0,.44.29.66.81.22.51.51.81.81.81.22,0,.44-.07.59-.37.59-.81,1.69-2.86,1.98-3.81.15-.37.29-.59.51-.66h.15c.07,0,.15.07.22.15.07.22.15.51,0,.81-.66,2.42-.95,3.81-.81,4.4.07.22.15.37.29.44s.29.07.51-.07c.44-.22,1.03-.51,1.39-.81.44.15.73.15.88.29Zm-17.31-3.81c.07.15.15.37.07.51l-.07.29c-.15.51-.29,1.03-.37,1.54-.07.29-.22.44-.44.51h-.15c-.07,0-.22,0-.22-.07-.07-.07-.15-.22-.15-.44.07-.22.07-.44.15-.66.07-.37.15-.81.22-1.32.07-.29.29-.51.51-.59h.15c.07,0,.22.15.29.22Zm10.27-1.61c0-.15.07-.22.07-.44.07-.44.22-1.03.51-1.91.22-.73.59-.73.73-.73s.29.15.37.29c.15.22.15.51,0,.81-.15.37-.29.66-.44,1.03-.15.29-.29.59-.37.88-.15.44-.37.59-.59.59h-.07c-.15-.07-.29-.22-.22-.51Zm-11.44-.37c-.07.22-.15.51-.22.73-.15.37-.22.66-.37,1.1-.07.44-.29.44-.44.44h-.07c-.22-.07-.44-.29-.37-.59,0-.51.15-1.17.29-1.98.07-.37.29-.59.59-.59h0c.15,0,.37.07.51.29.15.15.15.37.07.59Zm20.9,4.03c-.15.22-.29.29-.44.29-.07,0-.15,0-.15-.07-.15-.15-.22-.44,0-.73.15-.15.22-.37.44-.59.22-.29.51-.73.88-1.32.22-.29.37-.44.51-.44h0c.15,0,.22.07.29.15.15.29.15.81-.15,1.1-.22.22-.44.51-.66.73-.22.29-.51.59-.73.88Zm-23.03-1.39c.15.15.22.44-.37,1.25-.22.37-.51.73-.73,1.03-.29.37-.51.73-.81,1.1-.07.07-.07.15-.15.22-.07.07-.07.15-.15.22-1.1,1.54-2.05,3.15-2.57,5.21v.29c-.22,1.03-.37,2.05-.37,3.3,0,.51-.07,1.03-.59,1.03s-.59-.51-.59-1.03c0-1.25-.15-2.35-.37-3.3v-.29c-.51-2.05-1.47-3.67-2.57-5.21-.07-.07-.07-.15-.15-.22-.07-.07-.07-.15-.15-.22-.22-.37-.51-.73-.81-1.1-.29-.37-.51-.73-.81-1.1-.59-.81-.44-1.1-.37-1.25.15-.15.51-.15.88.15.44.29.73.51,1.1.73.07,0,.15.07.15.07.07,0,.15.07.15.07.07.07.15.07.29.15.73.37,1.25.37,1.61-.07.44-.59.95-1.83,1.03-3.08,0-.22,0-.73.29-.88.07,0,.07-.07.15-.07h.29c.07,0,.07.07.15.07.22.22.29.66.29.88.07,1.25.59,2.49,1.03,3.08.37.44.88.51,1.61.07.07-.07.15-.07.29-.15.07,0,.15-.07.15-.07.07,0,.15-.07.15-.07.29-.22.66-.37,1.1-.73.29-.22.66-.29.81-.07Zm22.52-1.32c-.15.22-.29.44-.44.59-.15.22-.29.29-.37.29s-.15,0-.15-.07c-.15-.07-.29-.37-.07-.73.15-.29.29-.51.37-.88.07-.29.22-.66.37-.95.15-.37.44-.44.66-.44.15,0,.29.07.37.29.15.22.07.51-.07.88-.15.22-.37.66-.66,1.03Zm-6.45-1.98c.07-.22.15-.37.15-.51.07-.29.22-.66.37-1.25.15-.37.37-.59.59-.66h.22c.15.07.22.15.29.29s.07.37,0,.51c-.15.29-.22.59-.37.81-.15.37-.37.66-.51,1.03-.15.29-.29.44-.51.44h-.07c-.15-.07-.22-.29-.15-.66Zm-17.24.15c0-.37-.07-1.17-.07-1.98,0-.59.29-.73.44-.81h.22c.29.07.59.44.44.81-.15.59-.29,1.32-.29,1.98,0,.37-.15.44-.29.44h0c-.22.07-.44-.15-.44-.44Zm22.81-.81c-.15.22-.22.44-.37.59-.15.22-.22.44-.37.73s-.29.37-.37.37h-.07c-.22-.07-.29-.37-.22-.66,0-.07.07-.22.07-.29.07-.29.22-.66.29-1.03.15-.59.44-.66.59-.59.15,0,.37.15.44.37.15.07.15.29,0,.51Zm-3.52.59h0c.15-.51.29-.95.73-1.91.22-.51.51-.59.66-.59h0c.15,0,.29.07.37.22.15.22.15.51,0,.73-.15.29-.29.59-.44.81-.15.29-.37.59-.51.95s-.37.44-.44.44h-.15c-.22-.07-.37-.37-.22-.66Zm14.67,4.99v-.07l.07-.37h0c0-.15.07-.37.07-.51s.07-.37.07-.59c.07-.22.22-.44.44-.51.07,0,.15-.07.22-.07h.22c.15,0,.29.07.37.22.07.07.15.29.07.59-.15.37-.29.81-.51,1.17-.15.22-.22.44-.29.66-.07.22-.22.29-.37.29h-.07c-.15-.22-.29-.44-.29-.81Zm-1.98,1.03c0-.51.07-1.03.15-1.54h0c.07-.29.37-.51.59-.59.15,0,.22.07.37.15.07.07.15.29.07.59-.07.37-.15.66-.29.95-.07.22-.15.37-.15.59-.07.37-.29.44-.44.44h0c-.15-.07-.29-.29-.29-.59Z"/>
    </g>
  </g>
</svg>