<?xml version="1.0" encoding="UTF-8"?>
<svg id="Layer_2" data-name="Layer 2" xmlns="http://www.w3.org/2000/svg" viewBox="0 0 520 320">
  <defs>
    <style>
      .cls-1 {
        fill: #a3ab78;
      }

      .cls-1, .cls-2, .cls-3, .cls-4 {
        stroke-width: 0px;
      }

      .cls-3 {
        fill: #00a852;
      }

      .cls-4 {
        fill: #c83a48;
      }
    </style>
  </defs>
  <g id="_500x300_Background" data-name="500x300 Background">
    <rect class="cls-1" width="520" height="320" rx="10" ry="10"/>
  </g>
  <g id="Malawi">
    <g>
      <rect class="cls-2" x="10" y="10" width="500" height="100.02"/>
      <path class="cls-4" d="m9.97,109.95v100.02h500v-100.02H9.97Z"/>
      <g>
        <path class="cls-4" d="m260,59.49c-28.06,0-51.98,17.97-60.83,43h121.66c-8.85-25.02-32.76-43-60.83-43Z"/>
        <path class="cls-4" d="m262.97,28.46c0-3.32-.97-6.5-2.97-6.5-2.21,0-2.97,3.32-2.97,6.5,0,8.02.97,12.03,2.97,23.5,2.07-11.47,2.97-15.55,2.97-23.5Z"/>
        <path class="cls-4" d="m271.34,29.08c.28-3.32-.41-6.57-2.42-6.71-2.21-.21-3.25,3.04-3.53,6.22-.69,7.95-.07,12.03.97,23.71,2.97-11.34,4.29-15.35,4.98-23.23Z"/>
        <path class="cls-4" d="m272.51,53.06c4.01-10.99,5.67-14.86,7.05-22.6.55-3.25.14-6.57-1.8-6.91-2.14-.41-3.53,2.7-4.08,5.88-1.45,7.88-1.18,11.96-1.18,23.64Z"/>
        <path class="cls-4" d="m287.65,32.53c.83-3.18.69-6.57-1.24-7.05-2.14-.55-3.73,2.42-4.56,5.53-2.07,7.74-2.14,11.82-3.18,23.5,4.91-10.65,6.91-14.38,8.99-21.98Z"/>
        <path class="cls-4" d="m295.46,35.23c1.11-3.11,1.31-6.43-.62-7.12-2.07-.76-3.94,2.07-5.05,5.12-2.76,7.53-3.18,11.61-5.25,23.09,5.94-10.09,8.23-13.62,10.92-21.08Z"/>
        <path class="cls-4" d="m303.06,38.69c1.38-2.97,1.87-6.29,0-7.19-2-.9-4.15,1.73-5.46,4.63-3.39,7.26-4.15,11.27-7.19,22.6,6.71-9.54,9.33-12.86,12.65-20.05Z"/>
        <path class="cls-4" d="m310.39,42.76c1.66-2.83,2.42-6.15.62-7.12-1.94-1.11-4.22,1.38-5.88,4.15-4.01,6.91-5.12,10.92-9.12,21.84,7.53-8.99,10.37-12.03,14.38-18.87Z"/>
        <path class="cls-4" d="m317.24,47.47c1.87-2.7,2.9-5.88,1.24-7.05-1.8-1.24-4.35.97-6.22,3.59-4.56,6.57-6.08,10.44-10.99,20.94,8.29-8.23,11.47-10.99,15.97-17.49Z"/>
        <path class="cls-4" d="m306.31,68.82c8.99-7.53,12.3-10.02,17.42-16.11,2.14-2.56,3.39-5.6,1.87-6.91-1.66-1.38-4.42.62-6.5,3.04-5.12,6.15-6.98,9.88-12.79,19.98Z"/>
        <path class="cls-4" d="m310.94,73.04c9.61-6.71,13.13-8.92,18.73-14.52,2.35-2.35,3.87-5.32,2.49-6.71-1.59-1.59-4.42.21-6.71,2.49-5.67,5.67-7.81,9.19-14.52,18.73Z"/>
        <path class="cls-4" d="m315.16,77.67c10.09-5.81,13.89-7.74,19.91-12.79,2.56-2.14,4.35-4.98,3.04-6.5-1.38-1.66-4.42-.21-6.91,1.87-6.08,5.18-8.5,8.5-16.04,17.42Z"/>
        <path class="cls-4" d="m318.96,82.72c10.58-4.91,14.52-6.5,20.94-10.99,2.7-1.87,4.77-4.56,3.59-6.22-1.24-1.8-4.42-.55-7.05,1.24-6.5,4.56-9.19,7.67-17.49,15.97Z"/>
        <path class="cls-4" d="m348.34,72.97c-1.11-1.94-4.35-.97-7.12.62-6.91,4.01-9.88,6.84-18.87,14.38,10.99-4.01,15-5.18,21.84-9.12,2.9-1.66,5.18-4.15,4.15-5.88Z"/>
        <path class="cls-4" d="m352.49,80.85c-.9-2-4.29-1.31-7.19,0-7.26,3.39-10.44,6.01-20.05,12.65,11.27-3.04,15.41-3.87,22.6-7.19,2.97-1.38,5.46-3.59,4.63-5.46Z"/>
        <path class="cls-4" d="m355.88,89.08c-.76-2.07-4.15-1.66-7.12-.62-7.53,2.76-10.92,5.05-21.08,10.85,11.47-2,15.69-2.49,23.09-5.25,3.11-1.04,5.81-3.11,5.12-4.98Z"/>
        <path class="cls-4" d="m358.57,97.58c-.55-2.14-3.94-2.07-7.05-1.24-6.01,1.59-9.54,3.18-15.83,6.08h16.11c.41-.07.83-.21,1.24-.35,3.18-.76,6.01-2.56,5.53-4.49Z"/>
        <path class="cls-4" d="m161.43,97.58c-.55,2.14,2.42,3.73,5.53,4.56.41.14.83.21,1.24.35h16.18c-6.29-2.97-9.88-4.49-15.83-6.08-3.25-.9-6.57-.76-7.12,1.18Z"/>
        <path class="cls-4" d="m164.12,89.08c-.76,2.07,2.07,3.94,5.12,5.05,7.53,2.76,11.61,3.18,23.09,5.25-10.09-5.88-13.62-8.16-21.08-10.85-3.11-1.18-6.43-1.31-7.12.55Z"/>
        <path class="cls-4" d="m167.51,80.85c-.9,2,1.73,4.15,4.63,5.46,7.26,3.39,11.27,4.15,22.6,7.19-9.54-6.71-12.86-9.33-20.05-12.65-2.97-1.31-6.29-1.8-7.19,0Z"/>
        <path class="cls-4" d="m171.66,72.97c-1.11,1.94,1.38,4.22,4.15,5.88,6.91,4.01,10.92,5.12,21.84,9.12-8.92-7.53-12.03-10.37-18.87-14.38-2.83-1.59-6.15-2.35-7.12-.62Z"/>
        <path class="cls-4" d="m180.02,71.66c6.57,4.56,10.44,6.08,20.94,10.99-8.23-8.29-11.06-11.41-17.56-15.97-2.7-1.87-5.88-2.9-7.05-1.24-1.18,1.87,1.04,4.35,3.66,6.22Z"/>
        <path class="cls-4" d="m184.93,64.88c6.15,5.12,9.82,6.98,19.91,12.79-7.47-8.99-10.02-12.3-16.11-17.42-2.56-2.14-5.6-3.39-6.91-1.87-1.38,1.73.62,4.42,3.11,6.5Z"/>
        <path class="cls-4" d="m209.06,73.04c-6.71-9.61-8.92-13.13-14.52-18.73-2.35-2.35-5.32-3.87-6.71-2.49-1.59,1.59.21,4.42,2.49,6.71,5.67,5.74,9.19,7.81,18.73,14.52Z"/>
        <path class="cls-4" d="m213.69,68.82c-5.81-10.09-7.74-13.89-12.79-19.91-2.14-2.56-4.98-4.35-6.5-3.04-1.66,1.38-.21,4.42,1.87,6.91,5.18,6.08,8.5,8.5,17.42,16.04Z"/>
        <path class="cls-4" d="m218.66,65.02c-4.91-10.58-6.5-14.52-10.99-20.94-1.87-2.7-4.56-4.77-6.22-3.59-1.8,1.24-.55,4.42,1.24,7.05,4.63,6.5,7.74,9.19,15.97,17.49Z"/>
        <path class="cls-4" d="m223.99,61.64c-4.01-10.99-5.18-15-9.12-21.84-1.66-2.83-4.15-5.12-5.88-4.15-1.94,1.11-.97,4.35.62,7.12,4.01,6.91,6.91,9.88,14.38,18.87Z"/>
        <path class="cls-4" d="m229.59,58.73c-3.04-11.27-3.87-15.41-7.19-22.6-1.38-2.97-3.66-5.46-5.46-4.63-2,.9-1.31,4.29,0,7.19,3.39,7.26,5.94,10.44,12.65,20.05Z"/>
        <path class="cls-4" d="m235.39,56.31c-2-11.47-2.49-15.69-5.25-23.09-1.11-3.11-3.18-5.74-5.05-5.12-2.07.76-1.66,4.15-.62,7.12,2.76,7.53,5.12,10.99,10.92,21.08Z"/>
        <path class="cls-4" d="m241.34,54.45c-1.04-11.61-1.11-15.83-3.18-23.5-.83-3.18-2.63-6.01-4.56-5.53-2.14.55-2.07,3.94-1.24,7.05,2.07,7.74,4.08,11.41,8.99,21.98Z"/>
        <path class="cls-4" d="m247.49,53.06c0-11.68.28-15.9-1.11-23.64-.55-3.25-2.14-6.22-4.08-5.88-2.14.41-2.35,3.8-1.8,6.91,1.31,7.88,3.04,11.61,6.98,22.6Z"/>
        <path class="cls-4" d="m253.71,52.24c1.04-11.61,1.66-15.83.97-23.71-.28-3.32-1.59-6.36-3.53-6.22-2.21.21-2.7,3.53-2.42,6.71.62,8.09,2,11.96,4.98,23.23Z"/>
      </g>
      <rect class="cls-3" x="9.97" y="209.98" width="500" height="100.02"/>
    </g>
  </g>
</svg>