<?xml version="1.0" encoding="UTF-8"?>
<svg id="Layer_2" data-name="Layer 2" xmlns="http://www.w3.org/2000/svg" viewBox="0 0 520 320">
  <defs>
    <style>
      .cls-1 {
        fill: #a3ab78;
      }

      .cls-1, .cls-2, .cls-3, .cls-4, .cls-5 {
        stroke-width: 0px;
      }

      .cls-2 {
        fill: #ffd100;
      }

      .cls-3 {
        fill: #dc241f;
      }

      .cls-4 {
        fill: #0035ad;
      }

      .cls-5 {
        fill: #fff;
      }
    </style>
  </defs>
  <g id="_500x300_Background" data-name="500x300 Background">
    <rect class="cls-1" width="520" height="320" rx="10" ry="10"/>
  </g>
  <g id="Malaysia">
    <g>
      <rect class="cls-5" x="10" y="10" width="500" height="300"/>
      <g id="v">
        <rect id="t" class="cls-3" x="10" y="10" width="500" height="21.43"/>
        <rect id="t-2" data-name="t" class="cls-3" x="10" y="52.86" width="500" height="21.43"/>
        <rect id="t-3" data-name="t" class="cls-3" x="10" y="95.71" width="500" height="21.43"/>
        <rect id="t-4" data-name="t" class="cls-3" x="10" y="138.57" width="500" height="21.43"/>
      </g>
      <rect class="cls-3" x="260" y="138.57" width="250" height="21.43"/>
      <polygon class="cls-3" points="10 202.86 510 202.86 510 181.43 260 181.43 10 181.43 10 202.86"/>
      <rect class="cls-3" x="10" y="224.29" width="500" height="21.43"/>
      <rect class="cls-3" x="10" y="267.14" width="500" height="21.43"/>
      <polygon class="cls-4" points="10 10 10 138.57 10 160 10 181.43 260 181.43 260 160 260 138.57 260 10 10 10"/>
    </g>
    <g>
      <path class="cls-2" d="m87.81,136.03c-11.15-9.86-18.18-24.27-18.18-40.31,0-29.68,24.1-53.78,53.78-53.78,7.72,0,15.1,1.63,21.79,4.63-9.95-7.12-22.04-11.32-35.25-11.32-33.37,0-60.47,27.1-60.47,60.47,0,15.52,5.83,29.59,15.44,40.31,11.06,12.35,27.19,20.16,45.03,20.16,13.12,0,25.3-4.2,35.25-11.32-6.69,3-14.07,4.63-21.79,4.63-13.72,0-26.16-5.15-35.6-13.47Z"/>
      <polygon class="cls-2" points="190.48 95.71 219.47 84.48 188.5 86.97 209.78 64.32 182.93 79.93 192.19 50.34 174.87 76.07 170.32 45.37 167.49 65.09 166.2 73.76 165.86 76.07 148.45 50.34 157.8 79.93 130.95 64.32 152.22 86.97 121.17 84.48 150.16 95.71 121.17 106.95 152.22 104.46 130.95 127.11 157.8 111.5 150.08 136.03 148.45 141.09 151.88 136.03 165.86 115.36 166.2 117.67 167.49 126.33 168.86 136.03 170.32 146.15 171.78 136.03 174.87 115.36 188.76 136.03 192.19 141.09 190.65 136.03 182.93 111.5 209.78 127.11 188.5 104.46 219.47 106.95 190.48 95.71"/>
    </g>
  </g>
</svg>