<?xml version="1.0" encoding="UTF-8"?>
<svg id="Layer_2" data-name="Layer 2" xmlns="http://www.w3.org/2000/svg" viewBox="0 0 520 320">
  <defs>
    <style>
      .cls-1 {
        fill: #e60d2e;
      }

      .cls-1, .cls-2, .cls-3, .cls-4, .cls-5, .cls-6, .cls-7, .cls-8, .cls-9 {
        stroke-width: 0px;
      }

      .cls-2 {
        fill: #a3ab78;
      }

      .cls-3 {
        fill: #96877d;
      }

      .cls-5 {
        fill: #f1eeee;
      }

      .cls-6 {
        fill: #ccc;
      }

      .cls-7 {
        fill: #fff;
      }

      .cls-8 {
        fill: #cf142b;
      }

      .cls-9 {
        fill: #d0d0d0;
      }
    </style>
  </defs>
  <g id="_500x300_Background" data-name="500x300 Background">
    <rect class="cls-2" width="520" height="320" rx="10" ry="10"/>
  </g>
  <g id="Malta">
    <g>
      <g id="rect4">
        <rect class="cls-8" x="260" y="10" width="250" height="300"/>
      </g>
      <g id="rect6">
        <rect class="cls-7" x="10" y="10" width="250" height="300"/>
      </g>
    </g>
    <g>
      <g id="path2289">
        <path class="cls-5" d="m66.11,55.74c0,.5-.56.9-1.25.9s-1.25-.4-1.25-.9.56-.9,1.25-.9c.7,0,1.25.41,1.25.9Z"/>
      </g>
      <g id="path2291">
        <path class="cls-1" d="m26.97,51.42v22.73h22.73c0,3.79,3.79,7.57,7.57,7.57v22.73h22.73v-22.72c3.79,0,7.58-3.79,7.58-7.57h22.73v-22.73h-22.73c0-3.79-3.79-7.57-7.58-7.57v-22.73h-22.72v22.73c-3.79,0-7.57,3.79-7.57,7.57h-22.73Z"/>
      </g>
      <g id="path2295">
        <path class="cls-3" d="m28.48,52.93v19.7h22.73c0,3.79,3.79,7.57,7.58,7.57v22.73h19.69v-22.73c3.79,0,7.58-3.79,7.58-7.57h22.73v-19.7h-22.73c0-3.79-3.79-7.57-7.58-7.57v-22.73h-19.69v22.73c-3.79,0-7.58,3.79-7.58,7.57h-22.73Z"/>
      </g>
      <g id="path2297">
        <path class="cls-6" d="m29.24,53.69v18.18h22.73c0,3.79,3.79,7.58,7.57,7.58v22.73h18.18v-22.73c3.79,0,7.57-3.79,7.57-7.58h22.73v-18.18h-22.71c0-3.79-3.79-7.57-7.57-7.57v-22.73h-18.18v22.73c-3.79,0-7.57,3.79-7.57,7.57h-22.73Z"/>
      </g>
      <g id="path2301">
        <path class="cls-3" d="m58.13,45.84c1.33,1.33.97,3.85-.8,5.63-1.78,1.78-4.29,2.13-5.63.8-1.33-1.33-.97-3.85.8-5.63s4.3-2.14,5.63-.8Z"/>
      </g>
      <g id="path2303">
        <path class="cls-9" d="m51.43,49.86l.54-.54,2.14,1.07-1.07-2.14.54-.54,2.14,4.29-4.28-2.15h0Z"/>
      </g>
      <g id="rect2305">
        <rect class="cls-9" x="56.14" y="45.71" width=".76" height="4.55" transform="translate(-17.37 54.02) rotate(-45)"/>
      </g>
      <g id="path2309">
        <path class="cls-3" d="m85.57,52.27c-1.33,1.33-3.85.97-5.63-.8s-2.13-4.29-.8-5.63c1.33-1.33,3.85-.97,5.62.8,1.78,1.78,2.15,4.3.81,5.63Z"/>
      </g>
      <g id="path2311">
        <path class="cls-9" d="m81.56,45.57l.54.54-1.07,2.14,2.14-1.07.54.54-4.29,2.14,2.15-4.28h0Z"/>
      </g>
      <g id="rect2313">
        <rect class="cls-9" x="81.16" y="50.28" width="4.55" height=".76" transform="translate(-11.39 73.83) rotate(-45)"/>
      </g>
      <g id="path2317">
        <path class="cls-3" d="m79.15,79.72c-1.33-1.33-.97-3.85.8-5.63,1.78-1.78,4.29-2.13,5.62-.8,1.33,1.33.97,3.85-.8,5.63-1.77,1.78-4.29,2.14-5.62.8h0Z"/>
      </g>
      <g id="path2319">
        <path class="cls-9" d="m85.84,75.7l-.54.54-2.15-1.07,1.07,2.14-.54.54-2.14-4.29,4.29,2.15h0Z"/>
      </g>
      <g id="rect2321">
        <rect class="cls-9" x="80.37" y="75.3" width=".76" height="4.55" transform="translate(-31.2 79.82) rotate(-45)"/>
      </g>
      <g id="path2325">
        <path class="cls-3" d="m51.7,73.29c1.33-1.33,3.85-.97,5.63.8s2.13,4.29.8,5.63c-1.33,1.33-3.85.97-5.63-.8-1.78-1.78-2.14-4.3-.8-5.63h0Z"/>
      </g>
      <g id="path2327">
        <path class="cls-9" d="m55.72,79.99l-.54-.54,1.07-2.14-2.14,1.07-.54-.54,4.29-2.15-2.15,4.29h0Z"/>
      </g>
      <g id="rect2329">
        <rect class="cls-9" x="51.56" y="74.52" width="4.55" height=".76" transform="translate(-37.2 60.04) rotate(-45.02)"/>
      </g>
      <g id="path2331">
        <path class="cls-3" d="m68.64,78.83c-4.29,0-8.31-1.67-11.34-4.7-3.03-3.03-4.7-7.06-4.7-11.34s1.66-8.31,4.7-11.34,7.06-4.7,11.34-4.7,8.31,1.67,11.34,4.7c3.03,3.03,4.7,7.06,4.7,11.34s-1.66,8.31-4.7,11.34c-3.03,3.03-7.06,4.7-11.34,4.7Zm0-31.83c-4.21,0-8.18,1.64-11.16,4.62-2.98,2.98-4.62,6.94-4.62,11.16s1.64,8.18,4.62,11.16c2.98,2.98,6.94,4.62,11.16,4.62s8.18-1.64,11.16-4.62c2.98-2.98,4.62-6.94,4.62-11.16h0c0-4.21-1.64-8.18-4.62-11.16-2.98-2.98-6.95-4.62-11.16-4.62Z"/>
      </g>
      <g id="path2333">
        <path class="cls-3" d="m68.64,75.04c-3.27,0-6.35-1.27-8.66-3.59-2.31-2.31-3.59-5.39-3.59-8.67s1.27-6.35,3.59-8.67,5.39-3.59,8.66-3.59,6.35,1.27,8.66,3.59c2.31,2.31,3.59,5.39,3.59,8.67h0c0,3.27-1.27,6.35-3.59,8.67-2.31,2.31-5.39,3.59-8.66,3.59Zm0-24.25c-3.21,0-6.22,1.25-8.48,3.51-2.27,2.27-3.51,5.28-3.51,8.49,0,3.21,1.25,6.22,3.51,8.48,2.27,2.27,5.28,3.51,8.48,3.51s6.22-1.25,8.48-3.51,3.51-5.28,3.51-8.48h0c0-3.21-1.25-6.22-3.51-8.49-2.26-2.27-5.28-3.51-8.48-3.51Z"/>
      </g>
      <g id="path2335">
        <path class="cls-4" d="m63.33,75.66c0,.27-.15.52-.38.66s-.52.13-.76,0-.38-.39-.38-.66c0-.27.14-.52.38-.66s.52-.13.76,0c.24.13.38.39.38.66h0Z"/>
      </g>
      <g id="path2337">
        <path class="cls-4" d="m75.45,75.66c0,.27-.14.52-.38.66s-.52.13-.76,0-.38-.39-.38-.66.14-.52.38-.66.52-.13.76,0c.23.13.38.39.38.66h0Z"/>
      </g>
      <g id="path2339">
        <path class="cls-4" d="m68.13,75.66v.79h-1.01c-1.01,0-1.01.79,0,.79h1.01v.79c0,.82.88.92.95.07l.07-.85h1.01c1.01,0,1.01-.79,0-.79h-1.02v-.79c0-.79-1.01-.79-1.01,0h0Z"/>
      </g>
      <g id="path4942">
        <path class="cls-3" d="m77.28,65.09c.27-.07.7-.01.7-.01,0,0,.04.18-.07.24.13.07.59.05.59.05,0,0-.18.14-.27.19.17.01.37.23.37.23,0,0-.38.07-.55-.03.1.21.09.38.09.38,0,0-.62-.15-.85-.56"/>
        <path class="cls-4" d="m78.19,66.22h-.06s-.64-.17-.88-.6l.09-.05c.17.31.58.47.75.52,0-.07-.03-.17-.08-.3l-.07-.14.14.07c.09.05.28.05.42.03-.07-.06-.18-.13-.26-.14h-.15s.13-.09.13-.09c.03-.02.09-.06.14-.09-.15,0-.37,0-.46-.06l-.08-.05.08-.04c.05-.03.06-.11.05-.15-.11-.01-.44-.04-.64.02l-.03-.1c.28-.07.7-.02.72-.01h.03s0,.04,0,.04c0,0,.03.14-.03.23.13.03.36.03.49.02h.16s-.13.09-.13.09c0,0-.09.07-.18.13.15.07.28.21.29.21l.07.07h-.09s-.28.06-.47.02c.06.17.05.3.05.31v.05Z"/>
      </g>
      <g id="path4944">
        <path class="cls-3" d="m76.24,64.75c-.15.37-1.25-.32-1.25-.32,0,0,.49.77,1.21.86"/>
        <path class="cls-4" d="m76.2,65.34c-.74-.09-1.23-.85-1.25-.88l.07-.07c.23.14.87.48,1.11.41.04-.01.06-.03.07-.07l.09.04c-.03.06-.07.1-.13.13-.23.08-.7-.14-.97-.3.19.23.56.58,1.03.64v.09Z"/>
      </g>
      <g id="path4946">
        <path class="cls-3" d="m62.45,71.84h12.94l1-.79-1.66-.9-2.56-.87-1.03-.56-1.9.1-1.59.85-2.18.25-.51.59-1.62.13-2.54-.05,4.23.66-3.48-.18.9.78Z"/>
        <path class="cls-4" d="m75.41,71.88h-12.99s-1.01-.88-1.01-.88l2.67.13-3.27-.52v-.1s2.54.05,2.54.05l1.59-.13.51-.59h.02l2.17-.25,1.6-.85,1.91-.1h.01s1.03.57,1.03.57l2.56.87,1.74.94-1.08.85Zm-12.94-.1h12.9l.93-.74-1.6-.86-2.56-.87-1.02-.56-1.87.1-1.6.85-2.16.25-.52.59h-.02l-1.62.13-1.8-.03,3.49.55v.1s-3.35-.17-3.35-.17l.78.66Z"/>
      </g>
      <g id="path4948">
        <path class="cls-3" d="m69.42,68.12c-1.62-.87-2.09,1.27-2.79,1.79.94.16,1.65-.72,2.46-1.15.61,1.66,1.58.56,1.58.56,0,0,1.01,1.6,2.35.87.36.28.77.03.77.03,0,0,.49.09.59-.13.25.09.54-.23.54-.23,0,0,.56,0,.66-.28.83.15,1.93-1.69,1.93-1.69l.34-.64.49-.1s.03-.32-.23-.31c0-.19-.17-.3-.41-.25.05-.11-.13-.2-.13-.2-.46.11-.49,1.28-.49,1.28,0,0-.8.62-1.1.77-.01-.66-1.13-1.57-.9-2,.23-.43.95.66,1.59.46.63-.2.95-1.03.97-1.66-.18-.44-.62-1.15-.62-1.15l-.41-.03-.36-.87s-.76.5-.74.93.79.79.79.79c0,0-.45.28-.87.15-.04.44.51.36.72.36.1.32.41.49.41.49,0,0,.19.48-.31.44-.5-.05-1.09-1.19-1.79-.66-.75.56.34,1.59.34,1.59,0,0-.66.35-1.05,1.23-1.61-1.36-2.54-.74-4.32-.38Z"/>
        <path class="cls-4" d="m72.31,70.43c-.87,0-1.5-.81-1.65-1.03-.11.11-.44.38-.8.32-.32-.06-.58-.36-.79-.89-.22.13-.44.28-.66.44-.54.4-1.11.8-1.78.69l-.11-.02.09-.07c.19-.15.38-.44.58-.74.48-.75,1.07-1.69,2.25-1.07.32-.07.6-.13.88-.21,1.22-.31,2.11-.53,3.39.54.33-.7.82-1.05.99-1.16-.15-.15-.59-.65-.56-1.12.01-.2.11-.37.28-.5.48-.36.9,0,1.27.31.2.17.39.33.56.35.13,0,.21-.01.25-.07.06-.08.03-.21,0-.28-.07-.04-.3-.2-.4-.47h-.17c-.17,0-.37-.02-.48-.13-.07-.07-.09-.16-.08-.28v-.06s.07.02.07.02c.29.09.6-.03.74-.1-.21-.11-.72-.42-.74-.79-.01-.45.73-.95.76-.97l.05-.03.37.9.4.03v.02s.46.72.63,1.16h0v.03c-.03.68-.36,1.51-1.01,1.71-.34.11-.71-.13-1.01-.34-.19-.13-.37-.25-.48-.22-.03,0-.06.03-.08.07-.11.19.13.54.38.9.23.34.47.68.51.99.3-.17.89-.62,1.01-.71,0-.17.07-1.19.52-1.3h.02s.02,0,.02,0c.06.03.15.1.16.19.12,0,.22.02.3.08.05.05.09.11.11.19.06,0,.11.03.15.07.1.11.08.28.08.29v.04s-.51.11-.51.11l-.32.62c-.05.07-1.04,1.72-1.87,1.72-.02,0-.05,0-.07,0-.13.25-.57.28-.67.28-.06.07-.3.29-.54.24-.13.19-.51.13-.6.12-.08.05-.44.21-.78-.02-.23.11-.46.17-.68.17Zm-1.64-1.19l.03.06c.04.06.99,1.54,2.28.85h.03s.03,0,.03,0c.34.25.7.03.71.02h.01s.02,0,.02,0c.12.03.46.05.54-.1l.02-.04h.04c.22.09.48-.2.48-.2v-.02h.03s.52,0,.62-.25v-.04s.05,0,.05,0c.78.14,1.86-1.65,1.87-1.67l.34-.66h.03s.45-.1.45-.1c0-.05,0-.13-.05-.17-.03-.03-.06-.04-.11-.04h-.07v-.05c0-.07-.03-.12-.07-.15-.06-.05-.16-.07-.28-.05h-.09s.03-.07.03-.07c.02-.05-.05-.11-.09-.13-.33.11-.42.92-.43,1.23v.03h-.02s-.81.63-1.11.78l-.07.04v-.08c0-.3-.25-.66-.5-1.01-.27-.39-.52-.76-.39-1.01.03-.07.08-.11.15-.12.15-.03.34.09.56.23.29.19.62.42.92.32.58-.18.91-.95.94-1.61-.16-.38-.52-.99-.59-1.11l-.42-.03-.35-.84c-.17.11-.68.51-.67.85.01.4.76.74.76.75l.09.04-.08.05s-.43.27-.85.17c0,.06.02.11.05.14.11.11.35.11.51.1h.14v.03c.11.29.4.46.4.46h.01s0,.02,0,.02c0,.01.09.25-.01.4-.07.09-.18.12-.34.11-.2-.02-.4-.19-.62-.37-.36-.3-.73-.62-1.14-.31-.15.11-.23.25-.24.43-.03.5.58,1.08.58,1.09l.05.05-.06.03s-.65.35-1.03,1.21l-.03.06-.05-.04c-1.28-1.08-2.11-.87-3.36-.56-.28.07-.58.15-.91.21h-.02s-.01,0-.01,0c-1.11-.6-1.66.26-2.14,1.03-.17.27-.34.52-.51.69.59.05,1.08-.31,1.6-.68.23-.17.48-.34.72-.48l.05-.03.02.05c.19.53.44.83.73.88.4.07.75-.33.76-.33l.03-.05Z"/>
      </g>
      <g id="path4950">
        <path class="cls-3" d="m67.09,65.84c.66.63.2,1.67.46,1.87.28.21.66-.1.66-.1.7.19,1.95-.21,1.95-.21.55.31.34-.15.66-.13.3.76,1.28.62,1.28.62,0,0-.91-.92-1.46-1.18-.43.25-1.68.3-1.9.25-.24-.04-.09-.34-.21-.51.46-.45.09-1.56-.15-1.97-1.01-.68-2.22.48-1.29,1.35h0Z"/>
        <path class="cls-4" d="m71.93,67.95c-.3,0-.91-.07-1.14-.62-.08,0-.11.05-.15.11-.08.12-.17.2-.49.03-.17.05-1.26.37-1.93.21-.09.07-.44.3-.71.09-.12-.09-.11-.3-.1-.57.01-.39.03-.93-.36-1.3h0c-.48-.46-.38-.96-.15-1.25.3-.38.94-.58,1.52-.19h.01c.28.47.6,1.54.17,2.02.03.07.04.16.04.23,0,.15.01.2.11.22.22.04,1.46,0,1.86-.25h.02s.03,0,.03,0c.56.25,1.44,1.15,1.48,1.19l.07.07h-.1s-.06.01-.17.01Zm-1.12-.72h.05v.03c.23.57.88.6,1.13.59-.23-.22-.89-.86-1.34-1.08-.46.25-1.68.29-1.91.25-.19-.03-.19-.19-.19-.32,0-.08,0-.16-.04-.21l-.03-.03.03-.03c.44-.43.07-1.51-.15-1.9-.53-.35-1.11-.17-1.38.17-.21.27-.29.7.14,1.11h0c.43.4.41.97.4,1.38,0,.23-.01.43.07.49.24.19.6-.1.6-.1h.02s.03,0,.03,0c.68.18,1.91-.2,1.92-.21h.02s.02,0,.02,0c.28.16.32.1.38.02.02-.08.08-.17.23-.17Z"/>
      </g>
      <g id="path4952">
        <path class="cls-3" d="m62.66,63.96c-.84.23-2.29-1.08-2.97-.58s-.36,1.74.09,2.35c.44.6-.65.82-.94,1.18-.28.34.09.72.09.72l.31.2-.05.46.16.54s.15.13.2-.03c.14.14.01.55.36.6-.12-.26.09-.98.09-.98,0,0,.6.05.76-.21.15-.26-.15-.83-.15-.83h.18c-.2-.14-.28-.56-.28-.56,0,0,.85-.27.83-.91,0-.64-1.37-1.31-.87-1.65.55-.37,1.52.95,2.33.34.82-.6.29-.02.29-.02,0,0,.39-.85-.44-.62Z"/>
        <path class="cls-4" d="m59.99,69.46h-.09c-.25-.05-.29-.25-.32-.42,0-.05-.02-.1-.03-.14-.02.02-.04.03-.05.03-.08.03-.17-.05-.18-.05h-.01s0-.02,0-.02l-.17-.56h0s.05-.44.05-.44l-.28-.18c-.15-.15-.34-.5-.1-.8.1-.12.28-.22.47-.33.25-.15.52-.3.56-.49.02-.09,0-.19-.09-.3-.5-.67-.76-1.92-.08-2.43.39-.29,1.01-.02,1.6.23.5.21,1.01.44,1.39.34h0c.25-.07.43-.05.52.07.07.08.08.19.07.3.04,0,.05,0,.07.02.02.03.06.07-.16.32l-.09-.05s.02-.05.03-.09c-.06.04-.14.09-.25.17-.48.36-1.01.09-1.46-.15-.35-.18-.66-.34-.87-.19-.05.03-.08.07-.09.12-.01.14.19.36.4.58.27.28.57.59.58.91,0,.59-.65.87-.83.94.02.11.09.38.24.49l.13.09h-.27c.08.17.24.58.11.81-.15.25-.62.25-.76.24-.06.22-.17.72-.08.91l.04.08Zm-.48-.76l.06.06c.06.06.08.16.1.26.03.15.05.25.15.3-.06-.32.11-.89.11-.92v-.04h.05c.16.01.6,0,.71-.19.11-.19-.07-.63-.15-.78l-.04-.07h.14c-.15-.19-.19-.49-.2-.5v-.04s.03-.01.03-.01c0,0,.8-.26.8-.86,0-.28-.3-.58-.55-.84-.24-.25-.45-.47-.43-.66,0-.07.05-.14.13-.19.27-.18.61,0,.98.19.46.23.93.48,1.35.16.16-.12.27-.19.34-.23.02-.11.01-.21-.04-.28-.09-.1-.28-.07-.42-.03h0c-.4.11-.94-.12-1.46-.34-.57-.25-1.16-.5-1.5-.25-.63.47-.37,1.65.1,2.29.09.13.13.25.11.38-.05.24-.34.4-.61.56-.18.1-.35.2-.44.31-.24.3.07.64.09.66l.33.21-.06.48.15.52s.06.03.07.03c.01,0,.03-.03.03-.05l.03-.08Z"/>
      </g>
      <g id="path4954">
        <path class="cls-3" d="m66.99,54.99c-1.12-.47-3.41-.5-4.69-1.13-.56.03-.81.48-.83.65-.58-.03-.99.89-.9,1.07-1.07-.43-1.56,1.25-1.21,1.6-.91.04-.8,1.2-.89,1.52-.29.71.07.95.64.69.09.31-.03.48-.3.54,1.58,1.8,2.47-1.11,3.86-1.1,1.73-.5,2.41-1.35,2.41-1.35l.68.09,1.23-2.58Z"/>
        <path class="cls-4" d="m59.83,60.59h-.05c-.34-.02-.67-.21-1.01-.6l-.05-.07.08-.02c.12-.03.2-.07.24-.15.04-.07.05-.16.03-.27-.28.11-.52.11-.65-.02-.1-.1-.19-.32,0-.76.01-.05.02-.15.03-.26.04-.45.11-1.2.8-1.29-.14-.26-.05-.82.21-1.21s.64-.55,1.04-.42c0-.15.09-.38.23-.58.11-.17.36-.46.69-.46.05-.2.31-.62.87-.65h.03c.7.35,1.69.51,2.65.67.78.13,1.53.25,2.04.46l.05.02-1.27,2.66h-.03s-.65-.09-.65-.09c-.12.14-.83.89-2.41,1.35h-.02c-.51,0-.97.43-1.42.85-.45.42-.91.85-1.42.85Zm-.93-.62c.3.33.6.5.89.51h.04c.48,0,.9-.4,1.35-.82.46-.43.93-.87,1.48-.87h0c1.68-.5,2.37-1.33,2.37-1.34l.02-.02.67.09,1.19-2.51c-.5-.19-1.21-.32-1.97-.44-.96-.15-1.95-.32-2.66-.66-.53.04-.75.46-.77.61v.05h-.08c-.3,0-.52.26-.62.42-.17.25-.23.52-.2.58l.05.12-.12-.05c-.52-.21-.85.13-1,.36-.28.43-.33,1-.17,1.16l.08.08h-.11c-.68.03-.75.74-.8,1.21-.01.11-.02.21-.04.28-.13.32-.13.54-.02.65.11.11.33.1.6-.02l.05-.03v.05c.06.17.05.3-.01.4-.04.09-.12.15-.22.18Z"/>
      </g>
      <g id="path4956">
        <path class="cls-3" d="m70.09,53.69c0,.91-.74,1.65-1.65,1.65s-1.65-.74-1.65-1.65.74-1.65,1.65-1.65c.91,0,1.65.74,1.65,1.65h0Z"/>
        <path class="cls-4" d="m68.43,55.4c-.94,0-1.7-.76-1.7-1.7s.76-1.7,1.7-1.7,1.7.76,1.7,1.7-.76,1.7-1.7,1.7Zm0-3.3c-.89,0-1.6.72-1.6,1.6s.72,1.6,1.6,1.6,1.6-.72,1.6-1.6-.72-1.6-1.6-1.6Z"/>
      </g>
      <g id="path4958">
        <path class="cls-3" d="m65.52,66.71c-1.03-.19-2.72-1.25-2.9-2.64.95-3.75,5.88-1.79,6.31-4.61-.11-1.86.22-3.7,1.25-5.25.48-.61,1.1-.77,1.1-.77,0,0,.11.4-.05.66.81-.09,1.93.37,2.69.41.22.46.21.62.15.9-.05.28-.36.21-.36.21-.2.19-.44.38-.97.28-.4.31-1.25.38-1.25.38,0,0,1.78,1.88,1.49,2.46.37.17.93,1,.93,1,0,0,1.21-.64,1.62-1.23.7,0,1.86.74,2.43.82.7.57,1.41,1.15,1.41,1.15,0,0-.84.55-1.21-.18-.44.04-1.4-1.02-2.72-.69-.04,1.17-1.33,2-1.33,2,0,0,1.21-.17,1.87.23.68.58,1.69,1.35,1.69,1.35l.9,1.54s-.82.14-1.13-.93c-.31.86-.32-.53-1.54-1.18-.37.05-.56.07-.87-.18-.88.23-1.92.75-3.15.62-.88.28-1.52,1.01-2.41,1.41-.89.4-1.15.21-1.15.21l-.72.03c-.1.43-.05,1.09-.44,1.21.25.27-.18,1.42-.62,1.62.21.74.8.97,1.44,1.33,0,0,.56-.25.93.07.36.34.74,1.28.74,1.28,0,0-.76.05-1-.05-.24-.1-.26-.35-.54-.28-1.74-1.54-2.65-.93-2.82-1.28-.18-.36.4-1.3.22-1.9h0Z"/>
        <path class="cls-4" d="m69.24,70.29c-.23,0-.48-.01-.61-.07-.1-.04-.17-.11-.23-.17-.09-.09-.14-.15-.28-.11h-.03s-.02-.01-.02-.01c-1.15-1.03-1.92-1.09-2.37-1.13-.23-.02-.38-.03-.45-.17-.09-.19,0-.48.09-.83.1-.35.21-.74.14-1.04-1.11-.21-2.74-1.33-2.9-2.68h0c.52-2.04,2.19-2.42,3.66-2.76,1.31-.3,2.45-.57,2.64-1.85-.12-2.05.3-3.83,1.26-5.27.49-.62,1.11-.78,1.13-.79h.05s.01.03.01.03c0,.01.09.35-.01.62.47-.03,1.02.1,1.55.22.39.09.75.17,1.06.19h.03v.03c.24.46.22.64.17.93-.01.09-.06.15-.13.2-.09.06-.21.05-.27.05-.21.19-.46.37-.98.28-.34.24-.93.34-1.16.37.35.38,1.63,1.81,1.44,2.39.34.19.76.8.87.96.21-.11,1.21-.68,1.56-1.19v-.02h.04c.42,0,.99.25,1.48.47.37.16.72.32.96.35h.03c.7.57,1.4,1.15,1.41,1.16l.05.04-.06.04s-.45.29-.84.18c-.18-.05-.32-.17-.42-.36-.16,0-.36-.11-.62-.25-.5-.28-1.19-.64-2.02-.45-.05.93-.85,1.62-1.19,1.88.38-.03,1.19-.05,1.71.26.68.58,1.68,1.35,1.7,1.36h.01s.93,1.62.93,1.62h-.07s-.8.13-1.14-.81c-.05.11-.1.17-.16.17h-.01c-.09,0-.17-.12-.29-.32-.19-.32-.49-.81-1.08-1.13-.36.04-.56.06-.87-.17-.2.05-.41.12-.62.19-.73.24-1.56.52-2.51.42-.48.15-.87.44-1.29.73-.34.24-.69.49-1.09.67-.8.36-1.11.25-1.19.21l-.66.03c-.02.11-.03.22-.05.34-.04.35-.09.71-.35.84.07.13.05.33.02.48-.09.42-.36.96-.65,1.13.17.58.62.83,1.12,1.11.09.05.17.09.25.15.11-.05.61-.22.95.09.37.34.74,1.26.76,1.3l.03.07h-.07s-.19.01-.4.01Zm-1.04-.46c.13,0,.2.07.28.15.05.05.11.11.19.15.18.08.71.06.91.05-.09-.22-.4-.93-.7-1.2-.34-.31-.86-.07-.87-.07h-.03s-.02,0-.02,0c-.09-.05-.19-.11-.28-.16-.52-.29-1-.56-1.18-1.21v-.04s.03-.02.03-.02c.28-.13.55-.66.63-1.08.05-.22.03-.38-.03-.46l-.05-.06.08-.03c.25-.07.3-.43.34-.78.01-.13.03-.27.06-.39v-.04s.78-.03.78-.03h.01s.26.18,1.1-.19c.4-.18.74-.42,1.08-.66.44-.31.85-.6,1.33-.75h.02c.93.1,1.75-.17,2.48-.41.23-.07.45-.15.66-.2h.03s.02,0,.02,0c.3.23.46.21.83.17h.04c.62.34.94.87,1.13,1.18.07.13.16.28.2.28,0,0,.05,0,.13-.23l.05-.15.04.15c.23.8.76.89.98.89h.02l-.85-1.46c-.09-.07-1.04-.81-1.68-1.35-.63-.38-1.82-.22-1.83-.22l-.03-.09s1.27-.83,1.31-1.96v-.04h.04c.89-.23,1.6.16,2.13.44.23.13.44.24.58.24h.05v.03c.1.17.23.29.38.33.27.07.57-.07.7-.13-.18-.15-.76-.63-1.34-1.1-.25-.04-.6-.19-.97-.36-.48-.21-1.03-.45-1.42-.46-.42.58-1.57,1.2-1.62,1.22l-.04.02-.03-.04s-.55-.82-.9-.98l-.05-.02.03-.05c.23-.45-.99-1.88-1.48-2.4l-.07-.07h.11s.85-.09,1.23-.38h.02s.02,0,.02,0c.5.09.72-.07.93-.27l.02-.02h.03s.13.03.21-.03c.04-.03.07-.07.08-.13.05-.27.07-.42-.13-.84-.31-.02-.67-.11-1.05-.19-.56-.13-1.13-.26-1.6-.21h-.1s.05-.07.05-.07c.11-.19.08-.46.06-.58-.15.05-.64.25-1.03.74-.95,1.42-1.36,3.18-1.25,5.22-.2,1.36-1.43,1.64-2.72,1.95-1.44.34-3.08.71-3.58,2.67.17,1.31,1.77,2.39,2.85,2.59h.03s0,.03,0,.03c.1.33-.02.75-.13,1.13-.09.32-.17.61-.1.76.04.09.15.1.37.11.44.03,1.25.1,2.41,1.13.01,0,.04,0,.06,0Z"/>
      </g>
      <g id="path4960">
        <path class="cls-3" d="m61.35,59.83c.09-.11.72.13.72.13l1.16.72,2.35,1.52.83,1.21-1.5-.49-2.09-1.79-1.12-.72s-.45-.47-.36-.58Z"/>
        <path class="cls-4" d="m66.55,63.51l-1.66-.54-2.09-1.79-1.12-.72c-.19-.19-.48-.52-.38-.66h0c.1-.13.58.03.78.11l1.17.73,2.37,1.54.93,1.33Zm-1.6-.63l1.35.44-.74-1.08-2.35-1.52-1.16-.72c-.3-.11-.62-.18-.66-.13-.03.05.15.3.36.51l1.11.72,2.08,1.79Zm-3.6-3.05l.04.03-.04-.03Z"/>
      </g>
      <g id="path4962">
        <path class="cls-3" d="m75.28,63.69c-.81-.21-2.82,2.23-2.82,2.23l1.51,1.64s.05-2.78,1.31-3.86Z"/>
        <path class="cls-4" d="m74.03,67.68l-1.63-1.76.03-.03c.08-.09,1.87-2.26,2.76-2.26.04,0,.08,0,.11.01l.09.03-.07.06c-1.23,1.05-1.29,3.8-1.29,3.83v.13Zm-1.5-1.77l1.4,1.52c.03-.55.19-2.7,1.23-3.7-.77.01-2.39,1.91-2.63,2.19Z"/>
      </g>
      <g id="path4964">
        <path class="cls-3" d="m65.37,56.9c-.44.57-.48,1.72.09,2.17.05.7.64,2.1,1.11,2.23.51.14,2.54.62,3.33.49-.15,1.29.86,2.32,1.79,3,0,.11,0,.25.1.4.11.14.6.16.62.09.22.31,1.27.44,1.35.3.07-.13-1.56-1.27-1.91-1.61-.31-.57-.89-1.84-1.03-2.87-.8-.95-2.17-.93-2.17-.93l.04-1.86.07-2.1-.74-.38s.15-.07.23-.15c.18.08.52-.29.56-.39.17.06.33.06.36-.03.03-.08.06-.44.12-.62.56-.5-.08-1.54-.94-1.56-.85-.02-1.04,1.01-1.02,1.09.08.32.06.48,0,.56-.07.08-.36.25-.36.25,0,0-.48-.22-1.05,0s-1.22.52-1.25.9c-.26.04-.69.38-.77.66-.23-.05-.53.15-1.03.95-.89.39-.93,2.28-.93,2.28,0,0-.24.35-.25.53-.01.18.08.35.2.32.01.12.17.23.24.19.03.12.2.19.31.17,0,.08.35.06.38-.01.03-.08-.03-.5,0-.53.03-.03.32.19.4.13.08-.06-.01-.24-.06-.32-.04-.07-.28-.13-.34-.44-.06-.3.15-.72.15-.72,0,0,.96-.76,1.07-1.4.74.08,1.12-.56,1.33-.79h0Z"/>
        <path class="cls-4" d="m73.53,65.68c-.33,0-.91-.11-1.13-.34-.02,0-.04.01-.05.01-.15.03-.5-.01-.6-.14-.11-.14-.11-.28-.11-.4-1.27-.93-1.89-1.95-1.8-2.96-.82.09-2.71-.34-3.29-.5-.49-.13-1.08-1.53-1.15-2.25-.46-.39-.53-1.19-.32-1.8-.23.24-.54.48-1,.45-.14.62-.97,1.3-1.07,1.38-.03.06-.19.42-.15.68.04.2.17.29.25.35.04.03.07.05.08.07.04.07.16.3.05.38-.07.05-.19-.01-.31-.07-.03-.01-.06-.03-.08-.04,0,.05,0,.14,0,.2,0,.15.01.24,0,.29-.03.09-.23.11-.34.09-.07,0-.1-.03-.12-.05h0c-.11,0-.25-.06-.31-.17h0s-.06,0-.09-.03c-.06-.03-.13-.09-.15-.17-.03,0-.07-.01-.09-.04-.08-.06-.13-.2-.11-.34.01-.18.21-.48.25-.54,0-.19.09-1.91.95-2.3.41-.66.72-.97,1-.97h.03c.11-.28.5-.59.76-.65.07-.38.72-.68,1.28-.9.52-.2.96-.05,1.07,0,.11-.07.28-.18.32-.23.04-.05.07-.18,0-.52-.01-.07.06-.49.32-.8.19-.23.44-.35.73-.35h.02c.56.01.99.42,1.14.83.11.32.06.61-.16.81-.03.11-.06.27-.08.4-.01.09-.03.17-.04.21s-.04.07-.07.09c-.07.03-.18.03-.31,0-.08.12-.34.39-.53.39-.01,0-.03,0-.04,0-.04.04-.09.07-.13.09l.68.36v.03l-.07,2.1-.04,1.81c.26,0,1.44.09,2.16.95h0v.03c.13.99.7,2.25,1.01,2.84.13.13.45.37.78.62,1,.76,1.19.95,1.13,1.05-.03.05-.09.07-.21.08-.01-.01-.03-.01-.05-.01Zm-1.14-.52l.06.09c.13.17.6.31.97.34.17.01.25,0,.28-.02-.07-.13-.68-.6-1.1-.92-.34-.26-.66-.5-.79-.64h0c-.32-.6-.89-1.87-1.03-2.88-.76-.89-2.05-.9-2.12-.9h-.05v-.05l.04-1.86.07-2.07-.8-.42.09-.04s.14-.07.21-.14l.03-.03h.03c.14.07.46-.25.5-.35l.02-.04h.05c.11.05.21.06.27.04.01,0,.02-.02.03-.03,0-.03.02-.11.03-.19.02-.14.05-.32.09-.44h0s.01-.02.01-.02c.19-.17.24-.43.14-.71-.13-.37-.54-.75-1.05-.76-.25,0-.47.09-.64.28-.26.29-.34.7-.34.76.07.31.07.5-.01.6-.07.09-.34.25-.37.27h-.02s-.03,0-.03,0c0,0-.46-.21-1.01,0-.51.19-1.19.5-1.22.85v.04s-.05,0-.05,0c-.24.03-.66.36-.72.63v.05s-.06,0-.06,0c-.02,0-.03,0-.05,0-.23,0-.53.3-.92.93h0s-.01.02-.01.02c-.85.38-.91,2.22-.91,2.23h0s0,.03,0,.03c-.07.09-.23.37-.24.5,0,.12.03.21.08.25.02.01.03.02.05.01h.06s0,.05,0,.05c0,.05.06.11.11.14.03.02.05.02.06.01l.06-.03v.07c.03.09.18.15.26.13h.05s0,.05,0,.05c0,0,.04,0,.1,0h.03c.09,0,.14-.03.15-.03,0-.03,0-.15,0-.24-.01-.2-.01-.28.03-.3.04-.03.09,0,.19.05.05.03.15.08.19.08h0s0-.13-.07-.25c0,0-.03-.03-.05-.04-.09-.06-.25-.17-.29-.41-.06-.32.15-.73.16-.75v-.02s.96-.75,1.07-1.37v-.05s.05,0,.05,0c.03,0,.07,0,.11,0,.54,0,.87-.42,1.07-.68.03-.04.07-.08.09-.11l.08.07c-.43.55-.46,1.67.09,2.11h.02v.03c.05.67.64,2.07,1.07,2.19.59.17,2.54.6,3.31.48h.07s0,.05,0,.05c-.12,1.02.48,2.01,1.77,2.95h.02v.04c0,.11,0,.24.09.37.08.1.46.13.53.09v-.11Z"/>
      </g>
      <g id="path4966">
        <path class="cls-3" d="m63.7,54.19c.22-.54,1.01-.49,1.01-.49,0,0,.28-.74,1.35-.3.4-.31,1.46.13,1.46.13,0,0,.4-.53.92-.47.96.11,1.12.99,1.07,1.15-.53.13-1.44-.43-2.13-.27-.4.23-1.06.47-1.31.8-.65.07-1.33-.58-2.37-.55h0Z"/>
        <path class="cls-4" d="m65.97,54.8c-.28,0-.55-.11-.87-.23-.38-.15-.81-.33-1.33-.33h-.15l.03-.07c.19-.48.8-.52,1-.52h.03c.04-.08.15-.27.4-.37.27-.11.6-.09.98.06.4-.27,1.26.05,1.45.13.09-.11.47-.51.94-.46.54.06.81.35.95.58.16.26.19.54.15.63v.03s-.03,0-.03,0c-.26.07-.6-.03-.97-.13-.4-.11-.81-.22-1.16-.14-.11.06-.24.13-.38.19-.35.17-.74.36-.91.59v.02h-.03s-.06.01-.09.01Zm-2.19-.66c.53,0,.97.17,1.36.34.31.12.57.23.83.23h.07c.19-.24.58-.44.93-.6.13-.07.26-.13.38-.19h.01c.38-.09.8.03,1.22.13.34.09.65.18.89.13.01-.08-.01-.3-.15-.52-.13-.21-.38-.48-.88-.53-.49-.05-.87.44-.87.45l-.03.03h-.03s-1.03-.44-1.41-.15l-.02.02h-.03c-.37-.17-.68-.19-.93-.09-.27.11-.36.35-.36.35v.03h-.05s-.7-.05-.94.37Z"/>
      </g>
      <g id="path4968">
        <path class="cls-3" d="m65.71,55.08c.24-.15.83-.41,1.23-.09.42.45,1.06.87,1.06.87l.73.31.34.21-.21,3.34c-.68-.69-1.31-.81-1.79-1.63-.26-.35-.06-1.19-.51-1.74-.46-.56-.94-.93-.84-1.27Z"/>
        <path class="cls-4" d="m68.89,59.84l-.08-.08c-.27-.28-.53-.46-.78-.64-.37-.26-.72-.5-1.02-1-.11-.15-.14-.4-.17-.68-.04-.35-.09-.75-.34-1.05-.11-.14-.23-.27-.34-.4-.32-.36-.58-.64-.5-.92v-.02s.02-.01.02-.01c.08-.05.8-.48,1.29-.09.42.45,1.05.87,1.06.87l.72.3.37.22v.03l-.23,3.46Zm-3.14-4.72c-.05.22.19.48.48.8.11.13.23.25.35.4.27.33.32.74.36,1.11.03.27.05.5.16.64.29.48.63.72.99.97.23.16.47.33.72.57l.21-3.2-.31-.19-.72-.3s-.66-.43-1.08-.89c-.41-.33-1.03,0-1.15.08Z"/>
      </g>
      <g id="path4970">
        <path class="cls-3" d="m67.46,56.05s.38-.07.49.02c.13.05.26.08.3.2.15.04.24.12.24.23.13.03.19.28.19.28l-.13.19s-.15-.13-.16-.28c-.09-.05-.3-.09-.34-.23-.16-.01-.26-.1-.29-.23-.15.03-.3-.17-.3-.17Z"/>
        <path class="cls-4" d="m68.56,57.04l-.05-.04s-.14-.13-.17-.28c-.01,0-.03-.01-.05-.02-.1-.04-.23-.09-.28-.19-.15-.02-.25-.1-.3-.23-.15,0-.29-.17-.3-.19l-.05-.07h.08c.07-.03.4-.08.52,0h.01c.12.05.25.09.3.21.15.05.23.13.25.23.13.07.19.28.19.31v.02s-.17.25-.17.25Zm-.76-.89v.05c.04.11.12.18.26.19h.03v.03c.05.08.17.13.25.17.03.01.06.02.08.03h.03v.04c0,.08.07.15.11.2l.08-.12c-.02-.07-.07-.2-.15-.22h-.04v-.05c0-.09-.11-.15-.21-.18h-.03s0-.03,0-.03c-.03-.09-.13-.12-.25-.16h-.03c-.05-.05-.21-.05-.36-.03.05.05.13.1.19.09h.03Z"/>
      </g>
      <g id="path4972">
        <path class="cls-3" d="m70.7,53.86c-.21-.24-.6-.07-.6-.07l-1.03,1.77-.45.37-.04,1.38.37,1.29-.13,1s.52-.48.58-.76c.06-.26-.19-1.1-.19-1.1,0,0-.31-.52.07-1.5.38-.97,1.23-1.78,1.43-2.39h0Z"/>
        <path class="cls-4" d="m68.76,59.75l.15-1.13-.37-1.29h0s.04-1.42.04-1.42l.46-.38,1.03-1.77h.01s.42-.2.66.07l.02.02v.03c-.1.29-.33.61-.6.98-.3.42-.64.9-.84,1.42-.36.94-.07,1.45-.07,1.46.01.05.25.87.19,1.14-.06.28-.57.76-.59.78l-.1.09Zm-.12-2.43l.38,1.29h0s-.11.87-.11.87c.15-.15.42-.45.46-.63.05-.2-.12-.85-.19-1.07,0-.01-.31-.54.07-1.53.2-.53.54-1.01.85-1.44.25-.35.47-.66.56-.93-.17-.16-.44-.06-.51-.04l-1.03,1.76-.43.36-.04,1.36Z"/>
      </g>
      <g id="path4974">
        <path class="cls-3" d="m73.23,55.44s-1.6,2.29-4.22,3.1c-.72.17-.46-1.69-.46-1.69l-.18.05s-.4,1.82.56,1.84c2.64-.52,4.61-3.29,4.61-3.29h-.31Z"/>
        <path class="cls-4" d="m68.94,58.79c-.21,0-.37-.08-.49-.23-.39-.5-.15-1.63-.13-1.68v-.03s.29-.08.29-.08v.08s-.19,1.27.15,1.58c.06.06.14.07.23.05,2.57-.8,4.17-3.06,4.19-3.08v-.03s.44.02.44.02l-.05.07s-2.01,2.79-4.63,3.31Zm-.53-1.85c-.03.18-.21,1.15.12,1.56.1.13.23.19.4.19,2.33-.46,4.17-2.74,4.51-3.19h-.19c-.18.23-1.76,2.33-4.23,3.09-.13.03-.24,0-.34-.07-.33-.3-.23-1.3-.2-1.6l-.07.02Z"/>
      </g>
      <g id="path4976">
        <path class="cls-3" d="m74.31,68.58s-.24.18-.56,0c-.17-.38-.62-.41-.62-.41,0,0-.29-.83-.74-.59-.07-.43-.56-.21-.56-.21,0,0-.01-.62-.59-.54.19-.71-.79-.66-.79-.66,0,0-.03-.8-1.49-.64,3.13-1.4,5.61,2.2,5.61,2.2"/>
        <path class="cls-4" d="m74.04,68.71c-.09,0-.19-.02-.32-.09h-.01s0-.02,0-.02c-.15-.35-.57-.38-.57-.38h-.03v-.03s-.18-.48-.44-.58c-.08-.03-.15-.03-.24.02l-.06.03v-.07c-.03-.09-.07-.16-.13-.19-.15-.08-.38.03-.38.03l-.07.03v-.07s0-.27-.17-.41c-.09-.07-.21-.1-.36-.08h-.07s.02-.06.02-.06c.04-.16.03-.29-.05-.38-.19-.24-.68-.22-.69-.22h-.05v-.05s-.01-.2-.21-.37c-.24-.21-.66-.28-1.22-.22l-.03-.09c3.14-1.4,5.65,2.19,5.67,2.22l-.08.06s-2.33-3.33-5.25-2.3h.05c.41,0,.72.09.93.27.17.15.22.31.23.39.14,0,.54.03.73.26.09.11.11.24.09.4.14-.01.27.03.36.11.15.12.19.31.2.42.09-.03.27-.07.4,0,.07.04.13.11.15.2.09-.03.17-.03.26,0,.27.11.44.5.48.61.11.01.46.09.62.42.28.15.48,0,.5,0l.06.08s-.15.07-.33.07Z"/>
      </g>
      <g id="path4978">
        <path class="cls-3" d="m75.8,68.88s.72.81,1.1.82.41-.79.41-.79c0,0,.12.35.31.25-.02.24.23.31.23.31,0,0-.65,1.52-2.51.07"/>
        <path class="cls-4" d="m76.77,70.23c-.44,0-.93-.21-1.47-.63l.06-.08c.65.5,1.21.7,1.68.58.43-.11.65-.46.72-.58-.09-.04-.19-.13-.21-.27-.03,0-.05,0-.08-.01-.06-.03-.11-.07-.14-.13-.03.25-.14.66-.44.66h0c-.4,0-1.11-.8-1.14-.84l.07-.07c.19.22.77.8,1.07.8h0c.27,0,.35-.54.36-.74h.1s.09.18.17.21c.03,0,.05,0,.07,0l.08-.04v.09c-.02.19.17.25.19.25h.06s-.02.07-.02.07c0,.02-.24.54-.81.69-.11.03-.21.04-.32.04Z"/>
      </g>
      <g id="path4980">
        <path class="cls-3" d="m70.13,69.19l-.25,1.05s-.33.3-.23.36c.09.07.62-.1.62-.1,0,0,.8-.09,1.05-.34.17.38.54.41.54.41,0,0,.03-.16-.03-.25.18.03.34-.03.34-.03,0,0,.1-.3-.13-.41.03-.22.13-.41-.25-.38-.29.31-1,.66-1.18.54-.18-.12.7-.51.46-1.03"/>
        <path class="cls-4" d="m69.73,70.67s-.08,0-.11-.02-.04-.04-.04-.07c0-.11.18-.29.25-.36l.25-1.03.1.03-.26,1.07h-.01c-.13.13-.23.26-.23.3.04.02.3-.03.56-.11.02,0,.8-.1,1.03-.32l.05-.05.03.07c.12.27.35.35.45.37,0-.05,0-.13-.03-.17l-.05-.09.1.02c.13.03.23,0,.28-.01.01-.07.05-.25-.11-.32h-.03s0-.05,0-.05c0-.03.01-.07.01-.11.01-.08.03-.15,0-.19-.02-.02-.07-.05-.2-.04-.29.3-1.01.67-1.23.53-.03-.03-.05-.05-.05-.07,0-.07.07-.15.18-.25.19-.18.44-.43.31-.72l.09-.04c.17.35-.13.64-.33.83-.06.06-.15.15-.15.17.13.09.81-.21,1.11-.53h.01s.02-.01.02-.01c.16,0,.25.01.3.07.06.07.05.17.03.28,0,.02,0,.04-.01.07.18.11.16.34.12.46v.02s-.03,0-.03,0c0,0-.12.05-.28.04.02.09,0,.19,0,.2v.05s-.05,0-.05,0c-.01,0-.36-.03-.55-.38-.3.21-.99.3-1.03.3-.13.03-.4.11-.55.11Z"/>
      </g>
      <g id="text1930">
        <path class="cls-4" d="m53.83,66.7l1.04-.25-.11-.48c-.03-.11-.07-.19-.13-.23-.06-.04-.17-.05-.32-.03l-.02-.07.9-.21.02.07c-.1.03-.17.06-.21.09-.04.04-.07.08-.08.13-.01.05,0,.12.01.21l.11.48.83-.2c.13-.03.22-.06.26-.09.03-.02.05-.05.07-.1.02-.07.02-.13,0-.19l-.02-.09.07-.02.27,1.14-.07.02-.02-.09c-.03-.11-.07-.18-.15-.21-.05-.02-.15-.01-.32.03l-1.71.41c-.13.03-.22.06-.26.09-.03.02-.05.05-.07.1-.02.07-.02.13,0,.19l.02.09-.07.02-.47-1.97.58-.17v.07c-.1.06-.18.13-.23.18-.05.06-.07.12-.09.19s0,.17.03.32l.14.58h0Zm-.67-4.7c.02-.36.17-.65.46-.89s.62-.36,1.03-.33c.42.02.75.17,1.01.45s.38.6.36.97-.17.68-.45.92c-.28.24-.63.35-1.05.32-.43-.03-.78-.19-1.03-.5-.23-.27-.33-.58-.31-.94h0Zm.15.05c-.01.24.07.44.24.6.21.19.54.31.97.33.44.03.79-.05,1.04-.23.19-.13.3-.32.31-.56.01-.25-.07-.47-.26-.65s-.5-.28-.93-.3c-.46-.03-.82.05-1.05.21-.2.14-.3.34-.32.6h0Zm3.94-4.98l-.26.68-1.52.41c-.02.07-.04.12-.05.15,0,.01-.01.03-.02.05s-.01.04-.03.06l.74.28c.16.06.27.08.32.06.07-.03.13-.09.16-.18l.04-.1.07.03-.42,1.09-.07-.03.03-.09c.04-.11.03-.2-.02-.27-.03-.04-.11-.09-.26-.15l-1.64-.62c-.16-.06-.27-.08-.32-.06-.07.03-.13.09-.17.19l-.03.09-.07-.03.36-.93c.1-.27.2-.46.29-.58s.2-.19.34-.24.28-.05.43,0c.15.06.28.16.35.31.07.15.1.34.07.57l.93-.25c.21-.05.36-.11.45-.18s.17-.17.23-.3h.07Zm-2,1.31s.02-.05.03-.06c0-.02.01-.03.02-.04.09-.24.11-.44.05-.61-.06-.16-.17-.28-.33-.34s-.31-.06-.44,0c-.14.06-.23.17-.3.34-.03.07-.05.17-.07.31l1.05.4Zm5.8-9.02l.53.68-.06.04c-.17-.14-.34-.23-.5-.25-.22-.04-.44,0-.65.14-.29.19-.44.45-.44.78,0,.28.09.55.26.82.14.22.31.39.51.52s.4.19.59.18.36-.05.5-.15c.09-.05.16-.12.22-.19.07-.07.12-.15.17-.24l-.43-.67c-.07-.11-.13-.18-.17-.21-.04-.03-.09-.03-.13-.03-.05,0-.12.03-.21.09l-.04-.07.89-.58.04.07-.04.03c-.09.05-.13.13-.12.2,0,.05.05.15.13.27l.46.7c-.08.15-.18.29-.28.4-.11.11-.23.22-.39.32-.44.29-.87.36-1.28.23-.31-.1-.56-.29-.74-.57-.13-.2-.21-.42-.23-.67-.03-.3.02-.56.15-.81.11-.21.27-.38.5-.53.08-.05.16-.09.24-.13.07-.03.19-.06.35-.1.08-.02.13-.03.15-.05s.03-.03.03-.07c0-.03-.01-.07-.05-.13l.05-.03h0Zm4.43.31l-1.02.27-.07.46c-.01.11-.02.19,0,.25.01.04.04.07.09.09s.13.02.26,0l.02.07-.83.22-.02-.07c.11-.05.17-.09.19-.13.05-.08.09-.23.12-.44l.35-2.41.07-.02,1.5,1.95c.12.15.22.25.3.29.07.03.17.04.28.02l.02.07-1.04.28-.02-.07c.1-.03.17-.07.2-.11.03-.04.04-.08.03-.12-.01-.05-.07-.14-.15-.25l-.26-.33h0Zm-.09-.13l-.73-.95-.17,1.19.91-.24Zm4.82-.01h.07s-.26.74-.26.74l-2.11-.08v-.07h.1c.11.01.2-.03.25-.09.03-.04.05-.14.05-.3l.07-1.76c0-.17,0-.28-.05-.32-.05-.06-.13-.09-.23-.1h-.1v-.08l1.23.05v.07c-.15,0-.25,0-.31.03s-.1.06-.12.1-.04.14-.05.31l-.07,1.71c0,.11,0,.19.02.23.01.03.04.05.07.07s.13.03.32.03h.2c.21.01.36,0,.44-.02.09-.03.17-.08.23-.15.07-.07.14-.19.22-.36h0Zm3.63.97l.06.03-.46.63-2.01-.66.02-.07.1.03c.11.03.2.03.27-.03.04-.03.09-.12.13-.27l.55-1.67c.05-.16.07-.27.05-.32-.03-.07-.09-.13-.19-.15l-.1-.03.03-.07,1.17.39-.03.07c-.13-.05-.23-.07-.3-.05-.07,0-.11.03-.15.06s-.07.13-.13.28l-.54,1.62c-.03.11-.05.18-.04.23,0,.03.02.06.05.08.03.02.13.06.29.12l.19.06c.2.07.34.1.43.09.09,0,.18-.03.27-.08.1-.05.21-.14.33-.28h0Zm2.92,1.55l-.86-.61-.4.24c-.1.06-.16.11-.19.15-.03.03-.03.07-.01.12.01.05.07.11.17.19l-.04.06-.7-.5.04-.06c.11.05.18.07.23.07.09-.01.23-.07.41-.19l2.08-1.27.06.04-.54,2.39c-.04.19-.05.33-.03.41s.07.15.16.23l-.04.06-.88-.62.04-.06c.09.06.16.09.21.08.05,0,.09-.02.11-.06.03-.05.07-.14.09-.28l.08-.4h0Zm.04-.15l.26-1.17-1.03.62.76.54Zm3.23.6l.44.6-.65,2.56,1.26-.94c.13-.1.21-.17.22-.23.01-.07,0-.15-.07-.24l-.05-.07.06-.05.56.76-.06.05-.06-.08c-.07-.09-.15-.14-.23-.13-.05,0-.14.05-.26.14l-1.84,1.37-.04-.06.69-2.75-1.35,1c-.13.1-.21.17-.22.23-.01.07,0,.15.07.24l.06.08-.06.05-.56-.76.06-.05.05.07c.07.09.15.14.23.13.05,0,.14-.05.26-.14l1.52-1.13c.03-.12.04-.2.04-.25s-.01-.11-.04-.19c-.01-.04-.04-.09-.09-.15l.05-.03h0Zm3.43,6.33l-.59.24-.03-.07c.1-.05.17-.09.21-.13.06-.07.09-.13.11-.21.01-.08,0-.17-.04-.28l-.13-.36-1.97.7c-.16.05-.25.11-.28.15-.03.07-.03.15,0,.25l.03.09-.07.03-.38-1.09.07-.03.03.09c.04.11.1.17.18.19.05.01.15,0,.29-.05l1.97-.7-.11-.31c-.04-.12-.08-.2-.11-.25-.05-.05-.11-.09-.2-.12-.09-.02-.19-.02-.31.01l-.03-.07.61-.18.73,2.11h0Zm-2.15,4.83l-.04-.72,1.23-.99c0-.07-.01-.12-.01-.17v-.11l-.79.04c-.17,0-.28.03-.32.07-.05.05-.08.13-.07.23v.11s-.07,0-.07,0l-.06-1.17h.07s0,.09,0,.09c0,.11.05.19.13.24.04.03.14.03.3.03l1.76-.09c.17,0,.28-.03.32-.07.05-.05.08-.13.07-.23v-.1s.07,0,.07,0l.05.99c.01.29,0,.5-.03.64-.03.14-.11.26-.21.36-.11.1-.24.15-.4.17-.17,0-.32-.04-.44-.14-.13-.1-.22-.27-.29-.49l-.75.6c-.17.14-.29.25-.34.35s-.09.22-.09.37h-.07Zm1.29-2.01v.11c.01.26.08.45.2.58s.27.18.44.17c.17,0,.3-.07.41-.18.1-.11.15-.25.14-.43,0-.08-.02-.18-.05-.32l-1.14.06h0Zm.75,5.61l-.24.92-.07-.02v-.05s.02-.09,0-.16c-.01-.07-.04-.14-.08-.21-.04-.07-.11-.15-.22-.27l-.83-.9-.66-.17c-.16-.04-.27-.05-.32-.03-.07.03-.11.11-.14.21l-.02.09-.07-.02.3-1.12.07.02-.03.09c-.03.11-.01.2.04.26.03.04.13.08.28.11l.62.16,1.29-.44c.15-.05.25-.09.29-.11s.09-.07.17-.16c.02-.02.03-.06.05-.11l.07.02-.3,1.13-.07-.02v-.06c.03-.06.03-.12.01-.18-.01-.06-.05-.09-.11-.11-.05-.01-.14,0-.28.05l-.99.33.68.73c.1.11.18.17.24.19.03,0,.07,0,.11,0,.03-.01.06-.03.09-.06.03-.03.05-.08.07-.15l.05.03h0Z"/>
      </g>
    </g>
  </g>
</svg>