<?xml version="1.0" encoding="UTF-8"?>
<svg id="Layer_2" data-name="Layer 2" xmlns="http://www.w3.org/2000/svg" viewBox="0 0 520 320">
  <defs>
    <style>
      .cls-1 {
        fill: #a3ab78;
      }

      .cls-1, .cls-2, .cls-3, .cls-4 {
        stroke-width: 0px;
      }

      .cls-2 {
        fill: #dd7500;
      }

      .cls-3 {
        fill: #fff;
      }

      .cls-4 {
        fill: #003893;
      }
    </style>
  </defs>
  <g id="_500x300_Background" data-name="500x300 Background">
    <rect class="cls-1" width="520" height="320" rx="10" ry="10"/>
  </g>
  <g id="Marshall_Islands" data-name="Marshall Islands">
    <g>
      <polygon class="cls-4" points="10 10.09 10 295.6 509.92 14.86 509.92 10.09 10 10.09"/>
      <polygon class="cls-4" points="10 310 510 310 510 132.44 10 305.14 10 310"/>
      <polygon class="cls-3" points="10 305.14 510 132.44 510 73.6 10 300.37 10 305.14"/>
      <polygon class="cls-2" points="10 300.37 510 73.6 510 14.86 10 295.6 10 300.37"/>
    </g>
    <polygon class="cls-3" points="133.52 115.97 166.59 103.34 131.69 108.99 160.36 88.21 128.03 102.67 150.38 75.25 122.88 97.6 137.42 65.28 116.65 94.03 122.3 59.05 109.67 92.12 106.09 32.04 102.52 92.12 89.89 59.05 95.54 94.03 74.77 65.28 89.23 97.6 61.8 75.25 84.16 102.67 51.83 88.21 80.58 108.99 45.6 103.34 78.67 115.97 18.59 119.54 78.67 123.11 45.6 135.74 80.58 130.09 51.83 150.87 84.16 136.41 61.8 163.83 89.23 141.48 74.77 173.8 95.54 145.13 89.89 180.03 102.52 146.96 106.09 207.04 109.67 146.96 122.3 180.03 116.65 145.13 137.42 173.8 122.88 141.48 150.38 163.83 128.03 136.41 160.36 150.87 131.69 130.09 166.59 135.74 133.52 123.11 193.59 119.54 133.52 115.97"/>
  </g>
</svg>