<?xml version="1.0" encoding="UTF-8"?>
<svg id="Layer_2" data-name="Layer 2" xmlns="http://www.w3.org/2000/svg" viewBox="0 0 520 320">
  <defs>
    <style>
      .cls-1 {
        fill: #a3ab78;
      }

      .cls-1, .cls-2, .cls-3 {
        stroke-width: 0px;
      }

      .cls-2 {
        fill: #fff;
      }

      .cls-3 {
        fill: #79b2dd;
      }
    </style>
  </defs>
  <g id="_500x300_Background" data-name="500x300 Background">
    <rect class="cls-1" width="520" height="320" rx="10" ry="10"/>
  </g>
  <g id="Micronesia">
    <g>
      <polygon class="cls-3" points="10 10 10 10.07 10 85.6 10.16 85.6 10.16 234.68 10 234.68 10 310 510 310 510 253.58 510 234.68 510 85.6 510 66.7 510 10 10 10"/>
      <polygon class="cls-2" points="258.87 40.68 251.18 68.11 222.76 69.31 246.53 85.04 238.84 112.47 261.13 94.77 284.82 110.49 274.95 83.84 297.24 66.14 268.82 67.33 258.87 40.68"/>
      <polygon class="cls-2" points="281.16 207.53 258.87 225.23 235.18 209.51 245.05 236.16 222.76 253.86 251.18 252.67 261.13 279.32 268.82 251.89 297.24 250.69 273.47 234.96 281.16 207.53"/>
      <polygon class="cls-2" points="371.57 151.18 370.37 122.76 354.64 146.53 327.21 138.84 344.91 161.13 329.18 184.82 355.84 174.95 373.47 197.24 372.27 168.82 398.93 158.87 371.57 151.18"/>
      <polygon class="cls-2" points="190.82 135.18 164.16 145.05 146.53 122.76 147.73 151.18 121.07 161.13 148.43 168.82 149.63 197.24 165.36 173.47 192.79 181.16 175.09 158.87 190.82 135.18"/>
    </g>
  </g>
</svg>