<?xml version="1.0" encoding="UTF-8"?>
<svg id="Layer_2" data-name="Layer 2" xmlns="http://www.w3.org/2000/svg" viewBox="0 0 520 320">
  <defs>
    <style>
      .cls-1 {
        fill: #097754;
      }

      .cls-1, .cls-2, .cls-3, .cls-4, .cls-5, .cls-6, .cls-7, .cls-8, .cls-9, .cls-10 {
        stroke-width: 0px;
      }

      .cls-2 {
        fill: #a3ab78;
      }

      .cls-3 {
        fill: #0b45bb;
      }

      .cls-4 {
        fill: #b07f55;
      }

      .cls-5 {
        fill: #d10429;
      }

      .cls-7 {
        fill: #f5d402;
      }

      .cls-8 {
        fill: #ffd200;
      }

      .cls-9 {
        fill: #0046ae;
      }

      .cls-10 {
        fill: #cc092f;
      }
    </style>
  </defs>
  <g id="_500x300_Background" data-name="500x300 Background">
    <rect class="cls-2" width="520" height="320" rx="10" ry="10"/>
  </g>
  <g id="Moldova">
    <g>
      <rect class="cls-10" x="343.36" y="10" width="166.64" height="300"/>
      <rect class="cls-8" x="176.64" y="10" width="166.64" height="300"/>
      <rect class="cls-9" x="10" y="10" width="166.64" height="300"/>
      <polygon class="cls-4" points="236.79 182.72 239.12 182.57 239.35 184.52 241.45 183.62 242.05 186.32 246.78 181.59 253.32 184.82 240.85 206.97 236.42 210.2 244.45 213.21 252.64 203.67 251.44 209.98 249.04 216.06 258.95 221.77 269.76 215.38 264.43 204.19 266.16 203.44 273.22 213.58 280.88 209.75 270.89 198.19 264.36 184.22 271.26 181.97 276 186.47 276.67 183.54 279.15 184.67 278.85 182.27 281.33 182.79 278.32 177.99 285.98 171.53 290.87 186.77 298.07 194.96 299.58 194.81 304.83 201.27 304.76 111.82 295.15 101.69 285.76 109.27 286.13 117.53 281.93 117.68 275.7 120.91 272.17 122.04 270.51 122.41 268.34 120.01 265.48 114.3 265.26 108.6 267.06 104.84 266.76 101.39 268.34 101.39 267.28 99.06 268.71 98.46 266.61 96.58 267.36 95.75 259.4 92.37 253.32 91.92 251.66 92.67 250.91 94.1 252.49 98.68 250.76 100.41 252.49 103.71 252.57 111 251.21 117.16 248.43 121.74 247.01 122.34 243.63 121.51 236.49 117.76 231.91 117.53 231.61 108.75 222.98 101.76 214.12 111.3 212.84 114.15 213.29 200.97 219 193.98 220.2 194.28 226.13 187.9 231.09 175.28 232.59 170.03 239.35 177.99 236.79 182.72"/>
      <path class="cls-6" d="m245.51,85.84c-.9,0-1.65.23-2.1.6.75.23,1.28.9,1.28,1.73v2.03h-2.1c-.83,0-1.5-.53-1.73-1.2-.38.45-.6,1.2-.6,2.1s.23,1.65.6,2.1c.23-.75.9-1.28,1.73-1.28h2.1v9.99c0,.75-.45,1.43-1.2,1.65.98.15,1.8,1.43,2.03,2.18.23-.75,1.05-2.03,2.03-2.18-.68-.23-1.2-.9-1.2-1.65v-9.99h2.1c.83,0,1.5.53,1.73,1.2.38-.45.6-1.2.6-2.1s-.23-1.65-.6-2.1c-.23.75-.9,1.28-1.73,1.28h-2.1v-2.03c0-.83.53-1.5,1.2-1.73-.38-.38-1.2-.6-2.03-.6h0Z"/>
      <path class="cls-7" d="m245.51,86.29c-.45,0-.9.08-1.2.23.45.38.75.98.75,1.65v2.4h-2.4c-.68,0-1.2-.3-1.65-.75-.15.38-.23.75-.23,1.2s.08.9.23,1.2c.38-.45.98-.75,1.65-.75h2.55v10.44c0,.68-.3,1.13-.75,1.58.3.23.6.45.83.68.23.23.3.45.45.75.15-.23.23-.53.45-.75.23-.3.53-.53.83-.68-.45-.38-.75-.9-.75-1.58v-10.36h2.55c.68,0,1.2.3,1.65.75.15-.38.23-.75.23-1.2s-.08-.9-.23-1.2c-.38.45-.98.75-1.65.75h-2.48v-2.4c0-.68.3-1.2.75-1.65-.75-.23-1.13-.3-1.58-.3h0Z"/>
      <polygon class="cls-5" points="231.84 192.03 228.91 191.95 225.91 193.38 225 196.61 225.38 198.11 228.68 201.64 231.31 200.14 233.42 197.89 233.94 195.86 241.53 185.95 241.23 183.47 239.5 184.52 238.9 182.49 237.85 182.87 231.84 192.03"/>
      <polygon class="cls-5" points="285.01 198.56 288.54 201.72 289.59 201.49 293.49 196.99 292.59 193.91 288.99 191.73 286.28 191.95 280.2 182.87 279.15 182.42 278.7 184.22 276.9 183.69 276.22 185.57 284.26 196.46 285.01 198.56"/>
      <polygon class="cls-6" points="232.59 199.39 237.1 201.87 236.04 206.82 231.54 204.42 232.59 199.39"/>
      <path class="cls-6" d="m211.64,151.25l-1.65.75,18.32,40.1h1.95l-18.62-40.85h0Zm21.63,47.31l-1.35,1.35.83,1.8,1.58-.75-1.05-2.4h0Z"/>
      <polygon class="cls-7" points="233.27 200.82 236.04 202.32 235.37 205.47 232.59 203.89 233.27 200.82"/>
      <polygon class="cls-3" points="258.72 188.05 269.84 181.97 282.9 175.81 285.38 172.05 285.38 150.8 232.44 150.65 232.59 172.28 234.17 174.83 244.23 180.39 257.07 186.32 258.72 188.05"/>
      <path class="cls-5" d="m231.84,124.67l.68,1.95-.15,24.78.9,1.05,7.66.9,8.26-1.2s4.81.75,8.11,1.28l.08.53s1.2-.15,1.58-.23c.38.08,1.58.23,1.58.23l.08-.53c3.3-.53,8.11-1.28,8.11-1.28l8.26,1.2,7.66-.9.9-1.05-.15-24.78.68-1.95-9.16.08s-10.44.08-17.95.15c-7.51-.08-17.95-.15-17.95-.15l-9.16-.08h0Z"/>
      <path class="cls-6" d="m249.19,152.15s-5.63-1.35-7.81-4.21c-3.68,3.3-8.11,4.51-8.11,4.51,0,0,4.58,2.1,8.11,4.73,1.65-2.33,7.81-5.03,7.81-5.03h0Z"/>
      <path class="cls-6" d="m268.71,152.15s6.16,2.7,7.81,5.03c3.53-2.63,8.11-4.73,8.11-4.73,0,0-4.43-1.13-8.11-4.51-2.1,2.85-7.81,4.21-7.81,4.21h0Z"/>
      <path class="cls-6" d="m258.95,126.77l-1.58,4.51-4.36-2.03,2.03,4.36-4.51,1.58,4.51,1.58-2.03,4.36,4.36-2.03,1.58,4.51,1.58-4.51,4.36,2.03-2.03-4.36,4.51-1.58-4.51-1.58,2.03-4.36-4.36,2.03-1.58-4.51Z"/>
      <polygon class="cls-7" points="249.94 160.41 251.44 158.76 253.24 160.49 251.59 162.14 249.94 160.41"/>
      <polygon class="cls-7" points="268.19 160.41 266.46 158.54 264.73 160.34 266.31 162.07 268.19 160.41"/>
      <polygon class="cls-7" points="264.66 163.94 263.83 165.74 263.75 170.7 265.03 173.56 266.83 174.31 266.53 167.7 267.74 163.19 264.66 163.94"/>
      <polygon class="cls-7" points="251.36 168.82 251.36 174.16 252.87 173.03 253.99 170.63 254.14 166.35 253.32 163.79 250.24 163.27 251.36 168.82"/>
      <polygon class="cls-7" points="272.92 175.43 272.84 172.13 275.62 168.45 278.85 167.7 275.24 165.9 271.72 166.65 269.91 168.82 269.76 172.2 272.32 175.21 272.92 175.43"/>
      <polygon class="cls-7" points="243.03 175.58 244 173.86 245.51 174.83 247.31 174.46 248.43 172.65 247.68 171 246.78 170.25 248.06 169.57 248.51 167.55 246.86 165.59 245.21 165.9 244.38 166.5 244 164.99 242.13 163.87 240.47 164.47 239.65 166.2 240.1 167.7 238.45 167.47 237.02 168.82 236.87 170.55 237.77 171.68 239.12 172.13 239.87 172.05 239.27 173.56 239.72 175.13 241.3 176.03 243.03 175.58"/>
      <path class="cls-8" d="m258.95,129.77l1.05,2.85,2.78-1.35-1.28,2.78,2.85,1.05-2.85,1.05,1.28,2.78-2.78-1.28-1.05,2.85-1.05-2.85-2.78,1.28,1.28-2.78-2.85-1.05,2.85-1.05-1.28-2.78,2.78,1.35,1.05-2.85h0Z"/>
      <path class="cls-6" d="m249.86,126.09c-.23,1.8-9.46,5.63-9.46,13.29,0,9.84,9.16,12.09,9.16,12.09l-.38.68-2.25,4.06s3.75.23,5.78,1.88c2.4,2.1,2.18,6.46,2.18,9.61,0,2.48-.3,5.18-1.58,6.23-1.73,1.5-2.93,1.58-2.93,3.3,0,1.43,1.13,1.73,2.93,2.7,2.33,1.2,2.18,2.85,5.63,2.85s3.3-1.65,5.63-2.85c1.8-.98,2.93-1.2,2.93-2.7,0-1.73-1.2-1.8-2.93-3.3-1.28-1.13-1.58-3.75-1.58-6.23,0-3.15-.23-7.58,2.18-9.61,2.03-1.73,5.78-1.88,5.78-1.88l-2.25-4.06-.38-.68s9.16-2.33,9.16-12.09c0-7.66-9.16-11.49-9.46-13.29-.9,3.15,3.08,7.51,3.08,12.69,0,6.68-4.96,6.98-4.96,6.98-1.13,0-1.65.83-2.1.83-.98-.08-1.43-1.35-2.4-1.35-.9,0-1.58,1.43-2.78,1.43s-1.88-1.43-2.78-1.43c-.98,0-1.43,1.2-2.4,1.35-.45,0-.9-.83-2.1-.83,0,0-4.96-.3-4.96-6.98.15-5.18,4.13-9.54,3.23-12.69h0Z"/>
      <path class="cls-8" d="m241.3,149.37c1.88,2.1,4.81,2.93,4.81,2.93l-4.73,3.53-.08.08-.08-.08-5.26-3.3s3.38-1.13,5.33-3.15h0Z"/>
      <path class="cls-8" d="m248.51,128.87c.38.83-3.08,5.78-3.08,9.91,0,5.03,2.7,8.04,6.23,8.04.68,0,1.43.9,2.1.9,1.05,0,1.73-1.2,2.4-1.2.83,0,1.35,1.28,2.78,1.28s1.95-1.28,2.78-1.28c.68,0,1.35,1.2,2.4,1.2.68,0,1.43-.9,2.1-.9,3.6,0,6.23-3,6.23-8.04,0-4.13-3.45-9.09-3.08-9.91,0,0,6.76,4.81,6.76,10.51,0,9.16-9.31,11.41-9.31,11.41l2.1,4.73s-2.85.45-4.66,1.88c-2.33,1.88-2.4,6.98-2.4,10.44,0,4.06.15,5.78,1.65,6.91,1.58,1.2,2.7,1.43,2.7,2.63,0,1.05-1.2,1.43-2.78,2.18-1.8.75-1.95,2.18-4.51,2.18s-2.7-1.35-4.51-2.18c-1.58-.68-2.78-1.13-2.78-2.18,0-1.2,1.2-1.43,2.7-2.63,1.5-1.13,1.65-2.85,1.65-6.91,0-3.45,0-8.56-2.4-10.44-1.73-1.43-4.66-1.88-4.66-1.88l2.1-4.73s-9.31-2.25-9.31-11.41c.08-5.71,6.76-10.51,6.76-10.51h0Z"/>
      <path class="cls-8" d="m276.6,149.37c1.95,2.03,5.33,3.15,5.33,3.15,0,0-3.53,1.73-5.26,3.3.08.3-.08.08-.08.08-.08.08,0-.08-.08-.08-1.65-1.88-4.73-3.53-4.73-3.53,0,0,2.93-.75,4.81-2.93h0Z"/>
      <path class="cls-6" d="m251.51,158.16l-2.18,2.18,2.18,2.18,2.18-2.18-2.18-2.18Z"/>
      <path class="cls-6" d="m266.38,158.16l-2.18,2.18,2.18,2.18,2.18-2.18-2.18-2.18Z"/>
      <path class="cls-8" d="m251.51,159.21l1.13,1.13-1.13,1.2-1.2-1.2,1.2-1.13Z"/>
      <path class="cls-8" d="m266.38,159.21l1.2,1.13-1.2,1.2-1.13-1.2,1.13-1.13Z"/>
      <path class="cls-6" d="m249.49,162.59c.45,1.05,1.5,4.43,1.5,8.49,0,2.78-.3,4.28-.3,4.28,0,0,3.08-.9,3.75-4.06.3-1.5.6-6.91-.9-7.89l-4.06-.83h0Z"/>
      <path class="cls-6" d="m268.49,162.59l-4.06.83c-1.5.9-1.2,6.38-.9,7.89.6,3.15,3.75,4.06,3.75,4.06,0,0-.3-1.5-.3-4.28,0-4.06,1.05-7.43,1.5-8.49h0Z"/>
      <path class="cls-6" d="m241.9,163.49c-.15,0-.38,0-.53.08-1.43.38-2.25,1.8-1.88,3.15.08.23.15.38.23.6-.23-.08-.45-.15-.68-.15h-.3c-1.35.08-2.4,1.05-2.55,2.4-.08,1.43.98,2.7,2.4,2.78h.6c-.15.15-.23.38-.3.53-.53,1.35.15,2.85,1.43,3.38,1.35.53,2.85-.15,3.38-1.5.08-.23.15-.38.15-.6l.45.45c1.13.9,2.78.75,3.68-.3.9-1.13.75-2.78-.3-3.68-.15-.15-.38-.23-.53-.38.23-.08.38-.15.6-.3,1.2-.75,1.58-2.4.83-3.6-.53-.83-1.43-1.28-2.4-1.2-.45,0-.83.15-1.2.38-.15.15-.38.23-.53.38,0-.23,0-.45-.08-.68-.15-.98-1.28-1.8-2.48-1.73h0Z"/>
      <path class="cls-8" d="m250.91,163.79l2.18.45c.83,1.13.68,2.93.68,5.41s-1.88,3.45-1.88,3.45c-.08-6.01-.68-7.43-.98-9.31h0Z"/>
      <path class="cls-8" d="m267.06,163.79c-.3,1.8-.98,3.3-.98,9.31,0,0-1.88-.98-1.88-3.45s-.15-4.28.68-5.41l2.18-.45h0Z"/>
      <path class="cls-8" d="m242.05,164.54c.98-.08,1.8.6,2.03,1.5.08.23.08.45.08.68,0,.15-.08.38-.15.53-.3-.15-.68-.15-.98-.15-.9,0-1.65.38-2.18.98-.15-.15-.3-.3-.38-.45-.15-.15-.23-.38-.3-.6-.3-1.05.38-2.18,1.5-2.48.15.08.3,0,.38,0h0Z"/>
      <path class="cls-6" d="m274.57,165.44c-3.3,0-5.78,2.55-5.48,5.71.3,2.63,2.48,4.88,5.11,5.56-.45-.75-.75-1.58-.83-2.48-.3-3.15,2.1-5.71,5.48-5.71.53,0,1.05.08,1.5.15-1.2-1.95-3.38-3.23-5.78-3.23h0Z"/>
      <path class="cls-8" d="m246.11,166.12c.68,0,1.28.38,1.65.98.6.98.3,2.18-.68,2.78-.23.15-.38.23-.6.23-.15.08-.38,0-.53,0v-.08c0-1.2-.75-2.25-1.73-2.7.08-.15.15-.38.3-.53l.45-.45c.38-.15.75-.23,1.13-.23h0Z"/>
      <path class="cls-8" d="m274.57,166.57c1.05,0,2.03.3,2.93.83-3.23.6-5.63,3.53-5.26,6.83-1.05-.83-1.8-2.03-1.95-3.3-.3-2.4,1.58-4.36,4.28-4.36h0Z"/>
      <path class="cls-8" d="m239.57,167.85c.23,0,.45.08.68.15.15.08.3.15.45.3-.38.53-.6,1.13-.6,1.8,0,.53.15,1.05.38,1.5-.15.08-.38.23-.53.23-.23.08-.38.08-.6.08-1.13-.08-1.95-1.05-1.88-2.18,0-1.13.98-1.95,2.1-1.88h0Z"/>
      <path class="cls-8" d="m243.03,168.15c1.05,0,1.95.9,1.95,1.95s-.9,1.95-1.95,1.95-1.95-.9-1.95-1.95c0-1.13.9-1.95,1.95-1.95Z"/>
      <path class="cls-8" d="m245.96,170.4c.23,0,.38.08.6.15s.38.15.53.3c.83.75.98,2.03.23,2.85-.75.83-2.03.98-2.85.23-.15-.15-.3-.3-.45-.53-.08-.15-.15-.3-.23-.45,1.2-.38,2.1-1.35,2.18-2.55h0Z"/>
      <path class="cls-8" d="m240.55,171.75c.53.75,1.43,1.28,2.48,1.28.23,0,.45,0,.6-.08.08.15.08.38.08.6s-.08.45-.15.6c-.45,1.05-1.58,1.58-2.63,1.13s-1.58-1.58-1.13-2.63c.08-.23.23-.38.38-.53.08-.15.23-.3.38-.38h0Z"/>
      <path class="cls-6" d="m255.42,176.56c-1.8,0-3,.38-3,.9s1.13.9,3,.9c.45,0,1.05-.3,1.05-.9s-.53-.9-1.05-.9h0Z"/>
      <path class="cls-6" d="m262.48,176.56c-.45,0-1.05.3-1.05.9,0,.68.53.9,1.05.9,1.8,0,3-.38,3-.9s-1.2-.9-3-.9h0Z"/>
      <path class="cls-6" d="m315.57,144.34l-3.15,2.33.38.75s-.6.23-.83.68c-.23.53.15,1.2.15,1.2,0,0-3-.23-3.45.08s.15,2.33-.08,4.13c-.38,2.48-1.35,2.25-1.43,2.7s.38,1.2.38,1.2c0,0-.53.15-.68.38-.23.38.15,1.05-.08,1.5-1.28,2.55-3.23,6.31-4.51,8.86-.15.38-.68.45-.9.98-.23.45-.08,1.05-.08,1.05,0,0-.83.08-1.13.6-.3.6-.15,1.43-.15,1.43,0,0-.53.08-.83.6-.3.53.23.83.08,1.05-1.73,3.38-3.75,7.36-4.96,9.76-.45.9-2.03,1.05-2.93,2.85-.9,1.73.38,3.08.38,3.08,0,0-1.35.15-1.65.83-.38.68-.08,1.8.9,2.25.98.45,2.03.08,2.33-.6.38-.68-.38-1.8-.38-1.8,0,0,1.8.23,2.7-1.5.9-1.8.15-3.15.6-4.06,1.2-2.4,3.23-6.38,4.96-9.76.15-.23.6,0,.9-.6.23-.53,0-.98,0-.98,0,0,.75-.38,1.13-.98.3-.6-.15-1.28-.15-1.28,0,0,.6-.23.83-.68.23-.45.08-.9.23-1.28,1.28-2.48,3.23-6.31,4.51-8.86.23-.45.98-.6,1.2-.98.15-.23-.08-.83-.08-.83,0,0,.83-.08,1.2-.38s-.38-.98,1.35-2.7c1.28-1.28,3.3-2.03,3.23-2.48,0-.53-2.03-2.85-2.03-2.85,0,0,.83-.08,1.13-.6.23-.53.08-1.13.08-1.13l.83-.15v-3.83h0Zm-29.66,56.32c-.38.08-.68.3-.75.45-.15.23-.15.6,0,.9,0,0-.98-.3-1.35-.15-.3.15,0,4.88,0,4.88,0,0,3.98-2.48,3.91-2.85-.08-.38-.9-.98-.9-.98.3-.08.6-.23.68-.53.15-.23.15-.98-.75-1.43-.3-.3-.6-.38-.83-.3h0Z"/>
      <path class="cls-6" d="m255.19,91.47c-.98,0-2.48,0-3.3.6-.75.53-.75,1.2-.98,1.43-.68.53-1.73.53-2.25.53-3.45,0-3.6,3.68-3.6,3.68,0,0,.9-1.35,2.48-1.35,2.63,0,4.58,1.43,4.58,1.95,0,.23-.3.23-.3.23-1.73,0-4.28-.98-5.63-1.05v.53l.08.08h-.08v.08c3,1.05,6.08,2.55,6.08,9.16,0,4.13-.53,8.41-2.55,11.72-.75,1.2-1.8,2.18-3.08,3.08-.53-.15-3.23-.98-5.03-2.03-3.23-1.8-4.96-3.6-8.79-3.83v-2.85c0-1.58.6-3,.6-4.51-1.65-.45-6.16-6.01-10.36-8.41-6.16,3.98-10.89,10.51-10.89,13.52,0,0,.15,64.58,0,87.04,0,1.28-.75,3.15-.75,3.15,2.25-.98,6.38-6.61,7.21-8.71v1.05c3.38-1.58,5.86-5.63,6.98-7.74,0,.3.08,1.05.08,1.05,3-2.63,6.91-18.32,6.91-18.32l-.23-3.3s-2.63,12.84-5.71,15.47v-55.12l2.4,2.25,3.6-3.38v-2.55l-3.23,3v-7.81c.45-.75.83-1.28,1.05-1.73.53.9,2.18,3.68,4.21,5.41.3-1.35,2.48-2.55,2.48-2.55,0,0,.75,2.1,1.95,2.63.45-.75,2.85-2.33,2.85-2.33,0,0-2.1.3-3,1.13-.75-.15-.9-3.08-.9-3.08,0,0-3.08,1.5-3.68,2.63-.6-.15-1.5-2.48-1.88-3.45.53-.08,1.28-.15,2.33-.15.9,0,2.03.45,3.23.98,1.28.6,2.7,1.43,3.91,1.95,1.58.68,3.91.83,4.66.9-.83.53-1.65,1.05-2.63,1.5,0,0,3.75,0,6.31-1.35.9-.6,1.88-1.2,2.7-1.88-.38.98-.9,2.18-1.8,3.15,3.83-.3,5.78-2.55,6.31-3.23.23.68.68,1.73,1.43,2.63.68-.9,1.2-1.95,1.43-2.63.53.75,2.48,2.93,6.31,3.23-.9-.98-1.43-2.18-1.8-3.15.83.68,1.8,1.28,2.7,1.88,2.63,1.28,6.31,1.35,6.31,1.35-.98-.45-1.8-.98-2.63-1.5.68,0,3.08-.15,4.66-.9,1.2-.53,2.55-1.35,3.91-1.95,1.2-.53,2.33-.98,3.23-.98.98,0,1.8.08,2.33.15-.38.98-1.28,3.3-1.88,3.45-.53-1.05-3.68-2.63-3.68-2.63,0,0-.23,2.93-.9,3.08-.83-.83-3-1.13-3-1.13,0,0,2.48,1.65,2.85,2.33,1.2-.53,1.95-2.63,1.95-2.63,0,0,2.18,1.28,2.48,2.55,1.95-1.73,3.68-4.51,4.21-5.41.23.45.6,1.05,1.05,1.73v7.81l-3.23-3v2.55l3.6,3.38,2.4-2.25v55.12c-3-2.63-5.71-15.47-5.71-15.47l-.23,3.3s3.83,15.7,6.91,18.32c0,0,.08-.75.08-1.05,1.13,2.1,3.6,6.16,6.98,7.74v-1.05c.9,2.1,4.96,7.74,7.21,8.71,0,0-.75-1.8-.75-3.15-.15-22.53,0-87.04,0-87.04,0-3-4.73-9.54-10.89-13.52-4.21,2.48-8.71,7.96-10.36,8.41,0,1.5.6,2.93.6,4.51v2.93c-3.83.15-5.56,2.03-8.79,3.83-1.88,1.05-4.51,1.88-5.03,2.03-1.28-.9-2.33-1.88-3-3.08-1.8-2.85-2.55-6.31-2.55-9.84,0-1.5,1.65-3.15,1.65-4.43,0-1.8-.15-2.93-.15-2.93.6.08,1.65,1.13,1.65,1.13,0,0,0-3-.98-3.6,0,0,.38-.38,1.8-.45-.38-.98-2.33-2.25-2.33-2.25.08-.15.3-.3.53-.45.53-.3,1.2-.45,1.73-.53-.53-.15-1.2-.3-1.95-.53-1.65-.53-3.53-1.28-5.33-2.18-3.3-1.5-5.78-1.58-7.13-1.58h0Zm.08.9h.83c3.15,0,5.41,1.43,8.41,2.78.83.38,1.5.6,2.18.83-.38.38-.75.75-.83,1.05,0,0,1.35.23,1.95,1.35,0,0-1.28.15-1.5.9.75.08,1.43.98,1.43,1.8l-1.8-.6s.45,2.03.45,4.28c0,1.13-1.65,2.48-1.65,4.43,0,6.01,1.5,8.34,2.63,10.21.45.75.75,1.58,1.5,2.18-3.08-1.65-5.41-3.75-5.41-5.63v-7.28h-.83v7.28c0,1.43.38,2.03.38,2.03.53,1.58,1.5,3.91,2.1,4.88-2.85-1.58-4.36-3.45-4.36-4.21v-9.99h-.83v10.14l.15.68c-.38.53-.83,1.13-1.13,1.35-.3-.23-.75-.83-1.13-1.35l.15-.68v-10.14h-.83v9.99c0,.75-1.43,2.63-4.36,4.21.6-.98,1.58-3.38,2.1-4.88,0,0,.38-.68.38-2.03v-7.28h-.83v7.28c0,1.95-2.33,3.98-5.41,5.63.68-.6,1.05-1.5,1.43-2.18,1.2-2.03,2.63-4.66,2.63-12.02,0-2.78-.38-4.66-1.13-6.01-.23-.45-.53-1.58,1.13-1.58.83,0,2.85,1.5,2.85,1.5,0,0-.08-1.2-1.05-1.88-.15-.15-.45-.45-.45-.83,0-.23.45-.9.75-1.05.23-.08-3.38-.75-3.38-2.4,0-.38.23-.6.98-.6.98,0,2.55,1.2,3.98,1.2,1.05,0,1.5-.23,2.55-.23,1.35,0,4.06,2.48,5.03,2.4-1.05-.68-2.78-3.15-5.33-3.15-.9,0-1.73.23-2.55.23-1.05,0-2.1-.98-3.3-.98-.75,0-1.65.08-1.73-.15-.23-.38,0-.53.15-.83.38-.53,1.5-.68,2.55-.75.53.08.83.08,1.13.08h0Zm-32.29,10.96h0s5.71,5.26,7.66,5.93l.08,1.73v5.18c-1.43-.45-3.15-2.78-3.98-3.98v-.68c0-.68.38-1.13.68-1.43l-.83-.3c-.3.38-.68.9-.68,1.58v.38l-.3.3-.15.15-2.1,2.25-2.48-3.75v-.9c0-.6.45-1.28.9-1.73l-.83-.3c-.45.53-.83,1.28-.83,1.95v.75c-.6.6-2.85,2.93-2.85,2.93,0,0-1.13-2.4-1.43-3.08,1.73-2.4,4.51-5.11,7.13-6.98h0Zm71.94,0c2.63,1.95,5.41,4.58,7.13,6.98-.3.68-1.43,3.08-1.43,3.08,0,0-2.25-2.33-2.85-2.93v-.75c0-.68-.45-1.43-.83-1.95l-.83.3c.38.45.9,1.13.9,1.73v.9l-2.48,3.75-2.1-2.25-.15-.15-.3-.3v-.38c0-.68-.38-1.28-.68-1.58l-.83.3c.3.3.68.75.68,1.43v.68c-.83,1.2-2.63,3.53-3.98,3.98v-5.18l.08-1.73c1.95-.75,7.66-5.93,7.66-5.93h0Zm-80.05,8.56l1.28,2.4v4.28l-2.03,1.88v-6.38c.08-.68.3-1.43.75-2.18h0Zm88.16,0c.45.83.68,1.5.68,2.18v6.38l-2.03-1.88v-4.28l1.35-2.4h0Zm-82.98.53l2.25,3.45v2.63l-2.25,2.18v-8.26h0Zm77.8,0v8.26l-2.25-2.18v-2.63l2.25-3.45h0Zm-78.63.6v7.66l-2.25-2.1v-3.08l2.25-2.48h0Zm79.45,0l2.25,2.4v3.08l-2.25,2.1v-7.58h0Zm-72.39.6c.38.6,1.95,3.15,3.45,3.83-.53.75-1.95,2.55-3.45,3.38v-7.21h0Zm65.33,0v7.28c-1.5-.83-2.93-2.63-3.45-3.38,1.58-.83,3.15-3.38,3.45-3.91h0Zm-66.16.38v6.68l-2.25-2.1v-2.4l2.25-2.18Zm66.99,0l2.25,2.18v2.4l-2.25,2.1v-6.68h0Zm-76.3,7.13v6.68l-2.03-1.88v-3l2.03-1.8Zm85.61,0l2.03,1.88v3l-2.03,1.88v-6.76Zm-84.79,0l1.28,1.2.98.9v2.4l-.98.9-1.28,1.2v-6.61h0Zm5.41,0v6.68l-1.28-1.2-.98-.9v-2.4l.98-.9,1.28-1.28Zm.83,0l2.25,2.18v2.4l-.98.9-1.28,1.2v-6.68h0Zm5.33,0v6.68l-1.28-1.2-.98-.9v-2.25c.75-.53,1.58-1.43,2.25-2.33h0Zm60.83,0c.68.9,1.5,1.8,2.25,2.33v2.25l-.98.9-1.28,1.2v-6.68h0Zm5.41,0v6.68l-1.28-1.2-.98-.9v-2.4l2.25-2.18h0Zm.83,0l1.28,1.2.98.9v2.4l-.98.9-1.28,1.2v-6.61h0Zm5.33,0v6.68l-1.28-1.2-.98-.9v-2.4l.98-.9,1.28-1.28h0Zm-80.58,7.36l2.4,2.25,2.4-2.25v55.2s.15,2.7.3,4.51c-1.05,1.05-5.11,5.18-5.11,5.18v-64.88h0Zm77.2,0v64.88s-4.06-4.06-5.11-5.18c.15-1.8.3-4.51.3-4.51v-55.2l2.4,2.25,2.4-2.25h0Zm-78.55,0v62.78c0,1.8-3.23,5.93-4.81,6.83v-69.62l2.4,2.25,2.4-2.25h0Zm79.98,0l2.4,2.25,2.4-2.25v69.62c-1.58-.98-4.81-5.11-4.81-6.83v-62.78h0Zm-60.08,49.34s-2.33,4.73-3.23,5.56c0,0,.6.08,1.28.08-.45.6-3.68,5.26-4.66,6.98-.98,1.65-1.65.9-3.08.9-1.2,0-3.98,1.95-4.43,2.7-.45.83-.83,1.8-.83,2.63,0,.9.98,2.1.98,2.1.08-.45.3-.6.3-.6,0,0,2.48,3.15,2.85,3.53.3.3,1.58.53,2.03.15,1.13-1.05,2.25-1.73,3.23-3.23.53-.75.53-1.65,1.13-2.48,1.95-2.78,5.93-8.04,6.83-9.16.08.3.08.6.15.98,1.05-2.1,5.93-6.01,5.93-6.01l-1.35-.9s-3,3.45-3.91,4.13c0,0-.38-1.73-.68-2.33,0,0-1.13.83-1.73.9,0,0-.15-1.2-.3-1.95-.75.53-2.1.38-2.1.38,1.13-.53,2.48-3.83,2.48-3.83l-.9-.53h0Zm40.1,0l-.98.45s1.35,3.3,2.48,3.83c0,0-1.28.08-2.1-.38-.15.75-.3,1.95-.3,1.95-.6,0-1.73-.9-1.73-.9-.23.6-.68,2.33-.68,2.33-.98-.68-3.91-4.13-3.91-4.13l-1.35.9s4.96,3.98,5.93,6.01c.08-.38.08-.6.15-.98.9,1.2,4.88,6.46,6.83,9.16.6.83.6,1.73,1.13,2.48.98,1.5,2.1,2.18,3.23,3.23.45.38,1.73.23,2.03-.15.38-.38,2.85-3.53,2.85-3.53,0,0,.15.15.3.6,0,0,.98-1.2.98-2.1,0-.83-.38-1.8-.83-2.63-.45-.75-3.15-2.7-4.43-2.7-1.43,0-2.1.75-3.08-.9-.98-1.73-4.21-6.38-4.66-6.98.68,0,1.28-.08,1.28-.08-.83-.75-3.15-5.48-3.15-5.48h0Zm-40.48,5.33s0,1.58.45,2.18l1.73-1.2s.15.6.3,1.35c-.75,1.05-5.11,6.98-7.21,9.84-.53.75-.98,2.55-.98,2.55,0,0-.75-.38-.75-1.05s.08-1.43.08-1.43c0,0-.6.68-1.58.68,0-.83,1.58-1.65,1.65-2.85-1.2.9-2.25.45-3.6.83-1.5.45-1.95,1.13-2.4,1.05-.3,0-.53-.45-.38-.75.15-.53,2.03-1.88,3.3-2.1.3-.08,2.78.53,3.23-.23,2.03-3.15,5.33-8.19,5.63-8.71.23,0,.38-.08.53-.15h0Zm40.85,0c.15.08.38.15.53.23.3.53,3.6,5.56,5.63,8.71.53.75,2.93.15,3.23.23,1.28.23,3.15,1.65,3.3,2.1.08.3-.15.75-.38.75-.45,0-.9-.6-2.4-1.05-1.35-.45-2.4,0-3.6-.83.08,1.13,1.65,2.03,1.65,2.85-.98,0-1.58-.68-1.58-.68,0,0,.08.75.08,1.43s-.75,1.05-.75,1.05c0,0-.45-1.8-.98-2.55-2.18-2.85-6.46-8.79-7.21-9.84.15-.83.3-1.35.3-1.35l1.73,1.2c.45-.68.45-2.25.45-2.25h0Zm-26.73,1.2s-9.61,22.15-18.17,25.53c0,0,3.75,1.58,8.26,3.98.68.38,1.35.75,2.03,1.13.6-.68,1.2-1.43,1.8-2.25,2.7-3.68,5.41-7.89,5.41-7.89.15,1.13-1.28,4.51-3.68,8.71-.45.83-.98,1.65-1.5,2.55.6.38,1.2.68,1.88,1.05,4.51,2.7,8.79,5.86,10.36,8.71,1.58-2.85,5.86-6.01,10.36-8.71.6-.38,1.2-.75,1.88-1.05-.53-.9-1.05-1.73-1.5-2.55-2.4-4.21-3.91-7.58-3.68-8.71,0,0,2.7,4.21,5.41,7.89.6.83,1.2,1.58,1.8,2.25.68-.38,1.35-.75,2.03-1.13,4.58-2.4,8.26-3.98,8.26-3.98-8.56-3.38-18.17-25.53-18.17-25.53l-1.43.38s7.66,19.15,15.17,24.93c-1.73.53-3.68,1.28-5.78,2.1-2.48-2.93-5.11-6.91-7.21-10.44-2.25-3.83-4.13-10.51-4.13-10.51-1.05,2.55,1.2,15.4,5.71,23.58-3.75,1.95-7.06,4.06-8.71,5.78-1.58-1.73-4.96-3.83-8.71-5.78,4.51-8.11,6.76-21.03,5.71-23.58,0,0-1.88,6.68-4.13,10.51-2.1,3.53-4.73,7.51-7.21,10.44-2.03-.9-4.06-1.65-5.78-2.1,7.51-5.78,15.17-24.93,15.17-24.93l-1.43-.38h0Zm-25.16,10.59c.08,0,.15.08.15.08.08.15.08.3,0,.38l-.83.68c-.08.08-.3.08-.38-.08s-.08-.3,0-.38l.83-.68h.23Zm63.01,0c.08,0,.15,0,.15.08l.83.68c.08.08.15.23,0,.38-.08.15-.3.15-.38.08l-.83-.68c-.08-.08-.15-.23,0-.38.08-.08.15-.15.23-.15h0Zm-62.11.75c.23,0,.38.08.53.23.23.3.23.68,0,.9l-1.95,1.73c-.23.23-.68.15-.9-.08-.23-.3-.23-.68,0-.9l1.95-1.65c.08-.23.23-.23.38-.23h0Zm61.05,0h.15c.15,0,.23.08.38.15l1.95,1.65c.23.23.3.6,0,.9-.23.3-.68.3-.9.08l-1.95-1.73c-.23-.23-.3-.6,0-.9.15-.08.23-.15.38-.15h0Zm-60,1.28c.23,0,.45.08.6.23.23.3.23.68,0,.9l-1.95,1.73c-.23.23-.68.15-.9-.08-.23-.3-.23-.68,0-.9l1.95-1.65c.08-.15.23-.23.3-.23h0Zm58.95,0h.15c.15,0,.23.08.3.15l1.95,1.65c.23.23.3.6,0,.9-.23.3-.6.3-.9.08l-1.95-1.73c-.23-.23-.3-.6,0-.9.15,0,.3-.15.45-.15h0Zm-57.67,1.28c.23,0,.38.08.53.23.23.3.23.68,0,.9l-1.95,1.65c-.23.23-.68.15-.9-.08-.23-.3-.23-.68,0-.9l1.95-1.73c.15,0,.23-.08.38-.08h0Zm56.4,0h.15c.15,0,.23.08.3.15l1.95,1.73c.23.23.23.6,0,.9s-.6.3-.9.08l-1.95-1.65c-.23-.23-.3-.6,0-.9.23-.23.3-.3.45-.3h0Z"/>
      <path class="cls-7" d="m314.97,145.47l-1.88,1.28.9.45.9.45.08-2.18h0Zm-1.8,2.18c-.3,0-.6.23-.75.53-.23.45,0,1.05.53,1.35s1.13.08,1.43-.38c.23-.45,0-1.05-.53-1.35-.23-.15-.45-.15-.68-.15h0Zm-3.45,2.18c-.3,0-.45,0-.53.08-.23.15.08,1.8,0,3.23-.08,1.35-.45,1.73-.75,2.18-.23.45-.98.9-.98.9l.68.68s.45-.68,1.13-1.95c.83-1.58.75-4.36.98-4.51s1.88-.53,1.88-.53c-.08,0-1.58-.08-2.4-.08h0Zm2.85.38s-1.73.3-1.95.6c-.23.23-.15,2.55-1.05,4.36-.75,1.5-1.13,2.03-1.13,2.03l.45.23.45.23s.23-.6.98-2.1c.9-1.8,2.85-3.08,2.93-3.45.08-.3-.68-1.88-.68-1.88h0Zm.6.23s.6,1.58.68,1.8c0,.3-2.25,1.88-3.08,3.45-.68,1.28-.98,2.03-.98,2.03l.9.15s-.08-.9.15-1.35c.23-.45.3-1.05,1.35-1.88,1.13-.9,2.63-1.65,2.63-1.88s-1.65-2.33-1.65-2.33h0Zm-5.18,7.43c-.3,0-.53.23-.6.45-.15.38-.08.83-1.43,3.45-.6,1.2-.83,1.65-1.5,2.93-.68,1.28-1.65,3.15-1.65,3.15,0,0-.3.6.3.9.6.3.9-.3.9-.3,0,0,.98-1.88,1.65-3.15.68-1.28.9-1.73,1.5-2.93,1.35-2.7,1.8-2.85,1.95-3.23s.15-.83-.45-1.2c-.3-.08-.53-.08-.68-.08h0Zm-5.86,11.26c-.23,0-.38.15-.53.3-.15.3.15.83.68,1.13.53.3,1.13.23,1.28-.15.15-.3-.15-.83-.68-1.13-.3-.15-.53-.23-.75-.15h0Zm-.83,1.58c-.38,0-.75.15-.83.38-.23.45.15,1.05.75,1.35.68.3,1.35.23,1.58-.15.23-.45-.15-1.05-.75-1.35-.3-.15-.53-.15-.75-.23h0Zm-1.05,2.03c-.23,0-.38.15-.53.3-.15.3.15.83.68,1.13.53.3,1.13.23,1.28-.15.15-.3-.15-.83-.68-1.13-.3-.08-.53-.15-.75-.15h0Zm-.53,1.8c-.3.08-.53.38-.53.38,0,0-3.45,6.83-4.66,9.16-.38.75-2.03,1.28-2.7,2.48-.68,1.28-.23,2.48.68,2.85.83.45,2.1.15,2.7-1.13.68-1.28.08-2.85.45-3.6,1.2-2.4,4.66-9.16,4.66-9.16,0,0,.38-.6-.3-.9,0-.08-.15-.08-.3-.08h0Zm-8.34,15.62c-.38,0-.75.23-.9.53-.23.53,0,1.2.68,1.5.6.3,1.35.15,1.65-.38.23-.53-.08-1.2-.68-1.5-.3-.08-.53-.15-.75-.15h0Zm-5.48,10.96c-.23,0-.38.08-.45.23-.15.23.15.68.6.9.45.23.98.23,1.13-.08.15-.23-.15-.68-.6-.9-.23-.15-.45-.15-.68-.15h0Zm-1.65,1.28v3.38l2.7-1.95s-.38-.68-1.2-1.05c-.75-.45-1.5-.38-1.5-.38h0Z"/>
      <path class="cls-6" d="m217.34,182.87s1.58,3.15,2.7,3.6c-.6-.15-2.55.53-2.55.53,0,0,3.45,3.08,6.38,3.3,2.48.15,3.68-1.05,3.68-1.05l-.53-2.63s-1.5-1.88-3.98-2.7c-2.4-.83-5.71-1.05-5.71-1.05h0Z"/>
      <path class="cls-6" d="m228.98,177.16s-2.1,1.8-2.7,3.91c-.6,2.1.38,4.51.38,4.51l1.8,3.3s2.48-1.35,3.53-3.3c1.05-1.95.68-4.66.68-4.66,0,0-1.95.75-2.18,1.05.38-2.03-1.5-4.81-1.5-4.81h0Z"/>
      <path class="cls-6" d="m222.15,176.33s-2.4.83-4.81.68c-2.25-.15-4.13-2.03-4.13-2.03,0,0,1.88-1.28,2.78-1.13-.98-.38-2.48-2.93-2.48-2.93,0,0,2.1-.6,3.91.08,1.88.68,3.45,2.7,3.45,2.7l1.28,2.63h0Z"/>
      <path class="cls-6" d="m222.98,164.54s1.2,2.48.9,3.38c.38-.6,1.8-1.5,1.8-1.5,0,0,.83,4.06,0,6.53-.83,2.48-3.3,3.45-3.3,3.45l-2.78-5.41s-.38-1.95.45-3.53c.9-1.58,2.93-2.93,2.93-2.93h0Z"/>
      <path class="cls-6" d="m207.21,157.86s2.63-.3,5.03.75c2.03.83,2.63,2.33,2.63,2.33l.98,2.63s-2.85,1.05-5.11.23-3.91-3.53-3.91-3.53c0,0,1.58-.6,2.18-.38-.9-.38-1.8-2.03-1.8-2.03h0Z"/>
      <path class="cls-6" d="m215.39,152.98s1.13,1.5,1.2,3.15c.3-.9,1.73-1.88,1.73-1.88,0,0,1.5,3.6,1.13,6.08-.3,2.55-2.48,4.06-2.48,4.06l-2.63-5.03s-.83-2.03-.6-3.68c.3-1.58,1.65-2.7,1.65-2.7h0Z"/>
      <path class="cls-6" d="m206.38,143.37s-.45,2.7.3,4.28c.75,1.43,1.2,1.73,1.2,1.73-1.35-.9-3.45-.98-3.45-.98,0,0,.75,3,2.48,4.36,1.8,1.35,4.51,1.05,4.51,1.05,0,0,1.8-2.4,1.65-4.96-.15-2.55-2.18-5.33-2.18-5.33,0,0-.83,1.65-.9,2.93-.45-1.35-3.6-3.08-3.6-3.08h0Z"/>
      <path class="cls-1" d="m207.13,145.02s-.08,2.03.6,3.15,2.1,1.58,2.1,1.58c0,0,.08-2.03-.6-3.15-.6-1.13-2.1-1.58-2.1-1.58Z"/>
      <path class="cls-1" d="m205.78,149.52s1.73.08,2.7.9c.98.75,1.43,2.4,1.43,2.4,0,0-1.13.15-2.18-.68-.98-.83-1.95-2.63-1.95-2.63Z"/>
      <path class="cls-1" d="m211.26,145.47s-.6,1.35-.53,2.78c.08,1.43.9,3,.9,3,0,0,.75-1.73.68-3.15-.08-1.35-.9-2.18-1.05-2.63h0Z"/>
      <path class="cls-1" d="m208.33,158.39s.83,1.2,2.18,1.88c1.28.68,3.3.68,3.3.68,0,0-.98-1.28-2.25-1.95-1.43-.68-3.23-.6-3.23-.6h0Z"/>
      <path class="cls-1" d="m208.71,161.16s.6,1.2,1.8,1.73c1.13.53,3.53.45,3.53.45,0,0-.9-1.13-2.03-1.65-1.2-.53-3.3-.53-3.3-.53h0Z"/>
      <path class="cls-1" d="m215.32,154.63s-.68,1.13-.6,2.4.9,2.63.9,2.63c0,0,.6-1.58.53-2.85-.08-1.28-.83-2.18-.83-2.18h0Z"/>
      <path class="cls-1" d="m217.87,156.21s-1.2,1.58-1.35,3.23c-.15,1.65.68,3.3.68,3.3,0,0,1.43-1.43,1.58-3.08.23-1.58-.9-3.45-.9-3.45h0Z"/>
      <path class="cls-1" d="m214.64,171.3s.15.6.6,1.2c.53.6,1.35,1.28,1.35,1.28,0,0,.83-.3,1.8-.08,1.05.23,2.4,1.13,2.4,1.13,0,0-1.43-2.18-3-3-1.5-.75-3.15-.53-3.15-.53h0Z"/>
      <path class="cls-1" d="m214.49,175.06s1.88-.83,3.45-.6c1.58.23,2.93,1.43,2.93,1.43,0,0-2.1.75-3.68.53-1.58-.23-2.7-1.35-2.7-1.35h0Z"/>
      <path class="cls-1" d="m222.45,166.27s-1.65,1.8-1.8,3.3c-.15,1.5,1.35,2.93,1.35,2.93,0,0-.08-.98.15-1.65.23-.68.83-1.35.83-1.35,0,0,.23-.83.15-1.43-.15-.83-.68-1.8-.68-1.8h0Z"/>
      <path class="cls-1" d="m224.85,168.37s-1.58,1.58-1.95,3.3c-.45,1.73.3,3.53.3,3.53,0,0,1.43-1.13,1.88-2.85.38-1.73-.23-3.98-.23-3.98h0Z"/>
      <path class="cls-1" d="m228.76,178.59s.68,1.5.9,2.7c.15,1.28,0,1.65,0,1.65,0,0-.75.75-1.05,1.13-.45.53-.45,1.58-.45,1.58,0,0-1.5-2.18-1.28-3.83.23-1.5,1.88-3.23,1.88-3.23h0Z"/>
      <path class="cls-1" d="m231.91,182.04s-1.88,1.28-2.63,2.55c-.75,1.28-.38,2.63-.38,2.63,0,0,1.35-.15,2.1-1.43s.9-3.75.9-3.75h0Z"/>
      <path class="cls-1" d="m219.45,187.3s2.7-.08,4.43.3c1.65.38,2.25,1.28,2.25,1.28,0,0-1.88.9-3.53.45-1.73-.3-3.15-2.03-3.15-2.03h0Z"/>
      <path class="cls-1" d="m219,184.07s1.2,1.88,2.85,2.63c2.18.98,4.73.53,4.73.53,0,0-1.35-1.73-3.3-2.4-1.88-.83-4.28-.75-4.28-.75h0Z"/>
      <path class="cls-6" d="m227.71,189.18l.08.98c1.65,0,1.88-.15,2.33.38.3.38.98.68,1.58.3.68-.3.98-1.13.68-1.8s-.9-.83-1.5-.68c-.38.08-.6.38-.9.53-.6.38-2.25.3-2.25.3h0Z"/>
      <path class="cls-6" d="m227.63,188.42l.83.6c-.83,1.43-1.13,1.5-.9,2.1.15.45.08,1.13-.6,1.58-.6.38-1.43.23-1.88-.38-.38-.6-.23-1.2.23-1.65.23-.3.6-.3.9-.53.6-.3,1.43-1.73,1.43-1.73h0Z"/>
      <path class="cls-6" d="m222.08,176.78l.08.98c1.65,0,1.88-.15,2.33.38.3.38.98.68,1.58.3.68-.3.98-1.13.68-1.8s-.9-.83-1.5-.68c-.38.08-.6.38-.9.53-.68.38-2.25.3-2.25.3h0Z"/>
      <path class="cls-6" d="m222.38,177.16l.68.68c-1.05,1.28-1.35,1.35-1.2,1.95.08.45-.15,1.13-.83,1.43s-1.5,0-1.8-.68,0-1.2.45-1.58c.3-.23.68-.23.98-.38.75-.23,1.73-1.43,1.73-1.43h0Z"/>
      <path class="cls-6" d="m216.59,165.14l.08.98c1.65,0,1.88-.15,2.33.38.3.38.98.68,1.58.3.68-.3.98-1.13.68-1.8s-.9-.83-1.5-.68c-.38.08-.6.38-.9.53-.68.38-2.25.3-2.25.3h0Z"/>
      <path class="cls-6" d="m217.04,164.92l.68.68c-1.05,1.28-1.35,1.35-1.2,1.95.08.45-.15,1.13-.83,1.43s-1.5,0-1.8-.68,0-1.2.45-1.58c.3-.23.68-.23.98-.38.68-.15,1.73-1.43,1.73-1.43h0Z"/>
      <path class="cls-6" d="m210.74,152.9l.08.98c1.65,0,1.88-.15,2.33.38.3.38.98.68,1.58.38.68-.3.98-1.13.68-1.8s-.9-.83-1.5-.68c-.38.08-.6.38-.9.53-.68.3-2.25.23-2.25.23h0Z"/>
      <path class="cls-6" d="m211.19,152.68l.68.68c-1.05,1.28-1.35,1.35-1.2,1.95.08.45-.15,1.13-.83,1.43s-1.5,0-1.8-.68,0-1.2.45-1.58c.3-.23.68-.23.98-.38.68-.15,1.73-1.43,1.73-1.43h0Z"/>
      <path class="cls-7" d="m221.02,173.86c-.6.23-1.43-2.33-2.1-3.68-.68-1.43-1.95-3.6-1.58-3.83.45-.23.98.98,1.65,2.4.68,1.5,2.55,4.88,2.03,5.11h0Z"/>
      <path class="cls-7" d="m215.02,160.49c-.6.23-1.2-1.43-1.88-2.85s-1.28-2.48-.9-2.63c.45-.23,1.05,1.05,1.58,2.25.53,1.13,1.73,3,1.2,3.23h0Z"/>
      <path class="cls-7" d="m228.91,190.9c-.45.15-2.48-4.06-4.06-7.58-1.65-3.53-2.85-6.46-2.48-6.61.45-.23,1.73,3.15,3.38,6.68,1.58,3.53,3.53,7.36,3.15,7.51h0Z"/>
      <path class="cls-10" d="m245.73,96.28s.68-1.28,2.4-1.28c.68,0,3.08-.08,3.08-.08.3.83,1.73,2.18,1.73,3.6,0,0-1.43-2.63-5.48-2.63-1.05,0-1.73.38-1.73.38h0Z"/>
      <path class="cls-6" d="m250.99,96.66s-.98-.3-.98-.68c0-.45.45-.45.75-.08.15.23.23.75.23.75h0Z"/>
      <path class="cls-5" d="m252.34,99.06s-.83.9-1.05,1.35c-.83-.3-2.33-1.88-2.33-1.88,0,0,1.2.75,3.38.53h0Z"/>
      <path class="cls-6" d="m256.62,96.66c0,.6-.6,1.13-1.43,1.13-.75,0-1.43-.53-1.43-1.13h0c0-.6.6-1.13,1.43-1.13s1.43.53,1.43,1.13h0Z"/>
      <path class="cls-7" d="m256.25,96.66c0,.53-.45.98-.98.98s-.98-.45-.98-.98.45-.98.98-.98.98.45.98.98Z"/>
      <path class="cls-6" d="m255.64,96.66c0,.23-.15.45-.38.45s-.45-.15-.45-.38h0c0-.23.15-.45.38-.45.23-.08.45.15.45.38h0Z"/>
      <path class="cls-7" d="m229.51,123.99s2.4,1.8,2.4,3.68v43.86c0,1.13.38,1.88.9,2.63.6.83,1.8,1.88,3,2.7,3.91,2.48,10.36,5.18,15.24,7.36,4.06,1.88,5.71,2.63,7.89,5.26,2.1-2.63,3.83-3.38,7.89-5.26,4.88-2.25,11.34-4.88,15.24-7.36,1.28-.83,2.48-1.88,3-2.7.6-.75.9-1.5.9-2.63v-43.86c0-1.88,2.4-3.68,2.4-3.68h-58.88Zm3.08,1.35h52.72s-.68.83-.68,2.25v43.86c0,.98-.98,3.23-6.76,6.08-9.46,4.73-16.75,6.91-18.92,9.61-2.18-2.7-9.46-4.88-18.92-9.61-5.71-2.85-6.76-5.11-6.76-6.08v-43.86c0-1.35-.68-2.25-.68-2.25h0Z"/>
    </g>
  </g>
</svg>