<?xml version="1.0" encoding="UTF-8"?>
<svg id="Layer_2" data-name="Layer 2" xmlns="http://www.w3.org/2000/svg" viewBox="0 0 520 320">
  <defs>
    <style>
      .cls-1 {
        fill: #a3ab78;
      }

      .cls-1, .cls-2, .cls-3, .cls-4 {
        stroke-width: 0px;
      }

      .cls-2 {
        fill: #c4272f;
      }

      .cls-3 {
        fill: #f9cf02;
      }

      .cls-4 {
        fill: #015197;
      }
    </style>
  </defs>
  <g id="_500x300_Background" data-name="500x300 Background">
    <rect class="cls-1" width="520" height="320" rx="10" ry="10"/>
  </g>
  <g id="Mongolia">
    <g>
      <rect class="cls-2" x="10" y="10" width="166.67" height="300"/>
      <rect class="cls-2" x="343.33" y="10" width="166.67" height="300"/>
      <rect class="cls-4" x="176.67" y="10" width="166.67" height="300"/>
      <g id="circle12">
        <path class="cls-3" d="m110,113.11c0,9.42-7.46,17.05-16.66,17.05s-16.66-7.63-16.66-17.05,7.23-16.81,16.23-17.05c.14,0,.28,0,.43,0s.28,0,.43,0c9,.24,16.23,7.78,16.23,17.05Z"/>
        <path class="cls-3" d="m116.25,119.5c0,12.94-10.26,23.45-22.92,23.45s-22.92-10.49-22.92-23.45v-.41c3.86,9.02,12.67,15.34,22.91,15.34s19.05-6.3,22.92-15.33c0,.13,0,.27,0,.4Z"/>
      </g>
      <g>
        <g id="circle16">
          <path class="cls-3" d="m110,113.11c0,9.42-7.46,17.05-16.66,17.05s-16.66-7.63-16.66-17.05,7.23-16.81,16.23-17.05c.14,0,.28,0,.43,0s.28,0,.43,0c9,.24,16.23,7.78,16.23,17.05Z"/>
        </g>
        <g id="path20">
          <path class="cls-3" d="m72.5,236.74l20.83,12.79,20.83-12.79h-41.67Zm0-89.52l20.83,12.79,20.83-12.79h-41.67Zm0,76.73v8.52h41.67v-8.52h-41.67Zm0-59.67v8.52h41.67v-8.52h-41.67Zm45.83-17.05v102.31h20.83v-102.31h-20.83Zm-70.83,0v102.31h20.83v-102.31h-20.83Z"/>
        </g>
        <g id="circle24">
          <path class="cls-3" d="m93.56,177.79h-.23c-11.07,0-20.07,9.23-20.07,20.59,0,6.73,3.17,12.71,8.05,16.47-.66-1.59-1.02-3.34-1.02-5.18,0-7.34,5.86-13.3,13.05-13.3,4.98,0,9.03-4.17,9.03-9.28,0-5.05-3.93-9.17-8.81-9.29Zm-.23,13.55c-2.3,0-4.17-1.91-4.17-4.27s1.87-4.27,4.17-4.27,4.17,1.9,4.17,4.27-1.87,4.27-4.17,4.27Z"/>
          <path class="cls-3" d="m105.36,181.89c.66,1.59,1.02,3.34,1.02,5.18,0,7.34-5.86,13.3-13.05,13.3-4.98,0-9.03,4.17-9.03,9.28s3.92,9.16,8.8,9.28h.23c11.07,0,20.07-9.23,20.07-20.59,0-6.72-3.16-12.71-8.04-16.46Zm-12.03,32.03c-2.3,0-4.17-1.91-4.17-4.27s1.87-4.27,4.17-4.27,4.17,1.9,4.17,4.27-1.87,4.27-4.17,4.27Z"/>
        </g>
      </g>
      <path class="cls-3" d="m102.65,76.77c-.81-.96-1.22-1.55-.58-3.93.63-2.38-1.37-3.86-1.37-3.86.2.53-.2,2.51-1.04,3.56-.84,1.04-.63,2.89.22,4.14.87,1.24.61,4.29-.56,4.52-2.33.25-3.38-.46-3.63-2.38s.78-1.85,1.9-5.63c1.11-3.78-1.27-8.19-3.56-10.66s-.91-4.39-.91-4.39c-1.2.73-1.8,3.16-1.34,4.44.46,1.28.38,2.51.32,4.01s-1.9,4.02-2.05,5.31.25,3.56,1.16,4.94.95,3.5-.25,4.11c-1.2.61-3.44.02-3.85-.86-.4-.87-.27-1.99.46-3.22.72-1.22.84-3.33.07-4.3-.76-.97-1.29-3.27-1.29-3.27-.66.59-1.25,3.08-.97,3.5s.65,1.19.63,2.17c-.01.67-1.27,2.13-2.1,3.06h0c-.16.13-.28.27-.39.42-.25.48-.49,1.51-.37,3.7,0,.04,0,.08,0,.12.09,1.46.51,2.58.88,3.29h0s0,.02.01.03c0,0,0,.01.01.02.31.58.58.9.59.91h0c.62.9,1.46,1.94,2.58,3.02,2.74,2.64,7.61,2.82,11.04,1.29,3.43-1.52,5.66-5.58,6.04-8.66.39-3.05-.85-4.42-1.67-5.39Z"/>
    </g>
  </g>
</svg>