<?xml version="1.0" encoding="UTF-8"?>
<svg id="Layer_2" data-name="Layer 2" xmlns="http://www.w3.org/2000/svg" viewBox="0 0 520 320">
  <defs>
    <style>
      .cls-1 {
        fill: #a3ab78;
      }

      .cls-1, .cls-2, .cls-3, .cls-4, .cls-5, .cls-6, .cls-7, .cls-8 {
        stroke-width: 0px;
      }

      .cls-2 {
        fill: #b96b29;
      }

      .cls-3 {
        fill: #1d5e91;
      }

      .cls-4 {
        fill: #d4af3a;
      }

      .cls-5 {
        fill: #6d8c3e;
      }

      .cls-6 {
        fill: #c40308;
      }

      .cls-7 {
        fill: #c52126;
      }

      .cls-8 {
        fill: #d3ae3b;
      }
    </style>
  </defs>
  <g id="_500x300_Background" data-name="500x300 Background">
    <rect class="cls-1" width="520" height="320" rx="10" ry="10"/>
  </g>
  <g id="Montenegro">
    <g>
      <rect id="rect6" class="cls-8" x="10" y="10" width="500" height="300"/>
      <rect id="rect8" class="cls-6" x="22.54" y="24.95" width="475" height="270.01"/>
    </g>
    <g>
      <path id="path10" class="cls-2" d="m325.34,157.52c1.8-.54,7.84-2.25,12.16-5.76,4.32-3.51,5.13-6.3,5.49-7.84s.45-2.7-.63-1.8-4.41,3.51-6.75,4.77c-2.25,1.26-4.41,1.89-5.58,2.16-1.26.36-2.25.54-1.08.09s5.04-1.8,8.11-4.86,5.31-7.48,5.4-10.27-.18-2.52-.99-1.89c-.9.72-4.05,4.59-5.85,6.03s-4.59,3.42-6.03,4.32c-1.44.81-3.42,1.8-.63-.18,2.79-1.89,8.11-6.48,10.27-12.34s1.8-9.28,1.71-9.91-.54-1.8-.99-.72-4.05,8.2-6.93,11.26-2.16,2.43-2.79,2.97c-.63.45-1.71,1.35-.36-.36s4.23-5.67,5.67-9.64c1.44-3.96,1.89-7.84,1.89-10.18.09-2.25-.9-5.4-1.35-6.39-.45-.9-.9-1.62-.99-.54-.18,1.08-2.43,8.11-3.6,11.44-1.26,3.42-3.69,7.21-4.14,8.02-.45.72-1.8,2.25-.36-.27,1.35-2.52,4.05-10.09,4.41-17.2.36-7.11-.63-11.08-1.62-13.06-.99-1.98-1.8-2.7-1.8-2.7,0,0,.18,4.86-1.26,11.89-1.44,7.02-3.6,10.72-3.6,10.72,0,0-.9.99-.27-.63.45-1.17,1.26-3.6,1.62-7.84.45-4.41.45-9.46-.81-13.78-1.44-4.68-3.87-7.02-3.87-7.02-.72,6.66-.54,15.31-2.97,22.34-.45-.45-1.08-1.17-1.35.36-.45,2.34-1.35,6.57-4.32,12.07-3.06,5.49-4.23,6.21-4.23,6.21,0,0-.54-1.35-.99-2.07-.36-.72-.63-1.08-1.08-.09-.54.99-2.16,4.86-5.85,9.1s-5.76,6.3-5.67,9.55c.09,3.15,1.8,4.86,4.05,6.3s2.61,2.25,2.25,3.96-2.34,2.34-4.05,2.43-3.87-.09-4.68.36c-.81.45-.81,1.53-1.62,2.34s-1.08,1.26-1.8,1.35c-.27,0-.45.09-.63.09-.18-8.47,3.06-12.16,3.06-12.16l-9.1-10.72c-.45.27-.9.45-1.44.63-.09-.09-.18-.27-.27-.36-1.17-1.53-1.62-2.88-1.62-4.86.45,0,1.35.36,2.16.18.81-.18.18-.99,0-1.8-.27-.81-.54-3.51-.36-4.59s.27-1.44.27-1.44c0,0,1.35,1.44,2.16,1.44s.72-.81.9-1.71c.18-1.35.81-3.15,1.89-4.05,0,0,1.44.99,3.06.99s3.87-.45,5.67-2.16,1.71-2.07,1.71-2.07c0,0,3.33,1.17,5.85,1.26s5.22-.27,6.48-2.97c1.26-2.61-.36-5.13-.63-5.49-.27-.45-1.08-.72-1.08,0s0,2.7-1.53,3.69-2.7.99-4.14.54-3.51-1.08-5.76-.72c-2.07.27-2.34.45-2.43.45.09-.09,1.98-2.07,3.87-2.61,1.89-.54,3.06.18,3.6.99.63.72,1.17,1.98,1.62.18.54-1.71.18-3.69-.63-5.04-.81-1.26-2.61-2.07-4.5-1.89-1.89.18-2.52.54-2.52.54,0,0-.99-2.7-3.33-3.15-2.88-.63-6.12.45-8.65,1.89,0,0-1.98.45-4.05-.09-1.35-.36-2.61-1.17-3.42-1.71.27-.81.72-2.25.72-2.25,0,0,.54-.18,1.17-.36.63-.27.45-.45.54-.9.09-.54-1.17-1.35-1.17-1.35,0,0-.18-1.53,1.8-2.52,1.98-1.08,1.8-.9,1.8-.9,0,0,1.17.18,1.62-.09.45-.36.45-.54.45-.54,0,0,.9-.27,1.17-.81.36-.54.36-1.26.18-1.89-.27-.63-.54-.72-.18-1.08.36-.27.63-.99.63-1.53v-.63s.72-.27.63-1.26c0-1.08-.63-1.44-.9-1.53-.36-.09-.54-.09-.54-.09,0,0-.09-.63-.63-1.44s-.9-1.17-.9-1.17c0,0,.36-.27.18-.99-.18-.72-.72-1.08-1.17-1.26-.45-.18-.99,0-.99,0,0,0-1.53-.99-2.34-1.35l-.9-.45s0-.63-.27-.99-.9-.54-1.17-.54c-.36,0-.72.18-.72.18,0,0-2.61-.72-3.78-.9-1.08-.18-1.17-.27-1.17-.27,0,0-2.34-1.08-3.24-1.26-.9-.18-1.17-.27-1.17-.27,0,0,.99-1.17.99-2.52.09-1.35-.81-2.61-1.8-3.15-.54-.36-.81-.36-.99-.45v-.9l1.8.18.18-2.88-1.71.18.27-1.71h-3.6l.27,1.71-1.71-.09.18,2.79,1.8-.27-.18,1.08s-.63.09-1.26.54c-.9.54-1.71,1.62-1.71,2.97.09,1.35.81,2.52.81,2.52,0,0-.27.09-1.17.27-.9.18-3.24,1.26-3.24,1.26,0,0-.09.09-1.17.27-1.08.18-3.78.9-3.78.9,0,0-.36-.18-.72-.18s-.9.18-1.17.54-.27.99-.27.99l-.9.45c-.72.36-2.34,1.35-2.34,1.35,0,0-.54-.18-.99,0s-.9.54-1.17,1.26c-.18.72.18.99.18.99,0,0-.36.36-.9,1.17s-.63,1.44-.63,1.44c0,0-.18,0-.54.09s-.9.54-.9,1.53.63,1.26.63,1.26v.63c0,.54.36,1.17.63,1.53.36.27,0,.45-.18,1.08-.27.63-.18,1.35.18,1.89.36.54,1.17.81,1.17.81,0,0,0,.18.45.54s1.62.09,1.62.09c0,0-.18-.18,1.8.9s1.8,2.52,1.8,2.52c0,0-1.17.9-1.17,1.35.09.54-.09.72.54.9.63.27,1.17.36,1.17.36,0,0,.45,1.44.72,2.25-.72.54-2.07,1.35-3.42,1.71-1.98.54-4.05.09-4.05.09-2.52-1.44-5.76-2.52-8.65-1.89-2.43.54-3.33,3.15-3.33,3.15,0,0-.63-.27-2.52-.54-1.89-.18-3.6.63-4.5,1.89-.81,1.26-1.08,3.24-.63,5.04.54,1.71.99.54,1.62-.18.63-.72,1.71-1.53,3.6-.99s3.69,2.52,3.87,2.61c0,0-.36-.18-2.43-.45-2.34-.36-4.32.27-5.76.72s-2.61.54-4.14-.54c-1.53-.99-1.53-2.97-1.53-3.69s-.81-.45-1.08,0c-.27.45-1.98,2.88-.63,5.49s3.96,3.06,6.48,2.97c2.52-.09,5.85-1.26,5.85-1.26,0,0,0,.45,1.71,2.07,1.8,1.71,4.05,2.16,5.67,2.16s3.06-.99,3.06-.99c1.08.99,1.71,2.7,1.89,4.05.09.9,0,1.71.9,1.71.81,0,2.16-1.44,2.16-1.44,0,0,.09.45.27,1.44.18,1.08-.09,3.78-.36,4.59s-.9,1.62,0,1.8c.81.18,1.71-.18,2.16-.18,0,1.98-.36,3.33-1.62,4.86-.09.18-.18.27-.27.36-.45-.18-.9-.45-1.35-.63l-8.74,10.81s3.24,3.78,3.06,12.25v-.09c-.18,0-.36,0-.63-.09-.72-.09-1.08-.54-1.89-1.35s-.81-1.89-1.62-2.34-2.97-.27-4.68-.36c-1.71-.09-3.78-.63-4.05-2.43-.36-1.71.09-2.52,2.25-3.96,2.25-1.44,3.87-3.06,4.05-6.3.09-3.15-1.98-5.22-5.67-9.55-3.69-4.23-5.4-8.11-5.85-9.1s-.72-.63-1.08.09c-.36.72-.99,2.07-.99,2.07,0,0-1.26-.72-4.23-6.21-3.06-5.49-3.87-9.82-4.32-12.07-.27-1.53-.81-.81-1.35-.36-2.43-7.02-2.34-15.58-2.97-22.34,0,0-2.43,2.34-3.87,7.02-1.26,4.32-1.26,9.28-.81,13.78.36,4.23,1.26,6.66,1.62,7.84.63,1.71-.27.63-.27.63,0,0-2.16-3.69-3.6-10.72s-1.26-11.89-1.26-11.89c0,0-.81.72-1.8,2.7s-1.98,5.94-1.62,13.06c.36,7.11,2.97,14.68,4.41,17.2,1.35,2.52.09.99-.36.27-.45-.72-2.97-4.59-4.14-8.02-1.26-3.42-3.51-10.36-3.6-11.44-.18-1.08-.63-.36-.99.54-.45.9-1.44,4.05-1.35,6.39.09,2.25.45,6.21,1.89,10.18s4.32,7.93,5.67,9.64c1.35,1.71.27.81-.36.36-.63-.45.09.09-2.79-2.97s-6.39-10.18-6.93-11.26c-.45-1.08-.99.09-.99.72-.09.63-.45,4.05,1.71,9.91s7.48,10.36,10.27,12.34c2.79,1.89.81.99-.63.18s-4.32-2.79-6.03-4.32c-1.8-1.44-4.95-5.4-5.85-6.03-.9-.72-1.08-.9-.99,1.89s2.43,7.21,5.4,10.27c2.97,2.97,6.84,4.32,8.11,4.86,1.17.45.18.27-1.08-.09-1.26-.36-3.33-.9-5.58-2.16s-5.58-3.87-6.75-4.77c-1.08-.9-.99.36-.63,1.8.36,1.53,1.17,4.32,5.49,7.84,4.32,3.51,10.45,5.31,12.16,5.76,1.8.45.54.45.54.45,0,0-.72-.09-4.23-.9-3.6-.81-8.92-3.6-10.45-4.5-1.44-.9-1.71-1.26-1.44.63.18,1.89,2.25,6.03,5.58,8.02s9.19,2.88,10.72,2.97c1.53.09,1.17.27.45.36s-2.43.09-5.22-.27c-2.25-.27-5.67-1.35-6.84-1.8-.09-.45-.27-.99-.27-1.26-.18-.72-.54-.63-.72-.45-.27.18-.36.27-1.17.72s-.81-.09-.9-.36c0-.27-.18-1.35-.18-1.89s-.36-.54-.72-.45c-.36.18-2.16.9-2.88,1.26-.72.27-.09.81.27,1.53.36.63.9,1.62.9,1.62,0,0-1.71.45-2.25.63s-.36.54-.27.9c.18.36.99,2.25,1.17,2.88.18.54.72.18.72.18l1.71-.99.63,2.25s-.81.18-1.62.81c-.9.63-.63,1.35.36,1.71,1.08.27,2.25.81,3.6,3.24s1.71,6.84,2.52,13.69c.81,6.93,5.22,10.45,5.85,10.9s.27.81.27.81c0,0-.63.9-.36,2.25.27,1.35,1.44,2.16,2.07,2.34.63.18.45.81.45.81,0,0-.27,1.44,0,4.14s2.52,5.76,3.15,6.21c.63.54.63.81.54.99s-.45,0-1.17.63c-.72.54-1.53,1.35-2.07,2.34-.54.99-.36,1.53-.18,2.79.18,1.26,2.07,2.43,2.07,2.43,0,0-.36.09-.45,1.08s.63,2.07,1.44,2.7c.9.72,2.52,1.08,2.52,1.08,0,0,.09.81.18,1.35s1.17,1.17,1.89,1.53c.72.36,2.07.18,2.61-.09.54-.27.99,0,1.26.63.36.54.18,2.7.18,3.6s-.54,1.8-.18,2.25c.27.45,1.17.09,1.98-.36.81-.45,1.08-.09,1.8.36s1.89.9,2.25.9c.27,0,.18-.81.18-1.44s.09-2.16.45-2.34c.18-.09,1.44-.18,2.43-.63.45-.18,1.08-.36,1.08-.81s-.63-.45-2.07-1.17c-1.44-.72-1.71-1.17-2.61-1.8s-.45-.81-.45-1.08.45-.54.63-.9.09-1.17.09-1.17c0,0,.72-.72,1.08-1.17.36-.36.81-.99,1.26-1.35s1.17-2.25,1.71-2.88c.45-.63,1.53-1.26,2.25-2.07.63-.81,2.34-2.16,3.42-2.79.99-.63,3.69-1.89,3.69-1.89,0,0,0,1.62.63,2.43.72.81,1.62-.63,4.68-2.79,3.06-2.16,5.4-2.97,5.4-2.97,0,0,.63.99,1.44,2.07.81,1.08,1.53,0,5.31-5.22,2.97-4.14,6.84-7.84,8.38-9.28.27.09.54.27.81.36-.09.18-.18.45-.27.72-.36,1.08-.9,1.8-1.62,3.24-.72,1.53-1.89,1.89-3.15,3.87-1.26,2.07-1.44,3.42-1.62,5.49-.09,2.07,1.08,2.52,1.08,2.52,0,0-1.89,1.89-2.43,3.24s-.9,4.14-.9,4.14c0,0-.27.09-.99,1.53-.72,1.44-1.98,1.62-3.78,3.42s-3.87,2.61-4.77,3.15c-.99.54-.72,1.08-.45,1.89.27.72,1.53,1.44,3.06,2.07,1.53.54,2.07.36,3.06.27,1.08,0,.18.81-.18,1.17-.45.45-.99,1.98-.9,3.6.09,1.71,1.35,1.26,2.88,1.08,1.53-.27,3.33-1.08,3.33-1.08l-.18.45c-.18.45-.27.81-.27,2.16s.18,1.98.63,2.34c.36.36,1.17-.36,1.71-.54s1.53-.72,2.88-1.08c1.35-.27,1.89-.9,1.89-.9,0,0-.36.45-.45,1.35-.09.99,0,2.34.18,3.15s.81,1.8,1.8,2.7,1.17.45,1.89-.63c.72-1.08,2.07-2.43,2.07-2.43,0,0,.09.36,1.08,3.42s4.05,5.58,4.05,5.58c0,0,3.15-2.52,4.05-5.58.99-3.06.99-3.42.99-3.42,0,0,1.44,1.35,2.07,2.43.72,1.08.9,1.44,1.89.63.99-.9,1.53-1.89,1.8-2.7.18-.81.27-2.25.18-3.15-.09-.99-.45-1.35-.45-1.35,0,0,.54.63,1.89.9s2.34.9,2.88,1.08,1.35.9,1.71.54.63-.99.63-2.34-.09-1.71-.27-2.16l-.18-.45s1.8.81,3.33,1.08c1.53.27,2.79.63,2.88-1.08.09-1.71-.45-3.15-.9-3.6s-1.26-1.26-.18-1.17c.99,0,1.53.27,3.06-.27,1.53-.54,2.79-1.26,3.06-2.07.27-.72.54-1.26-.45-1.89-.99-.54-2.97-1.35-4.77-3.15s-3.06-2.07-3.78-3.42c-.72-1.44-.99-1.53-.99-1.53,0,0-.27-2.79-.9-4.14-.54-1.35-2.43-3.24-2.43-3.24,0,0,1.17-.45,1.08-2.52-.09-2.07-.27-3.42-1.62-5.49-1.26-2.07-2.43-2.34-3.15-3.87-.72-1.53-1.26-2.16-1.62-3.24-.09-.18-.18-.45-.18-.63.36-.18.72-.36,1.08-.45,1.53,1.35,5.4,5.13,8.47,9.28,3.78,5.22,4.5,6.3,5.31,5.22s1.44-2.07,1.44-2.07c0,0,2.34.81,5.4,2.97s3.96,3.6,4.68,2.79c.36-.45.45-1.08.45-1.62,0,0,1.8.54,3.78,1.26,1.17.45,2.52.99,3.6,1.35,2.7,1.17,2.97,1.71,5.04,3.42,2.16,1.71,5.13,1.53,8.02.63,2.88-.9,10.45-3.42,13.51-4.68,3.06-1.35,5.22-2.52,5.58-3.06.36-.63.63-2.34.63-2.97s-.63-1.53-.9-1.71c-.18-.18-.09-.63-.09-.99.09-.36-.09-1.53-.63-2.07-.45-.54-.45-.72-.36-2.16.18-3.15-2.07-7.11-5.31-8.38,0,0-.09-.36-.36-.54s-.72-.45-.72-.45c0,0,.09-1.8,0-2.16,0-.36.18-.36.36-.27.18.09.54.54,1.08.63s.81-.27.9-.81.54-1.71.72-2.34c.18-.54,0-.63-.27-.72-.27-.09-.99-.18-1.35-.27q-.36-.09-.27-.27c.09-.18.18-.45.72-1.26.45-.72,0-.72-.45-.9s-2.52-.81-3.06-.9-.72.36-.72.63v1.62c0,.36-.36.27-.54.18-.18-.09-.72-.45-1.08-.72-.36-.27-.63,0-.81.45-.18.45-.63,2.16-.81,2.7-.18.54-.09.9.09.99s1.26,0,1.8,0c.63,0,.27.36.27.36,0,0-.63,1.08-.9,1.44-.18.45-.54.45-1.08.45h-1.35s-3.33.09-5.76,1.89c-2.43,1.8-3.15,3.33-3.51,4.14-.36.9-.81.72-1.17.99-.36.27-1.44,1.44-1.44,2.07,0,.72.27,1.08-.81,1.71-1.08.72-1.89,3.69-.54,5.22,1.44,1.53,1.98,3.06,2.43,3.87.45.72,0,1.08-.36,1.08s-1.17-.63-1.8-1.08-3.96-3.06-5.31-4.14c-1.44-1.08-.36-.9-.36-.9,0,0,.36,0,1.17-.27.81-.36.99-.81.09-1.08-.81-.27-2.43-1.17-2.88-1.62s-.63-.9.18-1.35c.81-.45,2.61-1.62,1.17-1.98-1.44-.36-3.15-.72-4.5-1.08-1.35-.36-1.53-.81-1.53-.81l.9-1.26s.72-1.08-.09-1.17c-.9-.09-2.97-.36-4.86-1.26-3.78-1.62-6.21-4.41-7.11-7.84l.09-.09c.72,1.44,2.34,4.05,4.86,4.14,3.42.09,3.78-.99,3.06-2.07s-1.71-2.16-1.89-2.43c-.18-.36-.27-.81.63.09.9.81,2.61,3.69,7.75,3.33s5.13-1.35,5.13-1.62c0-.99-1.08-1.17-1.62-1.8-.36-.36-.54-.81.54-.36,1.08.36,3.6.9,7.02.09,1.35-.27,4.95-1.89,5.31-3.69,0,0-2.34-.09-3.87-.81-1.62-.72-2.61-1.26-.9-.9s5.04,1.08,7.93.09c1.71-.54,3.87-1.98,3.87-4.5,0,0-3.15-.63-4.32-1.08s-1.53-.72-1.53-.72c0,0,4.5,1.44,8.65-.63,4.14-2.07,4.32-4.95,4.32-5.58s-.09-.9-.09-.9c0,0-3.69.9-6.48.9s-3.69-.27-3.69-.27c0,0,7.84-.18,11.71-2.61,3.96-2.43,4.14-7.11,4.14-7.11,0,0-4.41,1.62-7.21,1.89-2.79.36-4.5.36-5.22.27s-1.08-.27.45-.36,7.48-1.08,10.72-2.97c3.33-1.89,5.31-6.03,5.58-8.02.18-1.89,0-1.62-1.44-.63-1.44.9-6.84,3.78-10.45,4.5-3.6.81-4.23.9-4.23.9,0,0-1.17-.27.63-.72Zm-140.68,9.01c-.36.18-1.62.9-1.62.9,0,0-.63-1.26-.81-1.62-.18-.36-.09-.54.09-.54s.9-.18,1.35-.27h.18c.27.45.54.9.81,1.53,0-.09,0,0,0,0Zm47.91,28.1c-.99,1.8-3.51,3.69-5.49,4.5-1.89.81-3.96,1.08-4.86,1.17-.9.09-.09,1.17-.09,1.17l.9,1.26s-.09.36-1.53.81c-1.35.36-3.06.72-4.5,1.08-1.44.36.36,1.53,1.17,1.98s.63.9.18,1.35-2.07,1.35-2.88,1.62-.72.72.09,1.08c.81.36,3.06.81,3.06.81,0,0,0,.09-1.44,1.17-1.35,1.08-3.78,1.71-5.4,1.8s-4.14.18-7.39,0-3.6-.18-3.6-.18c0,0-.09-1.08-.36-2.7-.18-1.62-1.17-3.87-1.89-4.86-.72-.99-2.25-3.06-2.25-3.06,0,0,0-.45.18-.99.09-.54,0-1.08-.36-2.07-.36-.99-2.25-2.43-2.25-2.43,0,0-.09-1.08-.09-2.07s-.63-4.77-1.26-6.57c-.63-1.8-3.51-6.57-4.86-8.83s-2.16-5.58-2.52-8.2c-.45-2.61-.27-3.42-.09-4.14.09-.27.18-.54.27-.81.54.72,1.26,1.35,2.16,1.98,3.96,2.43,11.71,2.61,11.71,2.61,0,0-.9.27-3.69.27s-6.48-.9-6.48-.9c0,0-.09.18-.09.9s.18,3.51,4.32,5.58c4.14,2.07,8.65.63,8.65.63,0,0-.36.36-1.53.72-1.17.45-4.32,1.08-4.32,1.08,0,2.52,2.16,3.87,3.87,4.5,2.88.99,6.21.27,7.93-.09s.72.18-.9.9-3.87.81-3.87.81c.36,1.8,3.96,3.42,5.31,3.69,3.42.72,6.03.27,7.02-.09s.81.09.54.36c-.63.63-1.62.81-1.62,1.8,0,.27,0,1.26,5.13,1.62s6.84-2.52,7.75-3.33c.9-.81.81-.36.63-.09-.18.36-1.08,1.35-1.89,2.43s-.36,2.16,3.06,2.07c2.52-.09,4.14-2.79,4.86-4.14l.09.09.18.18c-.36.99-.9,2.34-1.53,3.51Zm41.52-111.41c-.45-.9-.72-1.26-.72-1.26,0,0,1.98.9,3.06,2.25,1.17,1.26,1.17,1.98,1.26,2.61.18.63,0,1.8-.18,2.97-.18,1.08-.18,1.8.09,2.16.18.36.45.63.45.63,0,0-.9.18-1.71.54s-1.89.63-2.43.09c-.63-.45-.72-.81-.36-1.17s1.71-.72,1.89-3.06c.27-2.43-.9-4.86-1.35-5.76Zm-10.54,6.48c.45-1.08.63-2.16.27-4.5-.27-1.89-.63-3.6-.72-5.67,0,0,1.44.27,3.51,2.16s2.52,3.78,2.52,4.77c0,.9-.54,2.07-.54,2.97-.09.9.27,1.71.27,1.71,0,0-.72.27-1.44.81-.72.45-1.17.72-2.16.72-1.08-.09-1.71-.54-2.25-.81-.63-.27-.99-.36-.99-.36,0,0,1.08-.72,1.53-1.8Zm-10.09-8.02c2.07-1.89,3.51-2.16,3.51-2.16-.09,2.07-.45,3.69-.72,5.67-.36,2.34-.18,3.33.27,4.5.45,1.08,1.62,1.8,1.62,1.8,0,0-.36.09-.99.36s-1.26.81-2.25.81c-1.08.09-1.53-.27-2.16-.72-.72-.45-1.44-.81-1.44-.81,0,0,.36-.81.27-1.71s-.54-2.07-.54-2.97c-.09-.9.45-2.88,2.43-4.77Zm-7.39,11.44c-.63.45-1.62.18-2.43-.09-.81-.36-1.71-.54-1.71-.54,0,0,.18-.18.45-.63.18-.36.18-1.08.09-2.16-.18-1.08-.36-2.25-.18-2.97.18-.63.18-1.35,1.26-2.61,1.17-1.26,3.06-2.25,3.06-2.25,0,0-.27.45-.72,1.26-.45.9-1.53,3.33-1.44,5.67.18,2.34,1.53,2.79,1.89,3.06.45.45.36.81-.27,1.26Zm27.38,19.81c-2.07,1.08-3.15.9-3.06,1.71s1.89,1.44,1.89,1.44c0,0-1.89,1.98-3.33,2.88s-3.15,1.53-3.15,1.53c0,0-.54.09-.27.99.36.9.9,1.53,1.35,1.8s.72.36.72.36c0,0-2.52,2.7-3.6,3.6s-1.71,1.17-2.61,1.53c-.9.36-.45,1.89-.27,2.52.18.63.99,1.53,1.44,1.71.45.09.63.45,0,1.35-.45.72-1.89,2.52-2.52,3.51h0c-.72-.99-2.16-2.79-2.61-3.51-.54-.9-.45-1.26,0-1.35s1.26-1.08,1.44-1.71c.18-.63.63-2.16-.27-2.52s-1.53-.63-2.61-1.53c-1.08-.9-3.6-3.6-3.6-3.6,0,0,.27-.09.72-.36s.99-.9,1.35-1.8-.27-.99-.27-.99c0,0-1.71-.54-3.15-1.53-1.44-.9-3.33-2.88-3.33-2.88,0,0,1.8-.63,1.89-1.44s-1.08-.54-3.06-1.71c-1.98-1.08-2.7-2.52-2.7-2.52,0,0,2.34-.81,3.51-3.15.45-.81.54-1.62.45-2.25h.09c3.78,1.26,8.2,1.71,12.07,1.71s8.29-.45,12.07-1.71h.09c0,.63.09,1.44.45,2.25,1.17,2.34,3.51,3.15,3.51,3.15,0,0-.54,1.35-2.61,2.52Z"/>
      <path id="path12" class="cls-7" d="m231.95,116.18c-.81-.45-2.97-1.35-5.22-1.53s-4.05.18-5.94.63c-1.35.36-2.43.45-3.51.09-1.62-.45-2.88-1.89-3.33-3.69,0,0-1.53,1.89,0,4.05.72.99,1.71,1.62,2.7,1.8,3.15.63,6.3-1.26,9.01-1.44,2.52-.18,4.59,1.44,4.59,1.44,0,0,.63.54,1.44,0s1.08-.9.27-1.35Z"/>
      <path id="path14" class="cls-7" d="m306.16,111.68c-.45,1.8-1.71,3.24-3.33,3.69-1.08.27-2.16.27-3.51-.09-1.89-.54-3.6-.81-5.94-.63-2.25.18-4.41,1.08-5.22,1.53s-.54.81.27,1.35c.81.45,1.44,0,1.44,0,0,0,1.98-1.62,4.59-1.44,2.61.18,5.76,2.07,9.01,1.44.99-.18,1.98-.81,2.7-1.8,1.44-2.16,0-4.05,0-4.05Z"/>
      <path id="path16" class="cls-4" d="m285.8,158.51c0-6.39,2.88-10.36,2.88-10.36l-7.93-9.1c-7.57,2.97-14.5,3.15-20.71,0-6.21,3.15-13.15,2.97-20.71,0l-7.93,9.1s2.97,4.05,2.97,10.36-1.26,11.08-1.98,14.14c-.72,3.06-1.35,8.83.27,12.97s3.42,7.66,10.45,10.63c7.11,2.97,10.81,4.5,13.24,6.57s3.69,3.69,3.69,3.69c0,0,1.26-1.62,3.69-3.69,2.43-2.07,6.12-3.6,13.24-6.57,7.11-2.97,8.83-6.57,10.45-10.63,1.62-4.14.99-9.82.27-12.97-.63-3.06-1.89-7.75-1.89-14.14Z"/>
      <path id="path18" class="cls-4" d="m224.74,209.31s-2.61,1.26-3.42,1.44-.99.18-.99.18c0,0-1.71,1.62-3.06,2.34-1.35.81-2.88,1.35-4.41,1.53-1.98.18-7.57.18-10,.09s-4.05.54-5.04,1.71c-1.08,1.17-1.35,2.88,0,4.23s2.88.63,3.33-.18c.54-.81.27-1.89,0-2.34-.18-.45.45-.63,1.17-.63s1.89.09,2.88.18c1.08.18,2.97.81,3.78,1.26.81.45.36.54-.18.45s-1.17-.27-2.16-.72c-.99-.36-1.89-.54-2.43-.63-.63,0-.45.27-.27.54.09.18.45.72.54.99.09.27-.18,1.17-.18,1.17l.27.63s.36-.63.54-.9c.09-.36,0-.9.09-1.17s.63-.27,1.08.18.9,1.08,1.08,2.25-.18,2.07-.18,2.07c0,0,.54.45.63.72s-.09,1.44-.09,1.44c0,0,.36.18.63-.45.27-.63.72-1.8.81-2.25s.36-1.17.9-.63c.54.54.81,1.26.9,1.62s.09.63.09.63c0,0,1.17-1.08,1.53-1.71s1.17-1.53,2.25-2.43,2.88-2.61,3.78-3.24,3.24-1.89,3.96-2.25c.72-.45.81-.45.99-1.71.09-1.26.72-2.34.99-3.15.09-.9.18-1.26.18-1.26Z"/>
      <path id="path20" class="cls-4" d="m222.76,208.41s-.27,0-.72-.09-1.35-.36-1.62-.54c-.27-.09-.72-.18-.99.18-.27.27-2.61,1.62-2.61,1.62h3.78c1.26,0,2.16-1.17,2.16-1.17Z"/>
      <path id="path22" class="cls-4" d="m233.39,207.69v-.36l-.54-1.08s-.63.36-1.17.99c-.72.81-1.53,1.89-1.89,2.34-.63.81-1.53,1.53-.72.27.72-1.26.99-1.89,1.62-2.7.63-.9,1.08-1.26.99-1.26-.09-.09-.54-.09-2.16-.36-1.62-.18-2.61-.81-3.33-1.26-.72-.45-2.07-1.17-2.07-1.17,0,0-2.7,1.17-3.69,1.35-.99.27-1.62.36-.63.9.99.45,1.8.63,2.34.9.45.27,1.98.81,2.88.81s2.43,0,1.8.63-1.26,1.89-1.98,3.69c-.63,1.89-.72,3.51-.72,4.32s.09,1.62.09,1.62c0,0,1.08-1.26,4.05-3.15s4.05-2.52,4.68-2.79c.54-.27.81-.27.72-.99.09-.54-.27-2.34-.27-2.7Z"/>
      <path id="path24" class="cls-4" d="m244.82,198.68c-.18-.09-.36-.18-.54-.27q-.09,0-.18.09c-.36.18-2.16,1.44-2.88,2.61-.72,1.17-1.44,1.26-.63,0s1.44-2.07,2.07-2.61c.27-.18.45-.36.63-.54-1.44-.72-3.06-1.53-4.59-2.61-.18.36-.54,1.08-.99,1.53-.63.63-2.07,1.26-2.07,1.26,0,0,1.08-1.17,1.53-2.07.27-.54.36-1.17.45-1.53-1.08-.81-2.07-1.8-2.97-2.88-.18.72-.81,2.61-2.61,4.59-2.34,2.61-7.02,3.96-7.02,3.96,0,0-1.62.18-.27.54s2.25.9,4.86.45,2.79-.54,3.15-.63,1.26,0,0,.45-4.32.9-5.49.81c-1.17-.09-2.7-.36-1.08.54s2.34,1.26,3.33,1.26,1.44.27,2.43.27,1.26-.18,1.98-.27c.72-.18,1.17.09,1.17.36s-.9,1.08-.9,2.97.18,3.15.36,3.78c.18.54.63,1.44.9,1.98s.36,1.08.63-.09c.27-1.08.9-2.7,1.17-3.78s.36-1.08.45-1.71c.09-.54.72-.99.45,0s-.63,2.34-.81,3.24c-.18.9-.72,2.61.18,1.26.81-1.35,3.96-4.86,4.5-5.49s.9-1.26,1.35-1.71c.36-.54,1.44-1.26,1.98-1.98.45-.72,1.89-2.07,2.43-2.52-1.08-.45-1.98-.81-2.97-1.26Z"/>
      <path id="path26" class="cls-4" d="m183.67,163.29c0-.18-.45-.9-.54-1.35-.09-.36-.45-.18-.45-.18,0,0-.81.45-1.44.63s-.72-.09-.72-.36c-.09-.36-.18-1.26-.27-1.98-.09-.72-.27-.63-.54-.54-.27.09-.99.36-1.53.63-.54.27-.36.45-.18.81.18.27.81,1.53,1.08,1.98.27.45,0,.63-.27.81-.27.18-.81.18-1.44.45-.63.18-.54.36-.54.54.09.18.45,1.08.72,1.44s.45.09.45.09c0,0,.63-.63,1.26-.9.54-.27.63-.18.72.27.18.45.81,2.61.9,3.06s.36.36.63.27c.27-.09.72-.18.99-.27.36-.09.45-.81.45-.81,0,0-1.26-2.25-1.53-2.79-.36-.54,0-.72.27-.72s.99-.18,1.62-.27c.54-.27.36-.63.36-.81Z"/>
      <path id="path28" class="cls-4" d="m197.54,223.63c-.09-.54,0-1.08-.45-1.44-.45-.45-.9-1.26-1.08-1.89s.18-.99.09-1.35-.54-.36-1.08,0c-.54.45-1.17.81-1.17,1.98s.45,2.61,2.07,3.15c1.8.45,1.71.09,1.62-.45Z"/>
      <path id="path30" class="cls-4" d="m199.25,223s-.36-.18-.54.09c-.18.27-.09.45.27,1.17.45.72.72.81,1.26,1.17.54.27.18-.27.09-.54-.09-.18,0-.45-.09-.63s-.18-.36-.18-.81c0-.45-.81-.45-.81-.45Z"/>
      <path id="path32" class="cls-4" d="m201.32,228.67c.27-.45.63-.63,1.35-.9.72-.36,2.16-.54,2.61-.54s1.53-.9,1.35-1.89c-.18-.9-.81-1.35-1.44-1.44s-1.17-.09-1.35.18c-.18.27-.54.63-1.17.9-.63.18-.72.45-1.17.54s-.09.36-.45.63c-.36.27-.81,0-1.35-.18s-.54-.27-1.17-.27-2.16-.09-2.16-.09h-.45c-.36,0-.36.09-.54.45s0,1.35.45,1.8c.36.45,1.62.72,2.43.9.81.27,1.26.36,1.89.45.72.09.81-.09,1.17-.54Z"/>
      <path id="path34" class="cls-4" d="m208.89,229.48c.63-.45.27-1.17.09-1.62-.18-.45-1.08-.54-1.53-.54s-.72,0-.99.18c-.27.18-.63.54-1.26.72-.72.18-1.26.45-2.16.81s-1.26.99-1.62,1.26c-.45.27-1.17,0-1.17,0,0,0-.54-.18-.72,0-.18.18,0,.45.36.9s1.08.36,1.89.63c.81.27.99.09,1.26-.18.27-.18.54-.72,1.17-1.08.54-.36,1.8-.45,2.34-.45.63,0,1.71-.18,2.34-.63Z"/>
      <path id="path36" class="cls-4" d="m208.89,226.6c.27.27.63.63.81.18.27-.45.63-1.26.36-1.8-.27-.54-.63-.9-.63-.9,0,0-.45,1.44-.72,1.8-.09.36-.09.45.18.72Z"/>
      <path id="path38" class="cls-4" d="m206.37,222.28c0-.81-.54-1.8-.54-1.8,0,0-.18.72-.54,1.44-.36.63-.72.99-.72.99,0,0,.81.18,1.17.18s.63,0,.63-.81Z"/>
      <path id="path40" class="cls-4" d="m201.68,223.99c.9-.18,1.35-.54,1.71-.81s.63-1.17.36-1.62c-.27-.45-.9-.9-1.17-.9h-.45s-.27.81-.63,1.26c-.36.45-.72.72-.72,1.26.09.45,0,.99.9.81Z"/>
      <path id="path42" class="cls-4" d="m203.49,220.03c0-.45-.09-.81-.45-1.17l-.45-.45s-.09.63-.09.99c-.09.36-.09.45-.09.45,0,0,.27.27.45.36.18,0,.54.18.63-.18Z"/>
      <path id="path44" class="cls-4" d="m192.59,197.69s1.08,0,.63-3.69-2.34-7.21-3.87-9.64c-1.53-2.43-3.15-6.21-3.78-8.29-.72-1.98-1.17-4.77-1.17-6.21s.63-2.16.63-2.16c0,0,.27-.36,0-.63-.27-.27-.63,0-.99.36s-.81,1.08-.99,1.62c-.18.54-.18.72-.18.72,0,0-.81-.18-2.07-.09s-1.89.18-1.89.45.18.45,1.08.9c.9.36,1.53.54,1.98,1.08s1.62,3.24,1.98,4.59c.36,1.35,1.08,4.86,1.44,7.66s1.26,6.12,2.52,9.01c.36.81,2.7,5.22,4.68,4.32Z"/>
      <path id="path46" class="cls-4" d="m194.93,204.18c-.9.45-.81,3.96-.45,5.76s2.16,4.05,2.7,4.68.63.63.99.45c.27-.18.45-.18.45-.18,0,0,.72-.27,1.35-.72.54-.45.36-1.53.27-2.52-.09-.99-.9-2.97-2.25-5.22-1.53-2.25-2.25-2.7-3.06-2.25Z"/>
      <path id="path48" class="cls-4" d="m195.83,201.38c0-1.17-.99-1.98-2.16-1.98-.54,0-.99.18-1.35.36-1.17,1.08-.45,3.6,1.17,3.6.63,0,1.35-.09,1.71-.54.54-.27.63-.9.63-1.44Z"/>
      <path id="path50" class="cls-4" d="m212.4,234.35c-.45-.09-.72-.27-1.44-.72-.63-.45-1.71-1.44-1.98-1.89q-.18-.45-.81-.27c-.63.18-1.53.18-2.25.18s.09.81.54,1.53c.45.72.36,3.15.36,3.15,0,0,0,.18-.09.54s0,.63.18.63c.18.09.27-.09.81-.63.45-.54,1.35-2.07,1.35-2.07,0,0,.09,0,.9.18s1.98.09,2.61-.09c.63,0,.27-.45-.18-.54Z"/>
      <path id="path52" class="cls-4" d="m209.52,236.24c-.36-.09-.45-.09-.63.09s-.27.63-.36.81c-.09.18-.09.36.09.54s.45.36.45.36c0,0,.27.27.54.45.27.18.36-.27.36-.54s.18-.81.18-1.17-.27-.54-.63-.54Z"/>
      <path id="path54" class="cls-4" d="m201.32,117.99c.09,1.89,2.25,5.58,3.42,7.57,1.17,1.98,1.53,2.79,1.35,2.88s-.72-.9-1.35-1.8-1.98-2.97-3.06-4.5c-1.08-1.53-2.7-5.22-2.88-5.58-.18-.36-.27-.54-.81-.09s-1.62,4.5-.36,7.21c1.26,2.79,3.15,4.77,3.96,5.76s1.8,2.43,1.71,2.61c-.18.09-.45-.27-1.44-1.26s-2.52-2.7-3.6-3.96c-.81-.99-1.98-3.06-2.43-3.87-.18-.27-.36-.18-.45-.09-.36.36-.9,1.17-.63,3.33.36,3.06,1.89,4.77,3.33,6.39,1.44,1.53,2.88,2.88,2.61,3.06-.18.18-1.71-1.08-2.7-2.07-.99-.99-3.51-3.33-4.05-4.05-.54-.63-1.35-.36-1.26,2.34,0,2.61,2.97,5.31,4.14,6.75,1.17,1.44,2.7,2.34,2.61,2.61s-1.35-.45-2.16-.99-3.78-2.43-4.32-2.88c-.54-.45-.9.36-.09,2.88.72,2.52,2.97,4.5,4.23,5.4,1.26.9,3.42,2.07,3.24,2.34-.09.27-.99-.09-2.25-.63-1.17-.63-2.7-1.17-3.69-1.44-1.08-.27-1.08.45-1.08.45,0,0-.18,2.16,1.35,3.87s3.33,2.43,4.95,2.7c1.71.27,1.89.36,1.89.63s-.18.27-.54.27-1.89.18-3.33.18-2.16.36-2.16.99,0,1.44,2.07,2.88c2.16,1.44,4.5,1.62,5.49,1.8s1.08.27.81.63c-.18.27-.63.27-2.25.45s-2.52.81-2.79,1.17c-.18.45.09,1.71,1.44,2.52,1.26.9,2.97,1.17,5.49.99,2.52-.18,3.15-.18,3.24.18.09.45-.72.54-1.98.72-1.26.18-2.25.18-2.97.81-.72.63-.18,1.8,1.08,2.7s4.23.9,5.49.81,3.15-.54,3.33-.18-.9.81-2.25,1.26c-1.26.45-1.71.72-1.89,1.26-.27.54,0,1.08,1.53,1.62,1.53.63,3.78.63,4.95,0,1.17-.54,1.8-.72,1.98-.54.18.18,0,.45-.27.72s-1.26,1.08-2.52,1.44-1.44.36-1.89,1.35c-.45,1.08.72,1.89,3.06,1.98s5.49-.81,6.48-1.44,1.35-.72,1.53-.54c.18.18.09.36-.36.72-.54.36-2.07,1.53-2.88,1.71-.81.18-.9.81-.9,1.35s-.18,1.62,1.89,2.16c2.07.54,4.59.09,6.84-1.44.72-.54,1.17-.9,1.35-1.26-.18-2.16-.09-3.6.18-4.95-.45-.09-1.26-.18-2.16-.54-1.26-.54-1.71-1.71-2.07-2.34-.27-.63-.72-.63-1.17-.45-.54.18-.99.36-1.71.36s-2.25-.45-3.33-1.71-.9-2.52-.9-3.15-1.08-.18-1.53-.18c-.54,0-1.98-.18-3.33-1.17-1.35-.9-1.35-2.16-1.44-2.7s-.63-.81-1.08-.99-1.08-.36-1.98-1.08c-.9-.72-1.26-2.25-1.26-2.7,0-.54-.63-.54-2.43-1.53-1.89-.99-1.71-2.97-1.62-3.78.09-.81.99-1.44.99-1.8,0-.27-.63-.36-1.26-.72-.63-.36-2.25-.99-2.25-3.33s1.53-2.61,1.53-2.61c0,0-.27-.09-.9-.54-.63-.36-2.34-1.53-2.34-2.97,0-1.35.63-1.98,1.08-2.34s1.71-.63,1.71-.63c0,0-.81-.54-1.17-1.62-.36-1.08-.45-2.43.36-3.42.81-.99,2.16-.99,2.88-.99s1.35.36,1.62.18c.27-.18.27-.36,0-.9s-.27-1.89-.09-2.34c.18-.45.27-1.35,2.07-1.98s3.69.63,4.23.99c.63.36.36-.45.36-1.08s-1.17-2.07-2.61-4.14c-1.35-2.07-1.98-3.15-3.51-6.39-1.53-3.15-2.52-7.3-2.79-8.38-.18-1.08-.63-.54-.63-.54,0,0-.45.18-1.35,2.61-1.26,2.88-1.44,5.13-1.35,7.03Z"/>
      <path id="path56" class="cls-4" d="m232.85,160.86c-1.08-.09-2.52-.63-3.51-2.25-1.08-1.53-2.7-1.98-5.49-1.89s-4.05-1.26-4.77-3.24.09-4.14,2.97-5.58c2.88-1.44,4.14-2.97,4.23-5.4s-2.88-5.49-5.85-8.83c-2.97-3.42-5.31-8.2-5.31-8.2,0,0-.9,1.17-.9,2.25s.45,2.34,0,2.61c-.45.36-.63-.45-2.34-1.26-1.71-.72-3.15-.9-4.23.36s0,3.42.99,4.41,1.8,1.8,1.53,2.16-1.71-.63-2.25-.9-1.62-1.53-3.24-1.44c-1.71.18-2.25.63-2.43,2.07-.18,1.44,1.53,2.61,2.61,3.15,1.08.54,1.53.99,1.26,1.26-.27.18-.54,0-.99-.18s-1.8-.36-2.7,0-2.25,1.53-.99,2.97c1.26,1.44,3.96,1.98,4.5,2.07.54.09.81-.09.9.36s-1.17.45-2.61.45c-1.44.09-1.89,1.44-1.71,2.52s2.61,2.25,3.96,2.52c1.35.18,1.8,0,1.98.36.09.36-.18.54-.9.72-.72.18-2.25.36-2.52,1.53-.27,1.17-.36,1.71.81,2.79,1.17.99,2.97.9,3.51.72.54-.09,1.17-.72,1.71-.18.54.54-.45.99-1.44,1.62-.9.63-.9,1.89.72,2.79,1.53.9,3.15.54,3.78.36s1.53-1.26,1.98-.63c.45.63-1.35.9-2.07,1.8s-.45,2.43.99,3.33c1.53.9,3.96.27,4.41-.09s.99-.54,1.26-.18c.36.36-.18,1.17-.45,1.98-.36.72-.9,2.97,1.35,3.87s4.32-1.08,4.68-1.44c.36-.36.72-.45,1.08-.27.36.18.18.45-.09.9-.27.36-.9,1.98.72,3.15,1.08.81,2.34.72,2.97.63.36-1.26.81-2.61,1.26-4.5h-.36c-.18,0-.27.36-.27.45s.09.27-.09.27-.18.09-.54.27c-.27.18-.54.45-.72.36-.18-.09.54-.54.81-.72.18-.27.54-.63.63-.9,0-.27.18-.45.54-.72.09-.09.18-.18.27-.36.27-1.26.54-2.7.72-4.5.18-1.17.27-2.34.27-3.42h-.63Z"/>
      <path id="path58" class="cls-4" d="m186.82,127.17c2.43,4.86,5.76,7.57,5.76,7.57,0,0-.45-1.17-.63-2.07-.18-.81,0-1.8,0-1.8,0,0-.81-1.08-2.43-3.51-1.53-2.43-2.43-6.03-2.43-6.03,0,0,1.44,3.6,2.61,5.49s2.43,3.42,2.43,3.42c0,0,.45-1.71.81-1.8s.54.18.81.54.54.36.54.36c0,0-.36-.81-.99-1.8-.27-.45-.63-.9-.99-1.35-.9-1.44-2.79-4.14-3.78-6.84s-3.15-9.46-3.51-11.44-.72-.9-1.17.54c-.36,1.44-.9,3.51-.54,6.66.36,3.42,1.08,7.21,3.51,12.07Z"/>
      <path id="path60" class="cls-4" d="m189.98,140.32c.9.63,2.25,1.53,2.25,1.53,0,0-.18-.45-.36-1.08-.09-.63-.18-1.8-.18-1.8,0,0-1.08-.9-1.8-1.53s-1.62-1.44-3.51-3.69c-1.8-2.25-.36-.9,1.17.72,1.53,1.62,4.32,3.96,4.32,3.96v-.54c0-.45.18-.81.45-1.17s.09-.36-1.44-1.62c-1.62-1.26-5.76-5.94-7.48-8.74s-3.51-6.57-3.51-6.57c0,0-.9,5.58,2.52,11.71,3.33,6.21,6.66,8.2,7.57,8.83Z"/>
      <path id="path62" class="cls-4" d="m207.81,175.54c1.89-.72,1.35-2.52,1.35-2.61,0,0-1.17.36-2.16.72-1.08.36-3.6,1.17-4.68,1.17-.99,0-.99-.09-1.08-.27,0-.18.81,0,2.25-.27s4.05-1.62,4.5-1.89c.45-.27.36-.36-.27-.45-.63-.09-1.26-.36-1.44-.54-.27-.18-.9.09-2.61.45s-5.13.99-7.84.99-5.13-.45-5.58-.54-.9.18.45,2.34c1.26,2.16,5.85,3.33,9.01,3.33,3.06-.09,6.21-1.71,8.11-2.43Z"/>
      <path id="path64" class="cls-4" d="m199.43,171.03c3.24,0,4.5-.9,4.5-.9,0,0,0-.18-.45-.81-.45-.63-.36-1.8-.36-1.8,0,0-.81.18-2.16.36-1.35.18-2.88.36-4.68.09-1.71-.27-.99-.54.36-.36s4.05-.36,4.86-.63c.81-.27.54-.54-.09-.81-.54-.18-2.16-1.17-2.16-1.17,0,0-3.96.54-7.57.09-3.69-.45-5.94-1.35-6.75-1.44-.72-.09-.72.18-.72.18,0,0-.18.36,1.08,2.34,1.26,1.98,3.78,3.33,5.85,3.87,2.16.54,5.04.99,8.29.99Z"/>
      <path id="path66" class="cls-4" d="m198.53,163.47s-.18-.18-.36-.9c-.18-.63.36-1.17.36-1.17,0,0-.72-.18-3.15-.54-2.43-.27-2.52-.54-4.05-.81-1.53-.36-2.52-.81-2.43-.9,0-.18.54.09,1.35.45.9.36,4.59.72,6.21.9,1.53.18,2.43.36,2.7.18.27-.18,1.26-.45,1.26-.45,0,0-.63-.18-1.53-.36-.81-.18-1.53-.54-1.98-.81s-.54-.36-2.52-.63c-1.98-.18-3.6-.9-7.11-2.16s-6.21-2.88-6.93-3.42c-.72-.54-.63-.18-.45.54.18.72.18,1.71,1.98,3.78,1.8,2.07,2.7,2.97,7.21,4.68,4.41,1.8,9.46,1.62,9.46,1.62Z"/>
      <path id="path68" class="cls-4" d="m185.2,152.39c3.96,2.79,8.65,3.87,9.64,3.96.18-.27-.27-1.17,0-1.8.27-.72.72-.72,1.62-.72.99-.09.36-.27.09-.27s-.27,0-1.89-.45c-1.62-.45-3.24-.63-5.4-1.53-2.16-.81-2.88-1.44-2.79-1.62.09-.18.99.54,3.06,1.26,2.07.81,4.41,1.08,5.67,1.35s.18-.27-.45-.63c-.63-.36-1.44-1.71-1.44-1.71,0,0-1.44-.27-3.78-.99-2.34-.72-4.32-1.53-6.21-2.61-.63-.36-1.35-.9-1.98-1.35-1.35-.99-2.7-1.98-3.24-2.34-.81-.54-.54-.09-.45.27s.63,1.98,1.89,3.87c1.26,1.98,1.71,2.52,5.67,5.31Z"/>
      <path id="path70" class="cls-4" d="m184.57,144.46c3.96,3.15,7.3,4.05,7.93,4.32.54.27.54-.09.45-.45s-.18-1.44-.18-1.44c0,0-1.44-.81-2.97-1.71-1.53-.9-3.33-2.16-4.5-2.97s-.45-.72-.09-.45,1.98,1.26,3.51,2.25c1.62.99,4.05,2.43,4.05,2.43,0,0,.09-.54.36-.9.36-.36,1.17-.27,1.17-.27,0,0-.45-.45-.63-.81-.27-.36-1.53-.81-2.97-1.53-1.44-.72-4.05-2.61-6.03-4.23-1.89-1.62-5.67-5.67-5.94-6.03-.27-.36-.45-.27-.45.18s-.18.72.27,2.61c.36,1.98,2.07,5.94,6.03,9.01Z"/>
      <path id="path72" class="cls-4" d="m198.53,115.01c.45.9.9,1.62,1.26,2.25.54.9.81,1.53.81,1.53,0,0,.09-.36,0-.9s-.18-1.35,0-2.25c.09-.45.18-.99.18-1.44s-.18-.9-.27-1.17c-.09-.54-.72-2.79-.99-4.41-.27-1.62-.54-3.96-.54-6.03s.36-.99.36,0,.09,2.52.45,4.86,1.26,5.94,1.26,5.94c0,0,.09-.54.36-1.35s.81-1.62,1.17-2.61.27-1.17.27-1.17c0,0-1.35-6.66-1.71-9.73-.36-3.15-.99-11.35-.99-11.35-1.98,2.07-3.51,7.39-3.78,12.43-.18,3.78.45,7.39.63,8.83.27,2.79.72,5.04,1.53,6.57Z"/>
      <path id="path74" class="cls-4" d="m194.03,125.46c.09-1.53.45-2.61,1.35-2.97,0,0-.9-1.53-1.62-3.6-.54-1.44-.9-3.33-1.17-4.77-.54-3.51-.99-7.21.09-1.26s2.34,8.11,2.34,8.11l1.53,2.52c-.27-1.08-.27-1.89-.18-3.06.09-1.17.18-2.79.54-4.05,0,0-1.89-3.69-2.97-8.2-1.17-4.41-1.8-8.47-1.89-10.9-.09-2.34-.18-3.24-.18-3.24,0,0-1.89,1.44-2.52,8.65-.63,7.3,1.26,14.23,2.25,16.84.99,2.61,2.43,5.94,2.43,5.94Z"/>
      <path id="path76" class="cls-4" d="m214.74,180.76s-.27-.18-1.17-.81c-.9-.54-.63-2.25-.63-2.25,0,0-.27.18-.9.63s-1.44.99-2.34,1.35-1.35.63-1.89.81c-.54.18-.45-.09.09-.36.45-.27.63-.45,1.8-.9s3.6-2.61,3.6-2.61c0,0-.54-.09-1.53-.09s-2.25-.54-2.25-.54c0,0-.99.9-4.95,2.61s-7.39,2.16-7.39,2.16c0,0,.45,2.07,2.34,2.7,1.62.72,3.78,1.08,8.11.09,4.23-.9,7.12-2.79,7.12-2.79Z"/>
      <path id="path78" class="cls-4" d="m220.06,184.9c.36-1.71-.63-2.88-.63-2.88,0,0-.18.09-.81.63-.63.54-1.44,1.53-3.15,2.43-1.71.81-2.25.81-.63-.09s3.96-3.33,3.96-3.33l-.63-.27c-.63-.27-1.71.18-6.21,2.88s-7.11,2.79-7.11,2.79c0,0,1.98,2.43,7.48,2.25,5.4-.09,7.39-2.7,7.75-4.41Z"/>
      <path id="path80" class="cls-4" d="m230.32,182.92s-.63.81-1.44,1.35-2.97.9-2.97.9c0,0-.09.27-.54.81s-1.35,1.8-2.34,2.52-2.43,1.17-2.52.99c-.09-.18.9-.54,1.8-1.08s1.8-1.62,2.43-2.34c.63-.72-.27-.63-.27-.63,0,0-1.17,0-2.16-.09-1.08-.09-.81,0-1.17.54-.27.54-.72.99-1.53,1.89-.99,1.08-1.89,2.07-2.79,3.15-.63.72-.18.9-.18.9,0,0,.27.45,2.7.72,1.53.18,3.15,0,4.86-.99,1.08-.63,2.16-1.62,3.24-2.79,3.06-3.24,2.88-5.85,2.88-5.85Z"/>
      <path id="path82" class="cls-4" d="m231.68,189.5c-.63.81-.9,1.08-.9,1.08,0,0,.45-1.26.81-1.89.18-.36.36-.63.54-.81-.36-.9-.72-1.89-.99-2.88-.27.9-1.08,3.42-2.16,5.04-1.26,1.98-2.34,2.7-1.62,3.24.72.54,2.16.63,3.69-.09,1.53-.72,1.98-2.07,2.16-3.15-.27-.45-.54-.81-.72-1.35-.18.18-.54.45-.81.81Z"/>
      <path id="path84" class="cls-4" d="m323.09,145.82c1.26-.9,3.51-2.97,4.23-5.4.72-2.52.45-3.33-.09-2.88s-3.51,2.34-4.32,2.88-1.98,1.26-2.16.99c-.09-.27,1.35-1.17,2.61-2.61,1.17-1.44,4.14-4.14,4.14-6.75s-.72-2.97-1.26-2.34c-.54.63-2.97,3.06-4.05,4.05-.99.99-2.43,2.25-2.7,2.07-.18-.18,1.17-1.53,2.61-3.06,1.44-1.53,2.97-3.33,3.33-6.39.27-2.16-.27-2.97-.63-3.33-.18-.18-.36-.18-.45.09-.36.72-1.53,2.79-2.43,3.87-1.08,1.26-2.61,2.97-3.6,3.96s-1.26,1.35-1.44,1.26.9-1.62,1.71-2.61,2.7-2.97,3.96-5.76.18-6.84-.36-7.21c-.54-.45-.63-.18-.81.09-.18.36-1.8,4.05-2.88,5.58s-2.34,3.6-3.06,4.5c-.63.9-1.17,1.89-1.35,1.8s.09-.9,1.35-2.88c1.17-1.98,3.33-5.67,3.42-7.57.09-1.89-.09-4.14-1.08-6.57-.99-2.43-1.35-2.61-1.35-2.61,0,0-.45-.54-.63.54s-1.17,5.13-2.79,8.38c-1.53,3.15-2.16,4.23-3.51,6.39-1.35,2.07-2.61,3.6-2.61,4.14,0,.63-.27,1.35.36,1.08.54-.36,2.43-1.53,4.23-.99,1.8.63,1.8,1.53,2.07,1.98.18.45.18,1.8-.09,2.34-.27.54-.18.72,0,.9.27.18.9-.18,1.62-.18s2.07,0,2.88.99c.81.99.63,2.34.36,3.42-.36,1.08-1.17,1.62-1.17,1.62,0,0,1.26.36,1.71.63.45.36,1.08.99,1.08,2.34s-1.71,2.52-2.34,2.97c-.63.36-.9.54-.9.54,0,0,1.53.27,1.53,2.61s-1.62,2.97-2.25,3.33c-.63.36-1.26.45-1.26.72s.9.99.99,1.8.27,2.79-1.62,3.78c-1.89.99-2.43.99-2.43,1.53s-.36,1.98-1.26,2.7-1.62.9-1.98,1.08c-.45.18-.99.54-1.08.99-.09.54-.09,1.8-1.44,2.7s-2.79,1.17-3.33,1.17-1.53-.45-1.53.18.18,1.89-.9,3.15-2.61,1.71-3.33,1.71-1.17-.18-1.71-.36c-.54-.18-.9-.18-1.17.45s-.81,1.8-2.07,2.34c-.9.36-1.71.45-2.16.54.27,1.35.36,2.79.18,4.95.27.36.63.81,1.35,1.26,2.25,1.62,4.68,1.98,6.84,1.44,2.07-.54,1.89-1.62,1.89-2.16s-.09-1.17-.9-1.35-2.34-1.35-2.88-1.71-.54-.54-.36-.72c.18-.18.54-.09,1.53.54s4.14,1.53,6.48,1.44,3.51-.9,3.06-1.98-.54-1.08-1.89-1.35c-1.26-.36-2.34-1.17-2.52-1.44-.27-.27-.45-.54-.27-.72.18-.18.81,0,1.98.54,1.17.54,3.42.54,4.95,0,1.53-.63,1.8-1.08,1.53-1.62-.27-.54-.63-.81-1.89-1.26s-2.34-.99-2.25-1.26c.09-.36,2.07.09,3.33.18,1.26.09,4.23.09,5.49-.81,1.17-.9,1.71-2.07,1.08-2.7-.72-.63-1.71-.63-2.97-.81-1.26-.18-2.07-.36-1.98-.72.09-.45.72-.36,3.24-.18,2.52.18,4.14-.09,5.49-.99,1.26-.9,1.62-2.16,1.44-2.52-.18-.45-1.17-1.08-2.79-1.17-1.62-.18-2.07-.09-2.25-.45-.18-.27-.18-.36.81-.63.99-.18,3.42-.45,5.49-1.8,2.16-1.44,2.07-2.25,2.07-2.88s-.72-.99-2.16-.99-2.97-.18-3.33-.18-.54,0-.63-.27c0-.27.18-.36,1.89-.63,1.71-.27,3.42-.99,4.95-2.7s1.35-3.87,1.35-3.87c0,0,0-.72-1.08-.45s-2.52.81-3.69,1.44c-1.17.63-2.07.99-2.25.63-.36-.72,1.71-1.89,3.06-2.79Z"/>
      <path id="path86" class="cls-4" d="m317.69,140.14c-.9-.36-2.25-.18-2.7,0s-.72.36-.99.18c-.27-.18.18-.72,1.26-1.26,1.08-.54,2.7-1.8,2.61-3.15-.18-1.44-.72-1.89-2.43-2.07-1.71-.18-2.79,1.08-3.24,1.44s-1.98,1.26-2.25.9.54-1.17,1.53-2.16,2.07-3.15.99-4.41c-1.08-1.26-2.52-1.17-4.23-.36-1.71.72-1.89,1.53-2.34,1.26-.45-.36,0-1.53,0-2.61s-.9-2.25-.9-2.25c0,0-2.34,4.77-5.31,8.2-2.97,3.42-5.94,6.39-5.85,8.83.09,2.43,1.44,3.96,4.23,5.4,2.88,1.44,3.69,3.6,2.97,5.58-.72,1.98-1.98,3.33-4.77,3.24-2.79-.09-4.41.36-5.49,1.89s-2.52,2.16-3.51,2.25h-.72c0,1.08.09,2.16.27,3.42.27,1.8.45,3.24.72,4.5.09.09.18.27.27.36.36.36.54.45.54.72s.45.63.63.9.9.63.81.72c-.18.09-.45-.09-.72-.36-.27-.18-.27-.27-.54-.27-.18,0-.09-.09-.09-.27,0-.09,0-.45-.27-.45h-.36c.45,1.89.9,3.24,1.26,4.5.63.09,1.89.18,2.97-.63,1.62-1.17.99-2.79.72-3.15-.27-.36-.45-.72-.09-.9s.72-.09,1.08.27c.36.36,2.43,2.34,4.68,1.44s1.71-3.06,1.35-3.87c-.36-.72-.81-1.62-.45-1.98.36-.36.9-.18,1.26.18s2.88.99,4.41.09c1.53-.9,1.8-2.43.99-3.33-.72-.9-2.52-1.17-2.07-1.8s1.26.36,1.98.63c.63.18,2.25.54,3.78-.36s1.62-2.07.72-2.79c-.9-.63-1.98-1.08-1.44-1.62.54-.54,1.17.09,1.71.18s2.34.27,3.51-.72c1.17-.99,1.08-1.53.81-2.79-.27-1.17-1.71-1.35-2.52-1.53-.72-.18-.99-.36-.9-.72s.63-.18,1.98-.36c1.35-.18,3.78-1.44,3.96-2.52s-.18-2.52-1.71-2.52c-1.44-.09-2.61-.09-2.61-.45.09-.45.36-.27.9-.36s3.24-.63,4.5-2.07c1.35-1.53-.09-2.7-.9-2.97Z"/>
      <path id="path88" class="cls-4" d="m327.41,134.83s3.42-2.7,5.76-7.57c2.43-4.86,3.15-8.74,3.51-11.8.36-3.15-.18-5.22-.54-6.66s-.72-2.52-1.17-.54c-.36,1.98-2.52,8.74-3.51,11.44s-2.88,5.4-3.78,6.84c-.27.45-.72.9-.99,1.35-.63.99-.99,1.8-.99,1.8,0,0,.27,0,.54-.36.27-.36.54-.63.81-.54.36.09.81,1.8.81,1.8,0,0,1.35-1.53,2.43-3.42,1.17-1.89,2.61-5.49,2.61-5.49,0,0-.81,3.6-2.43,6.03-1.62,2.43-2.43,3.51-2.43,3.51,0,0,.18.9,0,1.8-.18.54-.63,1.8-.63,1.8Z"/>
      <path id="path90" class="cls-4" d="m340.29,119.79s-1.8,3.78-3.51,6.57c-1.71,2.79-5.85,7.48-7.48,8.74-1.62,1.26-1.71,1.26-1.44,1.62s.45.72.45,1.17v.54s2.88-2.34,4.32-3.96c1.53-1.62,2.97-2.97,1.17-.72s-2.79,3.06-3.51,3.69-1.8,1.53-1.8,1.53c0,0-.09,1.17-.18,1.8s-.36,1.08-.36,1.08c0,0,1.35-.9,2.25-1.53s4.23-2.61,7.66-8.83c3.33-6.12,2.43-11.71,2.43-11.71Z"/>
      <path id="path92" class="cls-4" d="m323.81,99.61c-.27-5.04-1.8-10.45-3.78-12.43,0,0-.54,8.2-.99,11.35-.36,3.15-1.71,9.73-1.71,9.73,0,0-.09.18.27,1.17.36.99.9,1.89,1.17,2.61.27.81.36,1.35.36,1.35,0,0,.99-3.6,1.35-5.94.27-2.34.45-3.87.45-4.86s.27-1.98.36,0c0,2.07-.27,4.32-.54,6.03-.27,1.62-.81,3.96-.99,4.41-.09.27-.27.72-.27,1.17s.09.9.18,1.44c.18.9.09,1.71,0,2.25s0,.9,0,.9c0,0,.27-.63.81-1.53.36-.63.81-1.35,1.26-2.25.72-1.53,1.26-3.78,1.62-6.57,0-1.53.63-5.04.45-8.83Z"/>
      <path id="path94" class="cls-4" d="m328.49,119.52c.99-2.61,2.88-9.64,2.25-16.84-.63-7.3-2.52-8.65-2.52-8.65,0,0-.09.9-.18,3.24,0,2.43-.72,6.48-1.89,10.9-1.17,4.41-2.97,8.2-2.97,8.2.36,1.26.54,2.88.54,4.05.09,1.17,0,1.98-.18,3.06l1.53-2.52s1.26-2.16,2.34-8.11c1.08-5.94.63-2.34.09,1.26-.18,1.44-.63,3.33-1.17,4.77-.72,2.16-1.62,3.6-1.62,3.6.99.36,1.35,1.44,1.35,2.97,0,0,1.44-3.33,2.43-5.94Z"/>
      <path id="path96" class="cls-4" d="m329.84,172.29c-.45.09-2.88.54-5.58.54s-6.12-.63-7.84-.99c-1.71-.36-2.34-.72-2.61-.45-.27.18-.81.54-1.44.54-.63.09-.72.09-.27.45.45.27,3.06,1.62,4.5,1.89,1.44.27,2.25.09,2.25.27s0,.27-1.08.27c-.99,0-3.6-.81-4.68-1.17s-2.16-.81-2.16-.72-.54,1.89,1.35,2.61,5.04,2.43,8.2,2.43,7.66-1.17,9.01-3.33c1.26-2.16.81-2.43.36-2.34Z"/>
      <path id="path98" class="cls-4" d="m335.07,163.56c-.72.09-3.06,1.08-6.75,1.44-3.69.45-7.57-.09-7.57-.09,0,0-1.53.99-2.16,1.17-.54.18-.9.45-.09.81.81.27,3.51.81,4.86.63,1.35-.18,2.16,0,.36.36-1.71.27-3.33.09-4.68-.09s-2.16-.36-2.16-.36c0,0,.09,1.17-.36,1.8s-.45.81-.45.81c0,0,1.17.99,4.5.9,3.24,0,6.12-.45,8.2-1.08,2.07-.63,4.59-1.89,5.85-3.87,1.26-1.98,1.08-2.34,1.08-2.34,0,0,.18-.18-.63-.09Z"/>
      <path id="path100" class="cls-4" d="m339.75,152.93c-.72.54-3.42,2.16-6.93,3.42-3.6,1.26-5.13,1.89-7.11,2.16-1.98.18-2.16.27-2.52.63-.45.27-1.17.63-1.98.81-.81.18-1.53.36-1.53.36,0,0,.99.27,1.26.45s1.17,0,2.7-.18,5.31-.63,6.21-.9c.9-.36,1.35-.54,1.35-.45s-.99.63-2.43.9c-1.53.36-1.62.54-4.05.81s-3.15.54-3.15.54c0,0,.54.54.36,1.17-.18.63-.36.9-.36.9,0,0,5.04.18,9.64-1.44,4.5-1.62,5.4-2.61,7.21-4.68,1.8-2.07,1.8-3.06,1.98-3.78.09-.81.09-1.26-.63-.72Z"/>
      <path id="path102" class="cls-4" d="m342,143.11c-.54.36-1.89,1.35-3.24,2.34-.72.54-1.35.99-1.98,1.35-1.98,1.08-3.87,1.89-6.21,2.61s-3.78.99-3.78.99c0,0-.81,1.35-1.44,1.71s-1.71.9-.45.63,3.69-.54,5.67-1.35c2.07-.81,2.97-1.44,3.06-1.26s-.63.81-2.79,1.62c-2.25.81-3.87,1.08-5.4,1.53q-1.62.45-1.89.45c-.18,0-.81.18.09.27.99.09,1.35.09,1.62.72.18.54-.27,1.53,0,1.8.99-.09,5.67-1.17,9.64-3.96,3.96-2.79,4.41-3.33,5.67-5.22,1.26-1.8,1.8-3.51,1.89-3.87.09-.45.36-.9-.45-.36Z"/>
      <path id="path104" class="cls-4" d="m326.96,145.73c.36.36.36.9.36.9,0,0,2.43-1.44,4.05-2.43s3.24-1.89,3.6-2.25c.36-.27,1.08-.36-.09.45-1.17.81-2.88,2.07-4.5,2.97-1.53.9-2.97,1.71-2.97,1.71,0,0-.09,1.08-.18,1.44s-.18.63.45.45c.54-.27,3.96-1.17,7.93-4.32s5.67-7.02,6.12-8.92.27-2.16.27-2.61-.18-.45-.45-.18-3.96,4.41-5.94,6.03c-1.89,1.62-4.59,3.6-6.03,4.23-1.44.72-2.79,1.08-2.97,1.53-.27.36-.63.81-.63.81,0,0,.72-.18.99.18Z"/>
      <path id="path106" class="cls-4" d="m310.57,175.99s-1.26.54-2.25.54-1.53.09-1.53.09c0,0,2.43,2.07,3.6,2.61,1.17.45,1.35.63,1.8.9s.63.54.09.36-.99-.45-1.89-.81-1.62-.9-2.34-1.35-.9-.63-.9-.63c0,0,.27,1.71-.63,2.25s-1.17.81-1.17.81c0,0,2.97,1.8,7.21,2.79,4.32.99,6.48.63,8.11-.09,1.89-.72,2.34-2.7,2.34-2.7,0,0-3.42-.45-7.39-2.16-4.05-1.71-5.04-2.61-5.04-2.61Z"/>
      <path id="path108" class="cls-4" d="m301.92,181.48l-.63.27s2.34,2.43,3.96,3.33.99.9-.63.09c-1.71-.81-2.52-1.89-3.15-2.43s-.81-.63-.81-.63c0,0-.99,1.17-.63,2.88.36,1.71,2.34,4.32,7.75,4.5,5.49.18,7.48-2.25,7.48-2.25,0,0-2.61-.09-7.11-2.79-4.5-2.79-5.58-3.24-6.21-2.97Z"/>
      <path id="path110" class="cls-4" d="m300.39,187.69c-.81-.9-1.17-1.35-1.53-1.89s-.09-.63-1.17-.54c-1.08.09-2.16.09-2.16.09,0,0-.9-.09-.27.63.63.72,1.44,1.8,2.43,2.34.9.54,1.89.9,1.8,1.08s-1.62-.27-2.52-.99c-.99-.72-1.89-1.98-2.34-2.52-.45-.54-.54-.81-.54-.81,0,0-2.16-.36-2.97-.9s-1.44-1.35-1.44-1.35c0,0-.18,2.61,2.79,5.76,1.08,1.26,2.25,2.16,3.24,2.79,1.71.99,3.33,1.17,4.86.99,2.43-.27,2.7-.72,2.7-.72,0,0,.45-.18-.18-.9-.81-.9-1.8-1.89-2.7-3.06Z"/>
      <path id="path112" class="cls-4" d="m289.05,184.99c-.27,1.08-.54,1.98-.99,2.88.18.18.36.54.54.81.36.63.81,1.89.81,1.89,0,0-.36-.36-.9-1.08-.36-.45-.63-.63-.81-.81-.27.45-.45.9-.72,1.35.18,1.08.63,2.34,2.16,3.15,1.62.81,2.97.63,3.69.09.72-.54-.36-1.26-1.62-3.24-1.08-1.62-1.98-4.14-2.16-5.04Z"/>
      <ellipse id="ellipse114" class="cls-4" cx="288.78" cy="109.07" rx="1.08" ry=".99"/>
      <path id="path116" class="cls-4" d="m275.18,108.53c.54.36,1.17.63,1.8.81,2.16.63,4.41.27,6.12-.54,2.16-1.17,3.96-1.89,5.31-2.07,1.08-.09,1.71.36,2.7.36.36,0,.63-.09.72-.27.18-.45.09-1.53-1.44-2.34-1.53-.9-3.87-.81-5.94-.18-2.07.63-3.24,1.44-4.05,1.98-.81.63-1.8,1.53-1.98,1.35-.27-.18.45-.63.9-.99l.54-.54c-2.25.18-4.68-.63-6.66-1.98,0-.09-.72,2.88,1.98,4.41Z"/>
      <path id="path118" class="cls-4" d="m298.05,107.18c-1.53-.72-2.97-.63-4.86.09-1.8.72-2.7,1.26-2.7,1.26,0,0,.27,1.62-.81,2.34-1.08.72-2.25.27-2.52-.45s-.36-1.08-.36-1.08c0,0-1.8.99-4.14,1.44-1.35.27-3.87.54-5.49-.09,0,0-1.44,1.44-2.52,2.25-1.08.9-2.25,1.62-2.25,1.62,0,0,.09.36.63.54s.72.27.36.81-2.79,2.79-3.87,3.6c-1.08.81-2.7,1.35-2.7,1.35,0,0,.54.99,1.26,1.26s.9.81.54,1.26c-.27.54-2.88,3.33-3.96,4.32-1.08.99-1.89,1.08-2.34,1.26-.45.09-1.35.63-.36,1.71.9,1.08,3.15,1.44,5.4.81s4.41-3.24,4.41-3.24c0,0-.45,3.78-.45,5.58s.18,3.78.54,4.77c.27.99.63,1.53.63,1.53,0,0,1.53-.9,2.52-3.51s1.26-4.05,1.26-4.86,0-1.17.72-.81,1.17.72,1.44.72h.45s-.45-1.89-.45-3.33.45-4.5,1.08-5.04.72.18.81.54c.09.72.72,1.62,1.62,1.89.27-2.07.72-3.78,2.52-5.67.36-.36.54-.81,1.62-.36,1.62.63,3.6.99,5.22.45,1.62-.63,2.7-2.25,2.34-2.43-.09,0-2.43,1.17-4.32.54-1.8-.63-2.7-1.17-1.62-2.34,1.08-1.08,1.53-1.26,3.69-2.97,2.16-1.8,3.87-2.7,5.76-2.34,1.89.27,2.25,1.44,2.43,1.62.18.18.99.9.99-.72-.27-1.62-.99-3.69-2.52-4.32Z"/>
      <path id="path120" class="cls-4" d="m277.97,137.62c-.36-.54-1.08-2.07-1.08-2.07,0,0-.09.36-.45,1.44s-1.53,2.61-1.53,2.61c0,0,.9-.18,1.89-.45s1.62-.9,1.62-.9c0,0-.09-.09-.45-.63Z"/>
      <path id="path122" class="cls-4" d="m270.31,131.86s-.63,1.53-1.98,2.88-2.43,1.17-2.43,1.17c0,0,.18,0,1.17-.72.99-.72,2.07-2.79,2.07-2.79-1.17.72-3.69,1.35-5.04,1.08,0,0-.18.45-.54,1.35-.36.81-1.26,2.43-1.8,3.06-.54.72-.09.81-.09.81,0,0,.27.27,3.51,1.17s6.12.36,6.12.36c0,0-.09-.27-.72-2.52-.63-2.25-.27-5.85-.27-5.85Z"/>
      <ellipse id="ellipse124" class="cls-4" cx="231.31" cy="109.07" rx="1.08" ry=".99"/>
      <path id="path126" class="cls-4" d="m228.97,107.18c.99,0,1.53-.54,2.7-.36,1.35.09,3.15.9,5.31,2.07,1.71.81,3.96,1.17,6.12.54.63-.18,1.17-.54,1.8-.81,2.7-1.53,1.98-4.5,1.98-4.5-1.98,1.44-4.41,2.16-6.66,1.98,0,0,.18.09.54.54.36.36,1.08.81.9.99-.27.18-1.17-.72-1.98-1.35-.81-.63-1.98-1.44-4.05-1.98-2.07-.63-4.41-.63-5.94.18-1.53.9-1.71,1.98-1.44,2.34.09.27.36.36.72.36Z"/>
      <path id="path128" class="cls-4" d="m257.79,128.79c-.45-.09-1.26-.27-2.34-1.26s-3.6-3.78-3.96-4.32c-.27-.54-.18-.99.54-1.26.72-.27,1.26-1.26,1.26-1.26,0,0-1.62-.63-2.61-1.35-1.08-.81-3.6-2.97-3.87-3.6-.36-.54-.18-.63.36-.81.54-.18.63-.54.63-.54,0,0-1.17-.72-2.25-1.62s-2.52-2.25-2.52-2.25c-1.62.63-4.14.36-5.49.09-2.43-.45-4.14-1.44-4.14-1.44,0,0-.09.36-.36,1.08-.27.72-1.44,1.17-2.52.45-1.08-.72-.9-2.34-.9-2.34,0,0-.9-.54-2.7-1.26s-3.33-.81-4.86-.09c-1.53.72-2.25,2.79-2.25,4.32s.81.9.99.72.54-1.35,2.43-1.62,3.6.63,5.76,2.34c2.16,1.8,2.61,1.89,3.69,2.97,1.08,1.08.18,1.71-1.62,2.34s-4.23-.63-4.32-.54c-.36.18.81,1.8,2.34,2.43,1.62.63,3.6.18,5.22-.45,1.08-.45,1.26,0,1.62.36,1.71,1.8,2.16,3.51,2.52,5.67.9-.27,1.53-1.17,1.62-1.89.09-.36.18-1.08.81-.54.63.54,1.08,3.69,1.08,5.04,0,1.44-.45,3.33-.45,3.33h.45c.27,0,.81-.36,1.44-.72.72-.36.72,0,.72.81s.27,2.25,1.26,4.86,2.52,3.51,2.52,3.51c0,0,.27-.54.63-1.53.27-.99.54-3.06.54-4.77s-.45-5.58-.45-5.58c0,0,2.16,2.61,4.41,3.24s4.5.27,5.4-.81c.72-1.08-.09-1.53-.63-1.71Z"/>
      <path id="path130" class="cls-4" d="m243.2,135.64s-.72,1.53-1.08,2.07c-.36.54-.54.63-.54.63,0,0,.72.54,1.62.9.99.27,1.89.45,1.89.45,0,0-1.08-1.53-1.53-2.61-.36-1.08-.36-1.44-.36-1.44Z"/>
      <path id="path132" class="cls-4" d="m256.53,134.74c-.36-.81-.54-1.35-.54-1.35-1.35.27-3.96-.36-5.13-1.08,0,0,.99,2.07,2.07,2.79.99.72,1.17.72,1.17.72,0,0-.99.18-2.43-1.17-1.35-1.35-1.98-2.88-1.98-2.88,0,0,.27,3.6-.27,5.85-.54,2.25-.72,2.52-.72,2.52,0,0,2.88.54,6.12-.36,3.24-.9,3.51-1.17,3.51-1.17,0,0,.36-.09-.09-.81-.36-.63-1.35-2.25-1.71-3.06Z"/>
      <path id="path134" class="cls-4" d="m245.18,215.97c.72.27,1.98-.27,2.61-1.08.63-.81.9-1.98,1.35-2.61.45-.72.81-1.17.81-1.17,0,0-.09,1.17-.72,2.61-.54,1.44-.72,3.42-.54,4.23.27,1.71,1.35,1.98,1.98,1.71.45-.18,1.26-.9,1.89-2.07.18-.36.36-.81.54-1.26.45-.81.81-2.16.99-2.16.45.09.18.99,0,1.71-.36,1.26-.99,3.15-.99,4.32s.09,3.15,1.26,3.24,1.71-.9,2.34-3.24.81-3.06,1.08-3.06.27,1.62.27,2.25c0,.27,0,.9.09,1.53.18,1.26.54,2.7.9,3.06.54.54.99.45.99.45,0,0,.45.09.99-.45s.99-3.96.99-4.59c0-.72,0-2.25.27-2.25s.45.72,1.08,3.06,1.26,3.33,2.34,3.24c1.17-.09,1.26-2.16,1.26-3.24-.09-1.17-.72-2.97-.99-4.32-.36-1.26.18-1.17.99.45.27.54.54,1.17.81,1.62.63.99,1.17,1.53,1.62,1.71.63.27,1.71,0,1.98-1.71.27-1.71-.99-6.48-.99-6.48,0,0,.09.18.54.81.45.72.72,1.89,1.35,2.61.63.81,1.89,1.26,2.61,1.08.72-.27.81-1.53.27-3.78s-2.52-3.51-4.05-5.4c-1.35-1.71-2.34-4.59-2.52-5.13-1.8.9-3.42,1.98-4.86,3.42-3.06,3.15-3.69,3.96-3.69,3.96,0,0-.63-.81-3.69-3.96-1.44-1.53-3.06-2.52-4.95-3.51-.18.36-1.44,3.24-2.79,4.86-.63.81-1.62,1.44-2.25,2.25-.81.9-1.26,2.07-1.53,3.33-.45,2.43-.36,3.78.36,3.96Z"/>
      <path id="path136" class="cls-4" d="m245.09,223.72c.9-.81,1.35-1.17,1.35-1.17,0,0,.63-.54.45.45s-.54,3.06-.27,4.05c.18.9.36,1.71,1.44.99,1.08-.63,1.35-1.08,1.89-1.62.54-.54,1.08-.81.99.09s-.54,2.25-.36,4.05,1.08,2.07,2.25.54c1.17-1.53,1.8-2.88,2.16-3.69.36-.72,1.08-1.35,1.08,0,0,2.97.72,7.39,3.96,8.47,3.33-1.17,3.96-5.49,3.96-8.47,0-1.35.72-.72,1.08,0,.36.72,1.08,2.16,2.16,3.69,1.17,1.53,2.07,1.26,2.25-.54s-.18-3.15-.36-4.05.45-.63.99-.09.81.99,1.89,1.62c1.08.63,1.26-.09,1.44-.99s-.09-2.97-.27-4.05c-.18-.99.45-.45.45-.45,0,0,.45.45,1.35,1.17.9.81,2.07.81,2.07.81,0,0,.54-3.15-.72-5.04-1.35-1.89-1.8-2.52-1.8-2.52,0,0-.72,0-1.35-.27-.54-.18-1.08-.63-1.08-.63v1.71s1.62,1.53,1.98,1.98c.36.45,1.08,1.26,0,.45-1.08-.72-1.98-1.53-1.98-1.53,0,0-.18,1.62-.63,1.98-.45.36-1.08.45-1.35.36l-.27-.09-.09.63s.99,1.8,1.08,2.61c.09.72-.09.63-.54-.27-.45-.99-1.35-2.16-1.71-2.88s-.99-1.08-.9-.27c.09.9-.27,2.43-.63,2.97-.27.54-.45.72-.45.72,0,0,.63,2.16.72,2.61.09.36,0,.9-.36.36s-1.35-2.61-1.35-2.61c0,0-1.35-.09-1.71-.45s-.99-1.8-.99-1.8c0,0-.54,1.8-.99,2.43s-1.44,1.17-1.44,1.17c0,0-.09,3.24-.18,3.78s-.09.81-.36.81-.27-.27-.36-.81-.18-3.78-.18-3.78c0,0-.99-.63-1.44-1.17-.45-.63-.99-2.43-.99-2.43,0,0-.63,1.44-.99,1.8s-1.71.45-1.71.45c0,0-.99,2.16-1.35,2.61-.36.54-.36.09-.36-.36.09-.36.72-2.61.72-2.61,0,0-.18-.18-.45-.72-.27-.54-.63-2.07-.63-2.97.09-.9-.54-.36-.9.27s-1.26,1.89-1.71,2.88-.63,1.08-.54.27,1.08-2.61,1.08-2.61l-.09-.63-.27.09c-.27.09-.9.09-1.35-.36-.45-.36-.63-1.98-.63-1.98,0,0-.9.72-1.98,1.53-1.08.72-.36,0,0-.45s1.98-1.98,1.98-1.98v-1.71s-.54.45-1.08.63-1.35.27-1.35.27c0,0-.45.63-1.8,2.52-1.35,1.89-.72,5.04-.72,5.04,0,0,1.35-.09,2.25-.81Z"/>
      <path id="path138" class="cls-4" d="m241.58,234.44c.81-.54,1.44-1.08,3.24-2.25s2.43-2.52,2.43-2.52h-.63c-.36,0-.63-.45-.63-.99,0-.45,0-1.44.09-2.61s-.18-2.07-.18-2.07c0,0-.72.72-1.89,1.35-1.17.63-1.62.36-1.62.36l-.27-1.17s-.54,1.08-1.17,2.25c-.72,1.26-2.61,2.61-3.96,3.6s-2.88,2.07-3.96,2.52c-1.17.36-.45.9-.45.9,0,0,1.17,1.17,4.05,1.62,2.79.63,4.14-.54,4.95-.99Z"/>
      <path id="path140" class="cls-4" d="m251.76,233.27c-1.08-.09-1.62-.54-1.89-1.62-.09-.72.09-3.6.09-3.6,0,0-.36.27-.72.81-.36.45-1.26.54-1.26.54,0,0-.09.36-.54.99-.36.63-.9,1.44-1.89,2.07-.99.63-2.16,1.35-2.88,1.98-.72.63-1.62,1.35-2.61,1.89s-1.89,1.44-2.25,2.88-.09,1.98,1.08,1.89c1.17-.09,1.26,0,3.15-.45s4.5-2.52,6.48-3.78c1.8-1.17,3.24-3.6,3.24-3.6Z"/>
      <path id="path142" class="cls-4" d="m256.98,234.98s-.81-.99-1.08-2.16c-.27-1.17-.81-3.33-.81-3.33,0,0-.27.72-.9,2.07s-1.71,1.62-1.71,1.62c0,0-.09.54-.99,1.71s-2.25,2.16-3.51,2.97c-1.35.81-3.06,1.89-4.05,3.24s-.99,2.7-.54,3.33,1.08-.09,1.98-.54,3.42-.81,6.93-2.7c3.51-1.89,4.68-6.21,4.68-6.21Z"/>
      <path id="path144" class="cls-4" d="m258.51,242.9c.99-1.44,1.17-4.95,1.17-4.95,0,0-.36-.27-.81-.63-.45-.36-1.35-1.8-1.35-1.8,0,0-.54,1.17-1.17,2.34-.63,1.17-.99,1.53-2.25,2.7-1.35,1.17-3.06,2.43-3.87,3.69-.72,1.26-.36,3.87.18,4.77s1.17.54,1.98-.09c.72-.72.99-.9,2.25-1.98,1.08-1.26,2.88-2.61,3.87-4.05Z"/>
      <path id="path146" class="cls-4" d="m287.24,233c-1.17-.36-2.61-1.44-3.96-2.52-1.35-.99-3.24-2.43-3.96-3.6-.72-1.26-1.17-2.25-1.17-2.25l-.27,1.17s-.45.27-1.62-.36c-1.17-.63-1.89-1.35-1.89-1.35,0,0-.36.9-.18,2.07.09,1.17.18,2.07.09,2.61,0,.45-.27.99-.63.99h-.63s.63,1.35,2.43,2.52,2.43,1.71,3.24,2.25,2.16,1.71,5.13,1.17c2.88-.54,4.05-1.62,4.05-1.62,0,0,.45-.72-.63-1.08Z"/>
      <path id="path148" class="cls-4" d="m280.22,236.42c-.99-.54-1.89-1.26-2.61-1.89s-1.89-1.35-2.88-1.98-1.53-1.44-1.89-2.07c-.36-.63-.54-.99-.54-.99,0,0-.9-.09-1.26-.54s-.72-.81-.72-.81c0,0,.18,2.79.09,3.6-.18,1.17-.81,1.53-1.89,1.62,0,0,1.44,2.43,3.33,3.69,1.98,1.26,4.59,3.33,6.48,3.78s1.98.36,3.15.45,1.44-.36,1.08-1.89c-.45-1.53-1.35-2.43-2.34-2.97Z"/>
      <path id="path150" class="cls-4" d="m272.2,237.86c-1.35-.81-2.61-1.89-3.51-2.97-.9-1.17-.99-1.71-.99-1.71,0,0-1.08-.36-1.71-1.62-.63-1.35-.9-2.07-.9-2.07,0,0-.54,2.25-.81,3.33-.27,1.17-1.08,2.16-1.08,2.16,0,0,1.17,4.32,4.68,6.21,3.51,1.89,6.03,2.25,6.93,2.7s1.53,1.17,1.98.54c.45-.63.36-1.98-.54-3.33-.99-1.35-2.7-2.43-4.05-3.24Z"/>
      <path id="path152" class="cls-4" d="m266.17,240.56c-1.35-1.17-1.62-1.62-2.25-2.7-.63-1.17-1.17-2.34-1.17-2.34,0,0-.9,1.44-1.35,1.8s-.81.63-.81.63c0,0,.18,3.51,1.17,4.95.99,1.44,2.79,2.88,4.05,3.96,1.26,1.08,1.53,1.26,2.25,1.98.72.72,1.44.99,1.98.09s.9-3.42.18-4.77c-.9-1.26-2.7-2.43-4.05-3.6Z"/>
      <path id="path154" class="cls-4" d="m261.22,244.61c-.81-.99-1.17-1.44-1.17-1.44,0,0-.27.45-1.17,1.44-.81.99-2.79,2.52-2.79,2.52,0,0,.18,2.61,1.17,4.05.81,1.17,1.53,2.25,2.79,3.06,1.26-.81,1.98-1.89,2.79-3.06.99-1.44,1.17-4.05,1.17-4.05,0,0-1.98-1.53-2.79-2.52Z"/>
      <path id="path156" class="cls-3" d="m331.83,212.55c-.81-.18-1.08-.45-1.08-.45,0,0-.36,0-.63.45-.27.45-1.26,1.08-1.26,1.08,0,0-1.44.36-1.62,1.35-.18.99.45,1.35,1.17,1.17.63-.09,2.34-.45,3.06-1.35s.81-1.35.99-1.71c.09-.27.18-.36-.63-.54Z"/>
      <path id="path158" class="cls-3" d="m334.08,204.81c-.54-2.16-1.89-4.86-4.59-6.21,0,0-.99,3.51-1.35,4.68q-.27,1.08.54,1.35c.9.18,3.6.81,4.14.99.63.09,1.62.63,1.26-.81Z"/>
      <path id="path160" class="cls-3" d="m321.29,202.82c.63.09.54-.18.81-.99.18-.9,1.35-5.13,1.35-5.13,0,0-2.88-.09-5.31,1.08-2.43,1.17-3.51,3.42-3.51,3.42,0,0,.63.27,2.34.63,1.53.36,3.69.81,4.32.99Z"/>
      <path id="path162" class="cls-3" d="m314.71,208.68c-.99-.18-1.35-.27-1.35-.27,0,0,.63,2.43,1.71,3.78,1.08,1.35,2.16,1.98,4.41,2.07,2.16,0,3.78-1.17,4.05-2.07s.72-1.62.72-1.62c0,0-3.96-.54-5.49-.9-1.8-.45-3.06-.81-4.05-.99Z"/>
      <path id="path164" class="cls-2" d="m283.28,161.13c-.99-6.03,2.52-11.44,2.52-11.44l-6.84-7.93c-5.22,2.97-12.52,2.52-18.91-.36-6.39,2.88-13.69,3.33-18.91.36l-6.84,7.93s3.51,5.31,2.52,11.44c-.99,6.03-3.15,15.67-2.61,19.63s3.33,8.47,6.12,10.81c2.88,2.34,7.11,4.41,10.09,5.49,2.97,1.08,5.94,3.15,7.3,4.23s2.34,1.98,2.34,1.98c0,0,.9-.9,2.34-1.98,1.35-1.08,4.32-3.15,7.3-4.23,2.97-1.08,7.21-3.06,10.09-5.49,2.88-2.34,5.58-6.93,6.12-10.81.54-3.87-1.62-13.51-2.61-19.63Z"/>
      <path id="path166" class="cls-2" d="m269.41,126.81c-.99,1.17-3.42,2.25-3.42,2.25l-.09.18s.99-.18,1.98-.72c.99-.54,2.43-1.8,2.7-2.25.27-.54-.09-.81-.09-.81,0,0-.09.18-1.08,1.35Z"/>
      <path id="path168" class="cls-2" d="m273.55,129.15c0,.63-.27,5.22-.27,5.22,0,.18-.09,1.62-.45,1.8.18,0,.54.09.63-.63.09-.81.99-6.66.99-6.66l-.54-.18c.09-.09-.36-.27-.36.45Z"/>
      <path id="path170" class="cls-2" d="m281.21,117.63c-.45.09-1.44.9-2.07,1.35-.54.45-.9.45-1.44.72s-.36-.9,0-1.8c.27-.9,1.35-2.07,2.16-2.97s0-.63-.36-.27c-.36.36-1.26,1.26-2.25,2.97-.99,1.62-1.53,5.31-1.53,5.31,0,0,.63-.36,1.26-.81.63-.45,1.26-.81,2.43-1.62,1.17-.9,1.89-1.53,2.43-2.16.54-.72-.18-.81-.63-.72Z"/>
      <path id="path172" class="cls-2" d="m250.68,126.81c-.99-1.17-1.08-1.44-1.08-1.44,0,0-.36.36-.09.81.27.54,1.71,1.71,2.7,2.25s1.98.72,1.98.72l-.09-.18c0,.09-2.43-.99-3.42-2.16Z"/>
      <path id="path174" class="cls-2" d="m246.72,134.38s-.27-4.5-.27-5.22c0-.63-.45-.54-.45-.54l-.54.18s.81,5.76.99,6.66c.09.72.45.63.63.63-.27-.18-.36-1.53-.36-1.71Z"/>
      <path id="path176" class="cls-2" d="m240.59,114.65c-.36-.36-1.17-.63-.36.27s1.89,1.98,2.16,2.97c.27.9.45,2.07,0,1.8-.54-.27-.9-.27-1.44-.72s-1.62-1.26-2.07-1.35-1.17,0-.63.72c.63.72,1.26,1.35,2.43,2.16,1.17.9,1.89,1.26,2.43,1.62.63.45,1.26.81,1.26.81,0,0-.54-3.69-1.53-5.31-.99-1.62-1.89-2.52-2.25-2.97Z"/>
      <path id="path178" class="cls-2" d="m259.95,220.03c.09,0,.09-.27.18-.81,0-.54.09-1.8.18-2.52s-.18-.72-.36-.63c-.18,0-.27.63-.27.9,0,.36.09,2.16.09,2.61,0,.36.09.36.18.45Z"/>
      <path id="path180" class="cls-2" d="m273.19,213.27c.54,1.08.63.9.45,0-.27-.9-.54-1.62-1.08-2.43-.45-.81-1.71-1.98-1.71-1.98,0,0,.36.72.81,1.35.45.72.99,1.98,1.53,3.06Z"/>
      <path id="path182" class="cls-2" d="m268.24,214.17c.18.72,1.26,2.61,1.35,2.52s-.45-1.71-.81-2.88c-.36-1.17-.9-1.98-.99-1.98-.09.09.09.72.09.72,0,0,.09.9.36,1.62Z"/>
      <path id="path184" class="cls-2" d="m264.28,217.33c.18.54.54,1.08.63.99s-.27-1.08-.36-1.35-.09-.9-.45-1.62c-.36-.63-.45-.36-.45-.09s.45,1.53.45,1.53c0,0-.09.09.18.54Z"/>
      <path id="path186" class="cls-2" d="m246.9,213.27c.54-1.08,1.08-2.34,1.53-2.97.45-.63.81-1.35.81-1.35,0,0-1.26,1.17-1.71,1.98-.45.81-.81,1.62-.99,2.43-.27.81-.18.99.36-.09Z"/>
      <path id="path188" class="cls-2" d="m251.94,214.17c.18-.72.36-1.17.36-1.17,0,0,.18-.63.09-.72-.09-.09-.63.45-.99,1.53-.36,1.17-.9,2.79-.81,2.88.09.09,1.08-1.8,1.35-2.52Z"/>
      <path id="path190" class="cls-2" d="m255.81,217.33c.18-.45.18-.54.18-.54,0,0,.36-1.26.36-1.53s-.09-.54-.45.09c-.36.72-.36,1.35-.45,1.62s-.45,1.26-.36,1.35c.27.18.54-.45.72-.99Z"/>
      <path id="path192" class="cls-2" d="m243.65,229.39l-.54-.36s-.27.45-.72.9-.99.63-1.26,1.08c-.36.45-.9.99-1.71,1.44s-1.17.54-.99.72c.18.09.72-.18.72-.18,0,0,.27,0,1.17-.63s1.17-.9,1.8-1.44,1.53-1.53,1.53-1.53Z"/>
      <path id="path194" class="cls-2" d="m247.89,234.44c.36-.36.72-.63.54-.9-.18-.18-.45-.18-.81.09-.36.27-1.35,1.17-1.8,1.62-.45.36-.81.63-1.26.99s-1.44.9-1.89,1.17,0,.27,0,.27c0,0,.36-.18.72-.36.36-.09,1.53-.63,1.53-.63,0,0,.45-.18,1.08-.63.63-.45,1.53-1.26,1.89-1.62Z"/>
      <path id="path196" class="cls-2" d="m252.75,237.77c.27-.63,0-.45-.54-.27s-1.71,1.53-2.43,1.98-1.26.63-1.8.99c-.54.27-.54.45-.54.54s.27.09.54,0c.27-.09,1.08-.54,1.08-.54,0,0,.36-.09.63-.09.36,0,.72-.36,1.44-.99.72-.63,1.35-.99,1.62-1.62Z"/>
      <path id="path198" class="cls-2" d="m255.09,242.27c-.9.54-2.34,1.71-2.79,2.52-.36.81-.63,1.35-.54,1.44s.54-.09.72-.45c.18-.36.54-.81.54-.81,0,0,1.53-1.44,2.07-1.8s1.44-1.35,1.62-1.89c.18-.54.09-.9.09-.9,0,0-.9,1.44-1.71,1.89Z"/>
      <path id="path200" class="cls-2" d="m280.76,232.46c-.81-.45-1.35-.99-1.71-1.44s-.81-.63-1.26-1.08-.72-.9-.72-.9l-.54.36s.81.99,1.44,1.53.9.9,1.8,1.44c.99.54,1.17.63,1.17.63,0,0,.54.36.72.18.27-.18-.09-.27-.9-.72Z"/>
      <path id="path202" class="cls-2" d="m277.43,237.32c-.45-.27-1.44-.81-1.89-1.17s-.81-.54-1.26-.99c-.45-.36-1.44-1.35-1.8-1.62s-.63-.36-.81-.09c-.18.18.18.45.54.9.36.36,1.26,1.26,1.89,1.62.63.45,1.08.63,1.08.63,0,0,1.17.54,1.53.63.36.09.72.36.72.36,0,0,.45,0,0-.27Z"/>
      <path id="path204" class="cls-2" d="m272.11,240.47c-.54-.27-1.17-.45-1.8-.99-.72-.45-1.89-1.8-2.43-1.98s-.9-.36-.54.27c.36.63.99.99,1.62,1.62.72.63,1.17.99,1.44.99s.63.09.63.09c0,0,.81.45,1.08.54.27.09.45.09.54,0,0-.09,0-.27-.54-.54Z"/>
      <path id="path206" class="cls-2" d="m265,242.27c-.9-.54-1.8-1.89-1.8-1.89,0,0-.18.27.09.9.18.54,1.08,1.53,1.62,1.89.54.36,2.07,1.8,2.07,1.8,0,0,.36.45.54.81s.63.54.72.45-.09-.72-.54-1.44c-.27-.81-1.8-1.98-2.7-2.52Z"/>
      <path id="path208" class="cls-2" d="m259.68,247.86c.09.63,0,2.16.36,2.16s.27-1.53.36-2.16c.09-.63.09-2.07.09-2.07h-.99s.09,1.44.18,2.07Z"/>
      <path id="path210" class="cls-3" d="m282.65,161.94c-.99-6.57,1.98-11.89,1.98-11.89l-6.12-6.84c-5.22,2.7-11.53,1.98-18.37-.45-6.84,2.43-13.24,3.06-18.37.45l-6.12,6.84s2.97,5.31,1.98,11.89c-.99,6.57-2.52,13.96-2.25,18.37,0,.27.09.63.09.9h5.58s.36-.36.99-.63c.63-.27.81-.45.81-.45,0,0,.09-1.17.81-1.35.72-.27.99-.27,1.26-.27s.45-.09.81-.36c.36-.36,1.26-1.17,1.62-2.25s.63-1.62.63-2.34.27-1.89.27-1.89c0,0-.18-.36-.72-.18-.54.18-.63-.36-.72-.9-.09-.54,0-1.71.27-2.25.36-.54.45-.72.45-.72l-.27-.9s-3.6.72-4.14-2.07c-.63-2.79-.72-4.14-.81-4.41s-.18-.45-.63-.45-1.44-.27-2.16-1.71-.81-1.98-.54-2.61c.18-.54.63-.36.72-.18.09.18,1.08,1.53,1.44,1.17.36-.36.18-.36-.36-1.44s-.36-1.44-.27-1.98-.18-1.26-.18-1.53.36-.54.63-.36c.36.18.63.36.81.54.18.18.18.45.54.27.27-.18.09-1.17.09-1.53s.36-.54.9-.27c.45.27.72.81.72,1.17s0,.72.18.72.36-.54.45-.9c0-.36.27-.9.54-.45.36.45.45,1.08.36,1.8s.09.36-.09,1.53c-.27,1.17-.36,1.71-.36,2.61s.09,1.44.54,2.52c.45,1.08.81,2.34,1.62,2.43h1.08s.9-1.8,1.62-2.16c.72-.45,1.71-.45,2.43-.54.72-.09.99-.27.99-.45s-.27-.27-1.08-.36c-.9-.09-1.53-.36-1.62-.99,0-.63.18-1.26-.45-1.26-.54,0-1.98-.45-2.43-1.44-.54-.9-.36-1.17-.36-1.62.09-.54.72-1.53,1.17-.54s.72,1.08,1.08,1.26c.36.18.81.27.63-.36-.27-.63-.36-1.08-.36-1.53.09-.45.36-.72.81-.81.36-.09,1.53-.45,2.16-.54.63-.09.63-.18.63-.18,0,0,.09-.45.81-.63s1.26-.27,1.8-.27.99.09,1.71-.27,1.35-.45,1.8-.36c.45,0,.81.18,1.17.45s.27.54.27.9.09.54.54.54c.54,0,.99,0,1.44.18s1.17.45.72.99-.45,1.08-.72,1.08-.27.27-.36.45-.18.36.09.54c.27.18.36.36.72.72.45.36,1.08.81.45,1.44s-1.71,1.17-1.71,1.17c0,0-.63.27.09.72.72.45,1.08,1.26,1.35,1.44s.54.36.72.45c.18.09.18.72.18.72,0,0-.36.27-.9.45s-1.08.45-1.62.45-.81,0-.54.45c.18.45.54.99.63,1.26s.18.72.18.72c0,0,.81.18,1.53.18s1.08,0,2.7-.18,2.07-.27,3.69-.09c1.53.18,1.8.09,2.25.27.45.18.81.36.81.36,0,0,2.25,0,3.42-.27,1.26-.27,1.53-1.08,1.35-1.44-.18-.45-.18-1.08-2.25-1.35-2.16-.27-2.97-.18-4.68-.54-1.71-.36-4.32-1.17-4.77-3.33-.45-2.07,1.26-2.97,2.07-3.42.9-.45,2.7-1.08,3.6-1.44s2.43-.72,4.05-.45,2.61.72,3.24.27c.63-.36,1.17-.09,1.08.54-.09.63-.81,1.8-2.61,2.34-1.89.54-4.14.63-5.31.27-1.26-.36-2.16-.81-2.88-.54-.72.27-1.53,1.17-.81,2.25.81,1.08,4.86,1.44,6.03,1.53,1.08.09,5.13-.18,6.3,1.8s.27,4.32-1.17,4.77c-1.35.54-2.52.81-3.6.99l-1.08.18s.45,1.08.45,1.53-.09,1.26.45,1.62,1.26.54,2.07.45c.9-.09,1.89.54,1.98,1.26.09.81.27,1.8.36,3.42.09,1.53,0,2.79,0,2.79,0,0-.09.63-.27,1.17-.18.54-1.26,2.79-1.26,2.79h5.94c0-.27.09-.63.09-.9,0-4.59-1.53-12.07-2.52-18.55Z"/>
      <path id="path212" class="cls-5" d="m236.09,184.09c1.17,3.33,3.6,6.75,7.3,8.92,5.13,3.06,7.3,2.7,12.16,5.76,4.86,3.15,4.5,3.69,4.59,3.69s-.27-.54,4.59-3.69,7.02-2.7,12.16-5.76c3.69-2.25,6.12-5.58,7.3-8.92h-48.09Z"/>
      <path id="path214" class="cls-4" d="m240.23,158.24c.54.54.99.72,1.8.63.81-.09,1.08.54,1.17,1.17.18.63.18,2.25.72,3.69.63,1.44,2.61,1.53,2.61,1.53.09-.72.27-1.62.63-2.43.09-.18.36-.81-.36-.81s-.72-.27-1.17-.99c-.45-.72-1.26-2.52-1.44-3.69-.18-1.17.18-2.97.36-3.6.18-.63.27-1.08,0-1.17-.27-.09-.72,0-.72,0,0,0,.18.54,0,.63s-.36-.27-.54-.72c-.18-.36-.36-.36-.63-.36s-.27.27-.09.54c.18.27.09.81.09.81,0,0-.63-.45-.9-.54s-.9.09-.9.45c-.09.36.27,1.26.81,1.71s.54,1.44.36,1.89-.99.36-1.17.18-.54-.27-.72,0c-.18.36-.45.45.09,1.08Z"/>
      <path id="path216" class="cls-4" d="m239.96,156.71s-.36-.27-.45-.36c-.09-.18-.36-.45-.36-.45,0,0-.09.18-.09.45s.36.72.36.72l.54-.36Z"/>
      <path id="path218" class="cls-4" d="m241.13,152.66c.27-.09.45-.18.27-.45s-.36-.63-.54-.63c-.18-.09-.36,0-.36,0,0,0,.27.54.27.81,0,.27.09.36.36.27Z"/>
      <path id="path220" class="cls-4" d="m242.66,151.49c0,.27,0,.36.27.27s.36-.45.18-.63c-.09-.27-.36-.36-.36-.36l-.18-.09c0-.18.09.54.09.81Z"/>
      <path id="path222" class="cls-4" d="m244.82,151.76c0-.27-.09-.63-.09-.63,0,0,0,.36-.18.54s-.09.18,0,.36c.18.18.18.09.27-.27Z"/>
      <path id="path224" class="cls-4" d="m248.16,166.44c.45.99,1.53-.54,2.52-1.8.99-1.26.99-.27.81.72-.09.99.27,2.07.63,2.79.36.72.72.27.9-.18s.27-1.53.63-1.98c.36-.45.63-.09.72.36s.54,1.35,1.08,1.89c.45.54.72-.18.9-.9s.36-1.71.45-2.16.63-.09.63-.09l.99.99c.63.63.72-.36.81-.81s-.09-1.53.09-1.71c.18-.18.72.27,1.62.63.81.45.81-.36.72-.81s-.63-1.53-1.26-2.07c-.72-.63-.81-1.26-.54-1.53.27-.27,1.08,0,1.53-.09.54-.09.81-.09,1.17-.18s.36-.45.36-.45c0,0-.27-.45-.81-.99-.54-.45-.9-.9-1.53-1.08-.72-.18-1.62,0-1.62,0l-.09-.18c-.09-.18-.27-.18-.45,0-.09.18-.45.45-.72.72s-.45.36-.63.27.09-.36.09-.36c0,0,.36-.27.72-.9s.45-1.26.18-1.53c-.27-.27-.99,0-1.35,0s-.63.09-.63-.09.36-.09.9-.18c.45-.09.81-.63.99-1.17.18-.45.27-.45.63-.09.27.27.54.27.63,0,.09-.18.36-.72.63-1.17.36-.45.54-1.17.18-1.62s-1.26-.36-1.62-.09-.63.63-.72,1.35c-.09.72-.27.36-.27.09s-.27-.63-.18-.9c.09-.27,0-.63,0-.63,0,0-.09-.63-.72-.72s-1.44,0-2.16.18-.54.72-.54.72c0,0-.54,0-1.08.09s-1.17.27-1.71.45c-.54.09-.72.18-.72.45s.09.72.09.72c0,0,.45,0,.63.09.27.09.09.36-.18.45-.27.09-.36.09-.36.45s.09.36.36.36.81,0,1.44.27.81.9.72,1.17c-.09.36-.99.72-1.44.72s-.63.09-.63.36.54.27.54.27c0,0,.54,0,1.62.18,1.08.09,1.26.36,1.71.81s.09.54-.09.63c-.27.09-.63.45-.99.54s-.63.36-.9.45c-.36.09-1.17,0-2.61.63-1.53.63-2.07,2.52-2.07,2.52l.9-.45c.72-.36,1.53-.72,2.34-1.26.81-.45.81.27.36.9-.36.72.36.54.63.36.27-.18.54-.36,1.26-.81.72-.36.45.27.45.27,0,0-.27.45-.27,1.53-.09,1.08,1.08.09,1.62-.63.54-.72.72,0,.36.81s-1.17,1.44-1.53,1.44c-.45,0-.72-.45-.81-.72s.09-1.08-.09-1.26c-.27-.18-.99,0-1.53.36s-.72.09-.81-.27c-.09-.27.18-.36.09-.63-.09-.18-.45,0-.63.09-.27.09-.72.36-1.8.9-.99.54-.99.81-.99,1.53s.09.99.45,1.98Z"/>
      <path id="path226" class="cls-4" d="m257.97,150.05c.18-.09.63-.27.63-.27l.9-.18c.45-.09.36-.27.27-.54-.09-.18-.27-.27-.81-.27s-.99.27-1.26.45c-.36.18-.72.27-.72.27,0,0,.09.09.27.45.18.18.54.27.72.09Z"/>
      <path id="path228" class="cls-4" d="m260.41,152.39c.27,0,.45-.18.45-.18,0,0,.45-.18.81-.36.36-.18.54-.18.81-.63s-.27-.45-.9-.63c-.72-.18-.99.09-1.08.27-.09.27-.09.54-.36.99-.27.63,0,.54.27.54Z"/>
      <path id="path230" class="cls-4" d="m260.14,153.02c-.63,0-1.35.99-1.62,1.17-.27.18-.09.36-.09.36,0,0,.18.45.27.81.09.36.09,1.08.09,1.08h.45c.36,0,.63-.18.99-.45s.63-.36,1.17-.45c.54-.09.81-.18,1.35-.54.54-.27-.27-.81-.9-1.35-.63-.54-1.08-.63-1.71-.63Z"/>
      <path id="path232" class="cls-4" d="m251.4,155.27c.54-.09.72-.36.72-.63s-.27-.63-.9-.54c-1.62.18-3.24-.45-3.51-2.07,0,0-.54.99.45,2.16,1.08,1.17,2.7,1.17,3.24,1.08Z"/>
      <path id="path234" class="cls-4" d="m245.91,180.85c.09.18.18.27.27.27h2.52c.45-.09.45-.54.45-.81,0-.36.27-1.26.63-2.88.36-1.62.9-2.88,1.17-3.51s-.27-.9-.45-1.35-.45-1.17-.54-1.53c-.09-.36-.63-.36-.99-.27-.36,0-.36.54-.45,1.08-.09.45-.27,1.98-.54,3.24-.27,1.26-1.71,2.97-2.07,3.33-.36.36-.72.54-.99.54s-.9,0-1.17.18-.63.63-.63.99.54.54.54.54c0,0,.45-.27.63-.45s.54-.27.99-.36c.36-.09.45.09.27.27q0,.18.36.72Z"/>
      <path id="path236" class="cls-4" d="m242.03,180.76c-.18.09-.36.27-.45.45h1.62c0-.09-.09-.27-.18-.45-.09-.27-.63-.18-.99,0Z"/>
      <path id="path238" class="cls-4" d="m244.28,180.67c-.18.09-.45.27-.54.45h1.71c.09-.18.09-.36-.09-.54-.45-.27-.81,0-1.08.09Z"/>
      <path id="path240" class="cls-4" d="m259.5,179.95c-.18,0-.36.18-.63.36-.27.18-.36.45-.36.72v.09h.72l.09-.09c0-.18.09-.36.36-.72.27-.18,0-.36-.18-.36Z"/>
      <path id="path242" class="cls-4" d="m260.95,180.76c0-.27-.09-.45-.27-.45s-.45.36-.72.45c-.09.09-.27.18-.27.27h1.08c.09,0,.18-.18.18-.27Z"/>
      <path id="path244" class="cls-4" d="m267.7,172.65c.54-.36.45-.45.45-.9,0-.36,0-.54-.18-.72-.18-.18-.99-.45-1.71-.45s-2.16.18-2.7.54-.81,1.62-.81,2.34.09.81.27.81.54-.45.54-.45c0,0,.72.9,1.08,1.53.45.63.27.9,0,1.35-.18.45-.9,1.8-1.44,2.07s-.99,0-1.62-.09c-.63-.09-.99.09-1.44.45-.36.36,0,.72.18.72.27,0,.54,0,.81.27.18.18.09.72,0,.99h3.24c.54-.27.9-.99,1.08-1.44s.9-1.08,1.17-1.44c.36-.36.36-.54.36-1.26s-.18-1.08-.45-1.62c-.27-.45-.45-1.17-.36-1.62.36-.18.99-.63,1.53-1.08Z"/>
      <path id="path246" class="cls-4" d="m262.39,164.64c.36.54.18.63-.27.72-.45.09-.99.18-1.71.09s-.72,0-.72.36-.09,1.17-.54,1.71-.99.36-1.26.09c-.36-.18-.54-.18-.63.27-.09.36-.36.72-.72,1.26-.36.63-.54.63-.81.54s-.45-.45-.72-.45-.63-.54-.99-1.08-.54.09-.81.54c-.27.54-.45.9-.99.81-.45-.09-.99-.9-1.26-1.44s-.45-.99-.81-.99-1.08.9-1.53,1.08-.54.18-.81-.18c-.18-.27-.45.09-.72.81-.27.63,0,1.26.36,1.44s1.08-.36,1.62-.63c.45-.36.72-.27,1.17-.27.54,0,.45.81.72,2.07.18,1.17.9,1.35.9,1.35,0,0,.27.18.81-.72s.63-1.8,1.17-1.8.54.09,1.08.81.99,1.26,1.26.72.54-1.35.9-1.62.63-.36.27.18c-.36.54-.54,1.08.18.9.72-.18,3.6-1.35,4.77-1.62,0,0,1.35-.18,2.88-.27,1.53-.09,1.98-.18,2.52-.18.63,0,.63-.09.63-.45s-.27-.36-1.44-.36-1.89.18-2.7.27c-.81.09-1.17.09-.99-.09.18-.18.36-.36,1.26-.45.9-.18,2.79-.27,3.78-.27s.63.27.54.9.09,1.62.18,2.16c.09.63.09.81.63,1.62s2.34,1.35,2.88,1.62.45,0,.45-.54.36-.45.9-.18c.45.27,1.26.45,1.8.63s.63.27.63.54.09.9.09,1.53c.09.63,0,.81-.18,1.17-.27.36-1.26,1.44-1.26,1.44,0,0-.45,0-1.44.27s-1.26.72-1.35,1.08.18.54.18.72v.45h.27c.09-.18.18-.36.36-.54.36-.45,1.17-.54,1.8-.27.36.18.36.54.36.81h2.25c.27-.63.99-1.98,1.26-2.43.27-.54.36-.9.36-1.62s.09-3.6,0-3.78c-.18-.18,0-.63,0-1.44s0-1.44-1.53-1.53c-1.53-.18-1.98-.81-2.43-1.26-.54-.54-.36-1.71-.81-3.06-.36-1.44-1.35-1.62-3.15-1.98-1.8-.36-3.06-.36-4.32-.27-1.35.09-2.97.27-3.87.18-.9-.18-.81.09-.45.63Z"/>
      <path id="path248" class="cls-4" d="m270.85,180.85c-.18.09-.27.18-.36.36h1.53c0-.09,0-.27-.18-.45-.18-.36-.63-.18-.99.09Z"/>
      <path id="path250" class="cls-4" d="m273.64,180.76c-.27.09-.45.27-.54.45h1.53v-.18c0-.27-.54-.54-.99-.27Z"/>
      <path id="path252" class="cls-4" d="m235.46,181.66c.09.45.18.99.36,1.44h48.54c.18-.45.27-.99.36-1.44h-49.26Z"/>
      <path id="path254" class="cls-4" d="m268.15,158.51c1.53.99,6.39,1.08,8.65,1.53s2.16,2.16,1.44,3.15c-.72.9-3.87.99-4.5,1.08.27.18.81.9.81.9,0,0,.36,0,1.35-.09s2.7-.36,3.78-1.26c1.17-.99,1.08-2.52.09-3.6s-2.7-1.17-4.41-1.35-3.06-.36-5.04-.63c-1.89-.36-2.88-1.08-2.88-2.25s1.08-1.71,1.8-1.98c.72-.18,1.98-.54,3.06-.09,1.08.36,2.34.45,4.5.18s2.61-1.71,2.61-1.71c0,0-.27.09-1.35.18-1.08,0-1.89-.45-3.78-.45s-2.7.63-3.6.99-3.33.54-4.05,2.16c-.81,1.44,0,2.25,1.53,3.24Z"/>
      <circle id="ellipse256" class="cls-2" cx="255.36" cy="151.22" r=".9"/>
      <path id="path258" class="cls-2" d="m275.09,152.75c-1.17-.09-2.79.18-2.79.18,0,0,.27.27.72.18.36,0,1.17-.09,2.34.18,1.17.18,2.07-.36,2.07-.36,0,0-1.17-.09-2.34-.18Z"/>
      <path id="path260" class="cls-4" d="m313.99,207.15c.99.18,9.01,1.8,9.64,1.89.63.18,1.26.27,1.44.09.18-.18.27-.27.99-.54.72-.27.63-.99.63-.99,0,0,.18-.63.27-1.35.09-.63.45-.9,1.26-.09s.9,1.98,1.08,3.15,1.98,1.44,2.7,1.53,1.08-.09,1.44-.81c.45-.63.63-1.98.72-2.88.09-.9,0-.81-.9-.99s-5.04-1.17-5.76-1.35-.63-.63-.45-1.17c.09-.54,1.8-5.76,1.8-5.76-1.17-.72-2.79-1.17-4.77-1.35,0,0-1.17,5.4-1.44,6.21-.18.81-.72.81-1.62.63-.9-.18-7.02-1.62-7.02-1.62l-.45,1.17c-.45,1.17-.72,2.52-.72,3.24-.09.81.18.72,1.17.99Z"/>
      <path id="path262" class="cls-4" d="m335.25,212.01c-.81-.54-1.44-.72-1.89.36-.45.99-.45,2.43-1.53,3.51-1.08,1.08-2.61,2.07-4.05,1.98-1.53-.09-2.34-.45-1.98-2.16s2.61-2.25,3.15-3.15.36-1.89-.36-2.61c-.81-.72-1.89-.81-2.25-.63-.36.18-1.26.99-1.71,2.25s-.72,2.34-1.71,3.15-3.6,1.62-5.58,1.17-2.7-1.08-3.51-3.06c-.72-1.98-1.62-5.22-2.07-5.58-.36-.36-.9-.63-1.71,0-.9.63-.9,1.53-1.08,2.25-.09.72,0,1.53.9,2.61.9,1.08,1.71,2.07,2.07,3.15s1.26,2.7-.09,2.79-1.98.09-2.97-.9c-1.08-.99-5.04-3.78-6.21-4.68-1.08-.9-1.53-1.17-1.53-1.17-1.89,0-3.78-.81-5.58-2.07,0,0,1.08,2.79,1.26,3.78.18,1.08.18,1.62.18,1.62,0,0,4.05,2.07,5.67,2.88,1.62.81,4.86,2.61,6.48,3.6,1.62.99,2.88,2.43,5.67,1.89,2.79-.54,8.47-2.25,10.27-2.79s6.84-1.8,8.74-3.06,2.07-1.26,2.34-2.52c.27-1.35-.09-2.07-.9-2.61Z"/>
      <path id="path264" class="cls-4" d="m324.44,192.74c.27,0,.45-.09,1.35-.18.99-.09.63.81.45,1.17s-.45,1.08-.81,1.71c-.36.63.09.81.36.9s.63.18,1.44.36c.81.18.63-.36.63-.63s.09-1.8.18-2.34.54-.36.72-.27c.18.09.63.36,1.08.54.36.18.54,0,.63-.27s.27-.63.45-1.26c.18-.63-.18-.45-.54-.45h-1.53c-.63,0-.27-.63-.27-.63,0,0,.45-.72.81-1.26s.27-.63-.09-.72c-.36-.09-1.44-.36-1.8-.45-.27-.09-.45,0-.45.18v1.71c0,.45,0,.63-.54.72-.54,0-.9-.27-1.26-.81-.45-.45-.63-.27-.63-.09s-.36,1.53-.45,1.89c-.27.18,0,.18.27.18Z"/>
      <path id="path266" class="cls-4" d="m293.37,207.87c-.63-.63.9-.63,1.8-.63s2.43-.45,2.88-.81c.45-.27,1.35-.45,2.34-.9s.36-.63-.63-.9-3.69-1.35-3.69-1.35c0,0-1.35.72-2.07,1.17s-1.71,1.08-3.33,1.26-2.07.27-2.16.36.36.45.99,1.26c.63.9.9,1.44,1.62,2.7s-.09.54-.72-.27c-.36-.45-1.17-1.53-1.89-2.34-.54-.63-1.17-.99-1.17-.99l-.54,1.08v.36c0,.36-.27,2.07-.36,2.79-.09.72.18.72.72.99.54.27,1.62.9,4.68,2.79,2.97,1.89,4.05,3.15,4.05,3.15,0,0,.09-.81.09-1.62s0-2.43-.72-4.32c-.63-1.98-1.26-3.15-1.89-3.78Z"/>
      <path id="path268" class="cls-4" d="m286.43,203.73c.72.18.99.36,1.98.36s1.44-.36,2.43-.36,1.71-.36,3.33-1.26c1.62-.9.09-.63-1.08-.54-1.17.09-4.14-.36-5.49-.81-1.26-.45-.36-.54,0-.45s.54.18,3.15.63,3.51-.18,4.86-.45c1.35-.36-.27-.54-.27-.54,0,0-4.68-1.35-7.02-3.96-1.8-1.98-2.43-3.87-2.61-4.59-.9,1.08-1.98,2.07-2.97,2.88.09.36.27.99.45,1.53.36.9,1.53,2.07,1.53,2.07,0,0-1.44-.54-2.07-1.26-.45-.45-.81-1.17-.99-1.53-1.53,1.08-3.15,1.89-4.59,2.61.18.18.36.36.63.54.63.54,1.26,1.26,2.07,2.61.81,1.26.09,1.17-.63,0-.72-1.17-2.52-2.43-2.88-2.61,0,0-.09,0-.18-.09-.18.09-.36.18-.54.27-.99.45-1.89.81-2.79,1.17.63.45,1.98,1.8,2.43,2.52.54.81,1.62,1.44,1.98,1.98.36.54.81,1.08,1.35,1.71.54.63,3.69,4.14,4.5,5.49s.36-.36.18-1.26c-.18-.9-.54-2.16-.81-3.24-.27-.99.27-.63.45,0,.09.54.27.63.45,1.71.27,1.08.9,2.7,1.17,3.78s.36.63.63.09c.27-.54.72-1.44.9-1.98s.27-1.8.36-3.78c0-1.89-.9-2.7-.9-2.97-.18-.18.36-.45.99-.27Z"/>
      <path id="path270" class="cls-4" d="m299.94,207.87c-.27.09-1.26.45-1.62.54-.45.09-.72.09-.72.09,0,0,.9,1.26,2.16,1.26h3.78s-2.25-1.35-2.61-1.62c-.27-.36-.72-.36-.99-.27Z"/>
      <path id="path272" class="cls-4" d="m327.5,206.25s0,1.08-.18,1.44c-.09.36-.36.9.09,1.08s.9.36,1.08.27c.27-.09.18-.63,0-1.08s-.36-.99-.72-1.35l-.27-.36Z"/>
      <path id="path274" class="cls-4" d="m334.08,210.57c.18.36.45.45.63.45.18.09.54.09.54-.36s.09-.9-.27-1.35-.54-.81-.72-.09c-.18.72-.36,1.08-.18,1.35Z"/>
      <path id="path276" class="cls-4" d="m311.11,206.25c.18,0,.9.27.9.27,0,0,0-1.08.18-1.8s.45-1.17.18-1.17-.45.18-.63.54c-.18.27-.72.36-.9,1.26-.18.81.09.81.27.9Z"/>
      <path id="path278" class="cls-2" d="m220.6,176.71c-.72.54-1.71.81-1.71.81,0,0-.45,0-.45.18s.54,0,1.08-.09,1.35-.63,1.62-.9c.27-.18.72-.45.54-.81-.09-.45-.36.27-1.08.81Z"/>
      <path id="path280" class="cls-2" d="m227.08,180.13c-.18.18-1.44,1.08-1.44,1.08,0,0-.36.27-.81.45s-.54.36-.54.36c0,0,.09.09.54,0s1.71-1.08,2.16-1.44.63-.45.45-.63c-.18-.09-.27,0-.36.18Z"/>
      <path id="path282" class="cls-2" d="m200.87,133.66c.27.27.54.63.63.54s0-.27-.36-.63c-.27-.36-.45-.54-.45-.54,0,0-.45-.72-.72-.99-.27-.27-.63-.36-.18.18.54.63.81,1.17,1.08,1.44Z"/>
      <path id="path284" class="cls-2" d="m198.89,137.98c.27.27.54.45.81.81s.54.72.72.54-.45-.54-.72-.9-.54-.63-.9-.9-.81-.54-.81-.54c0,0,.63.72.9.99Z"/>
      <path id="path286" class="cls-2" d="m199.61,145c.45.54,1.26.63,1.35.45s-.09-.36-.45-.54c-.45-.18-1.08-.63-1.44-.9s-.63-.45-.9-.72-.54-.45-.63-.36.72.9.9,1.08c.27.09.72.54,1.17.99Z"/>
      <path id="path288" class="cls-2" d="m201.05,150.68c0-.18.09-.27-.36-.36-.45,0-.99-.09-.99-.09,0,0-.81-.27-.9-.18-.09.18.63.45.99.54.27.09.72.18.9.27.18.09.36,0,.36-.18Z"/>
      <path id="path290" class="cls-2" d="m201.68,156.8c-.9,0-1.62-.18-1.71-.09s.45.36.9.45c.45.18,1.26.18,1.8.27.54,0,.63-.09.63-.36,0-.27-.72-.27-1.62-.27Z"/>
      <path id="path292" class="cls-2" d="m208.53,163.47c-.09-.09-.45,0-.9.09s-1.26.27-1.8.27c-.45,0-1.44-.09-1.44-.09,0,0-.54,0-.54.09s.72.09,1.8.27c1.08.09,1.8-.09,2.34-.18.54-.09.72-.27.54-.45Z"/>
      <path id="path294" class="cls-2" d="m211.41,168.24c-.54.18-.9.27-1.35.27s-1.44.18-1.44.18c0,0-.45.09-.36.27.09.18.27,0,.63-.09.45-.09.72,0,1.44,0s1.17-.18,1.62-.27c.45-.09.9-.27.72-.63-.27-.27-.72.09-1.26.27Z"/>
      <path id="path296" class="cls-2" d="m216.99,171.84c-.27.27-1.53,1.08-1.53,1.08,0,0-.27.18-.72.45s-.45.36-.36.45.36-.18.63-.27c.27-.09,1.08-.72,1.53-1.08.45-.36.99-.63.9-.9-.09-.18-.18,0-.45.27Z"/>
      <path id="path298" class="cls-2" d="m207.72,125.19s.09.27,1.08,1.44c.99,1.17.45.09.18-.27-.27-.27-1.62-2.25-2.16-2.88-.45-.54-.54-.27-.27.09.27.36,1.17,1.62,1.17,1.62Z"/>
      <path id="path300" class="cls-2" d="m205.74,131.31c.18-.18-.18-.27-.72-.99-.54-.72-1.62-2.07-1.62-2.07,0,0-.27-.63-.45-.54-.09.09.36,1.08.81,1.53s.99,1.26,1.35,1.71c.27.27.45.45.63.36Z"/>
      <path id="path302" class="cls-2" d="m208.35,142.84c0-.36-1.08-.27-1.53-.36s-1.35-.27-1.35-.27c0,0-.99-.18-1.08-.09,0,.09.18.27.81.36.54.09,1.44.36,2.07.45s1.08.27,1.08-.09Z"/>
      <path id="path304" class="cls-2" d="m205.74,136.63c.72.54,1.17.81,1.53,1.08.36.18.72.54.9.27.18-.27-.18-.45-.81-.72-.63-.27-.9-.54-.9-.54,0,0-.36-.18-.63-.36-.36-.09-.81-.36-.09.27Z"/>
      <path id="path306" class="cls-2" d="m211.86,132.49c-.45-.36-.81-.54-.81-.54,0,0-.54-.54-.63-.36s.63.72.99.99c.36.27.99,1.17,1.26.99.27-.18-.36-.72-.81-1.08Z"/>
      <path id="path308" class="cls-2" d="m207.9,148.61s-.63.18-.99.27c-.36.09-.45.27.27.27s.99-.18,1.71-.27c.72-.09.9-.18.81-.45s-.45-.18-.72-.09c-.36,0-1.08.27-1.08.27Z"/>
      <path id="path310" class="cls-2" d="m208.98,154.37c-.09.09.45,0,.81-.09s1.08-.54,1.53-.63.45-.18.45-.45-.45-.09-1.08.09c-.54.18-1.26.72-1.26.72,0,0-.45.27-.45.36Z"/>
      <path id="path312" class="cls-2" d="m216.45,157.88c.54-.27.63-.54.45-.72-.18-.18-.36-.09-.72.18-.45.36-1.26.9-1.26.9,0,0-.45.18-.72.27-.27.18-.72.45-.63.54.09.18.72,0,1.08-.27.36-.18,1.26-.54,1.8-.9Z"/>
      <path id="path314" class="cls-2" d="m219.97,162.57c.18-.18.81-.36,1.08-.63.27-.18.45-.81.27-.9-.27-.09-.36.27-.81.63-.45.36-2.16,1.44-2.16,1.44l-.45.18c-.45.18-.27.27.09.27.36-.09.63-.09,1.08-.45.45-.27.72-.36.9-.54Z"/>
      <path id="path316" class="cls-2" d="m225.19,167.07c.45-.18,1.08-.72,1.44-1.08.27-.27.72-.63.45-.81-.27-.18-.45.09-.9.36l-1.35,1.35s-.09,0-.63.45,0,.36.18.18c.27-.18.36-.27.81-.45Z"/>
      <path id="path318" class="cls-2" d="m301.2,177.52s-.99-.27-1.71-.81-.99-1.26-1.08-.9.27.63.54.81c.27.18,1.08.81,1.62.9.54.09,1.08.27,1.08.09s-.45-.09-.45-.09Z"/>
      <path id="path320" class="cls-2" d="m295.26,181.66c-.45-.18-.81-.45-.81-.45,0,0-1.26-.9-1.44-1.08s-.27-.27-.36-.09c-.18.18,0,.27.45.63.45.36,1.71,1.26,2.16,1.44.45.09.54,0,.54,0,0,0-.18-.27-.54-.45Z"/>
      <path id="path322" class="cls-2" d="m319.22,133.66c.27-.27.54-.81.99-1.35.45-.63.09-.45-.18-.18-.27.27-.72.99-.72.99,0,0-.18.18-.45.54s-.45.45-.36.63c.18,0,.54-.36.72-.63Z"/>
      <path id="path324" class="cls-2" d="m319.67,139.33c.18.18.45-.18.72-.54s.54-.54.81-.81.81-.99.81-.99c0,0-.45.27-.81.54-.36.27-.63.54-.9.9-.18.36-.81.72-.63.9Z"/>
      <path id="path326" class="cls-2" d="m322.55,142.93c-.09-.09-.36.09-.63.36-.27.27-.54.45-.9.72s-.99.63-1.44.9c-.45.18-.54.36-.45.54s.81.09,1.35-.45c.45-.54.9-.9,1.17-1.08.18-.09.99-.9.9-.99Z"/>
      <path id="path328" class="cls-2" d="m320.39,150.23s-.54.09-.99.09-.36.09-.36.36c0,.18.18.27.36.18.18-.09.54-.18.9-.27.27-.09,1.08-.36.99-.54-.09-.09-.9.18-.9.18Z"/>
      <path id="path330" class="cls-2" d="m318.41,156.8c-.9,0-1.62,0-1.62.27s.09.45.63.36c.54,0,1.44-.09,1.8-.27.45-.18.9-.36.9-.45-.09-.09-.81.09-1.71.09Z"/>
      <path id="path332" class="cls-2" d="m315.7,163.74s-.99,0-1.44.09c-.45,0-1.26-.09-1.8-.27-.45-.09-.81-.18-.9-.09s.09.36.54.45c.54.09,1.26.27,2.34.18,1.08-.09,1.8-.09,1.8-.27,0-.09-.54-.09-.54-.09Z"/>
      <path id="path334" class="cls-2" d="m311.38,168.69s-.99-.18-1.44-.18-.81-.09-1.35-.27-.99-.54-1.26-.27c-.27.27.27.54.72.63s.9.27,1.62.27h1.44c.45.09.54.27.63.09.18-.18-.36-.27-.36-.27Z"/>
      <path id="path336" class="cls-2" d="m305.35,173.37c-.45-.27-.72-.45-.72-.45,0,0-1.17-.81-1.53-1.08-.27-.27-.45-.45-.54-.27-.09.27.45.54.9.9s1.26.9,1.53,1.08c.27.09.54.45.63.27.18-.09.18-.18-.27-.45Z"/>
      <path id="path338" class="cls-2" d="m311.29,126.54c.99-1.17,1.08-1.44,1.08-1.44,0,0,.9-1.26,1.17-1.53.27-.36.18-.63-.27-.09s-1.89,2.52-2.16,2.88c-.27.27-.81,1.44.18.18Z"/>
      <path id="path340" class="cls-2" d="m317.15,127.71c-.09-.09-.45.54-.45.54,0,0-1.08,1.44-1.62,2.07-.54.72-.81.81-.72.99.18.18.27,0,.63-.45.27-.36.9-1.26,1.35-1.71.45-.36.9-1.44.81-1.44Z"/>
      <path id="path342" class="cls-2" d="m311.74,142.84c0,.36.54.18,1.17.09.63-.09,1.53-.36,2.07-.45.54-.09.81-.27.81-.36s-1.08.09-1.08.09c0,0-.9.18-1.35.27-.54.09-1.62,0-1.62.36Z"/>
      <path id="path344" class="cls-2" d="m314.26,136.36c-.27.18-.63.36-.63.36,0,0-.27.27-.9.54-.63.27-.99.45-.81.72s.54-.09.9-.27c.36-.18.81-.45,1.53-1.08.72-.63.27-.36-.09-.27Z"/>
      <path id="path346" class="cls-2" d="m307.42,133.57c.27.18.9-.72,1.26-.99.36-.27,1.08-.81.99-.99s-.63.36-.63.36c0,0-.36.18-.81.54s-1.08.9-.81,1.08Z"/>
      <path id="path348" class="cls-2" d="m311.2,148.79c.72.09.99.27,1.71.27s.63-.18.27-.27c-.36-.09-.99-.27-.99-.27,0,0-.81-.18-1.08-.27-.27-.09-.63-.18-.72.09-.09.27.18.36.81.45Z"/>
      <path id="path350" class="cls-2" d="m310.66,154.01s-.72-.54-1.26-.72c-.54-.18-1.08-.36-1.08-.09s0,.36.45.45,1.17.54,1.53.63c.36.09.9.27.9.09-.09-.09-.54-.36-.54-.36Z"/>
      <path id="path352" class="cls-2" d="m305.89,158.6c-.27-.18-.72-.27-.72-.27,0,0-.81-.54-1.26-.9s-.54-.36-.72-.18-.09.36.45.72c.54.27,1.44.72,1.8.99.36.27.99.45,1.08.27.09-.18-.27-.45-.63-.63Z"/>
      <path id="path354" class="cls-2" d="m302.28,163.38l-.45-.18s-1.71-1.08-2.16-1.44-.63-.72-.81-.63c-.27.09-.09.72.27.9.27.18.9.45,1.08.63s.45.27.9.63c.45.36.72.36,1.08.45.27-.09.54-.18.09-.36Z"/>
      <path id="path356" class="cls-2" d="m295.89,167.34c-.54-.45-.63-.45-.63-.45l-1.35-1.35c-.36-.36-.63-.54-.9-.36s.18.54.45.81.99.9,1.44,1.08.54.27.72.45c.18.18.72.27.27-.18Z"/>
      <path id="path358" class="cls-4" d="m260.05,104.57c-3.51.09-7.66-.45-9.91-1.26-.81.18-1.62.36-2.43.54,3.78,1.44,6.93,1.98,12.34,1.98,5.49-.09,8.65-.63,12.34-1.98-.81-.18-1.62-.36-2.43-.54-2.25.81-6.39,1.26-9.91,1.26Z"/>
      <path id="path360" class="cls-4" d="m272.83,101.59c-.27-.27-1.89-1.35-2.34-1.62-.45-.18-.09-.81,0-.99.09-.27,1.89-.72,2.88-.99.99-.27.81-.45.81-.45,0,0-.54-.72-4.23-1.08-3.6-.36-10-.27-10-.27,0,0-6.39-.09-10,.27s-4.23,1.08-4.23,1.08c0,0-.18.18.81.45s2.79.81,2.88.99c.09.27.36.81,0,.99-.45.18-2.07,1.35-2.34,1.62-.27.27-.27.63.18.63s.45,0,1.71-.27c3.78-.72,7.3-.99,10.99-.99,3.69.09,7.3.27,10.99.99q1.26.27,1.71.27c.54,0,.54-.45.18-.63Z"/>
      <polygon id="polygon362" class="cls-4" points="246.18 98.35 244.55 99.61 246.54 100.51 248.61 98.98 246.18 98.35"/>
      <polygon id="polygon364" class="cls-4" points="273.91 98.35 271.39 98.98 273.55 100.51 275.45 99.61 273.91 98.35"/>
      <path id="path366" class="cls-4" d="m268.69,103.13c-2.52-.27-4.05-.63-8.65-.54-4.59,0-6.21.27-8.65.54,1.53.63,4.14.99,8.65.99,4.59-.09,7.11-.36,8.65-.99Z"/>
      <path id="path368" class="cls-3" d="m263.56,175.36c-.27-.45-.36-.45-.72-.09-.36.27-.72-.72-.72-1.35s.27-2.61.27-2.61c0,0-1.62.36-2.52.63-.9.27-1.71.36-2.43.54-.72.18-1.08.36-1.44.27s-1.17-.09-1.8-.09-.63.09-1.26.72-.81.99-1.35,2.16-.72,2.25-.81,3.69c-.09.9-.27,1.62-.45,1.89h7.57c.09-.27.18-.54.27-.81.18-.45.63-.72.9-.9s.54-.18.72-.45c.18-.36.54-.63.9-.81s1.08-.09,1.71.09c.63.18.9-.27.99-.54.18-.27.27-.54.63-.99.36-.45.09-.81.09-.81,0,0-.27-.09-.54-.54Z"/>
      <path id="path370" class="cls-3" d="m275.72,175.54c-.09-.45-.09-.54-.36-.54-.27-.09-.72-.18-1.08-.27-.36-.18-.36.9-.36.9,0,0-.9.09-1.89,0s-2.25-.99-2.61-1.35c-.45-.27-.9-.99-.9-.99,0,0-.36.27-.63.45-.36.18-.54.81-.54,1.44-.09.63.72,1.44.81,2.07.09.63-.72,1.89-1.08,2.43-.27.36-.63,1.08-.81,1.53h3.69c.09-.18.18-.45.36-.63.36-.36.99-.45.99-.45,0,0,0-.18.18-.54s.54-.72,1.44-1.08c.9-.36,1.98-.45,1.98-.45,0,0,.45-.36.72-.9.45-.45.18-1.17.09-1.62Z"/>
      <polygon id="polygon372" class="cls-4" points="259.23 68.9 261.22 68.81 261.04 67.1 263.02 67.37 263.11 65.75 260.95 65.93 261.4 64.13 258.96 64.13 259.41 65.93 257.34 65.75 257.34 67.37 259.41 67.19 259.23 68.9"/>
      <path id="path374" class="cls-4" d="m263.47,71.6h-2.52v-2.16c-.27-.09-.45-.09-.72-.09s-.45,0-.63.09v2.16h-2.61c-.09.27-.18.54-.18.9v.36h6.93v-.36c-.18-.36-.18-.63-.27-.9Z"/>
      <path id="path376" class="cls-3" d="m260.14,75.66c1.53,0,2.79-.9,3.24-2.16h-6.57c.54,1.26,1.8,2.16,3.33,2.16Z"/>
      <path id="path378" class="cls-3" d="m261.49,69.62v1.53h1.71c-.36-.72-.9-1.26-1.71-1.53Z"/>
      <path id="path380" class="cls-3" d="m258.69,69.62c-.72.27-1.35.81-1.71,1.53h1.71v-1.53Z"/>
      <path id="path382" class="cls-2" d="m262.12,97.45c-.63-.27-2.07-.9-2.07-.9,0,0-1.35.63-2.07.99s-.63.27-.9.81c-.18.54,0,.72.36.9s2.61,1.35,2.61,1.35c0,0,2.25-1.08,2.79-1.35s.45-.54.27-.9c-.09-.45-.36-.63-.99-.9Z"/>
      <circle id="ellipse384" class="cls-2" cx="266.8" cy="98.71" r="1.98"/>
      <circle id="ellipse386" class="cls-2" cx="253.29" cy="98.71" r="1.98"/>
      <polygon id="polygon388" class="cls-4" points="257.79 98.08 260.05 99.25 262.3 98.08 260.05 97 257.79 98.08"/>
      <circle id="ellipse390" class="cls-4" cx="266.8" cy="98.35" r="1.17"/>
      <circle id="ellipse392" class="cls-4" cx="253.29" cy="98.35" r="1.17"/>
      <path id="path394" class="cls-4" d="m249.06,92.14c.54.18,1.17.09,1.17.09,0,0,.18-.9-.27-1.35s-.9-.72-1.26-1.08l-.36-.36v1.26c0,.45.27,1.17.72,1.44Z"/>
      <circle id="ellipse396" class="cls-4" cx="250.14" cy="93.04" r=".36"/>
      <path id="path398" class="cls-4" d="m247.44,92.68c-.18.18-.45.54-.45.54,0,0,.45,0,.72.27.36.27.81.45,1.17.36s.54-.45.45-.72-.27-.54-.9-.81c-.72-.09-.9.18-.99.36Z"/>
      <path id="path400" class="cls-4" d="m248.79,95.02c-1.26.09-2.97-1.26-2.97-1.26-.18,1.08-.81,1.71-1.89,1.89l.09.09s.99.54,2.16.72c.54.09.99,0,1.53-.09.72-.18,1.44-.36,1.89-.63.72-.45.54-1.71.54-1.71,0,0-.09.9-1.35.99Z"/>
      <path id="path402" class="cls-4" d="m243.92,93.76c-.54-.18-1.26-.54-1.62-.63-.36,0-.81-.09-.72.54s.72.9,1.26.9c.63,0,.9-.18,1.26-.36.36-.18.27-.27-.18-.45Z"/>
      <path id="path404" class="cls-4" d="m239.96,91.6c-.54-.45-1.08-.54-1.08-.54,0,0-.36.99-.18,1.62.18.63.63.72,1.17.72s1.35-.27,1.08-.72c-.18-.36-.45-.63-.99-1.08Z"/>
      <ellipse id="ellipse406" class="cls-4" cx="240.41" cy="94.39" rx=".45" ry=".27"/>
      <path id="path408" class="cls-4" d="m241.67,89.53c-.36-1.62-.27-3.51,1.26-5.76,1.62-2.34,4.32-3.24,4.32-3.24,0,0,.09-.18.99-1.08s2.61-2.07,2.61-2.07c0,0-2.07.54-3.24.9v.09c0,.81-.63,1.44-1.44,1.44-.27,0-.54-.09-.81-.27-.63.09-2.79,1.35-3.33,1.8.09.18.18.45.18.72,0,.81-.63,1.44-1.44,1.44-.27,0-.45-.09-.63-.18-.09.09-.09.18-.18.27-.45.81-.81,1.62-.99,2.34.36.27.63.72.63,1.26,0,.81-.54,1.44-1.17,1.44-.09.45,0,.81,0,.9.09.45.27.72,1.08.99.81.27,1.89,1.62,1.89,1.62.09.09.72-.99.27-2.61Z"/>
      <path id="path410" class="cls-4" d="m246.72,78.9c.27-.27.36-.63.09-.81-.27-.18-.63-.18-.99.09-.27.27-.36.63-.09.81.18.18.63.09.99-.09Z"/>
      <path id="path412" class="cls-4" d="m241.4,82.41c.36-.27.36-.81.09-.99-.27-.27-.72-.27-1.08.09-.36.27-.36.81-.09.99.27.27.72.27,1.08-.09Z"/>
      <circle id="ellipse414" class="cls-4" cx="238.25" cy="86.91" r=".81"/>
      <path id="path416" class="cls-4" d="m255.9,75.57c-.45.09-1.17.36-2.34.99h0c.81,0,1.44.54,1.44,1.17,0,.72-.72,1.44-1.53,1.44s-1.35-.72-1.35-1.35c0-.18,0-.27.09-.45-.36.18-.72.45-1.08.72-2.61,1.71-3.24,2.61-4.5,4.95-1.26,2.43-1.71,5.04-1.17,6.57.54,1.53,2.61,1.89,2.61,1.89,0,0-.27-.27-.27-.54s.09-.45.18-.99,0-1.26,0-1.26c0,0,.45-.09.72.27s.63.72.9.99c.27.36.99.9.99.9,0,0,.45-.54.45-1.26s-.45-1.44-.54-2.7.54-3.42,1.71-5.04c1.17-1.62,3.42-3.06,4.14-3.42.63-.36.81-.81.81-1.08s.09-.45.18-1.26c-.18-.72-.81-.63-1.44-.54Z"/>
      <path id="path418" class="cls-4" d="m253.29,78.36c.45,0,.9-.45.9-.81s-.36-.63-.81-.63-.81.27-.81.72.27.72.72.72Z"/>
      <path id="path420" class="cls-4" d="m257.16,93.67c.63.27,1.35.09,1.62-.09.36-.18.45-.81.09-1.08-.36-.36-.99-.27-1.35-.09-.36.18-1.17.81-1.17.81,0,0,.18.18.81.45Z"/>
      <path id="path422" class="cls-4" d="m259.14,94.3c-.27.36-.36.54-1.08.63-.72,0-1.44,0-1.89-.45s-.81-1.08-.81-1.08h-.81s-.27,1.08-.63,1.35c-.36.27-1.53.36-2.07,0s-.99-.9-1.08-.81,0,.45.54.9.9.72,1.8.72h4.95s.99.09,1.26-.54.27-.99.18-1.17c0-.09-.09.18-.36.45Z"/>
      <path id="path424" class="cls-4" d="m251.58,93.49c.72.45,1.17.18,1.44-.18.27-.36.36-.45.36-.45,0,0-.72-.27-1.08-.45-.36-.18-.54-.36-.9-.36s-.36.09-.36.09c0,0-.18.9.54,1.35Z"/>
      <path id="path426" class="cls-4" d="m261.22,92.41c-.36.36-.27.9.09,1.08s1.08.36,1.71.09c.63-.27.81-.54.81-.54,0,0-.81-.54-1.17-.81-.45-.09-1.08-.18-1.44.18Z"/>
      <path id="path428" class="cls-4" d="m268.15,94.66c-.54.36-1.71.36-2.07,0-.36-.27-.63-1.35-.63-1.35h-.81s-.36.63-.81,1.08-1.17.54-1.89.45c-.72,0-.9-.27-1.08-.63-.27-.36-.36-.63-.45-.45s-.09.54.18,1.17,1.26.54,1.26.54h4.95c.9,0,1.26-.27,1.8-.72s.63-.9.54-.9c0,0-.45.45-.99.81Z"/>
      <path id="path430" class="cls-4" d="m267.79,92.41c-.36.18-1.08.45-1.08.45,0,0,.09.18.36.45.27.36.72.63,1.44.18.72-.45.63-1.35.63-1.35,0,0-.09-.09-.36-.09-.45-.09-.63.09-.99.36Z"/>
      <path id="path432" class="cls-4" d="m271.66,90.7v-1.26l-.36.36c-.27.27-.72.63-1.26,1.08-.45.45-.27,1.35-.27,1.35,0,0,.63.09,1.17-.09.54-.27.81-.99.72-1.44Z"/>
      <path id="path434" class="cls-4" d="m270.31,93.04c0-.18-.18-.36-.36-.36s-.36.18-.36.36.18.36.36.36.36-.18.36-.36Z"/>
      <path id="path436" class="cls-4" d="m271.21,93.94c.36.09.81-.18,1.17-.36.36-.27.72-.27.72-.27,0,0-.36-.36-.45-.54-.18-.18-.36-.45-.99-.27-.63.27-.81.54-.9.81-.09.18.09.54.45.63Z"/>
      <path id="path438" class="cls-4" d="m274.18,93.76s-1.71,1.44-2.97,1.26c-1.26-.09-1.35-1.08-1.35-1.08,0,0-.27,1.26.54,1.71.45.27,1.17.45,1.89.63.54.09,1.08.18,1.53.09,1.17-.18,2.16-.72,2.16-.72l.09-.09c-1.08-.09-1.71-.72-1.89-1.8Z"/>
      <path id="path440" class="cls-4" d="m277.79,93.22c-.36,0-1.08.36-1.62.63-.54.18-.54.27-.27.45.36.18.63.45,1.26.36.63,0,1.26-.27,1.26-.9.18-.63-.27-.54-.63-.54Z"/>
      <path id="path442" class="cls-4" d="m280.13,91.6c-.54.45-.81.72-1.08,1.08-.27.45.54.72,1.08.72s.99-.18,1.17-.72c.18-.63-.18-1.62-.18-1.62,0,0-.45.18-.99.54Z"/>
      <ellipse id="ellipse444" class="cls-4" cx="279.59" cy="94.39" rx=".45" ry=".27"/>
      <path id="path446" class="cls-4" d="m280.4,87.18c0-.54.27-.99.63-1.26-.27-.72-.54-1.53-.99-2.34-.09-.09-.09-.18-.18-.27-.18.09-.45.18-.63.18-.81,0-1.44-.63-1.44-1.44,0-.27.09-.54.18-.72-.54-.45-2.7-1.71-3.33-1.8-.27.18-.54.27-.81.27-.81,0-1.44-.63-1.44-1.44v-.09c-1.17-.36-3.24-.9-3.24-.9,0,0,1.8,1.17,2.61,2.07.9.9.99,1.08.99,1.08,0,0,2.7.9,4.32,3.24,1.53,2.34,1.62,4.14,1.26,5.76-.45,1.62.18,2.7.27,2.7,0,0,1.08-1.44,1.89-1.62.81-.27.99-.54,1.08-.99v-.9c-.63-.09-1.17-.72-1.17-1.53Z"/>
      <path id="path448" class="cls-4" d="m273.37,78.9c.27.27.72.27.99.09s.18-.54-.09-.81c-.27-.27-.72-.27-.99-.09-.27.18-.18.54.09.81Z"/>
      <path id="path450" class="cls-4" d="m278.69,82.41c.36.27.81.36,1.08.09.27-.27.18-.72-.09-.99-.36-.27-.81-.36-1.08-.09-.36.27-.27.72.09.99Z"/>
      <circle id="ellipse452" class="cls-4" cx="281.84" cy="86.91" r=".81"/>
      <path id="path454" class="cls-4" d="m263.02,77.37c0,.27.18.81.81,1.08.63.36,2.88,1.8,4.14,3.42,1.17,1.62,1.8,3.78,1.71,5.04s-.54,1.98-.54,2.7.45,1.26.45,1.26c0,0,.72-.63.99-.9.27-.36.63-.72.9-.99s.72-.27.72-.27c0,0-.09.72,0,1.26s.18.72.18.99-.27.54-.27.54c0,0,2.07-.36,2.61-1.89s.09-4.14-1.17-6.57c-1.26-2.43-1.89-3.24-4.5-4.95-.36-.27-.72-.54-1.08-.72.09.18.09.27.09.45,0,.72-.54,1.35-1.35,1.35s-1.53-.72-1.53-1.44.63-1.17,1.44-1.17h0c-1.17-.63-1.98-.9-2.34-.99-.63-.18-1.35-.18-1.26.54-.09.81,0,.99,0,1.26Z"/>
      <path id="path456" class="cls-4" d="m260.05,89.35s-.18.81-.45,1.17-.45.63-.36,1.08.54.72.81.72.72-.27.81-.72-.09-.72-.36-1.08c-.27-.36-.45-1.17-.45-1.17Z"/>
      <circle id="circle458" class="cls-4" cx="260.05" cy="92.95" r=".45"/>
      <path id="path460" class="cls-4" d="m258.51,90.79s.72-.81.99-1.35c.27-.54.45-.99.45-.99,0,0,.18.45.45.99s.99,1.35.99,1.35c0,0,.99-.54,1.62-2.52.63-1.98-.18-4.05-.45-6.3s-.45-6.12-.45-6.12c-.81.45-1.53.63-2.25.63s-1.44-.18-2.25-.63c0,0-.18,3.87-.45,6.12s-.99,4.32-.45,6.3c.81,1.98,1.8,2.52,1.8,2.52Z"/>
      <path id="path462" class="cls-4" d="m265.9,77.55c0,.36.45.81.9.81s.81-.36.81-.81-.36-.72-.81-.72-.9.36-.9.72Z"/>
      <circle id="ellipse464" class="cls-2" cx="247.98" cy="86.1" r="1.62"/>
      <path id="path466" class="cls-2" d="m250.86,80.43c-.63-.45-1.62-.27-2.16.36-.54.63-.45,1.62.27,1.98.63.45,1.62.27,2.16-.36.45-.63.36-1.53-.27-1.98Z"/>
      <ellipse id="ellipse468" class="cls-4" cx="247.89" cy="85.92" rx=".99" ry=".9"/>
      <path id="path470" class="cls-4" d="m250.14,80.61c-.45-.09-.99.09-1.17.45-.18.36,0,.81.54.9,1.08.18,1.62-1.08.63-1.35Z"/>
      <ellipse id="ellipse472" class="cls-2" cx="260.05" cy="86.37" rx="1.8" ry="1.71"/>
      <ellipse id="ellipse474" class="cls-2" cx="260.05" cy="82.32" rx="1.71" ry="1.62"/>
      <ellipse id="ellipse476" class="cls-2" cx="260.05" cy="78.54" rx="1.62" ry="1.53"/>
      <path id="path478" class="cls-2" d="m272.11,84.48c-.9,0-1.62.72-1.62,1.62s.72,1.62,1.62,1.62,1.62-.72,1.62-1.62c0-.9-.72-1.62-1.62-1.62Z"/>
      <path id="path480" class="cls-2" d="m271.39,80.79c-.54-.63-1.53-.81-2.16-.36-.63.45-.81,1.35-.27,1.98s1.53.81,2.16.36c.72-.36.81-1.26.27-1.98Z"/>
      <ellipse id="ellipse482" class="cls-4" cx="272.2" cy="85.92" rx=".99" ry=".9"/>
      <path id="path484" class="cls-4" d="m269.86,80.61c-.99.27-.45,1.62.63,1.35.54-.09.81-.54.54-.9-.18-.36-.72-.63-1.17-.45Z"/>
      <circle id="ellipse486" class="cls-4" cx="260.05" cy="86.1" r=".9"/>
      <circle id="ellipse488" class="cls-4" cx="260.05" cy="82.05" r=".9"/>
      <circle id="ellipse490" class="cls-4" cx="260.05" cy="78.27" r=".81"/>
      <circle id="circle492" class="cls-2" cx="315.61" cy="204.45" r="1.44"/>
      <circle id="circle494" class="cls-2" cx="319.76" cy="205.44" r="1.53"/>
      <circle id="circle496" class="cls-2" cx="331.65" cy="207.96" r="1.53"/>
      <circle id="circle498" class="cls-2" cx="323.81" cy="206.43" r="1.53"/>
      <circle id="circle500" class="cls-2" cx="324.89" cy="202.82" r="1.53"/>
      <circle id="circle502" class="cls-2" cx="325.97" cy="199.22" r="1.53"/>
      <circle id="circle504" class="cls-4" cx="315.7" cy="204.27" r=".72"/>
      <circle id="circle506" class="cls-4" cx="319.85" cy="205.26" r=".72"/>
      <circle id="circle508" class="cls-4" cx="331.83" cy="207.87" r=".72"/>
      <circle id="circle510" class="cls-4" cx="323.9" cy="206.25" r=".72"/>
      <circle id="circle512" class="cls-4" cx="325.07" cy="202.64" r=".72"/>
      <circle id="circle514" class="cls-4" cx="326.06" cy="199.13" r=".72"/>
    </g>
  </g>
</svg>