<?xml version="1.0" encoding="UTF-8"?>
<svg id="Layer_2" data-name="Layer 2" xmlns="http://www.w3.org/2000/svg" viewBox="0 0 520 320">
  <defs>
    <style>
      .cls-1 {
        fill: #a3ab78;
      }

      .cls-1, .cls-2, .cls-3 {
        stroke-width: 0px;
      }

      .cls-2 {
        fill: #c1272d;
      }

      .cls-3 {
        fill: #006233;
      }
    </style>
  </defs>
  <g id="_500x300_Background" data-name="500x300 Background">
    <rect class="cls-1" width="520" height="320" rx="10" ry="10"/>
  </g>
  <g id="Morocco">
    <g>
      <polygon class="cls-2" points="255.65 180.77 264.35 174.51 258.98 170.64 255.65 180.77"/>
      <polygon class="cls-2" points="265.74 152.15 254.19 152.15 250.65 163.09 260.03 169.82 269.35 163.09 265.74 152.15"/>
      <polygon class="cls-2" points="259.97 134.41 256.7 144.6 263.3 144.6 259.97 134.41"/>
      <polygon class="cls-2" points="254.7 152.15 263.26 158.4 265.3 152.15 254.7 152.15"/>
      <polygon class="cls-2" points="255.65 174.51 264.35 180.77 261.02 170.64 255.65 174.51"/>
      <rect class="cls-2" x="10" y="10" width="500" height="300"/>
      <polygon class="cls-2" points="254.63 152.15 256.67 158.4 265.37 152.15 254.63 152.15"/>
      <path class="cls-3" d="m271.28,144.6l-11.28-34.6-11.28,34.6h-36.44l29.5,21.35-11.28,34.53,29.5-21.35,29.5,21.35-11.28-34.53,29.5-21.35h-36.44Zm-11.28-10.2l3.33,10.2h-6.66l3.33-10.2Zm-24.34,17.74h10.67l-2.04,6.25-8.63-6.25Zm9.25,28.62l3.33-10.13,5.37,3.87-8.7,6.25Zm5.78-17.68l3.54-10.88h11.56l3.54,10.94-9.31,6.73-9.31-6.8Zm15.77,11.42l5.37-3.87,3.33,10.13-8.7-6.25Zm9.31-16.11l-2.04-6.25h10.67l-8.63,6.25Z"/>
    </g>
  </g>
</svg>