<?xml version="1.0" encoding="UTF-8"?>
<svg id="Layer_2" data-name="Layer 2" xmlns="http://www.w3.org/2000/svg" viewBox="0 0 520 320">
  <defs>
    <style>
      .cls-1 {
        fill: #a3ab78;
      }

      .cls-1, .cls-2, .cls-3, .cls-4, .cls-5, .cls-6, .cls-7 {
        stroke-width: 0px;
      }

      .cls-3 {
        fill: none;
      }

      .cls-4 {
        fill: #007168;
      }

      .cls-5 {
        fill: #fff;
      }

      .cls-6 {
        fill: #d21034;
      }

      .cls-7 {
        fill: #fce100;
      }
    </style>
  </defs>
  <g id="_500x300_Background" data-name="500x300 Background">
    <rect class="cls-1" width="520" height="320" rx="10" ry="10"/>
  </g>
  <g id="Mozambique">
    <g>
      <polygon class="cls-3" points="58.5 162.99 57.39 162.07 57.39 162.25 58.4 163.07 58.5 162.99"/>
      <path class="cls-3" d="m52.91,174.91l.6-1.8-2.74-2.01,6.78-5.99-.03-.02-6.89,6.08-1.47-1,1.47,1.07,2.74,2.01-.6,1.8,3.48-3.07c.6,0,.94.07,1.54.13-.16-.04-.31-.1-.44-.16-.3-.03-.58-.07-.96-.11l-3.48,3.07Z"/>
      <path class="cls-3" d="m67.09,157.19c-.2,0-7.35,6.62-7.35,6.62l-.2.74-1.17.98.03.02,1.27-1.07.2-.74s7.15-6.62,7.35-6.62c.13,0-.4-.74-.4-.74l-.11.09c.09.12.56.71.38.71Z"/>
      <path class="cls-3" d="m53.98,178.38l-1.66-1.46-.14.13,1.74,1.47.27.8s-.03,0-.04,0l.95,2.58-.91-2.51c1.2-.07,2.67-.13,4.21-.13l1.12,3.95h.02s-1.14-4.02-1.14-4.02l-.04-.13c-1.5,0-2.87.07-4.11.13l-.27-.8Z"/>
      <path class="cls-3" d="m58.93,169.36l-1.67,1.27s-.02.04-.04.06l1.58-1.2,1.27,1.67s-.45.6-.92,1.2c.52-.64,1.06-1.33,1.06-1.33l-1.27-1.67Z"/>
      <path class="cls-3" d="m81.72,152.38c.25,0,.49-.05.74-.06,0,0,0,0,0,0,.02,0,.04,0,.06,0-.06-.07-.11-.12-.16-.18.04.04.06.07.1.12-.27,0-.53.07-.8.07-9.59,1.03-13.84.02-14.92-.3l-.04.03c.89.27,5.1,1.4,15.03.33Z"/>
      <path class="cls-3" d="m99.83,172.17l-.04.03c1.19,1.33,2.39,2.72,3.58,4.05l-.02-.09c-1.18-1.31-2.35-2.62-3.53-3.99Z"/>
      <path class="cls-3" d="m64.88,154.25l-13.24,10.96-3.14,2.61h.07l3.14-2.61,13.24-10.96.2-.94,1.46-1.21s-.02-.02-.04-.02l-1.49,1.23-.2.94Z"/>
      <polygon class="cls-3" points="49.24 170.09 48.03 169.22 48.37 167.82 48.32 167.82 48.3 167.89 47.97 169.29 49.17 170.16 50.86 168.75 49.24 170.09"/>
      <path class="cls-3" d="m101.58,157.66l-2.74-2.94s-4.31-2.57-12.57-2.57c8.22.02,12.51,2.57,12.51,2.57l2.81,3.07,3.26,10.71h.02s4.41,14.36,4.41,14.36l-.07.07-2.87,3.01-5.68-6.42,5.68,6.42-.25.25s.05.01.05.01l.27-.27h0s0,0,0,0l2.87-3.01c4.68,5.41,8.16,9.36,8.16,9.36-.03.36-.07.67-.13.94l.09-.05c.05-.26.08-.55.11-.89,0,0-3.41-3.94-8.16-9.36l.07-.07-4.41-14.37,30.28-21.79h-.23s-30.19,21.72-30.19,21.72l-3.28-10.76Z"/>
      <path class="cls-3" d="m88.43,142.95l1.25,3.88h.11s-1.25-3.88-1.25-3.88l.51-.45s-.03-.01-.04-.02l-.58.46Z"/>
      <polygon class="cls-3" points="57.61 175.96 59.68 173.73 57.59 175.91 57.61 175.96"/>
      <path class="cls-3" d="m100.37,179.45l-.15-.4-.12-.13-.04-.12-22.09-25.08-.04.03,22.16,25.17.17.46s.02,0,.03,0l.02.07c.13,0,.25.06.31.06h-.01c-.1-.03-.2-.07-.26-.07Z"/>
      <polygon class="cls-3" points="61.91 171.32 61.94 171.3 60.29 168.79 60.27 168.82 61.91 171.32"/>
      <path class="cls-3" d="m70.18,159.2s.04,0,.04,0l-1.66-2.39v.05s1.61,2.34,1.61,2.34Z"/>
      <path class="cls-3" d="m66.75,162.74c.2,1.74,5.15,3.01,9.49,3.81v-.05s-.04,0-.07-.01h0c-4.33-.82-9.23-2.08-9.43-3.81-.02-.18-.03-.35-.02-.51,0,.18,0,.37.02.58Z"/>
      <path class="cls-3" d="m70.43,186.2c2.07,2.41,6.82,3.41,11.36,0-4.48,3.34-9.22,2.41-11.36,0Z"/>
      <path class="cls-3" d="m76.18,182.06s-.05-.02-.07-.03v.03s.06,0,.09.02c.01-.01.02-.02.05-.02,1.78-.83,3.98-1.62,6.64-2.2-2.68.58-4.9,1.37-6.71,2.2Z"/>
      <path class="cls-3" d="m48.72,179.62c-.12.37-.32.74-.62,1.1.3-.37.5-.74.62-1.1Z"/>
      <path class="cls-3" d="m81.79,186.14c-1.34-1.74-3.28-3.07-5.55-4.08,2.27,1,4.21,2.34,5.55,4.14,5.75-3.14,15.17-1.94,20.45-.87l-.02-.07c-5.29-1-14.69-2.26-20.43.87Z"/>
      <path class="cls-3" d="m91.79,144.66s.02.02.03.03l11.6-9.8s-.03-.02-.04-.02l-11.59,9.79Z"/>
      <path class="cls-3" d="m76.11,182.13c-3.41,1.6-5.21,3.41-5.82,4.01h-21.17l-.02.07h21.26c.53-.67,2.34-2.47,5.75-4.08Z"/>
      <path class="cls-3" d="m106.89,199.21h0s-4.58-13.87-4.58-13.87c-.02,0-.05,0-.07-.01l4.64,13.88Z"/>
      <path class="cls-3" d="m74.64,149.91c-.53.4-1.07.87-1.6,1.2-.51-.58-.9-.97-1.41-1.53l-.06.06c.53.6.94,1,1.47,1.6.53-.4,1.07-.8,1.6-1.2.18.18.41.57.6.84.02-.01.04-.03.06-.04-.2-.2-.47-.67-.67-.94Z"/>
      <polygon class="cls-3" points="103.52 176.98 103.38 176.24 103.38 176.24 103.52 176.98"/>
      <path class="cls-3" d="m70.63,148.92c0,.16,0,.32.03.47-.02-.15-.03-.31-.03-.47Z"/>
      <path class="cls-3" d="m109.2,182.93c-1.8-2.07-3.74-4.34-5.81-6.68,2,2.34,4.01,4.61,5.81,6.68Z"/>
      <path class="cls-3" d="m84.06,148.03c.52-.65.72-.87.67-1.87h0c0,.94-.2,1.21-.74,1.81l-2.74,2.94s.03.03.08.08c0,0-.01-.02-.01-.02l2.74-2.94Z"/>
      <path class="cls-3" d="m64.69,138.5v.04s-1.35-1.54-1.35-1.54c-.02,0-.03,0-.05.02l1.32,1.52-2.67,8.42-11.83-.07,5.95-7.49-5.95,7.42-10.62,13.5.06.07,10.63-13.44,11.83.07,2.67-8.42,8.43,9.35.06-.06-8.48-9.4Z"/>
      <path class="cls-3" d="m70.75,149.77s.01.06.02.09c0-.03-.02-.06-.02-.09Z"/>
      <path class="cls-3" d="m62.08,137.34c-.4.06-.8.08-1.21.07.42.02.82-.01,1.21-.07Z"/>
      <path class="cls-3" d="m79.96,141.89l.83,1.33-.2.53.07.07-.2,1-2.67,2.41s.04.05.07.07c0,0,0,0,0,0l2.67-2.41.26-.96-.06-.11v-.05s0-.02,0-.02l.04-.1.1-.44.02-.07-.82-1.33s-.05.04-.09.07Z"/>
      <path class="cls-3" d="m65.06,179.47c1.54.14,3.09.35,4.61.63-1.52-.28-3.07-.49-4.61-.63Z"/>
      <path class="cls-3" d="m66.55,132.66l-.44,1.37c.59.67,9.61,10.87,9.93,11.19.02.04.07.03.14,0,0,0,0,0,0,0-.33-.4-9.96-11.23-9.96-11.23l.4-1.47.13-.41-3.3-3.58,3.23,3.58-.13.53Z"/>
      <path class="cls-3" d="m44.09,185.67l2.72-11.7h-.08l-2.71,11.63-9.02,10.83c-.6.4-1.27.4-2.01,0l-6.18-7.25-.03.03,6.22,7.29c.74.4,1.34.4,2.01,0l9.02-10.83-.13.53h.07l.13-.53h0Z"/>
      <polygon class="cls-3" points="75.84 189.41 75.81 189.44 96.97 204.92 97.01 204.9 75.84 189.41"/>
      <polygon class="cls-3" points="46.97 168.53 16.62 146.77 16.48 146.76 46.96 168.62 46.97 168.56 46.97 168.53"/>
      <polygon class="cls-3" points="34.06 146.76 34.04 146.76 34 146.83 34.02 146.83 34.06 146.76"/>
      <polygon class="cls-3" points="99.44 206.72 112.47 216.22 112.45 216.15 99.51 206.72 99.44 206.72"/>
      <path class="cls-3" d="m76.04,181.97c-1.29-.56-2.67-1.01-4.12-1.37,1.45.36,2.84.82,4.12,1.37h0Z"/>
      <path class="cls-3" d="m102.78,130.92l.74.53h.02s-.62-.47-.62-.47c0-.6.74-.74,0-1.8-.09-.1-.18-.16-.27-.2.05.04.09.08.14.14.74,1.07,0,1.2,0,1.8Z"/>
      <polygon class="cls-3" points="49.1 186.2 49.04 186.2 42.29 206.72 39.14 216.22 39.23 216.15 42.35 206.72 49.1 186.2"/>
      <path class="cls-3" d="m78.45,148.1s.02.01.04,0c-.02-.04-.06-.1-.11-.16.03.06.07.12.07.16Z"/>
      <polygon class="cls-3" points="47.43 171.63 46.64 172.23 46.63 172.3 47.37 171.7 46.85 173.9 46.9 173.9 47.43 171.63"/>
      <path class="cls-3" d="m105.25,135.13c-.15.08-.32.13-.49.14.2-.01.39-.05.56-.14l10-9.52-.09-.05-9.98,9.57Z"/>
      <path class="cls-3" d="m98.1,128.93c-.48-.32-.88-.69-1.07-1.08v.13c.24.35.63.67,1.07.95Z"/>
      <polygon class="cls-2" points="97.01 204.9 96.97 204.92 99.44 206.72 99.51 206.72 97.01 204.9"/>
      <polygon class="cls-2" points="107.62 201.41 106.89 199.21 106.89 199.21 107.62 201.41"/>
      <polygon class="cls-2" points="207.46 160 145.9 206.72 510 206.72 510 113.14 145.76 113.14 207.46 160"/>
      <polygon class="cls-5" points="145.76 113.14 510 113.14 510 103.78 133.4 103.78 145.76 113.14"/>
      <polygon class="cls-4" points="10 10 133.4 103.78 510 103.78 510 10 10 10"/>
      <polygon class="cls-5" points="133.4 216.22 510 216.22 510 206.72 145.9 206.72 133.4 216.22"/>
      <polygon class="cls-7" points="11.76 308.53 10 310 510 310 510 216.22 133.4 216.22 11.76 308.53"/>
      <path class="cls-6" d="m145.9,206.72l61.56-46.72-61.7-46.86-12.37-9.36L10,10v299.87l1.76-1.34,121.63-92.31,12.5-9.49Zm-33.36,9.49l-.09-.06.02.06-13.03-9.49-2.47-1.81-21.16-15.48-23.63,17.29-12.97,9.49.02-.06-.09.06,3.14-9.49,6.75-20.52h-5.15l.13-.53-9.02,10.83c-.67.4-1.27.4-2.01,0l-6.22-7.29.03-.03-.03-.04,9.89-8.69c1.2-.8,2.47-.94,3.88-1.07l5.55-5.48v-.07h.67l-.03.13h.08l.02-.07h.02l.52-2.21-.74.6v-.07s0,0,0,0l.33-3.61-30.48-21.85h.13s0,0,0,0l17.38.07.05-.07h-.05s11.9-16.78,11.9-16.78l2.61-.53s4.75.94,5.35-.2c.74-4.95,4.34-4.81,6.62-4.01l2.98,3.3,3.3,3.58,6.09-19.05,3.01-9.36,3.01,9.36,7.61,23.62.82-.76,4.08.2,5.35-4.95.2-3.41c.04.07.08.13.13.2v-.13c.19.39.6.76,1.07,1.08,1.05.68,2.34,1.12,2.48,1.12.19,0,1.27-1.73,2.07-1.07.09.04.19.1.27.2.74,1.07,0,1.2,0,1.8l.62.45,20.97-14.76-.63.61.77-.54-9.31,8.86-10,9.52c-.17.09-.36.13-.56.14-.52.05-1.08-.15-1.35-.39l-11.6,9.8s-.02-.02-.03-.03l-.04.03c-.66-.99-1.45-1.72-2.7-2.19l-.51.45,1.25,3.88,45.34-.2-.09.07h.23s-30.28,21.79-30.28,21.79l4.41,14.37-.07.07c4.75,5.41,8.16,9.36,8.16,9.36-.02.34-.06.63-.11.89-.22,1.27-.78,1.72-2.5,2.38l-.02-.02s-.03.01-.05.02l-8.42-9.62h0s-.27.26-.27.26c0,0-.03,0-.05-.01h-.01s-1.44-.38-3.74-.84l4.58,13.86.73,2.2,1.78,5.31,3.14,9.49Z"/>
      <path class="cls-6" d="m61.94,146.97l2.67-8.42-1.32-1.52c-.39.17-.8.26-1.21.32-.39.06-.79.09-1.21.07-.29-.01-.58-.04-.88-.07l-3.48-3.88-.47,5.95-5.95,7.49,11.83.07Z"/>
      <path class="cls-7" d="m88.43,142.95l-.09.07h0s-3.61,3.14-3.61,3.14c.05,1.01-.15,1.22-.67,1.87l-2.74,2.94s.01.01.01.02c.15.16.52.55,1.02,1.14.06.06.1.11.16.18,1.33-.11,2.57-.16,3.74-.16,8.26,0,12.57,2.57,12.57,2.57l2.74,2.94,3.28,10.76,30.19-21.72.09-.07-45.34.2h-.11s-1.25-3.88-1.25-3.88Z"/>
      <path class="cls-7" d="m47.03,168.02l1.27-.13.02-.07h-.02l2.41-10.16s2.81-2.87,3.14-3.14c2.74-1.34,12.63-2.54,12.63-2.54l.13.07-.05.04s.02.01.04.02l.07-.06s0,0,.01,0l.04-.03s-.09-.03-.12-.04l4.01-3.28c0,.07,0,.14,0,.21,0,.16,0,.32.03.47.02.13.05.26.09.39,0,.03.01.06.02.09.37,1.04,1.33,1.8,2.33,2.45.78-.39,1.37-.97,2.14-1.43-.19-.27-.42-.66-.6-.84-.53.4-1.07.8-1.6,1.2-.53-.6-.94-1-1.47-1.6l.06-.06s-.04-.04-.06-.07l1.54-1.54-8.43-9.35-2.67,8.42-11.83-.07-10.63,13.44-.06-.07h0s-8.09-9.75-8.09-9.75l2.63-3.74h-.02s-17.38-.07-17.38-.07h0s30.35,21.76,30.35,21.76l.06-.51Z"/>
      <path class="cls-7" d="m66.22,134s9.63,10.83,9.96,11.23c0,0,0,0,0,0,.67-.26,3.49-3.23,3.74-3.41l.04.07s.07-.06.09-.07l.82,1.33.51-1.6,5.01-4.81h0s.05-.04.05-.04l-7.61-23.62-3.01-9.36-3.01,9.36-6.09,19.05-.13.41-.4,1.47Z"/>
      <path class="cls-7" d="m77.85,147.3s0,0,0,0c.13.13.4.42.53.64.05.06.09.12.11.16.36-.15,3.1-2.54,3.1-2.54l-.81-1.63-.26.96-2.67,2.41Z"/>
      <path class="cls-7" d="m106.89,199.21l-4.64-13.88c-5.28-1.07-14.71-2.27-20.45.87-4.55,3.41-9.29,2.41-11.36,0h-21.32l-6.75,20.52-3.12,9.43-.02.06,12.97-9.49,23.63-17.29.03-.02,21.17,15.49,2.5,1.83,12.95,9.43.09.06-3.14-9.49-1.78-5.31-.73-2.19Z"/>
      <path class="cls-5" d="m100.63,179.5l-.41-.46.15.4c.05,0,.15.04.26.05Z"/>
      <polygon class="cls-5" points="47.43 171.63 46.9 173.9 47.57 173.9 50.64 171.23 49.17 170.16 47.43 171.63"/>
      <path class="cls-5" d="m49.13,186.14h21.17c.6-.6,2.41-2.41,5.82-4.01-3.41,1.6-5.21,3.41-5.75,4.08h.07c2.14,2.41,6.89,3.34,11.36,0-1.34-1.8-3.28-3.14-5.55-4.14-.02,0-.04.01-.05.02-.02-.02-.04-.02-.09-.02v-.03s.03.03.07.03c1.81-.83,4.03-1.62,6.71-2.2-2.66.59-4.86,1.37-6.64,2.2,2.27,1,4.21,2.34,5.55,4.08,5.74-3.14,15.15-1.88,20.43-.87l.02.07s.05,0,.07.01c2.3.46,3.74.85,3.74.85h.01s.25-.27.25-.27l-5.68-6.42c-.06,0-.19-.06-.31-.06l-.02-.07s-.02,0-.03,0l-.17-.46-22.16-25.17-1.63,1.37-4.61,3.94-2.74-3.48-.39,1.22,1.66,2.39s-.02,0-.04,0l.04.06s-3.39.29-3.5,2.9c0,.16,0,.33.02.51.2,1.73,5.1,2.99,9.43,3.8h0s.04.02.07.02h0c3.54.66,6.68.99,6.68.99,0,0-.2,6.89-.33,6.82-1.6.74-3.94.53-6.42-.13v.07c-6.69-1.8-14.77-6.89-14.77-6.89l-1.11,1.44,1.65,2.5-.03.03.03.04-2.26,2.36-2.07,2.23.86,3.09s-.07,0-.1,0l.04.13,1.14,4.01h-.02s.02.07.02.07l-3.14,2.21-1.29-3.57-.95-2.58s.03,0,.04,0l-.27-.8-1.74-1.47.14-.13h0s3.88-3.48,3.88-3.48h2.01c.06,0,.5-.52.95-1.08.47-.6.92-1.2.92-1.2l-1.27-1.67-1.58,1.2c-.53.76,0,1.08.71,1.28-.22,0-.4-.01-.57-.03.13.06.28.11.44.16-.6-.07-.94-.13-1.54-.13l-3.48,3.07h0s-3.94,3.48-3.94,3.48c.03.37,0,.74-.12,1.1-.12.37-.32.74-.62,1.1l-3.88,4.75-.13.2h0s0,0,0,0l-.13.53h5.15l.02-.07Zm26.92-4.17h0c-1.29-.56-2.67-1.01-4.12-1.37,1.45.36,2.84.82,4.12,1.37Zm-6.37-1.86c-1.52-.28-3.07-.49-4.61-.63,1.54.14,3.09.35,4.61.63Z"/>
      <path class="cls-5" d="m82.46,152.32s.04,0,.06,0c2.81,3.21,10.09,11.63,17.31,19.85h0c1.18,1.37,2.35,2.68,3.53,3.99l.02.09h0s0,0,0,0c0,0,0,0,0,0,2.07,2.34,4.01,4.61,5.81,6.68l.07-.07-4.41-14.37h-.02s-3.26-10.7-3.26-10.7l-2.81-3.07s-4.29-2.55-12.51-2.57c-1.17,0-2.41.05-3.74.16-.02,0-.04,0-.06,0,0,0,0,0,0,0Z"/>
      <path class="cls-5" d="m48.37,167.82h.13l3.14-2.61,13.24-10.96.2-.94,1.49-1.23.05-.04-.13-.07s-9.89,1.2-12.63,2.54c-.33.27-3.14,3.14-3.14,3.14l-2.41,10.16h.07Z"/>
      <path class="cls-5" d="m57.53,165.08l.03.02.1-.09.71.51,1.17-.98.2-.74s7.15-6.62,7.35-6.62c.18,0-.29-.6-.38-.71l-8.17,6.53-.02-.02-.11.09-1-.83v1.09l-6.53,5.41-1.69,1.41,1.47,1,6.89-6.08Z"/>
      <path class="cls-2" d="m35,196.43l9.02-10.83,2.71-11.63.03-.13h-.67v.07l-5.55,5.48c-1.4.13-2.67.27-3.88,1.07l-9.89,8.69.03.04,6.18,7.25c.74.4,1.4.4,2.01,0Z"/>
      <path class="cls-2" d="m117.42,192.29s-3.48-3.94-8.16-9.36l-2.87,3.01h0s8.42,9.63,8.42,9.63c.02,0,.03-.01.05-.02l.02.02c1.72-.66,2.28-1.11,2.5-2.38l-.09.05c.06-.28.1-.58.13-.94Z"/>
      <path class="cls-2" d="m34.02,146.83l-2.63,3.74,8.09,9.76h0s10.62-13.5,10.62-13.5l5.95-7.42.47-5.95,3.48,3.88c.29.03.58.06.88.07.41.02.81-.01,1.21-.07.41-.06.81-.15,1.21-.32.02,0,.03,0,.05-.02l1.34,1.54v-.04s8.49,9.4,8.49,9.4l-.06.06-1.54,1.54s.04.05.06.07c.5.56.89.96,1.41,1.53.53-.33,1.07-.8,1.6-1.2.2.27.47.74.67.94-.02.01-.04.03-.06.04-.77.46-1.36,1.04-2.14,1.43-1-.65-1.96-1.41-2.33-2.45-.01-.03-.01-.06-.02-.09-.04-.13-.07-.25-.09-.39-.02-.15-.03-.31-.03-.47,0-.07-.01-.14,0-.21l-4.01,3.28s.08.02.12.04c1.08.32,5.33,1.33,14.92.3.27,0,.53-.07.8-.07-.04-.04-.07-.07-.1-.12-.5-.59-.87-.98-1.02-1.14-.05-.05-.08-.08-.08-.08l2.74-2.94c.53-.6.74-.87.74-1.8h0s3.61-3.15,3.61-3.15h0s.09-.06.09-.06l.58-.46s.03.01.04.02c1.24.47,2.04,1.2,2.7,2.19l.04-.03,11.59-9.79s.03.02.04.02c.27.24.83.44,1.35.39.17-.02.34-.06.49-.14l9.98-9.57.09.05,9.31-8.86-.77.54.63-.61-20.97,14.76h-.02s-.74-.52-.74-.52c0-.6.74-.74,0-1.8-.04-.06-.09-.1-.14-.14-.8-.65-1.88,1.07-2.07,1.07-.13,0-1.43-.45-2.48-1.12-.44-.28-.83-.6-1.07-.95-.05-.07-.09-.13-.13-.2l-.2,3.41-5.35,4.95-4.08-.2-.82.76-.05.05h0s-5.01,4.81-5.01,4.81l-.51,1.6-.02.07-.1.44-.04.1v.02s0,.05,0,.05l.06.11.81,1.63s-2.74,2.39-3.1,2.54c-.03.01-.04.01-.04,0,0-.04-.04-.1-.07-.16-.13-.22-.4-.51-.53-.64-.02-.02-.06-.06-.07-.07l2.67-2.41.2-1-.07-.07.2-.53-.83-1.33-.04-.07c-.24.18-3.06,3.16-3.74,3.41-.07.03-.12.03-.14,0-.32-.32-9.34-10.53-9.93-11.19l.44-1.37.13-.53-3.23-3.58-2.98-3.3c-2.27-.8-5.88-.94-6.62,4.01-.6,1.14-5.35.2-5.35.2l-2.61.53-11.9,16.78h.05s.02,0,.02,0l-.05.07Z"/>
      <path class="cls-2" d="m44.09,185.67l.13-.2,3.88-4.75c.3-.37.5-.74.62-1.1.12-.37.15-.74.12-1.1l3.94-3.48h0s.6-1.8.6-1.8l-2.74-2.01-3.07,2.67h-.74l-.02.07-2.72,11.7h0Z"/>
      <path class="cls-2" d="m109.2,182.93c-1.8-2.07-3.81-4.34-5.81-6.68,0,0,0,0,0,0h0s.13.74.13.74l-.13-.74c-1.19-1.33-2.39-2.72-3.58-4.05l.04-.03h0c-7.22-8.23-14.51-16.65-17.31-19.86-.02,0-.04,0-.06,0-.25,0-.49.06-.74.06-9.93,1.07-14.14-.06-15.03-.33,0,0,0,0-.01,0l-.07.06-1.46,1.21-.2.94-13.24,10.96-3.14,2.61h-.2s-.33,1.4-.33,1.4l1.2.87,1.62-1.34,6.53-5.41v-1.27l1.11.92.02.02,8.17-6.53.11-.09s.53.74.4.74c-.2,0-7.35,6.62-7.35,6.62l-.2.74-1.27,1.07-.03-.02-.71-.51-.1.09-6.78,5.99,2.74,2.01-.6,1.8,3.48-3.07c.38.04.66.08.96.11.17.01.35.03.57.03-.72-.2-1.23-.52-.71-1.28.01-.02.02-.04.04-.06l1.67-1.27,1.27,1.67s-.54.69-1.06,1.33c-.45.56-.89,1.08-.95,1.08h-2.01l-3.88,3.48h0s1.66,1.47,1.66,1.47l.27.8c1.24-.07,2.61-.13,4.11-.13.04,0,.07,0,.1,0l-.86-3.09v-.05s2.07-2.18,2.07-2.18l2.26-2.36-.03-.04-1.65-2.5.02-.03,1.11-1.44s8.09,5.08,14.77,6.89v-.07c2.47.67,4.81.87,6.42.13.13.07.33-6.82.33-6.82,0,0-3.14-.33-6.68-1h0s0,.07,0,.07c-4.34-.8-9.29-2.07-9.49-3.81-.03-.2-.03-.39-.02-.58.11-2.61,3.5-2.9,3.5-2.9l-.04-.06-1.63-2.34v-.05s.4-1.22.4-1.22l2.74,3.48,4.61-3.94,1.63-1.37.04-.03,22.09,25.08.04.12.12.13.41.46h.01s5.68,6.43,5.68,6.43l2.87-3.01Z"/>
      <polygon class="cls-2" points="49.17 170.16 47.97 169.29 48.3 167.89 47.03 168.02 46.97 168.53 46.97 168.56 46.96 168.62 46.63 172.23 46.64 172.23 47.43 171.63 49.17 170.16"/>
      <path class="cls-2" d="m54.18,179.39l.91,2.51,1.29,3.57,3.14-2.21-.02-.06-1.12-3.95c-1.54,0-3.01.07-4.21.13Z"/>
    </g>
  </g>
</svg>