<?xml version="1.0" encoding="UTF-8"?>
<svg id="Layer_2" data-name="Layer 2" xmlns="http://www.w3.org/2000/svg" viewBox="0 0 520 320">
  <defs>
    <style>
      .cls-1 {
        fill: #a3ab78;
      }

      .cls-1, .cls-2, .cls-3, .cls-4, .cls-5, .cls-6 {
        stroke-width: 0px;
      }

      .cls-2 {
        fill: #fff;
      }

      .cls-3 {
        fill: #d21034;
      }

      .cls-4 {
        fill: #009543;
      }

      .cls-5 {
        fill: #003580;
      }

      .cls-6 {
        fill: #ffce00;
      }
    </style>
  </defs>
  <g id="_500x300_Background" data-name="500x300 Background">
    <rect class="cls-1" width="520" height="320" rx="10" ry="10"/>
  </g>
  <g id="Namibia">
    <g>
      <polygon class="cls-5" points="10 10 10 249.93 409.81 10 10 10"/>
      <polygon class="cls-4" points="110.19 310 510 310 510 70.07 110.19 310"/>
      <polygon class="cls-2" points="409.81 10 10 249.93 10 264.93 434.84 10 409.81 10"/>
      <polygon class="cls-2" points="510 55.07 85.16 310 110.19 310 510 70.07 510 55.07"/>
      <polygon class="cls-3" points="510 10 510 55.07 85.16 310 10 310 10 264.93 434.84 10 510 10"/>
    </g>
    <g>
      <path class="cls-6" d="m81.01,100.34l-14.33,17.22,22.06-3.77-3.77,22.06,17.22-14.33c-10.29-2.76-18.43-10.9-21.19-21.19Z"/>
      <path class="cls-6" d="m153.25,67.58l-22.06,3.77c3.7,3.7,6.39,8.27,7.74,13.45l14.33-17.22Z"/>
      <path class="cls-6" d="m81.01,84.8l-21.05,7.74,21.05,7.74c-.67-2.49-1.01-5.11-1.01-7.74-.07-2.69.34-5.25,1.01-7.74Z"/>
      <path class="cls-6" d="m131.19,71.35l3.77-22.06-17.22,14.33c5.18,1.35,9.75,4.04,13.45,7.74Z"/>
      <path class="cls-6" d="m102.2,63.54l-17.22-14.33,3.77,22.06-22.06-3.77,14.33,17.22c2.76-10.29,10.9-18.43,21.19-21.19Z"/>
      <path class="cls-6" d="m117.74,63.54l-7.74-21.05-7.74,21.05c2.49-.67,5.11-1.01,7.74-1.01s5.25.4,7.74,1.01Z"/>
      <path class="cls-6" d="m138.93,100.34c-2.76,10.36-10.9,18.43-21.19,21.19l17.22,14.33-3.77-22.06,22.06,3.77-14.33-17.22Z"/>
      <path class="cls-6" d="m138.93,100.34l21.05-7.74-21.05-7.74c.67,2.49,1.01,5.11,1.01,7.74.07,2.62-.34,5.25-1.01,7.74Z"/>
      <path class="cls-6" d="m102.2,121.52l7.74,21.05,7.74-21.05c-2.49.67-5.11,1.01-7.74,1.01s-5.25-.34-7.74-1.01Z"/>
      <circle class="cls-6" cx="110" cy="92.53" r="25.02"/>
    </g>
  </g>
</svg>