<?xml version="1.0" encoding="UTF-8"?>
<svg id="Layer_2" data-name="Layer 2" xmlns="http://www.w3.org/2000/svg" viewBox="0 0 250.2 320.02">
  <defs>
    <style>
      .cls-1 {
        fill: #a3ab78;
      }

      .cls-1, .cls-2, .cls-3, .cls-4 {
        stroke-width: 0px;
      }

      .cls-2 {
        fill: #003594;
      }

      .cls-3 {
        fill: #fff;
      }

      .cls-4 {
        fill: #dc143c;
      }
    </style>
  </defs>
  <g id="Nepal_Background" data-name="Nepal Background">
    <path class="cls-1" d="m0,310.02V10.02C0,2.16,8.65-2.63,15.31,1.54l230.19,144.15c8.51,5.33,4.73,18.48-5.31,18.48H106.15l138.78,138.78c6.3,6.3,1.84,17.07-7.07,17.07H10c-5.52,0-10-4.48-10-10Z"/>
  </g>
  <g id="Nepal">
    <g>
      <polygon class="cls-2" points="240.19 154.16 10 10.02 10 310.02 237.86 310.02 82.01 154.16 240.19 154.16"/>
      <polygon class="cls-4" points="232.59 151.98 12.18 13.96 12.18 87.43 12.18 151.98 12.18 307.83 232.59 307.83 76.74 151.98 232.59 151.98"/>
      <g>
        <path class="cls-3" d="m67.29,144.12c24.24,0,43.9-19.66,43.9-43.9-3.85,9.78-10.82,17.92-19.72,23.23l-3.75-2.81,7.4-5.53-8.95-2.28h0s4.71-7.95,4.71-7.95l-9.14,1.31h0s1.31-9.15,1.31-9.15l-7.94,4.71h0l-2.28-8.95-5.53,7.4-5.53-7.4-2.28,8.95h0l-7.94-4.71,1.31,9.14h0l-9.15-1.31,4.71,7.94h0s-8.95,2.29-8.95,2.29l7.4,5.53-3.76,2.81c-8.66-5.16-15.74-13.13-19.71-23.24,0,24.25,19.66,43.9,43.91,43.9Z"/>
        <polygon class="cls-3" points="108.13 253.49 96.18 237.65 96.18 237.65 114.45 229.91 96.18 222.17 96.18 222.16 108.13 206.33 88.44 208.75 88.44 208.76 88.44 208.75 88.44 208.75 90.87 189.06 75.03 201.01 75.02 201.01 67.29 182.74 59.54 201.01 59.54 201.01 43.7 189.06 46.13 208.75 46.13 208.75 46.13 208.76 46.13 208.75 26.44 206.33 38.39 222.16 38.39 222.17 20.12 229.91 38.39 237.65 38.39 237.65 26.44 253.49 46.13 251.06 46.13 251.06 43.7 270.76 59.54 258.8 59.54 258.8 67.29 277.08 75.03 258.8 75.03 258.8 90.87 270.76 88.44 251.06 88.44 251.06 108.13 253.49"/>
      </g>
    </g>
  </g>
</svg>