<?xml version="1.0" encoding="UTF-8"?>
<svg id="Layer_2" data-name="Layer 2" xmlns="http://www.w3.org/2000/svg" viewBox="0 0 520 320">
  <defs>
    <style>
      .cls-1 {
        fill: #a3ab78;
      }

      .cls-1, .cls-2, .cls-3, .cls-4, .cls-5 {
        stroke-width: 0px;
      }

      .cls-2 {
        fill: #cc142b;
      }

      .cls-3 {
        fill: #00247d;
      }

      .cls-4 {
        fill: #fff;
      }

      .cls-5 {
        fill: #cf142b;
      }
    </style>
  </defs>
  <g id="_500x300_Background" data-name="500x300 Background">
    <rect class="cls-1" width="520" height="320" rx="10" ry="10"/>
  </g>
  <g id="New_Zealand" data-name="New Zealand">
    <g>
      <polygon class="cls-3" points="10.38 24.16 10.38 51.74 65.52 51.74 10.38 24.16"/>
      <polygon class="cls-3" points="10.38 93.32 10.38 120.82 65.37 93.32 10.38 93.32"/>
      <polygon class="cls-3" points="114.15 10.54 38.96 10.54 114.15 48.14 114.15 10.54"/>
      <path class="cls-3" d="m260.19,10.54h-.38v13.47l-55.45,27.72h55.45v8.33h.08v24.92h-.08v8.33h-55.29l55.29,27.65v4.69l.08.04v9.21l-.03.06-.05-.02v.04h-27.81l-76.26-38.11v38.11h-41.58v-38.08l-76.25,38.08H10.38v175.02h499.62V10.54h-249.81Zm120.44,53.25l4.54-13.94,4.54,13.94h14.62l-11.82,8.64,4.54,13.94-11.89-8.56-11.89,8.56,4.54-13.94-11.89-8.64h14.69Zm-41.36,92.21l-11.82-8.64-11.89,8.64,4.54-13.94-11.89-8.64h14.69l4.54-14.01,4.47,14.01h14.69l-11.82,8.64,4.47,13.94Zm59.08,111.84l-13.18-9.62-13.18,9.62,5-15.53-13.18-9.54h16.29l5.07-15.45,5,15.45h16.29l-13.18,9.54,5.07,15.53Zm46.89-131.6l-10.6-7.73-10.6,7.73,4.01-12.5-10.6-7.65h13.1l4.09-12.5,4.01,12.5h13.1l-10.6,7.65,4.09,12.5Z"/>
      <polygon class="cls-3" points="230.94 10.54 155.74 10.54 155.74 48.17 230.94 10.54"/>
      <polygon class="cls-4" points="10.04 10.08 10.02 10.08 10.02 10.08 10 10.11 10 10.15 10.03 10.09 10.04 10.08"/>
      <polygon class="cls-5" points="176.62 93.32 259.81 134.94 259.86 134.97 259.89 134.91 259.89 125.7 259.81 125.66 195.17 93.32 176.62 93.32"/>
      <polygon class="cls-5" points="74.81 51.74 93.47 51.74 10.15 10.08 10.06 10.03 10.04 10.08 10.03 10.09 10 10.15 10 19.35 74.81 51.74"/>
      <polygon class="cls-5" points="111.95 93.32 93.32 93.32 10.05 134.96 10.03 134.97 10.04 134.98 10.38 134.98 28.63 134.98 111.95 93.32"/>
      <polygon class="cls-5" points="157.99 51.74 176.46 51.74 259.73 10.08 259.83 10.03 259.81 10 241.41 10 241.26 10.08 157.99 51.74"/>
      <polygon class="cls-4" points="93.32 93.32 111.95 93.32 28.63 134.98 37.9 134.98 114.15 96.91 114.15 134.98 122.48 134.98 122.48 84.99 10 84.99 10 93.32 10.38 93.32 65.37 93.32 10.38 120.82 10 121.01 10 134.87 10.05 134.96 93.32 93.32"/>
      <polygon class="cls-4" points="147.4 60.07 259.81 60.07 259.81 51.74 204.36 51.74 259.81 24.01 259.81 10.54 259.81 10.11 259.81 10.08 259.73 10.08 176.46 51.74 157.99 51.74 241.26 10.08 231.87 10.08 230.94 10.54 155.74 48.17 155.74 10.54 155.74 10.08 147.4 10.08 147.4 60.07"/>
      <polygon class="cls-4" points="122.48 60.07 122.48 10.08 114.15 10.08 114.15 10.54 114.15 48.14 38.96 10.54 38.03 10.08 10.15 10.08 93.47 51.74 74.81 51.74 10 19.35 10 23.98 10.38 24.16 65.52 51.74 10.38 51.74 10 51.74 10 60.07 122.48 60.07"/>
      <polygon class="cls-4" points="147.4 134.98 155.74 134.98 155.74 96.87 232 134.98 259.81 134.98 259.81 134.94 176.62 93.32 195.17 93.32 259.81 125.66 259.81 120.97 204.52 93.32 259.81 93.32 259.81 84.99 147.4 84.99 147.4 134.98"/>
      <polygon class="cls-5" points="122.48 84.99 122.48 134.98 134.98 134.98 147.4 134.98 147.4 84.99 259.81 84.99 259.89 84.99 259.89 72.49 259.89 60.07 259.81 60.07 147.4 60.07 147.4 10.08 122.48 10.08 122.48 60.07 10 60.07 10 72.49 10 84.99 122.48 84.99"/>
      <path class="cls-4" d="m373.28,86.37l11.89-8.56,11.89,8.56-4.54-13.94,11.82-8.64h-14.62l-4.54-13.94-4.54,13.94h-14.69l11.89,8.64-4.54,13.94Zm-.61-20.38h9.54l2.95-9.09,2.95,9.09h9.54l-7.73,5.61,2.95,9.09-7.73-5.61-7.73,5.61,2.95-9.09-7.73-5.61Z"/>
      <polygon class="cls-2" points="377.44 80.69 385.17 75.08 392.9 80.69 389.94 71.6 397.67 65.99 388.12 65.99 385.17 56.9 382.22 65.99 372.67 65.99 380.4 71.6 377.44 80.69"/>
      <path class="cls-4" d="m390.17,242.77l-5-15.45-5.07,15.45h-16.29l13.18,9.54-5,15.53,13.18-9.62,13.18,9.62-5.07-15.53,13.18-9.54h-16.29Zm4.01,19.32l-9.01-6.51-9.01,6.51,3.41-10.6-9.01-6.51h11.13l3.48-10.6,3.41,10.6h11.13l-9.01,6.51,3.48,10.6Z"/>
      <polygon class="cls-2" points="388.58 244.96 385.17 234.36 381.69 244.96 370.55 244.96 379.57 251.48 376.16 262.08 385.17 255.57 394.18 262.08 390.7 251.48 399.71 244.96 388.58 244.96"/>
      <path class="cls-4" d="m438.65,116.09l-4.01-12.5-4.09,12.5h-13.1l10.6,7.65-4.01,12.5,10.6-7.73,10.6,7.73-4.09-12.5,10.6-7.65h-13.1Zm2.42,14.39l-6.44-4.62-6.44,4.62,2.42-7.57-6.44-4.62h7.95l2.5-7.57,2.42,7.57h7.95l-6.44,4.62,2.5,7.57Z"/>
      <polygon class="cls-2" points="437.06 118.28 434.63 110.71 432.13 118.28 424.18 118.28 430.62 122.9 428.19 130.48 434.63 125.86 441.07 130.48 438.57 122.9 445.01 118.28 437.06 118.28"/>
      <path class="cls-4" d="m331.92,133.43l-4.47-14.01-4.54,14.01h-14.69l11.89,8.64-4.54,13.94,11.89-8.64,11.82,8.64-4.47-13.94,11.82-8.64h-14.69Zm3.18,16.89l-7.65-5.61-7.73,5.61,2.95-9.09-7.73-5.61h9.54l2.95-9.09,2.88,9.09h9.54l-7.65,5.61,2.88,9.09Z"/>
      <polygon class="cls-2" points="330.33 135.63 327.45 126.54 324.5 135.63 314.95 135.63 322.68 141.23 319.73 150.32 327.45 144.72 335.1 150.32 332.22 141.23 339.87 135.63 330.33 135.63"/>
    </g>
  </g>
</svg>