<?xml version="1.0" encoding="UTF-8"?>
<svg id="Layer_2" data-name="Layer 2" xmlns="http://www.w3.org/2000/svg" viewBox="0 0 520 320">
  <defs>
    <style>
      .cls-1 {
        fill: #006aa9;
      }

      .cls-1, .cls-2, .cls-3, .cls-4, .cls-5, .cls-6, .cls-7, .cls-8, .cls-9, .cls-10, .cls-11, .cls-12, .cls-13, .cls-14, .cls-15 {
        stroke-width: 0px;
      }

      .cls-2 {
        fill: #a3ab78;
      }

      .cls-3 {
        fill: #98c04e;
      }

      .cls-4 {
        fill: #329fcf;
      }

      .cls-5 {
        fill: #69844e;
      }

      .cls-6 {
        fill: #244e4a;
      }

      .cls-7 {
        fill: #c23a8e;
      }

      .cls-8 {
        fill: #cc4053;
      }

      .cls-9 {
        fill: #fff;
      }

      .cls-10 {
        fill: #0080c6;
      }

      .cls-11 {
        fill: #fdcc25;
      }

      .cls-12 {
        fill: #008ebd;
      }

      .cls-13 {
        fill: #231f20;
      }

      .cls-14 {
        fill: #79cef3;
      }

      .cls-15 {
        fill: #facb2b;
      }
    </style>
  </defs>
  <g id="_500x300_Background" data-name="500x300 Background">
    <rect class="cls-2" width="520" height="320" rx="10" ry="10"/>
  </g>
  <g id="Nicaragua">
    <g>
      <rect class="cls-10" x="10" y="210" width="500" height="100"/>
      <rect class="cls-10" x="10" y="10" width="500" height="100"/>
      <rect class="cls-9" x="10" y="110" width="500" height="100"/>
      <g>
        <path class="cls-11" d="m229.83,177.57l30.18-52.31,30.16,52.31h-60.34Z"/>
        <path class="cls-14" d="m232.81,175.84l27.19-47.14,27.2,47.14h-54.39Z"/>
      </g>
      <polygon class="cls-9" points="279.52 162.34 260.38 151.32 273 151.32 273 151.07 260.7 151.07 269.91 145.76 269.79 145.54 260.36 150.98 265.21 142.56 264.99 142.44 260.12 150.88 260.12 129.1 259.88 129.1 259.88 150.7 254.71 141.74 254.49 141.86 259.73 150.95 250.51 145.64 250.39 145.86 259.45 151.07 247.05 151.07 247.05 151.32 259.76 151.32 240.48 162.44 240.61 162.66 259.68 151.66 254.05 161.44 254.26 161.56 259.88 151.82 259.88 165 260.12 165 260.12 151.63 266.74 163.11 266.96 162.99 260.41 151.63 279.39 162.56 279.52 162.34"/>
      <circle class="cls-14" cx="260" cy="151.2" r="4"/>
      <g>
        <path class="cls-12" d="m282.28,167.17l-13.46.2s.07,1.99.95,2.06c.89.07,12.02-.14,12.5.75.47.9-10.87,1.37-10.87,1.37,0,0,9.98-.07,10.52.69.55.76-5.5.9-5.03,1.03.48.14,7.07-.13,7.68.62.61.76-2.98,1.23-2.98,1.23,0,0,5.43.53,5.59.52-1.31-2.27-4.89-8.46-4.89-8.46Z"/>
        <path class="cls-8" d="m258.01,148.58c-.43.28,1.01.47.88,1.42-.09.69-.88,1.59-1.22,2.2s1.57,2.86,3.32,1.65c1.78-1.23,1.56-3.44.95-3.85-1.4-.92-2.32-2.34-3.93-1.42Z"/>
        <path class="cls-13" d="m260.25,153.94s-.07-.02-.07-.06.02-.08.06-.08c.11-.01.15-.05.16-.09.05-.21-.53-.79-1.01-1.09-.43-.27-1.13-.49-1.33-.32-.06.05-.07.15-.01.3.01.04-.01.08-.05.09-.04.01-.08,0-.09-.05-.09-.27-.02-.4.06-.46.29-.24,1.12.07,1.51.31.4.25,1.15.9,1.06,1.25-.01.07-.07.18-.29.2.01,0,0,0,0,0Z"/>
        <path class="cls-5" d="m248.47,156.72c1.59-.37,2.04,1.49,2.54,1.8.51.31,1.88.46,2.23.66.36.2,1.73,1.14,1.73,1.14,0,0,.61-1.65,1.32-1.8s3.77,1.95,3.77,1.95c0,0,.35-1.95,1.17-1.69s4.89,3.35,4.89,3.35c0,0,.2-1.08,1.08-1.38.87-.31,3.87,1.54,3.87,1.54,0,0,.36-1.49.97-1.49,1.77,0,7.55,6.26,8.83,6.4.6.07-2.11.85-2.11.85,0,0,.46.41.2.77-.26.37-8.25.05-8.25.05,0,0,.23.54.09.72-.23.31-34.78.54-34.78.54,3.21-5.54,9.57-12.75,12.43-13.41Z"/>
        <path class="cls-6" d="m262.1,169.86c1.22-.31.36-3.67-6.26-8.77,10.48,7.24,3.83,8.24,14.54,8.56-1.92.13-8.28.21-8.28.21Z"/>
        <path class="cls-6" d="m260.42,160.84s9.91,7.66,10.31,8.04c.5.01,2.13.07,2.13.07,0,0-1.37-.11-12.44-8.11Z"/>
        <path class="cls-6" d="m266.32,162.33s8.32,6.57,6.99,6.59c-1.38.04,4.54.18,5.58-.06-5.38-.32-4.27-.54-12.57-6.53Z"/>
        <path class="cls-6" d="m271.36,162.59l7.38,5.46s1.13-.32,1.73-.57c-2.19.32-2.57-.66-9.12-4.89Z"/>
        <path class="cls-3" d="m249.78,157.45c.56.39.71,1.12,1.06,1.34.36.2,3.77,1.81,5.65,3.75,1.88,1.97,4.74,4.44,3.71,4.73-1.02.31-1.99-.77-1.99-.77,0,0,1.43,2.32-.46,2.47-1.88.14-6.52-6.85-6.52-6.85,0,0,2.23,6.33-.61,6.08-2.86-.26-2.54-4.79-2.54-4.79,0,0-.76,2.17-1.32,2.12-.56-.06,0-2.83,0-2.83,0,0-3.25,5.46-4.53,4.84-1.28-.63,5.01-10.57,7.54-10.1Z"/>
        <path class="cls-3" d="m256.55,159.3c-.08-.53.41-.36,1.43.15,1.02.5,9.22,6.84,9.02,7.5-.21.66-9.98-4.63-10.45-7.66Z"/>
        <path class="cls-3" d="m262.61,160.38c-.6-.14,6.52,7.1,8.19,6.64,1.68-.46-7.73-6.55-8.19-6.64Z"/>
        <path class="cls-3" d="m267.55,160.99c-.77-.07,6.93,6.9,8.61,6.55,1.67-.37-7.39-6.45-8.61-6.55Z"/>
        <path class="cls-3" d="m272.08,161.4c-.87.14,5.76,5.24,6.58,5.18.82-.05-4.61-5.53-6.58-5.18Z"/>
        <path class="cls-7" d="m249.27,147.21s4.07-4.77,10.73-4.77,10.75,4.76,10.75,4.76l-1.63-2.85s-3.31-3.34-9.12-3.34-9.08,3.29-9.08,3.29l-1.66,2.91Z"/>
        <path class="cls-8" d="m268.11,142.6s-2.91-2.47-8.1-2.47-8.1,2.51-8.1,2.51l-1.33,2.3s3.12-3.56,9.43-3.56,9.45,3.57,9.45,3.57l-1.36-2.34Z"/>
        <path class="cls-15" d="m267.09,140.6s-2.66-2-7.09-2-6.82,1.8-6.82,1.8l-1.43,2.47s2.66-2.62,8.25-2.62,8.26,2.62,8.26,2.62l-1.17-2.27Z"/>
        <path class="cls-3" d="m265.85,138.72l1.28,2.2s-2.63-1.94-7.11-1.94-7.17,2.05-7.17,2.05l1.3-2.21s1.81-1.34,5.89-1.34c4.06-.01,5.83,1.24,5.83,1.24Z"/>
        <path class="cls-4" d="m264.96,137.19l1.09,1.86s-2.57-1.31-6.04-1.31-6.21,1.63-6.21,1.63l1.03-1.79s1.81-1.1,5.18-1.1,4.95.71,4.95.71Z"/>
        <path class="cls-1" d="m264.4,136.19l.85,1.5s-1.63-1.07-5.24-1.07-5.25,1.05-5.25,1.05l.89-1.55s1.59-.58,4.36-.58c2.83.01,4.39.64,4.39.64Z"/>
        <path class="cls-9" d="m253.42,170.61l13.57.14s-2.38.27-2.32.56c.07.27,4.82.41,4.82.41,0,0-2.91.2-2.98.47-.07.27,1.36.41,1.36.41,0,0-2.64.27-2.64.56s3.39.41,3.12.41-4.48.07-4.48.41,3.02,1.07,3.02,1.07l-17.81.31s2.77-.41,2.77-.96-1.97-.7-1.97-.7c0,0,7.25.14,7.59-.2s-1.52-.58-1.52-.58c0,0,2.88.18,3.09-.17.2-.34-3.87-.9-3.87-.9,0,0,2.38.07,2.71-.34.34-.43-4.47-.91-4.47-.91Z"/>
        <path class="cls-12" d="m250.83,170.95s-13.37.41-14.52,1.17c-1.16.75,7.47,1.5,7.47,1.5,0,0-8.89.07-9.57.89-.68.83,5.29.69,5.29.69l-6.67.47,3.19-5.52,14.81.79Z"/>
      </g>
      <g>
        <path class="cls-15" d="m219.55,171.89c-.46.18-.72.67-.57,1.12.14.5.64.72,1.1.58.47-.14.73-.62.58-1.12-.14-.45-.65-.72-1.11-.58Z"/>
        <path class="cls-15" d="m222.07,181.04l4.44-4.12-1.02-1.08-5.34.45c-.84.09-1.36.14-1.97-.58l-.29.14,1.11,2.33.29-.14c-.16-.4-.17-.9.27-1.12.24-.09.55-.14.81-.18l.64-.04,1.06,2.2-.88.8c-.14.14-.29.27-.46.36-.26.14-.43.04-.72-.5l-.29.14,1.46,3.05.29-.14c-.36-.8.05-1.07.59-1.56Zm-.57-4.4l3.29-.27-2.38,2.2-.91-1.93Z"/>
        <path class="cls-15" d="m226.89,188.56l3.74-2.73c.59-.45.82-.32,1.26.22l.26-.18-1.62-2.24-4.5,1.34,2.65-3.85-1.67-2.28-.26.22c.38.5.42.85-.16,1.26l-3,2.2c-1.25.94-1.42.9-2.05.27l-.26.22,1.44,1.97.26-.22c-.44-.72-.34-.9.91-1.84l3.16-2.33v.04s-3.58,5.33-3.58,5.33l.21.27,6.33-1.93h.01l-4.07,3c-.55.4-.86.32-1.27-.22l-.25.18,2.04,2.78.26-.18c-.41-.58-.38-.9.17-1.3Z"/>
        <path class="cls-15" d="m233.78,194.07c-1.15.18-2.39-.04-3.29-.85-.51-.45-.3-.76.07-1.16l1.35-1.52.16.14c.71.62.93,1.12.47,2.02l.28.27,1.85-2.1-.28-.22c-.89.5-1.31.32-2.04-.32l-.14-.14,1.25-1.39c.48-.54.67-.76,1.31-.18.83.72,1.09,1.93,1.02,3l.3.09.75-1.75-4.34-3.9-.21.27c.52.45.55.76.11,1.26l-3.1,3.5c-.45.5-.77.5-1.29.04l-.21.22,4.34,3.85,1.73-.85-.1-.27Z"/>
        <path class="cls-15" d="m239.13,197.88l.11-1.16c.03-.36.08-.72-.06-1.03.88.36,1.93.4,2.5-.5.55-.85.21-1.97-1.01-2.73l-3.51-2.2-.17.27c.59.36.68.68.32,1.26l-2.47,3.94c-.35.54-.68.62-1.26.22l-.17.27,2.92,1.84.17-.27c-.59-.36-.68-.68-.32-1.26l1.15-1.84c.34.22.6.54.43,1.88l-.16,1.34c-.03.27-.09.58-.08.9l2.02,1.26.17-.27c-.67-.5-.63-1.17-.59-1.93Zm-1.4-3.45l-.16-.09,1.11-1.75c.29-.5.45-.68.98-.32.88.54,1.16,1.12.65,1.93-.55.91-1.23,1.08-2.58.23Z"/>
        <path class="cls-15" d="m242.71,200.07l1.93-4.26c.28-.58.59-.72,1.22-.4l.14-.32-3.15-1.39-.13.27c.63.27.76.58.48,1.21l-1.93,4.21c-.28.62-.59.72-1.22.4l-.13.32,3.14,1.44.13-.32c-.63-.26-.76-.57-.48-1.16Z"/>
        <path class="cls-15" d="m249.7,201.73c-.7.54-1.48.98-2.38.68-1.03-.32-1.83-1.62-1.12-3.81.35-1.08,1.23-2.73,2.63-2.28,1.04.32,1.5,1.52,1.62,2.51l.45.04.1-2.24-.11.04c-.24,0-.5.04-.74,0-.19-.09-.35-.22-.55-.36-.21-.14-.45-.32-.78-.4-1.9-.62-3.77.8-4.39,2.73-.57,1.75.23,3.67,2.05,4.3,1.33.4,2.44-.04,3.41-.94l-.19-.27Z"/>
        <path class="cls-15" d="m255.73,203.17l-.86-6-1.46.22-2.65,4.66c-.42.76-.68,1.21-1.62,1.3l-.05.32,2.53.4.05-.32c-.41-.09-.82-.36-.74-.85.04-.27.19-.54.32-.76l.31-.58,2.42.4.17,1.16c.03.18.05.4.03.58-.05.27-.21.4-.83.32l-.05.32,3.34.54.05-.32c-.84-.18-.86-.68-.96-1.39Zm-3.91-2.02l1.62-2.87.46,3.18-2.08-.32Z"/>
        <path class="cls-15" d="m263.61,204.11c-1.08.09-2.28-.8-2.42-3.14-.09-1.12.14-3,1.62-3.09,1.08-.09,1.93.9,2.42,1.79l.4-.18-.68-2.1-.14.09c-.18.09-.4.22-.67.22-.18.04-.4-.04-.62-.09-.27-.09-.54-.14-.9-.09-1.97.09-3.21,2.1-3.09,4.12.11,1.84,1.57,3.36,3.45,3.27,1.44-.09,2.28-.94,2.87-2.1l-.27-.18c-.45.72-1.03,1.43-1.98,1.48Z"/>
        <path class="cls-15" d="m270.16,203.3c-.67.14-.8-.22-.94-.76l-.45-1.97.18-.04c.94-.22,1.48-.14,1.93.76l.36-.09-.62-2.69-.36.09c-.09.98-.45,1.26-1.39,1.48l-.22.04-.4-1.84c-.18-.68-.22-.98.62-1.16,1.03-.27,2.19.22,3,.9l.27-.18-.98-1.66-5.69,1.34.09.32c.68-.18.94,0,1.12.62l1.03,4.53c.18.68-.04.94-.72,1.08l.09.32,5.65-1.3.32-1.93-.27-.04c-.55,1.01-1.44,1.91-2.61,2.18Z"/>
        <path class="cls-15" d="m278.63,193.44l-.14-.32-2.33,1.03.14.27c.9-.27,1.16.09,1.52.85l1.26,2.96-5.06-3.14-2.24.98.14.32c.4-.09.9-.04,1.26.14l1.79,4.08c.36.8.32,1.16-.5,1.66l.14.27,2.51-1.08-.14-.32c-1.03.22-1.21.09-1.62-.85l-1.48-3.4,5.73,3.45.8-.36-2.15-4.88c-.35-.78-.4-1.14.37-1.64Z"/>
        <path class="cls-15" d="m285.21,195.6l-3.09-4.53c.8-.5,2.02-.22,2.82.09l.22-.27-1.52-1.3-4.75,3.27.67,1.84.36-.14c0-.9.18-1.97.9-2.6l3.09,4.53c.4.54.32.85-.27,1.26l.18.27,2.87-1.97-.18-.22c-.59.36-.9.31-1.3-.22Z"/>
        <path class="cls-15" d="m291.88,189.19l-1.08-.36c-.36-.09-.72-.22-1.03-.18.54-.76.85-1.79.09-2.55-.72-.72-1.88-.68-2.91.36l-2.96,2.87.22.22c.5-.45.8-.5,1.3,0l3.27,3.32c.45.5.45.8-.04,1.3l.22.22,2.46-2.42-.22-.22c-.5.5-.85.5-1.3,0l-1.52-1.52c.32-.27.62-.5,1.93,0l1.26.5c.27.09.54.22.85.27l1.7-1.66-.22-.22c-.63.53-1.3.31-2.02.09Zm-3.67.58l-.14.14-1.44-1.48c-.4-.4-.54-.58-.09-1.03.72-.72,1.39-.9,2.06-.18.71.72.71,1.44-.4,2.56Z"/>
        <path class="cls-15" d="m296.81,182.91l-5.73-1.88-.45,1.39,3,4.48c.45.67.76,1.12.4,1.97l.27.22,1.48-2.1-.22-.18c-.27.32-.72.58-1.12.27-.18-.14-.36-.4-.54-.62l-.36-.5,1.44-2.02,1.12.36c.18.09.36.14.54.27.22.14.22.36-.09.85l.22.18,1.97-2.73-.27-.22c-.5.73-.99.5-1.67.27Zm-3.54,2.6l-1.84-2.73,3.09,1.03-1.25,1.7Z"/>
        <path class="cls-15" d="m299.86,176.02c.45,1.03.67,2.28.18,3.32-.32.62-.58.54-1.08.27l-4.17-2.06c-.62-.27-.68-.58-.36-1.21l-.32-.14-1.52,3.09.27.14c.32-.62.62-.76,1.21-.45l4.17,2.06c.62.32.72.62.4,1.26l.27.14,2.6-5.2-1.48-1.39-.17.17Z"/>
        <path class="cls-15" d="m299.9,173.6c.5.18.98-.09,1.12-.58.14-.45-.09-.94-.58-1.08-.45-.14-.94.09-1.08.54-.17.5.09.98.54,1.12Z"/>
        <path class="cls-15" d="m222.89,169.29l.32-.04-.53-3.4-.32.04c.11.68-.06.94-.73,1.03l-2.13.36c-.06-.4-.01-.8,1.13-1.57l1.11-.72c.24-.18.51-.36.73-.54l-.37-2.38-.32.04c.07.85-.47,1.26-1.06,1.7l-.95.68c-.29.22-.6.4-.75.76-.32-.9-.96-1.75-2-1.57-1.01.14-1.64,1.12-1.42,2.56l.64,4.08.32-.04c-.11-.68.06-.94.73-1.08l4.59-.72c.67-.09.91.14,1.02.8Zm-5.9-1.61c-.55.04-.78.09-.88-.54-.16-1.03.09-1.66,1.06-1.79,1.01-.18,1.6.22,1.85,1.79l.03.18-2.05.36Z"/>
        <path class="cls-15" d="m216.31,160.6l4.65.18c.67,0,.88.27.85.94l.32.04.22-5.83-1.77-.79-.14.26c.85.78,1.48,1.88,1.44,3.07-.03.68-.41.73-.96.71l-2.03-.08v-.21c.04-.95.28-1.43,1.27-1.65v-.37s-2.77-.1-2.77-.1v.37c.95.37,1.09.79,1.06,1.76v.19s-1.88-.07-1.88-.07c-.71-.03-1-.04-.97-.9.04-1.1.79-2.08,1.65-2.69l-.11-.3-1.82.54-.22,5.83h.32c.03-.73.25-.96.92-.91Z"/>
        <path class="cls-15" d="m216.92,152.73l4.53,1.01c.66.15.81.43.66,1.11l.31.06.75-3.37-.31-.06c-.15.68-.41.86-1.07.72l-1.98-.44.19-.81c.3-1.35.5-3.07-1.24-3.45-.93-.21-2,.4-2.46,2.51l-.75,3.39.31.06c.14-.68.4-.88,1.06-.73Zm-.29-2.49c.2-.89.76-1.34,1.79-1.11,1.11.24,1.41.86,1.16,1.98l-.12.55-2.06-.46c-.65-.14-.93-.2-.76-.96Z"/>
        <path class="cls-15" d="m218.57,146.05l3.39,1.39c1.38.57,2.54,0,3.27-1.77.71-1.75.17-2.76-1.39-3.39l-3.2-1.31c-.62-.26-.73-.55-.47-1.2l-.29-.12-.9,2.2.29.12c.27-.64.55-.78,1.17-.53l3.14,1.28c1.3.53,1.93,1.26,1.4,2.55-.4.96-1.08,1.29-2.68.6l-3.15-1.28c-.62-.26-.73-.56-.47-1.2l-.29-.12-1.31,3.2.29.12c.28-.65.57-.8,1.19-.54Z"/>
        <path class="cls-15" d="m221.79,138.78l3.92,2.49c.57.37.62.68.24,1.27l.27.17,2.21-3.47c1.01-1.59.83-2.69-.14-3.29-1.1-.7-2.03.01-2.78.8h-.01c.3-.81.46-1.92-.39-2.45-.72-.46-1.65-.42-2.97,1.66l-1.87,2.95.27.17c.39-.59.7-.68,1.26-.32Zm5.49-1.49c1.05.67,1.06,1.51.55,2.31-.53.84-.83.62-1.53.18l-1.72-1.09.3-.47c.95-1.49,1.67-1.38,2.39-.92Zm-4.96-.98c.5-.78,1.09-1.1,1.93-.57.85.54.9,1.21.24,2.23l-.29.47-1.72-1.09c-.14-.09-.32-.19-.37-.37-.06-.21.09-.47.2-.67Z"/>
        <path class="cls-15" d="m226.4,132.13l3.45,3.12c.5.45.5.78.03,1.29l.24.21,3.9-4.3-1.02-1.73-.23.11c.14,1.12.05,2.38-.75,3.27-.48.53-.67.37-1.1-.02l-3.45-3.12c-.5-.45-.5-.78-.03-1.29l-.23-.22-2.32,2.56.23.22c.46-.52.78-.56,1.28-.1Z"/>
        <path class="cls-15" d="m231.53,126.95l2.97,3.58c.43.52.38.84-.15,1.28l.2.24,2.66-2.21-.2-.24c-.54.45-.85.43-1.29-.09l-2.97-3.57c-.43-.52-.39-.84.15-1.28l-.2-.24-2.65,2.21.2.24c.52-.45.85-.44,1.28.08Z"/>
        <path class="cls-15" d="m240.12,128.09c1.18-.75,1.53-1.89,1.46-3.22l-.31-.02c-.04.87-.19,1.75-1.01,2.27-.91.57-2.41.38-3.66-1.59-.6-.95-1.32-2.7-.09-3.48.93-.59,2.14-.17,3,.39l.29-.34-1.63-1.49-.06.1c-.13.21-.26.43-.47.57-.16.1-.37.15-.62.21-.24.06-.52.15-.82.34-1.68,1.06-1.77,3.43-.7,5.12,1,1.55,3,2.18,4.62,1.16Z"/>
        <path class="cls-15" d="m244.61,125.49l-.12-.29c-.4.14-.89.12-1.07-.33-.1-.25-.11-.56-.12-.83l-.03-.64,2.28-.93.75.92c.12.14.25.3.32.47.11.27.02.44-.54.69l.12.29,3.14-1.27-.12-.29c-.81.31-1.09-.12-1.55-.68l-3.84-4.68-1.13.95.15,5.35c.02.85.02,1.36-.71,1.93l.12.29,2.36-.96Zm.62-3.38l-1.96.8-.1-3.3,2.06,2.5Z"/>
        <path class="cls-15" d="m256.4,115.57c-.52-.14-1.06-.14-1.66-.08l-3.33.37.04.32c.69-.08.95.11,1.03.78l.51,4.62c.08.68-.14.91-.83.98l.04.32,3.33-.37c.61-.07,1.16-.18,1.64-.43,1.11-.58,1.91-1.85,1.74-3.41-.19-1.7-1.21-2.74-2.51-3.09Zm-.91,6.56c-.84.09-.87-.11-.95-.83l-.5-4.45c-.07-.6-.1-.89.64-.97,1.3-.14,2.26.36,2.52,2.72.29,2.64-.52,3.4-1.72,3.53Z"/>
        <path class="cls-15" d="m266.03,120.76l-.27-.15c-.8.83-1.93,1.43-3.09,1.35-.72-.05-.72-.42-.68-.98l.14-2.03h.18c.94.08,1.44.33,1.62,1.32l.4.03.18-2.78-.36-.03c-.4.95-.85,1.08-1.79,1.02h-.22s.14-1.89.14-1.89c.04-.71.09-1,.94-.94,1.08.07,2.02.85,2.64,1.73l.27-.11-.45-1.84-5.83-.39v.32c.68.05.9.27.85.95l-.32,4.63c-.04.68-.27.87-.98.83l-.02.32,5.8.39.83-1.75Z"/>
        <path class="cls-15" d="m271.28,123.6c-.9-.52-.94-.75-.62-1.75l1.21-3.51,1.93,6.44.8.28,1.7-5.09c.32-.8.5-1.13,1.39-.98l.14-.3-2.42-.81-.09.3c.85.39.8.85.54,1.62l-1.03,3.05-1.66-5.74-2.33-.78-.09.3c.36.22.68.57.8.98l-1.39,4.2c-.32.84-.54,1.06-1.48.9l-.09.3,2.6.88.09-.3Z"/>
        <path class="cls-15" d="m278.89,120.67l-2.06,4.15c-.32.6-.62.68-1.26.37l-.14.29,3.09,1.55.14-.28c-.62-.32-.76-.62-.45-1.21l2.1-4.15c.27-.6.58-.68,1.21-.37l.14-.29-3.05-1.55-.18.29c.63.31.77.6.45,1.21Z"/>
        <path class="cls-15" d="m280.51,124.32c-1.03,1.53-.8,3.61.8,4.69,1.12.78,2.33.65,3.54.06l-.14-.29c-.8.31-1.7.52-2.46-.01-.9-.6-1.3-2.05,0-3.98.62-.93,1.93-2.29,3.14-1.47.94.62,1.03,1.9.85,2.9l.45.14.72-2.09-.14-.02c-.22-.04-.5-.06-.72-.21-.14-.11-.27-.29-.4-.48-.18-.2-.36-.42-.62-.61-1.66-1.13-3.86-.27-5.02,1.39Z"/>
        <path class="cls-15" d="m283.87,130.08l-.22.23,1.84,1.8.22-.23c-.27-.32-.45-.77-.14-1.12.18-.19.5-.32.72-.45l.58-.29,1.75,1.72-.54,1.06c-.09.17-.18.35-.32.48-.18.21-.4.19-.85-.22l-.22.23,2.42,2.36.22-.23c-.58-.62-.32-1.04,0-1.69l2.78-5.39-1.34-.66-4.84,2.28c-.77.36-1.26.57-2.06.12Zm6.45-1.67l-1.48,2.89-1.52-1.47,3-1.42Z"/>
        <path class="cls-15" d="m294.66,133.4l-3.81,2.63c-.58.38-.9.3-1.3-.27l-.22.18,1.93,2.85.27-.18c-.4-.57-.36-.89.18-1.27l1.8-1.22c.22.34.36.7-.36,1.89l-.67,1.15c-.14.27-.32.52-.4.8l1.34,1.97.27-.19c-.45-.72-.14-1.32.22-1.99l.54-1.02c.18-.32.36-.63.36-.99.67.67,1.62,1.16,2.51.55.85-.57.98-1.73.18-2.91l-2.33-3.43-.27.18c.35.57.35.88-.23,1.26Zm.94,1.29c.45-.31.68-.42,1.03.1.58.85.58,1.51-.22,2.05-.8.58-1.52.47-2.42-.84l-.09-.15,1.7-1.16Z"/>
        <path class="cls-15" d="m293.81,142.06l-.27.11.98,2.38.27-.12c-.14-.4-.14-.89.36-1.07.22-.1.54-.11.8-.13l.62-.04.94,2.28-.94.75c-.14.12-.27.25-.45.32-.27.11-.45.03-.72-.54l-.27.12,1.3,3.13.27-.12c-.32-.81.14-1.09.67-1.55l4.66-3.85-.94-1.13-5.33.16c-.84.03-1.38.03-1.96-.7Zm6.59,1.03l-2.51,2.07-.8-1.95,3.31-.11Z"/>
        <path class="cls-15" d="m299.59,148.56c-2.02.41-3.14,1.96-2.73,3.99.14.52.32.92.58,1.38.32.56.32.6.45,1.26l1.44-.28c.72-.14.94-.1,1.16.65l.4-.08-.68-3.2-.36.08c.09.74.04.95-.72,1.11-.85.17-1.66.17-1.88-.87-.22-1.05.54-1.96,2.91-2.44,2.38-.48,3.45.29,3.63,1.2.18.85-.32,1.56-1.3,2.65l.18.29,1.88-.98c-.18-.19-.36-.5-.4-.74-.04-.17-.04-.37,0-.6s.04-.48,0-.77c-.44-2.08-2.64-3.04-4.56-2.65Z"/>
        <path class="cls-15" d="m304.88,160.47h-.32c0,.68-.22.94-.9.94l-3.36.09c-1.44,0-2.28-.4-2.33-1.8,0-1.04.5-1.62,2.24-1.62l3.4-.06c.67-.01.9.22.9.92h.32s-.09-3.45-.09-3.45h-.32c.04.7-.18.95-.85.96l-3.67.07c-1.48.03-2.33,1-2.28,2.92.04,1.9.94,2.61,2.6,2.56l3.45-.09c.68,0,.9.22.94.94h.32l-.05-2.38Z"/>
        <path class="cls-15" d="m299.5,164.01c-.72-.4-1.16-.68-1.3-1.62l-.32-.04-.4,2.56.32.04c.09-.4.36-.85.85-.76.27.04.54.22.76.32l.58.32-.4,2.42-1.16.18c-.18.04-.4.04-.58,0-.27-.04-.4-.18-.32-.8l-.32-.04-.54,3.36.32.04c.18-.85.68-.9,1.39-.98l6-.85-.22-1.44-4.66-2.69Zm.58,3.18l.32-2.1,2.87,1.62-3.18.49Z"/>
      </g>
    </g>
  </g>
</svg>