<?xml version="1.0" encoding="UTF-8"?>
<svg id="Layer_2" data-name="Layer 2" xmlns="http://www.w3.org/2000/svg" viewBox="0 0 520 320">
  <defs>
    <style>
      .cls-1 {
        fill: #e2a494;
      }

      .cls-1, .cls-2, .cls-3, .cls-4, .cls-5, .cls-6, .cls-7, .cls-8, .cls-9, .cls-10, .cls-11, .cls-12, .cls-13, .cls-14, .cls-15, .cls-16, .cls-17, .cls-18, .cls-19, .cls-20, .cls-21, .cls-22, .cls-23, .cls-24, .cls-25, .cls-26, .cls-27, .cls-28, .cls-29 {
        stroke-width: 0px;
      }

      .cls-2 {
        fill: #ebeae3;
      }

      .cls-2, .cls-6, .cls-7, .cls-8, .cls-16, .cls-19, .cls-20, .cls-21, .cls-28 {
        fill-rule: evenodd;
      }

      .cls-3 {
        fill: #f0ddcb;
      }

      .cls-4 {
        fill: #a3ab78;
      }

      .cls-5 {
        fill: #cecfc1;
      }

      .cls-6 {
        fill: #a3afb8;
      }

      .cls-7 {
        fill: #f6ca1f;
      }

      .cls-10 {
        fill: #916c68;
      }

      .cls-30 {
        opacity: .94;
      }

      .cls-11 {
        fill: #0f6545;
      }

      .cls-12 {
        fill: #4d3126;
      }

      .cls-13 {
        fill: #1f2d86;
      }

      .cls-14 {
        fill: #fff;
      }

      .cls-15 {
        fill: #aa675d;
      }

      .cls-16 {
        fill: #9f1209;
      }

      .cls-17 {
        fill: #121116;
      }

      .cls-18 {
        fill: #eee;
      }

      .cls-19 {
        fill: #b02320;
      }

      .cls-20, .cls-27 {
        fill: #fc0;
      }

      .cls-21 {
        fill: #b3a192;
      }

      .cls-22 {
        fill: #707c8b;
      }

      .cls-23 {
        fill: #f5d8bc;
      }

      .cls-24 {
        fill: #1e1e1e;
      }

      .cls-25 {
        fill: #c00;
      }

      .cls-26 {
        fill: #8f322f;
      }

      .cls-28 {
        fill: #cca715;
      }

      .cls-29 {
        fill: #161111;
      }
    </style>
  </defs>
  <g id="_500x300_Background" data-name="500x300 Background">
    <rect class="cls-4" width="520" height="320" rx="10" ry="10"/>
  </g>
  <g id="Ireland_Northern" data-name="Ireland, Northern">
    <g>
      <rect class="cls-14" x="10" y="10" width="500" height="300"/>
      <g id="a">
        <rect class="cls-25" x="10" y="130" width="500" height="60"/>
      </g>
      <g id="a-2" data-name="a">
        <rect class="cls-25" x="230" y="10" width="60" height="300"/>
      </g>
      <g>
        <path class="cls-2" d="m282,101.63c1.93-3.01.77-4.96-2.14-5.56,0,0-9.29,2.98-19.33,3.31-10.04.33-21.96-2.52-21.96-2.52-2.14,1.34-1.62,4.53-.56,6.51,0,0,10.51,3.49,22.46,3.15,7.6-.22,14.79-2.15,18.83-3.44,2.32-.74,2.68-1.41,2.68-1.44Z"/>
        <path class="cls-9" d="m258.84,106.7c-11.16,0-20.77-3.15-20.87-3.18l-.06-.02-.03-.06c-1.02-1.91-1.7-5.28.61-6.73l.06-.04.07.02c.12.03,12.01,2.84,21.91,2.52,9.9-.32,19.19-3.27,19.28-3.3h.04s.04,0,.04,0c1.55.32,2.6,1.01,3.01,2,.43,1.02.17,2.34-.77,3.8h0c-.13.25-.75.87-2.77,1.51-4.58,1.46-11.57,3.24-18.88,3.45-.55.02-1.11.02-1.65.02Zm-20.7-3.47c.89.28,11.04,3.45,22.35,3.12,7.26-.21,14.23-1.98,18.79-3.43,2.01-.64,2.49-1.22,2.57-1.32h0s.03-.05.03-.05c.88-1.37,1.13-2.58.75-3.5-.37-.88-1.32-1.5-2.74-1.8-.69.22-9.73,2.99-19.33,3.3-9.55.32-20.95-2.28-21.93-2.51-2.03,1.34-1.41,4.41-.47,6.2Z"/>
      </g>
      <g>
        <path class="cls-14" d="m260,233.47l-19.29-40.07-44.34,3.33,25.06-36.74-25.06-36.73,44.34,3.33,19.29-40.07,19.29,40.07,44.34-3.33-25.06,36.73,25.06,36.74-44.34-3.33-19.29,40.07h0Z"/>
        <path class="cls-29" d="m260,234.62l-19.59-40.7-45.04,3.38,25.45-37.31-25.45-37.31,45.04,3.38,19.59-40.7,19.59,40.7,45.04-3.38-25.45,37.31,25.45,37.31-45.04-3.38-19.59,40.7Zm-18.98-41.74l18.98,39.44,18.98-39.44,43.65,3.28-24.66-36.16,24.66-36.16-43.65,3.28-18.98-39.44-18.98,39.44-43.65-3.28,24.66,36.16-24.66,36.16,43.65-3.28Z"/>
      </g>
      <g>
        <g>
          <path class="cls-25" d="m272,179.01c1.55-1.54,4.05-3.23,5.44-6.91,1.3-3.45,1.93-9.77,3.11-12.98,1.55-5.5,4.67-10.85.96-10.49-3.54.35-4.69,3.77-6.02,6.25-.68,1.37-1.18,2.81-1.49,4.3-.18.69-.19,1.47-.86,1.81.97-8.34-1.35-14.58-2.15-26.96-.32-5.19-1.17-10.4-3.88-10.44-2.03-.03-2.36,2.66-2.69,4.66,0-2.84.11-8.82-3.28-8.82-4.12,0-2.88,8.35-3.43,12.59-.09-1.5-.14-4.72-.58-6.8-.11-.66-.42-1.27-.9-1.75-.24-.22-.61-.34-1.13-.34-3.71,0-3.63,5.21-3.51,10.4.05.55,0,3.04.05,4.66,0-2.83.03-8.36-2.93-8.12-2.46.2-2.65,6.42-2.75,9.73.16,3.31-.99,11.02-1.39,13.21-.11,1.56-.72,3.57-.97,5.73-.57,4.66-.03,10.12.58,12.92,1.23,4.4,4.43,6.38,4.27,9.38-.16,3,0,8.26,0,10.63s2.05,2.48,6.31,1.56c6.94-1.49,10.74,1.5,16.48-.7-.73-6.54.95-11.2.78-13.56h0Z"/>
          <path class="cls-29" d="m250.95,194.05c-.95,0-1.6-.18-2.05-.55-.48-.39-.71-.97-.71-1.79,0-.69-.01-1.62-.03-2.68-.04-2.6-.09-5.83.03-7.97.08-1.51-.76-2.79-1.74-4.27-.9-1.37-1.93-2.92-2.52-5.03-.56-2.59-1.18-8.17-.59-13.02.12-1.06.33-2.05.53-3.02.2-.98.39-1.91.45-2.7.46-2.5,1.54-10.04,1.39-13.18h0s0-.08,0-.08c.12-3.63.32-9.7,2.98-9.92.63-.06,1.18.13,1.63.55s.76,1,.98,1.71c-.06-3.46.06-6.78,1.56-8.32.57-.59,1.32-.88,2.23-.88.58,0,1,.13,1.3.4.53.52.87,1.18.98,1.89.13.6.22,1.29.3,2.01.09-3.94.41-8.01,3.47-8.01.73,0,1.36.26,1.87.77,1.22,1.23,1.55,3.7,1.63,5.87.38-1.35,1.03-2.49,2.47-2.49,3.1.04,3.84,6.11,4.12,10.67.32,4.94.88,8.91,1.38,12.42.72,5.07,1.3,9.13.85,13.85.1-.21.15-.47.2-.75.03-.14.06-.28.09-.42.3-1.5.81-2.96,1.5-4.35.19-.36.38-.73.57-1.11,1.16-2.33,2.48-4.97,5.65-5.28.81-.08,1.36.09,1.69.51.81,1.04-.01,3.34-1.05,6.26-.46,1.3-.94,2.65-1.33,4.03-.57,1.55-1,3.79-1.46,6.15-.48,2.48-.98,5.05-1.65,6.85-1.15,3.03-3.03,4.73-4.54,6.1-.31.28-.61.55-.88.82.04.85-.13,1.94-.34,3.3-.39,2.51-.92,5.95-.45,10.13l.02.19-.18.07c-3.09,1.19-5.64.89-8.34.59-2.43-.28-4.94-.56-8.18.13-1.66.36-2.9.53-3.84.53Zm-2.05-63.71c-.06,0-.11,0-.17,0-2.22.18-2.43,6.43-2.52,9.44.17,3.49-1.04,11.38-1.4,13.31-.05.8-.25,1.74-.45,2.74-.19.95-.4,1.94-.52,2.98-.58,4.79.03,10.3.58,12.84.56,2.02,1.56,3.53,2.45,4.87,1.03,1.56,1.92,2.9,1.82,4.58-.11,2.12-.07,5.34-.03,7.93.02,1.06.03,1.99.03,2.69s.17,1.12.53,1.4c.75.6,2.38.58,5.48-.08,3.31-.71,5.87-.42,8.34-.14,2.58.29,5.03.57,7.92-.49-.44-4.16.09-7.57.47-10.07.21-1.4.38-2.5.33-3.31v-.11s.07-.08.07-.08c.3-.29.63-.59.98-.91,1.47-1.33,3.3-2.98,4.4-5.9.66-1.76,1.15-4.31,1.63-6.77.46-2.38.9-4.64,1.47-6.21.39-1.38.87-2.73,1.34-4.04.91-2.55,1.77-4.96,1.13-5.79-.22-.28-.63-.39-1.25-.32-2.9.29-4.1,2.69-5.26,5.01-.19.38-.38.76-.57,1.11-.67,1.34-1.16,2.77-1.46,4.23-.04.14-.06.27-.09.41-.12.59-.25,1.25-.91,1.58l-.41.21.05-.46c.58-4.97-.01-9.16-.77-14.46-.5-3.51-1.06-7.49-1.38-12.46-.43-6.84-1.61-10.17-3.63-10.2h-.02c-1.7,0-2.07,2.33-2.37,4.2l-.04.26-.5-.04v-.26c0-2.16,0-6.17-1.52-7.69-.42-.42-.91-.62-1.52-.62-2.83,0-2.91,4.53-2.99,8.53-.03,1.41-.05,2.75-.19,3.84l-.5-.02c-.02-.33-.04-.75-.06-1.22-.07-1.66-.17-3.94-.52-5.54-.1-.62-.39-1.18-.84-1.62-.19-.18-.51-.27-.96-.27-.78,0-1.39.24-1.87.73-1.57,1.61-1.48,5.75-1.39,9.41.03.27.03,1,.03,1.93v.59c.03.75.03,1.46.03,2.07v.08h-.5c-.02-.62-.03-1.37-.03-2.09-.07-2.04-.35-4.42-1.38-5.36-.31-.28-.66-.42-1.08-.42Z"/>
        </g>
        <g>
          <path class="cls-25" d="m268.12,167.4c1.44-3.97,3.25-5.52,5-6.39m-2.39,20.07c.13-.81.63-1.46,1.34-2.15m-20.44-41.72c.1,3.51.31,10.26.31,11.87m12.54-21.46c-.2,1.87.03,3.37-.02,5.28-.03,1.27.18,3.6.34,6.43-.04,1.02.32,6.12,0,8.01m-7.08-16.22c.07.69.05,1.53.08,2.46.16,4.49.06,11.19.19,14.45"/>
          <path class="cls-29" d="m270.73,181.33s-.03,0-.04,0c-.14-.02-.23-.15-.21-.29.14-.93.76-1.65,1.41-2.29.1-.1.26-.1.35,0,.1.1.1.26,0,.35-.68.67-1.15,1.27-1.27,2.01-.02.12-.13.21-.25.21Zm-2.61-13.68s-.06,0-.08-.02c-.13-.05-.2-.19-.15-.32,1.56-4.31,3.56-5.75,5.13-6.53.12-.06.27-.01.33.11s.01.27-.11.33c-1.48.73-3.38,2.1-4.88,6.25-.04.1-.13.17-.23.17Zm-16.17-18.32c-.14,0-.25-.11-.25-.25,0-1.29-.13-5.85-.24-9.5l-.07-2.36c0-.14.1-.25.24-.26.13.01.25.1.26.24l.07,2.36c.11,3.66.24,8.22.24,9.52,0,.14-.11.25-.25.25Zm6.04-1.05c-.13,0-.24-.11-.25-.24-.06-1.57-.07-3.96-.08-6.48-.01-2.78-.02-5.65-.11-7.97-.01-.35-.02-.68-.02-1,0-.53-.02-1.02-.06-1.45-.01-.14.09-.26.22-.27.14,0,.26.09.27.22.04.45.05.95.06,1.49,0,.31,0,.64.02.99.08,2.33.09,5.21.11,7.99.01,2.52.02,4.9.08,6.46,0,.14-.1.25-.24.26h-.01Zm6.81-.69s-.03,0-.04,0c-.14-.02-.23-.15-.2-.29.22-1.28.12-4.17.05-6.07-.03-.88-.06-1.58-.04-1.9-.05-.88-.11-1.73-.16-2.52-.11-1.69-.2-3.03-.18-3.91.02-.74,0-1.43-.03-2.09-.04-1.06-.07-2.06.05-3.21.02-.14.14-.24.28-.22.14.01.24.14.22.28-.12,1.12-.08,2.1-.05,3.14.02.67.05,1.36.03,2.12-.02.85.07,2.18.18,3.86.05.79.11,1.64.16,2.55-.01.33.01,1.02.04,1.89.07,2.04.18,4.84-.06,6.18-.02.12-.13.21-.25.21Z"/>
        </g>
      </g>
      <g>
        <path class="cls-19" d="m259.71,86.39c24.23,3.99,23.36,5.12,23.36,5.12l6.32-18.9s.67-3.73-1.07-5.99c-1.73-2.26-6.59-1-6.59-1,0,0-.67-3.06-2.8-3.79s-10.05,2.86-12.51,3.66c-2.46.8-3.73,1.6-7.19,1.53-3.46-.07-9.65-3.13-10.78-3.73-1.13-.6-2.8-1.2-4.33-1.13-1.53.07-3.13.47-3.93,1.53-.8,1.07-.8,2.4-.8,2.4,0,0-1.27-.8-3.26-.8s-3.13.27-4.06,1.33c-.93,1.06-2.13,4.06-2.13,4.06l2.26,5.13.13,7.06,4.73,7.45s22.63-3.93,22.63-3.93Z"/>
        <path class="cls-9" d="m283.4,91.76l-.71-.38c-.04.14,0,.27.05.32-.14-.14-1.99-1.43-23.03-4.9l-22.83,3.96-4.93-7.78-.13-7.09-2.3-5.21.06-.16c.05-.12,1.23-3.07,2.2-4.18,1.08-1.23,2.42-1.47,4.37-1.47,1.31,0,2.33.33,2.92.58.09-.53.3-1.32.82-2.01.97-1.29,2.84-1.63,4.24-1.69,1.92-.08,3.81.8,4.54,1.18.07.04,6.92,3.61,10.6,3.68,2.66.04,3.98-.42,5.64-1.02.44-.16.9-.32,1.41-.49.59-.19,1.52-.55,2.59-.97,4.44-1.73,8.56-3.24,10.18-2.69,1.86.64,2.68,2.79,2.95,3.69,1.24-.26,5.03-.84,6.62,1.24,1.82,2.38,1.17,6.15,1.14,6.31l-6.28,18.8.02.06-.14.22Zm-23.69-5.79h.07c13.21,2.19,20.95,3.83,23.08,4.89l6.15-18.38h0s.59-3.53-1-5.61c-1.54-2.02-6.12-.86-6.16-.85l-.41.11-.09-.41s-.64-2.85-2.53-3.5c-1.47-.5-6.57,1.49-9.62,2.68-1.08.42-2.02.79-2.63.99-.5.16-.96.33-1.39.48-1.67.6-3.11,1.13-5.93,1.07-3.87-.07-10.9-3.74-10.96-3.77-1.38-.73-2.92-1.13-4.12-1.08-1,.04-2.8.28-3.62,1.37-.7.94-.72,2.14-.72,2.15v.73s-.62-.39-.62-.39c-.01,0-1.2-.74-3.05-.74-2.03,0-2.97.3-3.75,1.19-.76.87-1.74,3.16-1.99,3.79l2.23,5.12.13,6.94,4.52,7.13,22.43-3.89Z"/>
      </g>
      <g>
        <path class="cls-2" d="m282.3,97.07s1.22,1.45,1.17,1.97-.56.99-.56.99c0,0,.38.38.28.94s-.85.61-.85.61c0,0,.14.52-.33.75-.47.24-2.39.66-2.39.66,0,0-9.38-2.67-19.42-2.67s-21.86,3.24-21.86,3.24c0,0-1.22-.42-1.27-1.22-.05-.8.14-1.36.14-1.36,0,0-.67.07-.85-.52-.25-.82.09-1.46.09-1.46,0,0-.46.15.05-.94.38-.8.94-1.08.94-1.08,0,0,10.51-3.75,22.47-3.8,11.96-.05,22.38,3.8,22.38,3.89h0Z"/>
        <path class="cls-9" d="m238.33,103.72l-.05-.02c-.05-.02-1.32-.47-1.38-1.36-.03-.54.04-.97.09-1.21-.29-.04-.66-.19-.79-.63-.18-.61-.07-1.12.03-1.39-.02-.01-.03-.03-.05-.04-.15-.17-.1-.51.17-1.08.4-.84.99-1.14,1.01-1.16.12-.05,10.69-3.77,22.55-3.82.07,0,.14,0,.21,0,11.68,0,22.09,3.74,22.29,3.94l.05.06c.27.33,1.22,1.52,1.17,2.05-.04.42-.34.8-.51.98.12.17.3.51.22.95-.08.5-.56.67-.82.72,0,.24-.08.58-.44.76-.48.24-2.35.65-2.43.67h-.04s-.04,0-.04,0c-.09-.03-9.48-2.67-19.38-2.67s-21.7,3.2-21.82,3.23h-.05Zm-.89-2.94l-.08.24s-.18.55-.13,1.3c.04.6.9.98,1.11,1.06.86-.23,12.24-3.23,21.86-3.23s18.75,2.48,19.43,2.67c.28-.06,1.91-.43,2.32-.63.33-.17.25-.52.24-.56l-.05-.19h.2s.62-.06.7-.49c.08-.47-.22-.78-.24-.8l-.12-.12.12-.11s.47-.43.51-.88c.03-.31-.63-1.25-1.12-1.83-.68-.36-10.82-3.85-22.06-3.85-.07,0-.14,0-.21,0-11.79.05-22.3,3.75-22.42,3.79h0s-.51.27-.85,1c-.28.59-.22.73-.22.73l.38-.12-.21.34s-.31.59-.08,1.33c.14.45.65.4.67.4l.25-.02Z"/>
      </g>
      <path class="cls-9" d="m232.3,73.54c-.02-.06-.44-1.55.53-2.88.95-1.3,2.73-1.33,3.42-.99.3.15.45.38.56.57.12.2.19.31.41.36.43.1.78-.22.78-.23l.51.51s-.64.62-1.46.41c-.5-.13-.7-.45-.84-.68-.1-.16-.16-.25-.27-.31-.34-.17-1.75-.27-2.52.77-.76,1.04-.43,2.24-.42,2.25l-.69.2Z"/>
      <g>
        <g class="cls-30">
          <path class="cls-20" d="m291.14,76.62l-3.64,7.53-1.43.25s-.87-.52-3.36-.35c-1.78.12-2.31.58-2.31.58l3.24-7.5s.25,1.61.63,2.56c.48,1.2,2.28,2.33,2.28,2.33,0,0,.25-1.44-.23-3.19-.53-1.93-1.76-4.54-1.76-4.54l6.58,2.33h0Z"/>
        </g>
        <path class="cls-9" d="m279.49,85.8l4.32-10.01.2,1.28s.25,1.58.61,2.48c.27.69,1.08,1.39,1.62,1.79.02-.56,0-1.44-.27-2.41-.51-1.88-1.72-4.46-1.73-4.48l-.38-.81,7.82,2.77-3.9,8.08-1.76.31-.12-.07s-.85-.46-3.14-.3c-1.59.11-2.09.49-2.1.49l-1.15.88Zm4.19-2.16c1.42,0,2.15.24,2.44.37l1.12-.2,3.37-6.98-5.35-1.9c.41.93,1.06,2.5,1.41,3.8.49,1.81.24,3.29.23,3.35l-.1.55-.47-.3c-.08-.05-1.92-1.21-2.43-2.51-.17-.42-.31-.96-.42-1.44l-2.39,5.54c.38-.1.89-.2,1.57-.25.37-.03.7-.04,1-.04Z"/>
      </g>
      <g>
        <path class="cls-17" d="m257.81,53.22h4.07v17.31h-4.07v-17.31Z"/>
        <path class="cls-17" d="m261.88,70.9h-4.07c-.2,0-.37-.16-.37-.37v-17.31c0-.2.16-.37.37-.37h4.07c.2,0,.37.16.37.37v17.31c0,.2-.16.37-.37.37Zm-3.71-.73h3.34v-16.58h-3.34v16.58Z"/>
      </g>
      <g>
        <path class="cls-7" d="m232.85,85.15l2.61,5.6s11.13-4.34,24.27-4.26c19.71.12,25.31,4.08,25.31,4.08l2.92-6.93-2.19,1.28-2.25,1.4-2.55.97-3.1-.24-2.74-2.01-1.4-2.92-2.31,2.13-4.08.91-4.02-1.03-3.53-4.44s-2.63,4.94-5.96,5.23c-4.81.43-7.6-2.31-7.6-2.31,0,0-1.79,4.01-4.74,4.74-4.68,1.16-8.58-2.19-8.64-2.19h0Z"/>
        <path class="cls-9" d="m235.31,91.14l-2.94-6.3h.49c.11,0,.16.04.29.14,1.55,1.15,4.68,2.95,8.27,2.06,2.77-.68,4.52-4.53,4.54-4.57l.18-.41.32.31s2.77,2.63,7.36,2.22c3.13-.28,5.69-5.02,5.71-5.07l.22-.42,3.76,4.73,3.84.99,3.92-.88,2.56-2.36,1.55,3.23,2.6,1.91,2.94.23,2.49-.95,2.2-1.37,3-1.75-3.43,8.14-.31-.22c-.06-.04-5.8-3.9-25.13-4.02-.12,0-.24,0-.36,0-12.77,0-23.69,4.2-23.8,4.24l-.27.11Zm-1.69-5.09l2.01,4.31c1.78-.65,11.98-4.18,23.75-4.18.12,0,.24,0,.36,0,17.27.11,23.72,3.11,25.16,3.93l2.42-5.75-1.39.81-2.24,1.4-2.67,1.02-3.26-.25-2.91-2.18-1.22-2.54-2.06,1.9-4.23.95-4.19-1.08-3.31-4.16c-.73,1.22-3.06,4.73-5.98,4.99-4.02.36-6.65-1.41-7.53-2.12-.53,1.04-2.22,3.92-4.77,4.55-3.26.81-6.15-.45-7.95-1.59Z"/>
      </g>
      <g>
        <g>
          <g>
            <path class="cls-18" d="m277.78,51.03c0,1.18-.94,2.13-2.1,2.13-1.16,0-2.1-.95-2.11-2.12,0-1.18.93-2.13,2.09-2.14,1.16,0,2.11.94,2.12,2.12"/>
            <path class="cls-24" d="m275.68,53.53c-1.36,0-2.46-1.11-2.47-2.49,0-1.37,1.1-2.5,2.45-2.51,1.36-.02,2.47,1.1,2.48,2.48h-.73c0-.96-.79-1.75-1.74-1.75h-.01c-.96,0-1.73.8-1.73,1.77s.75,1.78,1.74,1.76c.96,0,1.73-.79,1.73-1.77h.73c0,1.37-1.11,2.49-2.46,2.5h0Z"/>
          </g>
          <path class="cls-6" d="m274.7,52.12s1.7-.03,1.87-.72c.17-.69-.12-1.58-.12-1.58,0,0,.81.89.58,1.58-.23.69-.46.87-1.04,1.01-.39.09-.98-.06-1.3-.29Z"/>
        </g>
        <g>
          <g>
            <path class="cls-18" d="m272.67,53.42c0,1.18-.94,2.13-2.1,2.13-1.16,0-2.1-.95-2.11-2.12,0-1.18.93-2.13,2.09-2.14,1.16,0,2.11.94,2.12,2.12"/>
            <path class="cls-24" d="m270.57,55.92c-1.36,0-2.46-1.12-2.47-2.49,0-1.37,1.1-2.5,2.46-2.51,1.35,0,2.47,1.1,2.48,2.48h-.73c0-.97-.79-1.71-1.75-1.75-.96,0-1.73.8-1.73,1.77,0,.97.78,1.76,1.74,1.76h0c.96,0,1.73-.79,1.73-1.77h.73c0,1.37-1.11,2.49-2.46,2.5h0Z"/>
          </g>
          <path class="cls-6" d="m269.59,54.51s1.7-.03,1.87-.72c.17-.69-.12-1.58-.12-1.58,0,0,.81.89.58,1.58-.23.69-.46.87-1.04,1.01-.39.09-.98-.06-1.3-.29Z"/>
        </g>
        <g>
          <g>
            <path class="cls-18" d="m283.71,49.63c0,1.18-.94,2.13-2.1,2.13-1.16,0-2.1-.95-2.11-2.12,0-1.18.93-2.13,2.09-2.14,1.16,0,2.11.94,2.12,2.12"/>
            <path class="cls-24" d="m281.61,52.13c-1.36,0-2.46-1.12-2.47-2.49,0-1.37,1.1-2.5,2.46-2.51h.01c1.35,0,2.46,1.11,2.47,2.48h-.73c0-.97-.79-1.74-1.75-1.75-.96,0-1.73.8-1.73,1.77,0,.97.78,1.76,1.74,1.76h0c.96,0,1.73-.79,1.73-1.77h.73c0,1.37-1.11,2.49-2.46,2.5h0Z"/>
          </g>
          <path class="cls-6" d="m280.63,50.72s1.7-.03,1.87-.72c.17-.69-.12-1.58-.12-1.58,0,0,.81.89.58,1.58-.23.69-.46.87-1.04,1.01-.39.09-.98-.06-1.3-.29Z"/>
        </g>
        <g>
          <g>
            <path class="cls-18" d="m290.39,50.97c0,1.18-.94,2.13-2.1,2.13-1.16,0-2.1-.95-2.11-2.12,0-1.18.93-2.13,2.09-2.14,1.16,0,2.11.94,2.12,2.12"/>
            <path class="cls-24" d="m288.29,53.47c-1.35,0-2.46-1.11-2.47-2.49,0-1.37,1.1-2.5,2.46-2.51h.02c1.35,0,2.46,1.11,2.47,2.48h-.73c0-.96-.79-1.75-1.74-1.75h-.01c-.96,0-1.73.8-1.73,1.77,0,.97.78,1.76,1.74,1.76h0c.96,0,1.73-.79,1.73-1.77h.73c0,1.38-1.11,2.5-2.46,2.5h0Z"/>
          </g>
          <path class="cls-6" d="m287.31,52.07s1.7-.03,1.87-.72c.17-.69-.12-1.58-.12-1.58,0,0,.81.89.58,1.58-.23.69-.46.87-1.04,1.01-.39.09-.98-.06-1.3-.29Z"/>
        </g>
        <g>
          <g>
            <path class="cls-18" d="m295.49,55.17c0,1.18-.94,2.13-2.1,2.13-1.16,0-2.1-.95-2.11-2.12,0-1.18.93-2.13,2.09-2.14,1.16,0,2.11.94,2.12,2.12"/>
            <path class="cls-24" d="m293.38,57.67c-1.36,0-2.46-1.12-2.47-2.49,0-1.37,1.1-2.5,2.45-2.51h.01c1.35,0,2.46,1.11,2.47,2.48h-.73c0-.96-.79-1.75-1.74-1.75h-.01c-.96,0-1.73.8-1.73,1.77,0,.97.78,1.76,1.74,1.76h0c.96,0,1.73-.79,1.73-1.77h.73c0,1.37-1.11,2.49-2.46,2.5h0Z"/>
          </g>
          <path class="cls-6" d="m292.4,56.26s1.7-.03,1.87-.72c.17-.69-.12-1.58-.12-1.58,0,0,.81.89.58,1.58-.23.69-.46.87-1.04,1.01-.39.09-.98-.06-1.3-.29Z"/>
        </g>
        <g>
          <g>
            <path class="cls-18" d="m297.69,62.06c0,1.18-.94,2.13-2.1,2.13-1.16,0-2.1-.95-2.11-2.12,0-1.18.93-2.13,2.09-2.14,1.16,0,2.11.94,2.12,2.12"/>
            <path class="cls-24" d="m295.58,64.55c-1.35,0-2.46-1.11-2.47-2.49,0-1.37,1.1-2.5,2.45-2.51h.01c1.35,0,2.46,1.11,2.47,2.48h-.73c0-.96-.79-1.75-1.74-1.75h-.01c-.96,0-1.73.8-1.73,1.77,0,.97.78,1.76,1.74,1.76h0c.96,0,1.73-.79,1.73-1.77h.73c0,1.38-1.11,2.5-2.46,2.5h0Z"/>
          </g>
          <path class="cls-6" d="m294.6,63.15s1.7-.03,1.87-.72c.17-.69-.12-1.58-.12-1.58,0,0,.81.89.58,1.58-.23.69-.46.87-1.04,1.01-.39.09-.98-.06-1.3-.29Z"/>
        </g>
        <g>
          <g>
            <path class="cls-18" d="m296.87,69.02c0,1.18-.94,2.13-2.1,2.13-1.16,0-2.1-.95-2.11-2.12,0-1.18.93-2.13,2.09-2.14,1.16,0,2.11.94,2.12,2.12"/>
            <path class="cls-24" d="m294.77,71.52c-1.36,0-2.46-1.12-2.47-2.49,0-1.37,1.1-2.5,2.46-2.51h.01c1.35,0,2.46,1.11,2.47,2.48h-.73c0-.96-.79-1.75-1.74-1.75h-.01c-.96,0-1.73.8-1.73,1.77,0,.97.78,1.76,1.74,1.76h0c.96,0,1.73-.79,1.73-1.77h.73c0,1.37-1.11,2.49-2.46,2.5h0Z"/>
          </g>
          <path class="cls-6" d="m293.79,70.12s1.7-.03,1.87-.72c.17-.69-.12-1.58-.12-1.58,0,0,.81.89.58,1.58-.23.69-.46.87-1.04,1.01-.39.09-.98-.06-1.3-.29Z"/>
        </g>
        <g>
          <g>
            <path class="cls-18" d="m293.78,75.14c0,1.18-.94,2.13-2.1,2.13-1.16,0-2.1-.95-2.11-2.12,0-1.18.93-2.13,2.09-2.14,1.16,0,2.11.94,2.12,2.12"/>
            <path class="cls-24" d="m291.67,77.63c-1.36,0-2.46-1.11-2.47-2.49,0-1.37,1.1-2.5,2.45-2.51,1.34,0,2.47,1.1,2.48,2.48h-.73c0-.97-.75-1.73-1.75-1.75-.96,0-1.73.8-1.73,1.77,0,.97.78,1.76,1.74,1.76h0c.96,0,1.73-.79,1.73-1.77h.73c0,1.37-1.11,2.49-2.46,2.5h0Z"/>
          </g>
          <path class="cls-6" d="m290.69,76.23s1.7-.03,1.87-.72c.17-.69-.12-1.58-.12-1.58,0,0,.81.89.58,1.58-.23.69-.46.87-1.04,1.01-.39.09-.98-.06-1.3-.29Z"/>
        </g>
        <g>
          <g>
            <path class="cls-18" d="m267.7,55.25c0,1.18-.94,2.13-2.1,2.13-1.16,0-2.1-.95-2.11-2.12,0-1.18.93-2.13,2.09-2.14,1.16,0,2.11.94,2.12,2.12"/>
            <path class="cls-24" d="m265.59,57.75c-1.36,0-2.46-1.12-2.47-2.49,0-1.37,1.1-2.5,2.45-2.51,1.35-.02,2.47,1.1,2.48,2.48h-.73c0-.96-.79-1.75-1.74-1.75h-.01c-.96,0-1.73.8-1.73,1.77,0,.97.78,1.76,1.74,1.76h0c.96,0,1.73-.79,1.73-1.77h.73c0,1.37-1.11,2.49-2.46,2.5h0Z"/>
          </g>
          <path class="cls-6" d="m264.61,56.35s1.7-.03,1.87-.72c.17-.69-.12-1.58-.12-1.58,0,0,.81.89.58,1.58-.23.69-.46.87-1.04,1.01-.39.09-.98-.06-1.3-.29Z"/>
        </g>
        <g>
          <g>
            <path class="cls-18" d="m261.35,54.71c0,.98-.79,1.78-1.76,1.78-.97,0-1.76-.79-1.76-1.78,0-.98.78-1.78,1.75-1.79.97,0,1.76.79,1.77,1.77"/>
            <path class="cls-24" d="m259.59,56.86c-1.17,0-2.12-.96-2.12-2.14,0-1.18.94-2.15,2.11-2.16h.01c1.16,0,2.11.95,2.12,2.13h-.73c0-.77-.63-1.4-1.39-1.4h0c-.77,0-1.39.64-1.39,1.42,0,.78.63,1.41,1.39,1.41h0c.77,0,1.39-.64,1.39-1.42h.73c0,1.18-.95,2.15-2.12,2.15h0Z"/>
          </g>
          <path class="cls-6" d="m258.77,55.62s1.42-.02,1.57-.6c.14-.58-.1-1.32-.1-1.32,0,0,.67.75.48,1.32-.19.58-.38.73-.87.84-.33.08-.82-.05-1.08-.24Z"/>
        </g>
        <g>
          <g>
            <path class="cls-18" d="m261.37,56.92c0,.98-.79,1.78-1.76,1.78-.97,0-1.76-.79-1.76-1.78,0-.98.78-1.78,1.75-1.79.97,0,1.76.79,1.77,1.77"/>
            <path class="cls-24" d="m259.61,59.07c-1.17,0-2.12-.96-2.12-2.14,0-1.18.94-2.15,2.11-2.16h.01c1.16,0,2.12.95,2.12,2.13h-.73c0-.77-.63-1.4-1.39-1.4h0c-.77,0-1.39.64-1.39,1.42,0,.78.63,1.41,1.39,1.41.79.01,1.39-.64,1.39-1.42h.73c0,1.18-.95,2.15-2.12,2.15h0Z"/>
          </g>
          <path class="cls-6" d="m258.79,57.84s1.42-.02,1.57-.6c.14-.58-.1-1.32-.1-1.32,0,0,.67.75.48,1.32-.19.58-.38.73-.87.84-.33.08-.82-.05-1.08-.24Z"/>
        </g>
        <g>
          <g>
            <path class="cls-18" d="m261.49,60.18c0,.98-.79,1.78-1.76,1.78-.97,0-1.76-.79-1.76-1.78,0-.98.78-1.78,1.75-1.79.97,0,1.76.79,1.77,1.77"/>
            <path class="cls-24" d="m259.73,62.33c-1.17,0-2.12-.96-2.12-2.14,0-1.18.94-2.15,2.11-2.16,1.16,0,2.13.95,2.14,2.13h-.73c0-.77-.63-1.4-1.39-1.4h0c-.77,0-1.39.64-1.39,1.42,0,.78.63,1.41,1.39,1.41h0c.77,0,1.39-.64,1.39-1.42h.73c0,1.18-.95,2.15-2.12,2.15h0Z"/>
          </g>
          <path class="cls-6" d="m258.91,61.1s1.42-.02,1.57-.6c.14-.58-.1-1.32-.1-1.32,0,0,.67.75.48,1.32-.19.58-.38.73-.87.84-.33.08-.82-.05-1.08-.24Z"/>
        </g>
        <g>
          <g>
            <path class="cls-18" d="m261.67,63.65c0,1.06-.85,1.93-1.9,1.93-1.05,0-1.9-.86-1.91-1.92,0-1.06.84-1.93,1.89-1.94,1.05,0,1.9.85,1.91,1.91"/>
            <path class="cls-24" d="m259.77,65.94c-1.25,0-2.26-1.02-2.27-2.28,0-1.26,1.01-2.3,2.25-2.3h.01c1.24,0,2.26,1.02,2.27,2.28h-.73c0-.85-.69-1.54-1.54-1.54h0c-.85,0-1.53.71-1.53,1.57,0,.86.69,1.56,1.54,1.56h0c.85,0,1.53-.7,1.53-1.56h.73c0,1.26-1.02,2.29-2.26,2.29h0Z"/>
          </g>
          <path class="cls-6" d="m258.88,64.64s1.54-.03,1.69-.65c.16-.62-.1-1.43-.1-1.43,0,0,.73.81.52,1.43-.21.63-.41.79-.94.91-.36.08-.89-.05-1.17-.26Z"/>
        </g>
        <g>
          <g>
            <path class="cls-18" d="m261.87,68.29c0,1.18-.94,2.13-2.1,2.13-1.16,0-2.1-.95-2.11-2.12,0-1.18.93-2.13,2.09-2.14,1.16,0,2.11.94,2.12,2.12"/>
            <path class="cls-24" d="m259.77,70.79c-1.35,0-2.46-1.11-2.47-2.49,0-1.37,1.1-2.5,2.46-2.51h.01c1.35,0,2.46,1.11,2.47,2.48h-.73c0-.97-.78-1.71-1.75-1.75-.96,0-1.73.8-1.73,1.77,0,.97.78,1.76,1.74,1.76h0c.96,0,1.73-.79,1.73-1.77h.73c0,1.38-1.11,2.5-2.46,2.5h0Z"/>
          </g>
          <path class="cls-6" d="m258.79,69.38s1.7-.03,1.87-.72c.17-.69-.12-1.58-.12-1.58,0,0,.81.89.58,1.58-.23.69-.46.87-1.04,1.01-.39.09-.98-.06-1.3-.29Z"/>
        </g>
        <g>
          <g>
            <path class="cls-18" d="m261.66,77.82c0,1.1-.88,2-1.97,2-1.09,0-1.97-.89-1.98-1.99,0-1.1.87-2,1.96-2.01,1.09,0,1.98.88,1.99,1.99"/>
            <path class="cls-24" d="m259.69,80.19c-1.29,0-2.33-1.06-2.34-2.36,0-1.3,1.04-2.37,2.33-2.38h.01c1.28,0,2.33,1.05,2.34,2.35h-.73c0-.9-.75-1.64-1.62-1.62-.89,0-1.6.74-1.6,1.64,0,.9.73,1.63,1.61,1.63h0c.89,0,1.61-.74,1.61-1.64h.73c0,1.3-1.05,2.37-2.34,2.37h0Z"/>
          </g>
          <path class="cls-6" d="m258.77,78.85s1.6-.03,1.76-.68c.16-.65-.11-1.49-.11-1.49,0,0,.76.84.54,1.49-.22.65-.43.82-.97.95-.37.09-.92-.05-1.22-.27Z"/>
        </g>
        <g>
          <g>
            <path class="cls-18" d="m255.97,55.19c0,1.18-.94,2.13-2.1,2.13-1.16,0-2.1-.95-2.11-2.12,0-1.18.93-2.13,2.09-2.14,1.16,0,2.11.94,2.12,2.12"/>
            <path class="cls-24" d="m253.87,57.69c-1.36,0-2.46-1.12-2.47-2.49,0-1.37,1.1-2.5,2.45-2.51h.01c1.35,0,2.46,1.11,2.47,2.48h-.73c0-.96-.79-1.75-1.74-1.75h-.01c-.96,0-1.73.8-1.73,1.77,0,.97.78,1.76,1.74,1.76h0c.96,0,1.73-.79,1.73-1.77h.73c0,1.37-1.11,2.49-2.46,2.5h0Z"/>
          </g>
          <path class="cls-6" d="m252.89,56.29s1.7-.03,1.87-.72c.17-.69-.12-1.58-.12-1.58,0,0,.81.89.58,1.58-.23.69-.46.87-1.04,1.01-.39.09-.98-.06-1.3-.29Z"/>
        </g>
        <g>
          <g>
            <path class="cls-18" d="m250.75,53.14c0,1.18-.94,2.13-2.1,2.13-1.16,0-2.1-.95-2.11-2.12,0-1.18.93-2.13,2.09-2.14,1.16,0,2.11.94,2.12,2.12"/>
            <path class="cls-24" d="m248.65,55.64c-1.36,0-2.46-1.11-2.47-2.49,0-1.38,1.1-2.5,2.46-2.51h.01c1.35,0,2.46,1.11,2.47,2.48h-.73c0-.96-.79-1.75-1.74-1.75h-.01c-.96,0-1.73.8-1.73,1.77,0,.97.78,1.76,1.74,1.76h0c.96,0,1.73-.79,1.73-1.77h.73c0,1.37-1.11,2.49-2.46,2.5h0Z"/>
          </g>
          <path class="cls-6" d="m247.67,54.23s1.7-.03,1.87-.72c.17-.69-.12-1.58-.12-1.58,0,0,.81.89.58,1.58-.23.69-.46.87-1.04,1.01-.39.09-.98-.06-1.3-.29Z"/>
        </g>
        <g>
          <g>
            <path class="cls-18" d="m245.76,50.79c0,1.18-.94,2.13-2.1,2.13-1.16,0-2.1-.95-2.11-2.12,0-1.18.93-2.13,2.09-2.14,1.16,0,2.11.94,2.12,2.12"/>
            <path class="cls-24" d="m243.66,53.29c-1.35,0-2.46-1.11-2.47-2.49,0-1.37,1.1-2.5,2.45-2.51h.01c1.35,0,2.46,1.11,2.47,2.48h-.73c0-.96-.79-1.75-1.74-1.75h-.01c-.96,0-1.73.8-1.73,1.77,0,.97.78,1.76,1.74,1.76h0c.96,0,1.73-.79,1.73-1.77h.73c0,1.38-1.11,2.5-2.46,2.5h0Z"/>
          </g>
          <path class="cls-6" d="m242.68,51.88s1.7-.03,1.87-.72c.17-.69-.12-1.58-.12-1.58,0,0,.81.89.58,1.58-.23.69-.46.87-1.04,1.01-.39.09-.98-.06-1.3-.29Z"/>
        </g>
        <g>
          <g>
            <path class="cls-18" d="m240.03,49.54c0,1.18-.94,2.13-2.1,2.13-1.16,0-2.1-.95-2.11-2.12,0-1.18.93-2.13,2.09-2.14,1.16,0,2.11.94,2.12,2.12"/>
            <path class="cls-24" d="m237.93,52.04c-1.35,0-2.46-1.11-2.47-2.49,0-1.37,1.1-2.5,2.45-2.51h.01c1.35,0,2.46,1.11,2.47,2.48h-.73c0-.97-.77-1.79-1.75-1.75-.96,0-1.73.8-1.73,1.77,0,.97.78,1.76,1.74,1.76h0c.96,0,1.73-.79,1.73-1.77h.73c0,1.38-1.11,2.5-2.46,2.5h0Z"/>
          </g>
          <path class="cls-6" d="m236.95,50.63s1.7-.03,1.87-.72c.17-.69-.12-1.58-.12-1.58,0,0,.81.89.58,1.58-.23.69-.46.87-1.04,1.01-.39.09-.98-.06-1.3-.29Z"/>
        </g>
        <g>
          <g>
            <path class="cls-18" d="m233.27,51.16c0,1.18-.94,2.13-2.1,2.13-1.16,0-2.1-.95-2.11-2.12,0-1.18.93-2.13,2.09-2.14,1.16,0,2.11.94,2.12,2.12"/>
            <path class="cls-24" d="m231.17,53.65c-1.36,0-2.46-1.11-2.47-2.49,0-1.38,1.1-2.5,2.46-2.51h.01c1.35,0,2.46,1.11,2.47,2.48h-.73c0-.97-.83-1.77-1.75-1.75-.96,0-1.73.8-1.73,1.77,0,.97.78,1.76,1.74,1.76h0c.96,0,1.73-.79,1.73-1.77h.73c0,1.37-1.11,2.49-2.46,2.5h0Z"/>
          </g>
          <path class="cls-6" d="m230.19,52.25s1.7-.03,1.87-.72c.17-.69-.12-1.58-.12-1.58,0,0,.81.89.58,1.58-.23.69-.46.87-1.04,1.01-.39.09-.98-.06-1.3-.29Z"/>
        </g>
        <g>
          <g>
            <path class="cls-18" d="m228.5,55.93c0,1.18-.94,2.13-2.1,2.13-1.16,0-2.1-.95-2.11-2.12,0-1.18.93-2.13,2.09-2.14,1.16,0,2.11.94,2.12,2.12"/>
            <path class="cls-24" d="m226.4,58.43c-1.36,0-2.46-1.11-2.47-2.49,0-1.38,1.1-2.5,2.46-2.51,1.36,0,2.47,1.1,2.48,2.48h-.73c0-.97-.83-1.76-1.75-1.75-.96,0-1.73.8-1.73,1.77,0,.97.78,1.76,1.74,1.76h0c.96,0,1.73-.79,1.73-1.77h.73c0,1.37-1.11,2.49-2.46,2.5h0Z"/>
          </g>
          <path class="cls-6" d="m225.42,57.02s1.7-.03,1.87-.72c.17-.69-.12-1.58-.12-1.58,0,0,.81.89.58,1.58-.23.69-.46.87-1.04,1.01-.39.09-.98-.06-1.3-.29Z"/>
        </g>
        <g>
          <g>
            <path class="cls-18" d="m226.52,62.61c0,1.18-.94,2.13-2.1,2.13-1.16,0-2.1-.95-2.11-2.12,0-1.18.93-2.13,2.09-2.14,1.16,0,2.11.94,2.12,2.12"/>
            <path class="cls-24" d="m224.41,65.11c-1.36,0-2.46-1.11-2.47-2.49,0-1.38,1.1-2.5,2.46-2.51h.01c1.35,0,2.46,1.11,2.47,2.48h-.73c0-.97-.76-1.76-1.75-1.75-.96,0-1.73.8-1.73,1.77,0,.97.78,1.76,1.74,1.76h0c.96,0,1.73-.79,1.73-1.77h.73c0,1.37-1.11,2.49-2.46,2.5h0Z"/>
          </g>
          <path class="cls-6" d="m223.43,63.71s1.7-.03,1.87-.72c.17-.69-.12-1.58-.12-1.58,0,0,.81.89.58,1.58-.23.69-.46.87-1.04,1.01-.39.09-.98-.06-1.3-.29Z"/>
        </g>
        <g>
          <g>
            <path class="cls-18" d="m227.4,69.59c0,1.18-.94,2.13-2.1,2.13-1.16,0-2.1-.95-2.11-2.12,0-1.18.93-2.13,2.09-2.14,1.16,0,2.11.94,2.12,2.12"/>
            <path class="cls-24" d="m225.29,72.09c-1.36,0-2.46-1.12-2.47-2.49,0-1.37,1.1-2.5,2.46-2.51h.01c1.35,0,2.46,1.11,2.47,2.48h-.73c0-.97-.82-1.78-1.75-1.75-.96,0-1.73.8-1.73,1.77,0,.97.78,1.76,1.74,1.76h0c.96,0,1.73-.79,1.73-1.77h.73c0,1.37-1.11,2.49-2.46,2.5h0Z"/>
          </g>
          <path class="cls-6" d="m224.32,70.68s1.7-.03,1.87-.72c.17-.69-.12-1.58-.12-1.58,0,0,.81.89.58,1.58-.23.69-.46.87-1.04,1.01-.39.09-.98-.06-1.3-.29Z"/>
        </g>
        <g>
          <g>
            <path class="cls-18" d="m230.63,75.91c0,1.18-.94,2.13-2.1,2.13-1.16,0-2.1-.95-2.11-2.12,0-1.18.93-2.13,2.09-2.14,1.16,0,2.11.94,2.12,2.12"/>
            <path class="cls-24" d="m228.53,78.4c-1.36,0-2.46-1.11-2.47-2.49,0-1.37,1.1-2.5,2.45-2.51,1.34-.02,2.47,1.1,2.48,2.48h-.73c0-.96-.79-1.75-1.74-1.75h-.01c-.96,0-1.73.8-1.73,1.77,0,.97.78,1.76,1.74,1.76h0c.96,0,1.73-.79,1.73-1.77h.73c0,1.37-1.11,2.49-2.46,2.5h0Z"/>
          </g>
          <path class="cls-6" d="m227.55,77s1.7-.03,1.87-.72c.17-.69-.12-1.58-.12-1.58,0,0,.81.89.58,1.58-.23.69-.46.87-1.04,1.01-.39.09-.98-.06-1.3-.29Z"/>
        </g>
        <g>
          <g>
            <path class="cls-18" d="m234.28,83.86c.3,1.14-.02,2.21-.72,2.4-.7.19-1.52-.57-1.83-1.71-.31-1.13.01-2.21.71-2.41.7-.19,1.52.57,1.83,1.7"/>
            <path class="cls-24" d="m233.34,87.71c-.63,0-1.27-.27-1.81-.77-.53-.5-.95-1.22-1.16-2.02-.53-1.95.2-3.73,1.7-4.14.6-.17,1.25-.08,1.83.25.81.46,1.45,1.35,1.74,2.44l-2.55.69h0s2.55-.67,2.55-.67c.52,1.95-.22,3.73-1.72,4.13-.2.05-.39.08-.59.08Z"/>
          </g>
          <path class="cls-6" d="m232.7,85.42s1.02-.3.95-1c-.07-.7-.48-1.51-.48-1.51,0,0,.72.73.76,1.44.04.71-.05.91-.37,1.14-.21.15-.61.1-.86-.07Z"/>
        </g>
        <g>
          <g>
            <path class="cls-18" d="m288.61,84.27c-.28,1.14-1.08,1.93-1.79,1.75-.71-.17-1.05-1.24-.77-2.38.28-1.14,1.08-1.93,1.79-1.76.71.17,1.06,1.23.78,2.37"/>
            <path class="cls-24" d="m287.03,87.47c-.18,0-.36-.02-.55-.07-.82-.2-1.47-.84-1.77-1.76-.23-.7-.24-1.52-.05-2.33.48-1.96,1.98-3.17,3.49-2.81.6.14,1.13.54,1.48,1.1.49.8.62,1.88.35,2.98l-2.56-.62s0,0,0,.01l2.56.63c-.42,1.72-1.64,2.86-2.95,2.86Z"/>
          </g>
          <path class="cls-6" d="m286.47,84.87s1.04.23,1.31-.42c.27-.64.31-1.56.31-1.56,0,0,.28.99-.03,1.62-.31.64-.49.78-.87.82-.26.03-.58-.2-.72-.47Z"/>
        </g>
      </g>
      <g>
        <path class="cls-21" d="m257.95,43.63l.15,3.56s-4.22.37-4.39.76c-.82,1.84.98,4.32.98,4.32,0,0,1.42-1.06,5-1.06s5.15.83,5.15.83c0,0,.91-1.44.91-2.5s-.38-2.12-.38-2.12c0,0-1.74-.23-2.27-.23h-1.52l-.15-3.64-3.49.08h0Z"/>
        <path class="cls-9" d="m254.62,52.79l-.22-.3c-.08-.11-1.92-2.68-1.02-4.68.08-.18.25-.56,4.35-.94l-.15-3.59,4.22-.09.15,3.64h1.17c.55,0,2.25.22,2.32.23l.22.03.08.21s.4,1.13.4,2.25-.93,2.63-.97,2.7l-.17.27-.29-.14s-1.73-.8-5-.8-4.77.98-4.78.99l-.3.22Zm-.6-4.61c-.51,1.28.39,2.96.79,3.61.62-.33,2.15-.93,4.89-.93s4.34.5,5,.74c.25-.44.7-1.35.7-2.04s-.19-1.44-.29-1.79c-.58-.07-1.64-.2-2-.2h-1.87l-.15-3.63-2.75.06.15,3.54-.35.03c-1.71.15-3.71.42-4.12.61Z"/>
      </g>
      <g>
        <path class="cls-3" d="m263.97,49.16c0,.4-.34.72-.75.72-.42,0-.76-.32-.76-.72,0-.4.33-.72.75-.73.42,0,.76.32.76.72m1.74.39c0,.42-.35.76-.79.76-.43,0-.79-.34-.79-.75,0-.42.35-.76.78-.76.43,0,.79.33.79.75m-3.48-.41c0,.4-.34.72-.75.72-.42,0-.76-.32-.76-.72,0-.4.33-.72.75-.73.42,0,.76.32.76.72m-3.49.04c0,.42-.35.75-.79.75-.43,0-.79-.33-.79-.75,0-.42.35-.75.78-.76.43,0,.79.33.79.75m-1.94.14c0,.42-.35.75-.79.75-.43,0-.79-.33-.79-.75,0-.42.35-.76.78-.76.43,0,.79.33.79.75m3.56-2.17c0,.36-.3.64-.66.64-.36,0-.66-.27-.67-.63,0-.36.3-.64.66-.64.36,0,.66.27.67.63m0-2.95c0,.36-.3.64-.66.64-.36,0-.66-.27-.67-.63,0-.36.3-.64.66-.64.36,0,.66.27.67.63m0,1.6c0,.36-.3.64-.66.64-.36,0-.66-.27-.67-.63,0-.36.3-.64.66-.64.36,0,.66.27.67.63"/>
        <path class="cls-17" d="m264.93,50.49c-.48,0-.88-.34-.96-.78-.17.22-.44.36-.75.36-.4,0-.74-.24-.88-.58-.14.32-.48.55-.86.55-.52,0-.94-.41-.94-.91,0-.5.42-.91.94-.92h0c.4,0,.74.24.88.58.14-.32.47-.55.86-.55h0c.46,0,.84.32.93.74.18-.23.46-.38.78-.38h0c.54,0,.97.42.98.94h-.37c0-.31-.27-.56-.6-.56h0c-.33,0-.6.26-.6.57s.27.57.6.57c.33,0,.6-.26.6-.57h.37c0,.52-.44.94-.97.94Zm-1.71-1.87h0c-.31,0-.57.24-.57.54,0,.3.26.54.57.54.31,0,.57-.24.57-.54h.25s-.25,0-.25,0c0-.29-.26-.53-.57-.53Zm-1.74-.03h0c-.31,0-.57.25-.56.54,0,.3.26.54.57.54.31,0,.57-.24.57-.54h.23s0,0,0,0h-.23c0-.29-.26-.53-.57-.53Zm-5.46,1.65c-.54,0-.97-.42-.98-.94,0-.25.1-.49.28-.67.18-.18.42-.27.68-.28h0c.5,0,.91.37.97.83,0,0,0-.01,0-.02,0-.52.43-.94.97-.94h0c.53,0,.97.42.97.93h-.37c0-.31-.27-.56-.6-.56h0c-.33,0-.6.26-.6.57s.27.57.6.57c.33,0,.6-.26.6-.57h.37c0,.52-.44.94-.97.94-.5,0-.91-.37-.97-.84,0,0,0,.01,0,.02h-.37c0-.31-.27-.56-.6-.56,0,0,0,0,0,0-.16,0-.31.06-.43.17-.11.11-.17.25-.17.4,0,.31.27.56.6.56.33,0,.6-.26.6-.57h.37c0,.52-.44.94-.97.94Zm3.66-2.3c-.44,0-.82-.36-.83-.81,0-.29.15-.54.37-.69-.22-.15-.37-.39-.37-.68,0-.39.27-.71.62-.8-.35-.09-.61-.41-.62-.79,0-.46.38-.83.84-.83,0,0,.02,0,.03,0,.44,0,.82.36.83.81h-.3s.3.02.3.02c0,.38-.27.7-.62.79.35.09.61.41.62.79h-.28s.28.01.28.01c0,.28-.15.53-.37.68.22.15.36.39.37.67h-.29s.29.01.29.01c0,.45-.38.82-.84.82h-.04Zm.02-1.27c-.26,0-.47.2-.47.46,0,.24.21.44.46.44,0,0,.01,0,.02,0,.26,0,.46-.2.47-.45,0-.25-.21-.45-.46-.45,0,0-.01,0-.02,0Zm0-1.36c-.26,0-.47.2-.47.46,0,.24.21.44.46.44,0,0,.01,0,.02,0,.26,0,.46-.2.47-.45,0-.25-.21-.45-.46-.45,0,0-.01,0-.02,0Zm0-1.59c-.26,0-.47.2-.47.46,0,.25.23.43.47.44.27,0,.47-.2.48-.45,0-.25-.21-.45-.46-.45,0,0-.01,0-.02,0Z"/>
      </g>
      <g>
        <path class="cls-3" d="m254.83,49.83c0,.4-.34.73-.76.73-.42,0-.76-.32-.76-.72,0-.4.34-.73.75-.73.42,0,.76.32.76.72"/>
        <path class="cls-17" d="m254.08,50.74c-.52,0-.94-.41-.95-.91,0-.24.1-.48.28-.65.18-.17.41-.27.66-.27h0c.52,0,.94.41.95.91h-.37c0-.29-.26-.53-.57-.53h0c-.15,0-.3.06-.41.16-.11.1-.16.24-.16.38,0,.3.26.54.57.54.31,0,.57-.24.57-.54h.37c0,.5-.42.91-.94.91Z"/>
      </g>
      <g>
        <path class="cls-10" d="m260.53,48.97c0,.44-.37.79-.83.8-.46,0-.83-.35-.83-.79,0-.44.37-.8.83-.8.46,0,.83.35.84.79"/>
        <path class="cls-12" d="m259.7,49.96c-.56,0-1.02-.44-1.02-.98,0-.54.45-.98,1.01-.99h0c.56,0,1.02.44,1.02.98h-.37c0-.33-.29-.6-.65-.6h0c-.36,0-.65.28-.64.61,0,.33.29.61.65.61.36,0,.65-.27.65-.61h.37c0,.54-.46.98-1.02.98Z"/>
      </g>
      <g>
        <g>
          <path class="cls-18" d="m261.29,38.41c0,.87-.69,1.58-1.55,1.58-.86,0-1.56-.7-1.56-1.57,0-.87.69-1.58,1.55-1.58.86,0,1.56.7,1.57,1.57"/>
          <path class="cls-24" d="m259.73,40.35c-1.06,0-1.92-.87-1.92-1.94,0-1.07.85-1.94,1.91-1.95h.01c1.05,0,1.91.86,1.92,1.93h-.73c0-.66-.54-1.2-1.19-1.2h0c-.66,0-1.19.55-1.18,1.22,0,.67.54,1.21,1.19,1.21h0c.66,0,1.19-.54,1.19-1.21h.73c0,1.07-.86,1.94-1.92,1.94h0Z"/>
        </g>
        <path class="cls-6" d="m259.01,39.22s1.26-.02,1.39-.53-.09-1.17-.09-1.17c0,0,.6.66.43,1.17-.17.51-.34.64-.77.75-.29.07-.72-.04-.96-.21Z"/>
      </g>
      <g>
        <path class="cls-20" d="m234.98,91.33s1.39,1.3,1.76,2.45c.37,1.16.92,4.26.92,4.26,0,0,14.54-4.03,21.67-3.7,7.13.32,23.56,3.93,23.56,3.93,0,0,.28-1.76.6-3.61.32-1.85,1.67-3.89,1.67-3.89,0,0-15.69-4.91-25.6-4.44s-14.86,1.53-17.08,2.22c-2.22.69-7.64,2.82-7.5,2.78h0Z"/>
        <path class="cls-9" d="m283.03,98.48l-.17-.04c-.16-.04-16.5-3.61-23.54-3.93-7.04-.32-21.47,3.66-21.62,3.7l-.17.05-.03-.18s-.56-3.1-.92-4.24c-.32-1-1.45-2.13-1.68-2.35l-.11-.1.02-.09s.05-.05.12-.09v-.03s.08,0,.08,0c1.2-.59,7.34-2.75,7.41-2.77,2.01-.63,6.91-1.75,17.12-2.23,9.82-.46,25.5,4.4,25.66,4.45l.21.06-.12.18s-1.33,2.03-1.64,3.83c-.32,1.83-.6,3.59-.6,3.61l-.03.17Zm-24.54-4.31c.29,0,.58,0,.85.02,6.68.3,21.66,3.52,23.42,3.9.08-.49.31-1.94.58-3.44.27-1.56,1.24-3.22,1.58-3.77-1.87-.57-16.19-4.81-25.34-4.37-10.18.48-15.05,1.59-17.04,2.22-1.91.6-6.22,2.27-7.26,2.68.4.4,1.32,1.4,1.62,2.35.32,1.01.77,3.43.9,4.11,1.6-.43,13.82-3.68,20.69-3.68Z"/>
      </g>
      <g>
        <path class="cls-20" d="m256.66,32.53h6.25s-1.54,1.07-1.86,2.08c-.27.88-.19,2.31-.19,2.31,0,0,1.7,0,2.46-.64s2.35-1.78,2.35-1.78v7.96s-1.54-1.48-2.46-1.97c-.71-.36-1.46-.63-2.24-.8,0,0,0,1.29.53,2.05s2.65,3.64,2.65,3.64l-8.94.34s2.12-2.24,2.99-3.86c.57-1.06.34-2.16.34-2.16,0,0-1.52,0-2.27.53-.76.53-2.08,2.12-2.08,2.12v-7.65s.57,1.48,1.82,2.05c1.25.57,2.42.26,2.42.26,0,0,.24-1.52-.27-2.46-.52-.97-1.63-2.05-1.52-2.01Z"/>
        <path class="cls-9" d="m254.34,46.12l.62-.65s2.1-2.22,2.94-3.79c.33-.61.36-1.25.34-1.61-.51.04-1.31.15-1.74.45-.71.5-2,2.04-2.01,2.06l-.65.78v-8.66l.71-.13s.54,1.35,1.63,1.85c.8.36,1.57.33,1.94.29.04-.44.07-1.37-.25-1.98-.33-.61-.92-1.29-1.24-1.65-.28-.32-.43-.49-.26-.73l.15-.23.22.07h7.36l-.96.67c-.4.28-1.49,1.16-1.71,1.89-.17.55-.19,1.36-.18,1.82.56-.04,1.44-.18,1.87-.54.76-.65,2.31-1.75,2.37-1.8l.58-.41v9.53l-.62-.6s-1.51-1.45-2.38-1.91c-.53-.27-1.09-.49-1.67-.65.05.4.16.98.43,1.36.53.76,2.65,3.63,2.65,3.63l.41.56-10.53.4Zm4.22-6.79h.3l.06.29c.01.05.25,1.24-.38,2.41-.6,1.12-1.75,2.5-2.46,3.29l7.38-.28c-.65-.88-1.86-2.54-2.25-3.09-.59-.84-.6-2.2-.6-2.26v-.45l.44.09c.81.17,1.59.45,2.33.83.59.31,1.39.97,1.93,1.46v-6.41c-.53.39-1.3.96-1.75,1.34-.84.71-2.51.73-2.7.73h-.35l-.02-.35c0-.06-.08-1.51.21-2.44.18-.59.71-1.18,1.18-1.61h-4.45c.34.4.78.94,1.06,1.47.56,1.04.31,2.63.3,2.69l-.04.24-.23.06c-.05.01-1.32.33-2.67-.29-.55-.25-.98-.66-1.3-1.05v5.35c.46-.51,1.07-1.14,1.51-1.45.84-.59,2.42-.6,2.48-.6Z"/>
      </g>
      <g>
        <path class="cls-20" d="m256.17,57.78s-4.45-.05-8.25-2.3c-3.8-2.25-7.64-4.61-13.29-3.27-1.16.27-5.41,2.14-7.29,8.2-1.32,4.25.21,9.38,1.55,11.68,1.34,2.31,3.5,4.64,3.5,4.64l2.3-1.56s-5.85-4.96-5.15-11.39,3.91-7.93,3.91-7.93c0,0,3.96-3.11,9.27-.16,5.31,2.95,10.5,4.29,10.5,4.29,0,0,4.88,1.18,5.3,1.13s-2.46-3.38-2.36-3.32h0Z"/>
        <path class="cls-17" d="m232.34,77.21l-.21-.23c-.09-.1-2.2-2.39-3.55-4.7-1.34-2.3-2.95-7.58-1.59-11.97,2.2-7.1,7.5-8.44,7.55-8.45,5.69-1.35,9.58.96,13.35,3.19l.21.12c3.25,1.92,7.03,2.21,7.89,2.25l.07-.09.27.13-.06.27.21-.13c.04.06.2.25.41.51,2,2.44,2.14,2.79,2.01,3.1l-.08.2-.25.05c-.44.06-3.95-.77-5.44-1.13-.06-.02-5.31-1.39-10.6-4.32-5.02-2.79-8.71.01-8.87.13-.1.06-3.11,1.57-3.77,7.68-.67,6.16,4.97,11.02,5.03,11.07l.37.31-2.96,2Zm5.48-25.02c-.98,0-2.01.12-3.11.38-.05.01-4.95,1.24-7.02,7.95-1.29,4.17.25,9.2,1.52,11.39,1.06,1.83,2.67,3.7,3.24,4.34l1.65-1.12c-1.29-1.22-5.54-5.7-4.93-11.39.71-6.56,3.98-8.16,4.12-8.22h0s4.16-3.18,9.6-.15c5.2,2.89,10.37,4.24,10.42,4.25,1.53.37,3.65.86,4.65,1.04-.42-.61-1.26-1.64-1.64-2.09-.15-.18-.26-.32-.35-.43-.9-.04-4.8-.31-8.25-2.35l-.21-.12c-2.9-1.72-5.88-3.48-9.7-3.48Z"/>
      </g>
      <g>
        <path class="cls-20" d="m231.57,81.9l-2.36-4.64,7.09-2.77s-1.71,2.28-2.12,3.91c-.5,1.99-.33,3.67-.33,3.67,0,0,.65-.49,1.47-1.79.62-.99,1.63-4.56,1.63-4.56l3.18,10.19s-1.63-1.63-2.8-1.83c-1.31-.22-2.9.2-2.9.2l-1.87.57-.98-2.93h0Z"/>
        <path class="cls-9" d="m240.13,86.41l-.27-.26c-.74-.72-1.86-1.6-2.59-1.72-1.21-.2-2.73.19-2.75.19l-2.21.67-1.08-3.25-2.54-4.99,8.7-3.4-.79,1.05s-1.67,2.24-2.06,3.78c-.26,1.06-.33,2.04-.34,2.69.23-.27.5-.63.8-1.11.48-.77,1.31-3.49,1.59-4.47l.34-1.21,3.62,11.61-.43.41Zm-3.64-2.79c.3,0,.61.02.91.07.64.11,1.39.59,1.99,1.05l-2.42-7.75c-.36,1.15-.91,2.82-1.32,3.48-.84,1.35-1.53,1.87-1.56,1.89l-.53.4-.07-.66c0-.07-.17-1.77.33-3.8.25-.99.94-2.19,1.48-3.03l-5.56,2.17,2.2,4.33.86,2.59,1.52-.46c.06-.02,1.07-.28,2.17-.28Z"/>
      </g>
      <g>
        <path class="cls-20" d="m264.19,57.7s4.45-.05,8.25-2.31c3.8-2.25,7.64-4.61,13.29-3.27,1.16.28,5.41,2.14,7.29,8.2,1.32,4.25-.21,9.38-1.55,11.68-1.34,2.3-2.25,3.66-2.25,3.66l-2.76-.99s5.07-4.54,4.37-10.97c-.7-6.43-3.91-7.93-3.91-7.93,0,0-3.97-3.11-9.27-.16-5.3,2.95-10.5,4.29-10.5,4.29,0,0-4.88,1.18-5.3,1.12-.43-.05,2.46-3.38,2.36-3.32h0Z"/>
        <path class="cls-17" d="m289.36,76.11l-3.61-1.3.46-.41s4.92-4.5,4.25-10.66c-.67-6.15-3.67-7.62-3.7-7.64-.22-.16-3.92-2.96-8.94-.17-5.29,2.94-10.54,4.31-10.59,4.32-1.49.36-5,1.19-5.44,1.13l-.21-.03-.12-.23c-.13-.32.02-.67,2.01-3.1.21-.26.37-.45.41-.51l.22.15-.07-.29.26-.13.07.09c.85-.04,4.64-.32,7.89-2.25l.21-.12c3.77-2.23,7.66-4.53,13.35-3.19.05.01,5.35,1.35,7.55,8.45,1.36,4.39-.25,9.68-1.59,11.97-1.33,2.29-2.25,3.67-2.26,3.68l-.16.24Zm-2.23-1.58l1.94.7c.31-.48,1.08-1.68,2.08-3.4,1.27-2.19,2.81-7.22,1.52-11.39-2.08-6.71-6.97-7.94-7.02-7.95-5.4-1.28-9.17.95-12.81,3.1l-.21.12c-3.45,2.04-7.35,2.31-8.25,2.35-.08.11-.2.25-.34.42-.37.46-1.22,1.49-1.64,2.1.99-.18,3.12-.67,4.66-1.04.05-.01,5.21-1.36,10.41-4.25,5.45-3.03,9.63.16,9.67.19.07.02,3.34,1.62,4.05,8.18.59,5.49-2.82,9.58-4.06,10.87Z"/>
      </g>
      <g>
        <path class="cls-27" d="m261.89,53.29h1.86v17.32h-1.86v-17.32Zm-6.25-.08h2.2v17.32h-2.2v-17.32Z"/>
        <path class="cls-17" d="m263.75,70.98h-1.86c-.2,0-.37-.16-.37-.37v-17.32c0-.2.16-.37.37-.37h1.86c.2,0,.37.16.37.37v17.32c0,.2-.16.37-.37.37Zm-1.49-.73h1.13v-16.59h-1.13v16.59Zm-4.42.66h-2.2c-.2,0-.37-.16-.37-.37v-17.32c0-.2.16-.37.37-.37h2.2c.2,0,.37.16.37.37v17.32c0,.2-.16.37-.37.37Zm-1.83-.73h1.47v-16.59h-1.47v16.59Z"/>
      </g>
      <g>
        <path class="cls-27" d="m265.76,49.2c0,3.07-2.71,5.56-6.05,5.57-3.34,0-6.06-2.47-6.08-5.55-.01-3.07,2.68-5.57,6.03-5.59,3.34-.02,6.07,2.45,6.1,5.53"/>
        <path class="cls-17" d="m259.69,55.14c-3.53,0-6.41-2.65-6.43-5.91-.01-3.27,2.85-5.94,6.39-5.96h.04c3.52,0,6.4,2.63,6.43,5.89h-.73c-.02-2.85-2.58-5.16-5.69-5.16-.01,0-.02,0-.04,0-3.13.02-5.68,2.36-5.66,5.23.01,2.86,2.57,5.18,5.7,5.18h.01c3.14,0,5.69-2.34,5.69-5.2h.73c0,3.27-2.88,5.93-6.42,5.94h-.01Z"/>
      </g>
      <g>
        <path class="cls-20" d="m254.32,70.47l10.43-.09s-1.22.73-2.27,2.6-.9,3.05-.9,3.05c0,0,1.59-.02,2.7-.84,1.11-.82,2.36-2.34,2.36-2.34l-.04,9.61s-.75-1.22-1.99-1.95c-1.24-.73-3-.73-3-.73h-3.56s-1.63.1-2.36.58c-1.03.68-2.32,2-2.32,2l-.17-9.08s.52,1.59,2.19,2.23c1.67.64,2.62.56,2.62.56,0,0,0-2.04-.86-3.09-.86-1.05-2.81-2.47-2.81-2.51h0Z"/>
        <path class="cls-9" d="m266.89,83.54l-.57-.92s-.73-1.17-1.89-1.85c-1.15-.68-2.83-.69-2.85-.69h-3.56c-.41.03-1.65.17-2.19.53-.99.65-2.25,1.94-2.27,1.95l-.52.53-.18-9.81.6-.1s.5,1.46,2,2.04c1.05.4,1.8.51,2.18.53-.04-.59-.19-1.86-.77-2.58-.62-.76-1.84-1.72-2.43-2.19-.42-.34-.45-.36-.45-.52v-.31l11.86-.1-.97.58s-1.17.72-2.16,2.48c-.68,1.21-.83,2.12-.86,2.56.49-.05,1.48-.22,2.21-.76,1.07-.78,2.29-2.27,2.3-2.28l.55-.68-.05,11.57Zm-13.38-9.05l.13,7.14c.48-.45,1.21-1.11,1.85-1.53.79-.52,2.44-.63,2.51-.63h3.58c.08,0,1.86,0,3.16.77.65.38,1.17.89,1.53,1.3l.04-7.86c-.47.52-1.19,1.26-1.86,1.75-1.18.86-2.81.9-2.88.9h-.28s-.03-.27-.03-.27c0-.05-.15-1.3.94-3.24.57-1.01,1.18-1.7,1.65-2.13l-8.66.07c.66.53,1.63,1.33,2.18,2.01.92,1.12.93,3.2.93,3.29v.28l-.28.03s-1.03.08-2.76-.58c-.81-.31-1.37-.83-1.74-1.3Z"/>
      </g>
      <g>
        <path class="cls-7" d="m260.13,78.01s1.52,3.56,3.3,5.13c1.03.92,4.14,1.6,5.54,1.25,3.15-.81,5.32-3.33,5.32-3.33,0,0-.11,2.76,1.86,4.29,1.97,1.52,3.55,1.92,5.19,1.47,1.64-.45,6.26-3.89,6.26-3.89l.96.85s-2.65,2.58-5.44,3.94c-1.44.7-5.79.31-7.2-.82-1.41-1.13-2.25-3.86-2.25-3.86,0,0-.87,1.76-2.73,2.38-1.86.62-4.42.59-6.8-.1-1.6-.47-3.68-2.67-4.07-3.41-.39-.73-.28-1.13-.28-1.13,0,0-1.17,3.36-3.61,4.27-2.3.86-4.93.87-7.16.23-2.26-.65-2.43-1.91-2.43-1.91,0,0-.17,3.56-5.08,4.57-4.91,1.02-8.8-2.59-8.8-2.59l.68-1.02s2.76,3.1,7,2.82c4.23-.28,5.64-5.7,5.64-5.7,0,0,1.86,2.82,6.83,2.88,4.96.06,6.38-6.43,6.38-6.43l.9.11h0Z"/>
        <path class="cls-9" d="m239.72,88.42c-4.08,0-7.07-2.72-7.22-2.85l-.18-.17,1.03-1.54.25.28s2.72,2.99,6.76,2.72c3.97-.26,5.36-5.43,5.38-5.48l.17-.63.36.54s1.85,2.69,6.59,2.75c.02,0,.04,0,.06,0,4.62,0,6.01-6.14,6.03-6.2l.06-.26,1.34.17.07.15s1.52,3.52,3.22,5.03c.95.84,3.96,1.52,5.27,1.18,3.02-.77,5.15-3.21,5.17-3.24l.55-.64-.03.84s-.08,2.63,1.75,4.04c1.86,1.43,3.33,1.86,4.93,1.42,1.56-.43,6.12-3.81,6.17-3.84l.19-.14,1.38,1.21-.23.22c-.11.11-2.72,2.62-5.52,4-1.49.73-6,.36-7.52-.85-1.06-.85-1.8-2.52-2.14-3.41-.43.6-1.26,1.54-2.56,1.98-1.94.65-4.55.61-6.97-.1-1.67-.49-3.82-2.76-4.25-3.55-.05-.1-.1-.19-.13-.27-.54,1.1-1.65,2.9-3.4,3.55-2.25.85-4.93.93-7.34.24-1.23-.35-1.89-.89-2.24-1.34-.38,1.18-1.56,3.26-5.13,4-.63.13-1.25.19-1.84.19Zm-6.63-3.12c.83.68,4.25,3.21,8.35,2.36,4.61-.95,4.84-4.16,4.84-4.3l.58-.02s.21,1.09,2.22,1.67c2.3.66,4.84.58,6.98-.22,2.28-.86,3.43-4.06,3.44-4.1l.56.18h0s-.06.32.26.91c.35.65,2.35,2.81,3.89,3.26,2.31.68,4.79.71,6.62.1,1.72-.57,2.55-2.21,2.56-2.23l.33-.66.22.7s.83,2.66,2.15,3.72c1.33,1.06,5.6,1.42,6.89.78,2.25-1.1,4.43-3.03,5.14-3.67l-.54-.48c-.91.66-4.67,3.39-6.17,3.8-1.77.49-3.45.02-5.45-1.52-1.46-1.13-1.85-2.86-1.94-3.82-.82.8-2.62,2.31-4.99,2.92-1.51.38-4.71-.34-5.81-1.31-1.61-1.43-2.99-4.36-3.31-5.08l-.48-.06c-.34,1.23-2.03,6.4-6.53,6.4-.02,0-.04,0-.07,0-3.9-.04-5.94-1.73-6.71-2.56-.49,1.42-2.11,5.14-5.74,5.38-3.64.24-6.17-1.88-6.97-2.65l-.33.5Z"/>
      </g>
      <g>
        <g>
          <path class="cls-20" d="m247.89,80.08s.04-1.73.41-2.25c.53-.74,1.24-.77,1.61-.66.45.13.92.54.84,1.74-.08,1.2-.41,1.79-.05,2.25.36.46.41.77,1.1.66.69-.1,1-.33.84-.97-.15-.64-.36.05-.49-.49-.13-.54.67-2.85.54-4.29-.13-1.4-.66-2.53-1.74-2.81-1.01-.26-1.86-.26-2.81.43-.91.66-2.07,2.83-2.07,2.83l-.03,4.65,1.89-.1-.05-1h0Z"/>
          <path class="cls-9" d="m251.57,82.2c-.57,0-.78-.31-.99-.61-.05-.07-.1-.14-.16-.21-.33-.42-.25-.89-.15-1.47.05-.28.1-.61.13-1.02.05-.79-.15-1.25-.58-1.37-.07-.02-.72-.18-1.22.53-.21.29-.33,1.36-.34,2.03l.05.98-.34.38-1.89.1-.38-.36.07-4.81c.05-.09,1.21-2.25,2.17-2.96,1.16-.85,2.23-.72,3.11-.49,1.14.3,1.85,1.41,2,3.12.08.88-.16,2.02-.34,2.94-.09.45-.2.99-.21,1.22.06,0,.12.02.18.06.19.11.26.33.31.51.09.37.06.67-.1.9-.23.35-.68.45-1.04.5-.1.02-.2.02-.29.02Zm-1.99-5.43c.16,0,.3.02.43.06.45.13,1.2.57,1.1,2.1-.03.43-.09.79-.14,1.09-.09.51-.12.75.01.92.07.09.12.17.18.24.21.31.24.34.58.29.4-.06.51-.15.55-.2.04-.06.04-.17,0-.32-.06,0-.14-.02-.21-.06-.18-.1-.24-.29-.27-.44-.07-.29.02-.75.2-1.61.18-.87.4-1.96.33-2.73-.07-.81-.36-2.21-1.47-2.5-.88-.23-1.64-.25-2.51.38-.66.48-1.57,2-1.92,2.64l-.02,4.18,1.15-.06-.03-.65h0c0-.32.06-1.88.48-2.46.46-.64,1.06-.86,1.56-.86Z"/>
        </g>
        <g>
          <path class="cls-20" d="m244.37,81.33s-.72-1.57-1.27-1.9c-.78-.47-1.45-.21-1.74.03-.36.3-.63.86-.08,1.93.55,1.07,1.09,1.48.94,2.04-.14.56-.07.87-.74,1.05-.67.18-1.05.09-1.16-.55-.11-.65.35-.1.25-.64-.1-.54-1.75-2.35-2.2-3.72-.44-1.34-.4-2.58.47-3.27.82-.64,1.61-.98,2.75-.72,1.09.25,3.03,1.77,3.03,1.77l1.88,4.25-1.77.66s-.35-.93-.35-.93Z"/>
          <path class="cls-9" d="m240.97,84.92c-.19,0-.38-.04-.55-.14-.24-.15-.39-.41-.46-.79-.03-.18-.05-.41.08-.59.04-.06.09-.09.13-.12-.12-.26-.42-.69-.67-1.04-.54-.77-1.21-1.72-1.49-2.56-.54-1.64-.33-2.94.59-3.66.72-.57,1.65-1.1,3.05-.79,1.16.26,3.09,1.78,3.17,1.84l.11.14,1.88,4.25-.2.48-1.77.66-.46-.21-.35-.92c-.28-.61-.81-1.54-1.12-1.73-.74-.45-1.27-.04-1.33,0-.35.29-.35.79.01,1.49.18.36.37.64.52.88.32.5.58.89.45,1.41-.02.09-.04.18-.06.26-.08.41-.17.84-.94,1.05-.18.05-.39.09-.6.09Zm-.29-1.05c.03.16.08.26.13.3.05.03.19.07.58-.04.34-.09.35-.14.42-.5.02-.09.04-.19.07-.29.05-.21-.07-.41-.35-.84-.17-.25-.36-.56-.56-.94-.7-1.37-.19-2.07.17-2.37.44-.36,1.27-.59,2.15-.06.61.37,1.28,1.78,1.41,2.06v.02s.23.6.23.6l1.08-.4-1.69-3.82c-.58-.45-2.02-1.47-2.81-1.65-1.04-.24-1.73.09-2.45.65-.9.71-.61,2.1-.35,2.87.24.73.88,1.64,1.39,2.37.5.72.77,1.11.82,1.4.03.15.04.35-.08.51-.05.07-.11.11-.17.14Z"/>
        </g>
        <g>
          <path class="cls-20" d="m244.01,67.57s-1.84,3.09-1.43,5.46c.41,2.37,2.86,7.48,2.86,7.48l.03.69,1.32-.14-.3-.7s.66-6.11.26-8.04c-.3-1.43-2.71-4.72-2.73-4.75h0Zm2.94,14.15s.92,1.1,2.02,1.63c1.2.58,1.69.59,2.17.23.35-.26.23-1.38-.18-1.69s-.87-.15-.94.15c-.12.51-.29.48-.66.28-.55-.29-1.81-1.07-1.81-1.07,0,0-.59.46-.59.46Zm-1.42.25s-.39,1.38-1.17,2.32c-.85,1.03-1.3,1.23-1.89,1.1-.43-.1-.78-1.16-.53-1.61.25-.45.73-.5.92-.25.32.42.46.32.72-.02.38-.49,1.21-1.72,1.21-1.72l.72.18h0Z"/>
          <path class="cls-9" d="m242.77,85.78c-.12,0-.25-.02-.38-.05-.27-.06-.52-.31-.69-.69-.19-.43-.29-1.04-.07-1.44.19-.34.5-.55.84-.58.27-.02.53.09.68.29.03.04.05.06.07.09.02-.02.05-.06.08-.1.37-.47,1.19-1.69,1.2-1.7l.14-.21.97.24.26.44c-.02.06-.42,1.46-1.24,2.45-.75.9-1.27,1.27-1.86,1.27Zm-.19-2.03c-.12,0-.24.04-.33.2-.06.1-.06.37.05.67.09.27.21.4.25.42.35.08.66.05,1.52-.98.49-.59.82-1.38.98-1.83l-.11-.03c-.26.38-.8,1.16-1.09,1.53-.13.17-.33.43-.64.43h0c-.28,0-.48-.21-.64-.41Zm7.87.44c-.42,0-.94-.17-1.64-.51-1.15-.56-2.1-1.68-2.14-1.73l.06-.52-1.23.13-.4-.34-.02-.62c-.3-.64-2.47-5.23-2.86-7.51-.43-2.48,1.4-5.58,1.48-5.71l.56-.07s2.51,3.39,2.83,4.93c.39,1.85-.15,7.25-.24,8.06l.26.61-.22.38.61-.48.21.13s1.26.78,1.79,1.06c.05.03.09.05.12.06,0-.03.02-.06.03-.11.06-.25.25-.45.5-.54.32-.11.7-.05,1.01.18.36.27.53.87.53,1.35,0,.42-.12.74-.35.91-.28.21-.56.32-.9.32Zm-2.98-2.42c.33.34.96.93,1.65,1.27,1.21.59,1.51.48,1.8.27.02-.03.08-.2.06-.48-.03-.31-.14-.56-.23-.63-.1-.08-.22-.11-.31-.09-.13.29-.22.56-.48.68-.28.13-.57-.03-.77-.13-.42-.22-1.23-.72-1.62-.95l-.09.07Zm-3.42-13.52c-.48.94-1.41,3.05-1.12,4.73.4,2.3,2.8,7.34,2.83,7.39l.04.14v.31s.47-.05.47-.05l-.15-.34v-.09c.02-.06.66-6.08.27-7.93-.21-1.02-1.66-3.19-2.34-4.15Z"/>
        </g>
        <g>
          <path class="cls-27" d="m248.99,80.86c.07.4-1.15.94-2.72,1.21s-2.9.15-2.97-.25c-.07-.4,1.14-.94,2.71-1.21,1.57-.27,2.9-.16,2.98.24"/>
          <path class="cls-9" d="m244.67,82.57c-.81,0-1.62-.14-1.72-.69-.02-.11-.02-.28.11-.47.39-.56,1.8-.98,2.88-1.16.53-.09,3.19-.49,3.4.53l-.12.02h.12c.17,1.02-2.48,1.52-3.01,1.61-.25.04-.96.15-1.67.15Zm-.93-.83c.31.11,1.18.19,2.48-.03,1.35-.23,2.16-.61,2.38-.81-.23-.07-1.13-.18-2.52.06-1.28.22-2.08.57-2.33.78Z"/>
        </g>
      </g>
      <g>
        <g>
          <path class="cls-20" d="m276.01,80.78s.64-1.6,1.17-1.96c.75-.5,1.43-.28,1.74-.06.38.28.67.82.18,1.92-.49,1.1-1.01,1.53-.84,2.09.17.56.11.86.8,1.01.68.15,1.05.04,1.13-.61.08-.65-.35-.08-.28-.62.07-.55,1.62-2.44,2.01-3.83.37-1.36.26-2.6-.64-3.24-.85-.6-1.66-.89-2.78-.58-1.08.3-2.93,1.93-2.93,1.93l-1.65,4.34,1.81.57.3-.95h0Z"/>
          <path class="cls-9" d="m279.51,84.19c-.18,0-.36-.03-.53-.07-.78-.17-.89-.59-.99-1-.02-.08-.04-.16-.07-.25-.16-.51.08-.92.37-1.43.14-.25.31-.54.48-.91.32-.72.3-1.22-.06-1.48-.06-.04-.61-.42-1.33.07-.3.2-.78,1.16-1.03,1.78l-.3.94-.45.23-1.81-.57-.23-.47,1.75-4.48c.08-.07,1.93-1.69,3.07-2.01,1.38-.39,2.34.1,3.09.63.96.68,1.24,1.97.78,3.63-.23.85-.85,1.84-1.35,2.63-.24.39-.54.85-.62,1.07.05.02.1.06.15.12.14.17.13.4.11.58-.05.38-.18.65-.41.81-.19.13-.4.18-.62.18Zm-1.39-6.04c.41,0,.77.14,1.01.32.38.28.93.96.3,2.36-.18.4-.36.71-.51.97-.26.45-.37.66-.31.86.03.1.06.2.08.29.09.35.1.4.45.47.4.08.53.04.58,0,.05-.04.1-.15.12-.3-.06-.02-.12-.06-.18-.13-.13-.16-.12-.35-.1-.51.04-.3.28-.7.75-1.44.47-.75,1.06-1.69,1.27-2.44.21-.78.43-2.19-.5-2.85-.74-.52-1.45-.81-2.48-.53-.79.22-2.17,1.32-2.72,1.8l-1.49,3.9,1.1.35.2-.63c.11-.29.71-1.73,1.3-2.13.4-.27.79-.37,1.14-.37Z"/>
        </g>
        <g>
          <path class="cls-20" d="m272.28,80.72s-.13-1.72-.52-2.22c-.56-.71-1.28-.7-1.64-.58-.44.15-.89.58-.75,1.78.14,1.19.5,1.76.17,2.24-.33.48-.37.79-1.06.72-.69-.07-1.01-.28-.89-.93.12-.65.36.03.46-.51.1-.54-.81-2.81-.76-4.26.06-1.41.53-2.56,1.59-2.89.99-.32,1.85-.35,2.83.29.94.61,2.21,2.72,2.21,2.72l.27,4.64h-1.89s0-1,0-1h0Z"/>
          <path class="cls-9" d="m268.63,83.02c-.06,0-.13,0-.2-.01-.36-.03-.81-.12-1.06-.45-.17-.23-.22-.52-.15-.9.03-.18.1-.4.28-.52.06-.04.12-.06.17-.07-.02-.29-.15-.79-.26-1.21-.24-.91-.53-2.04-.5-2.92.07-1.72.72-2.87,1.84-3.22.87-.28,1.93-.46,3.13.33,1,.65,2.27,2.75,2.32,2.84l.05.16.27,4.64-.36.38h-1.89s-.36-.36-.36-.36v-.98c-.05-.67-.22-1.73-.45-2.01-.54-.68-1.17-.49-1.25-.46-.43.15-.6.61-.51,1.4.05.4.12.73.18,1.01.13.58.23,1.04-.08,1.48-.06.08-.1.15-.14.22-.2.32-.41.66-1.05.66Zm-.71-1.22c-.03.16-.02.27.02.32.03.05.15.13.56.17.35.04.38,0,.57-.32.05-.08.1-.16.16-.25.12-.17.08-.41-.04-.91-.07-.3-.14-.65-.19-1.08-.18-1.53.55-2.01.99-2.16.54-.18,1.4-.11,2.04.7.44.56.58,2.11.6,2.42v.03s0,.64,0,.64h1.15s-.24-4.17-.24-4.17c-.38-.62-1.37-2.09-2.06-2.53-.9-.59-1.66-.52-2.52-.25-1.09.35-1.31,1.76-1.34,2.57-.03.77.25,1.85.47,2.71.22.85.33,1.3.28,1.6-.03.15-.08.34-.25.45-.07.05-.14.07-.21.07Z"/>
        </g>
        <g>
          <path class="cls-20" d="m276.77,67.7s-2.81,2.25-3.26,4.62c-.45,2.37.05,8.01.05,8.01l-.22.65,1.29.33-.04-.76s2.76-5.49,3.06-7.44c.22-1.45-.88-5.37-.89-5.41h0Zm-2.21,14.28s.47,1.35,1.32,2.24c.92.97,1.38,1.14,1.95.98.42-.12.7-1.21.42-1.64s-.76-.45-.94-.19c-.3.44-.44.35-.72.03-.41-.46-1.32-1.64-1.32-1.64l-.71.22h0Zm-1.42-.27s-.85,1.16-1.91,1.76c-1.16.66-1.65.7-2.15.37-.37-.24-.32-1.36.07-1.69.39-.33.86-.21.95.09.16.5.32.46.68.24.53-.32,1.74-1.19,1.74-1.19l.62.42h0Z"/>
          <path class="cls-9" d="m277.46,85.61c-.56,0-1.08-.34-1.85-1.15-.88-.93-1.37-2.31-1.39-2.37l.24-.46-1.2-.31-.25-.46.19-.58c-.06-.71-.47-5.77-.04-8.03.47-2.47,3.26-4.73,3.38-4.83l.55.14s1.16,4.05.92,5.6c-.29,1.87-2.69,6.74-3.05,7.47l.03.67-.34.28.74-.23.15.2s.91,1.17,1.31,1.62c.04.04.07.07.09.1.02-.02.04-.05.06-.09.14-.21.41-.36.66-.33.34,0,.67.2.88.52.25.38.19,1,.02,1.44-.15.39-.38.65-.65.73-.16.05-.32.07-.47.07Zm-2.43-3.41c.19.44.57,1.21,1.1,1.77.93.98,1.24.98,1.59.88.03-.02.15-.15.22-.43.08-.31.06-.58,0-.67-.07-.11-.17-.18-.26-.19-.22.23-.41.45-.69.47-.3.02-.53-.23-.67-.39-.31-.35-.9-1.1-1.18-1.46l-.1.03Zm-1.22-1.48l.45.11-.02-.37.04-.08c.03-.05,2.74-5.47,3.03-7.34.16-1.02-.44-3.57-.73-4.71-.78.71-2.39,2.37-2.71,4.04-.44,2.29.05,7.85.06,7.91v.07s-.11.36-.11.36Zm-4.11,3.68c-.3,0-.56-.09-.82-.26-.24-.15-.38-.47-.41-.89-.03-.47.09-1.08.44-1.38.29-.25.66-.34.99-.25.26.08.46.27.54.51.01.04.03.08.04.1.03-.02.07-.04.11-.07.51-.31,1.71-1.17,1.72-1.17l.2-.14.82.56.09.51s-.9,1.23-2.02,1.86c-.74.42-1.26.62-1.7.62Zm-.08-2.08c-.1,0-.17.04-.24.1-.09.08-.19.34-.19.65,0,.28.06.45.09.48.3.19.6.28,1.77-.38.67-.38,1.25-1.01,1.56-1.37l-.09-.06c-.37.26-1.15.81-1.56,1.06-.18.11-.46.29-.75.18-.27-.1-.38-.38-.46-.61-.05-.02-.09-.02-.13-.02Z"/>
        </g>
        <g>
          <path class="cls-27" d="m276.79,81.91c-.08.4-1.41.48-2.97.18s-2.77-.87-2.7-1.28c.07-.4,1.4-.48,2.96-.18,1.56.3,2.77.87,2.71,1.27"/>
          <path class="cls-9" d="m275.58,82.63c-.76,0-1.55-.14-1.82-.19-.53-.1-3.16-.67-2.98-1.69.02-.11.08-.27.27-.4.57-.39,2.03-.28,3.11-.07.53.1,3.16.66,3,1.68l-.12-.02.12.04c-.1.51-.81.65-1.57.65Zm-4.02-1.74c.26.21,1.04.59,2.34.84,1.34.26,2.23.19,2.51.08-.19-.15-1-.56-2.39-.83-1.28-.25-2.14-.19-2.46-.09Z"/>
        </g>
      </g>
      <g>
        <path class="cls-28" d="m234.43,91.17s.3,1.28,1.03.61c.73-.67,10.77-4.62,24.94-4.62s23.48,3.89,24.03,4.14c.55.24.79.55,1.28,0,.49-.55-.49-1.4-.49-1.4,0,0-9.85-4.2-25.24-4.14-15.39.06-25.37,4.44-25.37,4.44,0,0-.67.49-.18.97h0Z"/>
        <path class="cls-9" d="m235.07,92.14c-.05,0-.1,0-.16-.02-.4-.12-.58-.69-.63-.86-.17-.19-.2-.38-.19-.51.03-.38.41-.67.43-.68.13-.06,10.21-4.41,25.46-4.47,15.24-.07,25.21,4.11,25.31,4.15l.04.03s.64.57.68,1.12c.01.19-.05.37-.18.51-.48.54-.83.36-1.2.17-.08-.04-.17-.09-.26-.13-.09-.04-9.46-4.12-23.96-4.12s-24.12,3.93-24.83,4.58c-.17.16-.34.24-.51.24Zm-.47-.99c.04.17.19.58.41.65.1.03.21-.02.35-.14.73-.67,10.84-4.67,25.05-4.67s24,4.11,24.09,4.15c.1.05.2.09.28.14.37.19.49.26.81-.1.07-.08.1-.17.09-.27-.02-.33-.38-.73-.55-.88-.55-.23-10.21-4.11-24.83-4.11-.11,0-.21,0-.32,0-15.18.06-25.2,4.38-25.3,4.43-.05.04-.25.23-.26.42,0,.1.03.19.13.29l.05.05v.05Z"/>
      </g>
      <path class="cls-8" d="m252.4,97.07s.45-1.26,1.24-1.5c.63-.19,1.62.43,1.62.43,0,0-1.2-.11-1.57.1-.34.19-.44.76-.44.76,0,0,.26-.46,1.17-.41.92.04,1.02.04,1.02.04,0,0-1.56.12-1.92.57-.36.45,1.47.65,1.47.65,0,0-2.8.01-3.17-.15s-.6-.74-1.23-.57c-.62.18-1.26.74-1.26.74,0,0,.71-1.2,1.16-1.21s.71-.03,1.12.15.78.39.78.39Zm-10.47,2.27s.21-1.32.94-1.7c.58-.31,1.67.12,1.67.12,0,0-1.2.11-1.53.39-.3.25-.29.83-.29.83,0,0,.17-.5,1.08-.62.91-.13,1.01-.15,1.01-.15,0,0-1.51.4-1.78.91-.27.51,1.57.37,1.57.37,0,0-2.75.53-3.14.43-.39-.1-.73-.62-1.31-.33-.58.29-1.11.96-1.11.96,0,0,.48-1.31.92-1.4.44-.09.7-.16,1.13-.06.43.11.84.24.84.24h0Zm19.3-2.73s.52-1.23,1.33-1.42c.64-.16,1.6.52,1.6.52,0,0-1.19-.18-1.58.01-.35.17-.48.74-.48.74,0,0,.28-.44,1.2-.34.92.1,1.02.1,1.02.1,0,0-1.56.03-1.95.45-.39.43,1.43.74,1.43.74,0,0-2.8-.15-3.15-.34-.36-.19-.56-.78-1.19-.64-.63.14-1.3.66-1.3.66,0,0,.78-1.15,1.23-1.14.45.02.71.01,1.11.22.39.21.76.43.76.43Zm8.84,1s.66-1.16,1.48-1.26c.65-.08,1.52.7,1.52.7,0,0-1.16-.32-1.57-.17-.37.13-.57.68-.57.68,0,0,.33-.4,1.23-.2.9.2,1,.22,1,.22,0,0-1.55-.15-1.99.22-.43.38,1.33.9,1.33.9,0,0-2.76-.47-3.09-.7-.33-.23-.46-.83-1.11-.77-.65.07-1.37.5-1.37.5,0,0,.91-1.06,1.35-.98.44.07.71.1,1.07.35s.7.52.7.52h0Zm8.78,1.57s.62-.88,1.29-.9c.53-.02,1.17.68,1.17.68,0,0-.91-.34-1.25-.25-.3.08-.51.5-.51.5,0,0,.3-.3,1-.07.71.23.79.25.79.25,0,0-1.24-.24-1.61.03-.38.27,1.01.82,1.01.82,0,0-2.18-.58-2.43-.79-.25-.21-.31-.71-.83-.7-.52,0-1.14.3-1.14.3,0,0,.81-.78,1.16-.69.35.09.56.13.84.36.28.23.52.47.52.47h0Z"/>
      <g>
        <path class="cls-11" d="m250.64,91.08c.21,1.05-1.02,2.18-2.75,2.53-1.73.35-3.3-.22-3.51-1.27-.21-1.05,1.02-2.18,2.75-2.52,1.73-.35,3.3.22,3.51,1.27h0Z"/>
        <path class="cls-9" d="m246.88,93.92c-.77,0-1.47-.18-1.98-.52-.4-.27-.66-.62-.74-1.03-.08-.4.02-.83.29-1.24.49-.74,1.47-1.31,2.63-1.54,1.16-.23,2.29-.08,3.03.41.4.27.66.62.74,1.03h0c.24,1.18-1.05,2.4-2.92,2.78-.36.07-.71.11-1.05.11Zm1.25-4c-.31,0-.63.03-.96.1-1.03.21-1.94.73-2.36,1.36-.2.31-.28.62-.22.91.06.29.25.55.55.75.63.42,1.67.56,2.7.35,1.58-.32,2.76-1.36,2.58-2.27h0c-.06-.29-.25-.55-.55-.75-.43-.29-1.06-.44-1.74-.44Z"/>
      </g>
      <path class="cls-5" d="m246.72,90.9c.05.25-.22.52-.6.6-.38.08-.73-.07-.78-.32-.05-.25.22-.52.6-.6.38-.08.73.07.78.32Z"/>
      <g>
        <path class="cls-11" d="m275.09,92.34c-.32,1.02-1.94,1.42-3.63.89-1.68-.53-2.79-1.78-2.47-2.8.32-1.02,1.94-1.42,3.63-.89,1.68.53,2.79,1.78,2.47,2.8Z"/>
        <path class="cls-9" d="m272.93,93.68c-.49,0-1.01-.08-1.53-.24-.85-.27-1.59-.72-2.08-1.28-.52-.59-.71-1.23-.53-1.79.36-1.15,2.07-1.6,3.9-1.03.85.27,1.59.72,2.08,1.28.52.59.71,1.23.53,1.79h0c-.18.57-.7.98-1.46,1.17-.28.07-.59.1-.91.1Zm-1.76-4.16c-.98,0-1.77.35-1.97.97-.13.42.02.91.44,1.38.44.5,1.11.91,1.89,1.15.78.24,1.56.29,2.21.13.61-.15,1.01-.46,1.15-.88h0c.13-.42-.02-.91-.44-1.38-.44-.5-1.11-.91-1.89-1.15-.48-.15-.95-.22-1.39-.22Z"/>
      </g>
      <path class="cls-5" d="m271.73,90.31c-.08.25-.44.35-.81.24-.37-.12-.61-.41-.53-.66.08-.25.44-.35.81-.24.37.12.61.41.53.66h0Z"/>
      <g>
        <path class="cls-13" d="m256.63,88.71h6.34v3.19h-6.34v-3.19Z"/>
        <path class="cls-9" d="m262.96,92.22h-6.34c-.17,0-.31-.14-.31-.31v-3.2c0-.17.14-.31.31-.31h6.34c.17,0,.31.14.31.31v3.2c0,.17-.14.31-.31.31Zm-6.03-.62h5.72v-2.58h-5.72v2.58Z"/>
      </g>
      <path class="cls-22" d="m259.3,89.39c0,.14-.27.26-.6.26s-.6-.12-.6-.26.27-.26.6-.26.6.12.6.26Z"/>
      <g>
        <path class="cls-16" d="m238.71,91.91l1.05,3.09-1.94,1.05s-.89.63-1.78.16c-.89-.47-1.42-1.88-.94-2.46.94-1.15,3.61-1.89,3.61-1.83h0Z"/>
        <path class="cls-9" d="m236.76,96.54c-.25,0-.52-.05-.79-.2-.65-.34-1.05-1.08-1.17-1.65-.09-.44-.03-.81.17-1.06.91-1.11,3.4-1.89,3.76-1.89.02,0,.03,0,.03,0l.11.04v.09s1.09,3.2,1.09,3.2l-2.06,1.11s-.51.35-1.14.35Zm1.85-4.45c-.53.13-2.61.81-3.38,1.75-.14.17-.17.45-.11.79.12.59.53,1.18,1,1.43.79.42,1.6-.14,1.61-.15l1.83-.99-.96-2.83Z"/>
      </g>
      <path class="cls-26" d="m237.09,94.11c0,.52-.4.94-.89.94s-.89-.42-.89-.94.4-.94.89-.94.89.42.89.94h0Z"/>
      <path class="cls-1" d="m236.25,93.74c.03.15,0,.31-.1.43-.08.1-.23.12-.34.06-.13-.08-.22-.22-.23-.38-.03-.15,0-.31.1-.43.09-.1.22-.12.34-.06.12.07.21.21.23.38h0Z"/>
      <g>
        <path class="cls-16" d="m281.17,92.31l-1.04,2.75,2.47,1.29s1.09.49,1.78-.12c.59-.52.72-1.71.25-2.32-.44-.57-3.49-1.63-3.46-1.61Z"/>
        <path class="cls-9" d="m283.5,96.7c-.5,0-.93-.19-.96-.2l-2.6-1.36,1.12-2.96.08-.02c.2-.06,3.23,1.15,3.63,1.67.52.66.38,1.97-.27,2.54-.3.26-.66.34-.99.34Zm-.82-.49s1,.43,1.6-.1c.53-.46.65-1.56.23-2.09-.34-.44-2.58-1.28-3.23-1.51l-.93,2.47,2.34,1.23h0Z"/>
      </g>
      <path class="cls-15" d="m284.13,94.52c0,.34-.35.61-.79.61s-.79-.27-.79-.61.35-.61.79-.61.79.27.79.61Z"/>
      <path class="cls-1" d="m283.37,94.43c0,.15-.06.3-.18.39-.11.08-.26.08-.37,0-.12-.09-.19-.24-.18-.39,0-.15.06-.3.18-.39.11-.08.26-.08.37,0,.12.09.19.24.18.39Z"/>
      <path class="cls-23" d="m265.34,88.99c0,.24-.2.43-.45.43s-.45-.19-.45-.43c0-.24.2-.43.45-.43s.45.19.45.43Z"/>
      <path class="cls-23" d="m268.04,89.14c0,.24-.2.43-.45.43s-.45-.19-.45-.43c0-.24.2-.43.45-.43s.45.19.45.43Z"/>
      <path class="cls-23" d="m266.67,90.19c0,.3-.25.54-.56.54s-.56-.24-.56-.54c0-.3.25-.54.56-.54s.56.24.56.54Z"/>
      <path class="cls-23" d="m267.97,91.95c0,.24-.2.43-.45.43s-.45-.19-.45-.43c0-.24.2-.43.45-.43s.45.19.45.43Z"/>
      <path class="cls-23" d="m265.37,91.61c0,.24-.2.43-.45.43s-.45-.19-.45-.43c0-.24.2-.43.45-.43s.45.19.45.43Z"/>
      <path class="cls-23" d="m252.32,89.45c.05.23-.1.46-.34.52s-.48-.09-.53-.31c-.05-.23.1-.46.34-.52s.48.09.53.31Z"/>
      <path class="cls-23" d="m254.98,88.99c.05.23-.1.46-.34.52s-.48-.09-.53-.31c-.05-.23.1-.46.34-.52s.48.09.53.31Z"/>
      <path class="cls-23" d="m253.9,90.32c.07.29-.12.58-.43.65s-.6-.11-.67-.4c-.07-.29.12-.58.43-.65s.6.11.67.39Z"/>
      <path class="cls-23" d="m255.55,91.74c.05.23-.1.46-.34.52s-.48-.09-.53-.31c-.05-.23.1-.46.34-.52s.48.09.53.31Z"/>
      <path class="cls-23" d="m252.94,92c.05.23-.1.46-.34.52s-.48-.09-.53-.31c-.05-.23.1-.46.34-.52s.48.09.53.31Z"/>
      <g>
        <path class="cls-23" d="m240.96,91.9c.09.22-.03.47-.26.56s-.49-.02-.57-.24c-.09-.22.03-.47.26-.56s.49.02.57.24Z"/>
        <path class="cls-23" d="m243.53,91.07c.09.22-.03.47-.26.56s-.49-.02-.57-.24c-.09-.22.03-.47.26-.56s.49.02.57.24Z"/>
        <path class="cls-23" d="m242.64,92.54c.11.28-.04.59-.33.7s-.61-.02-.72-.3c-.11-.28.04-.59.33-.7s.61.02.72.3Z"/>
        <path class="cls-23" d="m244.48,93.71c.09.22-.03.47-.26.56s-.49-.02-.57-.24c-.09-.22.03-.47.26-.56s.49.02.57.24Z"/>
        <path class="cls-23" d="m241.93,94.34c.09.22-.03.47-.26.56s-.49-.02-.57-.24c-.09-.22.03-.47.26-.56s.49.02.57.24Z"/>
      </g>
      <g>
        <path class="cls-23" d="m277.05,90.66c-.06.25-.32.39-.58.33s-.42-.31-.36-.56c.06-.25.32-.39.58-.33s.42.31.36.56Z"/>
        <path class="cls-23" d="m279.83,91.52c-.06.25-.32.39-.58.33s-.42-.31-.36-.56c.06-.25.32-.39.58-.33s.42.31.36.56Z"/>
        <path class="cls-23" d="m278.14,92.26c-.08.31-.4.5-.72.42s-.53-.39-.45-.7c.08-.31.4-.5.72-.42s.53.39.45.7Z"/>
        <path class="cls-23" d="m279.04,94.44c-.06.25-.32.39-.58.33s-.42-.31-.36-.56c.06-.25.32-.39.58-.33s.42.31.36.56Z"/>
        <path class="cls-23" d="m276.41,93.42c-.06.25-.32.39-.58.33s-.42-.31-.36-.56c.06-.25.32-.39.58-.33s.42.31.36.56Z"/>
      </g>
      <path class="cls-9" d="m279.68,67.16c-1.57,0-2.52-.64-3.03-.98-.65-.43-.4-1.26-.01-1.85l.62.41c-.2.3-.32.68-.27.76.55.37,1.34.9,2.68.9s2.54-1.09,2.55-1.1l.51.55c-.06.05-1.41,1.3-3.06,1.3Z"/>
      <path class="cls-9" d="m249.67,69.87c-.3,0-.57-.07-.8-.21-.39-.23-.65-.64-.77-1.2-.11-.51,0-.99.32-1.41.42-.56,1.19-.95,2-1,.81-.06,1.09.23,1.34.48.16.16.31.31.63.42.93.31,3.21.7,3.24.71l-.12.67c-.1-.02-2.36-.41-3.34-.73-.48-.16-.72-.4-.9-.58-.21-.21-.31-.31-.81-.28-.61.04-1.2.33-1.5.73-.2.26-.26.55-.19.86.08.37.23.63.45.76.29.17.68.11.96.03.21-.06.25-.28.22-.44-.04-.22-.21-.44-.58-.42-.17.01-.22.05-.22.05.03.01.15.21.28.33l-.48.48c-.14-.14-.58-.63-.41-1.08.1-.27.37-.43.79-.46.77-.06,1.21.46,1.31.97.1.56-.18,1.06-.7,1.22-.25.07-.48.11-.7.11Z"/>
      <path class="cls-9" d="m241.48,67.37c-1.56,0-2.19-.92-2.22-.96l.54-.36s.57.8,2.02.66c1.59-.15,2.07-.97,2.12-1.18.07-.35-.02-.94-.23-1.15-.16-.16-.83-.33-1.26-.39l.09-.65c.21.03,1.25.2,1.63.57.43.43.5,1.29.41,1.74-.12.59-.93,1.53-2.69,1.7-.14.01-.28.02-.4.02Z"/>
    </g>
  </g>
</svg>