<?xml version="1.0" encoding="UTF-8"?>
<svg id="Layer_2" data-name="Layer 2" xmlns="http://www.w3.org/2000/svg" viewBox="0 0 520 320">
  <defs>
    <style>
      .cls-1 {
        fill: #a3ab78;
      }

      .cls-1, .cls-2, .cls-3, .cls-4 {
        stroke-width: 0px;
      }

      .cls-2 {
        fill: #d20000;
      }

      .cls-3 {
        fill: none;
      }

      .cls-4 {
        fill: #ffe600;
      }
    </style>
  </defs>
  <g id="_500x300_Background" data-name="500x300 Background">
    <rect class="cls-1" width="520" height="320" rx="10" ry="10"/>
  </g>
  <g id="North_Macedonia" data-name="North Macedonia">
    <g>
      <polygon class="cls-3" points="306.69 165.6 510 190 306.69 165.6 306.69 165.6"/>
      <polygon class="cls-3" points="300.55 184.33 510 310 300.55 184.32 300.55 184.33"/>
      <path class="cls-3" d="m260.11,111.88c.39,0,.78.03,1.18.04,0,0,0,0,0,0-.4-.02-.79-.04-1.19-.05,0,0,.01,0,.01,0Z"/>
      <polygon class="cls-3" points="254.85 207.92 235 309.99 254.85 207.92 254.85 207.92"/>
      <path class="cls-2" d="m254.85,207.92h0s0-.07.01-.1c-.29-.03-.58-.05-.87-.09-10.89-1.43-20.61-6.68-27.86-14.38l-141.12,116.64h149.99l19.85-102.07h0Z"/>
      <path class="cls-2" d="m300.55,135.67c.53.92,1.04,1.85,1.51,2.81,2.39,4.88,3.99,10.25,4.64,15.91l203.31-24.4V10l-209.45,125.67Z"/>
      <path class="cls-2" d="m265.15,112.08s0,.07-.01.1c.28.03.57.05.85.08,10.89,1.43,20.61,6.68,27.86,14.39L435,10h-150s0,0,0,0l-19.85,102.07Z"/>
      <path class="cls-2" d="m213.29,165.61L10,190.01v119.99l209.44-125.66c-.53-.92-1.04-1.85-1.51-2.81-2.39-4.88-3.99-10.25-4.64-15.9Z"/>
      <path class="cls-2" d="m302.05,181.51c-.47.96-.98,1.89-1.51,2.81l209.45,125.68v-120l-203.31-24.4c-.64,5.66-2.24,11.03-4.64,15.91Z"/>
      <path class="cls-2" d="m260.1,111.87c.4,0,.79.03,1.19.05-.44-.15-.87-.25-1.28-.23-.13,0-.08.07.1.18Z"/>
      <path class="cls-2" d="m253.99,112.27c.29-.04.58-.05.88-.09,0-.03-.01-.07-.02-.1l-19.85-102.07h0,0s-150,0-150,0l141.13,116.65c7.25-7.71,16.97-12.96,27.86-14.38Z"/>
      <path class="cls-2" d="m219.44,135.67L10,10v119.99l203.29,24.39c.64-5.65,2.24-11.02,4.64-15.9.47-.96.98-1.9,1.51-2.82Z"/>
      <path class="cls-2" d="m265.99,207.73c-.28.04-.57.05-.85.08,0,.04,0,.06.02.1l19.85,102.07h149.99l-141.13-116.65c-7.25,7.71-16.98,12.96-27.86,14.39Z"/>
      <path class="cls-4" d="m302.05,138.49c-.47-.96-.98-1.89-1.51-2.81L510,10h-75l-141.14,116.66c-7.25-7.71-16.98-12.96-27.86-14.39-.28-.04-.57-.05-.85-.08,0-.04,0-.07.01-.1l19.85-102.07h-50l19.85,102.07s.01.07.02.1c-.29.03-.59.05-.88.09-10.89,1.43-20.61,6.68-27.86,14.38L85,10H10l209.44,125.67c-.53.92-1.04,1.86-1.51,2.82-2.4,4.88-4,10.25-4.64,15.9,0,0,0,0,0,0L10,130v59.99h0s203.29-24.39,203.29-24.39c.65,5.65,2.24,11.02,4.64,15.9.47.96.98,1.89,1.51,2.81,0,0,0,0,0,0L10,310h75.01s141.12-116.65,141.12-116.65c7.25,7.71,16.97,12.96,27.86,14.38.29.04.58.05.87.09,0,.04,0,.07-.01.1h0l-19.85,102.07h50l-19.85-102.07s0-.07-.02-.1c.28-.03.57-.05.85-.08,10.89-1.43,20.61-6.68,27.86-14.39l141.13,116.65h.01s75,0,75,0l-209.45-125.67s0,0,0,0c.53-.92,1.04-1.85,1.51-2.81,2.4-4.89,4-10.26,4.64-15.91h0s203.31,24.4,203.31,24.4v-59.99h0s-203.31,24.39-203.31,24.39c-.65-5.65-2.24-11.02-4.64-15.91Z"/>
    </g>
  </g>
</svg>