<?xml version="1.0" encoding="UTF-8"?>
<svg id="Layer_2" data-name="Layer 2" xmlns="http://www.w3.org/2000/svg" viewBox="0 0 520 320">
  <defs>
    <style>
      .cls-1 {
        fill: #a3ab78;
      }

      .cls-1, .cls-2, .cls-3, .cls-4 {
        stroke-width: 0px;
      }

      .cls-2 {
        fill: #002868;
      }

      .cls-3 {
        fill: #ef2b2d;
      }

      .cls-4 {
        fill: #fff;
      }
    </style>
  </defs>
  <g id="_500x300_Background" data-name="500x300 Background">
    <rect class="cls-1" width="520" height="320" rx="10" ry="10"/>
  </g>
  <g id="Norway">
    <g>
      <g>
        <rect class="cls-3" x="10" y="197.52" width="144.21" height="112.48"/>
        <rect class="cls-3" x="229.24" y="197.52" width="280.76" height="112.48"/>
        <rect class="cls-3" x="10" y="10" width="144.21" height="112.48"/>
        <rect class="cls-3" x="229.24" y="10" width="280.76" height="112.48"/>
      </g>
      <g>
        <polygon class="cls-4" points="154.27 122.48 10 122.48 10 141.24 154.27 141.24 172.97 141.24 172.97 122.48 172.97 10 154.27 10 154.27 122.48"/>
        <polygon class="cls-4" points="229.24 122.48 229.24 10 210.48 10 210.48 122.48 210.48 141.24 229.24 141.24 510 141.24 510 122.48 229.24 122.48"/>
        <polygon class="cls-4" points="10 178.76 10 197.52 154.27 197.52 154.27 310 172.97 310 172.97 197.52 172.97 178.76 154.27 178.76 10 178.76"/>
        <polygon class="cls-4" points="210.48 178.76 210.48 197.52 210.48 310 229.24 310 229.24 197.52 510 197.52 510 178.76 229.24 178.76 210.48 178.76"/>
      </g>
      <polygon class="cls-2" points="229.24 141.24 210.48 141.24 210.48 122.48 210.48 10 172.97 10 172.97 122.48 172.97 141.24 154.27 141.24 10 141.24 10 178.76 154.27 178.76 172.97 178.76 172.97 197.52 172.97 310 210.48 310 210.48 197.52 210.48 178.76 229.24 178.76 510 178.76 510 141.24 229.24 141.24"/>
    </g>
  </g>
</svg>