<?xml version="1.0" encoding="UTF-8"?>
<svg id="Layer_2" data-name="Layer 2" xmlns="http://www.w3.org/2000/svg" viewBox="0 0 520 320">
  <defs>
    <style>
      .cls-1 {
        fill: #a3ab78;
      }

      .cls-1, .cls-2, .cls-3, .cls-4 {
        stroke-width: 0px;
      }

      .cls-2 {
        fill: #fff;
      }

      .cls-3 {
        fill: #009f4e;
      }

      .cls-4 {
        fill: #d2403d;
      }
    </style>
  </defs>
  <g id="_500x300_Background" data-name="500x300 Background">
    <rect class="cls-1" width="520" height="320" rx="10" ry="10"/>
  </g>
  <g id="Oman">
    <g>
      <polygon class="cls-4" points="135 10 10 10 10 309.99 135 309.99 135 210 510 210 510 109.99 135 109.99 135 10"/>
      <rect class="cls-2" x="135" y="10" width="375" height="100"/>
      <rect class="cls-3" x="135" y="210" width="375" height="100"/>
    </g>
    <g>
      <path class="cls-2" d="m79.59,61.58v.34c.05-.07.11-.15.16-.22-.06-.04-.11-.08-.16-.12Z"/>
      <path class="cls-2" d="m80.37,56.93c0-.63-.32-1.18-.78-1.49v2.97c.46-.3.78-.86.78-1.49Z"/>
      <path class="cls-2" d="m65.53,62.09v-.51c-.08.06-.16.12-.24.19.08.1.16.21.24.32Z"/>
      <path class="cls-2" d="m65.53,58.42v-2.97c-.46.3-.78.86-.78,1.49,0,.63.32,1.18.78,1.49Z"/>
      <path class="cls-2" d="m35.06,71.58h14.91c.74,0,1.35-.56,1.35-1.26v-1.71h-.19v1.42c0,.78-.69,1.4-1.54,1.4h-14.14c-.85,0-1.54-.63-1.54-1.4v-6.44c0-.78.69-1.4,1.54-1.4h14.15c.85,0,1.54.63,1.54,1.4v.61h.19v-.9c0-.69-.6-1.26-1.35-1.26h-14.92c-.74,0-1.35.56-1.35,1.26v7.02c0,.69.6,1.26,1.35,1.26Z"/>
      <polygon class="cls-2" points="45.92 70.28 46.19 70.52 46.46 70.28 46.19 70.04 45.92 70.28"/>
      <polygon class="cls-2" points="42.26 70.28 42.52 70.53 42.79 70.28 42.52 70.04 42.26 70.28"/>
      <polygon class="cls-2" points="39.51 63.33 39.77 63.57 40.04 63.33 39.77 63.09 39.51 63.33"/>
      <polygon class="cls-2" points="40.42 63.33 40.68 63.57 40.95 63.33 40.68 63.09 40.42 63.33"/>
      <polygon class="cls-2" points="36.75 63.33 37.02 63.57 37.28 63.33 37.02 63.09 36.75 63.33"/>
      <polygon class="cls-2" points="46.84 70.28 47.11 70.52 47.37 70.28 47.11 70.04 46.84 70.28"/>
      <polygon class="cls-2" points="47.76 70.28 48.02 70.52 48.29 70.28 48.02 70.04 47.76 70.28"/>
      <polygon class="cls-2" points="41.34 70.28 41.6 70.52 41.87 70.28 41.6 70.04 41.34 70.28"/>
      <polygon class="cls-2" points="41.34 63.33 41.6 63.57 41.87 63.33 41.6 63.09 41.34 63.33"/>
      <polygon class="cls-2" points="37.67 63.33 37.93 63.57 38.2 63.33 37.93 63.09 37.67 63.33"/>
      <polygon class="cls-2" points="38.58 63.33 38.85 63.57 39.11 63.33 38.85 63.09 38.58 63.33"/>
      <polygon class="cls-2" points="46.84 63.33 47.11 63.57 47.37 63.33 47.11 63.09 46.84 63.33"/>
      <polygon class="cls-2" points="45.01 70.28 45.27 70.52 45.54 70.28 45.27 70.04 45.01 70.28"/>
      <polygon class="cls-2" points="44.09 70.28 44.36 70.52 44.62 70.28 44.36 70.04 44.09 70.28"/>
      <polygon class="cls-2" points="47.76 63.33 48.02 63.57 48.29 63.33 48.02 63.09 47.76 63.33"/>
      <polygon class="cls-2" points="35.83 63.33 36.1 63.57 36.36 63.33 36.1 63.09 35.83 63.33"/>
      <polygon class="cls-2" points="45.92 63.33 46.19 63.57 46.46 63.33 46.19 63.09 45.92 63.33"/>
      <polygon class="cls-2" points="43.17 63.33 43.43 63.57 43.7 63.33 43.43 63.09 43.17 63.33"/>
      <polygon class="cls-2" points="43.17 70.28 43.43 70.52 43.7 70.28 43.43 70.04 43.17 70.28"/>
      <polygon class="cls-2" points="42.26 63.33 42.52 63.57 42.79 63.33 42.52 63.09 42.26 63.33"/>
      <polygon class="cls-2" points="45.01 63.33 45.27 63.57 45.54 63.33 45.27 63.09 45.01 63.33"/>
      <polygon class="cls-2" points="48.94 63.09 48.68 63.33 48.94 63.57 49.21 63.33 48.94 63.09"/>
      <polygon class="cls-2" points="44.09 63.33 44.36 63.57 44.62 63.33 44.36 63.09 44.09 63.33"/>
      <polygon class="cls-2" points="39.51 70.28 39.77 70.53 40.04 70.28 39.77 70.04 39.51 70.28"/>
      <polygon class="cls-2" points="48.68 70.28 48.94 70.52 49.21 70.28 48.94 70.04 48.68 70.28"/>
      <path class="cls-2" d="m49.75,64.2h1.13v-.61c0-.64-.57-1.15-1.28-1.15h-14.14c-.71,0-1.28.51-1.28,1.15v6.44c0,.64.57,1.15,1.28,1.15h14.15c.71,0,1.28-.51,1.28-1.15v-1.42h-1.13c-.29,0-.51-.38-.51-.88v-2.65c0-.5.21-.88.5-.88Zm-.49,5.57l-.12.11.26.24.6-.54.08.1.08.1-.58.52.58.52-.09.1-.08.1-.6-.54-.26.24.12.11-.09.1-.08.1-.15-.13-.15.13-.08-.1-.08-.1.12-.11-.27-.24-.27.24.12.11-.09.1-.08.1-.15-.13-.15.13-.08-.1-.08-.1.12-.11-.26-.24-.26.24.12.11-.09.1-.08.1-.15-.13-.15.13-.08-.1-.08-.1.12-.11-.26-.24-.26.24.12.11-.09.1-.08.1-.15-.13-.15.13-.08-.1-.09-.1.12-.11-.27-.24-.27.24.12.11-.09.1-.08.1-.15-.13-.15.13-.08-.1-.09-.1.12-.11-.26-.24-.27.24.13.1-.09.1-.08.1-.15-.13-.15.13-.08-.1-.09-.1.12-.11-.26-.24-.26.24.12.11-.09.1-.08.1-.15-.13-.15.13-.08-.1-.09-.1.12-.11-.26-.24-.27.24.12.11-.09.1-.08.1-.15-.13-.15.13-.08-.1-.08-.1.12-.11-.27-.24-.27.24.12.11-.09.1-.08.1-.15-.13-.15.13-.08-.1-.08-.1.12-.11-.26-.24-.27.24.12.11-.09.1-.08.1-.15-.13-.15.13-.08-.1-.08-.1.12-.11-.27-.24-.27.24.12.11-.09.1-.08.1-.13-.13-.15.13-.08-.1-.09-.1.12-.11-.27-.24-.26.24.12.11-.09.1-.08.1-.15-.13-.15.13-.08-.1-.09-.1.12-.11-.26-.24-.27.24.12.11-.09.1-.08.1-.15-.13-.15.13-.08-.1-.09-.1.12-.11-.27-.24-.27.24.12.11-.09.1-.08.1-.15-.13-.15.13-.08-.1-.09-.1.12-.11-.27-.24-.27.24.12.11-.09.1-.08.1-.15-.13-.15.13-.08-.1-.09-.1.12-.11-.27-.24-.6.54-.08-.1-.04-.1.58-.52-.58-.51.08-.1.08-.1.6.54.27-.24-.12-.11.08-.1.08-.1.15.13.15-.13.08.1.08.1-.12.11.27.24.27-.24-.12-.11.08-.1.08-.1.15.13.15-.13.08.1.08.1-.12.11.27.24.27-.24-.12-.11.08-.1.08-.1.15.13.15-.13.08.1.08.1-.12.11.27.24.26-.24-.12-.11.08-.1.08-.1.15.13.15-.13.08.1.08.1-.12.11.26.24.27-.24-.12-.11.08-.1.08-.1.15.13.15-.13.17.2-.12.11.26.24.26-.24-.12-.11.08-.1.08-.1.15.13.15-.13.08.1.08.1-.12.11.27.24.26-.24-.12-.11.08-.1.08-.1.15.13.15-.13.17.2-.12.11.27.24.27-.24-.12-.11.08-.1.08-.1.15.13.15-.13.08.1.08.1-.12.11.27.24.26-.24-.12-.11.08-.1.08-.1.15.13.15-.13.08.1.08.1-.12.11.26.24.26-.24-.12-.11.08-.1.08-.1.15.13.15-.13.08.1.08.1-.12.11.27.24.26-.24-.12-.11.08-.1.08-.1.15.13.15-.13.08.1.08.1-.12.11.27.24.27-.24-.12-.11.08-.1.08-.1.15.13.15-.13.08.1.08.1-.12.11.26.24.26-.24-.12-.11.08-.1.08-.1.15.13.15-.13.17.2-.12.11.26.24.26-.24-.12-.11.08-.1.08-.1.15.13.15-.13.17.2-.12.11.27.24.27-.24-.12-.11.08-.1.08-.1.15.13.15-.13.29.2Zm-9.65-4.41l.84-.58.52.4.78-.11.12-.4.99.03.04.42.61.31.55-.44.83.45-.69.43.12.42.8-.02v.89l-.66-.03-.24.34.73.52-.69.52-.6-.47-.75.16.04.67-1.09.07-.12-.65-.69-.29-.43.45-.81-.4.4-.52-.38-.26h-.72l-.05-1.09.71.07.38-.44-.56-.44Zm9.48-1.31l-.15-.13-.15.13-.17-.2.12-.11-.26-.24-.26.24.12.11-.17.2-.15-.13-.15.13-.17-.2.12-.11-.26-.24-.26.24.12.11-.17.2-.15-.13-.15.13-.17-.2.12-.11-.26-.24-.26.24.12.11-.17.2-.15-.13-.15.13-.17-.2.12-.11-.26-.24-.26.24.12.11-.17.2-.15-.13-.15.13-.17-.2.12-.11-.26-.24-.26.24.12.11-.17.2-.15-.13-.15.13-.17-.2.12-.11-.26-.24-.26.24.12.11-.17.2-.15-.13-.15.13-.17-.2.12-.11-.26-.24-.26.24.12.11-.17.2-.15-.13-.15.13-.17-.2.12-.11-.26-.24-.26.24.12.11-.17.2-.15-.13-.15.13-.17-.2.12-.11-.26-.24-.26.24.12.11-.17.2-.15-.13-.15.13-.17-.2.12-.11-.26-.24-.26.24.12.11-.17.2-.17-.13-.15.13-.17-.2.12-.11-.26-.24-.26.24.12.11-.17.2-.15-.13-.15.13-.17-.2.12-.11-.26-.24-.26.24.12.11-.17.2-.15-.13-.15.13-.17-.2.12-.11-.26-.24-.26.24.12.11-.17.2-.15-.13-.15.13-.17-.2.12-.11-.26-.24-.26.24.12.11-.17.2-.15-.13-.15.13-.17-.2.12-.11-.26-.24-.6.54-.18-.19.58-.51-.58-.52.09-.1.08-.1.6.54.26-.24-.12-.11.09-.1.08-.1.15.13.15-.13.08.1.09.1-.12.11.26.24.26-.24-.12-.11.09-.1.08-.1.15.13.15-.13.08.1.09.1-.12.11.26.24.26-.24-.12-.11.09-.1.08-.1.15.13.15-.13.08.1.09.1-.12.11.26.24.26-.24-.12-.11.09-.1.08-.1.15.13.15-.13.08.1.09.1-.12.11.26.24.26-.24-.12-.11.09-.1.08-.1.15.13.15-.13.08.1.09.1-.12.11.26.24.26-.24-.12-.11.08-.1.08-.1.15.13.15-.13.08.1.09.1-.12.11.26.24.26-.24-.12-.11.08-.1.08-.1.15.13.15-.13.08.1.09.1-.12.11.26.24.26-.24-.12-.11.08-.1.08-.1.15.13.15-.13.08.1.09.1-.12.11.26.24.26-.24-.12-.11.09-.1.08-.1.15.13.15-.13.08.1.09.1-.12.11.26.24.26-.24-.12-.11.09-.1.08-.1.15.13.15-.13.08.1.09.1-.12.11.26.24.26-.24-.12-.11.09-.1.08-.1.15.13.15-.13.08.1.09.1-.12.11.26.24.26-.24-.12-.11.09-.1.08-.1.15.13.15-.13.08.1.09.1-.12.11.26.24.26-.24-.12-.11.08-.1.08-.1.15.13.15-.13.08.1.09.1-.12.11.26.24.26-.24-.12-.11.08-.1.08-.1.15.13.15-.13.08.1.09.1-.12.11.26.24.26-.24-.12-.11.08-.1.08-.1.15.13.15-.13.08.1.09.1-.12.11.26.24.6-.54.08.1.09.1-.58.51.58.51-.17.2-.6-.54-.26.24.12.11-.09.2Z"/>
      <polygon class="cls-2" points="35.83 70.28 36.1 70.52 36.36 70.28 36.1 70.04 35.83 70.28"/>
      <polygon class="cls-2" points="40.42 70.28 40.68 70.52 40.95 70.28 40.68 70.04 40.42 70.28"/>
      <polygon class="cls-2" points="37.67 70.28 37.93 70.53 38.2 70.28 37.93 70.04 37.67 70.28"/>
      <polygon class="cls-2" points="38.58 70.28 38.85 70.52 39.11 70.28 38.85 70.04 38.58 70.28"/>
      <polygon class="cls-2" points="36.75 70.28 37.02 70.53 37.28 70.28 37.02 70.04 36.75 70.28"/>
      <path class="cls-2" d="m39.28,67.1h.61l.56.39-.38.5.52.26.42-.45.87.37.11.6.78-.05-.04-.65.96-.2.56.43.41-.31-.68-.49.38-.56.58.03v-.55l-.76.02-.19-.65.56-.35-.49-.26-.55.44-.79-.4-.03-.36-.73-.02-.11.38-.95.13-.49-.38-.56.38.52.4-.55.64-.61-.06.05.75Zm2.91-1.68c.78,0,1.43.58,1.43,1.29s-.65,1.29-1.43,1.29-1.43-.58-1.43-1.29.65-1.29,1.43-1.29Z"/>
      <ellipse class="cls-2" cx="42.18" cy="66.7" rx=".46" ry=".32"/>
      <path class="cls-2" d="m93.68,63.3v1.31h.19v-1.02c0-.78.69-1.4,1.54-1.4h14.15c.85,0,1.54.63,1.54,1.4v6.44c0,.78-.69,1.4-1.54,1.4h-14.15c-.85,0-1.54-.63-1.54-1.4v-1h-.19v1.3c0,.69.6,1.26,1.35,1.26h14.91c.74,0,1.35-.56,1.35-1.26v-7.02c0-.69-.6-1.26-1.35-1.26h-14.91c-.74,0-1.35.56-1.35,1.25Z"/>
      <polygon class="cls-2" points="99.99 70.28 99.73 70.04 99.46 70.28 99.73 70.52 99.99 70.28"/>
      <polygon class="cls-2" points="103.67 63.33 103.4 63.09 103.14 63.33 103.4 63.57 103.67 63.33"/>
      <polygon class="cls-2" points="107.33 63.33 107.07 63.09 106.8 63.33 107.07 63.57 107.33 63.33"/>
      <polygon class="cls-2" points="102.74 70.28 102.48 70.04 102.21 70.28 102.48 70.52 102.74 70.28"/>
      <polygon class="cls-2" points="109.17 70.28 108.9 70.04 108.64 70.28 108.9 70.53 109.17 70.28"/>
      <polygon class="cls-2" points="99.08 63.33 98.82 63.09 98.55 63.33 98.82 63.57 99.08 63.33"/>
      <polygon class="cls-2" points="108.25 63.33 107.99 63.09 107.72 63.33 107.99 63.57 108.25 63.33"/>
      <path class="cls-2" d="m94.94,69.02h-.82v1c0,.64.57,1.15,1.28,1.15h14.15c.71,0,1.28-.51,1.28-1.15v-6.44c0-.64-.57-1.15-1.28-1.15h-14.15c-.71,0-1.28.51-1.28,1.15v1.02h.82c.32,0,.48.44.48.88v2.65c0,.44-.16.89-.48.89Zm.07-4.98l-.17-.2.58-.51-.58-.51.09-.1.08-.1.6.54.26-.24-.12-.11.09-.1.08-.1.15.13.15-.13.08.1.09.1-.12.11.26.24.26-.24-.12-.11.09-.1.08-.1.15.13.15-.13.08.1.09.1-.12.11.26.24.26-.24-.12-.11.09-.1.08-.1.15.13.15-.13.08.1.09.1-.12.11.26.24.26-.24-.12-.11.09-.1.08-.1.15.13.15-.13.08.1.09.1-.12.11.26.24.26-.24-.12-.11.08-.1.08-.1.15.13.15-.13.08.1.09.1-.12.11.26.24.26-.24-.12-.11.08-.1.08-.1.15.13.15-.13.08.1.09.1-.12.11.26.24.26-.24-.12-.11.08-.1.08-.1.15.13.15-.13.08.1.09.1-.12.11.26.24.26-.24-.12-.11.09-.1.08-.1.15.13.15-.13.08.1.09.1-.12.11.26.24.26-.24-.12-.11.09-.1.08-.1.15.13.15-.13.08.1.09.1-.12.11.26.24.26-.24-.12-.11.09-.1.08-.1.15.13.15-.13.08.1.09.1-.12.11.26.24.26-.24-.12-.11.09-.1.08-.1.15.13.15-.13.08.1.09.1-.12.11.26.24.26-.24-.12-.11.09-.1.08-.1.15.13.15-.13.08.1.09.1-.12.11.26.24.26-.24-.12-.11.08-.1.08-.1.15.13.15-.13.08.1.09.1-.12.11.26.24.26-.24-.12-.11.08-.1.08-.1.15.13.15-.13.08.1.09.1-.12.11.26.24.26-.24-.12-.11.08-.1.08-.1.15.13.15-.13.08.1.09.1-.12.11.26.24.6-.54.08.1.09.1-.58.51.58.51-.17.2-.6-.54-.26.24.12.11-.17.2-.15-.13-.15.13-.17-.2.12-.11-.26-.24-.26.24.12.11-.17.2-.15-.13-.15.13-.17-.2.12-.11-.26-.24-.26.24.12.11-.17.2-.15-.13-.15.13-.17-.2.12-.11-.26-.24-.26.24.12.11-.17.2-.15-.13-.15.13-.17-.2.12-.11-.26-.24-.26.24.12.11-.17.2-.15-.13-.15.13-.17-.2.12-.11-.26-.24-.26.24.12.11-.17.2-.15-.13-.15.13-.17-.2.12-.11-.26-.24-.26.24.12.11-.17.2-.15-.13-.15.13-.17-.2.12-.11-.26-.24-.26.24.12.11-.17.2-.15-.13-.15.13-.17-.2.12-.11-.26-.24-.26.24.12.11-.17.2-.15-.13-.15.13-.17-.2.12-.11-.26-.24-.26.24.12.11-.17.2-.15-.13-.15.13-.17-.2.12-.11-.26-.24-.26.24.12.11-.17.2-.15-.13-.15.13-.17-.2.12-.11-.26-.24-.26.24.12.11-.17.2-.15-.13-.15.13-.17-.2.12-.11-.26-.24-.26.24.12.11-.17.2-.15-.13-.15.13-.17-.2.12-.11-.26-.24-.26.24.12.11-.17.2-.15-.13-.15.13-.17-.2.12-.11-.26-.24-.26.24.12.11-.17.2-.15-.13-.15.13-.17-.2.12-.11-.26-.24-.56.54Zm10.18,4l-.81.4-.43-.45-.69.29-.12.65-1.09-.07.04-.67-.75-.16-.6.47-.68-.52.73-.52-.24-.34-.66.03v-.89l.8.02.12-.42-.69-.43.83-.45.55.44.61-.31.04-.42.99-.03.12.4.78.11.53-.4.84.58-.56.43.38.44.71-.07-.05,1.09h-.72l-.38.26.39.53Zm-9.59,2.07l.27-.24-.12-.11.08-.1.08-.1.15.13.15-.13.08.1.08.1-.12.11.26.24.26-.24-.12-.11.08-.1.08-.1.15.13.15-.13.08.1.08.1-.12.11.26.24.27-.24-.12-.11.08-.1.08-.1.15.13.15-.13.08.1.08.1-.12.11.27.24.26-.24-.12-.11.08-.1.08-.1.15.13.15-.13.08.1.08.1-.12.11.26.24.26-.24-.12-.11.08-.1.08-.1.15.13.15-.13.17.2-.12.11.26.24.26-.24-.12-.11.08-.1.08-.1.15.13.15-.13.17.2-.12.11.27.24.27-.24-.12-.11.08-.1.08-.1.15.13.15-.13.17.2-.12.11.26.24.26-.24-.12-.11.08-.1.08-.1.15.13.15-.13.08.1.08.1-.12.11.26.24.27-.24-.12-.11.08-.1.08-.1.15.13.15-.13.08.1.08.1-.12.11.27.24.27-.24-.12-.11.08-.1.08-.1.15.13.15-.13.08.1.08.1-.12.11.26.24.26-.24-.12-.11.08-.1.08-.1.15.13.15-.13.08.1.08.1-.12.11.26.24.27-.24-.12-.11.08-.1.08-.1.15.13.15-.13.17.2-.12.11.27.24.27-.24-.12-.11.08-.1.08-.1.15.13.15-.13.17.2-.12.11.27.24.27-.24-.12-.11.08-.1.08-.1.15.13.15-.13.17.2-.12.11.27.24.27-.24-.12-.11.08-.1.08-.1.15.13.15-.13.08.1.08.1-.12.11.27.24.6-.54.08.1.08.1-.58.52.58.52-.09.1-.08.1-.6-.54-.27.24.12.11-.09.1-.08.1-.15-.13-.15.13-.08-.1-.08-.1.12-.11-.27-.24-.27.24.12.11-.09.1-.08.1-.15-.13-.15.13-.08-.1-.08-.1.12-.11-.27-.24-.27.24.12.11-.09.1-.08.1-.15-.13-.15.13-.08-.1-.08-.1.12-.11-.27-.24-.27.24.12.11-.09.1-.08.1-.15-.13-.15.13-.08-.1-.09-.1.12-.11-.27-.24-.26.24.12.11-.09.1-.08.1-.15-.13-.15.13-.08-.1-.09-.1.12-.11-.26-.24-.26.24.12.11-.09.1-.08.1-.15-.13-.15.13-.08-.1-.09-.1.12-.11-.27-.24-.27.24.12.11-.09.1-.08.1-.15-.13-.15.13-.08-.1-.09-.1.12-.11-.27-.24-.26.24.12.11-.09.1-.08.1-.15-.13-.15.13-.08-.1-.09-.1.12-.11-.26-.24-.26.24.12.11-.09.1-.08.1-.15-.13-.15.13-.08-.1-.08-.1.12-.11-.27-.24-.27.24.12.11-.09.1-.08.1-.15-.13-.15.13-.08-.1-.08-.1.12-.11-.26-.24-.26.24.12.11-.09.1-.08.1-.15-.13-.15.13-.08-.1-.08-.1.12-.11-.26-.24-.26.24.12.11-.09.1-.08.1-.15-.13-.15.13-.08-.1-.09-.1.12-.11-.26-.24-.27.24.12.11-.09.1-.08.1-.15-.13-.15.13-.08-.1-.09-.1.12-.11-.27-.24-.26.24.12.11-.09.1-.08.1-.15-.13-.15.13-.08-.1-.09-.1.12-.11-.26-.24-.26.24.12.11-.09.1-.08.1-.15-.13-.15.13-.08-.1-.09-.1.12-.11-.27-.24-.6.54-.08-.1-.09-.1.58-.52-.58-.52.08-.1.08-.1.77.54Z"/>
      <polygon class="cls-2" points="101.83 63.33 101.57 63.09 101.3 63.33 101.57 63.57 101.83 63.33"/>
      <polygon class="cls-2" points="104.58 63.33 104.32 63.09 104.05 63.33 104.32 63.57 104.58 63.33"/>
      <polygon class="cls-2" points="106.42 63.33 106.15 63.09 105.89 63.33 106.15 63.57 106.42 63.33"/>
      <polygon class="cls-2" points="97.24 63.33 96.98 63.09 96.71 63.33 96.98 63.57 97.24 63.33"/>
      <polygon class="cls-2" points="99.08 70.28 98.82 70.04 98.55 70.28 98.82 70.52 99.08 70.28"/>
      <polygon class="cls-2" points="105.5 63.33 105.24 63.09 104.97 63.33 105.24 63.57 105.5 63.33"/>
      <polygon class="cls-2" points="101.83 70.28 101.57 70.04 101.3 70.28 101.57 70.52 101.83 70.28"/>
      <polygon class="cls-2" points="96.33 63.33 96.06 63.09 95.8 63.33 96.06 63.57 96.33 63.33"/>
      <polygon class="cls-2" points="98.16 63.33 97.89 63.09 97.63 63.33 97.89 63.57 98.16 63.33"/>
      <polygon class="cls-2" points="100.92 70.28 100.65 70.04 100.38 70.28 100.65 70.52 100.92 70.28"/>
      <polygon class="cls-2" points="96.33 70.28 96.06 70.04 95.8 70.28 96.06 70.52 96.33 70.28"/>
      <polygon class="cls-2" points="107.33 70.28 107.07 70.04 106.8 70.28 107.07 70.53 107.33 70.28"/>
      <polygon class="cls-2" points="108.25 70.28 107.99 70.04 107.72 70.28 107.99 70.52 108.25 70.28"/>
      <polygon class="cls-2" points="102.74 63.33 102.48 63.09 102.21 63.33 102.48 63.57 102.74 63.33"/>
      <polygon class="cls-2" points="103.67 70.28 103.4 70.04 103.14 70.28 103.4 70.52 103.67 70.28"/>
      <polygon class="cls-2" points="99.99 63.33 99.73 63.09 99.46 63.33 99.73 63.57 99.99 63.33"/>
      <polygon class="cls-2" points="105.5 70.28 105.24 70.04 104.97 70.28 105.24 70.52 105.5 70.28"/>
      <polygon class="cls-2" points="104.58 70.28 104.32 70.04 104.05 70.28 104.32 70.52 104.58 70.28"/>
      <polygon class="cls-2" points="97.24 70.28 96.98 70.04 96.71 70.28 96.98 70.52 97.24 70.28"/>
      <polygon class="cls-2" points="106.42 70.28 106.15 70.04 105.89 70.28 106.15 70.53 106.42 70.28"/>
      <polygon class="cls-2" points="109.17 63.33 108.9 63.09 108.64 63.33 108.9 63.57 109.17 63.33"/>
      <polygon class="cls-2" points="98.16 70.28 97.89 70.04 97.63 70.28 97.89 70.53 98.16 70.28"/>
      <polygon class="cls-2" points="100.92 63.33 100.65 63.09 100.38 63.33 100.65 63.57 100.92 63.33"/>
      <path class="cls-2" d="m105.76,66.34l-.61.06-.55-.64.52-.4-.56-.38-.49.38-.95-.13-.11-.38-.73.02-.03.36-.79.4-.55-.44-.49.26.56.35-.19.65-.76-.02v.55l.58-.03.38.56-.68.49.41.31.56-.43.96.2-.04.65.78.05.11-.6.87-.37.42.45.52-.26-.38-.5.56-.39h.61l.05-.75Zm-2.94,1.65c-.78,0-1.43-.58-1.43-1.29s.65-1.29,1.43-1.29,1.43.58,1.43,1.29-.65,1.29-1.43,1.29Z"/>
      <ellipse class="cls-2" cx="102.82" cy="66.7" rx=".46" ry=".32"/>
      <path class="cls-2" d="m81.09,64.6c.04.14.07.28.09.42h2.01c.07-1.06,1.18-1.94,2.76-2.29.03-.06.07-.11.1-.16l-4.83-2.22c-.17.25-.35.51-.54.77.57.47.93,1.17.93,1.95,0,.58-.19,1.11-.52,1.54Z"/>
      <path class="cls-2" d="m81.1,67.79c-.22.69-.78,1.24-1.5,1.49v2.15c1.04-1.26,2-2.47,2.87-3.63h-1.37Z"/>
      <path class="cls-2" d="m62.36,86.56l-.02-.11s0-.05,0-.07c-.36-.03-.73-.07-1.12-.11.02,0,.04.02.06.03,0,0,.02,0,.02.02.07.03.2.11.12.25-.03.07-.08.08-.13.08-.06,0-.11-.02-.15-.04l-.05-.03h0s-.09-.07-.13-.08c-.1-.03-.22-.05-.38-.07l-.24-.02.04-.09h0c-.12-.03-.21,0-.34.03-.07.02-.16.05-.24.07-.16.08-.23.11-.45.11v-.32c.16,0,.18,0,.33-.08l.05-.02s.03,0,.05,0c-.45-.06-.91-.12-1.39-.19-5.69,5.39-10.45,9.46-14.21,12.54l3.97,1.04c.02-.09.04-.23.05-.33,0-.06,0-.11.02-.16v-.11c0-.19,0-.37-.04-.51-.02-.22-.06-.29-.14-.43l-.05-.09c-.04-.12-.09-.21-.13-.31-.05-.1-.1-.2-.13-.31l.29-.12c.06.12.11.2.2.3l.09.11c.06.07.11.12.17.18.07.08.15.16.21.24.11.06.2.11.29.17.06.04.11.07.19.11.17.08.32.16.5.18l.05.02c.1.05.35.03.49,0h.05c.23,0,.42-.03.6-.06.12-.07.2-.12.28-.18.03-.02.06-.04.1-.07.02-.04.03-.07.05-.11.07-.15.13-.29.17-.46v-.02c0-.22,0-.42-.05-.6-.02-.12-.06-.2-.1-.3-.02-.06-.05-.11-.07-.18-.04-.02-.1-.06-.15-.09-.08-.05-.16-.1-.19-.11l.13-.29s.14.08.24.14c.07.04.14.09.18.11l.06.03.02.06c.02.07.05.14.08.2.05.11.1.21.12.37.06.2.06.44.05.67v.05c-.05.24-.12.41-.2.56-.02.05-.04.1-.07.15l-.02.04-.04.02s-.09.06-.12.09c-.1.07-.19.13-.34.22l-.06.02c-.2.02-.4.05-.65.05-.17.05-.47.08-.68,0-.22-.03-.39-.12-.54-.19l-.05-.02c-.07-.04-.14-.08-.2-.12-.09-.06-.17-.11-.29-.17l-.03-.02s0,.07,0,.11c.06.16.06.38.05.58v.12c0,.07,0,.11-.02.16-.02.13-.03.26-.07.38l2.01.53c4.44-3.56,9.54-8.13,15.06-13.52-.2,0-.42,0-.65-.02h-2.49v.02Zm-6.92,8.06s-.07.11-.11.16c-.23.24-.29.26-.61.26-.2,0-.28-.06-.36-.11-.03-.02-.06-.04-.1-.06h-.03c0,.15-.02.28-.09.43l-.03.05s-.05.06-.07.08c-.07.07-.13.16-.24.22-.09.08-.19.19-.24.27l-.05.04c-.09.06-.16.11-.24.16l-.11.07c-.15.08-.3.16-.51.19-.24-.02-.35-.07-.47-.12-.03-.02-.07-.03-.11-.05-.11-.07-.18-.12-.24-.16-.07-.04-.12-.08-.19-.13-.09-.06-.18-.16-.29-.31-.15-.02-.22,0-.29.06-.11.07-.19.16-.25.24l-.02.03-.04.02s-.06.04-.09.07c-.06.04-.11.08-.16.1l-.14-.29s.07-.04.1-.07.07-.06.11-.07c.08-.11.19-.21.3-.29.16-.13.35-.17.61-.1l.06.02.03.05c.12.17.2.24.24.28.07.05.12.08.18.12.07.05.15.1.23.16.02,0,.05.02.09.04.11.05.16.08.32.09.12-.02.23-.07.34-.14l.11-.07c.08-.06.15-.1.23-.16.1-.14.24-.26.29-.31.08-.06.13-.11.19-.18.02-.02.04-.05.07-.07.06-.14.06-.27.06-.47,0-.12-.02-.21-.04-.31,0,0,0-.02,0-.02-.02-.02-.03-.06-.05-.1-.03-.07-.07-.14-.11-.19-.05-.08-.1-.13-.14-.19-.03-.03-.06-.07-.09-.11,0,0-.02,0-.03-.02-.02-.02-.04-.02-.07-.02h-.02l.05-.32s.02,0,.04,0c.2.04.27.11.35.19.02.02.05.05.09.07l.04.04.03.06c.07.1.12.2.18.32l.02.05s0,.06.02.09h0c.06.11.11.19.17.26.02.03.06.07.08.11.06.02.1.06.13.08.05.03.07.05.17.06q.22,0,.37-.15s.05-.08.07-.12c.06-.09.1-.17.2-.17v.16l.11.11s-.02.03-.04.06Zm2.61-3.5c-.15-.03-.63-.17-.85-.24h-.77c-.18,0-.24.04-.37.1-.05.02-.11.05-.17.07-.16.14-.28.25-.51.35-.02.02-.05.06-.08.09-.11.12-.26.29-.33.41-.06.16-.1.37-.1.58,0,.13.02.2.05.29s.05.16.07.3c.06.18.16.35.3.51l.03.06-.08.31c-.11-.03-.16-.08-.2-.17-.16-.19-.29-.39-.36-.65-.02-.14-.03-.2-.06-.27-.03-.09-.07-.2-.07-.38,0-.26.04-.51.13-.72.09-.17.25-.34.38-.49.04-.04.07-.08.1-.11l.06-.04c.2-.09.3-.18.47-.33l.05-.03c.07-.02.13-.06.18-.08.13-.07.24-.11.5-.13h.86c.21.08.7.23.83.25l-.07.33Zm3.52-3.52c-.31.03-.63.06-.82-.02-.11-.02-.2-.07-.29-.12v.02c-.02.27-.09.36-.21.48-.03.03-.07.07-.11.12l-.05.04c-.07.03-.12.07-.19.11-.11.07-.22.14-.33.19-.13.11-.33.19-.52.26l-.06.02c-.15.06-.3.12-.41.2-.09.06-.11.11-.15.2-.02.05-.04.1-.07.16.02.19.06.27.16.34l.04.02.02.04c.04.11.16.26.3.39l.02.03s.05.07.07.11c.07.11.15.22.1.35-.05.12-.19.16-.33.2-.07.03-.15.04-.21.04s-.13,0-.19-.02c-.04,0-.09-.02-.15-.02l.02-.32c.07,0,.12.02.18.02.11.02.16.02.26,0,.03,0,.06-.02.08-.02,0,0-.02-.02-.02-.03-.02-.03-.04-.07-.07-.1-.1-.1-.26-.27-.35-.46-.19-.16-.24-.34-.25-.6v-.05l.02-.04c.03-.06.05-.11.07-.16.04-.11.1-.24.26-.35.13-.1.31-.17.47-.24l.07-.02c.17-.07.34-.13.47-.23.13-.06.23-.12.33-.19.06-.04.12-.07.18-.11.04-.05.07-.08.11-.12.08-.09.11-.11.12-.27,0-.04,0-.12-.02-.2-.02-.21-.03-.34.11-.38l.13-.04.08.15c.12.16.23.23.41.28.16.07.52.02.69,0,.06,0,.11,0,.13,0l.02.32s-.08-.02-.13-.02Z"/>
      <path class="cls-2" d="m80.37,63.06c0-.39-.13-.75-.33-1.05-.14.2-.29.4-.44.6v.5c.26.09.51.22.72.38.03-.14.06-.29.06-.44Z"/>
      <path class="cls-2" d="m50.12,100.36l-6.28-1.65-.24-.07-.24-.07-.39-.11c-.62.68-1.25,1.32-1.87,1.93-.7.68-1.39,1.31-2.06,1.89-1.18,1.03-2.29,1.93-3.23,2.69-.6.49-1.15.93-1.63,1.33-.35.3-.65.57-.91.82-.5.5-.79.91-.77,1.21.02.17.15.32.39.45.39.21.98.29,1.71.24.29-.02.61-.05.96-.11,1.31-.23,2.95-.77,4.75-1.6,3.07-1.42,6.66-3.71,10.07-6.89h-.02l-.25-.07Zm-7.42,5.58c-1.55.91-3,1.57-4.29,2.04-.91.33-1.74.56-2.47.7-.47.09-.88.15-1.26.16-.11,0-.21.02-.31.02-.12,0-.23-.02-.33-.02-.33-.02-.62-.07-.83-.16-.27-.12-.42-.29-.45-.49-.02-.22.11-.47.37-.77.12-.14.29-.29.47-.45.32-.29.73-.6,1.22-.98.18-.14.38-.29.58-.44,1.23-.95,2.76-2.12,4.42-3.6.56-.5,1.13-1.05,1.71-1.62.38-.38.77-.78,1.15-1.18.04-.04.08-.08.11-.12l.07-.07h.04s.25.07.25.07l.24.07,6.26,1.59-.21.2c-.08.07-.16.14-.24.21-.96.88-1.91,1.67-2.85,2.39-1.25.95-2.47,1.77-3.64,2.45Z"/>
      <path class="cls-2" d="m42.95,99.3c-.19.2-.38.39-.56.58-1.58,1.65-3.16,3.02-4.53,4.13.16-.07.36-.07.6-.07h.16c.47.11.87.33,1.06.46.1.06.2.13.29.2.11.08.22.16.34.23.09.05.18.09.28.12-.06-.11-.08-.23-.11-.34-.02-.07-.04-.16-.07-.23v-.05c-.02-.21-.06-.3-.11-.41-.05-.09-.1-.2-.13-.36l-.02-.07.03-.06c.07-.11.11-.21.16-.31.07-.14.13-.27.23-.39.03-.11.07-.21.11-.3.06-.13.11-.24.12-.44l.03-.42.25.33c.14.18.2.27.61.29.32,0,.42-.05.59-.13.02,0,.02,0,.04-.02-.03-.24-.09-.31-.29-.41l.11-.3c.24.07.43.19.55.32.22.14.42.32.59.53.14.16.19.42.23.65.02.07.02.15.04.21.06.22.13.53.2.74.23,0,.34-.04.48-.1,0-.05.02-.11.03-.17.02-.16.05-.29.1-.4v-.02c0-.38,0-.58.29-.85.18-.2.44-.2.74-.19h.17c.32-.04.59-.13.8-.27l.04-.02c.11-.03.12-.06.12-.06.02-.03-.04-.17-.07-.23-.16-.24-.26-.29-.56-.42l-.08-.04c-.21-.11-.37-.2-.73-.23-.27.06-.34.12-.45.23-.06.06-.11.11-.2.17l-.06.02c-.31.08-.75.05-.96-.19l-.02-.03v-.04c-.04-.16-.07-.26-.07-.33h-.02v-.07c0-.08.03-.17.15-.18.13-.02.17.13.19.2,0,.06.02.15.06.27.11.09.37.12.6.07.06-.04.1-.08.14-.12.13-.12.24-.24.63-.32h.05c.45.02.66.15.89.27l.07.04c.3.13.47.22.7.56.08.18.15.36.07.52-.05.1-.15.17-.3.22-.25.16-.56.25-.94.3h-.2c-.28,0-.42,0-.51.09-.2.19-.2.27-.2.62v.11l-.02.04s-.06.21-.07.32c-.02.11-.04.23-.07.3l-.02.07-.07.02c-.25.1-.4.16-.79.16h-.13l-.04-.1c-.09-.22-.18-.6-.24-.86-.02-.1-.04-.18-.06-.26-.03-.19-.07-.4-.16-.5-.11-.15-.24-.27-.38-.38,0,.03,0,.07.02.11l.02.11-.11.05s-.1.04-.14.07c-.19.09-.33.16-.73.16-.32-.02-.5-.08-.63-.18-.02.07-.05.15-.08.21-.03.08-.07.17-.11.29l-.02.06c-.09.11-.15.24-.21.37-.04.09-.09.18-.15.28.02.09.06.16.09.22.06.11.12.24.14.51.02.08.05.16.07.24.05.19.08.3.19.38.08.08.11.11.32.11v.32c-.47,0-.78-.04-1.14-.24-.14-.07-.26-.16-.38-.24-.09-.07-.18-.13-.28-.19-.31-.2-.65-.35-.92-.42h-.13c-.29,0-.44,0-.53.09-.21.15-.35.35-.45.66-.07.34-.09.53.06.72.17.35.21.51.02.89-.21.28-.49.33-.82.41l-.19.04h-.02c-.29-.02-.6-.07-.86-.16l.11-.3c.21.07.49.12.74.13l.16-.03c.31-.07.5-.11.63-.27.12-.25.1-.3-.02-.55-.21-.27-.17-.57-.1-.96.11-.36.28-.6.5-.77-.77.61-1.47,1.16-2.07,1.62-.84.65-1.58,1.21-2.03,1.65-.11.11-.21.21-.29.3-.08.1-.13.19-.16.26-.02.05-.03.1-.03.14,0,.08.1.16.24.23,0,0,0,0,0,0,.13.06.3.1.49.13.16.02.34.03.55.03,2.68,0,8.62-2.17,14.62-7.71l-5.92-1.51-.11-.02Z"/>
      <path class="cls-2" d="m81.1,59.92c.12-.21.24-.42.37-.64.27-.47.54-.93.8-1.4.78-1.36,1.58-2.75,2.34-4.01l.07-.12.07.03c7.38-12.22,14.83-23.08,16.34-22.38.11.05.19.15.24.29.53,1.68-4.12,11.78-11.21,24.55l.07.03-.08.16c-.71,1.27-1.53,2.67-2.31,4.01-.39.68-.79,1.35-1.18,2.02l.29.14s.06,0,.08,0c9.01-15.56,15.48-29.51,14.76-31.79-.03-.11-.08-.18-.16-.21-1.52-.7-10.23,10.85-20.85,29.16l.29.14.06.02Z"/>
      <path class="cls-2" d="m98.43,34.28c-.03-.11-.02-.24-.02-.36-.32.38-.66.81-1.03,1.29l2.41,1.11c.21-.51.39-.99.56-1.42-.13.09-.27.16-.42.2-.11.02-.22.04-.33.04-.55,0-1.03-.34-1.17-.86Z"/>
      <path class="cls-2" d="m85.02,53.9l.54.24.25.11.27.12,2.35,1.09.26.12.23.11.93.43c4.44-8.01,7.98-15.04,9.83-19.51l-2.49-1.15c-2.92,3.8-7.22,10.22-12.18,18.43Z"/>
      <path class="cls-2" d="m100.8,33.56c.25-.87.35-1.47.25-1.77-.02-.07-.05-.1-.08-.11-.02-.02-.06-.02-.09-.02-.28,0-.81.42-1.54,1.21,0,0,.02,0,.02,0,.62-.16,1.22.16,1.44.7Z"/>
      <path class="cls-2" d="m84.8,54.16c-.37.6-.73,1.24-1.11,1.89-.33.58-.68,1.18-1.01,1.76-.05.08-.09.16-.14.24-.02.03-.03.07-.06.1-.37.65-.73,1.29-1.1,1.92h.02s.16.08.16.08l4.64,2.14.1.04h0c.39-.68.79-1.36,1.19-2.04.06-.1.11-.19.16-.29,0,0,0-.02.02-.02.24-.42.5-.85.74-1.27.45-.77.89-1.54,1.3-2.26l-.04-.02-.75-.35-.19-.09-.24-.11-2.85-1.31-.22-.1-.22-.11-.38-.17-.02-.02Zm.31.24h.02s.22.11.22.11l.22.11,2.95,1.36.24.11.19.09.38.17-.08.16c-.13.24-.26.46-.38.69-.11.18-.2.36-.3.54-.16.28-.32.56-.47.82-.29.51-.59,1-.88,1.51-.35.6-.71,1.21-1.11,1.9l-.07.13-4.21-1.94.09-.16c.4-.69.76-1.32,1.1-1.92.31-.55.61-1.08.93-1.63.24-.42.51-.87.77-1.31.11-.2.23-.39.35-.6l.05-.08v-.06Z"/>
      <path class="cls-2" d="m82.26,59.99l3.61,1.67c.37-.64.71-1.22,1.04-1.77.51-.87,1-1.71,1.53-2.63.1-.17.2-.34.29-.52.05-.08.09-.16.13-.24l-.11-.05-.21-.1-3.27-1.5h-.02s-.03.05-.05.07c-.71,1.18-1.3,2.22-1.93,3.32-.31.55-.64,1.13-1,1.76Zm3.09-4.56l2.91,1.34-2.48,4.28-2.91-1.34,2.48-4.28Z"/>
      <polygon class="cls-2" points="85.52 60.58 85.41 58.52 83.46 59.62 85.52 60.58"/>
      <polygon class="cls-2" points="87.66 56.86 85.59 55.91 85.7 57.97 87.66 56.86"/>
      <polygon class="cls-2" points="85.83 60.29 87.57 57.29 85.73 58.33 85.83 60.29"/>
      <polygon class="cls-2" points="85.28 56.19 83.54 59.21 85.39 58.15 85.28 56.19"/>
      <path class="cls-2" d="m65.53,62.92v-.14c-.17-.23-.34-.47-.5-.68-.17.28-.27.61-.27.96,0,.16.03.33.07.47.18-.25.42-.46.69-.62Z"/>
      <path class="cls-2" d="m64.71,68.68c-.32.24-.69.42-1.12.49.55.7,1.13,1.42,1.73,2.16.04-.55.08-1.18.11-1.89-.29-.2-.54-.46-.72-.75Z"/>
      <path class="cls-2" d="m59.38,62.37c1.09.28,1.91.82,2.3,1.49.41-.29.91-.47,1.47-.47.13,0,.26.02.38.03-.02-.11-.04-.24-.04-.36,0-.75.33-1.42.86-1.89-.2-.29-.4-.56-.59-.83l-4.39,2.04Z"/>
      <path class="cls-2" d="m96.51,99.19s0-.1-.02-.14v-.15c0-.2,0-.42.06-.62,0-.02,0-.05,0-.07l-.03.02c-.11.06-.2.11-.29.17-.07.04-.13.08-.2.12l-.05.02c-.15.07-.32.16-.54.19-.2.08-.5.06-.68,0-.25,0-.45-.02-.65-.05l-.06-.02c-.16-.08-.24-.15-.34-.22-.04-.02-.08-.06-.13-.09l-.04-.02-.02-.04s-.04-.1-.07-.14c-.07-.16-.15-.32-.2-.53v-.09c0-.23,0-.47.06-.69.02-.14.07-.24.12-.35.02-.06.06-.12.08-.2l.02-.06.06-.03s.11-.07.18-.11c.1-.07.2-.13.24-.15l.13.29s-.11.07-.19.12c-.05.03-.1.07-.15.09-.02.07-.05.12-.08.18-.04.09-.08.17-.1.28-.05.2-.05.4-.05.62v.06c.03.14.1.29.17.43.02.03.03.07.05.11.03.02.07.05.1.07.08.06.16.11.28.18.18.02.37.05.6.05h.05c.14.05.38.07.49.02l.05-.02c.18-.02.32-.09.47-.16l.04-.02c.06-.03.12-.07.18-.11.09-.06.18-.11.29-.17.06-.08.13-.16.21-.24.06-.06.11-.12.18-.19l.08-.11c.08-.11.14-.18.2-.3l.29.12c-.04.11-.08.2-.13.3-.04.1-.09.19-.12.29l-.07.11c-.08.15-.11.21-.13.39-.06.18-.06.36-.05.56v.13s0,.07.02.13c0,.11.02.24.06.33l3.97-1.04c-4.49-3.67-10.4-8.76-17.63-15.83-1.49-1.45-2.86-2.83-4.15-4.16-.16.58-.36,1.13-.59,1.64l.11.09-.16.2-.07-.05c-.1.2-.2.41-.31.6l.07.06-.08.1-.08.1-.05-.03c-.08.15-.16.29-.26.44h0s-.02.02-.02.02c-.02.04-.05.08-.07.11l.1.07-.16.2-.09-.07c-.35.49-.75.95-1.19,1.36.29.29.57.58.87.87,6.44,6.44,12.38,11.83,17.47,15.9l2.01-.52c-.03-.12-.05-.26-.07-.39Zm-16.94-15.03c-.18-.07-.43-.19-.61-.33-.18-.07-.29-.14-.46-.35-.21-.08-.26-.24-.3-.37,0-.03-.02-.07-.04-.11v-.04c-.04-.21-.07-.42-.07-.68-.02-.1-.07-.35-.09-.54,0-.08-.02-.16-.02-.19l.32-.06s.02.11.02.2c.02.17.06.42.08.55,0,.28.03.46.06.65,0,.02.02.07.04.11.04.12.05.15.13.17l.06.02.03.05c.13.18.2.22.38.3.15.11.34.2.57.3.18.07.35.08.56.05.09-.06.17-.11.24-.17.06-.04.12-.09.18-.13.02-.2.06-.38.11-.51l.31.1c-.02.07-.04.17-.06.27-.02.08-.03.16-.05.24,0,.04,0,.07,0,.11.02.16.07.24.16.38l.05.09-.28.16-.05-.08c-.07-.11-.13-.21-.17-.37h0c-.09.07-.18.13-.29.2l-.06.02c-.26.04-.5.02-.74-.07Zm3.48.84c-.11-.06-.21-.11-.31-.19-.2-.06-.39-.09-.66-.09h-.79c-.29.05-.49.11-.67.19-.1.05-.17.1-.22.12-.07.04-.19.11-.28,0-.08-.12.02-.21.07-.26h0s.02,0,.02,0h.02s.13-.08.24-.14c.21-.1.45-.16.79-.22h.82c.32,0,.55.04.78.11l.07.03c.07.07.17.11.28.17.1.05.2.11.29.17.19.11.28.24.38.43.07.07.14.16.2.24s.11.16.17.2l.05.03.02.06c.02.08.05.11.11.16,0,0,.02.02.02.02.04,0,.09,0,.14,0,.2-.06.36,0,.51.05.07.02.14.05.22.06l.05.02c.15.07.16.08.33.08v.32c-.22,0-.29-.02-.45-.11-.09-.02-.17-.04-.24-.07-.13-.04-.22-.07-.34-.03h0l.04.09-.24.02c-.16,0-.29.02-.38.07-.03.02-.08.05-.13.07h0s-.05.04-.05.04c-.04.02-.1.04-.15.04s-.1-.02-.13-.09c-.07-.14.06-.21.12-.25,0,0,.02,0,.02-.02.05-.04.11-.07.16-.1.03-.02.05-.03.06-.04l.03-.03.05-.02s.02,0,.03,0c-.02-.04-.05-.08-.07-.15-.07-.07-.13-.15-.2-.23-.06-.07-.11-.15-.18-.2l-.03-.04c-.08-.16-.14-.25-.29-.34-.08-.07-.16-.11-.24-.16Zm3.62,5.79c-.06,0-.11.02-.18.02-.07,0-.16,0-.24-.05-.11-.02-.25-.06-.3-.18-.06-.13.02-.24.1-.35.02-.03.04-.07.07-.11l.02-.03c.15-.13.26-.29.3-.39l.02-.04.04-.02c.1-.07.14-.16.16-.34-.02-.06-.05-.11-.07-.16-.04-.1-.06-.15-.14-.2-.11-.09-.28-.16-.42-.21l-.07-.02c-.19-.07-.38-.15-.56-.28-.08-.03-.2-.1-.3-.17-.07-.04-.13-.08-.19-.11l-.05-.04s-.07-.09-.11-.12c-.1-.1-.19-.2-.21-.47v-.04c-.1.07-.2.11-.32.13-.16.07-.48.05-.79.02-.05,0-.08,0-.11,0l.02-.32s.07,0,.13,0c.16.02.53.06.65,0,.2-.05.32-.13.45-.31l.07-.09h.13c.14.05.13.18.11.39,0,.07-.02.16-.02.2,0,.15.04.17.12.26.03.03.07.07.11.12.06.03.11.07.18.11.1.07.2.13.29.17.16.12.33.19.51.25l.07.02c.16.07.35.14.49.24.16.1.2.23.25.34.02.05.04.1.07.16l.02.04v.05c-.02.25-.07.44-.25.6-.09.19-.24.36-.35.46-.02.03-.04.07-.07.1,0,0-.02.02-.02.03.02,0,.03,0,.05,0,.12.04.18.03.29.02.06,0,.11-.02.18-.02l.02.32c-.07.02-.12.03-.16.03Zm2.27.19c-.12-.06-.2-.09-.38-.1h-.76c-.22.07-.7.22-.85.24l-.07-.32c.13-.02.62-.17.83-.24h.05s.79,0,.79,0c.25.02.37.07.51.13.05.02.11.05.18.08l.05.03c.16.15.26.24.47.33l.06.04.1.11c.13.15.29.33.38.48.09.21.13.47.13.73,0,.19-.03.29-.07.38-.02.07-.04.13-.05.24-.08.29-.2.49-.37.68-.04.09-.1.14-.2.17l-.09-.31.03-.06c.15-.16.24-.33.31-.54,0-.11.03-.2.06-.27.02-.08.05-.16.05-.29,0-.22-.04-.43-.11-.6-.06-.11-.21-.28-.33-.4-.02-.03-.06-.06-.08-.08-.22-.1-.35-.21-.51-.35-.03-.02-.09-.05-.14-.07Zm4.03,5.24c-.07.03-.1.05-.13.07-.11.06-.22.11-.43.12-.24-.02-.4-.11-.53-.18l-.13-.09c-.08-.06-.16-.11-.24-.16l-.05-.04c-.06-.08-.16-.19-.26-.29-.08-.06-.15-.13-.21-.2-.02-.02-.05-.06-.07-.08l-.03-.05c-.07-.16-.08-.29-.09-.44h-.03s-.07.04-.1.07c-.08.06-.16.11-.35.11h0c-.33,0-.39-.02-.6-.24-.06-.07-.09-.13-.12-.18-.02-.02-.02-.04-.03-.06l.11-.08v-.2c.11,0,.16.08.2.16.02.04.05.09.09.14q.13.13.36.13c.1,0,.12-.02.17-.06.03-.02.07-.05.13-.08.02-.03.05-.07.08-.11.06-.07.11-.15.16-.24,0,0,0,0,0-.02,0-.03,0-.06.02-.09l.02-.05c.06-.11.11-.22.18-.33l.07-.1s.07-.05.09-.07c.08-.07.16-.15.35-.19.02,0,.02,0,.04,0l.05.32s-.02,0-.02,0c-.02,0-.04.02-.07.02,0,0-.02,0-.02.02-.02.04-.06.07-.09.11-.04.05-.09.11-.12.16-.05.06-.08.13-.12.2-.02.03-.03.07-.05.1,0,0,0,.02,0,.02-.02.1-.04.19-.04.31,0,.2,0,.33.06.47.02.02.04.05.07.07.06.07.11.12.17.16.07.07.2.19.31.33.07.05.15.1.22.15l.11.08c.11.06.22.12.37.14.12,0,.19-.04.29-.09.03-.02.07-.03.11-.06.06-.05.13-.1.2-.15.06-.04.11-.07.17-.11.07-.05.15-.14.24-.28l.03-.05.06-.02c.26-.07.46-.03.63.11.1.07.2.16.29.28.03.02.07.05.11.07.03.02.07.05.09.07l-.14.29s-.1-.06-.15-.1c-.03-.02-.07-.05-.1-.07l-.04-.02-.02-.03c-.07-.09-.15-.17-.24-.24-.08-.07-.16-.1-.3-.07-.11.15-.2.24-.29.31-.07.04-.12.08-.18.12-.09.05-.16.09-.24.16Z"/>
      <path class="cls-2" d="m111.74,107.14c-.25-.25-.56-.52-.91-.82-.47-.4-1.01-.84-1.63-1.33-.94-.76-2.04-1.65-3.22-2.68-.67-.59-1.36-1.22-2.07-1.89-.62-.6-1.25-1.25-1.88-1.93l-.39.11-.24.07-.24.07-6.28,1.65-.24.07h-.02c3.42,3.19,7.01,5.49,10.08,6.9,1.8.83,3.43,1.37,4.74,1.59.34.06.67.1.96.11.73.04,1.31-.03,1.71-.24.24-.13.38-.28.39-.45.03-.3-.26-.71-.76-1.21Zm.05,1.54c-.21.09-.51.14-.83.16-.11,0-.21.02-.33.02-.1,0-.2,0-.31-.02-.38-.02-.8-.07-1.27-.16-.72-.14-1.54-.37-2.43-.69-1.31-.47-2.78-1.15-4.35-2.07-1.15-.68-2.36-1.49-3.59-2.43-.95-.72-1.9-1.53-2.87-2.42-.07-.07-.16-.13-.23-.2l-.21-.2,6.26-1.59.24-.07.25-.07h.04s.07.07.07.07c.04.04.08.08.12.13.38.42.77.81,1.15,1.18.58.58,1.15,1.12,1.71,1.62,1.65,1.49,3.18,2.65,4.41,3.6.2.16.4.3.58.45.49.38.89.69,1.21.98.18.16.34.31.47.45.26.29.39.54.37.77,0,.2-.16.37-.43.49Z"/>
      <path class="cls-2" d="m111.45,107.44c-.45-.43-1.18-1-2.03-1.64-.6-.46-1.29-1-2.05-1.6.2.15.36.38.47.73.08.41.12.71-.11,1.01-.1.21-.13.27.02.56.11.13.29.17.6.24l.16.03c.25-.02.53-.07.74-.13l.11.3c-.24.08-.56.14-.86.16h-.02l-.19-.04c-.34-.07-.61-.13-.81-.38-.21-.42-.17-.57-.02-.89.16-.21.14-.4.07-.76-.09-.29-.23-.5-.42-.62-.12-.12-.27-.12-.56-.12h-.16c-.24.07-.58.21-.88.41-.11.06-.19.12-.28.19-.11.08-.24.17-.38.24-.36.2-.68.24-1.13.24v-.32c.2,0,.23-.02.29-.09.13-.1.16-.21.21-.4.02-.08.04-.16.07-.24.02-.27.08-.4.14-.51.03-.07.07-.13.09-.22-.06-.1-.1-.19-.14-.27-.07-.14-.13-.26-.22-.38l-.02-.06c-.03-.11-.07-.2-.11-.29-.02-.07-.06-.13-.08-.21-.14.11-.31.16-.62.18-.42,0-.56-.07-.75-.16-.04-.02-.08-.04-.14-.07l-.11-.05.02-.11s0-.07.02-.11c-.14.11-.27.23-.38.37-.1.11-.13.32-.16.5-.02.08-.03.16-.05.24-.07.29-.16.66-.24.88l-.04.1h-.11c-.39,0-.54-.05-.79-.16l-.07-.02-.02-.07c-.03-.08-.05-.19-.07-.31-.02-.11-.05-.27-.07-.32l-.02-.04v-.11c0-.35,0-.44-.19-.61-.1-.11-.24-.11-.52-.11h-.18c-.4-.05-.7-.15-.96-.3-.16-.05-.25-.12-.3-.22-.08-.16,0-.33.06-.49.24-.37.42-.45.73-.59l.06-.03c.24-.13.43-.24.89-.27h.05c.38.07.5.19.63.32.04.04.08.08.14.12.23.05.48.02.6-.07.02-.12.04-.21.06-.26.02-.07.05-.2.19-.2.12,0,.15.11.15.18h0v.05l-.02.02c0,.07-.03.17-.07.33v.04s-.03.03-.03.03c-.22.24-.65.27-.96.2l-.06-.02c-.08-.07-.15-.12-.2-.17-.11-.11-.17-.17-.45-.23-.37.02-.52.11-.73.23l-.07.04c-.31.14-.42.19-.59.45,0,.03-.07.16-.05.2,0,0,.02.03.12.06l.04.02c.21.14.48.22.82.27h.16c.3,0,.56,0,.75.2.29.26.29.47.29.84v.02c.05.11.07.24.1.39,0,.07.02.13.03.18.15.06.26.09.48.1.07-.21.15-.51.19-.71.02-.1.04-.17.05-.24.04-.24.09-.49.24-.65.16-.2.35-.38.58-.52.11-.13.31-.24.55-.32l.11.3c-.2.09-.26.17-.29.41.02,0,.02,0,.03.02.17.08.27.13.6.13.39-.03.46-.11.6-.29l.25-.33.03.42c.02.2.07.31.12.44.04.09.07.18.11.3.1.13.16.26.23.4.05.1.1.2.16.3l.03.06-.02.07c-.03.17-.09.27-.13.36-.06.11-.1.2-.11.41v.05c-.04.08-.06.16-.07.23-.03.11-.06.23-.11.34.1-.03.19-.07.28-.12.12-.07.23-.15.34-.23.1-.07.2-.14.29-.2.19-.12.58-.35,1.01-.45h.2c.23,0,.43-.02.6.07-1.37-1.12-2.95-2.49-4.54-4.14-.19-.2-.38-.38-.56-.58l-.12.03-5.92,1.51c6,5.53,11.95,7.71,14.62,7.71.2,0,.38,0,.55-.03.19-.02.36-.07.49-.13,0,0,0,0,0,0,.16-.07.24-.15.25-.23,0-.04,0-.09-.03-.14-.03-.07-.08-.16-.16-.26-.11-.12-.2-.22-.31-.33Z"/>
      <path class="cls-2" d="m58.23,62.19c-.33-.57-.67-1.15-1.01-1.74-.79-1.35-1.6-2.74-2.31-4.01l-.08-.16.07-.03c-7.1-12.77-11.75-22.87-11.21-24.55.04-.14.12-.24.24-.29,1.52-.69,8.96,10.15,16.34,22.38l.07-.03.07.12c.76,1.26,1.56,2.66,2.34,4.01.27.47.53.93.8,1.39.12.21.24.43.37.65l.06-.02.29-.14c-10.31-17.79-18.85-29.19-20.7-29.19-.06,0-.11,0-.15.03-.07.03-.11.1-.16.21-.72,2.25,5.63,15.96,14.51,31.35.16,0,.3.02.46.03Z"/>
      <path class="cls-2" d="m56.09,55.7l.23-.11.26-.12,2.35-1.09.27-.12.25-.11.54-.24c-4.96-8.22-9.26-14.64-12.17-18.43l-2.49,1.15c1.85,4.47,5.38,11.51,9.83,19.51l.92-.43Z"/>
      <path class="cls-2" d="m45.64,32.86s.02,0,.02,0c-.82-.88-1.39-1.31-1.63-1.19-.03.02-.07.06-.08.11-.1.3,0,.91.25,1.77.21-.54.82-.86,1.44-.7Z"/>
      <path class="cls-2" d="m47.61,35.21c-.37-.47-.71-.91-1.03-1.29,0,.12.02.24-.02.36-.13.51-.62.86-1.17.86-.11,0-.22-.02-.33-.04-.16-.04-.29-.11-.42-.2.16.44.34.91.56,1.42l2.41-1.11Z"/>
      <path class="cls-2" d="m57.32,59.97s0,.02.02.02c.06.1.11.2.17.29.38.65.76,1.3,1.13,1.94.05,0,.09.02.13.02.02,0,.05,0,.07.02h0l4.34-2,.41-.19h.02c-.37-.65-.73-1.29-1.1-1.94-.02-.03-.03-.06-.05-.09-.05-.08-.1-.16-.14-.24-.33-.58-.67-1.17-1-1.75-.38-.65-.74-1.28-1.11-1.89l-.04.02-.38.17-.22.1-.22.1-2.85,1.31-.24.11-.19.09-.75.34-.04.02c.41.73.85,1.49,1.3,2.26.24.43.48.86.73,1.28Zm-1.26-3.8l.19-.09.24-.11,2.95-1.36.22-.11.21-.1h.02s.02.04.02.04l.05.08c.12.2.24.4.36.6.27.45.52.89.77,1.31.31.55.62,1.08.93,1.63.34.6.7,1.22,1.1,1.92l.09.16-4.21,1.94-.07-.13c-.4-.69-.76-1.31-1.11-1.89-.3-.51-.59-1-.88-1.51-.16-.27-.32-.55-.47-.82-.1-.17-.2-.35-.3-.54-.13-.22-.25-.45-.38-.69l-.08-.16.37-.17Z"/>
      <path class="cls-2" d="m56.57,57.26c.52.91,1.01,1.76,1.53,2.63.33.56.67,1.14,1.04,1.77l3.61-1.67c-.37-.64-.69-1.22-1.01-1.77-.63-1.09-1.22-2.13-1.93-3.32-.02-.02-.03-.06-.05-.08h-.02s-3.27,1.51-3.27,1.51l-.21.1-.11.05c.05.08.09.16.13.24.11.2.2.37.3.54Zm3.09-1.82l2.48,4.28-2.91,1.34-2.48-4.28,2.91-1.34Z"/>
      <polygon class="cls-2" points="59.42 55.91 57.34 56.86 59.29 57.97 59.42 55.91"/>
      <polygon class="cls-2" points="57.43 57.29 59.17 60.29 59.28 58.33 57.43 57.29"/>
      <polygon class="cls-2" points="59.59 58.51 59.48 60.58 61.55 59.62 59.59 58.51"/>
      <polygon class="cls-2" points="59.73 56.19 59.61 58.15 61.46 59.21 59.73 56.19"/>
      <polygon class="cls-2" points="79.24 74.99 78.69 74.54 78.13 74.99 78.68 75.44 79.24 74.99"/>
      <polygon class="cls-2" points="64.87 78.95 65.04 79.08 65.07 79.11 65.63 78.66 65.53 78.59 65.36 78.46 65.07 78.22 64.51 78.67 64.87 78.95"/>
      <polygon class="cls-2" points="65.29 75.59 65.85 76.03 66.38 75.6 65.82 75.16 65.29 75.59"/>
      <polygon class="cls-2" points="71.99 80.82 72.51 80.41 72.31 80.25 72.15 80.13 71.98 80 71.97 79.98 71.46 80.41 71.53 80.46 71.71 80.6 71.86 80.72 71.99 80.82"/>
      <polygon class="cls-2" points="78.68 73.32 78.21 73.69 78.12 73.77 78.14 73.78 78.69 74.22 79.24 73.76 78.68 73.32"/>
      <path class="cls-2" d="m71.16,64.86l.19-.13c-.03-.06-.07-.11-.1-.16-.05.08-.1.17-.16.24l.07.05Z"/>
      <path class="cls-2" d="m73.97,64.87l.07-.05c-.06-.08-.11-.16-.16-.24-.02.06-.07.11-.1.16l.2.13Z"/>
      <polygon class="cls-2" points="66.02 74.99 66.58 75.43 67.12 75 66.55 74.56 66.02 74.99"/>
      <polygon class="cls-2" points="71.01 84.15 70.35 83.62 69.83 84.03 70.5 84.56 71.01 84.15"/>
      <polygon class="cls-2" points="68.88 84.46 69.41 84.04 68.97 83.7 68.9 83.64 68.37 84.07 68.5 84.17 68.88 84.46"/>
      <polygon class="cls-2" points="65.85 77.25 66.41 76.8 65.85 76.36 65.29 76.81 65.85 77.25"/>
      <polygon class="cls-2" points="74.06 81.68 74.09 81.65 73.84 81.45 73.45 81.15 72.94 81.56 73.58 82.06 74.06 81.68"/>
      <polygon class="cls-2" points="65.27 78.05 65.55 78.27 65.71 78.4 65.83 78.5 66.17 78.23 66.42 78.01 66.39 77.99 66.23 77.87 66.06 77.74 65.86 77.58 65.27 78.05"/>
      <polygon class="cls-2" points="71.38 69.46 71.31 69.51 71.72 69.85 71.84 69.95 72.39 69.5 71.86 69.07 71.38 69.46"/>
      <polygon class="cls-2" points="71.33 68.31 71.86 68.74 72.38 68.33 71.85 67.91 71.33 68.31"/>
      <polygon class="cls-2" points="72.06 68.91 72.6 69.33 73.12 68.91 72.59 68.49 72.06 68.91"/>
      <polygon class="cls-2" points="73.58 83.57 72.86 84.14 73.49 84.64 74.21 84.06 73.58 83.57"/>
      <polygon class="cls-2" points="74.7 82.35 74.84 82.24 74.3 81.81 74.24 81.87 73.8 82.23 74.33 82.64 74.7 82.35"/>
      <polygon class="cls-2" points="70.87 82.87 70.37 82.47 69.84 82.89 70.35 83.29 70.87 82.87"/>
      <path class="cls-2" d="m45.75,76.72l2.74-1.5c-.52.03-1.04.07-1.55.11l-1.06.52c-.04.29-.08.57-.12.87Z"/>
      <path class="cls-2" d="m45.71,77.03c-.03.29-.05.57-.07.87l5.4-2.83c-.65.03-1.3.07-1.94.11l-3.38,1.85Z"/>
      <path class="cls-2" d="m45.6,78.97l8.05-4.03c-.71.03-1.44.07-2.16.1l.03.06-5.9,3.09c0,.26-.02.51-.02.78Z"/>
      <path class="cls-2" d="m45.94,75.53l.3-.15c-.09,0-.19.02-.28.02,0,.04-.02.08-.02.12Z"/>
      <path class="cls-2" d="m39.66,78.6l3.2,2.86c-.29-1.8-.26-3.48.09-5.31l-3.29,2.45Z"/>
      <path class="cls-2" d="m71.42,85.28l.28.22c.24-.07.47-.16.7-.24l-.47-.38-.51.4Z"/>
      <path class="cls-2" d="m45.59,79.26c0,.31,0,.62.02.93l10.09-5.33c-.47.02-.94.03-1.41.06l-8.7,4.34Z"/>
      <path class="cls-2" d="m72.14,84.71l.5.4-.07.08c.27-.1.52-.21.78-.33l-.69-.56-.51.41Z"/>
      <path class="cls-2" d="m58.75,74.76l-13.03,6.75c.02.24.07.47.1.7l14.32-7.5c-.43.02-.89.03-1.38.05Z"/>
      <path class="cls-2" d="m58.14,74.77s-.07,0-.12,0c-.56.02-1.14.04-1.74.07l-10.67,5.63c.02.25.03.51.06.75l12.47-6.46Z"/>
      <polygon class="cls-2" points="71.73 83.56 71.08 83.04 70.55 83.45 71.22 83.98 71.73 83.56"/>
      <polygon class="cls-2" points="73.38 82.23 72.73 81.72 72.19 82.15 72.84 82.67 73.38 82.23"/>
      <polygon class="cls-2" points="70.14 83.45 69.63 83.05 69.49 83.17 69.11 83.48 69.16 83.51 69.61 83.87 70.14 83.45"/>
      <polygon class="cls-2" points="72.64 82.83 71.97 82.33 71.29 82.87 71.94 83.4 72.64 82.83"/>
      <path class="cls-2" d="m62.12,74.62c-.42.02-.9.04-1.42.07h0s-14.85,7.8-14.85,7.8c.03.19.07.37.11.55l16.16-8.41Z"/>
      <polygon class="cls-2" points="79.23 72.53 79.22 72.52 79.05 72.4 78.9 72.27 78.67 72.09 78.12 72.54 78.45 72.8 78.61 72.93 78.68 72.98 79.13 72.62 79.23 72.53"/>
      <path class="cls-2" d="m74.02,84.54c.16-.09.3-.19.46-.28l-.05-.04-.41.32Z"/>
      <polygon class="cls-2" points="69.57 85.32 68.89 84.78 68.21 85.32 68.9 85.86 69.57 85.32"/>
      <polygon class="cls-2" points="72.6 69.66 72.04 70.11 72.6 70.56 72.86 70.35 73.15 70.11 73.1 70.07 72.6 69.66"/>
      <polygon class="cls-2" points="78.49 76.81 77.94 76.36 77.76 76.51 77.6 76.64 77.44 76.77 77.38 76.81 77.82 77.17 77.94 77.26 78.08 77.14 78.24 77.01 78.49 76.81"/>
      <path class="cls-2" d="m66.9,85.76l-.16-.13-.16-.13-.02.02-.47.38.05.03.17.12.17.12.1.07h.03l.46-.37-.16-.12Z"/>
      <polygon class="cls-2" points="79.3 72.82 78.88 73.16 79.3 73.47 79.3 72.82"/>
      <polygon class="cls-2" points="77.93 75.16 77.39 75.6 77.94 76.04 78.47 75.61 77.93 75.16"/>
      <polygon class="cls-2" points="71.77 82.16 71.25 81.75 70.57 82.3 71.08 82.71 71.77 82.16"/>
      <polygon class="cls-2" points="78.48 74.38 77.98 73.97 77.92 73.93 77.36 74.38 77.52 74.5 77.93 74.83 78.48 74.38"/>
      <polygon class="cls-2" points="70.19 68.05 70.03 68.17 69.87 68.3 69.83 68.33 70.03 68.49 70.35 68.75 70.45 68.67 70.61 68.55 70.92 68.31 70.4 67.9 70.19 68.05"/>
      <path class="cls-2" d="m76.38,64.61h.03s.02-.09.04-.13l-.02-.05c-.02.06-.04.11-.07.16l.02.02Z"/>
      <polygon class="cls-2" points="73.24 80.99 72.72 80.57 72.2 80.99 72.73 81.4 73.24 80.99"/>
      <path class="cls-2" d="m69.05,86.07c.42-.06.83-.12,1.22-.2h0s-.5-.39-.5-.39l-.73.6Z"/>
      <path class="cls-2" d="m79.3,74.17v-.12l-.41.33.39.31c0-.16.02-.33.02-.51Z"/>
      <path class="cls-2" d="m79.18,76.17l-.5-.4-.54.43.56.44.47-.38s.02-.07.02-.1Z"/>
      <polygon class="cls-2" points="64.51 77.44 65.07 77.88 65.65 77.42 65.08 76.98 64.51 77.44"/>
      <path class="cls-2" d="m79.26,75.31l-.37.29.33.26c.02-.18.02-.37.04-.56Z"/>
      <polygon class="cls-2" points="72.52 81.56 72 81.15 71.45 81.59 71.97 82 72.52 81.56"/>
      <path class="cls-2" d="m65.34,73.27l.43.34.56-.45-.84-.67c-.05.3-.1.56-.16.78Z"/>
      <polygon class="cls-2" points="67.32 74.83 67.58 74.63 67.74 74.49 67.87 74.39 67.31 73.95 67.29 73.97 67.13 74.09 66.76 74.4 67.32 74.83"/>
      <path class="cls-2" d="m64.82,74.64c-.03.17-.06.34-.08.51l.34.27.53-.43-.59-.46-.18.14-.02-.03Z"/>
      <polygon class="cls-2" points="67.53 74.99 68.09 75.43 68.21 75.34 68.37 75.21 68.52 75.08 68.63 74.99 68.08 74.55 68.06 74.56 67.91 74.69 67.75 74.82 67.53 74.99"/>
      <polygon class="cls-2" points="74.03 68.17 74.5 67.79 73.54 67.79 74.03 68.17"/>
      <polygon class="cls-2" points="66.05 76.19 66.62 76.63 67.15 76.2 66.58 75.76 66.05 76.19"/>
      <path class="cls-2" d="m64.94,74.14l.07.06.54-.43-.3-.24c-.09.28-.19.47-.31.61Z"/>
      <polygon class="cls-2" points="74.12 82.81 73.58 82.39 73.04 82.83 73.58 83.24 74.12 82.81"/>
      <polygon class="cls-2" points="72.79 68.33 73.32 68.75 73.82 68.34 73.29 67.93 72.79 68.33"/>
      <polygon class="cls-2" points="70.5 84.89 69.99 85.31 70.5 85.69 71 85.28 70.5 84.89"/>
      <path class="cls-2" d="m70.88,85.72c.17-.04.34-.08.51-.13l-.18-.14-.33.27Z"/>
      <path class="cls-2" d="m64.63,75.79l.24-.2-.19-.15c0,.12-.03.23-.05.34Z"/>
      <polygon class="cls-2" points="74.2 65.01 74.2 65.01 74.21 65.01 74.2 65.01"/>
      <polygon class="cls-2" points="66.79 75.6 67.35 76.04 67.88 75.61 67.32 75.16 66.79 75.6"/>
      <polygon class="cls-2" points="77.36 74.7 77.19 74.58 77.16 74.55 76.62 74.98 76.75 75.08 76.91 75.21 77.18 75.43 77.72 74.99 77.36 74.7"/>
      <polygon class="cls-2" points="71.13 68.15 71.59 67.79 70.68 67.79 71.13 68.15"/>
      <polygon class="cls-2" points="66.55 74.23 66.96 73.9 67.11 73.78 66.54 73.33 66.5 73.36 65.97 73.78 66.55 74.23"/>
      <path class="cls-2" d="m61.79,79.42l-9.67,5.17c.39.07.78.16,1.18.23l-.07-.13,8.53-4.5c0-.25.02-.51.02-.77Z"/>
      <polygon class="cls-2" points="65.23 74.37 65.82 74.83 66.35 74.4 65.77 73.94 65.23 74.37"/>
      <path class="cls-2" d="m68.84,86.1s.07,0,.1-.02l-.04-.06-.06.07Z"/>
      <path class="cls-2" d="m61.86,77.95c.02-.27.03-.54.06-.81l-12.87,6.81c.38.08.75.16,1.13.24l11.69-6.25Z"/>
      <path class="cls-2" d="m61.8,79.13c0-.29.02-.58.04-.87l-11.27,6.03c.38.08.77.16,1.15.24l10.08-5.39Z"/>
      <path class="cls-2" d="m64.48,77.14l.4-.32-.33-.25c-.03.19-.06.38-.07.57Z"/>
      <path class="cls-2" d="m61.8,81.39c0-.3-.02-.6-.02-.91l-8.29,4.37c.4.07.8.15,1.2.21l7.11-3.67Z"/>
      <path class="cls-2" d="m64.38,78.44l.48-.39-.43-.34c-.02.25-.03.49-.05.73Z"/>
      <path class="cls-2" d="m64.34,79.49c0,.07,0,.15,0,.21l.41-.33.13-.11h-.02s-.16-.14-.16-.14l-.33-.27c0,.21,0,.42-.02.63Z"/>
      <polygon class="cls-2" points="70.77 68.75 70.62 68.88 70.55 68.92 70.86 69.16 71.1 69.35 71.22 69.26 71.66 68.91 71.13 68.48 70.77 68.75"/>
      <polygon class="cls-2" points="72.59 68.16 73.05 67.79 72.12 67.79 72.59 68.16"/>
      <path class="cls-2" d="m67.49,85.89l.38.29c.31-.02.62-.05.91-.08l-.78-.62-.52.41Z"/>
      <path class="cls-2" d="m67.04,86.25c.16,0,.3-.02.46-.02l-.21-.16-.24.19Z"/>
      <path class="cls-2" d="m60.95,82.85l.66-.35.23-.12s0-.07,0-.1c0-.09-.02-.18-.02-.27,0-.11,0-.22-.02-.33l-6.7,3.46c.41.07.81.14,1.21.2l4.65-2.48Z"/>
      <path class="cls-2" d="m70.93,65.01h-.02s0,0,0,0h.02Z"/>
      <polygon class="cls-2" points="68.68 84.62 68.32 84.35 68.17 84.24 68.1 84.29 67.52 84.76 67.58 84.81 67.74 84.94 68.01 85.15 68.68 84.62"/>
      <polygon class="cls-2" points="73.37 83.4 72.84 83 72.15 83.56 72.66 83.98 73.37 83.4"/>
      <polygon class="cls-2" points="74.96 83.46 74.33 82.97 73.79 83.4 74.42 83.89 74.96 83.46"/>
      <polygon class="cls-2" points="75.43 83.09 75.59 82.96 75.68 82.9 75.05 82.41 75.05 82.41 74.89 82.54 74.54 82.81 75.17 83.3 75.43 83.09"/>
      <path class="cls-2" d="m43.05,75.71c-4.03.5-7.03,1.28-7.03,2.55,0,1.4,2.93,2.84,7.01,4.11-.03-.17-.07-.33-.11-.5l-3.48-3.1-1.67,1.24-.16-.2,1.63-1.21-1.63-1.45.09-.1.08-.1,1.67,1.49,3.57-2.65s0-.05.02-.07Z"/>
      <polygon class="cls-2" points="72.45 84.14 71.94 83.73 71.42 84.15 71.93 84.55 72.45 84.14"/>
      <polygon class="cls-2" points="66.24 77.55 66.41 77.68 66.57 77.8 66.63 77.85 67.19 77.4 67.06 77.3 66.9 77.17 66.73 77.04 66.63 76.96 66.06 77.41 66.24 77.55"/>
      <path class="cls-2" d="m64.58,76.26l.5.38.56-.46-.56-.43-.49.39s0,.08-.02.11Z"/>
      <path class="cls-2" d="m71.52,65.01s-.03-.04-.05-.07l-.09.07h.14Z"/>
      <path class="cls-2" d="m73.74,65.01l-.09-.06s-.03.04-.05.06h.14Z"/>
      <path class="cls-2" d="m61.96,76.82c.03-.28.06-.55.1-.82l-14.5,7.6c.37.09.73.17,1.11.26l13.29-7.04Z"/>
      <polygon class="cls-2" points="70.29 84.73 69.61 84.2 69.09 84.62 69.78 85.14 70.29 84.73"/>
      <path class="cls-2" d="m62.23,74.85l-16.12,8.39c.4.11.8.2,1.21.3l-.04-.08,14.82-7.77c.03-.27.08-.55.13-.83Z"/>
      <polygon class="cls-2" points="71.72 84.71 71.22 84.31 70.71 84.73 71.22 85.12 71.72 84.71"/>
      <polygon class="cls-2" points="70.23 78.62 69.66 78.18 69.14 78.59 69.7 79.04 70.23 78.62"/>
      <polygon class="cls-2" points="75.09 71.33 75.64 71.78 76.18 71.33 75.62 70.89 75.09 71.33"/>
      <path class="cls-2" d="m62.24,85.81l-.46.24c.16.02.34.03.5.05,0-.1-.02-.2-.04-.29Z"/>
      <polygon class="cls-2" points="71.04 80.41 70.48 79.97 69.93 80.41 70.5 80.85 71.04 80.41"/>
      <polygon class="cls-2" points="78.65 69.66 78.09 70.12 78.66 70.55 79.23 70.09 78.65 69.66"/>
      <polygon class="cls-2" points="79.3 70.37 78.88 70.71 79.3 71.03 79.3 70.37"/>
      <polygon class="cls-2" points="75.06 70.12 75.62 70.56 76.14 70.13 75.58 69.7 75.06 70.12"/>
      <polygon class="cls-2" points="66.37 85.35 65.85 84.95 65.33 85.37 65.87 85.76 66.37 85.35"/>
      <path class="cls-2" d="m79.3,69.37c-.11.02-.22.03-.33.04l-.11.09.43.32v-.45Z"/>
      <polygon class="cls-2" points="66.6 80.33 67.15 79.88 66.59 79.44 66.05 79.88 66.6 80.33"/>
      <polygon class="cls-2" points="66.44 82.91 65.87 82.47 65.27 82.96 65.83 83.4 66.44 82.91"/>
      <polygon class="cls-2" points="68.28 83.82 68.69 83.48 68.64 83.45 68.17 83.07 67.63 83.5 68.16 83.91 68.28 83.82"/>
      <polygon class="cls-2" points="67.96 82.91 67.39 82.47 66.85 82.91 67.43 83.34 67.96 82.91"/>
      <polygon class="cls-2" points="75.64 73.33 75.16 73.73 75.1 73.77 75.45 74.05 75.66 74.21 76.2 73.78 75.64 73.33"/>
      <polygon class="cls-2" points="73.71 69.98 73.57 70.1 73.59 70.13 74.12 70.55 74.65 70.13 74.09 69.68 73.71 69.98"/>
      <polygon class="cls-2" points="66.8 79.27 67.35 79.72 67.97 79.21 67.4 78.78 66.8 79.27"/>
      <polygon class="cls-2" points="74.33 71.94 74.88 72.39 75.44 71.94 74.88 71.49 74.33 71.94"/>
      <polygon class="cls-2" points="77.41 74.02 77.72 73.77 77.66 73.72 77.16 73.32 76.6 73.78 77.16 74.22 77.41 74.02"/>
      <polygon class="cls-2" points="70.29 81.02 69.72 80.58 69.08 81.1 69.63 81.55 70.29 81.02"/>
      <path class="cls-2" d="m77.71,69.2l-.4.33.57.43.56-.46-.16-.12c-.2-.04-.39-.11-.57-.18Z"/>
      <polygon class="cls-2" points="67.21 83.51 66.77 83.17 66.64 83.07 66.03 83.57 66.23 83.73 66.59 84.02 67.21 83.51"/>
      <polygon class="cls-2" points="67.16 81.09 66.61 80.65 66.05 81.1 66.62 81.53 67.16 81.09"/>
      <polygon class="cls-2" points="70.27 79.8 69.7 79.36 69.16 79.81 69.72 80.25 70.27 79.8"/>
      <path class="cls-2" d="m64.88,81.72l-.53-.41c0,.27.02.54.03.82l.5-.41Z"/>
      <polygon class="cls-2" points="67.91 80.5 67.35 80.05 66.81 80.49 67.37 80.93 67.91 80.5"/>
      <path class="cls-2" d="m76.52,68.93l.57.43.36-.29c-.21-.12-.39-.28-.56-.45l-.38.31Z"/>
      <polygon class="cls-2" points="76.56 70.13 77.13 70.57 77.67 70.13 77.1 69.69 76.56 70.13"/>
      <polygon class="cls-2" points="77.13 70.9 76.59 71.33 77.15 71.78 77.69 71.33 77.13 70.9"/>
      <polygon class="cls-2" points="68.37 78 68.94 78.43 69.45 78.01 68.9 77.57 68.37 78"/>
      <polygon class="cls-2" points="76.38 71.5 75.85 71.94 76.4 72.38 76.95 71.94 76.38 71.5"/>
      <polygon class="cls-2" points="76.2 72.55 75.64 72.1 75.09 72.55 75.64 73 76.2 72.55"/>
      <polygon class="cls-2" points="75.82 70.73 76.38 71.17 76.92 70.74 76.35 70.3 75.82 70.73"/>
      <polygon class="cls-2" points="75.78 69.53 76.35 69.97 76.89 69.53 76.32 69.1 75.78 69.53"/>
      <polygon class="cls-2" points="73.24 71.6 73.08 71.73 72.92 71.86 72.82 71.94 73.37 72.38 73.38 72.38 73.54 72.24 73.71 72.12 73.92 71.95 73.36 71.5 73.24 71.6"/>
      <polygon class="cls-2" points="77.15 72.1 76.6 72.55 77.16 72.99 77.71 72.55 77.15 72.1"/>
      <polygon class="cls-2" points="65.84 79.71 66.39 79.27 65.83 78.83 65.28 79.27 65.84 79.71"/>
      <polygon class="cls-2" points="69.5 79.2 68.94 78.77 68.38 79.21 68.95 79.65 69.5 79.2"/>
      <polygon class="cls-2" points="77.9 71.5 77.36 71.94 77.91 72.38 78.47 71.94 77.9 71.5"/>
      <polygon class="cls-2" points="78.66 70.88 78.11 71.33 78.67 71.77 79.23 71.31 78.66 70.88"/>
      <path class="cls-2" d="m65.21,86.28l.45-.36-.54-.38-.33.26c.02.16.05.31.07.47.12,0,.23,0,.34,0Z"/>
      <polygon class="cls-2" points="68.33 76.81 68.89 77.25 69.43 76.81 68.86 76.37 68.33 76.81"/>
      <polygon class="cls-2" points="66.04 78.66 66.59 79.11 67.2 78.62 66.63 78.18 66.04 78.66"/>
      <polygon class="cls-2" points="77.89 70.29 77.33 70.73 77.9 71.17 78.46 70.71 77.89 70.29"/>
      <polygon class="cls-2" points="73.57 71.33 74.12 71.78 74.68 71.33 74.12 70.88 73.57 71.33"/>
      <path class="cls-2" d="m62.09,84.91s0-.03,0-.05l-1.07.6-.78.43c.14.02.28.03.42.05.11.02.23.02.34.04.19.02.38.04.56.06l-.06-.11.7-.38c-.04-.21-.07-.42-.11-.64Z"/>
      <polygon class="cls-2" points="74.68 72.55 74.12 72.11 73.88 72.31 73.71 72.44 73.58 72.55 74.14 72.99 74.18 72.96 74.34 72.82 74.68 72.55"/>
      <polygon class="cls-2" points="74.33 70.71 74.88 71.16 75.41 70.73 74.85 70.29 74.33 70.71"/>
      <polygon class="cls-2" points="65.85 84.61 66.39 84.18 65.98 83.86 65.83 83.73 65.29 84.17 65.29 84.18 65.85 84.61"/>
      <polygon class="cls-2" points="74.29 69.51 74.85 69.95 75.37 69.54 74.81 69.1 74.29 69.51"/>
      <polygon class="cls-2" points="70.99 79.21 70.43 78.78 69.91 79.2 70.47 79.64 70.99 79.21"/>
      <polygon class="cls-2" points="67.39 82.14 67.92 81.71 67.37 81.26 67.01 81.55 66.83 81.7 66.98 81.81 67.39 82.14"/>
      <polygon class="cls-2" points="67.4 78.45 67.96 78 67.39 77.56 66.84 78.01 67.4 78.45"/>
      <path class="cls-2" d="m64.86,82.96l-.45-.37c.02.23.02.46.05.69l.4-.33Z"/>
      <polygon class="cls-2" points="75.01 68.93 75.58 69.37 76.11 68.94 75.54 68.51 75.01 68.93"/>
      <polygon class="cls-2" points="68.74 79.82 68.18 79.38 67.56 79.88 68.11 80.33 68.74 79.82"/>
      <polygon class="cls-2" points="76.4 73.94 75.86 74.37 76.42 74.82 76.96 74.38 76.4 73.94"/>
      <polygon class="cls-2" points="68.73 78.6 68.17 78.16 67.61 78.61 68.18 79.05 68.73 78.6"/>
      <polygon class="cls-2" points="69.43 81.71 68.87 81.26 68.34 81.7 68.9 82.15 69.43 81.71"/>
      <polygon class="cls-2" points="67.6 77.39 68.16 77.83 68.68 77.41 68.13 76.97 67.6 77.39"/>
      <polygon class="cls-2" points="68.67 81.1 68.11 80.66 67.57 81.09 68.14 81.53 68.67 81.1"/>
      <polygon class="cls-2" points="69.52 80.42 68.95 79.97 68.32 80.49 68.87 80.94 69.52 80.42"/>
      <polygon class="cls-2" points="71.76 79.83 71.2 79.38 70.68 79.8 71.25 80.24 71.76 79.83"/>
      <polygon class="cls-2" points="65.87 82.15 66.41 81.71 65.85 81.26 65.29 81.71 65.87 82.15"/>
      <polygon class="cls-2" points="72.06 79.58 72.22 79.45 72.37 79.32 72.51 79.22 71.93 78.78 71.9 78.81 71.74 78.95 71.58 79.07 71.4 79.21 71.97 79.66 72.06 79.58"/>
      <polygon class="cls-2" points="70.77 78.18 70.92 78.06 70.96 78.01 70.69 77.8 70.4 77.57 70.29 77.66 69.87 78.01 70.43 78.45 70.77 78.18"/>
      <polygon class="cls-2" points="65.07 82.79 65.65 82.32 65.09 81.89 64.51 82.35 65.07 82.79"/>
      <path class="cls-2" d="m64.9,85.38l-.2-.15c.02.09.03.18.04.27l.16-.12Z"/>
      <polygon class="cls-2" points="65.08 81.55 65.65 81.1 65.08 80.66 64.52 81.12 65.08 81.55"/>
      <polygon class="cls-2" points="71.41 78.88 71.57 78.76 71.73 78.62 71.73 78.62 71.72 78.61 71.17 78.18 71.09 78.24 70.94 78.37 70.64 78.61 71.2 79.05 71.41 78.88"/>
      <polygon class="cls-2" points="74.88 72.72 74.51 73.02 74.35 73.15 74.34 73.16 74.42 73.22 74.9 73.6 74.98 73.53 75.44 73.16 74.88 72.72"/>
      <polygon class="cls-2" points="70.11 77.48 70.19 77.41 69.73 77.05 69.63 76.98 69.1 77.4 69.66 77.84 70.11 77.48"/>
      <polygon class="cls-2" points="65.85 80.94 66.4 80.49 65.84 80.05 65.29 80.5 65.85 80.94"/>
      <polygon class="cls-2" points="67.96 84.07 67.43 83.67 66.8 84.18 67.31 84.6 67.96 84.07"/>
      <path class="cls-2" d="m76.6,68.21h-.69l-.17.14.57.43.42-.34c-.06-.07-.1-.16-.14-.23Z"/>
      <polygon class="cls-2" points="76.96 73.16 76.4 72.71 75.85 73.16 76.4 73.6 76.96 73.16"/>
      <polygon class="cls-2" points="68.69 82.31 68.14 81.87 67.6 82.3 68.16 82.74 68.69 82.31"/>
      <polygon class="cls-2" points="67.11 84.76 66.59 84.34 66.06 84.78 66.58 85.18 67.11 84.76"/>
      <polygon class="cls-2" points="79.3 72.11 79.3 71.78 79.3 71.6 78.88 71.93 79.06 72.07 79.22 72.2 79.3 72.26 79.3 72.11"/>
      <polygon class="cls-2" points="67.37 76.37 67.35 76.36 66.83 76.79 66.91 76.85 67.07 76.99 67.24 77.11 67.39 77.23 67.92 76.81 67.7 76.63 67.53 76.5 67.37 76.37"/>
      <polygon class="cls-2" points="74.28 68.69 74.03 68.5 73.53 68.91 73.86 69.17 74.02 69.3 74.09 69.35 74.6 68.93 74.44 68.81 74.28 68.69"/>
      <polygon class="cls-2" points="70.37 82.14 71 81.62 71.04 81.59 71.03 81.59 70.87 81.47 70.7 81.34 70.5 81.18 69.84 81.71 70.12 81.94 70.28 82.07 70.37 82.14"/>
      <path class="cls-2" d="m59.29,84.74l.65-.34,1.97-1.02c-.02-.24-.03-.48-.05-.72l-.26.14-.66.35-.66.35-3.54,1.89c.38.06.75.11,1.12.17l-.03-.07.81-.42.66-.33Z"/>
      <polygon class="cls-2" points="78.47 73.16 78.44 73.12 78.28 73 77.92 72.71 77.36 73.16 77.83 73.53 77.92 73.6 78.29 73.3 78.47 73.16"/>
      <polygon class="cls-2" points="73.7 69.37 73.32 69.07 72.81 69.5 73.27 69.87 73.35 69.94 73.76 69.61 73.89 69.51 73.86 69.5 73.7 69.37"/>
      <polygon class="cls-2" points="67.09 85.58 67.28 85.73 67.8 85.32 67.56 85.12 67.39 84.99 67.31 84.92 66.79 85.35 66.93 85.45 67.09 85.58"/>
      <polygon class="cls-2" points="68.1 75.77 67.56 76.2 67.71 76.32 67.88 76.45 68.12 76.64 68.66 76.21 68.33 75.96 68.17 75.83 68.1 75.77"/>
      <path class="cls-2" d="m58.61,85.67c.41.06.81.11,1.2.16l1.7-.95.54-.3v-.03c-.04-.3-.07-.6-.11-.9l-2.66,1.39-.66.34-.45.23c.06,0,.11.02.18.02.08.02.17.03.26.04Z"/>
      <polygon class="cls-2" points="69.63 82.73 69.7 82.67 70.16 82.3 70.1 82.25 69.94 82.12 69.64 81.88 69.11 82.31 69.48 82.6 69.63 82.73"/>
      <polygon class="cls-2" points="73.36 70.27 72.81 70.72 72.8 70.72 72.81 70.72 72.96 70.85 73.35 71.16 73.91 70.71 73.43 70.32 73.36 70.27"/>
      <polygon class="cls-2" points="68.9 83.31 69.43 82.89 69.29 82.78 68.9 82.47 68.37 82.91 68.82 83.26 68.9 83.31"/>
      <path class="cls-2" d="m64.33,80.1c0,.28,0,.56,0,.84l.54-.43-.53-.42h0s0,0,0,0Z"/>
      <path class="cls-2" d="m75.13,68.21h-.33s-.06-.03-.09-.04c-.05-.02-.1-.06-.12-.11l-.35.29.2.16.16.12.16.13.03.02.52-.42-.14-.11-.05-.03Z"/>
      <polygon class="cls-2" points="72.67 70.94 72.64 70.92 72.6 70.89 72.45 71.01 72.29 71.14 72.06 71.33 72.18 71.43 72.34 71.56 72.61 71.78 72.75 71.66 72.91 71.53 73.07 71.4 73.15 71.33 72.79 71.04 72.67 70.94"/>
      <path class="cls-2" d="m65.95,86.13l-.07-.05-.26.21h.17c.11,0,.2,0,.3,0h.06l-.03-.02-.16-.13Z"/>
      <polygon class="cls-2" points="64.52 79.89 64.52 79.9 65.07 80.33 65.64 79.88 65.07 79.44 64.56 79.86 64.52 79.89"/>
      <polygon class="cls-2" points="71.05 81.28 71.21 81.4 71.24 81.43 71.79 80.99 71.68 80.91 71.53 80.78 71.35 80.65 71.25 80.57 70.71 81.01 70.88 81.15 71.05 81.28"/>
      <path class="cls-2" d="m64.87,84.18l-.34-.27c0,.08.02.16.03.24,0,.08.02.17.03.25l.24-.19.04-.04Z"/>
      <polygon class="cls-2" points="66.64 82.74 66.87 82.55 67.18 82.3 66.94 82.11 66.64 81.88 66.63 81.87 66.07 82.31 66.55 82.68 66.64 82.74"/>
      <polygon class="cls-2" points="65.07 84.01 65.26 83.86 65.62 83.57 65.07 83.13 64.52 83.58 64.94 83.91 65.07 84.01"/>
      <path class="cls-2" d="m64.86,85.04l.25.18.54-.43-.57-.44-.42.34-.03.02c0,.06,0,.11.02.17l.22.16Z"/>
      <polygon class="cls-2" points="76.31 81.08 75.76 80.64 75.24 81.05 75.8 81.49 76.31 81.08"/>
      <path class="cls-2" d="m69.25,67.87l.37.29.08-.07.16-.12.16-.13.07-.06h-.84s0,.06,0,.08Z"/>
      <polygon class="cls-2" points="77.05 80.49 76.49 80.04 75.96 80.47 76.52 80.91 77.05 80.49"/>
      <polygon class="cls-2" points="75.46 78.03 74.91 77.6 74.38 78.04 74.92 78.46 75.46 78.03"/>
      <polygon class="cls-2" points="69.78 73.17 70.1 73.44 70.27 73.56 70.33 73.62 70.89 73.16 70.74 73.05 70.58 72.92 70.33 72.72 69.78 73.17"/>
      <polygon class="cls-2" points="70.33 71.17 70.88 70.72 70.34 70.29 69.78 70.74 70.33 71.17"/>
      <polygon class="cls-2" points="75.54 80.47 74.92 79.97 74.41 80.39 75.04 80.89 75.54 80.47"/>
      <polygon class="cls-2" points="75.68 76.98 75.12 77.43 75.67 77.87 76.23 77.42 75.68 76.98"/>
      <polygon class="cls-2" points="74.72 79.81 74.18 79.39 73.67 79.81 74.2 80.23 74.72 79.81"/>
      <polygon class="cls-2" points="73.98 79.23 73.57 78.9 73.44 78.8 73.26 78.94 72.91 79.22 72.96 79.26 73.13 79.39 73.45 79.65 73.98 79.23"/>
      <polygon class="cls-2" points="74.18 79.06 74.72 78.64 74.2 78.22 74.17 78.2 73.64 78.64 73.75 78.72 74.18 79.06"/>
      <polygon class="cls-2" points="75.05 82.07 75.59 81.65 75.04 81.22 74.56 81.61 74.51 81.65 74.88 81.94 75.05 82.07"/>
      <path class="cls-2" d="m67.26,69.95l.29-.22c-.15.04-.3.07-.46.09l.16.13Z"/>
      <polygon class="cls-2" points="77.18 78.18 76.62 78.63 77.23 79.11 77.79 78.66 77.18 78.18"/>
      <polygon class="cls-2" points="69.58 69.35 70.14 68.92 69.61 68.49 69.04 68.92 69.58 69.35"/>
      <polygon class="cls-2" points="78.52 78.06 77.93 77.58 77.39 78.01 77.99 78.49 78.52 78.06"/>
      <polygon class="cls-2" points="77.02 79.27 76.42 78.79 75.88 79.22 76.49 79.7 77.02 79.27"/>
      <polygon class="cls-2" points="77.81 79.89 77.23 79.44 76.69 79.87 77.27 80.33 77.81 79.89"/>
      <path class="cls-2" d="m65.59,71.64c0,.1-.02.19-.03.29,0,.09-.02.18-.03.27h0l.18.14.11-.09.16-.12.27-.2-.65-.51c0,.08-.02.16-.02.24Z"/>
      <polygon class="cls-2" points="71.08 72.11 70.54 72.56 70.75 72.72 70.91 72.85 71.08 72.98 71.09 73 71.64 72.56 71.53 72.47 71.38 72.34 71.22 72.21 71.08 72.11"/>
      <polygon class="cls-2" points="67.45 71.33 68.04 71.79 68.6 71.34 68.02 70.89 67.45 71.33"/>
      <polygon class="cls-2" points="77.72 77.42 77.18 76.98 76.64 77.41 77.18 77.85 77.72 77.42"/>
      <polygon class="cls-2" points="70.34 69.95 70.89 69.51 70.89 69.51 70.89 69.51 70.35 69.08 69.79 69.51 70.34 69.95"/>
      <polygon class="cls-2" points="67.48 72.57 68.05 73.02 68.6 72.57 68.04 72.13 67.48 72.57"/>
      <polygon class="cls-2" points="67.47 70.11 68.02 70.56 68.59 70.12 68.05 69.68 67.47 70.11"/>
      <polygon class="cls-2" points="67.52 73.78 68.08 74.23 68.61 73.79 68.05 73.35 67.52 73.78"/>
      <polygon class="cls-2" points="68.25 71.96 68.81 72.4 69.36 71.96 68.81 71.51 68.25 71.96"/>
      <polygon class="cls-2" points="68.28 74.39 68.83 74.82 68.84 74.83 69.37 74.4 69.29 74.33 68.81 73.96 68.28 74.39"/>
      <polygon class="cls-2" points="66.81 73.11 66.74 73.16 67.12 73.47 67.31 73.61 67.84 73.18 67.28 72.73 66.81 73.11"/>
      <path class="cls-2" d="m78.46,79.4c.05-.13.08-.27.12-.4l-.14.17-.45-.36-.56.45.57.46.43-.34.02.02Z"/>
      <polygon class="cls-2" points="71.39 72.02 71.54 72.15 71.71 72.28 71.85 72.39 72.41 71.94 72.17 71.75 72.02 71.63 71.85 71.5 71.85 71.5 71.29 71.95 71.39 72.02"/>
      <polygon class="cls-2" points="69.02 73.78 69.46 74.14 69.58 74.23 69.89 73.97 70.13 73.78 70.1 73.76 69.93 73.63 69.57 73.34 69.02 73.78"/>
      <polygon class="cls-2" points="71.08 70.56 71.49 70.22 71.63 70.11 71.1 69.68 71.06 69.71 70.55 70.13 71.08 70.56"/>
      <path class="cls-2" d="m76.1,82.9l.07.06c.18-.17.36-.34.52-.53l-.6.47Z"/>
      <polygon class="cls-2" points="67.25 71.16 67.82 70.71 67.25 70.27 66.68 70.71 67.25 71.16"/>
      <polygon class="cls-2" points="69.57 70.57 70.14 70.13 69.57 69.68 69.01 70.12 69.57 70.57"/>
      <polygon class="cls-2" points="69.01 72.57 69.57 73.01 70.13 72.56 69.57 72.12 69.01 72.57"/>
      <path class="cls-2" d="m78.81,78.28l-.08-.07-.53.43.4.32c.07-.23.16-.45.21-.69Z"/>
      <polygon class="cls-2" points="71.08 71.78 71.64 71.33 71.08 70.89 70.53 71.33 71.08 71.78"/>
      <polygon class="cls-2" points="69.78 71.95 70.33 72.4 70.88 71.95 70.33 71.51 69.78 71.95"/>
      <polygon class="cls-2" points="69.02 71.34 69.57 71.78 70.12 71.34 69.57 70.9 69.02 71.34"/>
      <path class="cls-2" d="m65.61,71.4l.07-.09-.06-.07s-.02.11-.02.16Z"/>
      <path class="cls-2" d="m78.13,80.15l-.12-.1-.54.42.36.29c.11-.2.2-.4.3-.61Z"/>
      <polygon class="cls-2" points="75.46 79.22 74.92 78.8 74.39 79.22 74.92 79.65 75.46 79.22"/>
      <polygon class="cls-2" points="76.97 76.81 76.43 76.38 75.89 76.81 76.43 77.25 76.97 76.81"/>
      <path class="cls-2" d="m69.4,68.32l-.22-.17c-.06.18-.13.35-.23.51l.45-.34Z"/>
      <path class="cls-2" d="m78.26,79.86l-.05.04.02.02s.02-.04.02-.06Z"/>
      <path class="cls-2" d="m66.31,69.78l-.41.3.58.46.58-.44-.35-.29c-.15,0-.28,0-.4-.03Z"/>
      <polygon class="cls-2" points="65.89 71.31 66.46 71.76 67.03 71.33 66.47 70.87 65.89 71.31"/>
      <polygon class="cls-2" points="76.43 82.3 75.8 81.81 75.26 82.24 75.89 82.73 76.43 82.3"/>
      <polygon class="cls-2" points="76.43 77.58 75.88 78.03 76.42 78.46 76.98 78.01 76.43 77.58"/>
      <polygon class="cls-2" points="76.2 78.63 75.67 78.19 75.13 78.63 75.67 79.06 76.2 78.63"/>
      <polygon class="cls-2" points="77.14 81.74 76.52 81.24 76.01 81.65 76.63 82.14 77.14 81.74"/>
      <path class="cls-2" d="m77.69,81l-.43-.34-.54.42.62.49c.13-.18.24-.38.35-.57Z"/>
      <polygon class="cls-2" points="76.29 79.88 75.67 79.39 75.13 79.81 75.75 80.31 76.29 79.88"/>
      <path class="cls-2" d="m65.63,71.19l.63-.48-.57-.46c-.02.33-.03.65-.06.94Z"/>
      <path class="cls-2" d="m65.71,69.91l.29-.21c-.1-.03-.19-.07-.27-.11,0,.11-.02.22-.02.33Z"/>
      <polygon class="cls-2" points="66.67 71.93 67.28 72.4 67.83 71.96 67.24 71.49 66.67 71.93"/>
      <polygon class="cls-2" points="68.26 73.18 68.81 73.62 69.36 73.18 68.81 72.73 68.26 73.18"/>
      <polygon class="cls-2" points="68.23 70.72 68.81 71.18 69.37 70.74 68.8 70.28 68.23 70.72"/>
      <polygon class="cls-2" points="68.26 69.52 68.8 69.95 69.37 69.51 68.83 69.08 68.26 69.52"/>
      <polygon class="cls-2" points="74.16 75.76 73.59 76.22 74.15 76.66 74.71 76.21 74.16 75.76"/>
      <polygon class="cls-2" points="72.42 75.61 71.86 75.16 71.31 75.61 71.88 76.05 72.42 75.61"/>
      <polygon class="cls-2" points="72.43 76.82 71.88 76.38 71.35 76.81 71.9 77.26 72.43 76.82"/>
      <polygon class="cls-2" points="73.37 72.71 72.82 73.16 73.37 73.61 73.93 73.16 73.37 72.71"/>
      <polygon class="cls-2" points="71.17 77.85 71.7 77.42 71.14 76.98 70.61 77.41 70.6 77.41 70.62 77.42 71.17 77.85"/>
      <polygon class="cls-2" points="73.94 75.6 73.39 75.16 72.83 75.61 73.39 76.05 73.94 75.6"/>
      <polygon class="cls-2" points="73.93 74.39 73.37 73.94 72.83 74.38 73.39 74.82 73.93 74.39"/>
      <polygon class="cls-2" points="71.31 74.39 71.86 74.84 72.42 74.38 71.86 73.94 71.31 74.39"/>
      <polygon class="cls-2" points="70.55 75 71.11 75.44 71.66 75 71.1 74.56 70.55 75"/>
      <polygon class="cls-2" points="69.81 75.6 70.37 76.05 70.9 75.61 70.35 75.16 69.81 75.6"/>
      <polygon class="cls-2" points="72.61 73 73.17 72.55 72.61 72.1 72.06 72.55 72.61 73"/>
      <polygon class="cls-2" points="73.18 74.99 72.63 74.54 72.06 75 72.63 75.44 73.18 74.99"/>
      <polygon class="cls-2" points="72.06 73.78 72.63 74.22 73.17 73.78 72.61 73.33 72.06 73.78"/>
      <polygon class="cls-2" points="70.58 76.21 71.14 76.65 71.67 76.22 71.11 75.78 70.58 76.21"/>
      <polygon class="cls-2" points="72.46 78.03 71.9 77.58 71.38 78.01 71.93 78.46 72.46 78.03"/>
      <polygon class="cls-2" points="71.31 73.16 71.86 73.6 72.41 73.16 71.85 72.72 71.31 73.16"/>
      <polygon class="cls-2" points="69.8 74.37 69.79 74.4 69.79 74.4 70.34 74.84 70.89 74.4 70.33 73.95 69.8 74.37"/>
      <polygon class="cls-2" points="73.23 78.64 72.67 78.19 72.15 78.62 72.71 79.06 73.23 78.64"/>
      <polygon class="cls-2" points="73.94 76.82 73.39 76.38 72.85 76.82 73.4 77.26 73.94 76.82"/>
      <polygon class="cls-2" points="73.18 76.22 72.63 75.78 72.08 76.22 72.64 76.66 73.18 76.22"/>
      <polygon class="cls-2" points="73.2 77.43 72.64 76.99 72.11 77.42 72.67 77.86 73.2 77.43"/>
      <polygon class="cls-2" points="70.54 73.78 71.1 74.23 71.66 73.78 71.09 73.33 70.54 73.78"/>
      <polygon class="cls-2" points="74.69 74.99 74.14 74.55 73.59 74.99 74.15 75.43 74.69 74.99"/>
      <polygon class="cls-2" points="75.45 75.61 74.9 75.16 74.36 75.6 74.91 76.04 75.45 75.61"/>
      <polygon class="cls-2" points="75.32 76.69 75.16 76.56 74.91 76.37 74.36 76.82 74.69 77.09 74.85 77.21 74.91 77.27 75.48 76.81 75.32 76.69"/>
      <polygon class="cls-2" points="75.65 76.63 75.68 76.65 76.22 76.21 76.1 76.12 75.94 76 75.78 75.87 75.66 75.77 75.12 76.2 75.33 76.37 75.49 76.5 75.65 76.63"/>
      <polygon class="cls-2" points="69.58 74.56 69.04 74.99 69.16 75.07 69.61 75.43 70.14 75 69.61 74.58 69.58 74.56"/>
      <polygon class="cls-2" points="74.17 77.87 74.47 77.62 74.71 77.43 74.68 77.4 74.51 77.28 74.16 76.99 73.61 77.43 74.06 77.78 74.17 77.87"/>
      <polygon class="cls-2" points="73.44 78.47 73.97 78.04 73.88 77.97 73.4 77.59 72.87 78.02 73.42 78.46 73.44 78.47"/>
      <polygon class="cls-2" points="71.83 70.29 71.66 70.42 71.29 70.72 71.85 71.16 72.12 70.94 72.28 70.81 72.39 70.72 71.84 70.28 71.83 70.29"/>
      <polygon class="cls-2" points="73.49 80.79 73.65 80.66 73.99 80.39 73.46 79.97 73.2 80.19 73.04 80.32 72.92 80.41 73.45 80.82 73.49 80.79"/>
      <path class="cls-2" d="m78.92,77.78s0-.03,0-.05c.07-.35.15-.72.2-1.09l-.22.17.16.12-.16.2-.2-.16-.28.22-.16.13-.12.1.59.47.04-.03.13-.11.03.02Z"/>
      <polygon class="cls-2" points="77.58 76.32 77.73 76.2 77.18 75.76 77.11 75.83 76.95 75.95 76.78 76.09 76.63 76.21 77.18 76.65 77.26 76.59 77.42 76.45 77.58 76.32"/>
      <polygon class="cls-2" points="76.93 75.64 76.98 75.6 76.74 75.4 76.65 75.34 76.58 75.28 76.42 75.15 76.42 75.15 76.29 75.25 76.13 75.38 75.86 75.6 75.95 75.67 76.11 75.8 76.27 75.92 76.43 76.05 76.61 75.9 76.77 75.76 76.93 75.64"/>
      <polygon class="cls-2" points="72.72 80.24 72.86 80.13 73.02 80 73.25 79.81 72.95 79.57 72.78 79.45 72.71 79.39 72.55 79.51 72.4 79.64 72.24 79.77 72.18 79.82 72.33 79.94 72.49 80.06 72.6 80.15 72.72 80.24"/>
      <polygon class="cls-2" points="68.38 75.53 68.3 75.6 68.35 75.64 68.51 75.77 68.77 75.96 68.86 76.04 69 75.93 69.16 75.8 69.4 75.61 68.98 75.26 68.84 75.16 68.69 75.28 68.66 75.3 68.54 75.41 68.38 75.53"/>
      <path class="cls-2" d="m75.77,83.15l-.16.12-.24.19h.02s-.16.21-.16.21l-.07-.05-.54.42.08.07c.35-.23.69-.47,1-.74.05-.04.11-.08.16-.12.04-.03.07-.07.11-.11l-.1-.07-.12.09Z"/>
      <polygon class="cls-2" points="66 72.45 65.92 72.51 66.3 72.81 66.54 73 66.64 72.91 67.07 72.57 66.46 72.09 66.15 72.33 66 72.45"/>
      <polygon class="cls-2" points="74.29 81.49 74.38 81.42 74.83 81.05 74.2 80.55 73.83 80.85 73.67 80.98 73.66 80.99 73.71 81.02 74.29 81.49"/>
      <polygon class="cls-2" points="74.69 73.77 74.5 73.61 74.14 73.33 73.58 73.78 74.14 74.22 74.66 73.79 74.69 73.77"/>
      <polygon class="cls-2" points="76.11 75.07 76.21 74.98 75.66 74.54 75.64 74.55 75.49 74.68 75.1 74.99 75.66 75.43 75.96 75.2 76.11 75.07"/>
      <polygon class="cls-2" points="70.43 77.22 70.93 76.81 70.37 76.37 69.97 76.7 69.84 76.81 70.4 77.25 70.43 77.22"/>
      <polygon class="cls-2" points="69.17 76.12 69.07 76.2 69.63 76.64 69.64 76.64 69.79 76.51 70.17 76.21 69.61 75.77 69.33 75.99 69.17 76.12"/>
      <polygon class="cls-2" points="75.45 74.38 74.9 73.93 74.83 73.98 74.34 74.38 74.9 74.83 75.31 74.49 75.45 74.38"/>
      <path class="cls-2" d="m78.96,58.01c-.08.23-.19.44-.33.64.07,0,.12.02.19.02.16,0,.33-.04.48-.1,0,0,.02,0,.02,0v-.6h-.02c-.11.02-.23.02-.34.04Z"/>
      <path class="cls-2" d="m69,58.86c-.12-.17-.23-.36-.3-.56-.11.17-.24.33-.39.48.16.07.33.11.51.11.06,0,.12-.02.19-.02Z"/>
      <path class="cls-2" d="m71.67,59.05c-.17-.19-.32-.39-.42-.62-.12.2-.26.4-.44.57.16.07.33.11.51.11.11,0,.23-.02.35-.06Z"/>
      <path class="cls-2" d="m66.31,58.66c.07,0,.13-.02.19-.02-.14-.2-.24-.41-.33-.64-.11-.02-.23-.02-.33-.04h-.02v.6s.02,0,.02,0c.15.07.31.1.47.1Z"/>
      <path class="cls-2" d="m74.32,59c-.18-.16-.32-.36-.44-.57-.11.23-.25.43-.42.62.11.03.24.06.36.06.17,0,.33-.04.5-.11Z"/>
      <path class="cls-2" d="m76.82,58.77c-.16-.14-.28-.3-.39-.48-.08.2-.18.39-.3.56.07,0,.12.02.19.02.18,0,.35-.04.51-.11Z"/>
      <path class="cls-2" d="m65.81,59.75h.02c.31.05.62.08.93.12.23.03.46.07.69.09.41.05.82.08,1.22.11.16.02.31.03.47.04.53.04,1.07.07,1.61.09.03,0,.07,0,.1,0,1.14.04,2.29.04,3.44,0,.03,0,.07,0,.1,0,.54-.02,1.07-.05,1.61-.09.16,0,.32-.03.47-.04.41-.03.82-.07,1.22-.11.23-.02.46-.06.69-.09.31-.04.62-.07.93-.12h.02v-.24h-.02c-.16.02-.31.04-.48.04-.36,0-.7-.07-1.01-.18-.43.24-.94.4-1.49.4-.36,0-.69-.07-1.01-.18-.43.25-.94.4-1.49.4-.46,0-.87-.11-1.25-.28-.38.17-.79.28-1.25.28-.56,0-1.06-.15-1.49-.4-.31.11-.65.18-1.01.18-.56,0-1.06-.15-1.49-.4-.31.11-.65.18-1.01.18-.16,0-.32-.02-.47-.04h-.02v.24h-.02Z"/>
      <path class="cls-2" d="m74,55.66c-.07,0-.12-.02-.19-.02-.12,0-.24.02-.36.06.11.12.21.25.29.4.07-.15.16-.29.25-.43Z"/>
      <path class="cls-2" d="m76.2,56c.08-.2.18-.39.3-.56-.07,0-.12-.02-.19-.02-.18,0-.34.04-.51.11.15.15.28.31.39.48h0Z"/>
      <path class="cls-2" d="m71.13,55.66c.1.14.18.28.25.43.08-.15.18-.28.29-.4-.11-.03-.24-.06-.36-.06-.07,0-.13.02-.19.02Z"/>
      <path class="cls-2" d="m78.31,55.3c.14.13.26.28.37.43.2-.02.42-.05.62-.08h.02v-.35s-.02,0-.02,0c-.16-.06-.31-.1-.48-.1s-.34.04-.51.11Z"/>
      <path class="cls-2" d="m75.34,54.7h-1.49s-.09.04-.14.07c.03,0,.07,0,.1,0,.36,0,.69.07,1.01.18.16-.1.33-.17.51-.24Z"/>
      <path class="cls-2" d="m72.55,55.03h0s0,0,0,0c0,0,0,0,0,0h-.02Z"/>
      <path class="cls-2" d="m66.45,55.74c.11-.16.23-.3.37-.43-.16-.07-.33-.11-.51-.11-.16,0-.33.04-.47.1,0,0-.02,0-.02,0v.35h.02c.2.03.41.06.61.08Z"/>
      <path class="cls-2" d="m68.81,55.42c-.07,0-.13.02-.19.02.12.17.23.36.3.56h0c.11-.17.24-.33.39-.48-.16-.07-.33-.11-.51-.11Z"/>
      <path class="cls-2" d="m71.39,54.77s-.09-.04-.14-.07h-1.48c.19.07.36.14.52.24.31-.11.65-.18,1.01-.18.03,0,.06,0,.08,0Z"/>
      <path class="cls-2" d="m77.56,57.92s0,0,0,0c.04,0,.08,0,.12,0h.02c.11-.23.17-.49.17-.76,0-.38-.11-.73-.31-1.01-.03,0-.07,0-.11,0-.11.24-.18.51-.18.78,0,.37.11.71.29.99Z"/>
      <path class="cls-2" d="m72.26,57.37c0,.29.07.57.2.82h.2c.12-.24.2-.52.2-.82,0-.35-.1-.69-.27-.96h-.05c-.16.28-.27.61-.27.96Z"/>
      <path class="cls-2" d="m67.26,57.15c0,.27.07.52.17.76h.02s.08,0,.11.02h0c.18-.29.29-.63.29-.99,0-.28-.07-.55-.18-.78-.03,0-.07,0-.11,0-.2.28-.31.63-.31,1Z"/>
      <path class="cls-2" d="m70.09,56.33c-.2.29-.33.65-.33,1.04,0,.26.06.51.16.73h0c.06,0,.11,0,.16,0h0c.17-.28.27-.61.27-.97,0-.29-.07-.57-.2-.82-.02,0-.04,0-.07,0Z"/>
      <path class="cls-2" d="m79.32,55.92h-.02c-.16.02-.32.04-.48.06.09.17.16.35.21.54-.07-.02-.14-.03-.21-.03-.34,0-.63.2-.63.44s.28.44.63.44c.11,0,.2-.02.28-.05,0,.14-.02.29-.06.42h0c.08,0,.17-.02.25-.03h.02v-.51c.07-.07.13-.16.13-.25s-.05-.18-.13-.25v-.76h0Z"/>
      <path class="cls-2" d="m75.04,58.12c.06,0,.11,0,.16,0h0c.1-.23.16-.47.16-.73,0-.39-.12-.74-.33-1.04h-.07c-.12.24-.2.52-.2.82,0,.35.11.69.28.96h0Z"/>
      <path class="cls-2" d="m71.31,61.77c-.07,0-.13.02-.19.02.1.13.18.28.25.43.08-.15.18-.28.29-.4-.12-.03-.24-.06-.36-.06Z"/>
      <path class="cls-2" d="m68.92,62.13c.11-.17.24-.33.39-.48-.16-.07-.33-.11-.51-.11-.07,0-.12.02-.19.02.13.18.23.37.3.56h0Z"/>
      <path class="cls-2" d="m70.3,61.07c.31-.11.65-.18,1.01-.18.46,0,.87.11,1.25.28.38-.17.79-.28,1.25-.28.36,0,.69.07,1.01.18.43-.25.94-.4,1.49-.4.36,0,.7.07,1.01.18.43-.25.94-.4,1.49-.4.16,0,.33.02.48.04h.02v-.49h-.02c-.28.04-.55.07-.82.11-.26.03-.52.07-.78.1-.37.04-.73.07-1.09.1-.2.02-.41.04-.6.06-.45.03-.9.06-1.34.07-.12,0-.24.02-.37.02-1.14.04-2.29.04-3.44,0-.12,0-.24-.02-.37-.02-.45-.02-.9-.04-1.34-.07-.2-.02-.41-.04-.61-.06-.37-.03-.73-.06-1.09-.1-.26-.03-.52-.07-.78-.1-.28-.03-.55-.07-.82-.11h-.02v.49h.02c.16-.02.31-.04.47-.04.56,0,1.06.15,1.49.4.31-.11.65-.18,1.01-.18.56,0,1.06.15,1.49.4Z"/>
      <path class="cls-2" d="m76.32,61.55c-.18,0-.34.04-.51.11.15.14.28.3.39.48h0c.08-.2.18-.39.3-.56-.07,0-.13-.02-.19-.02Z"/>
      <path class="cls-2" d="m66.81,61.44c-.16-.07-.33-.11-.51-.11-.16,0-.33.04-.47.1,0,0-.02,0-.02,0v.36h.02c.2.03.41.05.62.08.1-.16.22-.31.36-.44Z"/>
      <path class="cls-2" d="m73.46,61.82c.11.12.2.25.29.4.07-.16.16-.29.25-.43-.07,0-.12-.02-.19-.02-.13,0-.24.03-.36.06Z"/>
      <path class="cls-2" d="m79.32,61.79v-.36s-.02,0-.02,0c-.16-.06-.31-.1-.48-.1s-.34.04-.51.11c.14.13.26.28.37.43.2-.02.42-.05.62-.08,0,0,0,0,.02,0Z"/>
      <path class="cls-2" d="m65.81,57.18v.51h.02c.08,0,.16.02.25.03h0c-.03-.13-.05-.28-.06-.42,0-.06-.02-.11-.02-.17,0-.22.03-.43.09-.63.05-.19.12-.37.21-.54-.16-.02-.32-.04-.47-.06h-.02v.76c-.07.07-.13.16-.13.25h0c0,.1.04.18.11.25Z"/>
      <path class="cls-2" d="m68.19,57.15c0,.17.14.32.34.39,0-.06-.02-.11-.02-.17,0-.22.03-.43.09-.63-.24.06-.42.22-.42.41Z"/>
      <path class="cls-2" d="m71.05,57.77c-.02-.13-.04-.26-.04-.4s.02-.27.04-.4c-.22.07-.37.22-.37.4s.16.33.37.4Z"/>
      <path class="cls-2" d="m73.6,57.78c-.05-.2-.09-.41-.09-.63,0-.06.02-.11.02-.17-.2.07-.34.22-.34.39,0,.19.18.35.42.41Z"/>
      <path class="cls-2" d="m75.69,57.15c0,.19.17.35.42.41-.05-.2-.09-.41-.09-.63,0-.06.02-.11.02-.17-.2.07-.34.22-.34.39Z"/>
      <path class="cls-2" d="m77.27,63.06c0,.12.02.24.04.36.17-.11.35-.21.55-.29-.02-.32-.13-.62-.29-.87-.03,0-.07,0-.11,0-.11.24-.19.51-.19.78Z"/>
      <path class="cls-2" d="m75.21,64.25c.1-.23.16-.47.16-.73,0-.38-.12-.74-.33-1.04h-.07c-.12.24-.2.52-.2.82,0,.36.1.69.27.97.06-.02.11-.02.17-.02Z"/>
      <path class="cls-2" d="m72.66,64.33c.12-.24.2-.52.2-.82,0-.35-.1-.69-.27-.96h-.05c-.17.28-.27.61-.27.96,0,.29.07.57.2.82h.2Z"/>
      <path class="cls-2" d="m70.36,63.28c0-.29-.07-.57-.2-.82h-.07c-.2.29-.33.65-.33,1.04,0,.26.06.51.16.73.06,0,.11,0,.16,0,.18-.27.28-.6.28-.96Z"/>
      <path class="cls-2" d="m67.56,62.27c-.07.11-.14.23-.19.36.16.03.31.08.45.14-.02-.17-.08-.33-.16-.49-.03,0-.07,0-.11,0Z"/>
      <path class="cls-2" d="m65.81,62.05v.73s0,0,.02,0c.02,0,.03-.02.06-.02.03-.02.07-.02.11-.03.03,0,.07-.02.1-.02,0,0,0-.02,0-.03.05-.19.12-.37.21-.54-.16-.02-.32-.04-.48-.06,0,0,0,0-.02,0Z"/>
      <path class="cls-2" d="m68.6,62.87c-.12.03-.22.09-.29.16.08.06.16.11.24.18,0-.11.02-.23.06-.34Z"/>
      <path class="cls-2" d="m70.68,63.5c0,.18.16.33.37.4-.02-.13-.04-.26-.04-.4s.02-.27.04-.4c-.21.07-.37.22-.37.4Z"/>
      <path class="cls-2" d="m73.19,63.5c0,.19.17.35.42.41-.05-.2-.09-.41-.09-.63,0-.06.02-.11.02-.17-.2.08-.34.22-.34.39Z"/>
      <path class="cls-2" d="m75.69,63.28c0,.19.17.35.42.41-.05-.2-.09-.41-.09-.63,0-.06.02-.11.02-.17-.2.08-.34.22-.34.39Z"/>
      <path class="cls-2" d="m78.2,63.04c.18-.04.36-.07.56-.07.02,0,.04,0,.06,0,.08,0,.16.02.24.02h.03c.07,0,.14.02.2.02h0s.02,0,.02,0c.04,0,.08.02.12.03h0c0-.07-.02-.13-.05-.18-.02-.03-.05-.06-.07-.08v-.76h-.02c-.16.02-.32.04-.48.06.09.17.16.35.21.54-.07-.02-.14-.03-.21-.03-.33,0-.6.2-.62.42Z"/>
      <path class="cls-2" d="m62.3,84.47s0,.08.02.11c0,.05,0,.09.02.14,0,.02,0,.04,0,.07.02.21.07.42.1.63,0,.04.02.09.02.13,0,.04.02.09.02.13.02.15.05.29.07.44,0,.05.02.1.02.14,0,.02,0,.02,0,.04h2.03s0-.03,0-.05c-.02-.09-.02-.18-.04-.27,0-.05-.02-.1-.02-.15s-.02-.1-.02-.15c-.03-.22-.07-.45-.11-.67,0-.04-.02-.08-.02-.12h0s0-.04,0-.06c0-.03,0-.07-.02-.1v-.03s0-.08-.02-.12c0-.02,0-.04,0-.06-.02-.17-.04-.34-.06-.51-.02-.11-.02-.24-.04-.35v-.02c-.02-.19-.04-.38-.06-.56-.07-.91-.12-1.82-.12-2.74,0-.1,0-.2,0-.3,0-.1,0-.2,0-.3.02-1.13.1-2.26.23-3.39,0-.05,0-.1.02-.15h0v-.03h0c0-.07,0-.12.02-.18.03-.25.07-.5.11-.75,0-.05.02-.1.02-.15s.02-.1.02-.15c.03-.2.06-.4.1-.6,0-.02,0-.05.02-.07h-2.03s-.02.1-.02.15-.02.1-.02.15c0,.02,0,.05,0,.07,0,0,0,.02,0,.03-.05.28-.09.56-.13.84,0,.05-.02.11-.02.16s-.02.11-.02.16c-.04.28-.07.55-.1.82,0,.05-.02.11-.02.16,0,.05-.02.11-.02.16-.02.27-.05.55-.07.82,0,.05,0,.1,0,.16,0,.05,0,.1,0,.16-.02.29-.04.59-.05.87v.29c0,.25-.02.51-.02.77v.29c0,.3,0,.6.02.91v.29c0,.07,0,.15,0,.22,0,.09,0,.18.02.28,0,.07,0,.14.02.2,0,.02,0,.04,0,.07,0,.02,0,.05,0,.07,0,.05,0,.1,0,.14.02.24.02.48.05.73,0,.05,0,.09.02.14,0,.05,0,.09.02.14.03.31.07.61.11.92-.04.03-.04.04-.04.05Z"/>
      <path class="cls-2" d="m43.14,81.89s.02.07.02.11c.02.15.05.29.08.43,0,.05.02.1.02.15,0,.04,0,.07.02.11l2.55.76s-.02-.1-.02-.15-.02-.1-.02-.14c-.04-.19-.08-.38-.11-.58,0-.04-.02-.09-.02-.13,0-.04,0-.09-.02-.14-.03-.24-.07-.47-.09-.71,0-.05-.02-.09-.02-.14,0-.05,0-.09-.02-.14-.02-.24-.04-.5-.06-.75,0-.05,0-.09,0-.14s0-.1,0-.14c-.02-.31-.02-.62-.02-.94v-.29c0-.25,0-.51.02-.76,0-.05,0-.1,0-.15,0-.05,0-.1,0-.16.02-.29.04-.57.07-.86,0-.06.02-.11.02-.16,0-.06.02-.11.02-.16.03-.29.07-.59.12-.87,0-.06.02-.11.03-.16,0-.06.02-.11.03-.16.02-.07.02-.14.04-.21,0-.05.02-.1.03-.15,0-.05.02-.1.02-.14,0,0,0-.02,0-.03l-.6.09-1.96.29s0,.04,0,.07c0,.05-.02.1-.02.15s-.02.09-.02.14c0,.05-.02.11-.02.16-.4,1.97-.43,3.76-.09,5.7,0,.05,0,.11.02.19Z"/>
      <path class="cls-2" d="m75.87,50.36l-1.27,1.37c.14.18.23.38.3.58.36-.43.93-.72,1.58-.72.02,0,.05,0,.08,0,0,0-.02,0-.02-.02-.37-.36-.6-.78-.68-1.22Z"/>
      <path class="cls-2" d="m68.54,51.6s.07,0,.1,0c.65,0,1.22.29,1.58.71.07-.2.16-.41.3-.58l-1.28-1.37c-.08.45-.33.88-.7,1.25Z"/>
      <path class="cls-2" d="m78.38,53.72h0c-.02.06-.03.1-.05.15h0s-.03.09-.06.13c-.07.14-.16.26-.27.38h1.27v-.5h0v-1.24c-.38,0-.74-.07-1.09-.16.16.25.27.54.27.85,0,.09-.02.17-.03.26,0,.04-.02.09-.03.14Z"/>
      <path class="cls-2" d="m67.11,54.38c-.11-.11-.2-.24-.27-.38-.02-.04-.03-.09-.05-.13h0c-.02-.06-.03-.1-.05-.15h0c-.02-.06-.02-.11-.03-.16-.02-.08-.03-.17-.03-.26,0-.3.1-.58.25-.82-.33.09-.69.16-1.09.16v1.23h0v.51h1.27Z"/>
      <path class="cls-2" d="m74.79,54.17s-.06-.08-.08-.13c-.02-.03-.03-.06-.05-.09-.02.03-.03.07-.06.09-.03.05-.08.09-.11.14-.04.05-.08.09-.13.13-.02.02-.03.04-.06.06h.65s-.06-.06-.08-.09c-.02-.02-.05-.06-.08-.11Z"/>
      <path class="cls-2" d="m70.62,54.19s-.08-.09-.11-.14c-.02-.03-.04-.06-.06-.09-.02.03-.03.06-.05.08-.02.04-.05.08-.08.12-.02.04-.05.08-.08.12-.02.03-.06.06-.08.09h.65s-.04-.04-.06-.06c-.05-.03-.09-.08-.13-.13Z"/>
      <polygon class="cls-2" points="69.75 47.73 69.75 49.88 69.75 49.91 75.36 49.91 75.36 49.87 75.36 47.73 75.14 47.73 69.97 47.73 69.75 47.73"/>
      <rect class="cls-2" x="70.24" y="45.27" width="4.65" height="2.19"/>
      <polygon class="cls-2" points="70.24 42.81 70.24 45 74.87 45 74.87 42.81 74.65 42.81 70.46 42.81 70.24 42.81"/>
      <rect class="cls-2" x="70.73" y="39.55" width="3.66" height="3"/>
      <path class="cls-2" d="m74.55,38.08c-.56.11-1.15.18-1.76.18-.78,0-1.54-.11-2.23-.3v1.31h3.99s0-1.18,0-1.18Z"/>
      <path class="cls-2" d="m75.77,33.68c0,.69.65,1.73,1.05,2.32.2-.16.38-.34.54-.53-.47-.31-.79-.82-.79-1.38,0-.65.42-1.22,1.02-1.51-.2-.31-.49-.6-.82-.86-.41.49-1,1.3-1,1.96Z"/>
      <path class="cls-2" d="m69.01,34.1c0,.57-.31,1.07-.79,1.38.16.19.33.37.54.53.41-.59,1.06-1.63,1.06-2.32s-.6-1.48-1-1.95c-.33.26-.61.54-.82.86.6.28,1.01.84,1.01,1.5Z"/>
      <path class="cls-2" d="m70.08,33.68c0,.78-.69,1.88-1.11,2.49-.11.16-.21.29-.27.38.07.07.15.12.23.19.13.11.27.2.42.28l-.03-.04h0s.05-.08.05-.08c0,0,.09-.14.21-.34.39-.65,1.18-2.08,1.18-2.86s-.76-1.91-1.15-2.47c-.13-.18-.21-.29-.23-.31-.23.11-.45.21-.65.33.07.07.17.19.29.32.42.51,1.05,1.37,1.05,2.12Z"/>
      <path class="cls-2" d="m76.01,36.54c.11.18.18.29.2.33.23-.11.47-.22.66-.35-.06-.08-.15-.2-.25-.34-.42-.61-1.11-1.71-1.11-2.48s.63-1.61,1.06-2.12c.11-.13.21-.24.29-.32-.2-.12-.42-.23-.65-.33-.02.02-.1.13-.23.31-.4.56-1.15,1.71-1.15,2.46,0,.77.8,2.2,1.19,2.85Z"/>
      <path class="cls-2" d="m70.91,34.33c-.24.82-.78,1.8-1.1,2.33-.07.12-.13.22-.17.29.12.14.25.24.38.33,0,0,0,0,0,0,.08.05.16.1.25.14.05.02.09.04.14.06.04.02.09.02.14.04.22.06.46.09.71.11.31.02.65.02,1.05.02h.47c.74,0,1.28-.02,1.76-.12.05,0,.09-.02.14-.03s.09-.02.14-.04c.27-.08.53-.19.79-.34.1-.06.2-.11.31-.19-.04-.07-.09-.15-.16-.25-.32-.53-.87-1.52-1.1-2.34-.13.83-.92,1.48-1.89,1.48-.96,0-1.74-.65-1.87-1.48Z"/>
      <path class="cls-2" d="m71,33.51c.27-.65.96-1.13,1.79-1.13s1.52.47,1.79,1.14c.09-.81.78-1.87,1.16-2.42.07-.1.13-.19.18-.24-.11-.07-.2-.12-.3-.18-.32-.18-.62-.3-.96-.38,0,.02,0,.06-.02.08-.02.11-.07.22-.12.33-.3.6-.96,1.02-1.74,1.02s-1.45-.42-1.74-1.02c-.05-.11-.09-.21-.12-.33,0-.02,0-.06-.02-.08-.33.08-.63.2-.95.38-.1.06-.2.11-.3.19.05.06.11.15.18.24.4.54,1.08,1.6,1.17,2.41Z"/>
      <path class="cls-2" d="m66.75,34.77c.11.03.23.06.36.06.06,0,.11-.02.16-.02.17-.02.33-.08.46-.17.19-.14.31-.33.31-.54,0-.24-.16-.45-.38-.58-.14-.08-.3-.14-.49-.15-.02,0-.04,0-.06,0-.17,0-.32.05-.46.11-.28.13-.48.36-.48.63,0,.3.24.56.58.68Z"/>
      <path class="cls-2" d="m77.85,34.64c.12.09.29.15.46.17.06,0,.11.02.16.02.13,0,.24-.02.36-.06.33-.11.57-.38.57-.69,0-.28-.2-.51-.48-.63-.14-.07-.29-.11-.46-.11-.02,0-.04,0-.06,0-.19,0-.35.07-.49.15-.23.14-.39.34-.39.58.02.22.14.41.33.55Z"/>
      <path class="cls-2" d="m73.72,34.1c0-.41-.42-.74-.93-.74s-.93.33-.93.74.42.74.93.74c.51,0,.93-.33.93-.74Z"/>
      <path class="cls-2" d="m71.87,30.06s0,0,0,0c0,.04.02.07.02.1,0,.02,0,.03,0,.04.05.13.12.24.24.33.17.13.39.21.65.21s.48-.08.65-.21c.11-.09.2-.2.24-.33,0-.02,0-.02,0-.04,0-.03.02-.06.02-.09h0s0-.02,0-.04c0,0,0-.02,0-.02,0-.02-.02-.04-.02-.07,0-.02,0-.03,0-.05-.02-.13-.09-.25-.19-.35-.17-.17-.42-.29-.72-.29s-.55.11-.72.29c-.1.1-.16.22-.19.35,0,.02,0,.02,0,.03,0,.02-.02.05-.02.07,0,0,0,.02,0,.02,0,.02,0,.02,0,.04Z"/>
      <path class="cls-2" d="m67.65,53.31c0,.09.03.18.07.26.02.06.07.1.12.15.05.06.11.11.17.15h0c.17.11.38.18.62.18.16,0,.29-.03.43-.08.07-.02.13-.06.19-.1.07-.04.12-.09.17-.15.04-.05.09-.09.12-.15.04-.08.07-.17.07-.26,0-.4-.45-.74-.99-.74s-.99.34-.99.74Z"/>
      <path class="cls-2" d="m76.48,52.58c-.53,0-.99.33-.99.74,0,.09.03.18.07.26.02.06.07.1.12.15.05.06.11.11.17.15.06.04.12.07.2.1.13.05.27.08.42.08.24,0,.44-.07.61-.18h0c.07-.04.12-.09.17-.15.04-.05.09-.09.12-.15.04-.08.07-.17.07-.26,0-.41-.46-.74-.99-.74Z"/>
      <path class="cls-2" d="m69.43,50.18l.02.02,1.25,1.34c.45-.46,1.11-.75,1.85-.75s1.4.29,1.85.75l1.27-1.36h0s-.05,0-.05,0h-6.21Z"/>
      <path class="cls-2" d="m73.59,53.72c.06-.05.11-.1.16-.15.17-.19.28-.42.28-.67,0-.16-.04-.31-.11-.44-.02-.04-.05-.07-.08-.11-.02-.03-.05-.07-.08-.11-.27-.29-.7-.48-1.2-.48s-.93.2-1.2.48c-.03.03-.06.07-.08.11-.02.04-.06.07-.08.11-.07.14-.11.29-.11.45,0,.25.11.48.28.67.05.05.1.11.16.15.07.06.16.11.24.15.23.11.5.18.79.18s.56-.07.79-.18c.09-.05.17-.1.24-.16Z"/>
      <polygon class="cls-2" points="69.3 65.34 69.29 65.34 69.29 65.45 69.29 65.54 69.29 65.71 69.29 65.86 69.29 65.88 69.29 66.17 69.29 66.33 69.29 66.48 69.29 66.67 69.29 66.83 69.29 66.95 69.29 67 69.29 67.27 69.29 67.28 69.29 67.44 69.29 67.47 69.45 67.47 69.46 67.47 69.72 67.47 69.87 67.47 70.07 67.47 70.28 67.47 70.53 67.47 70.74 67.47 70.95 67.47 71.3 67.47 71.51 67.47 71.71 67.47 72.01 67.47 72.21 67.47 72.42 67.47 72.7 67.47 72.91 67.47 73.13 67.47 73.45 67.47 73.66 67.47 73.86 67.47 74.17 67.47 74.38 67.47 74.47 67.47 74.47 67.46 74.47 67.37 74.47 66.99 74.47 66.82 74.47 66.66 74.47 66.59 74.47 66.43 74.47 66.26 74.47 66.04 74.47 65.89 74.47 65.72 74.47 65.56 74.47 65.53 74.47 65.37 74.47 65.35 74.47 65.34 74.42 65.34 74.2 65.34 73.77 65.34 73.56 65.34 73.35 65.34 73.32 65.34 73.2 65.34 72.99 65.34 72.77 65.34 72.36 65.34 72.14 65.34 71.93 65.34 71.8 65.34 71.79 65.34 71.57 65.34 71.35 65.34 70.92 65.34 70.7 65.34 70.55 65.34 70.47 65.34 70.37 65.34 70.16 65.34 69.95 65.34 69.45 65.34 69.3 65.34"/>
      <path class="cls-2" d="m79.51,66.7v-1.1c0-.11.03-.22.08-.3.07-.12.16-.21.27-.24-.07-.19-.16-.35-.27-.5h0c-.05-.06-.1-.11-.15-.16-.05-.04-.1-.07-.15-.11,0,0-.02-.02-.03-.02-.04-.02-.08-.04-.13-.07-.05-.02-.09-.04-.14-.06,0,0-.02,0-.04,0h0c-.07-.02-.13-.02-.2-.02-.11,0-.23.02-.33.07-.04.02-.07.02-.11.04-.13.07-.24.16-.35.28-.05.06-.1.11-.14.18h0s.07.1.1.16c0,.02.02.06.02.09,0,.02,0,.04.02.07,0,.04.02.08.02.12v.02s0,.11,0,.16c0,.02,0,.04,0,.07v2.11s0,.07,0,.11c0,.03,0,.07,0,.1,0,.02,0,.05,0,.07s0,.04-.02.07c0,.02,0,.05-.02.07.15.17.33.29.53.36.04.02.08.02.13.02.02,0,.02,0,.04,0,.04,0,.07.02.11.02.03,0,.06,0,.09,0h0c.16-.02.31-.07.45-.16.05-.03.1-.07.15-.11.05-.05.11-.1.15-.16s.08-.11.12-.17c-.05-.04-.09-.1-.12-.16-.05-.1-.08-.2-.08-.33v-.48s0-.03,0-.03Z"/>
      <path class="cls-2" d="m79.45,68.99s.04,0,.06-.02c.03,0,.07-.02.09-.02.54-.21.96-.64,1.16-1.15h-.73c-.11.21-.26.38-.44.52-.05.04-.1.07-.15.1s-.1.06-.15.08c-.03.02-.07.02-.1.04-.05.02-.1.04-.16.05-.07.02-.13.02-.2.02-.03,0-.07,0-.1,0-.1,0-.19-.02-.28-.03-.05,0-.1-.03-.15-.05s-.1-.03-.14-.05c-.16-.07-.3-.19-.42-.31-.03.02-.06.04-.1.04h-.7s0,.02.02.02c.02.03.06.07.08.1,0,0,.02.02.02.03.02.02.04.04.06.07.16.17.36.32.57.43.04.02.08.04.12.07h0s.09.03.13.05c.08.03.17.06.26.07.16.04.33.07.51.07.07,0,.13-.02.2-.02.07,0,.16,0,.23-.02.04,0,.07-.02.11-.03.07-.03.12-.05.17-.07Z"/>
      <path class="cls-2" d="m79.3,63.36s-.02,0-.02,0c-.06-.02-.11-.02-.16-.03h-.04c-.08,0-.16-.02-.24-.02-.02,0-.05,0-.07,0-.07,0-.13.02-.2.02-.07,0-.16,0-.23.02-.17.03-.33.09-.49.16-.16.07-.31.16-.44.26-.14.11-.26.22-.36.35-.03.05-.07.09-.1.14-.03.04-.06.09-.08.14-.04.07-.08.16-.11.23h.73s0,0,0,0c.02-.02.02-.04.04-.06,0-.02.02-.03.03-.05.04-.07.09-.13.14-.19,0,0,.02-.02.02-.02.04-.05.08-.09.13-.13.05-.05.11-.08.16-.12.02,0,.03-.02.06-.03,0,0,.02,0,.02-.02.11-.07.21-.11.33-.15.09-.02.19-.04.29-.04.02,0,.02,0,.04,0,.11,0,.2.02.3.04.02,0,.06.02.08.03.05.02.1.03.15.06t.02,0s.06.02.08.04c0,0,.02.02.03.02.02,0,.02.02.03.02.02.02.05.03.07.05,0,0,.02,0,.02.02.02.02.04.02.06.03.09.07.17.16.25.24.16.19.27.42.35.67h.67s0-.1-.02-.14c-.09-.42-.33-.78-.65-1.05-.18-.16-.38-.28-.6-.37,0,0-.02,0-.02,0-.04-.02-.09-.02-.13-.04s-.08-.02-.13-.04c-.02,0-.02-.02-.02-.02Z"/>
      <path class="cls-2" d="m64.97,63.91s-.06.09-.08.14c.2.19.36.41.48.65.02-.07.04-.15.07-.21s.06-.14.09-.2c.03-.07.07-.14.12-.2,0,0,0,0,0,0,0,0,.02-.02.02-.03.02-.02.02-.04.04-.07,0,0,0-.02.02-.02l.07-.07s.02-.02.02-.02,0,0,.02-.02c.07-.07.14-.13.21-.19.03-.02.06-.04.09-.06.06-.03.11-.07.16-.09,0,0,.02,0,.02,0,.07-.02.13-.06.2-.07.06-.02.11-.02.18-.02.04,0,.08-.02.13-.02.16,0,.3.04.45.09.16.06.32.15.45.27.11.1.21.22.3.35.03.05.06.09.09.14.02.04.04.09.06.13.06.13.1.26.13.4,0,.03.02.07.02.11h0v.08s0,.03,0,.06h0s0,.08,0,.12v.03h0s0,.05,0,.07v1.89h0c0,.06,0,.11-.02.16,0,.05,0,.11-.02.16h0c0,.06-.02.11-.03.16,0,.06-.02.11-.04.16-.03.11-.08.23-.13.33,0,.02-.02.04-.02.06-.02.04-.05.07-.07.11s-.05.07-.07.11c0,0,0,.02-.02.02-.15.19-.32.34-.51.45-.04.02-.09.04-.14.06-.02,0-.06.02-.08.03-.02,0-.04.02-.06.02-.07.02-.16.03-.24.03-.03,0-.07,0-.1,0-.29,0-.55-.1-.78-.27-.03-.02-.07-.05-.11-.08-.03-.02-.07-.07-.09-.09-.03-.03-.07-.06-.09-.09-.06-.07-.1-.14-.15-.21-.06-.09-.1-.18-.14-.28-.02-.06-.05-.11-.07-.17-.11.24-.26.45-.45.63.12.21.29.41.49.56.05.04.1.07.15.11.05.03.1.06.15.09.14.07.29.14.44.18.05.02.1.03.15.04.05,0,.1.02.16.03h.02c.07,0,.13.02.2.02h.02s.08,0,.12,0c.29,0,.57-.06.82-.16.04-.02.08-.04.13-.07.04-.02.08-.04.12-.07.21-.11.4-.27.56-.45.03-.03.06-.07.09-.1.02-.03.05-.07.07-.11.14-.2.24-.42.29-.65,0-.02,0-.05,0-.08,0-.02,0-.04,0-.07h0s0-.07,0-.11c0-.02,0-.03,0-.05h0s0-.06,0-.09v-.98h0v-1.22h0v-.49s0-.06,0-.09c0-.05,0-.1-.02-.15,0-.02,0-.06,0-.08,0-.02,0-.04,0-.06,0-.02,0-.03,0-.05,0-.02-.02-.05-.02-.07,0-.02-.02-.04-.02-.06,0-.03-.02-.07-.03-.11,0,0,0-.02,0-.03-.07-.18-.17-.34-.29-.49,0,0,0,0-.02-.02-.09-.11-.2-.21-.31-.3s-.23-.16-.36-.23c-.17-.09-.36-.16-.56-.2-.13-.02-.27-.04-.41-.04-.02,0-.03,0-.06,0-.22,0-.43.04-.64.1-.05.02-.11.02-.16.05-.02,0-.03,0-.05.02-.06.02-.11.05-.16.08,0,0,0,0-.02,0s0,0-.02,0c-.02.02-.06.02-.08.04,0,0-.02,0-.03.02h0s-.08.06-.12.08c0,0-.02.02-.02.02-.26.24-.45.44-.6.68Z"/>
      <path class="cls-2" d="m65.65,67.5s.02.09.03.13h0c.02.07.02.11.05.17,0,.02.02.03.02.06l.02.05c.08.2.2.37.34.5.03.03.07.06.11.08.04.02.07.06.11.08.15.09.31.14.49.14h0c.06,0,.11,0,.17-.02.05,0,.11-.02.16-.04.22-.08.42-.24.56-.44.02-.03.05-.07.07-.11.02-.04.04-.07.07-.11.02-.06.06-.11.07-.18.02-.05.03-.11.05-.16.02-.06.03-.11.04-.16,0-.03,0-.07,0-.1,0-.05,0-.1,0-.15v-.02s0-.04,0-.06v-1.75h0v-.16s0-.03,0-.06c0-.02,0-.03,0-.05v-.04s0-.05,0-.07c0-.06-.02-.11-.02-.16,0-.04-.02-.09-.03-.13,0-.02,0-.05-.02-.07,0-.03-.02-.06-.04-.09-.02-.04-.03-.08-.05-.12,0,0,0-.02-.02-.03-.02-.02-.02-.05-.04-.07h0s-.05-.1-.08-.14c-.04-.05-.08-.1-.12-.14t-.02-.02c-.07-.07-.14-.12-.22-.17-.16-.1-.33-.16-.53-.16-.03,0-.06,0-.08,0-.07,0-.16.02-.23.05-.07.02-.13.05-.2.08-.02.02-.04.03-.07.05-.05.03-.1.07-.14.11h0s-.05.06-.07.08c-.02.02-.02.02-.04.04-.02.02-.03.03-.05.06-.02.03-.05.07-.07.11-.02.04-.05.07-.07.11-.04.08-.08.17-.11.26-.02.06-.03.11-.04.17-.02.06-.02.12-.03.19v.02s0,.04,0,.07c0,.02,0,.04,0,.07s0,.05,0,.07h0v1.89c0,.07,0,.15.02.22,0,.03,0,.07,0,.1.02,0,.02.02.02.02Z"/>
      <path class="cls-2" d="m62.78,67.98c.12.05.25.09.38.09.67,0,1.22-.69,1.22-1.55v-.44c0-.86-.55-1.55-1.22-1.55-.18,0-.36.06-.51.15.19.13.21.53.21.68v2.12c0,.11-.02.33-.08.51Z"/>
      <path class="cls-2" d="m63.16,63.71c-.51,0-.96.17-1.32.44.06.15.08.3.09.47h.29c.26-.25.59-.41.95-.41.29,0,.55.1.78.27.17.12.32.29.43.47.02.02.02.03.04.06.05.08.09.17.12.26.1.24.16.52.16.82v.44c0,.29-.06.57-.16.82-.04.11-.09.2-.15.3-.28.46-.72.75-1.22.75-.07,0-.13-.02-.2-.02-.11-.02-.21-.05-.31-.09-.05-.02-.1-.04-.14-.07h-.65c-.02.07-.07.12-.09.19.3.24.67.41,1.08.47.09,0,.17.02.26.02.02,0,.03,0,.05,0,.07,0,.13-.02.2-.02.46-.04.87-.21,1.19-.47.04-.03.09-.07.13-.11.05-.04.08-.09.12-.14.13-.15.24-.31.32-.48.02-.05.03-.1.05-.15.02-.06.04-.11.06-.16.03-.15.06-.29.06-.44v-1.22c0-.07-.02-.12-.02-.19,0-.02,0-.05,0-.07,0-.06,0-.11-.02-.16s-.03-.1-.05-.15c-.09-.27-.24-.51-.43-.72-.04-.04-.08-.09-.12-.13s-.09-.07-.13-.1c-.25-.2-.56-.34-.89-.41-.16-.06-.3-.07-.46-.07Z"/>
      <path class="cls-2" d="m59.67,64.61h.19c-.1-.22-.24-.42-.44-.6-.42-.38-1.05-.62-1.76-.62-.85,0-1.58.35-1.99.87.19.13.32.43.32.82v2.65c0,.24-.05.45-.14.61.42.41,1.08.68,1.81.68.82,0,1.55-.33,1.96-.82-.2-.06-.29-.39-.29-.72v-2.12c0-.37.09-.75.33-.75Z"/>
      <path class="cls-2" d="m61.37,68.46s.06-.1.08-.15c.02-.04.05-.07.07-.11h-1.52c-.44.67-1.31,1.13-2.34,1.13-.82,0-1.55-.3-2.03-.77-.05.02-.1.05-.15.05h-1.43c.62.78,2,1.31,3.61,1.31,1.71,0,3.14-.6,3.71-1.46Z"/>
      <path class="cls-2" d="m57.77,62.48s-.07,0-.11,0c-.02,0-.05,0-.08,0-1.84.02-3.36.75-3.77,1.71h1.52c.44-.67,1.31-1.13,2.34-1.13.49,0,.95.11,1.34.29.12.06.23.12.33.19.24.16.44.34.6.55.07.09.13.18.17.27.04.07.07.16.09.24h1.4c0-.07-.02-.15-.04-.23-.02-.07-.03-.12-.06-.19-.02-.05-.06-.1-.08-.15-.37-.67-1.27-1.21-2.45-1.45-.03,0-.07,0-.09-.02h0c-.06,0-.11-.02-.16-.03-.04,0-.07-.02-.11-.02h0s-.07-.02-.11-.02c-.02,0-.02,0-.04,0h-.02s-.09,0-.14,0c-.11,0-.22-.02-.33-.02-.06,0-.12,0-.19,0Z"/>
      <path class="cls-2" d="m89.46,64.67c-.4-.52-1.14-.87-1.98-.87-1.11,0-2.04.6-2.27,1.39.08.11.13.25.13.42v1.58c0,.2-.07.36-.19.47h0c0,.97,1.04,1.76,2.32,1.76.73,0,1.38-.26,1.8-.67-.09-.17-.13-.39-.13-.62v-2.65c0-.33.11-.68.32-.81Z"/>
      <path class="cls-2" d="m87.47,70.33c1.6,0,2.98-.54,3.6-1.31h-1.45s-.08-.02-.12-.05c-.48.47-1.21.77-2.03.77-1.4,0-2.54-.87-2.62-1.95h-1.35v.31c0,1.24,1.79,2.24,3.98,2.24Z"/>
      <path class="cls-2" d="m85.71,63.13c-1.26.35-2.13,1.06-2.2,1.89h1.36s.03,0,.05.02h0c.1-.3.29-.57.53-.8.48-.46,1.2-.75,2.02-.75,1.02,0,1.89.47,2.34,1.14h1.52c-.41-.99-1.98-1.72-3.85-1.72-.1,0-.19.02-.29.02-.12,0-.24,0-.35.02-.2.02-.4.05-.6.08-.08.02-.17.02-.25.04-.09.02-.18.06-.27.08Z"/>
      <path class="cls-2" d="m82.96,67.47h1.92s.09-.07.11-.18c0-.03.02-.06.02-.1v-1.58s-.02-.06-.02-.08c-.02-.11-.07-.19-.11-.19h-4.92s-.02.02-.02.02c-.03.02-.07.07-.08.13,0,.04-.03.07-.03.12v1.58c0,.07.02.11.04.16.03.07.07.12.1.12h2.99Z"/>
      <path class="cls-2" d="m77.54,67.88h.07s.02-.07.03-.12h0s0-.05,0-.07c0-.02,0-.05,0-.07,0-.05,0-.09,0-.15h0v-2.12s0-.08,0-.13c0-.02,0-.04,0-.06,0-.05,0-.09-.02-.13,0-.04-.02-.08-.03-.11h-2.75s-.02.06-.02.08c0,.04-.02.1-.02.16,0,.04,0,.08,0,.13v.03h0v2.12h0s0,.06,0,.09c0,.02,0,.06,0,.08h0s0,.06,0,.08c0,.04.02.06.02.09,0,0,0,.02,0,.02,0,0,0,.02,0,.03s0,.03,0,.04h2.68v-.02Z"/>
      <path class="cls-2" d="m61.75,67.88h.73s.02-.05.02-.07c0-.02,0-.03.02-.06.02-.07.03-.17.03-.29v-2.12c0-.21-.03-.36-.07-.42h-2.77c-.02.06-.07.21-.07.42v2.12c0,.21.03.36.07.42h2.04Z"/>
      <path class="cls-2" d="m51,68.29h4.47s.04-.02.07-.06c.02-.04.05-.1.07-.17.02-.09.05-.2.05-.33v-2.65c0-.33-.11-.51-.16-.55,0,0-.02-.02-.02-.02h-5.72s-.19.2-.19.56v2.65c0,.37.14.56.19.56h1.26Z"/>
      <path class="cls-2" d="m91.45,68.7h3.49s.16-.2.16-.56v-2.65c0-.35-.12-.55-.16-.56h-5.32s-.16.21-.16.56v2.65c0,.14.02.25.05.34.02.07.05.14.07.18.02.02.03.04.05.04h1.82Z"/>
    </g>
  </g>
</svg>