<?xml version="1.0" encoding="UTF-8"?>
<svg id="Layer_2" data-name="Layer 2" xmlns="http://www.w3.org/2000/svg" viewBox="0 0 520 320">
  <defs>
    <style>
      .cls-1 {
        fill: #a3ab78;
      }

      .cls-1, .cls-2, .cls-3 {
        stroke-width: 0px;
      }

      .cls-2 {
        fill: #fff;
      }

      .cls-3 {
        fill: green;
      }
    </style>
  </defs>
  <g id="_500x300_Background" data-name="500x300 Background">
    <rect class="cls-1" width="520" height="320" rx="10" ry="10"/>
  </g>
  <g id="Pakistan">
    <g>
      <rect class="cls-2" x="10" y="10" width="137.01" height="300"/>
      <rect class="cls-3" x="147.01" y="10" width="362.99" height="300"/>
    </g>
    <g>
      <path class="cls-2" d="m380.41,206.41c-34.38,27.62-82.58,24.79-107.66-6.47-25.08-31.18-17.59-78.87,16.79-106.49,6.4-5.16,13.3-9.23,20.43-12.28-14.25,1.89-28.13,7.56-40.13,17.23-34.89,28.06-40.42,79.09-12.36,113.91,28.06,34.82,79.09,40.42,113.91,12.36,11.99-9.67,20.57-22.03,25.44-35.55-4.51,6.25-9.96,12.07-16.43,17.3Z"/>
      <polygon class="cls-2" points="361.8 135.68 374.81 155.97 351.77 149.13 336.5 167.74 335.92 143.68 313.46 134.96 336.14 126.96 337.52 102.9 352.13 122.02 375.39 115.84 361.8 135.68"/>
    </g>
  </g>
</svg>