<?xml version="1.0" encoding="UTF-8"?>
<svg id="Layer_2" data-name="Layer 2" xmlns="http://www.w3.org/2000/svg" viewBox="0 0 520 320">
  <defs>
    <style>
      .cls-1 {
        fill: #a3ab78;
      }

      .cls-1, .cls-2, .cls-3, .cls-4, .cls-5, .cls-6 {
        stroke-width: 0px;
      }

      .cls-2 {
        fill: #fbce2d;
      }

      .cls-4 {
        fill: none;
      }

      .cls-5 {
        fill: #fff;
      }

      .cls-6 {
        fill: #c83a48;
      }
    </style>
  </defs>
  <g id="_500x300_Background" data-name="500x300 Background">
    <rect class="cls-1" width="520" height="320" rx="10" ry="10"/>
  </g>
  <g id="Papua_New_Guinea" data-name="Papua New Guinea">
    <g>
      <path class="cls-3" d="m10,310h500L10,10v300Z"/>
      <path class="cls-6" d="m400.49,120.37c-.63-.32-.48,2.61-2.22,2.61s-9.84-4.01-10.87-3.69c-.32.06-.4.64-.4,1.4,5.24,2.74,17.06,9.8,27.06,18.96-3.02-11.01-13.09-19.02-13.57-19.27Z"/>
      <polygon class="cls-6" points="10 10 510 310 510 10 10 10"/>
      <g>
        <path class="cls-3" d="m414.08,139.79h0s-.01-.05-.02-.08c0,.03.01.05.02.08Z"/>
        <path class="cls-4" d="m414.08,139.79c.62,2.25.92,4.56.85,7.05,0,0,0,0,0,0h0c.08-2.45-.23-4.78-.85-7.04Z"/>
      </g>
    </g>
    <g>
      <path class="cls-2" d="m405.76,146.01s0,0,0,0c-1.28-16.92-6.93-19.33-7.82-21.94-.89-2.61,1.4.7,3.31,1.4,1.91.7-.38-3.69-.89-5.6-.51-1.91,5.79,4.01,7.32,4.52,1.59.51-3.69-14.31-5.22-15.33-1.59-1.02,1.59.38,2.61.7,1.02.38-9.61-16.22-11.9-16.22s1.97-.89,3.12-.89c1.21,0-12.21-10.81-14.5-10.81s4.9-2.8,5.6-2.99c1.21.19-15.59-8.91-30.6.19-.89-.7,7.06-6.17,7.32-8.52.06-.64-2.61-1.91-2.8-2.61-.19-.7,4.2-2.8,4.39-4.39-1.08-1.4-2.99-.89-4.01-1.21-.25-1.34,3.69-4.52,3.31-5.92-.25-.83-3.12-1.08-3.82-.57-.7.57,1.84-3.69,1.4-4.83-.38-.57-1.78-.19-3.12.19-.89-.19,4.52-7.7,3.5-8.71-1.08-1.08-15.71,7.7-21.18,17.43-5.41,9.8-1.21,17.62-1.91,20.93-.7,3.31-1.59,6.62-3.88,6.62s-7.51-3.5-9.29-5.22c-1.78-1.72-2.1-2.99-4.52-3.69-2.48-.7-8.08,1.4-10.18,1.59-2.1.19-10.31-1.59-10.81-1.02-.51.51,8.08,3.69,9.99,4.71,1.97,1.08,2.1,2.48,3.5,3.31s14.5,4.71,10.31,10.11c-2.99,3.82-9.99-3.88-18.38-4.01-8.4-.19-14.31,8.02-16.79,10.81-2.42,2.8-10.31,17.43-10.11,19.02.19,1.59,4.9-4.39,6.62-5.41.19,2.1-1.91,4.52-1.4,5.22.51.7,6.11-4.2,8.08-4.39.51,1.4-1.02,2.8-.51,4.9.7.7,3.82-3.5,5.92-4.39.38,1.59-1.91,4.52-.7,6.42.83.19,6.11-5.92,7.89-6.62,1.78-.7-.89,5.79,0,6.3,1.59-1.08,6.49-6.62,8.08-7.32s-.19,7.19.51,7.19c1.91-1.4,6.81-8.02,7.32-9.1.51-1.02-.51,10.11,4.9,16.03,5.41,5.92,13.61,12.72,14.5,12.72,1.02-1.91-.38-5.92.51-5.79,2.42,2.61,7,6.49,8.08,6.49s-.7-4.2.7-4.2c2.8,2.61,10.81,12.91,26.59,17.62-1.02-2.93-3.31-5.6-3.5-7,1.08.19,4.71,1.91,5.41,1.72.7-.19-7.7-10.43-7.12-11.9,1.91-.19,2.8,1.08,3.5.19-.89-1.4-8.21-9.61-8.21-11.51s2.29.38,2.99,0c.7-.32-2.8-7.7-2.1-8.52.7-.89,8.4,4.71,10.31,4.71.74,0,1-.96,1.07-2.18,5.23,4.27,15.36,12.33,22.33,22.66-.07,2.21-.38,4.48-1.08,6.81-5.22,12.72-15.71,19.53-31.11,13.93.83,1.4,9.1,8.21,18,5.79,7.51-2.1,16.41-7.32,18.26-19.4,0,0,0,0,0,0,0-.04.01-.07.02-.1.02.04.03.06.05.1,1.97,4.33,3.24,8.97,3.24,13.8,0,23.03-20.61,22.33-26.59,21.63,6.68,5.6,31.81,4.52,31.81-21.63,0-7.51-3.44-15.01-8.27-21.82Zm-31.73-27.7c-.6-.08-.54.32.28,1.32-.87-1.03-.92-1.42-.28-1.32Zm5.08,2.49s0-.03,0-.04c-.02-.01-.04-.03-.06-.04,0-.74.07-1.3.32-1.36.89-.38,7.32,3.69,8.72,3.69s1.21-2.93,1.78-2.61c.38.25,8.35,8.23,10.85,19.25-7.97-9.11-17.32-16.19-21.61-18.89Z"/>
      <polygon class="cls-5" points="180.39 195.81 192.35 187.04 204.31 196.2 199.92 181.56 211.88 172.4 196.74 172.4 192.35 157.39 187.58 172.4 172.82 172.4 184.78 181.56 180.39 195.81"/>
      <polygon class="cls-5" points="123.34 279.08 135.3 270.37 147.26 279.53 142.87 264.9 154.83 255.74 139.69 255.74 135.3 240.73 130.53 255.74 115.77 255.74 127.73 264.9 123.34 279.08"/>
      <polygon class="cls-5" points="151.12 216.36 157.1 220.94 154.88 228 160.92 223.61 166.84 228.19 164.67 220.94 170.65 216.36 163.08 216.36 160.92 208.79 158.5 216.36 151.12 216.36"/>
      <polygon class="cls-5" points="123.34 141.36 135.3 132.58 147.26 141.74 142.87 127.18 154.83 117.95 139.69 117.95 135.3 103 130.53 117.95 115.77 117.95 127.73 127.18 123.34 141.36"/>
      <polygon class="cls-5" points="66.05 199.95 78.01 191.17 89.96 200.39 85.58 185.76 97.53 176.6 82.39 176.6 78.01 161.59 73.23 176.6 58.48 176.6 70.44 185.76 66.05 199.95"/>
    </g>
  </g>
</svg>