<?xml version="1.0" encoding="UTF-8"?>
<svg id="Layer_2" data-name="Layer 2" xmlns="http://www.w3.org/2000/svg" viewBox="0 0 520 320">
  <defs>
    <style>
      .cls-1 {
        fill: #a3ab78;
      }

      .cls-1, .cls-2, .cls-3, .cls-4, .cls-5, .cls-6, .cls-7, .cls-8, .cls-9, .cls-10, .cls-11 {
        stroke-width: 0px;
      }

      .cls-2 {
        fill: #005fab;
      }

      .cls-3 {
        fill: #fdcc25;
      }

      .cls-3, .cls-5, .cls-6, .cls-7, .cls-9 {
        fill-rule: evenodd;
      }

      .cls-4, .cls-6 {
        fill: #fff;
      }

      .cls-5 {
        fill: #008846;
      }

      .cls-7, .cls-10 {
        fill: #c83a48;
      }

      .cls-8 {
        fill: #231f20;
      }

      .cls-9 {
        fill: #007dc2;
      }

      .cls-11 {
        fill: #fadc2a;
      }
    </style>
  </defs>
  <g id="_500x300_Background" data-name="500x300 Background">
    <rect class="cls-1" width="520" height="320" rx="10" ry="10"/>
  </g>
  <g id="Paraguay">
    <g>
      <rect class="cls-4" x="10" y="110" width="500" height="100.01"/>
      <rect class="cls-2" x="10" y="210.01" width="500" height="99.99"/>
      <rect class="cls-10" x="10" y="10" width="500" height="99.99"/>
      <g>
        <path class="cls-6" d="m298.17,160c0,9.98-4.12,19.9-11.18,26.95-7.06,7.05-17,11.16-26.99,11.16s-19.91-4.11-26.99-11.16c-7.07-7.05-11.16-16.97-11.16-26.95s4.1-19.88,11.16-26.93c7.08-7.05,17-11.16,26.99-11.16s19.93,4.11,26.99,11.16c7.07,7.04,11.18,16.95,11.18,26.93h0Z"/>
        <path class="cls-8" d="m260,198.85c-10.22,0-20.25-4.15-27.52-11.38-7.23-7.22-11.38-17.24-11.38-27.47s4.15-20.24,11.38-27.45c7.26-7.23,17.29-11.38,27.52-11.38s20.27,4.15,27.52,11.38c7.24,7.23,11.4,17.24,11.4,27.45s-4.15,20.25-11.4,27.47c-7.24,7.23-17.27,11.38-27.52,11.38Zm0-76.2c-9.84,0-19.48,3.99-26.46,10.95-6.96,6.94-10.95,16.56-10.95,26.4s3.99,19.48,10.95,26.42c6.99,6.96,16.63,10.95,26.46,10.95s19.5-3.99,26.46-10.95c6.96-6.96,10.96-16.59,10.96-26.42s-3.99-19.45-10.96-26.4c-6.96-6.96-16.61-10.95-26.46-10.95Z"/>
      </g>
      <g>
        <path class="cls-5" d="m265.16,142.19s14.71,6.34,12.14,19.42c-2.57,13.08-10.75,12.99-13.96,14.42-3.22,1.45-5.43,3.53-6.69,3.22-1.28-.28-2.94-1.26-2.94-1.26,0,0-.14,2.14,2.45,2.54,2.57.39,5.96-3.39,7.59-3.81s11.63-1.51,14.05-14.81c2.84-14.19-12.54-19.3-12.63-19.72h0Z"/>
        <path class="cls-8" d="m256.52,180.6c-.13,0-.26,0-.38-.03-2.6-.39-2.49-2.56-2.48-2.58v-.07s.07.04.07.04c.01,0,1.68.98,2.93,1.25.73.18,1.84-.5,3.24-1.35.99-.61,2.12-1.29,3.42-1.88.54-.24,1.21-.44,1.99-.67,3.91-1.14,9.82-2.87,11.95-13.73,1.32-6.73-2.04-11.64-5.09-14.57-1.68-1.61-3.44-2.82-4.79-3.61-.47-.25-.95-.5-1.44-.75-.62-.3-.8-.4-.82-.47v-.08s.06.04.06.04c.01,0,.83.36,2.03,1.06,1.8.95,4.52,2.56,6.79,5,3.59,3.87,4.89,8.48,3.84,13.7-.96,5.25-3.21,9.22-6.67,11.8-2.79,2.07-5.58,2.66-6.92,2.94-.21.04-.37.07-.5.11-.59.16-1.41.75-2.37,1.44-1.46,1.07-3.28,2.39-4.85,2.39Zm-2.78-2.54c0,.38.13,2.07,2.42,2.42.12.02.24.03.37.03,1.54,0,3.34-1.31,4.8-2.38.96-.69,1.79-1.3,2.39-1.46.13-.03.29-.07.5-.11,7.49-1.57,12.04-6.51,13.53-14.66,1.43-7.16-1.49-13.04-8.69-17.51,1.01.69,2.11,1.55,3.17,2.57,1.95,1.88,3.4,3.92,4.3,6.08,1.13,2.7,1.4,5.59.81,8.57-.95,4.81-2.71,8.26-5.38,10.57-2.26,1.94-4.69,2.65-6.64,3.22-.78.23-1.44.42-1.97.66-1.3.58-2.42,1.27-3.41,1.87-1.47.89-2.54,1.54-3.3,1.35-1.13-.24-2.57-1.03-2.89-1.22Z"/>
      </g>
      <g>
        <path class="cls-5" d="m272.6,144.99c.25,1.01.27,1.97,0,1.98-.25.01-.71-.9-.98-1.91-.27-1.03-.27-1.97-.01-2,.26-.01.72.91.99,1.94h0Z"/>
        <path class="cls-8" d="m272.59,146.99c-.28,0-.75-1.01-.99-1.93-.22-.86-.27-1.71-.1-1.95.03-.04.06-.07.1-.07h0c.3,0,.76,1,1.01,1.94h0c.21.88.26,1.71.09,1.94-.03.04-.07.07-.1.07h0Zm-.98-3.92h0s-.05.02-.07.06c-.16.24-.11,1.08.1,1.92.27,1.01.72,1.9.95,1.9h0s.06-.02.08-.05c.16-.21.12-1.04-.1-1.91h0c-.27-1.03-.72-1.91-.97-1.91Z"/>
      </g>
      <g>
        <path class="cls-5" d="m272.08,145.11c.48.98.71,1.95.48,2.02-.23.09-.87-.72-1.37-1.7-.48-.98-.71-1.93-.48-2.02s.89.73,1.37,1.7h0Z"/>
        <path class="cls-8" d="m272.52,147.16c-.28,0-.91-.86-1.35-1.71-.41-.85-.65-1.69-.55-1.96.01-.04.04-.07.07-.08.01,0,.02,0,.04,0,.27,0,.89.78,1.35,1.71h0c.41.85.66,1.71.55,1.97-.01.04-.04.07-.07.07,0,0-.02,0-.04,0Zm-1.77-3.73s-.02,0-.03,0c-.02,0-.04.03-.06.07-.1.26.14,1.11.55,1.93.48.94,1.07,1.7,1.31,1.7.01,0,.02,0,.04,0,.02,0,.04-.02.05-.06.1-.24-.14-1.12-.54-1.94-.49-1-1.09-1.7-1.32-1.7Z"/>
      </g>
      <g>
        <path class="cls-5" d="m270.61,146.09c.99.28,1.86.8,1.85,1.04-.01.27-.94.23-1.94-.05-.99-.28-1.86-.78-1.85-1.04.01-.27.94-.23,1.94.05h0Z"/>
        <path class="cls-8" d="m271.93,147.33c-.37,0-.89-.08-1.42-.24-1.01-.29-1.88-.78-1.86-1.06,0-.04.02-.08.07-.11.23-.16,1.04-.1,1.89.15h0c.98.28,1.88.8,1.86,1.06,0,.04-.02.08-.07.11-.09.07-.25.09-.47.09Zm-2.74-1.46c-.21,0-.37.03-.44.08-.03.02-.05.05-.05.08-.01.26.86.75,1.83,1.03.84.24,1.64.3,1.86.15.03-.02.05-.05.05-.08.01-.22-.8-.73-1.83-1.03h0c-.54-.15-1.06-.23-1.42-.23Z"/>
      </g>
      <g>
        <path class="cls-5" d="m270.82,145.55c.9.6,1.62,1.35,1.51,1.57-.1.21-1.03-.14-1.94-.75-.89-.61-1.61-1.35-1.51-1.57.13-.21,1.03.15,1.94.75h0Z"/>
        <path class="cls-8" d="m272.18,147.21c-.33,0-1.08-.33-1.79-.81-.83-.56-1.63-1.34-1.52-1.6.02-.03.05-.05.1-.07.02,0,.05,0,.07,0,.33,0,1.06.33,1.78.81.92.61,1.63,1.36,1.52,1.6-.01.03-.04.05-.09.07-.01,0-.04,0-.07,0Zm-3.13-2.44s-.05,0-.07,0c-.04,0-.06.02-.07.04-.1.21.62.95,1.5,1.55.78.52,1.58.86,1.85.8.03,0,.05-.02.07-.04.09-.2-.53-.91-1.5-1.55h0c-.72-.48-1.45-.81-1.77-.81Z"/>
      </g>
      <g>
        <path class="cls-5" d="m271.44,145.29c.76.8,1.32,1.69,1.15,1.84-.18.18-1.03-.39-1.8-1.19-.76-.78-1.32-1.66-1.14-1.84.17-.16,1.02.41,1.78,1.19h0Z"/>
        <path class="cls-8" d="m272.5,147.18s0,0,0,0c-.3,0-1.06-.54-1.71-1.23-.7-.72-1.35-1.66-1.13-1.87.02-.02.05-.03.1-.03h0c.29,0,1.03.54,1.71,1.22h0c.69.73,1.34,1.69,1.15,1.87-.04.03-.07.04-.12.04Zm-2.76-3.08s-.05,0-.07.02c-.17.16.38,1.05,1.14,1.82.65.68,1.38,1.21,1.68,1.21h0s.07,0,.08-.03c.14-.13-.35-.98-1.15-1.82h0c-.64-.67-1.4-1.2-1.68-1.2h0Z"/>
      </g>
      <g>
        <path class="cls-5" d="m272.47,147.14s-.57.32-.69.37c-.14.05-.32-.18-.69.01-.37.19-.62.55-.71.75-.09.21.11.3.57.07.44-.21.57-.57.78-.69.21-.14.58-.34.8-.43.09-.19.39-.62.53-.85.16-.25.75-.66.96-1.12.19-.39.13-.71-.13-.57-.27.13-.58.52-.75.8-.14.28-.01.64-.18.89-.14.2-.46.77-.5.77h0Z"/>
        <path class="cls-8" d="m270.51,148.48c-.06,0-.1-.01-.13-.04-.04-.04-.04-.1-.01-.18.08-.18.33-.55.72-.75.24-.13.41-.07.52-.04.07.02.12.04.17.02.13-.05.64-.32.69-.36h0s.02,0,.02,0c.02-.01.13-.19.24-.35.1-.16.19-.32.26-.4.08-.13.09-.28.1-.44,0-.15.01-.3.08-.44.17-.3.49-.68.75-.8.1-.06.16-.04.19,0,.09.09.07.33-.06.58-.13.29-.41.55-.64.78-.14.13-.26.25-.32.34-.04.07-.11.18-.18.28-.13.21-.29.44-.35.57h0c-.2.08-.58.28-.8.42-.08.04-.16.13-.23.23-.13.15-.28.33-.55.47-.21.07-.36.12-.47.12Zm.86-1.03c-.08,0-.18.02-.29.08-.38.2-.62.56-.71.74-.03.07-.02.13,0,.16.07.07.28.03.55-.1.27-.13.42-.31.55-.46.08-.1.15-.18.24-.23.22-.15.6-.34.8-.42.06-.13.21-.36.35-.57.07-.1.13-.2.18-.28.06-.1.18-.21.33-.35.22-.21.5-.49.64-.77.14-.27.13-.49.06-.56-.04-.04-.1-.04-.17,0-.26.12-.58.5-.74.79-.07.13-.07.29-.08.44,0,.16-.01.32-.1.45-.07.09-.16.24-.26.4-.16.25-.21.35-.24.36-.04.05-.62.34-.69.38-.05.02-.11,0-.18-.02-.07-.02-.14-.04-.23-.04Z"/>
      </g>
      <g>
        <path class="cls-5" d="m277.03,148.64c.01,1.6-.28,2.94-.64,2.87-.37-.09-.71-1.61-.72-3.19-.04-1.57.28-2.94.64-2.85.35.09.69,1.6.72,3.17h0Z"/>
        <path class="cls-8" d="m276.42,151.55h-.04c-.44-.1-.74-1.75-.75-3.22-.03-1.34.2-2.59.52-2.85.05-.04.11-.06.17-.04.41.1.72,1.74.75,3.21h0c.01,1.37-.21,2.6-.52,2.85-.04.03-.09.05-.13.05Zm-.15-6.05s-.05.01-.08.04c-.26.21-.52,1.33-.49,2.79.01,1.57.35,3.07.7,3.16.03,0,.07,0,.1-.04.29-.24.5-1.47.49-2.8-.04-1.71-.41-3.06-.7-3.13,0,0-.01,0-.02,0Z"/>
      </g>
      <g>
        <path class="cls-5" d="m276.27,148.62c.35,1.61.35,3.08,0,3.1-.34.01-.98-1.43-1.32-3.05-.35-1.61-.35-3.08,0-3.1.34-.02.98,1.43,1.32,3.05h0Z"/>
        <path class="cls-8" d="m276.27,151.75c-.4,0-1.03-1.62-1.35-3.07-.31-1.42-.35-2.73-.1-3.06.04-.05.09-.08.14-.08h0c.4,0,1.03,1.62,1.35,3.07.31,1.42.35,2.73.1,3.06-.04.05-.09.08-.14.08h0Zm-1.3-6.14s0,0,0,0c-.04,0-.07.02-.09.05-.24.31-.18,1.63.12,3,.35,1.69.98,3.02,1.27,3.02h0s.06-.02.09-.05c.24-.31.18-1.63-.12-3h0c-.36-1.69-.99-3.02-1.28-3.02Z"/>
      </g>
      <g>
        <path class="cls-5" d="m273.91,149.35c1.28.85,2.33,1.97,2.22,2.32-.13.37-1.38-.09-2.66-.94s-2.33-1.97-2.22-2.32c.13-.37,1.4.09,2.66.94h0Z"/>
        <path class="cls-8" d="m275.86,151.82c-.47,0-1.43-.42-2.41-1.07-1.28-.85-2.34-1.97-2.23-2.35.02-.06.07-.1.13-.13.38-.13,1.49.33,2.56,1.05h0c1.28.85,2.34,1.97,2.23,2.35-.02.06-.07.1-.13.13-.04.01-.1.02-.16.02Zm-4.34-3.52c-.06,0-.1,0-.14.02-.05.02-.09.05-.1.1-.1.31.87,1.4,2.21,2.29,1.08.72,2.16,1.17,2.52,1.04.05-.02.09-.05.1-.1.09-.31-.87-1.4-2.21-2.29h0c-.94-.63-1.92-1.06-2.38-1.06Z"/>
      </g>
      <g>
        <path class="cls-5" d="m274.39,148.67c1.05,1.28,1.79,2.66,1.58,2.92-.23.27-1.38-.64-2.43-1.91-1.05-1.26-1.81-2.66-1.58-2.92.23-.27,1.38.66,2.43,1.91h0Z"/>
        <path class="cls-8" d="m275.85,151.67s0,0,0,0c-.41,0-1.43-.87-2.34-1.97-.96-1.15-1.85-2.65-1.57-2.96.03-.04.07-.05.14-.05h0c.4,0,1.4.85,2.33,1.97h0c1.06,1.29,1.8,2.68,1.58,2.96-.04.04-.08.06-.14.06Zm-3.78-4.93s-.07.01-.1.04c-.21.25.55,1.66,1.58,2.89.89,1.09,1.9,1.94,2.29,1.95.04,0,.08-.01.1-.04.18-.23-.47-1.54-1.58-2.89-.91-1.09-1.92-1.95-2.3-1.95h0Z"/>
      </g>
      <g>
        <path class="cls-5" d="m275.35,148.58c.78,1.49,1.24,2.98.95,3.16-.28.18-1.28-1.03-2.08-2.5s-1.26-2.98-.96-3.16c.29-.16,1.29,1.03,2.08,2.5h0Z"/>
        <path class="cls-8" d="m276.24,151.78s-.04,0-.06,0c-.39-.1-1.26-1.21-1.97-2.52-.73-1.35-1.3-2.99-.95-3.19.04-.02.09-.02.14,0,.41.12,1.27,1.22,1.97,2.51h0c.72,1.37,1.27,2.99.95,3.19-.03.01-.05.02-.08.02Zm-2.91-5.68s-.04,0-.04.01c-.25.15.11,1.54.97,3.12.69,1.28,1.57,2.39,1.94,2.49.04.01.07,0,.1,0,.24-.15-.13-1.52-.97-3.12-.69-1.26-1.56-2.38-1.94-2.49-.02,0-.04,0-.05,0Z"/>
      </g>
      <g>
        <path class="cls-5" d="m276.15,151.69s-.89.21-1.08.21-.37-.39-.96-.28c-.58.1-1.05.5-1.23.76-.19.25.04.46.75.35.69-.13.98-.57,1.33-.66.34-.1.92-.23,1.24-.24.18-.23.72-.71,1.01-.99.3-.27,1.26-.58,1.71-1.15.39-.46.41-.98.01-.89-.41.09-.99.5-1.29.81-.3.34-.23.9-.55,1.2-.26.21-.89.88-.95.86h0Z"/>
        <path class="cls-8" d="m273.29,152.77c-.24,0-.41-.05-.47-.16-.04-.07-.02-.16.05-.26.2-.3.67-.67,1.23-.77.07-.01.14-.02.2-.02.27,0,.44.12.56.21.07.05.14.1.2.1.17,0,.92-.16,1.05-.2l-.04-.04.07.02s.3-.26.5-.47c.16-.16.33-.32.42-.4.16-.15.22-.37.28-.6.06-.21.12-.44.27-.6.31-.33.89-.73,1.31-.82.16-.04.23.02.27.08.1.17-.01.53-.27.84-.29.36-.78.63-1.18.84-.22.12-.42.22-.52.32-.1.1-.23.22-.37.35-.26.24-.52.49-.64.64h0s0,0,0,0c-.33.02-.92.15-1.23.24-.14.04-.27.13-.41.23-.22.16-.5.35-.92.43-.13.03-.24.04-.34.04Zm1.01-1.16c-.06,0-.12,0-.19.01-.59.11-1.05.51-1.21.75-.04.06-.09.14-.04.21.07.13.36.17.78.11.41-.07.67-.26.9-.42.15-.1.28-.2.43-.24.33-.1.91-.23,1.23-.25.12-.16.38-.4.64-.64.14-.13.27-.25.37-.35.11-.1.3-.2.53-.32.39-.21.89-.47,1.17-.83.28-.33.35-.66.27-.79-.04-.07-.13-.09-.23-.07-.41.09-.98.49-1.29.81-.14.16-.2.38-.26.59-.06.23-.13.46-.3.62-.1.08-.27.24-.42.4-.38.38-.49.47-.53.47h0c-.13.05-.89.21-1.08.21-.07,0-.14-.04-.22-.1-.12-.1-.28-.21-.54-.21Z"/>
      </g>
      <g>
        <path class="cls-5" d="m279.43,154.73c-.27,1.56-.81,2.85-1.15,2.69-.32-.14-.39-1.71-.13-3.27s.8-2.85,1.14-2.69c.33.14.41,1.71.14,3.27h0Z"/>
        <path class="cls-8" d="m278.33,157.48s-.05,0-.07-.01c-.35-.16-.41-1.74-.14-3.32.24-1.37.67-2.53,1.01-2.71.06-.03.12-.04.17,0,.39.16.41,1.88.16,3.32h0c-.23,1.36-.67,2.52-1.03,2.71-.04.01-.07.02-.1.02Zm.89-6s-.04,0-.07.01c-.33.17-.75,1.34-.98,2.66-.28,1.64-.17,3.12.1,3.24.04.01.07.01.11,0,.33-.17.77-1.34.99-2.66h0c.28-1.65.16-3.12-.12-3.24-.01,0-.03,0-.04,0Z"/>
      </g>
      <g>
        <path class="cls-5" d="m278.7,154.56c.04,1.66-.23,3.12-.57,3.07-.34-.04-.69-1.6-.75-3.26-.04-1.65.23-3.12.57-3.07.34.05.69,1.6.75,3.26h0Z"/>
        <path class="cls-8" d="m278.15,157.66h-.02c-.4-.04-.72-1.77-.78-3.3-.03-1.46.18-2.79.47-3.05.04-.04.09-.05.14-.04.4.07.72,1.79.78,3.29h0c.03,1.48-.17,2.79-.47,3.05-.04.03-.07.05-.12.05Zm-.21-6.33s-.04,0-.07.03c-.27.24-.47,1.58-.44,3,.06,1.78.43,3.19.72,3.22.03,0,.06,0,.09-.03.27-.24.47-1.58.44-3-.06-1.76-.43-3.18-.72-3.22h-.01Z"/>
      </g>
      <g>
        <path class="cls-5" d="m276.25,154.82c1.1,1.1,1.91,2.39,1.74,2.73s-1.33-.35-2.43-1.45c-1.08-1.08-1.91-2.37-1.74-2.71.2-.34,1.35.35,2.43,1.43h0Z"/>
        <path class="cls-8" d="m277.82,157.66c-.42,0-1.37-.64-2.28-1.54-1.12-1.11-1.93-2.39-1.74-2.74.03-.05.08-.09.16-.1h.04c.42,0,1.38.64,2.27,1.53h0c1.12,1.12,1.93,2.4,1.74,2.76-.03.05-.07.09-.15.1,0,0-.03,0-.04,0Zm-3.81-4.33h-.04c-.06,0-.1.03-.12.07-.17.32.67,1.62,1.74,2.68.88.88,1.84,1.53,2.24,1.53h.04c.05,0,.09-.03.1-.07.17-.33-.67-1.63-1.74-2.7h0c-.86-.86-1.82-1.51-2.22-1.51Z"/>
      </g>
      <g>
        <path class="cls-5" d="m276.83,154.25c.8,1.46,1.28,2.98,1.01,3.19-.27.21-1.24-.9-2.03-2.36-.8-1.46-1.28-2.96-1.01-3.19.27-.2,1.25.92,2.03,2.37h0Z"/>
        <path class="cls-8" d="m277.77,157.5s-.03,0-.04,0c-.39-.08-1.26-1.15-1.92-2.39-.81-1.48-1.28-2.98-1.01-3.22.04-.03.08-.04.14-.03.39.08,1.26,1.15,1.92,2.39.82,1.49,1.29,2.99,1.01,3.22-.02.02-.06.04-.1.04Zm-2.88-5.6s-.04,0-.07.02c-.23.2.16,1.59,1.02,3.16.74,1.37,1.55,2.3,1.88,2.37.04,0,.07,0,.1-.01.23-.18-.16-1.6-1.02-3.16h0c-.74-1.37-1.55-2.3-1.88-2.37,0,0-.02,0-.04,0Z"/>
      </g>
      <g>
        <path class="cls-5" d="m277.78,154.34c.52,1.61.69,3.19.39,3.31-.32.1-1.06-1.26-1.58-2.87s-.69-3.19-.37-3.3c.3-.12,1.06,1.24,1.56,2.85h0Z"/>
        <path class="cls-8" d="m278.13,157.69s-.07,0-.1-.03c-.37-.19-1.02-1.45-1.47-2.87-.47-1.47-.73-3.2-.35-3.33.04-.01.08-.01.13.01.38.18,1.03,1.46,1.46,2.86.47,1.46.72,3.2.38,3.35-.01,0-.03,0-.05,0Zm-1.87-6.18s-.02,0-.03,0c-.27.09-.16,1.54.38,3.26.45,1.4,1.09,2.65,1.44,2.84.04.02.07.02.1.01.25-.1.13-1.59-.41-3.28h0c-.47-1.5-1.12-2.68-1.43-2.82-.02,0-.04-.01-.06-.01Z"/>
      </g>
      <g>
        <path class="cls-5" d="m278.02,157.56s-.92.04-1.12,0c-.18-.04-.28-.46-.87-.46s-1.12.28-1.35.52c-.23.21-.04.46.67.5.71.01,1.06-.37,1.42-.41.35-.01.94-.04,1.24.01.23-.21.85-.57,1.19-.8.34-.21,1.33-.33,1.86-.81.48-.39.57-.86.18-.86s-1.05.3-1.4.57c-.35.27-.41.84-.76,1.06-.28.15-1.03.7-1.06.68h0Z"/>
        <path class="cls-8" d="m275.42,158.13h-.05c-.44-.02-.72-.13-.78-.28-.03-.08,0-.16.09-.24.26-.26.81-.52,1.36-.52.4,0,.58.19.71.33.06.07.11.12.16.13.18.03.99.01,1.09,0h0s.02,0,.02,0c.04-.01.27-.16.46-.3.21-.15.46-.31.59-.39.18-.11.27-.31.38-.52.1-.2.21-.41.38-.54.37-.27,1.01-.57,1.41-.57.13,0,.21.05.25.14.07.19-.1.5-.41.75-.34.3-.86.47-1.28.6-.24.07-.46.14-.58.22-.12.08-.27.17-.42.27-.3.19-.61.38-.77.52h0s0,0,0,0c-.28-.05-.83-.04-1.23-.01-.13.01-.27.07-.42.15-.24.12-.54.26-.95.26Zm.62-1.01c-.61,0-1.13.3-1.34.51-.05.05-.11.13-.08.21.05.14.33.24.74.26h.04c.41,0,.7-.14.94-.25.16-.07.3-.14.43-.16.41-.02.95-.03,1.24.01.16-.14.47-.33.76-.52.16-.1.3-.19.42-.27.13-.08.34-.15.59-.22.41-.13.94-.29,1.27-.59.33-.27.46-.57.41-.72-.03-.08-.1-.12-.21-.12-.39,0-1.03.3-1.39.56-.17.13-.27.33-.37.52-.1.21-.21.41-.39.54-.13.07-.38.24-.59.39-.35.24-.44.3-.48.3-.1.03-.97.03-1.12,0-.07-.01-.12-.07-.18-.14-.12-.13-.3-.32-.68-.32Z"/>
      </g>
      <g>
        <path class="cls-5" d="m279.61,161.53c-.85,1.33-1.85,2.3-2.09,2.02-.23-.28.32-1.75,1.15-3.1.85-1.35,1.85-2.3,2.09-2.02.24.27-.3,1.76-1.15,3.1h0Z"/>
        <path class="cls-8" d="m277.63,163.64c-.06,0-.11-.02-.14-.06-.27-.33.39-1.92,1.15-3.14.73-1.16,1.58-2.05,1.98-2.08h.02c.06,0,.11.02.15.06.29.3-.37,1.91-1.15,3.14h0c-.75,1.16-1.6,2.05-1.99,2.08h-.03Zm3.01-5.22h-.01c-.33.02-1.14.8-1.93,2.05-.89,1.43-1.35,2.82-1.15,3.06.02.03.05.04.1.04.36-.03,1.21-.93,1.93-2.05h0c.91-1.44,1.37-2.83,1.16-3.06-.03-.02-.06-.04-.1-.04Z"/>
      </g>
      <g>
        <path class="cls-5" d="m279,161.06c-.58,1.56-1.4,2.82-1.7,2.62-.28-.19,0-1.77.61-3.33.61-1.56,1.42-2.8,1.7-2.62.28.19,0,1.77-.61,3.33h0Z"/>
        <path class="cls-8" d="m277.37,163.74s-.07,0-.09-.02c-.33-.23.04-1.96.59-3.37.52-1.36,1.23-2.52,1.61-2.65.06-.02.1-.01.15,0,.33.23-.04,1.96-.59,3.37h0c-.51,1.36-1.21,2.53-1.6,2.65-.03,0-.05,0-.07,0Zm2.18-5.99s-.03,0-.04,0c-.3.1-.99,1.13-1.57,2.61-.64,1.66-.86,3.13-.61,3.29.02.01.06.01.1,0,.36-.12,1.06-1.29,1.55-2.61h0c.64-1.65.86-3.13.61-3.29,0-.01-.02-.01-.04-.01Z"/>
      </g>
      <g>
        <path class="cls-5" d="m276.69,160.31c.57,1.46.81,2.99.52,3.24-.3.23-1.08-.89-1.63-2.36-.57-1.45-.81-2.99-.52-3.22.29-.25,1.06.86,1.63,2.34h0Z"/>
        <path class="cls-8" d="m277.12,163.61s-.04,0-.07,0c-.38-.11-1.03-1.14-1.5-2.39-.58-1.49-.82-3.02-.5-3.25.04-.04.1-.05.16-.03.37.09,1.02,1.12,1.52,2.38h0c.58,1.49.82,3.02.51,3.27-.04.02-.08.03-.12.03Zm-1.97-5.65s-.05,0-.07.03c-.29.22-.04,1.77.52,3.19.46,1.22,1.1,2.25,1.46,2.36.04.01.09,0,.13-.01.29-.24.04-1.77-.52-3.21h0c-.47-1.23-1.12-2.26-1.47-2.35-.02,0-.03,0-.04,0Z"/>
      </g>
      <g>
        <path class="cls-5" d="m277.46,160.03c.14,1.66-.01,3.28-.34,3.37-.32.09-.76-1.35-.92-3.03-.16-1.66,0-3.27.34-3.36.33-.1.77,1.34.92,3.02h0Z"/>
        <path class="cls-8" d="m277.09,163.43s-.07-.01-.1-.04c-.33-.22-.69-1.55-.83-3.02-.15-1.52-.04-3.29.35-3.39.04-.01.09,0,.13.03.33.22.69,1.55.82,3.02h0c.13,1.52.01,3.29-.35,3.39,0,0-.01,0-.03,0Zm-.53-6.4h-.02c-.29.07-.49,1.55-.32,3.34.13,1.43.5,2.77.8,2.99.03.02.06.03.09.02.27-.07.47-1.55.32-3.34h0c-.13-1.43-.5-2.77-.8-2.99-.02-.01-.04-.02-.07-.02Z"/>
      </g>
      <g>
        <path class="cls-5" d="m278.28,160.49c-.18,1.72-.62,3.24-.94,3.22-.34-.04-.48-1.6-.32-3.31.16-1.7.62-3.24.94-3.21.32.01.47,1.6.32,3.3h0Z"/>
        <path class="cls-8" d="m277.34,163.74h0c-.39-.04-.5-1.76-.35-3.34.14-1.49.52-2.92.84-3.19.04-.04.09-.05.13-.04.04,0,.07.02.11.07.27.31.37,1.77.23,3.26h0c-.16,1.57-.58,3.24-.95,3.24Zm.61-6.52s-.05.01-.07.04c-.31.25-.69,1.69-.83,3.15-.17,1.84.01,3.25.3,3.28h0c.27,0,.72-1.39.91-3.2h0c.14-1.45.04-2.93-.21-3.22-.02-.03-.05-.04-.07-.04t-.02,0Z"/>
      </g>
      <g>
        <path class="cls-5" d="m277.23,163.57s-.84-.34-.99-.44c-.16-.13-.09-.55-.62-.8s-1.14-.19-1.42-.09c-.28.13-.21.43.43.75.62.3,1.1.09,1.43.21.32.13.85.35,1.12.53.28-.1.99-.18,1.38-.25s1.33.23,2,.01c.57-.16.85-.58.5-.75-.37-.16-1.06-.16-1.49-.05-.43.1-.69.62-1.12.67-.3.04-1.18.24-1.22.2h0Z"/>
        <path class="cls-8" d="m277.17,163.75h0c-.26-.17-.77-.39-1.12-.53-.13-.04-.28-.04-.46-.04-.27,0-.6.01-.98-.17-.38-.19-.6-.4-.59-.57,0-.09.06-.16.17-.21.28-.1.89-.16,1.43.09.36.17.45.41.52.6.04.09.06.16.11.2.15.1.84.39.96.44v-.02l.03.03h.01c.08,0,.38-.06.62-.1.22-.04.45-.08.58-.1.21-.03.39-.18.57-.33.16-.14.33-.29.54-.34.42-.1,1.12-.11,1.5.05.12.05.18.13.17.24-.01.21-.3.44-.67.54-.41.13-.94.07-1.36.01-.27-.03-.5-.06-.65-.04-.13.02-.28.04-.45.07-.35.05-.74.1-.93.18h0Zm-1.45-.61c.13,0,.24,0,.33.04.35.14.86.36,1.12.52.2-.07.58-.13.93-.18.16-.02.33-.04.44-.07.16-.03.38,0,.66.04.41.05.93.11,1.35-.01.4-.11.63-.35.64-.51,0-.09-.04-.16-.15-.2-.37-.16-1.06-.16-1.48-.05-.2.05-.37.19-.52.33-.18.16-.36.31-.59.34-.13.01-.35.06-.57.1-.38.07-.55.1-.63.1-.01,0-.03,0-.04,0-.03,0-.13-.04-.44-.18-.1-.04-.45-.2-.55-.27-.06-.04-.09-.13-.12-.22-.07-.18-.16-.41-.5-.58-.54-.25-1.14-.19-1.4-.09-.07.03-.15.08-.15.18,0,.16.21.35.58.54.37.18.69.17.97.17.04,0,.08,0,.13,0Z"/>
      </g>
      <g>
        <path class="cls-5" d="m277.76,168.41c-1.37,1.19-2.79,1.89-2.95,1.49-.18-.39.9-1.83,2.29-2.99,1.37-1.17,2.79-1.88,2.96-1.49.16.39-.92,1.83-2.31,2.99h0Z"/>
        <path class="cls-8" d="m275.04,170.06s-.07,0-.1-.01c-.08-.02-.13-.07-.16-.13-.19-.41.91-1.87,2.3-3.05,1.16-.99,2.42-1.69,2.87-1.6.08.01.13.06.16.13.17.42-.93,1.88-2.32,3.05-1.07.95-2.23,1.62-2.74,1.62Zm4.81-4.7c-.43,0-1.54.58-2.71,1.58-1.45,1.22-2.43,2.61-2.28,2.94.01.04.05.07.1.08.35.1,1.52-.5,2.77-1.58h0c1.44-1.22,2.43-2.61,2.29-2.94-.01-.04-.05-.06-.1-.07-.02,0-.05,0-.07,0Z"/>
      </g>
      <g>
        <path class="cls-5" d="m277.26,167.68c-1.17,1.51-2.47,2.59-2.73,2.28-.25-.32.58-1.97,1.76-3.47,1.17-1.49,2.48-2.59,2.73-2.27.27.33-.57,1.97-1.76,3.46h0Z"/>
        <path class="cls-8" d="m274.65,170.06c-.07,0-.13-.02-.16-.07-.29-.38.69-2.16,1.75-3.53,1.03-1.32,2.19-2.34,2.64-2.34h0c.07,0,.13.02.16.07.32.38-.67,2.15-1.76,3.51-1.01,1.3-2.17,2.34-2.63,2.35.01,0,0,0,0,0Zm4.24-5.85c-.41,0-1.57,1.03-2.56,2.31-1.24,1.6-1.97,3.15-1.76,3.41.02.02.05.03.1.03h0c.43-.01,1.57-1.06,2.56-2.32h0c1.26-1.58,1.98-3.13,1.76-3.4-.03-.01-.06-.03-.1-.03h0Z"/>
      </g>
      <g>
        <path class="cls-5" d="m274.97,166.02c.14,1.83-.1,3.61-.5,3.78-.41.14-.9-1.37-1.05-3.19-.13-1.8.11-3.6.52-3.75.39-.15.89,1.36,1.03,3.17h0Z"/>
        <path class="cls-8" d="m274.42,169.83s-.09-.01-.13-.04c-.38-.25-.77-1.62-.89-3.18-.12-1.68.07-3.6.53-3.78.06-.02.12-.01.18.03.38.24.76,1.63.89,3.16h0c.14,1.82-.1,3.64-.52,3.8-.02.01-.04.01-.06.01Zm-.43-6.96s-.03,0-.04,0c-.38.15-.62,1.93-.5,3.73.12,1.52.5,2.9.86,3.14.05.03.1.04.15.02.35-.14.63-1.81.48-3.75h0c-.12-1.52-.5-2.89-.86-3.13-.03-.01-.06-.02-.09-.02Z"/>
      </g>
      <g>
        <path class="cls-5" d="m275.9,165.98c-.37,1.89-1.08,3.61-1.47,3.6-.39-.01-.41-1.77-.01-3.67.37-1.89,1.08-3.61,1.47-3.6.39.01.39,1.75.01,3.67h0Z"/>
        <path class="cls-8" d="m274.43,169.61h0c-.05,0-.1-.03-.15-.09-.29-.37-.24-1.97.1-3.62.34-1.71,1.05-3.62,1.5-3.62h0c.05,0,.1.03.14.08.28.35.24,1.91-.09,3.63h0c-.34,1.71-1.05,3.62-1.5,3.62Zm1.44-7.26c-.33,0-1.04,1.58-1.43,3.57-.33,1.62-.38,3.22-.11,3.57.03.04.06.06.1.06h0c.33,0,1.04-1.58,1.43-3.57h0c.33-1.66.37-3.23.1-3.57-.03-.04-.06-.06-.1-.06h0Z"/>
      </g>
      <g>
        <path class="cls-5" d="m276.64,166.8c-.75,1.83-1.74,3.35-2.09,3.21-.35-.14,0-1.93.75-3.75s1.74-3.35,2.09-3.21c.35.14,0,1.93-.75,3.75h0Z"/>
        <path class="cls-8" d="m274.59,170.05s-.04,0-.06-.01c-.04-.02-.08-.06-.11-.12-.19-.45.18-2.07.84-3.68.65-1.58,1.63-3.24,2.08-3.24.02,0,.04,0,.06.01.04.02.08.06.11.12.19.45-.18,2.07-.84,3.68h0c-.64,1.58-1.63,3.24-2.08,3.24Zm2.74-6.98c-.33,0-1.25,1.33-2.01,3.19-.64,1.57-1.02,3.2-.84,3.62.02.04.04.07.07.08.01,0,.02,0,.04,0,.33,0,1.25-1.33,2.01-3.19h0c.64-1.57,1.02-3.2.84-3.63-.01-.04-.04-.07-.07-.08h-.04Z"/>
      </g>
      <g>
        <path class="cls-5" d="m274.48,169.83s-.8-.69-.94-.86c-.14-.18.07-.62-.43-1.1-.5-.46-1.17-.62-1.52-.61s-.37.39.21.95c.58.58,1.17.52,1.51.76.34.27.84.71,1.06.99.35,0,1.15.16,1.6.23.46.07,1.4.75,2.22.75.67.01,1.14-.34.78-.64-.35-.32-1.12-.57-1.63-.6-.5-.04-.94.42-1.43.35-.36-.09-1.41-.18-1.43-.23h0Z"/>
        <path class="cls-8" d="m278.24,170.97h-.05c-.51,0-1.07-.27-1.52-.47-.28-.13-.52-.24-.69-.27-.1-.01-.23-.04-.37-.06-.43-.07-.96-.17-1.23-.17h-.01c-.23-.29-.72-.72-1.06-1-.13-.09-.28-.14-.47-.19-.3-.09-.67-.2-1.04-.57-.35-.35-.52-.65-.45-.84.04-.09.13-.14.25-.15h.05c.35,0,1,.16,1.49.61.33.32.35.62.37.84,0,.11.01.21.06.26.13.16.77.73.91.84v-.07l.04.1s.34.07.61.1c.3.04.63.08.8.13.04,0,.07,0,.1,0,.21,0,.43-.09.63-.18.21-.09.42-.18.65-.18h.05c.5.04,1.28.27,1.64.61.15.13.14.24.11.32-.07.21-.44.35-.85.35Zm-3.86-1.01c.27,0,.8.1,1.23.17.13.02.26.04.36.07.18.03.42.14.71.27.45.21,1.01.47,1.51.47h.04c.4,0,.75-.14.83-.33.04-.1,0-.19-.1-.27-.36-.33-1.12-.56-1.62-.6h-.05c-.21,0-.43.09-.64.18s-.42.18-.64.18c-.04,0-.07,0-.1,0-.17-.04-.5-.09-.8-.13-.5-.07-.62-.09-.64-.11-.04-.02-.13-.1-.42-.36-.13-.12-.44-.4-.52-.5-.05-.07-.06-.16-.07-.28-.01-.21-.04-.51-.35-.82-.48-.44-1.12-.6-1.46-.6h-.05c-.11,0-.19.05-.22.13-.07.17.1.47.44.8.36.36.73.47,1.03.56.18.06.35.1.47.2.35.27.83.7,1.06.98Z"/>
      </g>
      <g>
        <path class="cls-5" d="m273.04,174.45c-1.97.32-3.73.18-3.67-.3s1.88-1.2,3.85-1.52c1.97-.34,3.73-.19,3.67.28-.06.48-1.88,1.2-3.85,1.54h0Z"/>
        <path class="cls-8" d="m271.05,174.67c-.81,0-1.43-.1-1.64-.31-.07-.07-.1-.13-.09-.21.06-.5,1.88-1.23,3.89-1.56,1.67-.29,3.26-.23,3.64.12.07.07.1.13.09.21-.06.55-2.1,1.27-3.89,1.58h0c-.72.11-1.4.17-2,.17Zm4.21-2.18c-.6,0-1.31.06-2.03.18-2.09.34-3.77,1.08-3.81,1.49,0,.05.01.1.06.14.35.33,1.91.38,3.56.12,2.13-.36,3.77-1.09,3.81-1.5,0-.05-.01-.1-.06-.14-.2-.19-.78-.29-1.54-.29Z"/>
      </g>
      <g>
        <path class="cls-5" d="m272.95,173.46c-1.95.76-3.8,1.03-3.89.58-.07-.44,1.63-1.52,3.58-2.27,1.97-.76,3.81-1.03,3.89-.58.1.45-1.61,1.53-3.58,2.27h0Z"/>
        <path class="cls-8" d="m269.66,174.31c-.23,0-.4-.03-.51-.09-.07-.04-.12-.1-.13-.16-.08-.52,1.83-1.64,3.61-2.32,1.7-.66,3.38-.97,3.82-.71.07.04.11.1.13.16.1.52-1.82,1.64-3.61,2.31-1.29.5-2.56.81-3.3.81Zm6.29-3.28c-.67,0-1.89.25-3.29.79-2.08.79-3.61,1.84-3.56,2.22,0,.04.04.07.09.1.38.21,1.91,0,3.74-.72h0c2.09-.79,3.63-1.84,3.56-2.22,0-.04-.03-.07-.08-.1-.09-.05-.24-.07-.46-.07Z"/>
      </g>
      <g>
        <path class="cls-5" d="m271.65,170.55c-.87,1.8-2.08,3.39-2.56,3.3-.46-.09-.1-1.83.75-3.63.87-1.8,2.08-3.36,2.54-3.28.49.09.13,1.81-.72,3.61h0Z"/>
        <path class="cls-8" d="m269.14,173.88s-.03,0-.04,0c-.07-.01-.13-.06-.16-.13-.23-.45.16-2.01.89-3.55.89-1.85,2.08-3.39,2.58-3.3.07.01.13.06.18.14.23.45-.15,1.97-.88,3.53h0c-.78,1.6-2,3.32-2.56,3.32Zm3.2-6.91c-.47,0-1.64,1.54-2.46,3.26-.72,1.52-1.11,3.05-.89,3.48.03.06.07.09.12.1.45.07,1.66-1.48,2.51-3.27h0c.71-1.52,1.1-3.03.88-3.46-.03-.06-.07-.1-.13-.1h-.04Z"/>
      </g>
      <g>
        <path class="cls-5" d="m272.56,171.05c-1.4,1.6-3.02,2.82-3.39,2.57-.37-.23.58-1.91,1.99-3.49,1.4-1.6,3.04-2.83,3.39-2.59.37.24-.57,1.91-1.99,3.5h0Z"/>
        <path class="cls-8" d="m269.29,173.69c-.06,0-.1-.01-.15-.04-.05-.03-.08-.08-.09-.16-.07-.51.84-2,2.07-3.39,1.29-1.46,3.02-2.88,3.44-2.59.05.04.08.1.1.17.07.52-.84,2.01-2.08,3.39h0c-1.16,1.32-2.7,2.62-3.29,2.62Zm5.14-6.14c-.46,0-1.88,1.06-3.24,2.61-1.2,1.35-2.13,2.85-2.05,3.33,0,.05.03.09.06.11.32.21,1.85-.86,3.34-2.56h0c1.22-1.37,2.12-2.83,2.05-3.33,0-.06-.03-.1-.07-.12-.01-.01-.05-.03-.09-.03Z"/>
      </g>
      <g>
        <path class="cls-5" d="m272.83,172.25c-1.7,1.31-3.51,2.18-3.76,1.84-.27-.34,1.05-1.84,2.77-3.16,1.72-1.29,3.51-2.18,3.78-1.84.27.36-1.06,1.85-2.79,3.16h0Z"/>
        <path class="cls-8" d="m269.27,174.22s-.05,0-.07,0c-.07,0-.13-.04-.16-.09-.04-.04-.05-.11-.04-.19.07-.55,1.31-1.88,2.82-3.03,1.6-1.2,3.53-2.22,3.84-1.83.31.41-1.2,2-2.79,3.22h0c-1.42,1.09-2.99,1.94-3.59,1.94Zm6.14-5.14c-.51,0-1.97.72-3.55,1.91-1.47,1.12-2.72,2.45-2.79,2.97,0,.05,0,.1.02.13s.06.04.11.05c.02,0,.04,0,.06,0,.52,0,2.01-.74,3.53-1.91h0c1.83-1.39,2.99-2.8,2.78-3.09-.03-.05-.09-.07-.17-.07Z"/>
      </g>
      <g>
        <path class="cls-5" d="m269.1,173.88s-.41-1.12-.44-1.36c-.05-.27.41-.55.18-1.29-.23-.72-.78-1.28-1.14-1.45-.35-.19-.57.16-.32,1.03.27.89.87,1.17,1.05,1.61.18.43.43,1.15.5,1.54.34.21,1.01.84,1.4,1.15.41.32.94,1.51,1.72,1.98.66.41,1.28.33,1.12-.16-.18-.5-.78-1.17-1.24-1.51-.46-.33-1.15-.14-1.58-.5-.3-.29-1.26-1-1.24-1.05h0Z"/>
        <path class="cls-8" d="m272.82,177.37c-.22,0-.5-.1-.79-.27-.47-.3-.86-.86-1.18-1.31-.21-.3-.38-.55-.54-.68-.13-.1-.28-.24-.45-.38-.34-.3-.72-.62-.95-.77h0c-.07-.38-.31-1.11-.5-1.54-.07-.17-.2-.32-.35-.49-.24-.26-.52-.58-.69-1.12-.16-.53-.15-.92.02-1.06.08-.07.19-.06.32,0,.39.19.92.78,1.15,1.46.15.49,0,.78-.1,1-.06.12-.1.21-.08.3.04.24.37,1.2.43,1.34l.04-.04-.02.07s.33.29.59.5c.25.2.51.41.64.53.21.18.49.21.78.25.28.04.56.07.79.24.46.33,1.06,1.01,1.25,1.52.07.21,0,.31-.07.37-.06.05-.16.07-.27.07Zm-3.88-3.43c.23.15.61.47.95.77.16.14.33.28.45.38.16.13.34.38.55.69.31.45.7,1.01,1.17,1.29.41.25.84.33,1.03.19.09-.07.11-.18.06-.33-.18-.5-.78-1.17-1.23-1.49-.22-.16-.5-.2-.78-.24-.29-.04-.58-.07-.8-.26-.13-.13-.39-.33-.64-.53-.47-.38-.59-.48-.61-.52-.08-.13-.42-1.2-.44-1.37-.02-.1.03-.2.09-.33.1-.21.24-.5.09-.97-.21-.68-.74-1.25-1.12-1.44-.12-.07-.21-.07-.28-.01-.16.13-.16.5-.01,1.02.16.53.45.86.68,1.11.16.17.3.33.36.5.18.44.43,1.17.5,1.54Z"/>
      </g>
      <g>
        <path class="cls-5" d="m266.83,177.82c-2.03.04-3.87-.46-3.87-1.04s1.85-1.13,3.87-1.17c2.03-.01,3.87.48,3.87,1.06,0,.56-1.84,1.13-3.87,1.15h0Z"/>
        <path class="cls-8" d="m266.63,177.88c-1.6,0-3.1-.33-3.58-.79-.1-.1-.16-.21-.16-.32,0-.69,2.07-1.2,3.93-1.23h.11c1.66,0,3.19.33,3.67.81.1.1.16.21.16.32,0,.61-1.87,1.2-3.92,1.21-.07,0-.14,0-.21,0Zm.31-2.22h-.1c-2.14.04-3.81.63-3.81,1.11,0,.07.04.16.12.23.44.44,1.92.75,3.48.75h.2c2.11-.02,3.81-.61,3.81-1.09,0-.07-.04-.16-.12-.23-.45-.45-1.97-.78-3.58-.78Z"/>
      </g>
      <g>
        <path class="cls-5" d="m266.32,174.37c-1.28,1.65-2.84,2.82-3.27,2.46-.44-.35.34-2.2,1.61-3.84,1.28-1.65,2.84-2.84,3.28-2.46.43.35-.35,2.17-1.63,3.84h0Z"/>
        <path class="cls-8" d="m263.25,176.95c-.1,0-.18-.02-.24-.08-.52-.42.42-2.41,1.6-3.93,1.07-1.38,2.38-2.48,3.05-2.55.14-.01.24.01.33.08.51.42-.43,2.37-1.63,3.93h0c-1.07,1.38-2.38,2.48-3.05,2.54-.01,0-.04,0-.06,0Zm4.48-6.44h-.06c-.64.07-1.91,1.15-2.96,2.51-1.37,1.76-2,3.47-1.63,3.75.05.04.13.06.22.04.63-.07,1.92-1.17,2.96-2.5h0c1.35-1.76,2-3.47,1.64-3.76-.04-.03-.1-.04-.17-.04Z"/>
      </g>
      <g>
        <path class="cls-5" d="m266.86,176.13c-1.88.8-3.78,1.04-3.99.52-.2-.53,1.33-1.75,3.21-2.57,1.88-.81,3.78-1.06,3.98-.52.21.54-1.31,1.76-3.19,2.57h0Z"/>
        <path class="cls-8" d="m263.67,176.99c-.25,0-.46-.03-.61-.09-.13-.05-.21-.13-.25-.23-.24-.64,1.52-1.91,3.24-2.65,1.56-.67,3.19-.98,3.81-.72.13.06.21.13.25.24.25.63-1.5,1.9-3.23,2.65h0c-1.18.5-2.42.8-3.22.8Zm5.58-3.66c-.77,0-1.97.3-3.14.81-1.99.86-3.34,2.05-3.18,2.49.02.07.09.12.18.16.59.24,2.19-.06,3.73-.71h0c2-.86,3.34-2.05,3.16-2.49-.02-.07-.09-.13-.18-.17-.14-.05-.33-.08-.57-.08Z"/>
      </g>
      <g>
        <path class="cls-5" d="m267.91,142.52c.94.85,1.56,1.72,1.33,1.86-.25.13-1.32-.52-2.24-1.37-.94-.84-1.56-1.71-1.33-1.84.25-.12,1.32.52,2.24,1.35h0Z"/>
        <path class="cls-8" d="m269.17,144.44c-.37,0-1.35-.61-2.19-1.39-.81-.72-1.43-1.51-1.39-1.8,0-.06.04-.09.07-.1.02-.01.06-.02.1-.02.4,0,1.41.68,2.18,1.37h0c.82.74,1.42,1.52,1.39,1.8,0,.07-.04.1-.07.11-.02.02-.05.03-.09.03Zm-3.41-3.24s-.05,0-.07.01c0,0-.02.01-.03.04-.03.23.52.98,1.37,1.74.96.89,1.98,1.47,2.2,1.36,0,0,.02-.02.03-.06.02-.23-.49-.95-1.37-1.74h0c-.89-.81-1.82-1.35-2.13-1.35Z"/>
      </g>
      <g>
        <path class="cls-5" d="m266.72,143.52c1.26.18,2.45.55,2.51.81.05.27-1.05.35-2.31.19-1.26-.18-2.47-.55-2.51-.81-.05-.27,1.04-.35,2.31-.19h0Z"/>
        <path class="cls-8" d="m268.1,144.64c-.35,0-.76-.03-1.19-.08-1.18-.16-2.48-.53-2.53-.84,0-.04,0-.07.04-.11.19-.21,1.18-.26,2.3-.12h0c1.17.16,2.46.53,2.53.84,0,.04,0,.08-.04.11-.12.13-.54.2-1.11.2Zm-2.56-1.17c-.55,0-.97.06-1.08.18-.02.02-.03.04-.02.07.04.24,1.19.61,2.48.79,1.09.14,2.08.1,2.25-.1.02-.02.03-.04.02-.07-.05-.24-1.2-.61-2.48-.79h0c-.41-.06-.81-.08-1.17-.08Z"/>
      </g>
      <g>
        <path class="cls-5" d="m267.2,142.9c1.19.6,2.15,1.35,2.03,1.54-.13.21-1.32-.14-2.51-.76-1.19-.61-2.14-1.33-2.03-1.54.13-.19,1.32.16,2.51.77h0Z"/>
        <path class="cls-8" d="m269.03,144.53c-.44,0-1.46-.38-2.32-.83-1.06-.54-1.95-1.18-2.04-1.48-.01-.04,0-.07,0-.1.16-.24,1.46.21,2.54.75,1.05.53,1.97,1.2,2.05,1.49,0,.04,0,.07,0,.1-.04.05-.11.07-.22.07Zm-4.15-2.42c-.08,0-.13.01-.15.04,0,.01,0,.04,0,.06.08.27.98.92,2.01,1.44,1.24.65,2.37.95,2.47.77,0-.01,0-.03,0-.05-.07-.24-.89-.88-2.02-1.45h0c-1.01-.52-1.95-.81-2.31-.81Z"/>
      </g>
      <g>
        <path class="cls-5" d="m249.77,174.06s3.24.69,6.05,1.71c2.82,1.03,7.1,4.54,8.25,4.73,1.29.05,3.09-.37,3.76-2.23-1.99.51-3.18,1.33-5.08.28-.67-.25-2.88-2.25-5.27-3.31-2.41-1.06-7.26-2.28-7.26-2.28l-.46,1.1h0Z"/>
        <path class="cls-8" d="m264.27,180.54h-.19c-.53-.09-1.71-.86-3.07-1.77-1.63-1.07-3.65-2.41-5.19-2.97-2.77-1.01-6.02-1.71-6.05-1.71h-.03s.01-.04.01-.04l.47-1.12h.02c.05.02,4.87,1.24,7.26,2.29,1.5.67,2.92,1.69,3.95,2.45.6.44,1.07.78,1.32.87,1.49.82,2.55.49,3.9.06.37-.12.75-.24,1.16-.35h.05s-.01.04-.01.04c-.75,2.03-2.76,2.25-3.61,2.25Zm-14.46-6.5c.34.07,3.39.75,6.02,1.71,1.55.56,3.58,1.9,5.2,2.97,1.36.89,2.53,1.67,3.05,1.75h.18c.83,0,2.79-.21,3.53-2.17-.4.1-.76.22-1.11.33-1.35.43-2.42.77-3.93-.07-.25-.09-.72-.44-1.33-.87-1.03-.75-2.44-1.77-3.94-2.44-2.3-1.01-6.87-2.19-7.23-2.28l-.45,1.06Z"/>
      </g>
      <g>
        <path class="cls-5" d="m253.23,144.83s3.73-1.97,3.73-1.97l-4.12,1.04-.48.72.87.2h0Z"/>
        <path class="cls-8" d="m253.28,144.87l-.96-.21.02-.03.49-.73h0l4.35-1.1-.21.1c-.98.5-3.49,1.8-3.7,1.95v.02Zm-.87-.25l.83.18c.09-.07.45-.27,1.85-.99.67-.35,1.34-.69,1.66-.86l-3.88.98-.46.69Z"/>
      </g>
      <g>
        <path class="cls-5" d="m256.77,145.73c-1.43-.27-3.66-.76-5.08-.86.98-1.08,2.33-2.9,3.16-4.02-.55,1.06-1.42,2.48-1.76,3.49,1.01.55,2.56.95,3.68,1.4h0Z"/>
        <path class="cls-8" d="m257.03,145.81l-.27-.05c-.35-.07-.75-.15-1.18-.23-1.32-.26-2.82-.56-3.89-.64h-.05s.04-.04.04-.04c.91-1.01,2.16-2.68,2.98-3.78l.37-.5-.15.29c-.16.31-.34.64-.54.99-.47.86-.97,1.76-1.21,2.47.64.35,1.49.64,2.33.92.47.16.92.31,1.32.47l.25.1Zm-5.28-.97c1.06.09,2.54.38,3.84.64.31.06.61.12.89.18-.33-.12-.68-.24-1.04-.36-.84-.28-1.71-.58-2.36-.93h-.02s0-.03,0-.03c.24-.72.74-1.63,1.22-2.5.13-.24.26-.47.38-.69-.81,1.09-2.02,2.7-2.91,3.7Z"/>
      </g>
      <g>
        <path class="cls-5" d="m252.56,145.04s3.32-2.55,3.32-2.55l-3.85,1.71-.35.8.89.04h0Z"/>
        <path class="cls-8" d="m252.63,145.07l-1-.04v-.04s.38-.81.38-.81h0s4.06-1.82,4.06-1.82l-.18.14c-1.08.82-3.09,2.35-3.3,2.53l.04.03Zm-.91-.09l.84.04c.09-.08.56-.46,3.13-2.41l-3.63,1.62-.34.75Z"/>
      </g>
      <g>
        <path class="cls-5" d="m256.09,145.68c-1.46-.27-3.69-.78-5.11-.9.96-1.12,2.29-2.99,3.09-4.15-.53,1.1-1.37,2.55-1.69,3.61,1.01.55,2.59.99,3.7,1.43h0Z"/>
        <path class="cls-8" d="m256.35,145.75l-.27-.05c-.42-.07-.91-.18-1.43-.28-1.26-.25-2.68-.54-3.69-.63h-.05s.04-.04.04-.04c.72-.84,1.77-2.24,3.09-4.15l.19-.28-.15.31c-.15.3-.32.63-.5.98-.44.86-.95,1.85-1.19,2.62.66.35,1.55.67,2.41.96.46.16.89.31,1.28.47l.26.1Zm-5.31-1c1.01.1,2.4.38,3.64.62.4.08.79.16,1.14.22-.31-.12-.65-.24-1.01-.35-.87-.3-1.77-.61-2.43-.98h-.02s0-.03,0-.03c.23-.78.75-1.77,1.2-2.65.12-.23.23-.44.33-.65-1.21,1.73-2.17,3.01-2.85,3.81Z"/>
      </g>
      <g>
        <path class="cls-5" d="m252.01,145.26s3.9-1.63,3.9-1.63l-4.21.69-.55.67.85.27h0Z"/>
        <path class="cls-8" d="m252.07,145.3l-.95-.3.58-.71h0l4.43-.73-.22.09c-1.02.41-3.64,1.49-3.88,1.61l.02.04Zm-.86-.33l.81.25c.1-.06.64-.3,3.67-1.54l-3.96.65-.52.64Z"/>
      </g>
      <g>
        <path class="cls-5" d="m255.66,145.72c-1.47-.13-3.75-.39-5.17-.35.81-1.24,1.9-3.3,2.56-4.57-.39,1.19-1.05,2.76-1.24,3.87,1.06.45,2.68.74,3.85,1.06h0Z"/>
        <path class="cls-8" d="m255.95,145.77l-.29-.02c-.34-.03-.72-.07-1.12-.1-1.27-.12-2.69-.25-3.76-.25h-.33l.03-.04c.61-.93,1.47-2.47,2.56-4.57l.16-.3-.1.32c-.12.35-.26.75-.41,1.15-.34.95-.69,1.92-.84,2.68.72.31,1.69.54,2.62.75.43.1.84.2,1.2.3l.27.09Zm-5.17-.44c1.07,0,2.5.13,3.76.25.28.03.55.05.81.07-.28-.07-.58-.14-.9-.21-.95-.22-1.92-.45-2.65-.77h-.02s0-.03,0-.03c.14-.77.5-1.76.84-2.71.1-.29.2-.56.3-.82-.99,1.91-1.78,3.33-2.37,4.22.07,0,.16,0,.23,0Z"/>
      </g>
      <g>
        <path class="cls-5" d="m251.6,145.27s2.66-3.22,2.66-3.22l-3.36,2.51-.16.85.86-.14h0Z"/>
        <path class="cls-8" d="m250.72,145.45l.17-.9h0s3.54-2.66,3.54-2.66l-.15.18c-.87,1.04-2.51,3-2.65,3.2l.02.02-.95.16Zm.21-.87l-.16.81.81-.13c.06-.1.32-.41,1.32-1.61.48-.58.96-1.15,1.19-1.43l-3.16,2.37Z"/>
      </g>
      <g>
        <path class="cls-5" d="m255.63,145.93c-1.56-.01-4.01-.16-5.52-.04.75-1.4,1.69-3.72,2.27-5.15-.3,1.33-.85,3.08-.94,4.3,1.18.42,2.93.6,4.19.89h0Z"/>
        <path class="cls-8" d="m255.97,145.97h-.34c-.45-.01-.98-.03-1.54-.04-1.37-.04-2.9-.09-3.98,0h-.07s.03-.05.03-.05c.72-1.35,1.61-3.53,2.2-4.99l.23-.56-.1.42c-.09.4-.2.83-.32,1.29-.27,1.05-.55,2.14-.62,2.99.75.27,1.73.44,2.68.6.53.09,1.03.18,1.48.28l.34.07Zm-4.3-.16c.78,0,1.63.02,2.42.05.41.01.81.02,1.17.03-.35-.07-.72-.13-1.12-.2-.96-.16-1.96-.33-2.71-.61h-.02v-.04c.07-.86.35-1.96.62-3.02.07-.29.15-.57.21-.84-.58,1.42-1.4,3.41-2.07,4.68.44-.04.95-.05,1.49-.05Z"/>
      </g>
      <g>
        <path class="cls-5" d="m251.07,146.03s3.22-3.08,3.22-3.08l-3.89,2.16-.27.9.94.02h0Z"/>
        <path class="cls-8" d="m251.13,146.07l-1.04-.02v-.04s.28-.92.28-.92h.01s4.13-2.31,4.13-2.31l-.21.19c-.84.8-3.02,2.86-3.19,3.06v.04Zm-.95-.09h.89c.1-.12.62-.63,2.99-2.86l-3.63,2.02-.24.84Z"/>
      </g>
      <g>
        <path class="cls-5" d="m254.94,146.03c-1.7,0-4.31-.09-5.96.1,1.1-1.57,2.59-4.16,3.51-5.74-.58,1.45-1.54,3.4-1.9,4.77,1.19.43,3.04.61,4.35.87h0Z"/>
        <path class="cls-8" d="m248.9,146.18l.04-.07c.99-1.42,2.28-3.64,3.23-5.25l.53-.91-.18.45c-.18.45-.39.94-.62,1.46-.5,1.15-1.02,2.34-1.27,3.27.79.28,1.86.44,2.88.61.51.08,1,.16,1.43.24l.35.07h-.35c-.38,0-.81,0-1.26,0-1.52-.01-3.41-.04-4.69.12h-.08Zm3.36-5.31l-.02.04c-.93,1.59-2.2,3.76-3.19,5.19,1.28-.14,3.05-.13,4.62-.1.31,0,.61,0,.88,0-.33-.06-.68-.12-1.05-.18-1.04-.16-2.13-.34-2.93-.63h-.03s0-.04,0-.04c.24-.95.77-2.15,1.28-3.31.16-.34.3-.67.43-.98Z"/>
      </g>
      <g>
        <path class="cls-5" d="m249.99,146.26s4.1-3.47,4.1-3.47l-4.63,2.46-.48,1.03h1.01Z"/>
        <path class="cls-8" d="m248.92,146.32l.51-1.09h0s4.93-2.63,4.93-2.63l-.26.22c-1.08.9-3.87,3.24-4.08,3.45v.03s-1.11.01-1.11.01Zm.56-1.04l-.45.97h.95c.09-.12.48-.45,2.03-1.76.71-.6,1.43-1.2,1.8-1.51l-4.32,2.3Z"/>
      </g>
      <g>
        <path class="cls-5" d="m254.32,146.14c-1.67.25-4.28.51-5.88.92.85-1.69,1.97-4.41,2.65-6.08-.37,1.51-1.03,3.54-1.19,4.91,1.24.27,3.09.16,4.42.24h0Z"/>
        <path class="cls-8" d="m248.38,147.11l.04-.07c.82-1.63,1.9-4.24,2.65-6.08l.18-.46-.12.48c-.11.46-.25.97-.4,1.5-.33,1.2-.67,2.43-.78,3.37.81.16,1.85.18,2.85.19.55,0,1.06.01,1.53.04l.33.02-.33.05c-.47.07-1,.14-1.57.21-1.48.19-3.15.41-4.3.71h-.09Zm2.55-5.62c-.72,1.76-1.66,4.04-2.41,5.52,1.15-.29,2.79-.5,4.24-.69.43-.06.84-.11,1.21-.16-.36-.01-.75-.02-1.17-.03-1.03-.01-2.08-.03-2.9-.2h-.03v-.04c.11-.95.46-2.2.79-3.41.09-.35.18-.68.27-.99Z"/>
      </g>
      <g>
        <path class="cls-5" d="m249.46,146.96s3.16-4.38,3.16-4.38l-3.95,3.56-.21,1.08,1.01-.27h0Z"/>
        <path class="cls-8" d="m248.4,147.27v-.06s.23-1.09.23-1.09l4.23-3.8-.21.28c-.84,1.14-2.99,4.07-3.15,4.35l.03.03-1.13.3Zm.29-1.11l-.2,1.01.95-.25c.06-.13.36-.55,1.56-2.19.55-.75,1.1-1.5,1.39-1.9l-3.7,3.33Z"/>
      </g>
      <g>
        <path class="cls-5" d="m253.4,146.65c-1.69.16-4.29.3-5.93.64.96-1.65,2.22-4.3,3-5.95-.46,1.49-1.24,3.49-1.47,4.83,1.22.34,3.07.32,4.4.48h0Z"/>
        <path class="cls-8" d="m247.4,147.34l.04-.07c.96-1.65,2.23-4.34,3-5.95l.21-.45-.15.47c-.14.46-.31.95-.49,1.48-.4,1.18-.81,2.39-.98,3.32.79.21,1.83.28,2.84.35.55.04,1.06.07,1.52.13l.33.04-.33.03c-.42.04-.91.08-1.42.12-1.54.13-3.29.27-4.51.52l-.07.02Zm2.87-5.51c-.76,1.6-1.87,3.91-2.73,5.4,1.22-.24,2.93-.38,4.44-.5.37-.03.72-.06,1.06-.09-.36-.04-.75-.06-1.16-.09-1.03-.07-2.08-.13-2.88-.35h-.03s0-.04,0-.04c.16-.94.58-2.17.98-3.36.11-.33.22-.66.32-.97Z"/>
      </g>
      <g>
        <path class="cls-5" d="m248.87,147.42s4.03-3.49,4.03-3.49l-4.56,2.46-.46,1.03h.99Z"/>
        <path class="cls-8" d="m248.92,147.45h-1.1l.49-1.09h0s4.86-2.63,4.86-2.63l-.25.21c-1.06.91-3.8,3.25-4.01,3.47v.04Zm-.99-.07h.93c.09-.1.47-.44,2-1.75.7-.61,1.4-1.2,1.77-1.52l-4.26,2.3-.44.97Z"/>
      </g>
      <g>
        <path class="cls-5" d="m252.9,146.83c-1.69.35-4.29.81-5.91,1.33.8-1.72,1.77-4.48,2.39-6.19-.32,1.51-.87,3.56-.98,4.92,1.26.16,3.12-.05,4.49-.07h0Z"/>
        <path class="cls-8" d="m246.92,148.22l.04-.07c.69-1.5,1.53-3.8,2.14-5.48.09-.25.18-.49.25-.7l.17-.47-.1.49c-.09.41-.18.84-.3,1.31-.28,1.21-.6,2.59-.68,3.58.84.1,1.92.04,2.97-.01.52-.03,1.03-.05,1.48-.06h.36s-.35.07-.35.07c-.4.08-.86.18-1.34.27-1.57.31-3.34.67-4.57,1.06l-.07.02Zm2.31-5.74c-.02.07-.05.13-.07.2-.6,1.66-1.42,3.91-2.11,5.41,1.23-.38,2.96-.73,4.5-1.03.33-.07.65-.13.95-.19-.34.01-.7.03-1.09.05-1.07.06-2.17.12-3.02,0h-.04v-.04c.08-1,.4-2.39.69-3.63.06-.25.13-.52.18-.77Z"/>
      </g>
      <g>
        <path class="cls-5" d="m248.21,147.59s2.56-4.77,2.56-4.77l-3.48,4.11-.05,1.1.98-.44h0Z"/>
        <path class="cls-8" d="m247.2,148.1v-.06l.05-1.11h0s3.7-4.38,3.7-4.38l-.17.3c-.67,1.23-2.39,4.41-2.54,4.73l.04.02-1.09.5Zm.13-1.15l-.05,1.03.92-.41c.06-.14.41-.83,2.38-4.45l-3.24,3.84Z"/>
      </g>
      <g>
        <path class="cls-5" d="m252.9,147.1c-1.81.48-4.61,1.08-6.32,1.74.66-1.95,1.4-5.09,1.86-7-.16,1.69-.53,4.01-.46,5.53,1.4.14,3.42-.2,4.92-.27h0Z"/>
        <path class="cls-8" d="m246.52,148.89l.02-.07c.62-1.84,1.32-4.75,1.78-6.67l.19-.81-.04.5c-.04.47-.1.99-.17,1.54-.16,1.34-.34,2.86-.29,3.95.92.09,2.09-.02,3.22-.13.59-.06,1.15-.11,1.66-.13h.33s-.33.07-.33.07c-.5.13-1.06.27-1.66.42-1.6.39-3.41.84-4.65,1.32l-.07.02Zm1.83-6.53c-.46,1.9-1.12,4.63-1.71,6.42,1.23-.47,3.02-.91,4.59-1.29.47-.11.91-.22,1.31-.33-.41.03-.84.07-1.29.11-1.15.11-2.34.23-3.27.13h-.03v-.03c-.05-1.1.13-2.64.29-3.99.04-.36.08-.7.12-1.02Z"/>
      </g>
      <g>
        <path class="cls-5" d="m247.7,148.69s3.24-4.78,3.24-4.78l-4.15,3.87-.18,1.2,1.09-.29h0Z"/>
        <path class="cls-8" d="m246.57,149.02l.18-1.27h0s4.39-4.09,4.39-4.09l-.18.27c-.86,1.25-3.08,4.47-3.24,4.75l.03.03-1.19.32Zm.25-1.23l-.17,1.14,1.02-.27c.06-.13.36-.58,1.6-2.39.58-.84,1.16-1.69,1.46-2.11l-3.9,3.64Z"/>
      </g>
      <g>
        <path class="cls-5" d="m252.19,147.65c-1.77.57-4.56,1.33-6.21,2.05.55-1.97,1.15-5.1,1.52-7.01-.09,1.69-.34,3.98-.19,5.49,1.4.05,3.39-.39,4.88-.53h0Z"/>
        <path class="cls-8" d="m245.92,149.77l.02-.07c.52-1.88,1.09-4.81,1.48-6.76l.15-.75-.03.5c-.02.44-.06.9-.09,1.4-.1,1.38-.21,2.94-.1,4.06.89.03,2.02-.14,3.1-.3.62-.1,1.2-.18,1.74-.23l.33-.03-.31.1c-.47.15-1.02.32-1.6.49-1.6.48-3.41,1.03-4.61,1.56l-.07.04Zm1.52-6.55c-.37,1.91-.91,4.63-1.4,6.42,1.21-.52,2.99-1.06,4.55-1.54.44-.13.86-.27,1.26-.38-.44.05-.89.12-1.38.19-1.11.16-2.25.33-3.15.3h-.03v-.03c-.1-1.12,0-2.71.1-4.09.01-.31.03-.6.05-.87Z"/>
      </g>
      <g>
        <path class="cls-5" d="m247.04,149.4s2.47-5.28,2.47-5.28l-3.5,4.54v1.22s1.03-.48,1.03-.48h0Z"/>
        <path class="cls-8" d="m246,149.94l-.02-1.29h0s3.7-4.8,3.7-4.8l-.14.3c-.83,1.74-2.38,5.03-2.46,5.26v.02s-1.08.52-1.08.52Zm.05-1.27v1.15s.97-.45.97-.45c.06-.16.41-.93,2.31-4.97l-3.28,4.26Z"/>
      </g>
      <g>
        <path class="cls-5" d="m251.51,148.37c-1.83.41-4.65.94-6.37,1.52.72-1.91,1.62-4.98,2.14-6.87-.23,1.69-.69,3.95-.69,5.45,1.41.18,3.44-.08,4.92-.1h0Z"/>
        <path class="cls-8" d="m245.08,149.95l.03-.07c.55-1.45,1.27-3.76,2.14-6.87l.14-.5-.07.51c-.07.49-.15,1.01-.24,1.57-.22,1.37-.45,2.79-.45,3.86.91.11,2.06.04,3.19-.03.61-.04,1.18-.07,1.7-.08h.34s-.33.07-.33.07c-.43.1-.9.2-1.41.3-1.71.36-3.64.77-4.95,1.22l-.08.02Zm2.1-6.4c-.79,2.8-1.46,4.92-1.97,6.29,1.32-.44,3.22-.84,4.89-1.2.37-.08.72-.16,1.06-.23-.41.01-.86.04-1.33.07-1.13.07-2.31.14-3.23.03h-.03v-.04c0-1.08.23-2.51.45-3.9.06-.36.11-.7.16-1.03Z"/>
      </g>
      <g>
        <path class="cls-5" d="m246.48,149.9s4.01-4.12,4.01-4.12l-4.74,3.07-.39,1.15,1.12-.1h0Z"/>
        <path class="cls-8" d="m245.3,150.03l.41-1.21h0s5.01-3.25,5.01-3.25l-.23.23c-1.06,1.07-3.77,3.82-3.99,4.09l.04.04-1.25.1Zm.47-1.17l-.37,1.09,1.06-.08c.08-.12.47-.52,1.98-2.07.71-.72,1.43-1.46,1.79-1.82l-4.46,2.88Z"/>
      </g>
      <g>
        <path class="cls-5" d="m250.7,149.08c-1.81.24-4.6.5-6.32.94.84-1.88,1.88-4.92,2.54-6.79-.34,1.69-.92,3.95-1.03,5.49,1.35.3,3.36.24,4.81.35h0Z"/>
        <path class="cls-8" d="m244.32,150.07l.03-.07c.73-1.65,1.63-4.19,2.28-6.05.09-.26.18-.51.26-.74l.16-.47-.1.49c-.09.46-.2.96-.32,1.49-.3,1.34-.63,2.85-.71,3.97.86.19,2,.23,3.08.27.61.02,1.18.04,1.69.08l.32.03-.32.04c-.48.07-1.03.13-1.61.2-1.61.19-3.44.41-4.71.74l-.06.02Zm2.46-6.33c-.03.08-.06.16-.09.24-.64,1.83-1.52,4.33-2.25,5.99,1.26-.32,3.06-.53,4.64-.72.44-.05.87-.1,1.26-.16-.42-.03-.87-.04-1.35-.06-1.11-.04-2.25-.07-3.13-.27h-.03v-.04c.07-1.12.41-2.65.71-4.01.08-.34.16-.67.22-.98Z"/>
      </g>
      <g>
        <path class="cls-5" d="m245.68,149.49s2.73-5.16,2.73-5.16l-3.71,4.34-.05,1.22,1.03-.4h0Z"/>
        <path class="cls-8" d="m244.61,149.95l.06-1.29h0s3.92-4.6,3.92-4.6l-.16.3c-.73,1.35-2.61,4.84-2.72,5.13l.02.02-1.13.44Zm.13-1.26l-.05,1.15.97-.38c.04-.13.3-.61,1.35-2.58.49-.91.98-1.82,1.22-2.27l-3.48,4.08Z"/>
      </g>
      <g>
        <path class="cls-5" d="m250.93,148.46c-1.97.81-5.02,1.93-6.87,2.9.61-2.32,1.24-5.99,1.63-8.26-.07,1.97-.34,4.66-.16,6.38,1.54-.05,3.75-.72,5.4-1.03h0Z"/>
        <path class="cls-8" d="m243.99,151.45l.02-.1c.64-2.43,1.31-6.36,1.63-8.25l.11-.65-.02.66c-.02.56-.05,1.17-.09,1.81-.1,1.62-.19,3.3-.07,4.52,1.01-.04,2.27-.34,3.5-.62.66-.16,1.28-.3,1.85-.4l.41-.07-.38.16c-.54.22-1.17.47-1.83.73-1.74.69-3.7,1.46-5.04,2.17l-.08.04Zm1.63-7.64c-.35,2.02-.93,5.31-1.49,7.47,1.34-.69,3.26-1.46,4.96-2.13.5-.2.97-.38,1.4-.56-.44.09-.91.2-1.4.32-1.25.29-2.54.59-3.56.63h-.04v-.04c-.13-1.23-.04-2.93.06-4.58.02-.38.04-.75.07-1.11Z"/>
      </g>
      <g>
        <path class="cls-5" d="m245.3,151.05s3.27-5.92,3.27-5.92l-4.33,5-.11,1.4,1.18-.47h0Z"/>
        <path class="cls-8" d="m244.08,151.59v-.07s.12-1.41.12-1.41h0s4.61-5.33,4.61-5.33l-.21.38c-.86,1.54-3.1,5.54-3.25,5.88l.03.03-1.3.52Zm.2-1.45l-.1,1.32,1.09-.44c.06-.16.36-.72,1.6-2.96.57-1.02,1.14-2.03,1.43-2.56l-4.03,4.65Z"/>
      </g>
      <g>
        <path class="cls-5" d="m250.17,149.2c-1.91.89-4.92,2.16-6.7,3.24.5-2.32.96-5.99,1.26-8.23.01,1.95-.13,4.6.1,6.3,1.54-.15,3.73-.95,5.34-1.32h0Z"/>
        <path class="cls-8" d="m243.39,152.54l.02-.1c.44-2.05.85-5.14,1.15-7.39.04-.3.07-.58.11-.84l.08-.61v.62c.01.58,0,1.2,0,1.87-.02,1.57-.04,3.2.11,4.39.98-.1,2.21-.45,3.4-.79.67-.19,1.32-.38,1.89-.51l.42-.1-.39.18c-.42.19-.89.41-1.4.64-1.74.78-3.91,1.76-5.31,2.6l-.08.05Zm1.28-7.67c0,.06-.01.13-.02.18-.3,2.22-.69,5.25-1.12,7.3,1.4-.84,3.52-1.79,5.23-2.56.34-.16.67-.3.98-.44-.45.12-.93.25-1.43.4-1.21.35-2.46.71-3.46.8h-.04s0-.04,0-.04c-.16-1.2-.14-2.85-.12-4.45,0-.41,0-.81,0-1.2Z"/>
      </g>
      <g>
        <path class="cls-5" d="m244.63,151.93s2.38-6.36,2.38-6.36l-3.57,5.68.09,1.38,1.1-.7h0Z"/>
        <path class="cls-8" d="m243.49,152.72v-.07s-.1-1.4-.1-1.4h0s3.81-6.08,3.81-6.08l-.16.42c-.78,2.06-2.25,5.94-2.37,6.32l.04.02-1.23.79Zm0-1.45l.08,1.29,1.03-.67c.04-.17.27-.79,1.17-3.17.41-1.09.83-2.18,1.04-2.76l-3.32,5.3Z"/>
      </g>
      <g>
        <path class="cls-5" d="m249.33,149.72c-1.91.92-4.92,2.22-6.71,3.31.5-2.32.94-5.99,1.23-8.24.01,1.93-.1,4.6.14,6.29,1.57-.14,3.71-.95,5.34-1.36h0Z"/>
        <path class="cls-8" d="m242.56,153.12l.02-.1c.46-2.14.88-5.48,1.15-7.69l.16-1.2v.66c.01.52,0,1.09,0,1.69-.01,1.56-.03,3.33.14,4.55,1.03-.1,2.28-.48,3.5-.85.64-.19,1.23-.37,1.79-.51l.42-.1-.39.18c-.5.24-1.08.51-1.69.79-1.73.8-3.7,1.71-5.02,2.52l-.09.06Zm1.25-7.63c-.27,2.17-.67,5.35-1.12,7.45,1.32-.8,3.24-1.69,4.94-2.47.44-.21.86-.4,1.26-.58-.42.12-.86.25-1.32.39-1.24.38-2.53.76-3.56.86h-.04s0-.04,0-.04c-.18-1.23-.16-3.02-.15-4.6,0-.35,0-.69,0-1.01Z"/>
      </g>
      <g>
        <path class="cls-5" d="m244.08,152.69s3.71-5.62,3.71-5.62l-4.66,4.6-.23,1.38,1.18-.37h0Z"/>
        <path class="cls-8" d="m242.83,153.13v-.07s.24-1.4.24-1.4h0s4.97-4.92,4.97-4.92l-.24.36c-1.21,1.83-3.49,5.25-3.69,5.58l.03.03-.07.02-1.26.39Zm.33-1.42l-.21,1.29,1.12-.35c.08-.16.44-.7,1.83-2.8.64-.97,1.29-1.94,1.62-2.44l-4.35,4.29Z"/>
      </g>
      <g>
        <path class="cls-5" d="m249.15,149.43c-1.72,1.37-4.42,3.36-5.96,4.86,0-2.34-.3-5.95-.5-8.18.43,1.84.85,4.43,1.46,5.99,1.49-.55,3.48-1.86,5-2.66h0Z"/>
        <path class="cls-8" d="m243.15,154.39v-.1c0-2.22-.27-5.54-.5-8.18l-.05-.63.14.62c.12.52.24,1.09.36,1.7.3,1.46.65,3.13,1.07,4.24.97-.36,2.14-1.04,3.27-1.69.6-.35,1.17-.67,1.69-.95l.41-.21-.37.29c-.41.33-.88.69-1.38,1.08-1.6,1.24-3.41,2.65-4.58,3.78l-.07.06Zm-.35-7.63c.21,2.48.43,5.38.44,7.42,1.18-1.12,2.95-2.49,4.51-3.71.34-.27.67-.52.98-.76-.39.21-.81.46-1.24.71-1.15.67-2.34,1.35-3.32,1.71h-.04s-.01-.03-.01-.03c-.44-1.12-.77-2.73-1.09-4.29-.06-.36-.13-.72-.21-1.05Z"/>
      </g>
      <g>
        <path class="cls-5" d="m244.26,152.98s.44-6.73.44-6.73l-1.79,6.53.5,1.24.85-1.04h0Z"/>
        <path class="cls-8" d="m243.39,154.11l-.03-.07-.5-1.26h0s1.91-6.98,1.91-6.98l-.03.45c-.16,2.2-.44,6.36-.44,6.7h.03s-.04.06-.04.06l-.9,1.09Zm-.44-1.33l.47,1.16.81-.98c0-.22.04-1.26.41-6.26l-1.68,6.08Z"/>
      </g>
      <g>
        <path class="cls-5" d="m248.66,150.05c-1.71,1.37-4.42,3.35-5.96,4.83.01-2.36-.28-5.97-.48-8.2.43,1.84.85,4.43,1.43,5.99,1.52-.52,3.48-1.83,5.01-2.62h0Z"/>
        <path class="cls-8" d="m242.65,155v-.1c.02-2.49-.33-6.49-.48-8.2l-.05-.63.14.61c.13.54.24,1.13.38,1.76.31,1.52.64,3.08,1.04,4.18.97-.35,2.11-1.01,3.23-1.65.61-.35,1.19-.69,1.73-.96l.38-.2-.34.27c-.48.38-1.04.82-1.64,1.28-1.51,1.17-3.22,2.48-4.32,3.56l-.07.07Zm-.33-7.64c.16,1.91.43,5.23.42,7.44,1.11-1.06,2.78-2.34,4.25-3.49.45-.35.88-.68,1.26-.98-.41.22-.85.47-1.31.74-1.13.65-2.3,1.32-3.28,1.67h-.04s-.01-.02-.01-.02c-.41-1.11-.75-2.7-1.06-4.24-.07-.4-.15-.77-.23-1.12Z"/>
      </g>
      <g>
        <path class="cls-5" d="m243.83,154.11s1.72-6.57,1.72-6.57l-2.98,6.04.25,1.35,1.01-.81h0Z"/>
        <path class="cls-8" d="m242.79,155.01v-.07s-.27-1.36-.27-1.36h0s3.18-6.46,3.18-6.46l-.12.44c-.58,2.14-1.64,6.16-1.71,6.53h.04s-.05.06-.05.06l-1.07.86Zm-.17-1.42l.23,1.26.95-.76c.02-.17.18-.81.84-3.27.3-1.12.6-2.25.76-2.85l-2.77,5.62Z"/>
      </g>
      <g>
        <path class="cls-5" d="m248.48,150.22c-1.63,1.6-4.21,3.95-5.62,5.67-.27-2.41-.98-6.08-1.4-8.35.64,1.84,1.35,4.45,2.13,5.97,1.51-.73,3.41-2.31,4.9-3.3h0Z"/>
        <path class="cls-8" d="m242.83,155.99v-.1c-.26-2.19-.86-5.37-1.29-7.69l-.23-1.24.19.56c.18.54.38,1.14.58,1.77.48,1.52.98,3.07,1.52,4.15.99-.48,2.14-1.32,3.24-2.13.57-.41,1.11-.81,1.61-1.15l.39-.27-.34.33c-.37.36-.8.77-1.24,1.2-1.54,1.47-3.29,3.15-4.38,4.47l-.07.09Zm-1.21-7.84v.03c.44,2.28,1.03,5.4,1.28,7.59,1.1-1.32,2.81-2.95,4.32-4.4.3-.3.6-.57.87-.84-.38.26-.77.55-1.18.85-1.12.82-2.29,1.67-3.3,2.16l-.04.02-.02-.04c-.55-1.08-1.06-2.67-1.55-4.21-.13-.41-.25-.81-.38-1.18Z"/>
      </g>
      <g>
        <path class="cls-5" d="m243.85,154.95c-.05,0,.32-7,.32-7l-1.72,6.8.53,1.29.87-1.09h0Z"/>
        <path class="cls-8" d="m242.97,156.13l-.03-.07-.54-1.31h0s1.83-7.26,1.83-7.26l-.02.45c-.1,1.83-.34,6.5-.33,6.95h.05l-.97,1.23Zm-.47-1.38l.5,1.21.81-1.03c-.01-.19,0-1.18.3-6.53l-1.6,6.34Z"/>
      </g>
      <g>
        <path class="cls-5" d="m247.96,151.39c-1.74,1.42-4.47,3.53-6.03,5.1-.05-2.45-.46-6.2-.71-8.5.48,1.91.98,4.59,1.63,6.2,1.54-.58,3.55-1.97,5.11-2.8h0Z"/>
        <path class="cls-8" d="m241.89,156.59v-.1c-.05-2.4-.44-5.99-.69-8.37l-.08-.76.16.62c.13.53.27,1.12.41,1.74.35,1.53.74,3.26,1.2,4.42.99-.38,2.16-1.08,3.29-1.75.63-.38,1.23-.73,1.77-1.03l.4-.21-.35.29c-.36.3-.77.62-1.2.96-1.6,1.29-3.6,2.89-4.83,4.13l-.07.07Zm-.55-7.94c.25,2.32.58,5.51.64,7.73,1.24-1.24,3.19-2.8,4.77-4.07.28-.23.55-.44.81-.65-.42.24-.87.51-1.34.78-1.15.69-2.34,1.4-3.34,1.77h-.04s-.01-.02-.01-.02c-.47-1.17-.87-2.92-1.23-4.47-.1-.37-.18-.73-.26-1.08Z"/>
      </g>
      <path class="cls-9" d="m272.35,158.5c0,3.21-1.32,6.42-3.6,8.7s-5.48,3.6-8.71,3.6-6.42-1.33-8.71-3.6c-2.27-2.28-3.6-5.49-3.6-8.7s1.33-6.43,3.6-8.7c2.29-2.28,5.48-3.61,8.71-3.61s6.45,1.33,8.71,3.61c2.28,2.27,3.6,5.48,3.6,8.7h0Z"/>
      <g>
        <path class="cls-5" d="m243.34,155.76s2.43-6.59,2.43-6.59l-3.66,5.83.09,1.46,1.14-.69h0Z"/>
        <path class="cls-8" d="m242.16,156.53l-.1-1.54h0s3.89-6.22,3.89-6.22l-.16.41c-.65,1.74-2.33,6.21-2.42,6.56l.02.02-1.24.76Zm0-1.52l.08,1.37,1.06-.65c.05-.22.41-1.23,2.26-6.16l-3.41,5.44Z"/>
      </g>
      <g>
        <path class="cls-5" d="m247.93,151.4c-1.52,1.63-3.98,4.02-5.32,5.76-.25-2.42-.92-6.16-1.33-8.45.61,1.86,1.28,4.5,2.03,6.04,1.41-.72,3.22-2.34,4.63-3.35h0Z"/>
        <path class="cls-8" d="m242.57,157.28v-.11c-.26-2.36-.89-5.9-1.31-8.24l-.15-.84.2.61c.18.54.35,1.13.54,1.76.47,1.54.94,3.14,1.46,4.24.95-.49,2.05-1.36,3.11-2.2.52-.41,1.02-.8,1.48-1.13l.37-.27-.31.33c-.44.47-.95,1-1.49,1.55-1.35,1.39-2.87,2.96-3.83,4.21l-.08.09Zm-1.13-7.89c.41,2.29.97,5.46,1.2,7.67.97-1.23,2.45-2.76,3.77-4.12.41-.42.79-.82,1.15-1.19-.34.26-.7.54-1.07.84-1.09.85-2.2,1.73-3.16,2.22l-.04.02-.02-.04c-.53-1.1-1.02-2.72-1.49-4.29-.12-.39-.23-.76-.33-1.11Z"/>
      </g>
      <g>
        <path class="cls-5" d="m243.42,156.1s-.28-6.96-.28-6.96l-1.14,6.93.66,1.2.76-1.17h0Z"/>
        <path class="cls-8" d="m242.66,157.35l-.7-1.29h0s1.2-7.38,1.2-7.38v.44c.1,2.26.25,6.5.3,6.92h.04l-.84,1.31Zm-.61-1.29l.61,1.12.72-1.1c-.03-.18-.06-.86-.16-3.46-.04-1.2-.09-2.41-.11-3.04l-1.06,6.47Z"/>
      </g>
      <g>
        <path class="cls-5" d="m247.19,151.92c-1.49,1.65-3.85,4.07-5.17,5.81-.3-2.42-1.1-6.16-1.58-8.45.67,1.86,1.42,4.5,2.22,6.04,1.39-.75,3.14-2.37,4.53-3.4h0Z"/>
        <path class="cls-8" d="m241.99,157.84v-.11c-.3-2.28-1.03-5.74-1.51-8.03l-.21-1.03.21.59c.21.58.42,1.22.64,1.89.5,1.49,1.01,3.04,1.55,4.1.9-.5,1.95-1.35,2.97-2.18.53-.44,1.04-.85,1.51-1.2l.36-.27-.3.33c-.39.44-.84.92-1.32,1.43-1.35,1.45-2.88,3.1-3.84,4.38l-.07.09Zm-1.37-7.91c.47,2.25,1.15,5.48,1.43,7.69.98-1.27,2.46-2.88,3.78-4.29.35-.38.69-.74.99-1.07-.35.27-.73.58-1.12.9-1.03.84-2.11,1.71-3.02,2.21l-.04.02-.02-.04c-.55-1.06-1.07-2.64-1.57-4.15-.14-.44-.27-.86-.41-1.26Z"/>
      </g>
      <g>
        <path class="cls-5" d="m243.03,156.79s.78-7.07.78-7.07l-2.08,6.68.41,1.38.89-1h0Z"/>
        <path class="cls-8" d="m242.12,157.87l-.44-1.47h0s2.22-7.15,2.22-7.15l-.05.47c-.27,2.31-.76,6.67-.78,7.04h.03s-.98,1.11-.98,1.11Zm-.34-1.47l.38,1.29.83-.92c0-.17.07-.83.37-3.53.14-1.2.27-2.42.35-3.06l-1.93,6.22Z"/>
      </g>
      <g>
        <path class="cls-5" d="m246.86,152.2c-1.37,1.77-3.53,4.41-4.7,6.29-.5-2.41-1.56-6.02-2.22-8.26.8,1.77,1.76,4.32,2.66,5.77,1.33-.86,2.96-2.65,4.26-3.81h0Z"/>
        <path class="cls-8" d="m242.14,158.61l-.02-.11c-.5-2.39-1.56-6.03-2.2-8.2v-.05s-.2-.62-.2-.62l.27.58c.24.52.48,1.09.74,1.71.62,1.48,1.27,3,1.9,4.03.88-.58,1.88-1.54,2.84-2.48.49-.47.95-.92,1.37-1.3l.35-.31-.29.38c-.31.41-.67.85-1.03,1.33-1.29,1.65-2.76,3.51-3.66,4.96l-.07.1Zm-1.96-7.73c.64,2.17,1.54,5.31,2,7.5.91-1.44,2.34-3.26,3.61-4.87.25-.32.5-.63.72-.92-.32.3-.65.61-.99.95-.98.95-2,1.94-2.89,2.51l-.04.02-.02-.04c-.64-1.03-1.29-2.58-1.93-4.07-.16-.37-.32-.73-.47-1.08Z"/>
      </g>
      <g>
        <path class="cls-5" d="m243,157.45s-.44-7.09-.44-7.09l-.89,7.04.64,1.24.69-1.19h0Z"/>
        <path class="cls-8" d="m242.3,158.72l-.68-1.32h0s.95-7.52.95-7.52l.03.48c.13,2.31.39,6.62.44,7.04h.04l-.04.07-.73,1.26Zm-.59-1.35l.6,1.15.65-1.12c-.04-.18-.08-.87-.24-3.52-.07-1.2-.14-2.42-.18-3.06l-.84,6.54Z"/>
      </g>
      <g>
        <path class="cls-5" d="m246.72,152.6c-1.28,1.86-3.33,4.63-4.4,6.57-.62-2.39-1.88-5.99-2.66-8.2.9,1.75,1.99,4.29,2.98,5.68,1.29-.95,2.84-2.82,4.08-4.05h0Z"/>
        <path class="cls-8" d="m242.31,159.3l-.03-.11c-.65-2.49-2.01-6.35-2.66-8.2l-.21-.61.3.57c.27.53.56,1.12.86,1.76.69,1.43,1.4,2.91,2.08,3.89.85-.64,1.8-1.65,2.71-2.63.47-.5.92-.98,1.33-1.39l.33-.33-.26.38c-.33.47-.7,1.01-1.09,1.57-1.18,1.66-2.51,3.55-3.3,5l-.06.09Zm-2.38-7.69c.69,1.97,1.82,5.22,2.4,7.45.8-1.44,2.1-3.28,3.25-4.92.29-.41.56-.79.81-1.15-.31.32-.64.67-.98,1.03-.93,1-1.89,2.03-2.76,2.68l-.04.03-.02-.04c-.69-.98-1.42-2.48-2.12-3.94-.19-.41-.37-.78-.55-1.15Z"/>
      </g>
      <g>
        <path class="cls-5" d="m243.44,158.1s.72-7.1.72-7.1l-2.03,6.68.43,1.4.87-.98h0Z"/>
        <path class="cls-8" d="m242.55,159.16l-.02-.07-.43-1.41h0s2.16-7.15,2.16-7.15l-.05.47c-.24,2.3-.7,6.59-.72,7.05h.05l-.07.07-.92,1.03Zm-.36-1.49l.4,1.31.81-.91c0-.2.09-1.21.67-6.62l-1.88,6.22Z"/>
      </g>
      <g>
        <path class="cls-5" d="m246.46,153.26c-1.08,2.02-2.88,5.06-3.78,7.14-.84-2.28-2.39-5.69-3.37-7.78,1.05,1.63,2.36,3.98,3.46,5.24,1.2-1.13,2.57-3.21,3.69-4.6h0Z"/>
        <path class="cls-8" d="m242.67,160.52l-.04-.1c-.63-1.71-1.73-4.26-3.37-7.78l-.28-.6.35.55c.3.46.6.96.93,1.49.81,1.32,1.71,2.8,2.5,3.71.81-.77,1.68-1.94,2.52-3.08.4-.54.78-1.04,1.13-1.49l.3-.38-.23.43c-.31.58-.67,1.23-1.06,1.93-.97,1.74-2.07,3.73-2.71,5.2l-.04.11Zm-3.03-7.28c1.45,3.13,2.45,5.43,3.04,7.04.65-1.47,1.73-3.4,2.68-5.11.29-.52.56-1.01.81-1.46-.26.33-.52.69-.81,1.07-.86,1.15-1.74,2.35-2.56,3.13l-.04.03-.03-.04c-.8-.91-1.68-2.36-2.54-3.75-.19-.31-.38-.61-.55-.9Z"/>
      </g>
      <g>
        <path class="cls-5" d="m243.19,158.68s-1.99-6.73-1.99-6.73l.67,7.1.9,1.01.41-1.38h0Z"/>
        <path class="cls-8" d="m242.8,160.15l-.97-1.08h0s-.72-7.59-.72-7.59l.13.45c.63,2.17,1.81,6.24,1.97,6.68l.05-.02-.47,1.56Zm-.88-1.12l.84.94.38-1.3c-.07-.18-.38-1.15-1.86-6.26l.63,6.62Z"/>
      </g>
      <g>
        <path class="cls-5" d="m246.42,154.06c-1.14,2-3,5.05-3.94,7.13-.84-2.28-2.43-5.67-3.41-7.76,1.06,1.61,2.39,3.95,3.51,5.23,1.26-1.14,2.67-3.21,3.84-4.59h0Z"/>
        <path class="cls-8" d="m242.48,161.3l-.04-.1c-.78-2.14-2.25-5.28-3.22-7.35l-.44-.95.33.5c.31.47.64,1.01,1,1.57.84,1.34,1.71,2.73,2.48,3.62.81-.75,1.69-1.87,2.53-2.96.44-.58.86-1.12,1.27-1.6l.3-.36-.23.41c-.29.5-.62,1.08-.97,1.68-1.06,1.83-2.26,3.89-2.96,5.44l-.06.1Zm-3.09-7.32c.95,2.04,2.33,5,3.1,7.08.71-1.54,1.88-3.56,2.93-5.34.25-.44.5-.85.72-1.23-.3.37-.61.78-.94,1.2-.86,1.11-1.74,2.25-2.57,3l-.03.03-.03-.04c-.79-.9-1.67-2.31-2.52-3.67-.23-.35-.44-.7-.65-1.03Z"/>
      </g>
      <g>
        <path class="cls-5" d="m243.28,159.96s-.72-7.09-.72-7.09l-.66,7.09.71,1.22.67-1.22h0Z"/>
        <path class="cls-8" d="m242.6,161.28l-.04-.07-.72-1.23h0s.7-7.56.7-7.56l.04.47c.22,2.31.66,6.64.72,7.04h.04l-.75,1.35Zm-.67-1.32l.67,1.15.64-1.15c-.04-.18-.11-.86-.38-3.52-.13-1.22-.24-2.44-.3-3.08l-.62,6.61Z"/>
      </g>
      <g>
        <path class="cls-5" d="m246.54,154.68c-1.19,1.98-3.09,4.96-4.07,7.01-.8-2.28-2.34-5.72-3.28-7.83,1.05,1.65,2.34,4.02,3.44,5.31,1.26-1.1,2.7-3.16,3.9-4.5h0Z"/>
        <path class="cls-8" d="m242.48,161.81l-.04-.1c-.76-2.19-2.2-5.42-3.16-7.55l-.37-.83.33.51c.31.49.64,1.03.98,1.6.82,1.36,1.66,2.76,2.43,3.68.79-.69,1.64-1.76,2.47-2.79.49-.61.95-1.18,1.4-1.68l.31-.35-.24.4c-.27.44-.56.93-.88,1.45-1.08,1.77-2.42,3.97-3.19,5.57l-.04.1Zm-2.98-7.38c.94,2.1,2.25,5.06,2.99,7.15.77-1.59,2.08-3.74,3.14-5.48.21-.35.42-.69.62-1.01-.34.4-.69.84-1.06,1.29-.84,1.05-1.71,2.13-2.51,2.83l-.04.03-.03-.04c-.78-.92-1.64-2.34-2.47-3.73-.22-.36-.44-.72-.64-1.05Z"/>
      </g>
      <g>
        <path class="cls-5" d="m243.22,160.53c-.05,0-1.33-6.96-1.33-6.96l-.05,7.14.8,1.12.58-1.29h0Z"/>
        <path class="cls-8" d="m242.65,161.91l-.85-1.19h0s.06-7.62.06-7.62l.08.46c.33,1.83,1.2,6.53,1.32,6.93h.04l-.64,1.43Zm-.76-1.22l.75,1.04.55-1.22c-.06-.16-.19-.83-.69-3.46-.22-1.2-.44-2.39-.56-3.02l-.04,6.66Z"/>
      </g>
      <g>
        <path class="cls-5" d="m246.03,155.67c-1.26,1.91-3.32,4.77-4.38,6.75-.69-2.36-2.05-5.88-2.89-8.06.96,1.72,2.13,4.18,3.18,5.54,1.31-1.01,2.83-2.95,4.09-4.23h0Z"/>
        <path class="cls-8" d="m241.64,162.54l-.03-.1c-.64-2.2-1.89-5.45-2.72-7.6l-.4-1.03.3.54c.27.49.55,1.02.86,1.59.76,1.44,1.55,2.93,2.29,3.92.84-.66,1.77-1.69,2.66-2.68.5-.55.96-1.07,1.4-1.52l.32-.32-.24.38c-.35.54-.78,1.15-1.22,1.8-1.12,1.65-2.4,3.52-3.16,4.94l-.05.08Zm-2.6-7.58c.81,2.12,1.99,5.2,2.63,7.35.77-1.41,2.02-3.24,3.12-4.86.33-.49.66-.96.95-1.4-.34.35-.69.75-1.06,1.16-.91,1.01-1.85,2.06-2.71,2.73l-.04.03-.03-.04c-.75-.98-1.55-2.5-2.33-3.96-.19-.35-.37-.69-.54-1.01Z"/>
      </g>
      <g>
        <path class="cls-5" d="m242.6,161.3s.58-7.13.58-7.13l-1.94,6.75.46,1.38.89-1.01h0Z"/>
        <path class="cls-8" d="m241.7,162.41l-.02-.07-.47-1.4h0s2.06-7.21,2.06-7.21l-.04.46c-.21,2.34-.58,6.73-.58,7.09h.03s-.04.06-.04.06l-.95,1.07Zm-.4-1.47l.43,1.29.84-.95c0-.17.04-.83.27-3.55.1-1.23.21-2.45.27-3.1l-1.8,6.3Z"/>
      </g>
      <g>
        <path class="cls-5" d="m246.1,155.85c-1.08,2.07-2.86,5.17-3.73,7.3-.9-2.25-2.59-5.58-3.62-7.62,1.1,1.57,2.51,3.87,3.66,5.09,1.22-1.19,2.57-3.33,3.69-4.77h0Z"/>
        <path class="cls-8" d="m242.37,163.26l-.04-.1c-.89-2.22-2.57-5.54-3.58-7.53l-.33-.64.35.51c.3.43.62.91.96,1.41.86,1.29,1.83,2.74,2.66,3.63.81-.79,1.66-1.98,2.48-3.13.41-.58.8-1.12,1.17-1.6l.3-.38-.23.44c-.29.55-.63,1.18-.98,1.84-.99,1.83-2.11,3.9-2.74,5.46l-.03.1Zm-3.28-7.16c1,1.98,2.45,4.89,3.28,6.93.64-1.55,1.74-3.58,2.71-5.37.26-.48.5-.94.73-1.36-.27.36-.55.75-.84,1.17-.84,1.17-1.7,2.38-2.53,3.18l-.03.03-.03-.03c-.84-.89-1.83-2.37-2.71-3.68-.2-.3-.4-.6-.58-.87Z"/>
      </g>
      <g>
        <path class="cls-5" d="m242.36,161.89s-2.18-6.62-2.18-6.62l.85,7.05.94.95.39-1.38h0Z"/>
        <path class="cls-8" d="m241.99,163.36l-1.01-1.02h0s-.91-7.52-.91-7.52l.14.44c.69,2.14,2,6.14,2.16,6.58l.05-.02-.44,1.55Zm-.92-1.06l.88.89.37-1.3c-.08-.18-.41-1.13-2.04-6.17l.79,6.58Z"/>
      </g>
      <g>
        <path class="cls-5" d="m245.82,156.38c-.76,2.27-2.04,5.71-2.57,7.98-1.24-2-3.41-4.89-4.72-6.68,1.33,1.29,3.05,3.24,4.37,4.18,1.01-1.42,2.02-3.81,2.93-5.48h0Z"/>
        <path class="cls-8" d="m243.26,164.47l-.06-.09c-1.07-1.73-2.85-4.14-4.14-5.89-.21-.28-.4-.54-.58-.78l-.31-.43.38.37c.4.39.84.84,1.29,1.3,1.05,1.08,2.13,2.19,3.04,2.85.65-.92,1.3-2.25,1.93-3.53.34-.69.66-1.34.97-1.91l.24-.45-.16.48c-.18.55-.4,1.16-.62,1.81-.72,2.08-1.54,4.43-1.95,6.16l-.02.11Zm-4.37-6.36c.08.1.16.21.24.33,1.27,1.73,3.01,4.09,4.09,5.81.41-1.71,1.22-4.02,1.93-6.06.16-.45.3-.88.44-1.29-.23.44-.47.92-.71,1.42-.64,1.3-1.3,2.64-1.97,3.57l-.02.04-.04-.02c-.92-.66-2.02-1.79-3.08-2.88-.31-.33-.61-.63-.89-.91Z"/>
      </g>
      <g>
        <path class="cls-5" d="m244.31,162.44s-2.36-6.53-2.36-6.53l1.03,7.01.98.92.35-1.4h0Z"/>
        <path class="cls-8" d="m243.98,163.92l-.05-.05-.99-.93h0s-1.09-7.48-1.09-7.48l.15.43c.75,2.11,2.16,6.07,2.34,6.49l.04-.02-.39,1.57Zm-.96-1.03l.91.86.33-1.32c-.08-.18-.44-1.11-2.2-6.09l.96,6.55Z"/>
      </g>
      <g>
        <path class="cls-5" d="m245.8,157.07c-.75,2.27-2,5.72-2.52,8.01-1.24-2-3.42-4.87-4.77-6.64,1.35,1.29,3.07,3.21,4.4,4.15,1.02-1.43,2.01-3.84,2.9-5.51h0Z"/>
        <path class="cls-8" d="m243.3,165.19l-.06-.09c-1.26-2.03-3.55-5.03-4.77-6.64l-.35-.45.41.39c.4.38.83.81,1.28,1.27,1.06,1.07,2.16,2.18,3.08,2.85.66-.94,1.3-2.28,1.92-3.57.33-.68.64-1.32.94-1.89l.24-.45-.16.49c-.18.55-.39,1.17-.61,1.82-.71,2.08-1.52,4.46-1.91,6.19v.09Zm-4.39-6.3c1.26,1.65,3.2,4.24,4.35,6.08.4-1.72,1.19-4.04,1.88-6.09.16-.45.3-.88.44-1.29-.22.44-.44.9-.68,1.39-.64,1.32-1.29,2.68-1.96,3.62l-.02.04-.04-.02c-.94-.67-2.05-1.79-3.13-2.88-.3-.29-.58-.58-.84-.84Z"/>
      </g>
      <g>
        <path class="cls-5" d="m244.33,163.56s-3.04-6.11-3.04-6.11l1.77,6.79,1.05.76.21-1.43h0Z"/>
        <path class="cls-8" d="m244.15,165.07l-.06-.04-1.06-.77h0s-1.88-7.23-1.88-7.23l.19.4c.97,1.98,2.79,5.7,3.01,6.08l.04-.02-.24,1.59Zm-1.04-.86l.98.71.2-1.35c-.1-.16-.55-1.02-2.83-5.7l1.66,6.34Z"/>
      </g>
      <g>
        <path class="cls-5" d="m245.57,157.65c-.48,2.34-1.33,5.95-1.58,8.27-1.47-1.79-3.95-4.32-5.5-5.88,1.49,1.08,3.42,2.74,4.84,3.47.84-1.57,1.55-4.09,2.24-5.86h0Z"/>
        <path class="cls-8" d="m244.02,166.04l-.07-.08c-1.43-1.73-3.82-4.18-5.5-5.88l-.38-.38.44.32c.46.33.96.72,1.49,1.12,1.15.89,2.35,1.82,3.32,2.32.53-1.02,1.01-2.42,1.48-3.78.25-.74.5-1.43.73-2.05l.19-.48-.1.51c-.11.55-.24,1.16-.38,1.81-.47,2.2-1.01,4.68-1.2,6.46v.1Zm-5.1-5.62c1.61,1.64,3.71,3.81,5.03,5.4.2-1.77.72-4.21,1.18-6.36.1-.44.18-.86.27-1.26-.18.47-.35.98-.53,1.52-.47,1.37-.96,2.79-1.51,3.83l-.02.04-.04-.02c-.98-.5-2.2-1.44-3.37-2.35-.35-.27-.69-.54-1.01-.78Z"/>
      </g>
      <g>
        <path class="cls-5" d="m244.54,164.51c-.05.01-1.65-6.86-1.65-6.86l.27,7.13.87,1.06.51-1.33h0Z"/>
        <path class="cls-8" d="m244.04,165.93l-.92-1.13h0s-.28-7.6-.28-7.6l.1.45c.41,1.79,1.49,6.37,1.63,6.81h.05s-.58,1.46-.58,1.46Zm-.84-1.17l.81.99.48-1.25c-.07-.18-.32-1.14-1.54-6.39l.25,6.65Z"/>
      </g>
      <g>
        <path class="cls-5" d="m245.57,158.38c-.25,2.41-.75,6.11-.78,8.45-1.63-1.6-4.35-3.78-6-5.12,1.56.89,3.64,2.27,5.13,2.8.68-1.66,1.15-4.27,1.66-6.13h0Z"/>
        <path class="cls-8" d="m244.83,166.94l-.07-.07c-1.48-1.44-3.81-3.34-5.51-4.72l-.89-.73.46.26c.43.24.89.52,1.37.81,1.23.74,2.63,1.58,3.71,1.97.44-1.09.78-2.55,1.11-3.97.18-.76.35-1.48.52-2.11l.14-.51-.05.52c-.06.6-.14,1.29-.22,2-.25,2.2-.53,4.69-.56,6.44v.12Zm-5.58-4.91l.06.04c1.67,1.36,3.95,3.22,5.44,4.66.04-1.75.31-4.19.55-6.35.06-.5.11-.98.16-1.43-.13.49-.24,1.01-.38,1.55-.34,1.44-.69,2.93-1.13,4.02v.04s-.05-.01-.05-.01c-1.09-.38-2.51-1.24-3.76-2-.31-.17-.61-.35-.89-.52Z"/>
      </g>
      <g>
        <path class="cls-5" d="m244.61,165.02s-4.35-4.96-4.35-4.96l3.28,6.01,1.19.41-.13-1.46h0Z"/>
        <path class="cls-8" d="m244.78,166.55l-1.27-.44h0s-3.48-6.39-3.48-6.39l.27.31c1.4,1.63,4.06,4.67,4.32,4.94h.03s0,.05,0,.05l.13,1.52Zm-1.2-.51l1.11.38-.12-1.37c-.13-.11-.55-.58-2.18-2.45-.75-.86-1.5-1.73-1.89-2.17l3.08,5.62Z"/>
      </g>
      <g>
        <path class="cls-5" d="m245.66,159.21c-.25,2.41-.76,6.11-.81,8.47-1.62-1.61-4.31-3.81-5.98-5.17,1.56.89,3.64,2.31,5.13,2.83.67-1.66,1.15-4.26,1.66-6.13h0Z"/>
        <path class="cls-8" d="m244.89,167.79l-.07-.07c-1.57-1.56-4.13-3.66-5.82-5.05l-.55-.45.45.26c.46.26.95.56,1.47.88,1.26.77,2.56,1.56,3.61,1.94.44-1.1.79-2.59,1.14-4.02.18-.74.34-1.44.52-2.06l.14-.51-.05.52c-.07.67-.16,1.43-.25,2.23-.24,2.12-.52,4.53-.56,6.23v.1Zm-5.57-4.96c1.66,1.36,3.99,3.28,5.48,4.75.04-1.7.32-4.06.56-6.13.07-.58.13-1.15.19-1.66-.12.47-.24.98-.37,1.5-.35,1.46-.7,2.96-1.15,4.07v.04s-.05-.01-.05-.01c-1.06-.38-2.39-1.18-3.67-1.97-.35-.2-.68-.41-1-.59Z"/>
      </g>
      <g>
        <path class="cls-5" d="m245.09,166.16s-3.33-5.97-3.33-5.97l2.11,6.71,1.08.71.14-1.45h0Z"/>
        <path class="cls-8" d="m244.98,167.69l-1.16-.75h0s-2.25-7.15-2.25-7.15l.21.39c.85,1.55,3.03,5.49,3.3,5.92l.05-.05-.16,1.65Zm-1.08-.81l1.01.66.13-1.37c-.12-.16-.62-1.03-3.11-5.57l1.97,6.28Z"/>
      </g>
      <g>
        <path class="cls-5" d="m245.86,160.21c-.14,2.42-.52,6.15-.46,8.5-1.69-1.51-4.47-3.54-6.17-4.8,1.6.8,3.73,2.07,5.22,2.54.61-1.71.97-4.34,1.41-6.23h0Z"/>
        <path class="cls-8" d="m245.43,168.81l-.07-.07c-1.58-1.42-4.15-3.31-5.86-4.57l-.72-.53.46.23c.47.23.96.5,1.49.78,1.29.69,2.62,1.4,3.67,1.74.4-1.12.69-2.62.97-4.06.15-.76.29-1.49.44-2.14l.12-.5-.03.52c-.04.71-.1,1.53-.17,2.39-.16,2.08-.33,4.44-.3,6.11v.1Zm-5.76-4.62c1.68,1.23,4.11,3.04,5.67,4.41-.03-1.66.14-3.97.3-6.01.05-.64.1-1.26.13-1.83-.1.5-.21,1.03-.32,1.58-.28,1.46-.58,2.97-.98,4.11v.04s-.05-.01-.05-.01c-1.06-.33-2.42-1.05-3.73-1.75-.35-.18-.69-.36-1.01-.53Z"/>
      </g>
      <g>
        <path class="cls-5" d="m245.52,167.25s-4.12-5.23-4.12-5.23l3,6.2,1.19.48-.07-1.46h0Z"/>
        <path class="cls-8" d="m245.63,168.78l-1.27-.51h0s-3.19-6.59-3.19-6.59l.26.33c1.06,1.36,3.77,4.84,4.08,5.19l.04-.04.09,1.63Zm-1.2-.58l1.11.44-.07-1.37c-.13-.14-.74-.87-3.85-4.88l2.81,5.81Z"/>
      </g>
      <g>
        <path class="cls-5" d="m245.91,161.33c-.14,2.42-.48,6.15-.43,8.5-1.69-1.49-4.49-3.51-6.21-4.75,1.62.78,3.75,2.04,5.26,2.48.6-1.7.95-4.34,1.38-6.23h0Z"/>
        <path class="cls-8" d="m245.53,169.93l-.07-.07c-1.69-1.49-4.52-3.53-6.21-4.75l-.41-.3.46.22c.49.24,1.01.51,1.57.8,1.28.67,2.59,1.35,3.64,1.67.39-1.13.68-2.65.96-4.12.14-.74.27-1.44.41-2.07l.12-.53-.03.55c-.04.64-.09,1.36-.14,2.12-.16,2.17-.33,4.64-.29,6.38v.1Zm-5.8-4.58c1.68,1.21,4.14,3,5.71,4.37-.03-1.74.14-4.15.29-6.28.04-.53.07-1.05.1-1.53-.1.47-.19.97-.29,1.49-.28,1.49-.57,3.04-.98,4.18v.04s-.05-.01-.05-.01c-1.06-.31-2.4-1.01-3.7-1.69-.38-.19-.74-.38-1.09-.55Z"/>
      </g>
      <g>
        <path class="cls-5" d="m245.89,168.14s-2.89-6.29-2.89-6.29l1.62,6.89,1.03.81.24-1.41h0Z"/>
        <path class="cls-8" d="m245.67,169.64l-1.1-.87h0s-1.71-7.35-1.71-7.35l.18.41c.92,2.04,2.66,5.86,2.87,6.25l.04-.02-.28,1.58Zm-1.02-.92l.96.76.24-1.33c-.1-.16-.52-1.05-2.7-5.86l1.5,6.43Z"/>
      </g>
      <g>
        <path class="cls-5" d="m246.01,162.05c.09,2.42.09,6.19.37,8.52-1.81-1.26-4.77-2.89-6.6-3.9,1.67.57,3.9,1.52,5.43,1.77.44-1.8.55-4.47.8-6.4h0Z"/>
        <path class="cls-8" d="m246.44,170.66l-.08-.06c-1.74-1.21-4.55-2.76-6.4-3.78l-.64-.35.47.16c.48.16,1,.35,1.55.56,1.35.5,2.76,1.02,3.83,1.2.29-1.18.43-2.73.57-4.23.07-.76.14-1.48.22-2.12l.07-.53.02.54c.02.67.04,1.44.06,2.25.05,2.14.1,4.58.31,6.27v.08Zm-6.18-3.78c1.82,1.01,4.4,2.44,6.07,3.59-.2-1.69-.25-4.07-.3-6.17-.01-.58-.03-1.15-.04-1.66-.05.48-.1,1-.15,1.54-.14,1.52-.28,3.08-.58,4.28v.04s-.04,0-.04,0c-1.09-.18-2.51-.7-3.89-1.21-.36-.14-.72-.27-1.06-.39Z"/>
      </g>
      <g>
        <path class="cls-5" d="m246.4,167.9c-.04.05-5.28-3.6-5.28-3.6l4.47,4.92,1.26.05-.44-1.37h0Z"/>
        <path class="cls-8" d="m246.91,169.32h-.07l-1.28-.05h-.01s-4.73-5.23-4.73-5.23l.32.22c1.37.95,4.88,3.38,5.25,3.58l.03-.04.5,1.52Zm-1.3-.14l1.18.05-.42-1.31c-.3-.16-1.96-1.29-4.96-3.36l4.21,4.62Z"/>
      </g>
      <g>
        <path class="cls-5" d="m246.19,162.3c.19,2.42.41,6.19.82,8.49-1.88-1.18-4.93-2.69-6.81-3.61,1.69.5,3.98,1.36,5.54,1.54.33-1.78.3-4.46.46-6.41h0Z"/>
        <path class="cls-8" d="m247.07,170.88l-.08-.05c-1.97-1.23-5.23-2.84-6.81-3.61l-.47-.23.5.15c.47.14.98.3,1.52.48,1.34.43,2.85.92,3.96,1.06.21-1.15.27-2.65.33-4.09.04-.81.07-1.58.12-2.28l.04-.55.04.55c.04.51.08,1.08.13,1.69.16,2.22.37,4.98.69,6.8l.02.09Zm-6.36-3.5c1.66.82,4.46,2.2,6.24,3.32-.31-1.82-.51-4.52-.67-6.71-.03-.38-.05-.74-.08-1.09-.03.52-.05,1.09-.08,1.68-.06,1.47-.13,2.99-.34,4.15v.04s-.05,0-.05,0c-1.13-.13-2.67-.63-4.02-1.06-.34-.1-.67-.21-.99-.31Z"/>
      </g>
      <g>
        <path class="cls-5" d="m246.97,169.24s-4.4-5.05-4.4-5.05l3.33,6.06,1.2.44-.14-1.46h0Z"/>
        <path class="cls-8" d="m247.16,170.76l-1.29-.47h0s-3.54-6.45-3.54-6.45l.28.33c1.13,1.32,4.04,4.7,4.36,5.02l.04-.04.16,1.62Zm-1.23-.54l1.12.41-.13-1.37c-.14-.13-.78-.84-4.11-4.71l3.12,5.67Z"/>
      </g>
      <g>
        <path class="cls-5" d="m246.57,163.22c.32,2.41.67,6.15,1.17,8.45-1.91-1.08-5.02-2.39-6.94-3.22,1.72.41,4.03,1.13,5.59,1.22.27-1.8.11-4.48.18-6.45h0Z"/>
        <path class="cls-8" d="m247.8,171.76l-.09-.05c-1.71-.96-4.34-2.1-6.26-2.93-.24-.1-.46-.2-.67-.29l-.46-.2.49.11c.47.11.98.24,1.52.38,1.36.35,2.9.76,4.03.84.16-1.17.16-2.68.16-4.15,0-.81,0-1.57.01-2.25l.02-.52.07.52c.09.68.18,1.46.28,2.28.25,2.11.53,4.51.89,6.16l.02.1Zm-6.5-3.14c.06.03.13.05.19.08,1.89.82,4.48,1.94,6.19,2.89-.35-1.66-.63-4-.87-6.08-.07-.61-.14-1.18-.21-1.71,0,.52,0,1.09,0,1.68,0,1.49.01,3.02-.16,4.2v.04h-.04c-1.14-.07-2.71-.47-4.09-.84-.35-.09-.69-.18-1.01-.26Z"/>
      </g>
      <g>
        <path class="cls-5" d="m247.84,170.09s-5.23-3.7-5.23-3.7l4.42,5,1.24.09-.43-1.38h0Z"/>
        <path class="cls-8" d="m248.33,171.53h-.07s-1.26-.1-1.26-.1h-.01s-4.68-5.31-4.68-5.31l.32.23c1.35.97,4.8,3.43,5.19,3.68l.03-.06.48,1.55Zm-1.28-.18l1.16.08-.41-1.31c-.17-.1-.95-.63-4.9-3.46l4.15,4.69Z"/>
      </g>
      <g>
        <path class="cls-5" d="m246.72,164.25c.48,2.39,1.08,6.1,1.74,8.35-1.99-.9-5.17-1.93-7.12-2.57,1.72.23,4.08.75,5.62.69.15-1.83-.17-4.49-.24-6.46h0Z"/>
        <path class="cls-8" d="m248.53,172.67l-.09-.04c-1.93-.88-4.95-1.86-6.95-2.51l-.62-.21.48.07c.5.07,1.06.16,1.64.25,1.32.21,2.69.44,3.75.44h.19c.09-1.23-.02-2.79-.13-4.3-.05-.75-.1-1.47-.13-2.12l-.02-.55.1.54c.13.65.27,1.39.41,2.17.4,2.12.84,4.53,1.32,6.16l.03.09Zm-6.69-2.54c1.96.64,4.72,1.55,6.55,2.37-.47-1.64-.91-4-1.3-6.08-.1-.55-.21-1.09-.3-1.59.03.48.06.99.1,1.52.1,1.53.21,3.11.13,4.35v.04h-.04c-.07,0-.16,0-.24,0-1.06,0-2.44-.22-3.76-.44-.39-.06-.77-.12-1.13-.18Z"/>
      </g>
      <g>
        <path class="cls-5" d="m248.43,170.84s-4.33-5.14-4.33-5.14l3.24,6.13,1.2.46-.12-1.45h0Z"/>
        <path class="cls-8" d="m248.6,172.35l-1.29-.49-3.45-6.52.27.33c1.4,1.69,4.04,4.84,4.3,5.11h.03s0,.05,0,.05l.13,1.52Zm-1.23-.56l1.12.43-.12-1.37c-.13-.11-.54-.61-2.17-2.54-.75-.89-1.49-1.79-1.88-2.25l3.04,5.74Z"/>
      </g>
      <g>
        <path class="cls-5" d="m247.01,164.9c.69,2.32,1.65,5.94,2.5,8.09-2.04-.62-5.28-1.22-7.27-1.61,1.74,0,4.1.21,5.62-.05-.02-1.86-.61-4.46-.85-6.43h0Z"/>
        <path class="cls-8" d="m249.58,173.06l-.09-.03c-1.83-.55-4.58-1.09-6.6-1.48l-1.12-.21h.46c.52,0,1.09.01,1.69.04,1.39.04,2.83.1,3.9-.08-.01-1.21-.27-2.73-.51-4.19-.13-.78-.25-1.52-.34-2.2l-.07-.53.16.52c.18.59.37,1.26.58,1.97.61,2.11,1.29,4.51,1.93,6.12l.02.07Zm-6.87-1.63l.19.04c1.99.38,4.69.91,6.53,1.46-.63-1.61-1.3-3.96-1.9-6.04-.14-.5-.28-.97-.41-1.41.07.51.16,1.05.26,1.61.24,1.49.5,3.02.52,4.24v.04h-.04c-1.08.19-2.54.15-3.95.1-.42-.01-.82-.02-1.2-.03Z"/>
      </g>
      <g>
        <path class="cls-5" d="m248.66,170.84c0,.05-6.05-1.29-6.05-1.29l5.75,2.85,1.17-.42-.86-1.14h0Z"/>
        <path class="cls-8" d="m248.35,172.44h-.01s-6.08-3.02-6.08-3.02l.35.08c1.56.35,5.54,1.23,5.99,1.29v-.08l.98,1.29-1.24.44Zm-5.4-2.78l5.4,2.68,1.09-.4-.83-1.07c-.18-.02-1.09-.19-5.67-1.21Z"/>
      </g>
      <g>
        <path class="cls-5" d="m247.42,165.63c.67,2.32,1.62,5.94,2.47,8.09-2.04-.62-5.28-1.26-7.27-1.65,1.74.01,4.1.23,5.62-.01-.02-1.86-.59-4.48-.82-6.43h0Z"/>
        <path class="cls-8" d="m249.96,173.8l-.09-.03c-2.05-.62-5.31-1.26-7.27-1.65l-.47-.09h.48c.5.01,1.04.03,1.61.05,1.42.05,2.88.11,3.96-.06-.01-1.2-.25-2.71-.49-4.15-.13-.8-.24-1.55-.33-2.23l-.07-.53.15.51c.16.54.33,1.15.51,1.8.61,2.17,1.3,4.64,1.96,6.3l.04.09Zm-6.85-1.66c1.95.38,4.81.96,6.7,1.52-.64-1.66-1.32-4.08-1.93-6.22-.12-.43-.24-.84-.35-1.23.07.52.16,1.07.25,1.65.24,1.47.48,2.99.49,4.21v.04h-.04c-1.09.18-2.58.13-4.02.07-.38-.01-.75-.03-1.1-.04Z"/>
      </g>
      <g>
        <path class="cls-5" d="m249.65,171.48c-.01.05-5.8-2.8-5.8-2.8l5.2,4.21,1.24-.13-.64-1.29h0Z"/>
        <path class="cls-8" d="m249.03,172.94h-.01s-5.51-4.48-5.51-4.48l.35.18c1.5.74,5.34,2.62,5.76,2.79l.02-.06.72,1.45h-.07s-1.26.13-1.26.13Zm-4.85-4.05l4.88,3.95,1.16-.12-.61-1.23c-.18-.05-1.03-.44-5.43-2.61Z"/>
      </g>
      <g>
        <path class="cls-5" d="m247.11,166.04c1.15,2.11,2.84,5.44,4.12,7.37-2.13-.16-5.41-.05-7.44.01,1.69-.37,4.04-.69,5.48-1.29-.43-1.8-1.52-4.23-2.17-6.09h0Z"/>
        <path class="cls-8" d="m243.31,173.49l.47-.1c.48-.1,1.01-.21,1.56-.31,1.34-.25,2.86-.55,3.88-.97-.27-1.15-.82-2.55-1.35-3.9-.3-.77-.58-1.49-.81-2.16l-.17-.5.25.46c.3.55.64,1.18.99,1.84,1.02,1.92,2.18,4.09,3.13,5.52l.05.07h-.09c-2.22-.17-5.74-.04-7.43,0l-.49.03Zm4.03-6.93c.18.51.4,1.05.62,1.62.53,1.37,1.08,2.78,1.36,3.95v.04s-.03.01-.03.01c-1.03.44-2.51.72-3.94.98-.37.07-.72.14-1.06.21,1.79-.06,4.82-.15,6.84,0-.94-1.43-2.08-3.57-3.08-5.45-.24-.47-.48-.92-.71-1.35Z"/>
      </g>
      <g>
        <path class="cls-5" d="m250.56,172.11c0,.05-6.02-1.66-6.02-1.66l5.64,3.19,1.19-.35-.81-1.17h0Z"/>
        <path class="cls-8" d="m250.18,173.69h-.01s-5.96-3.38-5.96-3.38l.36.1c1.54.44,5.49,1.56,5.96,1.66v-.09l.08.12.85,1.22-1.27.37Zm-5.29-3.09l5.3,2.99,1.11-.33-.78-1.11c-.18-.03-1.09-.26-5.63-1.55Z"/>
      </g>
      <g>
        <path class="cls-5" d="m247.73,166.94c1.17,2.09,2.86,5.43,4.15,7.33-2.11-.14-5.4,0-7.41.09,1.69-.39,4.03-.75,5.46-1.35-.43-1.8-1.54-4.23-2.2-6.08h0Z"/>
        <path class="cls-8" d="m243.99,174.43l.47-.11c.47-.11.99-.21,1.54-.33,1.4-.29,2.86-.58,3.89-1.01-.28-1.18-.85-2.62-1.4-4-.29-.72-.56-1.41-.78-2.03l-.18-.5.26.46c.34.61.72,1.32,1.13,2.08.98,1.83,2.1,3.9,3.02,5.25l.05.07h-.09c-2.14-.15-5.44,0-7.41.08l-.49.03Zm3.99-6.97c.18.47.38.98.58,1.49.56,1.4,1.14,2.85,1.42,4.05v.04s-.03.01-.03.01c-1.04.44-2.51.74-3.94,1.03-.36.07-.71.15-1.04.21,1.97-.09,4.86-.2,6.83-.07-.91-1.36-2-3.39-2.97-5.18-.3-.56-.58-1.09-.85-1.58Z"/>
      </g>
      <g>
        <path class="cls-5" d="m251.32,172.61s-5.61-3.35-5.61-3.35l4.9,4.68h1.26s-.55-1.33-.55-1.33h0Z"/>
        <path class="cls-8" d="m251.93,174h-1.35s-.01-.03-.01-.03l-5.19-4.96.35.21c1.45.88,5.16,3.12,5.57,3.33l.02-.05.61,1.51Zm-1.3-.11h1.18s-.52-1.26-.52-1.26c-.17-.08-1-.55-5.25-3.13l4.6,4.39Z"/>
      </g>
      <g>
        <path class="cls-5" d="m248.2,167.45c1.35,1.97,3.36,5.09,4.79,6.84-2.09.14-5.31.71-7.27,1.06,1.61-.62,3.9-1.28,5.23-2.07-.59-1.76-1.92-4.04-2.75-5.83h0Z"/>
        <path class="cls-8" d="m245.26,175.48l.44-.17c.48-.18,1.01-.37,1.57-.56,1.32-.46,2.7-.94,3.63-1.49-.39-1.15-1.09-2.51-1.77-3.84-.35-.69-.69-1.35-.97-1.95l-.23-.49.3.44c.34.5.72,1.06,1.12,1.66,1.21,1.81,2.59,3.86,3.67,5.17l.05.07h-.09c-1.94.14-4.76.62-7.27,1.07l-.45.09Zm3.23-7.52c.22.45.47.93.72,1.43.69,1.34,1.4,2.72,1.78,3.89v.04s-.01.01-.01.01c-.94.56-2.34,1.05-3.68,1.52-.38.13-.75.26-1.1.39,2.35-.42,4.9-.84,6.71-.97-1.06-1.32-2.42-3.33-3.61-5.11-.28-.42-.55-.82-.8-1.2Z"/>
      </g>
      <g>
        <path class="cls-5" d="m251.73,173.09c0,.05-6.05-.14-6.05-.14l5.99,1.77,1.06-.66-1.01-.98h0Z"/>
        <path class="cls-8" d="m251.68,174.76h-.02s-6.33-1.88-6.33-1.88h.35c1.57.07,5.59.18,6.01.16v-.07l1.12,1.09-.05.03-1.08.67Zm-5.66-1.77l5.65,1.67,1-.61-.96-.92c-.18.01-1.07.01-5.68-.13Z"/>
      </g>
      <g>
        <path class="cls-5" d="m255.24,143.8s4.37-.72,4.37-.72l-4.35.1-.75.39.72.23h0Z"/>
        <path class="cls-8" d="m255.26,143.82l-.79-.25.79-.41,4.6-.11-.26.04c-1.44.24-4.15.68-4.35.72h0Zm-.7-.26l.69.21s.19-.04.67-.12c.36-.06.86-.15,1.5-.25.77-.13,1.54-.25,1.93-.32l-4.09.1-.7.38Z"/>
      </g>
      <g>
        <path class="cls-5" d="m257.64,144.74c-1.26-.39-3.18-1.03-4.47-1.31,1.38-.53,3.42-1.51,4.69-2.11-.98.61-2.38,1.38-3.13,1.98.71.5,2.03.99,2.91,1.43h0Z"/>
        <path class="cls-8" d="m257.94,144.86l-.31-.1c-.26-.08-.54-.17-.84-.27-1.16-.36-2.59-.82-3.63-1.05l-.09-.02.08-.03c1.4-.54,3.46-1.52,4.69-2.11l.45-.21-.42.26c-.26.16-.54.33-.84.51-.8.47-1.7,1.01-2.25,1.45.47.32,1.18.64,1.87.95.36.16.71.32,1.01.47l.29.16Zm-4.69-1.43c1.03.23,2.42.67,3.55,1.03.17.05.34.1.5.16-.21-.1-.44-.2-.68-.31-.71-.32-1.43-.64-1.91-.98l-.03-.02.03-.02c.55-.44,1.47-.99,2.28-1.48.13-.08.27-.16.39-.23-1.21.58-2.9,1.37-4.13,1.86Z"/>
      </g>
      <g>
        <path class="cls-5" d="m255.07,143.96s4.21-1.15,4.21-1.15l-4.36.55-.66.44.81.16h0Z"/>
        <path class="cls-8" d="m255.12,143.99l-.92-.18.04-.02.67-.44,4.62-.58-.25.07c-1.36.36-3.9,1.05-4.18,1.14l.02.02Zm-.83-.2l.78.16c.1-.04.65-.2,3.95-1.09l-4.1.52-.62.41Z"/>
      </g>
      <g>
        <path class="cls-5" d="m257.83,145.04c-1.47-.14-3.74-.43-5.2-.44,1.1-.95,2.65-2.59,3.58-3.58-.64.94-1.65,2.18-2.08,3.07.99.38,2.57.65,3.69.95h0Z"/>
        <path class="cls-8" d="m258.14,145.1l-.32-.03c-.35-.04-.75-.07-1.18-.12-1.37-.15-2.91-.31-4.02-.32h-.07l.05-.04c1.09-.95,2.64-2.58,3.56-3.56v-.02s.24-.24.24-.24l-.18.27c-.21.3-.44.62-.69.97-.53.72-1.08,1.47-1.37,2.07.64.24,1.51.44,2.35.63.47.1.92.21,1.32.31l.3.08Zm-5.44-.52c1.1.02,2.62.18,3.95.32.29.03.57.06.84.09-.3-.07-.64-.15-.98-.23-.86-.19-1.74-.39-2.38-.64h-.03s.01-.03.01-.03c.29-.61.85-1.37,1.38-2.1.17-.24.34-.47.5-.68-.92.96-2.29,2.39-3.3,3.27Z"/>
      </g>
      <g>
        <path class="cls-5" d="m253.48,144.26s4.38-.5,4.38-.5l-4.26-.14-.8.35.67.28h0Z"/>
        <path class="cls-8" d="m253.49,144.28l-.72-.3.84-.37,4.51.15-.24.03c-1.48.16-4.26.47-4.38.5h0Zm-.64-.3l.64.27c.09-.01.63-.09,4.13-.47l-4.01-.13-.76.34Z"/>
      </g>
      <g>
        <path class="cls-5" d="m256.73,145.2c-1.35-.25-3.39-.69-4.74-.85,1.29-.64,3.18-1.72,4.33-2.39-.87.66-2.15,1.51-2.79,2.14.82.41,2.24.77,3.19,1.1h0Z"/>
        <path class="cls-8" d="m256.95,145.26l-.22-.04c-.38-.07-.82-.16-1.28-.24-1.17-.23-2.49-.49-3.46-.61h-.06s.05-.04.05-.04c.98-.48,2.43-1.29,4.33-2.39l.26-.15-.24.18c-.25.18-.52.39-.83.61-.73.52-1.49,1.07-1.94,1.52.53.27,1.32.5,2.06.73.4.13.78.24,1.11.35l.21.07Zm-4.89-.92c.96.12,2.25.37,3.4.6.37.07.72.14,1.04.2-.27-.09-.56-.18-.87-.27-.76-.24-1.55-.48-2.09-.75h-.02s.01-.03.01-.03c.46-.46,1.22-1.01,1.97-1.54.2-.14.39-.28.57-.41-1.74,1.01-3.08,1.75-4.01,2.21Z"/>
      </g>
      <g>
        <path class="cls-5" d="m253.11,144.21s3.85-1.65,3.85-1.65l-4.22,1.1-.5.51.86.04h0Z"/>
        <path class="cls-8" d="m253.15,144.23h-.04l-.91-.04.52-.55h0l4.46-1.16-.23.1c-1.26.52-3.6,1.52-3.83,1.63h.02Zm-.87-.07l.83.04c.09-.04.59-.27,3.61-1.55l-3.98,1.03-.46.48Z"/>
      </g>
      <g>
        <path class="cls-5" d="m256.6,145.7c-1.12-.46-2.84-1.24-3.94-1.56.85-.8,2.05-2.2,2.8-3.05-.52.85-1.29,1.97-1.65,2.8.75.63,1.94,1.25,2.79,1.8h0Z"/>
        <path class="cls-8" d="m256.87,145.83l-.27-.11c-.27-.11-.57-.24-.89-.38-1.03-.44-2.21-.94-3.05-1.18h-.04s.04-.04.04-.04c.77-.72,1.82-1.92,2.58-2.79l.42-.48-.16.26c-.15.24-.31.5-.49.78-.44.69-.9,1.41-1.15,2,.51.43,1.2.85,1.88,1.26.32.18.61.36.88.54l.25.16Zm-4.15-1.71c.84.25,1.99.74,3.01,1.17.21.09.41.18.6.25-.19-.12-.4-.24-.61-.37-.69-.41-1.4-.84-1.91-1.27h-.01s0-.03,0-.03c.25-.6.72-1.32,1.16-2.03.11-.18.22-.35.32-.51h0c-.75.88-1.77,2.06-2.55,2.79Z"/>
      </g>
      <g>
        <path class="cls-5" d="m253.32,144.5s3-1.29,3-1.29l-3.27.44-.39.58.66.27h0Z"/>
        <path class="cls-8" d="m253.35,144.53l-.72-.3.41-.62h.01l3.46-.47-.18.07c-.79.33-2.81,1.2-2.99,1.29v.03h0Zm-.64-.32l.62.25c.11-.06.6-.27,2.8-1.21l-3.06.41-.36.55Z"/>
      </g>
      <g>
        <path class="cls-5" d="m250.82,172.54c0,.05-6.23.05-6.23.05l6.3,1.54,1.03-.69-1.09-.9h0Z"/>
        <path class="cls-8" d="m250.9,174.18h-.02s-6.66-1.63-6.66-1.63h.37c1.62,0,5.77,0,6.19-.04v-.06l1.22,1-.05.04-1.04.7Zm-5.94-1.54l5.92,1.45.96-.65-1.04-.86c-.17.03-.79.04-3.1.05-1.09,0-2.2,0-2.74,0Z"/>
      </g>
      <g>
        <path class="cls-5" d="m251.94,172.95c-.01.05-6.32-1.47-6.32-1.47l6.07,2.98,1.18-.39-.92-1.12h0Z"/>
        <path class="cls-8" d="m251.69,174.5h-.01s-6.43-3.16-6.43-3.16l.39.1c1.65.4,5.88,1.41,6.28,1.47v-.04s.07.06.07.06l.96,1.17-1.25.41Zm-5.68-2.88l5.69,2.79,1.09-.36-.87-1.06c-.17-.01-.79-.15-3.15-.71-1.1-.27-2.2-.53-2.76-.67Z"/>
      </g>
      <g>
        <path class="cls-5" d="m252.97,173.37s-6.26-.32-6.26-.32l6.26,1.88,1.08-.61-1.08-.95h0Z"/>
        <path class="cls-8" d="m252.97,174.98h-.01s-6.62-2-6.62-2l.38.02c2.02.11,5.79.32,6.22.32v-.06l1.2,1.06-.05.03-1.11.62Zm-5.9-1.86l5.88,1.77,1.01-.56-1.03-.91h-.05c-.28,0-1.38-.04-5.82-.3Z"/>
      </g>
      <g>
        <path class="cls-5" d="m249,168.94c1.63,1.79,4.08,4.66,5.79,6.24-2.11.32-5.27,1.17-7.22,1.69,1.54-.75,3.76-1.57,5-2.48-.84-1.66-2.49-3.77-3.57-5.44h0Z"/>
        <path class="cls-8" d="m247.12,177.02l.41-.2c.46-.22.96-.44,1.5-.68,1.28-.56,2.59-1.15,3.47-1.77-.55-1.09-1.45-2.37-2.31-3.59-.45-.64-.87-1.24-1.23-1.8l-.3-.45.36.4c.43.47.92,1.03,1.44,1.6,1.45,1.63,3.09,3.47,4.34,4.63l.07.07h-.09c-1.96.31-4.86,1.08-6.79,1.58l-.88.22Zm2.24-7.61c.28.42.59.86.91,1.31.87,1.25,1.78,2.54,2.34,3.64v.04s-.01.02-.01.02c-.88.64-2.22,1.23-3.52,1.8-.37.16-.72.32-1.06.47,1.89-.5,4.72-1.24,6.67-1.54-1.24-1.16-2.85-2.97-4.28-4.58-.37-.41-.72-.8-1.04-1.17Z"/>
      </g>
      <g>
        <path class="cls-5" d="m253.84,173.69s-6.26-2.05-6.26-2.05l5.88,3.49,1.24-.25-.86-1.18h0Z"/>
        <path class="cls-8" d="m253.44,175.17h-.01s-6.23-3.71-6.23-3.71l.39.13c2.03.68,5.85,1.95,6.22,2.05v-.04s.95,1.3.95,1.3h-.07s-1.25.27-1.25.27Zm-5.48-3.36l5.51,3.27,1.16-.23-.81-1.12c-.17-.03-.78-.23-3.12-1.01-1.09-.36-2.18-.72-2.74-.91Z"/>
      </g>
      <g>
        <path class="cls-5" d="m249.58,169.35c1.77,1.63,4.46,4.21,6.28,5.62-2.03.58-5.02,1.83-6.87,2.59,1.43-.94,3.51-2.05,4.63-3.12-1-1.59-2.83-3.53-4.05-5.09h0Z"/>
        <path class="cls-8" d="m248.58,177.77l.39-.26c.41-.27.87-.55,1.35-.84,1.2-.73,2.45-1.49,3.24-2.24-.65-1.03-1.64-2.2-2.6-3.33-.52-.61-1-1.18-1.42-1.71l-.34-.43.4.37c.4.36.84.78,1.31,1.21,1.58,1.48,3.56,3.31,4.97,4.4l.07.05-.08.02c-2.02.58-5.05,1.83-6.85,2.58l-.44.18Zm1.4-7.99c.33.4.68.81,1.05,1.25.97,1.15,1.97,2.33,2.63,3.38l.02.03-.03.02c-.8.76-2.06,1.53-3.28,2.28-.33.2-.64.39-.93.58,1.81-.75,4.47-1.83,6.33-2.37-1.41-1.09-3.35-2.9-4.91-4.35-.31-.27-.61-.55-.88-.81Z"/>
      </g>
      <g>
        <path class="cls-5" d="m254.36,174.06c0,.05-5.94,1.17-5.94,1.17l6.27.42.88-.86-1.2-.72h0Z"/>
        <path class="cls-8" d="m254.69,175.7h-.02l-6.62-.45.34-.07c1.55-.29,5.55-1.05,5.91-1.15v-.05l1.32.8-.04.04-.89.89Zm-5.93-.5l5.9.4.84-.81-1.15-.69c-.16.05-.74.18-2.96.61-1.06.2-2.11.4-2.63.5Z"/>
      </g>
      <g>
        <path class="cls-5" d="m253.11,173.69c0,.05-6.21.48-6.21.48l6.41,1.1.98-.75-1.18-.84h0Z"/>
        <path class="cls-8" d="m253.31,175.31h-.02l-6.77-1.16.37-.02c1.62-.11,5.78-.41,6.17-.47v-.05l1.29.92-.05.04-.99.75Zm-6.05-1.12l6.02,1.03.91-.69-1.12-.79c-.16.04-.78.1-3.09.26-1.08.07-2.17.16-2.73.19Z"/>
      </g>
      <g>
        <path class="cls-5" d="m254.25,174.03s-6.41-1.03-6.41-1.03l6.28,2.54,1.15-.46-1.03-1.05h0Z"/>
        <path class="cls-8" d="m254.12,175.58h-.01s-6.66-2.69-6.66-2.69l.4.07c2.06.34,5.91.98,6.36,1.03v-.06l1.15,1.17-1.23.49Zm-5.89-2.47l5.89,2.38,1.07-.43-.98-.99c-.18-.02-1.13-.16-5.99-.96Z"/>
      </g>
      <g>
        <path class="cls-5" d="m255.31,174.37c.01.05-6.27.13-6.27.13l6.39,1.45,1.03-.69-1.15-.89h0Z"/>
        <path class="cls-8" d="m255.44,175.98h-.01s-6.76-1.54-6.76-1.54h.38c1.61-.01,5.72-.07,6.21-.11l-.03-.09,1.32,1.01-.05.04-1.05.69Zm-6.02-1.46l6,1.37.96-.64-1.09-.84c-.19.02-1.14.06-5.87.12Z"/>
      </g>
      <g>
        <path class="cls-5" d="m251.02,170.23c1.76,1.69,4.42,4.36,6.25,5.81-2.08.46-5.18,1.52-7.1,2.18,1.49-.85,3.66-1.84,4.83-2.82-.96-1.61-2.77-3.59-3.98-5.17h0Z"/>
        <path class="cls-8" d="m249.74,178.42l.41-.23c.44-.25.94-.52,1.46-.79,1.23-.65,2.51-1.32,3.33-2-.64-1.07-1.64-2.29-2.62-3.47-.48-.59-.94-1.15-1.34-1.66l-.35-.46.41.4c.38.36.8.78,1.25,1.21,1.59,1.54,3.56,3.46,5,4.6l.07.06-.09.02c-2.05.46-5.18,1.52-7.05,2.16l-.49.16Zm1.7-7.72c.3.37.62.76.95,1.17.98,1.2,2,2.43,2.64,3.51l.02.03-.03.02c-.83.69-2.12,1.37-3.37,2.03-.36.19-.71.37-1.03.55,1.86-.64,4.63-1.57,6.55-2-1.43-1.15-3.36-3.03-4.93-4.55-.27-.26-.54-.52-.8-.77Z"/>
      </g>
      <g>
        <path class="cls-5" d="m256.2,174.63s-6.41-1.61-6.41-1.61l6.14,3.08,1.2-.35-.94-1.12h0Z"/>
        <path class="cls-8" d="m255.93,176.15h-.01s-6.51-3.27-6.51-3.27l.4.1c2.05.52,5.88,1.51,6.35,1.6v-.07l.07.1.98,1.17-1.28.37Zm-5.75-2.99l5.76,2.89,1.12-.33-.89-1.06c-.19-.03-1.15-.25-5.99-1.5Z"/>
      </g>
      <g>
        <path class="cls-5" d="m251.62,170.61c1.9,1.49,4.77,3.9,6.71,5.15-1.97.71-4.88,2.16-6.65,3.07,1.35-1.04,3.33-2.3,4.38-3.45-1.12-1.51-3.1-3.32-4.44-4.77h0Z"/>
        <path class="cls-8" d="m251.27,179.08l.37-.29c.41-.32.87-.65,1.36-1.01,1.12-.8,2.26-1.63,2.99-2.42-.75-1.01-1.86-2.12-2.93-3.21-.53-.54-1.03-1.04-1.48-1.52l-.38-.41.44.35c.5.39,1.06.84,1.66,1.32,1.7,1.36,3.62,2.9,5.05,3.84l.07.05-.08.03c-2.17.78-5.54,2.5-6.64,3.06l-.43.2Zm.8-8.06c.33.35.69.7,1.06,1.08,1.09,1.1,2.21,2.23,2.96,3.24l.02.03-.02.03c-.73.81-1.9,1.65-3.03,2.46-.34.24-.66.47-.97.7,1.37-.69,4.21-2.11,6.13-2.82-1.42-.93-3.31-2.45-4.98-3.79-.41-.33-.81-.64-1.18-.94Z"/>
      </g>
      <g>
        <path class="cls-5" d="m256.75,174.99s-5.85,1.56-5.85,1.56h6.3l.81-.92-1.26-.64h0Z"/>
        <path class="cls-8" d="m257.21,176.58h-6.67l.33-.09c1.52-.39,5.37-1.4,5.81-1.54l-.04-.07,1.43.72-.86.98Zm-5.97-.08h5.94l.76-.86-1.2-.61c-.18.07-1.06.32-5.5,1.47Z"/>
      </g>
      <g>
        <polygon class="cls-3" points="266.69 166.96 260.01 162.35 253.32 166.96 255.83 159.59 249.99 154.98 257.51 154.98 260.01 147.59 262.52 154.98 270.04 154.98 264.19 159.59 266.69 166.96"/>
        <path class="cls-8" d="m266.7,166.98h-.02s-6.67-4.62-6.67-4.62l-6.7,4.62v-.02s2.51-7.36,2.51-7.36l-5.85-4.62h7.55l2.51-7.41v.02s2.51,7.38,2.51,7.38h7.55-.02s-5.85,4.62-5.85,4.62l2.51,7.38Zm-16.69-11.99l5.82,4.6h0s-2.49,7.35-2.49,7.35l6.67-4.6h0l6.65,4.59-2.5-7.35h0s5.83-4.6,5.83-4.6h-7.51s-2.49-7.37-2.49-7.37l-2.5,7.37h-7.51Z"/>
      </g>
      <g>
        <path class="cls-7" d="m284.54,160c0,13.53-11,24.5-24.54,24.5s-24.54-10.97-24.54-24.5,11-24.5,24.54-24.5,24.54,10.98,24.54,24.5h0Zm8.18,0c0,18.04-14.66,32.67-32.72,32.67s-32.72-14.64-32.72-32.67,14.66-32.67,32.72-32.67c18.06,0,32.72,14.64,32.72,32.67h0Z"/>
        <path class="cls-10" d="m260,192.73c-18.08,0-32.8-14.69-32.8-32.74s14.71-32.74,32.8-32.74,32.8,14.69,32.8,32.74-14.72,32.74-32.8,32.74Zm0-65.33c-18.01,0-32.66,14.62-32.66,32.6s14.65,32.6,32.66,32.6,32.66-14.62,32.66-32.6-14.65-32.6-32.66-32.6Zm0,57.17c-13.57,0-24.61-11.02-24.61-24.57s11.04-24.58,24.61-24.58,24.61,11.02,24.61,24.58-11.04,24.57-24.61,24.57Zm0-49.01c-13.5,0-24.47,10.96-24.47,24.43s10.98,24.43,24.47,24.43,24.47-10.96,24.47-24.43-10.98-24.43-24.47-24.43Z"/>
      </g>
      <path class="cls-11" d="m284.94,165.86l2.15.8,3.58-.66-.27.72-1.86.32c-.35.05-.69.1-1.05.14.23.23.46.52.72.84l1.17,1.42-.27.69-2.25-2.87-2.17-.8.24-.6h0Z"/>
      <path class="cls-11" d="m291,157.6l.07.64-3.13.33c-.53.05-.98.05-1.29-.01-.34-.07-.62-.25-.85-.52-.23-.25-.37-.62-.43-1.08-.04-.44,0-.81.14-1.12s.37-.53.69-.69c.32-.16.76-.27,1.33-.33l3.12-.34.07.64-3.13.34c-.46.05-.8.13-1.01.23-.21.1-.37.25-.48.44-.09.21-.13.44-.1.71.05.48.21.8.48.95.25.18.73.23,1.4.14l3.1-.33h0Z"/>
      <path class="cls-11" d="m286.65,151.3l.62-.13.41,1.98-1.97.41c-.34-.24-.61-.53-.82-.81-.21-.3-.34-.62-.41-.95-.09-.48-.07-.92.07-1.33.16-.43.43-.78.8-1.06.39-.27.84-.46,1.37-.57.52-.1,1.01-.1,1.51-.01.48.1.87.32,1.15.64.3.3.5.71.58,1.17.07.33.07.66,0,.95-.07.3-.19.55-.39.76-.19.19-.46.37-.8.53l-.28-.53c.25-.13.44-.25.58-.39.13-.14.23-.32.28-.53s.05-.44,0-.67c-.05-.28-.16-.51-.3-.71-.13-.19-.3-.34-.48-.43-.19-.09-.39-.16-.58-.19-.35-.05-.72-.04-1.1.04-.48.1-.87.24-1.15.46s-.48.48-.58.78c-.09.3-.1.62-.05.92.05.27.18.53.33.76.18.23.34.41.5.5l.99-.19-.27-1.37h0Z"/>
      <polygon class="cls-11" points="263.9 134.19 264.84 128.85 265.46 128.95 264.65 133.67 266.97 134.07 266.86 134.7 263.9 134.19"/>
      <polygon class="cls-11" points="258.63 133.83 258.63 128.4 262.11 128.4 262.11 129.04 259.27 129.04 259.27 130.71 261.91 130.71 261.91 131.35 259.27 131.35 259.27 133.19 262.21 133.19 262.21 133.83 258.63 133.83"/>
      <path class="cls-11" d="m243.6,137.23l.61-.28c.29.55.39,1.04.32,1.51-.05.46-.28.85-.66,1.17-.39.34-.8.52-1.19.55-.41.04-.81-.07-1.24-.3s-.8-.55-1.14-.94c-.37-.43-.62-.87-.75-1.31-.13-.44-.13-.86,0-1.26s.35-.72.67-1.01c.37-.3.76-.46,1.19-.46.43-.01.85.14,1.28.43l-.37.53c-.34-.21-.64-.34-.92-.34s-.53.1-.78.32c-.28.25-.44.51-.52.84-.05.32-.01.62.13.95.14.32.34.61.57.89.3.34.61.61.92.8.32.18.62.25.92.23.3-.04.57-.16.78-.34.28-.25.43-.53.46-.86.04-.33-.05-.69-.28-1.1h0Z"/>
      <polygon class="cls-11" points="241.33 142 237.3 138.38 237.73 137.9 241.75 141.52 241.33 142"/>
      <polygon class="cls-11" points="238.72 145.06 234.42 141.76 234.81 141.27 238.6 144.17 240.05 142.29 240.55 142.69 238.72 145.06"/>
      <path class="cls-11" d="m230.64,148.27l.25-.6,2.91,1.15c.5.21.89.43,1.14.64.27.21.44.5.52.84.09.34.04.72-.13,1.15-.18.43-.39.72-.66.94-.27.19-.58.3-.94.28-.35,0-.8-.13-1.33-.34l-2.91-1.15.23-.58,2.91,1.15c.44.18.78.27,1.01.28.25,0,.44-.05.64-.19.18-.13.32-.32.43-.57.16-.44.18-.8.04-1.06-.16-.27-.55-.53-1.19-.78l-2.92-1.15h0Z"/>
      <polygon class="cls-11" points="233.82 161.36 228.39 161.42 228.38 157.94 229.01 157.94 229.03 160.77 230.7 160.76 230.67 158.1 231.3 158.1 231.32 160.76 233.18 160.74 233.15 157.78 233.79 157.78 233.82 161.36"/>
      <path class="cls-11" d="m254.07,134.59l-1.06-5.3,1.61-.34c.37-.07.66-.1.87-.09.28.01.53.09.76.23.3.19.55.46.75.8.19.35.34.76.43,1.22.09.41.13.78.1,1.1-.04.34-.09.62-.18.85s-.19.41-.32.57c-.14.14-.3.27-.52.37s-.46.19-.75.25l-1.7.34h0Zm.5-.75l1.01-.21c.32-.05.55-.14.71-.25.16-.09.28-.21.38-.35.1-.19.18-.44.21-.75.01-.3,0-.64-.09-1.04-.1-.55-.28-.95-.5-1.22-.23-.27-.46-.43-.71-.5-.18-.04-.46-.01-.84.07l-.99.19.81,4.06h0Z"/>
      <path class="cls-11" d="m271.6,136.75l2.52-4.8,1.6.84c.28.16.5.28.64.39.18.14.32.32.41.5.07.19.11.41.09.64-.01.25-.09.5-.21.72-.21.41-.5.69-.89.86-.37.16-.87.07-1.47-.23l-1.08-.57-1.03,1.95-.57-.3h0Zm1.88-2.22l1.1.57c.37.19.67.25.9.18s.43-.25.57-.53c.1-.19.14-.39.13-.58,0-.19-.07-.33-.19-.46-.09-.09-.25-.19-.52-.32l-1.08-.57-.91,1.71h0Z"/>
      <path class="cls-11" d="m274.39,138.18l4.98-2.8.52.44-2.17,5.35-.53-.48.67-1.6-1.49-1.35-1.49.86-.49-.44h0Zm2.52-.74l1.2,1.1.62-1.45c.19-.44.37-.8.5-1.06-.27.21-.57.41-.87.61l-1.45.81h0Z"/>
      <path class="cls-11" d="m278.26,141.82l4.29-3.3,1.32,1.69c.25.35.41.64.47.87.07.23.04.48-.07.75-.13.25-.3.46-.53.66-.3.23-.62.34-.98.32-.34-.01-.67-.18-1.01-.5.01.18.04.34.01.46-.04.27-.13.55-.25.86l-.67,1.56-.48-.64.5-1.19c.16-.35.27-.62.32-.84.07-.19.09-.35.09-.46,0-.13-.01-.23-.05-.32-.04-.07-.1-.18-.19-.3l-.46-.58-1.9,1.47-.39-.52h0Zm2.78-1.33l.84,1.08c.18.23.34.39.5.48.16.09.32.13.48.09.18-.01.34-.09.48-.19.19-.14.32-.34.34-.57.04-.23-.05-.5-.27-.78l-.94-1.2-1.43,1.1h0Z"/>
      <path class="cls-11" d="m281.15,145.52l5.64-1.03.34.58-3.78,4.36-.35-.62,1.17-1.29-.99-1.75-1.69.33-.34-.58h0Zm2.62.13l.8,1.42,1.06-1.17c.32-.35.61-.64.81-.84-.34.1-.67.19-1.03.27l-1.65.32h0Z"/>
      <path class="cls-11" d="m285.93,159.53l5.22,2.41-.09.67-5.59,1.38.07-.71,1.7-.39.19-2-1.58-.69.07-.67h0Zm2.07,1.62l-.18,1.61,1.56-.34c.46-.1.85-.18,1.15-.21-.34-.1-.67-.23-1.01-.37l-1.52-.69h0Z"/>
      <path class="cls-11" d="m234.67,166.34l-5.28,1.17-.46-2.07c-.09-.43-.13-.75-.07-.99.05-.23.18-.44.39-.62.21-.19.46-.32.75-.37.39-.09.73-.05,1.03.1.3.16.55.46.71.89.05-.18.13-.32.18-.43.16-.23.35-.44.61-.67l1.26-1.13.16.78-.96.86c-.28.25-.48.44-.62.61-.16.16-.25.28-.28.39-.05.1-.09.21-.09.32,0,.07.01.19.05.35l.16.71,2.34-.52.13.62h0Zm-3.09.04l-.3-1.33c-.05-.28-.14-.5-.25-.66-.09-.14-.23-.23-.39-.28s-.34-.05-.52-.01c-.25.05-.43.18-.55.37-.13.19-.16.46-.09.81l.34,1.49,1.76-.38h0Z"/>
      <path class="cls-11" d="m234.02,156.56l-5.41-.46.16-1.81c.04-.32.07-.55.13-.71.05-.23.16-.43.3-.58.13-.14.32-.25.55-.34.23-.07.48-.1.75-.07.46.04.84.19,1.14.48.3.28.41.78.35,1.46l-.1,1.22,2.2.19-.07.63h0Zm-2.79-.87l.1-1.24c.04-.41-.01-.71-.18-.89-.16-.19-.39-.3-.71-.32-.21-.01-.43.01-.58.1-.18.07-.28.19-.35.35-.04.1-.07.3-.1.6l-.1,1.22,1.93.17h0Z"/>
      <path class="cls-11" d="m236.29,148.57l-4.52-3.02,1.01-1.49c.19-.32.41-.53.62-.66s.46-.18.71-.14c.27.01.5.09.71.23.18.13.34.3.44.5.1.21.16.44.14.71.23-.19.5-.28.78-.28.27,0,.55.07.8.25.21.14.39.32.52.51s.21.39.23.57c.01.19,0,.39-.07.61-.07.19-.18.43-.35.69l-1.01,1.52h0Zm-2.28-2.27l.58-.86c.14-.23.25-.43.28-.55.04-.16.04-.3-.04-.44-.05-.14-.16-.27-.32-.37-.14-.09-.3-.16-.46-.16-.16-.01-.28.01-.41.11-.13.09-.28.28-.48.57l-.53.8,1.37.91h0Zm2.1,1.38l.66-.99c.1-.18.19-.3.21-.37.05-.14.09-.27.09-.39s-.04-.25-.13-.37c-.07-.13-.18-.23-.32-.33-.18-.11-.34-.16-.52-.18-.18,0-.34.05-.48.14-.14.1-.3.28-.46.53l-.62.94,1.56,1.02h0Z"/>
      <path class="cls-11" d="m245.21,138.18l-1.32-5.58.58-.35,4.55,3.54-.61.39-1.35-1.1-1.7,1.06.43,1.66-.59.38h0Zm0-2.62l1.38-.86-1.23-1.01c-.37-.3-.67-.55-.89-.76.13.32.25.66.32,1.01l.41,1.63h0Z"/>
    </g>
  </g>
</svg>