<?xml version="1.0" encoding="UTF-8"?>
<svg id="Layer_2" data-name="Layer 2" xmlns="http://www.w3.org/2000/svg" viewBox="0 0 520 320">
  <defs>
    <style>
      .cls-1 {
        fill: #a3ab78;
      }

      .cls-1, .cls-2, .cls-3, .cls-4, .cls-5 {
        stroke-width: 0px;
      }

      .cls-2 {
        fill: #fbce2d;
      }

      .cls-3 {
        fill: #005fab;
      }

      .cls-4 {
        fill: #fff;
      }

      .cls-5 {
        fill: #c83a48;
      }
    </style>
  </defs>
  <g id="_500x300_Background" data-name="500x300 Background">
    <rect class="cls-1" width="520" height="320" rx="10" ry="10"/>
  </g>
  <g id="Philippines">
    <g>
      <polygon class="cls-3" points="10 10 226.52 160 510 160 510 10 10 10"/>
      <polygon class="cls-5" points="10 310 510 310 510 160 226.52 160 10 310"/>
      <polygon class="cls-4" points="226.52 160 10 310 10 10 226.52 160"/>
    </g>
    <g>
      <path class="cls-2" d="m117.21,158.11c0-.63-.09-1.26-.18-1.89l26.52-3.52-3.16-3.07-23.63,4.69c-.72-3.88-2.25-7.49-4.42-10.64l20.11-13.35v-4.42l-21.19,16.23c-.36-.54-.81-.99-1.26-1.53l21.83-19.12v-5.41h-5.41l-19.21,21.83c-.45-.45-.99-.81-1.53-1.26l16.23-21.1h-4.42l-13.44,20.02c-3.16-2.07-6.76-3.61-10.64-4.42l4.69-23.63-3.16-3.16-3.52,26.42c-.63-.09-1.26-.18-1.89-.18l1.89-28.95-3.79-3.79-3.79,3.79,1.89,28.95c-.63,0-1.26.09-1.89.18l-3.52-26.42-3.16,3.16,4.69,23.63c-3.88.72-7.49,2.25-10.64,4.42l-13.44-20.02h-4.42l16.23,21.19c-.54.36-.99.81-1.44,1.26l-19.21-21.83h-5.41v5.41l21.92,19.12c-.45.45-.81.99-1.26,1.44l-21.19-16.23v4.42l20.02,13.35c-2.16,3.16-3.61,6.76-4.42,10.64l-23.63-4.69-3.16,3.07,26.52,3.52c-.09.63-.18,1.26-.18,1.89l-29.04-1.89-3.79,3.79,3.79,3.79,29.04-1.89c0,.63.09,1.26.18,1.89l-26.52,3.52,3.16,3.07,23.63-4.69c.81,3.88,2.25,7.49,4.42,10.64l-19.75,13.44v4.42l21.19-16.23c.36.54.81.99,1.26,1.44l-21.92,19.12v5.41h5.41l19.21-21.83c.45.45.99.81,1.44,1.26l-16.23,21.19h4.42l13.44-20.02c3.16,2.07,6.76,3.61,10.64,4.42l-4.69,23.63,3.16,3.16,3.52-26.42c.63.09,1.26.18,1.89.18l-1.89,28.95,3.79,3.79,3.79-3.79-1.89-28.95c.63,0,1.26-.09,1.89-.18l3.52,26.42,3.16-3.16-4.69-23.63c3.88-.72,7.49-2.25,10.64-4.42l13.44,20.02h4.42l-16.23-21.1c.54-.36.99-.81,1.53-1.26l19.21,21.83h5.41v-5.41l-21.83-19.12c.45-.45.81-.99,1.26-1.53l21.19,16.23v-4.42l-20.11-13.35c2.16-3.16,3.61-6.76,4.42-10.64l23.63,4.69,3.16-3.07-26.52-3.52c.09-.63.18-1.26.18-1.89l29.04,1.89,3.79-3.79-3.79-3.79-29.31,1.8Z"/>
      <polygon class="cls-2" points="192.62 156.21 192.35 144.84 185.48 153.92 174.46 150.57 180.98 160 174.46 169.43 185.48 166.08 192.35 175.16 192.62 163.79 203.46 160 192.62 156.21"/>
      <polygon class="cls-2" points="32.69 264.01 27.9 253.81 25.28 264.8 14.03 266.19 23.71 272.12 21.62 283.2 30.16 275.78 40.11 281.28 35.75 270.81 44.03 263.05 32.69 264.01"/>
      <polygon class="cls-2" points="25.28 55.2 27.9 66.19 32.69 55.99 44.03 56.95 35.75 49.19 40.11 38.72 30.16 44.22 21.62 36.8 23.71 47.88 14.03 53.81 25.28 55.2"/>
    </g>
  </g>
</svg>