<?xml version="1.0" encoding="UTF-8"?>
<svg id="Layer_2" data-name="Layer 2" xmlns="http://www.w3.org/2000/svg" viewBox="0 0 520 320">
  <defs>
    <style>
      .cls-1 {
        fill: #a3ab78;
      }

      .cls-1, .cls-2, .cls-3, .cls-4, .cls-5, .cls-6, .cls-7, .cls-8 {
        stroke-width: 0px;
      }

      .cls-3, .cls-8 {
        fill: #ff0;
      }

      .cls-4 {
        fill: red;
      }

      .cls-5 {
        fill: #fff;
      }

      .cls-6 {
        fill: #060;
      }

      .cls-7 {
        fill: #039;
      }

      .cls-8 {
        fill-rule: evenodd;
      }
    </style>
  </defs>
  <g id="_500x300_Background" data-name="500x300 Background">
    <rect class="cls-1" width="520" height="320" rx="10" ry="10"/>
  </g>
  <g id="Portugal">
    <g>
      <rect class="cls-4" x="10" y="10" width="500" height="300"/>
      <rect class="cls-6" x="10" y="10" width="200" height="300"/>
    </g>
    <g>
      <g>
        <g>
          <path class="cls-8" d="m268.67,206.53c-22.66-.68-126.56-65.54-127.27-75.86l5.74-9.57c10.31,14.97,116.52,78.04,126.95,75.81l-5.42,9.62"/>
          <path class="cls-2" d="m268.67,206.75s0,0,0,0c-12.07-.36-46.31-18.73-71.97-34.35-26.46-16.11-55.11-36.03-55.51-41.72,0-.04,0-.09.03-.13l5.74-9.57c.04-.06.1-.1.18-.1.07,0,.14.03.18.09,5.28,7.68,35.63,27.78,63.36,44.3,32.72,19.49,58.78,32.41,63.37,31.43.08-.02.17.02.22.08.05.07.06.16.01.23l-5.41,9.59c-.03.08-.11.14-.2.14Zm-127.05-76.03c.53,4.76,23.72,22.09,55.3,41.31,25.52,15.53,59.52,33.79,71.63,34.28l5.15-9.14c-6.54.35-36.18-15.41-63.24-31.53-27.45-16.35-57.48-36.23-63.3-44.15l-5.53,9.23Z"/>
        </g>
        <g>
          <path class="cls-8" d="m145.93,119.8c-2.03,5.47,27.11,23.49,62.18,44.82,35.06,21.33,65.3,34.5,67.54,32.61.14-.24,1.1-1.91,1.01-1.89-.42.63-1.44.83-3.04.37-9.47-2.73-34.18-14.07-64.78-32.63-30.6-18.56-57.22-35.66-61.36-42.92-.29-.5-.49-1.42-.45-2.14h-.1s-.88,1.54-.88,1.54l-.12.24h0,0Zm123.27,87.03c-.38.7-1.1.72-2.46.57-8.47-.94-34.19-13.44-64.62-31.66-35.41-21.19-64.65-40.51-61.48-45.56l.86-1.53.17.05c-2.85,8.55,57.71,43.18,61.28,45.39,35.04,21.71,64.59,34.39,67.2,31.09l-.95,1.64h0s0,0,0,0Z"/>
          <path class="cls-2" d="m267.81,207.69c-.32,0-.69-.03-1.09-.08-8.64-.96-34.64-13.69-64.71-31.69-40.17-24.05-60.37-38.52-61.74-44.25-.15-.62-.09-1.16.19-1.6l.86-1.52c.05-.09.15-.13.25-.1l.17.05c.05.02.1.06.13.11.03.05.03.11.01.17-.95,2.84,5.44,12.29,58.81,43.73,1.22.72,2.05,1.21,2.38,1.41,34.6,21.43,64.39,34.34,66.92,31.14.07-.09.2-.11.29-.04.09.06.12.19.07.29l-.95,1.64s0,.01-.01.02c-.33.57-.85.73-1.57.73Zm-126.45-78.35l-.54.95c-.22.35-.26.77-.14,1.28,1.34,5.61,21.48,20,61.54,43.99,30.02,17.97,55.95,30.68,64.53,31.63,1.33.14,1.93.11,2.25-.46,0,0,0-.02.02-.02l.54-.94c-.29.08-.65.12-1.07.12-7.39,0-34.18-12.09-65.67-31.6-.33-.21-1.15-.69-2.37-1.41-39.21-23.1-59.07-37.73-59.1-43.53Zm133.6,68.24c-5.54,0-34.02-12.75-66.96-32.79-37.74-22.95-64.29-39.62-62.27-45.07,0,0,0-.02,0-.02l.12-.24.89-1.55c.04-.07.11-.1.19-.11h.1c.06,0,.11.03.15.07.04.04.06.1.06.16-.04.65.15,1.54.42,2.02,4.38,7.69,35.05,26.94,61.28,42.85,28.77,17.45,54.34,29.61,64.73,32.61,1.39.4,2.41.3,2.8-.29.03-.05.09-.08.15-.09.09-.01.17.02.21.09.1.14.11.16-.9,1.92l-.11.2s-.03.04-.05.06c-.16.13-.43.2-.83.2Zm-128.83-77.7c-1.98,5.57,32.06,26.27,62.09,44.54,36.03,21.91,65.04,34.22,67.26,32.65l.09-.16c.2-.35.37-.65.5-.89-.61.22-1.47.18-2.51-.12-10.41-3-36.03-15.18-64.83-32.65-26.28-15.94-57.01-35.22-61.43-43-.23-.41-.41-1.04-.46-1.64l-.71,1.27Z"/>
        </g>
        <g>
          <path class="cls-8" d="m210.12,136.92c22.68-.18,50.66-3.1,66.77-9.52l-3.47-5.64c-9.52,5.27-37.66,8.73-63.49,9.25-30.55-.28-52.12-3.13-62.92-10.38l-3.28,6c19.86,8.41,40.22,10.19,66.39,10.28"/>
          <path class="cls-2" d="m210.12,137.14h0c-26.23-.09-46.49-1.84-66.47-10.29-.06-.02-.1-.07-.12-.13-.02-.06-.01-.12.01-.17l3.28-6c.03-.05.08-.09.14-.11.06-.01.12,0,.17.03,10.06,6.75,30.02,10.04,62.8,10.34,23.34-.47,53.14-3.55,63.38-9.22.1-.06.23-.02.29.08l3.47,5.64c.03.05.04.12.02.18-.02.06-.07.11-.12.13-16.99,6.77-45.66,9.36-66.83,9.53,0,0,0,0-.01,0Zm-66.09-10.6c19.84,8.35,40.01,10.08,66.08,10.17,0,0,0,0,0,0,21.04-.17,49.48-2.73,66.45-9.41l-3.23-5.25c-10.47,5.64-40.14,8.71-63.41,9.18-32.67-.3-52.65-3.57-62.85-10.28l-3.05,5.59Z"/>
        </g>
        <g>
          <path class="cls-8" d="m277.82,127.53c-.55.89-11.06,4.51-26.53,7.18-10.49,1.6-24.18,2.97-41.25,2.98-16.22.02-29.48-1.14-39.51-2.5-16.24-2.55-24.62-6.09-27.72-7.34.3-.59.49-1,.77-1.55,8.92,3.55,17.34,5.69,27.21,7.21,9.97,1.35,23.06,2.52,39.21,2.51,17-.02,30.53-1.49,40.96-3.04,15.87-2.56,24.53-5.85,25.75-7.38l1.12,1.93h0Zm-3.05-5.72c-1.72,1.38-10.29,4.42-25.36,6.83-10.06,1.44-22.85,2.73-39.2,2.75-15.53.02-28.21-1.03-37.86-2.44-15.31-2-23.46-5.61-26.4-6.66.29-.51.59-1.01.9-1.51,2.29,1.15,10.15,4.34,25.67,6.54,9.54,1.35,22.25,2.36,37.7,2.34,16.27-.02,28.91-1.33,38.91-2.77,15.15-2.08,23.31-5.96,24.55-6.93l1.1,1.84h0s0,0,0,0Z"/>
          <path class="cls-2" d="m209.72,137.91c-13.78,0-26.97-.84-39.22-2.5-15.72-2.46-24.23-5.92-27.44-7.22l-.34-.14c-.06-.02-.1-.07-.12-.12s-.02-.12,0-.17c.12-.24.22-.45.32-.66.14-.3.28-.57.45-.9.05-.1.17-.14.27-.1,8.55,3.4,16.93,5.62,27.16,7.2,12.27,1.66,25.34,2.5,38.86,2.5.1,0,.21,0,.31,0,13.9-.01,27.29-1.01,40.93-3.04,15.67-2.53,24.41-5.79,25.61-7.3.04-.06.1-.09.18-.08.07,0,.13.05.17.11l1.12,1.93c.04.07.04.15,0,.21,0,.02-.02.03-.03.04-.86,1.07-11.67,4.66-26.65,7.24-12.91,1.97-26.8,2.97-41.29,2.99h-.32Zm-66.62-10.17l.12.05c3.19,1.3,11.68,4.74,27.34,7.19,12.22,1.66,25.4,2.5,39.16,2.5.11,0,.21,0,.32,0,14.47-.01,28.34-1.02,41.22-2.98,15.32-2.65,25.23-6.13,26.3-7l-.9-1.55c-1.73,1.55-9.79,4.68-25.67,7.24-13.67,2.03-27.08,3.03-41,3.04h-.31c-13.54,0-26.64-.84-38.93-2.51-10.2-1.57-18.56-3.78-27.08-7.15-.13.25-.24.48-.36.72-.07.14-.14.29-.22.45Zm66.79,3.86c-13.62,0-26.61-.84-37.57-2.44-13.55-1.77-21.42-4.77-25.2-6.21-.49-.18-.9-.34-1.24-.46-.06-.02-.11-.07-.13-.13s-.02-.13.02-.18c.29-.51.59-1.01.9-1.51.06-.1.18-.13.28-.08,1.34.67,8.85,4.15,25.6,6.52,7.55,1.07,20.14,2.34,37.31,2.34.12,0,.24,0,.35,0,17.7-.02,30.67-1.59,38.88-2.76,14.49-1.99,22.99-5.75,24.44-6.89.05-.04.11-.05.17-.04.06.01.11.05.15.1l1.1,1.84s.03.07.03.11c0,.07-.03.13-.08.17-1.69,1.35-10.09,4.42-25.47,6.87-12.83,1.84-25.66,2.74-39.23,2.75h-.33Zm-63.62-9.42c.29.11.63.23,1,.38,3.77,1.43,11.6,4.42,25.11,6.18,11.03,1.61,24.09,2.45,37.84,2.43,13.55-.01,26.37-.91,39.17-2.75,14.88-2.38,23.15-5.29,25.11-6.67l-.89-1.47c-1.65,1.09-9.48,4.77-24.45,6.83-8.22,1.18-21.21,2.75-38.94,2.77h-.36c-17.2,0-29.8-1.27-37.37-2.35-16.19-2.29-23.81-5.62-25.56-6.47-.22.37-.44.74-.66,1.12Zm128.51-.37h0,0Z"/>
        </g>
        <g>
          <path class="cls-8" d="m135.65,164.24c13.95,7.5,44.93,11.28,74.25,11.54,26.69.04,61.47-4.13,74.47-11.02l-.36-7.51c-4.07,6.36-41.33,12.46-74.4,12.21-33.07-.25-63.78-5.36-74.02-11.97l.06,6.74"/>
          <path class="cls-2" d="m210.3,176c-.13,0-.27,0-.4,0-25.97-.23-59.14-3.39-74.35-11.57-.08-.04-.12-.12-.11-.2l-.06-6.73c0-.08.04-.15.11-.19.07-.04.15-.04.22,0,10.33,6.67,41.41,11.69,73.9,11.93,32.79.26,70.23-5.86,74.22-12.11.05-.08.15-.11.24-.09.09.02.15.1.16.2l.36,7.51c0,.08-.04.16-.11.2-13.08,6.93-47.89,11.04-74.17,11.04Zm-74.43-11.89c15.19,8.1,48.18,11.23,74.03,11.46.13,0,.27,0,.4,0,26.15,0,60.74-4.07,73.85-10.93l-.32-6.79c-5.6,6.28-41.56,12.07-74.22,11.83-32.22-.24-63.09-5.19-73.8-11.79l.06,6.22Z"/>
        </g>
        <g>
          <path class="cls-8" d="m285.08,163.16v1.79c-1.95,2.34-14.21,5.87-29.58,8.36-11.7,1.79-26.95,3.15-45.95,3.15s-32.45-1.29-43.61-3c-17.65-2.57-28.93-7.07-31.2-8.41v-2.09c6.82,4.53,25.26,7.84,31.45,8.85,11.09,1.7,25.4,2.98,43.36,2.98,18.91,0,34.08-1.34,45.7-3.12,11.03-1.59,26.73-5.73,29.83-8.49h0Zm0-6.37v1.79c-1.95,2.34-14.21,5.87-29.58,8.35-11.7,1.79-26.95,3.15-45.95,3.15s-32.45-1.29-43.61-3c-17.65-2.57-28.93-7.07-31.2-8.41v-2.09c6.82,4.52,25.26,7.84,31.45,8.85,11.09,1.7,25.4,2.98,43.36,2.98,18.91,0,34.08-1.34,45.7-3.13,11.03-1.59,26.73-5.73,29.83-8.49h0s0,0,0,0Z"/>
          <path class="cls-2" d="m209.56,176.67c-15.98,0-30.66-1.01-43.64-3-16.9-2.46-28.55-6.83-31.28-8.44-.07-.04-.11-.11-.11-.19v-2.09c.01-.08.05-.15.12-.19.07-.04.15-.03.22.01,6.82,4.53,25.72,7.89,31.35,8.82,12.87,1.98,27.45,2.98,43.33,2.98,16.79,0,32.15-1.05,45.67-3.12,10.94-1.58,26.63-5.7,29.71-8.44.05-.05.13-.07.21-.05.09.03.15.11.15.21v1.79c0,.05-.02.1-.05.14-2.03,2.43-14.52,5.97-29.71,8.43-13.63,2.09-29.1,3.15-45.98,3.15Zm-74.6-11.75c2.02,1.13,12.86,5.68,31.02,8.32,12.96,1.99,27.62,3,43.58,3,16.86,0,32.31-1.06,45.91-3.14,14.72-2.38,27.3-5.91,29.4-8.22v-1.26c-3.83,2.78-18.95,6.72-29.58,8.26-13.54,2.07-28.92,3.13-45.73,3.13-15.9,0-30.5-1-43.4-2.98-7.13-1.17-24.26-4.32-31.19-8.67v1.57Zm74.6,5.38c-15.99,0-30.67-1.01-43.64-3-16.9-2.46-28.56-6.83-31.28-8.44-.07-.04-.11-.11-.11-.19v-2.09c.01-.08.05-.15.12-.19.07-.04.15-.03.22.01,6.83,4.54,25.73,7.89,31.35,8.81,12.87,1.98,27.45,2.98,43.33,2.98,16.79,0,32.15-1.05,45.67-3.12,10.95-1.58,26.64-5.7,29.71-8.44.05-.04.12-.06.18-.05.07.01.12.05.15.11.02.03.02.06.02.1v1.79c0,.05-.02.1-.05.14-2.03,2.43-14.52,5.97-29.71,8.43-13.63,2.09-29.1,3.15-45.98,3.15Zm-74.6-11.75c2.01,1.13,12.86,5.68,31.02,8.32,12.95,1.99,27.62,3,43.58,3,16.86,0,32.31-1.06,45.91-3.14,14.72-2.38,27.3-5.9,29.4-8.22v-1.27c-3.83,2.78-18.95,6.72-29.58,8.26-13.54,2.08-28.92,3.13-45.73,3.13-15.9,0-30.5-1-43.4-2.98-5.56-.91-24.03-4.19-31.19-8.67v1.57Z"/>
        </g>
        <g>
          <path class="cls-8" d="m209.83,205.24c-32.08-.19-59.57-8.74-65.37-10.16l4.23,6.63c10.25,4.31,37.07,10.74,61.45,10.03,24.38-.71,45.68-2.6,60.7-9.91l4.34-6.87c-10.23,4.82-45.05,10.23-65.34,10.28"/>
          <path class="cls-2" d="m206.39,212c-23.01,0-47.71-5.87-57.77-10.1-.04-.02-.07-.05-.1-.08l-4.23-6.63c-.05-.07-.05-.17,0-.24.05-.07.14-.1.23-.08.69.17,1.69.44,2.95.78,9.33,2.52,34.12,9.21,62.37,9.37,20.42-.05,55.18-5.51,65.25-10.26.09-.04.19-.02.25.05s.07.18.02.26l-4.34,6.87s-.05.06-.09.08c-15.66,7.63-38.47,9.28-60.78,9.93-1.25.04-2.5.05-3.76.05Zm-57.55-10.47c10.62,4.45,37.38,10.68,61.29,9.99,22.24-.65,44.96-2.29,60.55-9.86l3.93-6.21c-10.89,4.69-44.74,9.96-64.78,10h0c-28.31-.17-53.14-6.87-62.48-9.39-.97-.26-1.78-.48-2.41-.64l3.91,6.11Z"/>
        </g>
        <g>
          <path class="cls-8" d="m272.47,200.29c-.64.97-1.29,1.94-1.95,2.87-7.08,2.5-18.24,5.12-22.95,5.88-9.62,1.98-24.5,3.45-37.71,3.45-28.42-.42-51.68-5.98-62.62-10.72l-.88-1.52.14-.23,1.5.58c19.46,6.96,41.32,9.74,62.02,10.24,13.15.05,26.32-1.51,36.97-3.41,16.33-3.27,22.93-5.74,24.96-6.86l.52-.29h0,0Zm3.76-6.21s.03.04.05.06c-.48.8-.97,1.62-1.47,2.45-3.78,1.35-14.03,4.35-28.99,6.44-9.86,1.34-15.99,2.64-35.61,3.03-36.76-.94-60.56-8.12-66.22-9.9l-.84-1.61c21.3,5.56,43.07,9.44,67.06,9.84,17.95-.38,25.58-1.7,35.36-3.04,17.45-2.71,26.25-5.59,28.89-6.42-.03-.05-.07-.1-.12-.15l1.89-.71h0s0,0,0,0Z"/>
          <path class="cls-2" d="m209.87,212.7c-28.98-.42-51.89-6.05-62.7-10.74-.04-.02-.07-.05-.1-.09l-.88-1.52c-.04-.07-.04-.15,0-.21l.14-.23c.05-.08.16-.12.25-.08l1.5.58c17.36,6.21,38.21,9.65,61.95,10.23,14.48.06,28.08-1.83,36.93-3.41,18.23-3.65,23.66-6.15,24.89-6.83l.51-.29c.08-.05.19-.03.25.04.06.07.07.17.02.25-.66,1.01-1.32,1.98-1.95,2.88-.02.04-.06.06-.1.08-7.04,2.48-18.13,5.1-22.98,5.89-9.99,2.06-25.16,3.45-37.74,3.45Zm-62.48-11.09c11.65,5.04,35.47,10.28,62.48,10.68,12.55,0,27.68-1.39,37.66-3.45,4.83-.78,15.84-3.39,22.86-5.85.47-.67.95-1.38,1.44-2.11-1.61.83-7.42,3.28-24.8,6.76-8.87,1.59-22.49,3.46-37.01,3.42-23.79-.57-44.68-4.02-62.09-10.25l-1.31-.51.77,1.32Zm62.82,4.65c-32.85-.84-55.63-6.56-66.28-9.91-.05-.02-.1-.05-.12-.1l-.84-1.61c-.04-.07-.03-.16.02-.22s.13-.09.21-.07c24.35,6.36,45.64,9.48,67.01,9.83,16-.34,23.88-1.44,32.23-2.61,1.02-.14,2.05-.29,3.1-.43,16.84-2.62,25.66-5.4,28.56-6.32h.03s0-.07,0-.1c.02-.06.06-.12.13-.14l1.89-.71c.09-.03.19,0,.25.08,0,0,0,0,0,0,0,0,.03.04.03.04.05.07.06.16.02.23-.48.81-.97,1.63-1.47,2.45-.02.04-.06.07-.11.09-5.07,1.81-15.72,4.59-29.04,6.45-1.45.2-2.82.39-4.17.59-7.9,1.13-14.72,2.11-31.46,2.44Zm-66.08-10.27c10.67,3.34,33.37,9.03,66.08,9.86,16.71-.32,23.52-1.3,31.4-2.43,1.35-.19,2.72-.39,4.17-.59,13.22-1.85,23.8-4.6,28.88-6.41.41-.66.8-1.32,1.19-1.98l-1.21.45s0,.08,0,.11c-.02.06-.07.11-.13.13l-.29.09c-2.91.92-11.75,3.71-28.63,6.33-1.06.14-2.09.29-3.1.43-8.36,1.17-16.26,2.27-32.29,2.61-21.28-.35-42.47-3.44-66.66-9.73l.58,1.12Z"/>
        </g>
        <g>
          <path class="cls-8" d="m276.61,158.32c.1,21.1-10.7,40.04-19.39,48.39-12.31,11.82-28.62,19.42-47.68,19.77-21.28.39-41.34-13.48-46.72-19.57-10.52-11.91-19.09-27.04-19.36-47.43,1.3-23.03,10.34-39.07,23.45-50.08s30.56-16.36,45.09-15.98c16.77.44,36.36,8.67,49.89,25,8.87,10.7,12.71,22.31,14.72,39.89h0Zm-66.89-72.26c40.86,0,74.47,33.25,74.47,74.03s-33.61,74.03-74.47,74.03-74.19-33.25-74.19-74.03,33.33-74.03,74.19-74.03"/>
          <path class="cls-2" d="m209.72,234.33c-41.03,0-74.41-33.31-74.41-74.24s33.38-74.24,74.41-74.24c19.84,0,38.56,7.74,52.71,21.79,14.17,14.07,21.98,32.7,21.98,52.46s-7.8,38.39-21.98,52.46c-14.15,14.05-32.87,21.79-52.71,21.79Zm0-148.06c-40.79,0-73.98,33.11-73.98,73.81s33.19,73.81,73.98,73.81,74.26-33.11,74.26-73.81-33.31-73.81-74.26-73.81Zm-1.08,140.43c-21.81,0-41.29-14.34-45.98-19.66-12.83-14.53-19.18-30.09-19.42-47.57,1.2-21.25,9.12-38.15,23.53-50.24,12.27-10.3,29.6-16.43,45.23-16.03,18.46.49,37.63,10.1,50.05,25.08,8.51,10.26,12.65,21.48,14.77,40.01,0,0,0,.02,0,.02.1,20.42-10.02,39.48-19.46,48.55-13.16,12.64-29.7,19.5-47.82,19.83-.3,0-.61,0-.91,0Zm1.88-133.09c-15.14,0-31.66,6.04-43.47,15.95-14.32,12.02-22.18,28.81-23.37,49.92.23,17.36,6.55,32.83,19.31,47.28,4.72,5.35,24.53,19.9,46.56,19.5,18.01-.33,34.45-7.15,47.53-19.71,9.38-9.01,19.42-27.94,19.33-48.23-2.11-18.43-6.22-29.58-14.67-39.77-12.34-14.89-31.39-24.44-49.73-24.92-.49-.01-.98-.02-1.48-.02Z"/>
        </g>
        <g>
          <path class="cls-8" d="m209.92,85.81c40.9,0,74.26,33.36,74.26,74.27s-33.36,74.27-74.26,74.27-74.26-33.36-74.26-74.26,33.36-74.27,74.26-74.27h0Zm-72.62,74.27c0,39.94,32.8,72.63,72.62,72.63s72.62-32.69,72.62-72.63-32.8-72.63-72.62-72.63-72.62,32.69-72.62,72.63h0Z"/>
          <path class="cls-2" d="m209.92,234.56c-41.06,0-74.47-33.41-74.47-74.48s33.41-74.48,74.47-74.48,74.47,33.41,74.47,74.48-33.41,74.48-74.47,74.48Zm0-148.53c-40.83,0-74.04,33.22-74.04,74.05s33.22,74.05,74.04,74.05,74.04-33.22,74.04-74.05-33.22-74.05-74.04-74.05Zm0,146.9c-19.33,0-37.58-7.6-51.4-21.4-13.83-13.81-21.44-32.08-21.44-51.45s7.61-37.63,21.44-51.45c13.81-13.8,32.07-21.4,51.4-21.4s37.58,7.6,51.4,21.4c13.83,13.81,21.44,32.08,21.44,51.45s-7.61,37.63-21.44,51.45c-13.81,13.8-32.07,21.4-51.4,21.4Zm0-145.26c-39.93,0-72.41,32.49-72.41,72.42s32.48,72.42,72.41,72.42,72.41-32.49,72.41-72.42-32.48-72.42-72.41-72.42Z"/>
        </g>
        <g>
          <path class="cls-8" d="m209.98,91.98c37.3,0,68.02,30.62,68.02,68.03s-30.72,68.03-68.02,68.03-68.02-30.61-68.02-68.03,30.72-68.03,68.02-68.03h0Zm-66.39,68.03c0,36.51,29.98,66.39,66.39,66.39s66.39-29.88,66.39-66.39-29.98-66.39-66.39-66.39-66.39,29.88-66.39,66.39h0Z"/>
          <path class="cls-2" d="m209.98,228.25c-18.11,0-35.21-7.12-48.15-20.05-12.95-12.94-20.09-30.06-20.09-48.2s7.13-35.26,20.09-48.2c12.94-12.93,30.04-20.05,48.15-20.05s35.21,7.12,48.15,20.05c12.95,12.94,20.09,30.06,20.09,48.2s-7.13,35.26-20.09,48.2c-12.94,12.93-30.04,20.05-48.15,20.05Zm0-136.05c-37.39,0-67.81,30.42-67.81,67.81s30.42,67.81,67.81,67.81,67.8-30.42,67.8-67.81-30.42-67.81-67.8-67.81Zm0,134.42c-17.68,0-34.37-6.95-47-19.57-12.64-12.63-19.61-29.34-19.61-47.04s6.96-34.41,19.61-47.04c12.63-12.62,29.32-19.57,47-19.57s34.37,6.95,47,19.57c12.64,12.63,19.6,29.34,19.6,47.04s-6.96,34.41-19.6,47.04c-12.63,12.62-29.32,19.57-47,19.57Zm0-132.79c-36.49,0-66.17,29.69-66.17,66.18s29.68,66.18,66.17,66.18,66.17-29.69,66.17-66.18-29.68-66.18-66.17-66.18Z"/>
        </g>
        <g>
          <path class="cls-8" d="m212.98,85.51h-6.36v149.22h6.39l-.03-149.22Z"/>
          <path class="cls-2" d="m213.01,234.94h-6.39c-.12,0-.21-.1-.21-.21V85.51c0-.06.02-.11.06-.15s.09-.06.15-.06h6.36c.12,0,.21.1.21.21l.03,149.22c0,.06-.02.11-.06.15s-.09.06-.15.06Zm-6.17-.43h5.96l-.03-148.79h-5.93v148.79Z"/>
        </g>
        <g>
          <path class="cls-8" d="m212.34,84.66h1.62v150.94s-1.61,0-1.61,0V84.66s-.01,0-.01,0Zm-6.32,0h1.63v150.94s-1.63,0-1.63,0V84.66h0Z"/>
          <path class="cls-2" d="m207.66,235.81h-1.63c-.12,0-.21-.1-.21-.21V84.68s0-.01,0-.02c0-.12.1-.21.21-.21h1.63c.12,0,.21.1.21.21v150.94c0,.06-.02.11-.06.15s-.09.06-.15.06Zm-1.42-.43h1.2V84.88h-1.2v150.51Zm7.73.43h-1.62c-.12,0-.21-.1-.21-.21V84.66c-.01-.06.01-.11.05-.15s.09-.06.15-.06h1.62c.12,0,.21.1.21.21v150.94c.01.06,0,.11-.05.15s-.09.06-.15.06Zm-1.41-.43h1.19V84.87h-1.2v150.51Z"/>
        </g>
        <g>
          <path class="cls-8" d="m284.23,162.95v-5.52l-4.49-4.19-25.5-6.75-36.75-3.75-44.25,2.25-31.5,7.5-6.36,4.71v5.52l16.11-7.23,38.25-6h36.75l27,3,18.75,4.5,11.99,5.95Z"/>
          <path class="cls-2" d="m284.23,163.17s-.07,0-.1-.02l-11.99-5.95-18.7-4.48-26.97-3h-36.73s-38.19,5.99-38.19,5.99l-16.08,7.22c-.06.03-.14.02-.2-.02-.06-.04-.1-.11-.1-.18v-5.52c0-.07.03-.13.09-.17l6.36-4.71s.05-.03.08-.04l31.5-7.5,44.29-2.26,36.78,3.75,25.53,6.76s.07.03.09.05l4.49,4.19s.07.1.07.16v5.52c0,.07-.04.14-.1.18-.04.02-.07.03-.11.03Zm-57.74-13.88l27.02,3,18.78,4.5,11.73,5.81v-5.08l-4.39-4.08-25.45-6.74-36.72-3.74-44.22,2.25-31.42,7.48-6.24,4.62v5.08l15.81-7.09s.04-.01.05-.02l38.25-6h36.78Z"/>
        </g>
        <g>
          <path class="cls-8" d="m209.95,148.58c17.54-.03,34.55,1.66,48.05,4.29,13.93,2.78,23.73,6.27,27.08,10.18v1.94c-4.05-4.87-17.23-8.44-27.39-10.48-13.39-2.61-30.29-4.29-47.74-4.26-18.4.03-35.54,1.78-48.74,4.35-10.59,2.1-24.71,6.28-26.48,10.39v-2.02c.97-2.85,11.48-7.11,26.24-10.06,13.3-2.59,30.46-4.31,48.98-4.34h0Zm0-6.37c17.54-.03,34.55,1.66,48.05,4.29,13.93,2.79,23.73,6.27,27.08,10.18v1.94c-4.05-4.87-17.23-8.44-27.39-10.47-13.39-2.61-30.29-4.29-47.74-4.26-18.4.03-35.46,1.78-48.66,4.35-10.22,1.94-24.92,6.28-26.56,10.4v-2.02c.97-2.82,11.7-7.23,26.24-10.06,13.3-2.59,30.46-4.3,48.98-4.34h0Z"/>
          <path class="cls-2" d="m134.74,165.21s-.03,0-.04,0c-.1-.02-.17-.11-.17-.21v-2.02s0-.05.01-.07c1.04-3.06,12.14-7.35,26.4-10.2,14.2-2.77,31.61-4.31,49.02-4.34v.21s0-.21,0-.21c.16,0,.33,0,.5,0,16.48,0,33.36,1.52,47.59,4.29,14.54,2.91,23.95,6.45,27.2,10.25.03.04.05.09.05.14v1.94c0,.09-.06.17-.15.2-.08.03-.18,0-.24-.06-4.27-5.15-18.92-8.73-27.27-10.4-14.11-2.74-30.85-4.25-47.2-4.25-.16,0-.33,0-.49,0-17.2.03-34.49,1.58-48.7,4.35-11.54,2.29-24.7,6.48-26.32,10.27-.03.08-.11.13-.2.13Zm75.71-15.18c16.38,0,33.15,1.51,47.28,4.26,8.18,1.64,22.36,5.11,27.13,10.12v-1.29c-3.24-3.7-12.54-7.18-26.9-10.05-14.21-2.77-31.06-4.29-47.51-4.29-.17,0-.33,0-.5,0-17.38.03-34.76,1.57-48.94,4.34-15.75,3.15-25.16,7.44-26.06,9.89v1.19c3.14-4.25,17.71-8.13,26.22-9.82,14.23-2.78,31.56-4.32,48.78-4.36.16,0,.33,0,.49,0Zm-75.7,8.81s-.03,0-.04,0c-.1-.02-.17-.11-.17-.21v-2.02s0-.05.01-.07c1.06-3.09,12.41-7.48,26.4-10.2,14.2-2.77,31.6-4.31,49.02-4.34h0c.16,0,.32,0,.49,0,16.48,0,33.36,1.52,47.61,4.29,14.54,2.91,23.95,6.45,27.2,10.25.03.04.05.09.05.14v1.94c0,.09-.06.17-.15.2-.08.03-.18,0-.24-.06-4.27-5.15-18.92-8.73-27.27-10.4-14.25-2.77-31.16-4.29-47.69-4.25-17.13.03-34.4,1.57-48.62,4.35-11.7,2.22-24.93,6.57-26.4,10.26-.03.08-.11.14-.2.14Zm75.73-15.18c16.37,0,33.14,1.51,47.26,4.26,8.18,1.64,22.36,5.1,27.13,10.12v-1.29c-3.24-3.7-12.53-7.17-26.9-10.05-14.35-2.79-31.41-4.34-48.01-4.29h0c-17.39.03-34.77,1.57-48.94,4.34-15.14,2.95-25.12,7.33-26.07,9.89v1.17c3-4.08,17.06-8.04,26.3-9.8,14.24-2.78,31.54-4.32,48.7-4.35.17,0,.34,0,.51,0Z"/>
        </g>
        <g>
          <path class="cls-8" d="m209.6,109.72c27.64-.14,51.74,3.86,62.77,9.51l4.02,6.96c-9.59-5.17-35.59-10.54-66.75-9.73-25.39.16-52.52,2.8-66.13,10.06l4.8-8.03c11.17-5.79,37.52-8.73,61.29-8.76"/>
          <path class="cls-2" d="m143.51,126.73c-.06,0-.11-.02-.16-.07-.07-.07-.08-.18-.03-.26l4.8-8.03s.05-.06.09-.08c11.62-6.03,39.19-8.76,61.36-8.79,0,0,.02,0,.02,0,26.62-.12,51.3,3.61,62.87,9.54.04.02.07.05.09.08l4.02,6.96c.05.08.04.19-.03.26-.07.07-.17.08-.26.04-10.06-5.42-36.17-10.5-66.65-9.71-17.85.11-50.15,1.56-66.04,10.03-.03.02-.07.03-.1.03Zm4.96-8.08l-4.38,7.33c16.19-8.21,47.92-9.62,65.56-9.73,29.9-.77,55.65,4.1,66.2,9.42l-3.62-6.27c-11.53-5.88-36.06-9.59-62.59-9.46,0,0-.02,0-.03,0-22.09.03-49.54,2.73-61.14,8.71Z"/>
        </g>
        <g>
          <path class="cls-8" d="m209.97,115.46c15.76-.04,30.99.85,43.11,3.03,11.28,2.1,22.04,5.25,23.58,6.95l1.19,2.11c-3.74-2.44-13.05-5.16-25-7.43-12-2.26-27.22-3-42.9-2.96-17.79-.06-31.61.88-43.48,2.95-12.55,2.35-21.25,5.7-23.4,7.29l1.17-2.23c4.17-2.13,10.79-4.69,21.92-6.7,12.27-2.24,26.24-2.91,43.82-3.01h0Zm0-6.36c15.08-.04,29.98.8,41.59,2.89,9.16,1.78,18.21,4.57,21.53,7.04l1.74,2.77c-2.97-3.3-14.13-6.42-23.98-8.17-11.52-1.99-25.8-2.77-40.88-2.9-15.83.04-30.46,1.01-41.81,3.08-10.83,2.06-17.82,4.5-20.78,6.41l1.53-2.32c4.08-2.15,10.67-4.12,18.98-5.73,11.44-2.08,26.16-3.03,42.08-3.07h0Z"/>
          <path class="cls-2" d="m277.85,127.77s-.08-.01-.12-.04c-3.66-2.39-12.75-5.09-24.93-7.4-10.7-2.01-25.13-3-42.86-2.96-17.78-.06-31.57.87-43.44,2.94-12.48,2.34-21.14,5.65-23.31,7.26-.08.06-.19.06-.27,0-.08-.07-.1-.17-.05-.26l1.17-2.23s.05-.07.09-.09c5.63-2.87,12.82-5.07,21.98-6.72,11.11-2.03,23.82-2.9,43.85-3.01h0c16.96-.04,31.89,1,43.15,3.04,11.5,2.14,22.13,5.29,23.7,7.01l1.22,2.15c.05.09.03.19-.04.26-.04.04-.09.06-.15.06Zm-66.71-10.82c17.23,0,31.26,1,41.75,2.97,11.51,2.18,20.29,4.72,24.37,7.03l-.79-1.39c-1.46-1.6-12.2-4.75-23.43-6.84-11.23-2.03-26.11-3.08-43.07-3.03h0c-20.01.11-32.69.98-43.78,3.01-9.09,1.64-16.22,3.81-21.8,6.65l-.76,1.45c3.01-1.74,11.3-4.73,22.79-6.88,11.9-2.07,25.72-3.01,43.52-2.95.4,0,.8,0,1.19,0Zm63.69,5.08c-.06,0-.12-.02-.16-.07-3.05-3.39-14.76-6.49-23.86-8.1-10.47-1.81-23.84-2.75-40.85-2.9-16.52.05-30.97,1.11-41.77,3.08-9.6,1.83-17.34,4.21-20.7,6.38-.09.05-.2.04-.27-.03-.07-.07-.08-.18-.03-.27l1.53-2.32s.05-.05.08-.07c4.05-2.13,10.63-4.12,19.04-5.76,10.79-1.97,25.36-3.03,42.12-3.08h0c16.48-.03,30.86.96,41.63,2.89,9.82,1.91,18.51,4.76,21.62,7.08.02.02.04.04.05.06l1.74,2.77c.06.09.04.22-.05.29-.04.03-.08.04-.13.04Zm-64.86-11.5c17.04.14,30.42,1.09,40.92,2.9,8.29,1.47,18.74,4.18,22.98,7.25l-.94-1.49c-3.09-2.28-11.68-5.09-21.41-6.98-10.74-1.93-25.13-2.93-41.55-2.88h0c-16.74.05-31.28,1.11-42.04,3.07-8.33,1.62-14.85,3.58-18.87,5.69l-.99,1.49c3.74-2.06,11.09-4.25,20.04-5.95,10.83-1.97,25.3-3.04,41.85-3.09Z"/>
        </g>
        <g>
          <path class="cls-8" d="m246.85,190.94c-13.66-2.55-27.35-2.92-36.91-2.81-46.06.54-60.93,9.46-62.75,12.16l-3.44-5.61c11.73-8.5,36.8-13.27,66.44-12.78,15.39.25,28.67,1.27,39.84,3.44l-3.18,5.6"/>
          <path class="cls-2" d="m147.19,200.51h0c-.07,0-.14-.04-.18-.1l-3.44-5.61c-.06-.1-.03-.22.06-.29,11.75-8.52,36.63-13.31,66.57-12.82,16.25.27,29.29,1.39,39.88,3.44.07.01.13.06.15.12.03.06.03.14,0,.2l-3.18,5.6c-.05.09-.15.13-.25.1-10.82-2.02-23.22-2.96-36.84-2.8-44.81.53-60.58,9.1-62.57,12.06-.04.06-.11.1-.18.1Zm-3.15-5.77l3.17,5.17c2.72-3.22,18.96-11.48,62.73-11.99,13.6-.16,25.98.78,36.8,2.78l2.95-5.21c-10.51-2.01-23.43-3.11-39.51-3.38-29.7-.49-54.4,4.23-66.15,12.62Z"/>
        </g>
        <g>
          <path class="cls-8" d="m209.68,187.34c12.81.19,25.39.72,37.52,2.98l-.88,1.55c-11.27-2.08-23.29-2.88-36.6-2.81-17-.13-34.19,1.45-49.16,5.75-4.72,1.31-12.54,4.35-13.34,6.86l-.87-1.44c.25-1.48,4.98-4.56,13.81-7.04,17.14-4.91,33.18-5.74,49.51-5.85h0s0,0,0,0Zm.58-6.45c13.27.25,26.98.86,40.3,3.5l-.92,1.62c-12.03-2.39-23.53-3.18-39.31-3.43-17.05.03-35.14,1.25-51.58,6.03-5.31,1.55-14.47,4.89-14.78,7.54l-.87-1.55c.2-2.4,8.13-5.54,15.27-7.62,16.57-4.82,34.71-6.06,51.89-6.09h0Z"/>
          <path class="cls-2" d="m147.23,201.88c-.07,0-.14-.04-.18-.1l-.87-1.44s-.04-.09-.03-.14c.28-1.67,5.27-4.77,13.96-7.21,16.38-4.69,31.66-5.73,49.57-5.86.02,0,.02,0,.03,0,12.15.18,25.11.67,37.53,2.99.07.01.12.06.15.12.03.06.03.13,0,.19l-.88,1.55c-.04.08-.13.12-.22.1-10.61-1.96-22.57-2.87-36.56-2.81-18.8-.15-35.31,1.78-49.1,5.74-5.04,1.4-12.46,4.41-13.2,6.72-.02.08-.09.13-.17.14,0,0-.02,0-.02,0Zm-.66-1.68l.63,1.03c1.41-2.51,8.77-5.35,13.31-6.61,13.82-3.97,30.38-5.9,49.21-5.76,13.96-.07,25.89.84,36.49,2.79l.66-1.17c-12.32-2.27-25.16-2.75-37.21-2.93,0,0-.01,0-.02,0-17.86.12-33.11,1.17-49.43,5.84-8.79,2.47-13.28,5.48-13.65,6.81Zm-2.6-3.84c-.07,0-.14-.04-.18-.1l-.87-1.55s-.03-.08-.03-.12c.26-3.15,11.87-6.77,15.42-7.8,14.17-4.12,30.68-6.06,51.95-6.1h0s0,0,0,0c12.99.24,26.86.83,40.34,3.51.07.01.12.06.15.12.03.06.02.13,0,.19l-.92,1.62c-.04.08-.13.12-.22.1-12.78-2.54-24.94-3.2-39.27-3.42-21.16.04-37.53,1.95-51.52,6.02-6.87,2-14.38,5.16-14.63,7.36,0,.09-.08.16-.16.18-.01,0-.03,0-.04,0Zm-.66-1.8l.6,1.07c1.5-3.26,13.37-6.8,14.78-7.21,14.03-4.08,30.44-6,51.64-6.04,14.31.22,26.45.88,39.21,3.4l.7-1.24c-13.36-2.62-27.11-3.2-39.99-3.44-21.22.04-37.69,1.97-51.83,6.08-8.93,2.6-14.84,5.48-15.11,7.38Z"/>
        </g>
        <g>
          <path class="cls-8" d="m275.68,195.53l-5.53,8.59-15.9-14.12-41.25-27.75-46.5-25.5-24.14-8.26,5.15-9.54,1.75-.95,15,3.75,49.5,25.5,28.5,18,24,17.25,9.75,11.25-.32,1.79Z"/>
          <path class="cls-2" d="m270.14,204.34c-.05,0-.1-.02-.14-.05l-15.9-14.12-41.23-27.73-46.48-25.49-24.11-8.24c-.06-.02-.11-.07-.13-.12s-.02-.12.01-.18l5.14-9.54s.05-.07.09-.09l1.75-.95s.1-.03.15-.02l15,3.75,49.55,25.52,28.52,18.01,24.01,17.26,9.79,11.28s.06.11.05.18l-.31,1.78s-.02.05-.03.08l-5.53,8.59c-.03.05-.09.09-.15.1,0,0-.02,0-.03,0Zm-127.48-75.97l23.9,8.18,46.53,25.52,41.27,27.76,15.74,13.97,5.37-8.34.29-1.64-9.68-11.17-23.96-17.22-28.49-17.99-49.48-25.49-14.87-3.71-1.62.88-4.99,9.26Zm133.02,67.16h0,0Z"/>
        </g>
        <g>
          <path class="cls-8" d="m141.48,128.72c4.23-2.87,35.35,10.99,67.92,30.63,32.48,19.69,63.51,41.94,60.71,46.1l-.92,1.45-.42.33c.09-.06.56-.64-.05-2.18-1.38-4.55-23.4-22.12-59.92-44.17-35.61-21.23-65.28-34.03-68.25-30.37l.94-1.79h0,0Zm135.33,66.7c2.68-5.29-26.19-27.03-61.97-48.2-36.61-20.75-63-32.96-67.81-29.32l-1.07,1.95c0,.11.04-.13.27-.31.88-.76,2.33-.71,2.98-.72,8.3.12,32,11.03,65.25,30.1,14.57,8.49,61.55,38.62,61.37,47.09.01.73.06.88-.21,1.24l1.2-1.82h0s0,0,0,0Z"/>
          <path class="cls-2" d="m268.76,207.45c-.07,0-.13-.03-.17-.09-.07-.09-.05-.23.04-.3h0s.44-.51-.12-1.93c-1.42-4.69-24.7-22.85-59.83-44.07-37.35-22.27-65.3-33.71-67.97-30.42-.07.09-.19.1-.28.04-.09-.06-.12-.18-.07-.28l.94-1.79s.04-.06.07-.08c4.44-3,35.64,11.02,68.15,30.62,29.24,17.73,59.55,38.95,60.93,45.22.1.47.05.87-.16,1.19l-.92,1.44s-.03.04-.05.05l-.42.33h0s0,0,0,0c-.04.03-.08.04-.12.04Zm-126.2-77.74c8.17,0,35.75,12.75,66.35,30.99,35.69,21.55,58.54,39.44,60.02,44.29.24.61.32,1.07.31,1.43l.69-1.08c.15-.22.18-.5.1-.86-1.34-6.09-32.29-27.7-60.74-44.95-31.71-19.12-63.24-33.41-67.64-30.66l-.54,1.03c.38-.13.86-.2,1.45-.2Zm133.06,67.74s-.09-.01-.12-.04c-.1-.07-.12-.2-.06-.29l.12-.18c.08-.15.07-.3.06-.67v-.26c.17-8.44-47.71-39.01-61.27-46.91-33.11-18.98-56.86-29.94-65.15-30.07h-.17c-.67,0-1.93.02-2.67.67-.12.09-.17.19-.2.24-.05.09-.18.16-.27.14-.1-.03-.16-.15-.15-.25,0-.03.01-.06.03-.08l1.07-1.95s.03-.05.06-.07c5.79-4.38,40.2,13.52,68.05,29.31,32.3,19.11,65.01,42.58,62.06,48.48,0,.01,0,.02-.02.03l-1.07,1.62c-.04.07-.08.13-.14.21-.04.06-.11.08-.17.08Zm-126.42-78.86c8.37.13,32.19,11.11,65.37,30.12,9.59,5.59,61.68,38.04,61.48,47.28v.18s.58-.87.58-.87c0,0,0,0,0,0,2.41-4.9-24.76-25.94-61.9-47.91-39.1-22.16-63.07-32.58-67.54-29.36l-.52.95c.81-.38,1.78-.39,2.36-.4h.17Z"/>
        </g>
      </g>
      <g>
        <g>
          <path class="cls-5" d="m165.44,168.26c0,12.2,5,23.24,13.09,31.31,8.11,8.08,19.13,13.18,31.36,13.18s23.44-4.99,31.51-13.04c8.08-8.05,13.08-19.16,13.08-31.41h0v-59.39l-89.05-.11v59.46h.01,0Z"/>
          <path class="cls-2" d="m209.89,213c-11.76,0-22.96-4.71-31.53-13.26-8.43-8.4-13.1-19.48-13.17-31.23h0v-59.96s89.55.11,89.55.11v59.64c0,11.91-4.67,23.13-13.16,31.59-8.48,8.46-19.74,13.12-31.69,13.12Zm-44.2-44.99v.25c0,11.71,4.63,22.76,13.02,31.13,8.48,8.45,19.56,13.11,31.18,13.11s22.95-4.61,31.33-12.97c8.35-8.32,12.96-19.34,13.01-31.05v-.18s0-59.14,0-59.14l-88.55-.11v58.96Z"/>
        </g>
        <g>
          <path class="cls-4" d="m167.11,168.34v.03c0,11.67,4.83,22.29,12.58,30.01,7.77,7.73,18.46,12.53,30.16,12.53s22.43-4.77,30.17-12.47c7.73-7.7,12.52-18.32,12.52-30.03h0v-57.62h-85.38s-.05,57.55-.05,57.55m68.27-40.31v36.67s-.03,3.88-.03,3.88h0c0,1.02-.06,2.18-.18,3.17-.69,5.8-3.36,10.85-7.31,14.78-4.62,4.6-11,7.46-18.04,7.46s-13.23-2.95-17.87-7.58c-4.76-4.74-7.52-11.24-7.52-17.96v-40.52s50.95.09,50.95.09h0s0,0,0,0Z"/>
          <path class="cls-2" d="m209.85,211.1c-11.38,0-22.14-4.47-30.29-12.59-8.15-8.11-12.64-18.82-12.64-30.14l.38-.03v.03c0,11.22,4.45,21.83,12.53,29.87,8.09,8.05,18.75,12.48,30.03,12.48s21.99-4.41,30.03-12.41c8-7.97,12.43-18.53,12.47-29.75v-.15s0-57.43,0-57.43h-85s-.05,57.36-.05,57.36h-.38l.05-57.75h85.76s0,57.82,0,57.82c0,11.38-4.47,22.09-12.58,30.17-8.11,8.08-18.87,12.53-30.3,12.53Zm-.03-16.93c-6.67,0-13.06-2.71-18.01-7.63-4.82-4.79-7.58-11.39-7.58-18.1v-40.71s.18,0,.18,0l51.03.09.11.11v.08s0,36.67,0,36.67l-.03,3.88c0,1.07-.07,2.23-.18,3.2-.67,5.62-3.22,10.77-7.36,14.89-4.87,4.84-11.32,7.51-18.17,7.51Zm-25.21-66.05v40.33c0,6.61,2.73,13.1,7.48,17.83,4.87,4.85,11.17,7.52,17.74,7.52s13.11-2.63,17.9-7.4c4.08-4.06,6.59-9.14,7.25-14.67.11-.95.18-2.1.18-3.15l.03-3.88v-36.48s-50.58-.09-50.58-.09Z"/>
        </g>
        <g id="castle3">
          <g id="castle">
            <path class="cls-3" d="m172.63,125.82c.1-4.14,3.04-5.12,3.06-5.14.02-.01,3.17,1.06,3.16,5.17l-6.22-.04"/>
            <g>
              <path class="cls-3" d="m170.1,120.77l-.51,4.76h3.11c.03-3.93,2.98-4.59,3.05-4.57.07,0,2.99.87,3.07,4.58h3.11l-.56-4.79-11.27.03h0s0,0,0,0Z"/>
              <path class="cls-2" d="m172.88,125.72h-3.5s.54-5.01.54-5.01l.04-.13,11.57-.03.61,5.17h-3.51v-.18c-.08-3.6-2.88-4.39-2.91-4.4,0,0-2.81.56-2.84,4.39v.19Zm6.12-.38h2.72l-.52-4.42h-4.96c.33.17.78.43,1.2.82.67.62,1.47,1.75,1.56,3.6Zm-9.2,0h2.71c.07-2.07.95-3.22,1.69-3.82.33-.27.68-.46.97-.58h-4.9s-.47,4.4-.47,4.4Z"/>
            </g>
            <g>
              <path class="cls-3" d="m169.38,125.54h12.71c.27,0,.49.26.49.59s-.22.59-.49.59h-12.71c-.27,0-.49-.26-.49-.59s.22-.59.49-.59Z"/>
              <path class="cls-2" d="m182.09,126.91h-12.71c-.37,0-.67-.35-.67-.77s.3-.78.67-.78h12.71c.37,0,.67.35.67.78s-.3.77-.67.77Zm-12.71-1.17c-.16,0-.3.18-.3.4s.14.4.3.4h12.71c.16,0,.3-.18.3-.4s-.14-.4-.3-.4h-12.71Z"/>
            </g>
            <g>
              <path class="cls-3" d="m174,125.52c.01-2.48,1.7-3.19,1.71-3.19,0,0,1.76.72,1.77,3.19h-3.48"/>
              <path class="cls-2" d="m177.66,125.71h-3.66v-.19h-.19c0-1.61.68-2.51,1.25-2.99,0,0,.51-.41.68-.38h0c.13,0,1.91.86,1.93,3.37v.19Zm-3.47-.38h3.09c-.08-1.91-1.27-2.63-1.58-2.79-.28.15-1.43.88-1.51,2.79Z"/>
            </g>
            <g>
              <path class="cls-3" d="m169.65,118.79h12.18c.26,0,.47.24.47.53s-.21.53-.47.53h-12.18c-.26,0-.47-.24-.47-.53s.21-.53.47-.53Z"/>
              <path class="cls-2" d="m181.83,120.03h-12.18c-.36,0-.65-.32-.65-.72s.29-.72.65-.72h12.18c.36,0,.65.32.65.72s-.29.72-.65.72Zm-12.18-1.06c-.15,0-.28.16-.28.34s.13.34.28.34h12.18c.15,0,.28-.16.28-.34s-.13-.34-.28-.34h-12.18Z"/>
            </g>
            <g>
              <path class="cls-3" d="m169.9,119.85h11.65c.25,0,.45.24.45.53s-.2.53-.45.53h-11.65c-.25,0-.45-.24-.45-.53s.2-.53.45-.53Z"/>
              <path class="cls-2" d="m181.56,121.1h-11.65c-.35,0-.63-.32-.63-.72s.28-.72.63-.72h11.65c.35,0,.63.32.63.72s-.28.72-.63.72Zm-11.65-1.06c-.14,0-.26.16-.26.34s.12.34.26.34h11.65c.14,0,.26-.16.26-.34s-.12-.34-.26-.34h-11.65Z"/>
            </g>
            <g>
              <path class="cls-3" d="m173.67,111.91h.92v.66h.67v-.67h.94v.67h.67v-.67h.94v1.51c0,.24-.19.39-.41.39h-3.31c-.22,0-.43-.18-.43-.39v-1.49s0,0,0,0h0Z"/>
              <path class="cls-2" d="m177.41,113.98h-3.31c-.33,0-.61-.27-.62-.58v-1.63s.19-.05.19-.05h1.11v.66h.3v-.67h1.32v.67h.3v-.67h1.32v1.7c0,.33-.26.58-.6.58Zm-3.55-1.89v1.3c0,.11.12.21.24.21h3.31c.11,0,.22-.06.22-.2v-1.32s-.57,0-.57,0v.67h-1.05v-.67h-.57s0,.67,0,.67h-1.05v-.65h-.55Z"/>
            </g>
            <g>
              <path class="cls-3" d="m177.13,113.93l.21,4.84h-3.23s.21-4.85.21-4.85h2.81"/>
              <path class="cls-2" d="m177.54,118.95h-3.62s.23-5.23.23-5.23h3.16s.22,5.23.22,5.23Zm-3.23-.39h2.84s-.19-4.45-.19-4.45h-2.45s-.2,4.45-.2,4.45Z"/>
            </g>
            <g id="cp1">
              <path class="cls-3" d="m173.2,116.17l.1,2.61h-3.09s.09-2.61.09-2.61h2.91,0,0Z"/>
              <path class="cls-2" d="m170.01,118.97l.1-2.98h3.27l.11,2.98h-3.48Zm.46-2.61l-.07,2.23h2.71s-.08-2.23-.08-2.23h-2.55Z"/>
            </g>
            <g id="cp1-2" data-name="cp1">
              <path class="cls-3" d="m181.15,116.17l.1,2.61h-3.09s.09-2.61.09-2.61h2.91,0,0Z"/>
              <path class="cls-2" d="m177.96,118.97l.1-2.98h3.27l.11,2.98h-3.48Zm.46-2.61l-.08,2.23h2.71s-.08-2.23-.08-2.23h-2.55Z"/>
            </g>
            <g id="cp2">
              <path class="cls-3" d="m169.72,114.28h.9v.66h.66v-.67h.92v.67h.66v-.67h.92s0,1.51,0,1.51c0,.24-.19.39-.4.39h-3.24c-.22,0-.42-.18-.42-.39v-1.49s0,0,0,0h0Z"/>
              <path class="cls-2" d="m173.37,116.35h-3.24c-.33,0-.61-.27-.61-.58v-1.59s.13-.09.13-.09h.06s1.09,0,1.09,0v.65h.28v-.67h1.3v.67h.28v-.67h1.3s0,1.7,0,1.7c0,.32-.26.58-.59.58Zm-3.47-1.89v1.3c0,.11.11.21.23.21h3.24c.1,0,.21-.06.21-.2v-1.32s-.55,0-.55,0v.67h-1.03v-.67h-.55s0,.67,0,.67h-1.03v-.65h-.53Z"/>
            </g>
            <g id="cp2-2" data-name="cp2">
              <path class="cls-3" d="m177.67,114.28h.9v.66h.66v-.67h.92v.67h.66v-.67h.92s0,1.51,0,1.51c0,.24-.19.39-.4.39h-3.24c-.22,0-.42-.18-.42-.39v-1.49s0,0,0,0h0Z"/>
              <path class="cls-2" d="m181.33,116.35h-3.24c-.33,0-.61-.27-.61-.58v-1.59s.13-.09.13-.09h.06s1.09,0,1.09,0v.65h.28v-.67h1.3v.67h.28v-.67h1.3s0,1.7,0,1.7c0,.32-.26.58-.59.58Zm-3.47-1.89v1.3c0,.11.11.21.23.21h3.24c.1,0,.21-.06.21-.2v-1.32s-.55,0-.55,0v.67h-1.03v-.67h-.55s0,.67,0,.67h-1.03v-.65h-.52Z"/>
            </g>
            <path class="cls-2" d="m175.42,115.46c-.02-.47.66-.48.65,0v1.15h-.65v-1.15"/>
            <g id="cp3">
              <path class="cls-2" d="m171.42,117.13c0-.45.63-.46.62,0v.89h-.62v-.89"/>
            </g>
            <g id="cp3-2" data-name="cp3">
              <path class="cls-2" d="m179.4,117.13c0-.45.63-.46.62,0v.89h-.62v-.89"/>
            </g>
          </g>
          <g id="castle-2" data-name="castle">
            <path class="cls-3" d="m172.63,160.56c.1-4.14,3.04-5.12,3.06-5.14.02-.01,3.17,1.06,3.16,5.17l-6.22-.04"/>
            <g>
              <path class="cls-3" d="m170.1,155.51l-.51,4.76h3.11c.03-3.93,2.98-4.59,3.05-4.57.07,0,2.99.87,3.07,4.58h3.11l-.56-4.79-11.27.03h0s0,0,0,0Z"/>
              <path class="cls-2" d="m172.88,160.46h-3.5s.54-5.01.54-5.01l.04-.13,11.57-.03.61,5.17h-3.51v-.18c-.08-3.6-2.88-4.39-2.91-4.4,0,0-2.81.56-2.84,4.39v.19Zm6.12-.38h2.72l-.52-4.42h-4.96c.33.17.78.43,1.2.82.67.62,1.47,1.75,1.56,3.6Zm-9.2,0h2.71c.07-2.07.95-3.22,1.69-3.82.33-.27.68-.46.97-.58h-4.9s-.47,4.4-.47,4.4Z"/>
            </g>
            <g>
              <path class="cls-3" d="m169.38,160.28h12.71c.27,0,.49.26.49.59s-.22.59-.49.59h-12.71c-.27,0-.49-.26-.49-.59s.22-.59.49-.59Z"/>
              <path class="cls-2" d="m182.09,161.65h-12.71c-.37,0-.67-.35-.67-.77s.3-.78.67-.78h12.71c.37,0,.67.35.67.78s-.3.77-.67.77Zm-12.71-1.17c-.16,0-.3.18-.3.4s.14.4.3.4h12.71c.16,0,.3-.18.3-.4s-.14-.4-.3-.4h-12.71Z"/>
            </g>
            <g>
              <path class="cls-3" d="m174,160.26c.01-2.48,1.7-3.19,1.71-3.19,0,0,1.76.72,1.77,3.19h-3.48"/>
              <path class="cls-2" d="m177.66,160.45h-3.66v-.19h-.19c0-1.61.68-2.51,1.25-2.99,0,0,.51-.41.68-.38h0c.13,0,1.91.86,1.93,3.37v.19Zm-3.47-.38h3.09c-.08-1.91-1.27-2.63-1.58-2.79-.28.15-1.43.88-1.51,2.79Z"/>
            </g>
            <g>
              <path class="cls-3" d="m169.65,153.53h12.18c.26,0,.47.24.47.53s-.21.53-.47.53h-12.18c-.26,0-.47-.24-.47-.53s.21-.53.47-.53Z"/>
              <path class="cls-2" d="m181.83,154.77h-12.18c-.36,0-.65-.32-.65-.72s.29-.72.65-.72h12.18c.36,0,.65.32.65.72s-.29.72-.65.72Zm-12.18-1.06c-.15,0-.28.16-.28.34s.13.34.28.34h12.18c.15,0,.28-.16.28-.34s-.13-.34-.28-.34h-12.18Z"/>
            </g>
            <g>
              <path class="cls-3" d="m169.9,154.59h11.65c.25,0,.45.24.45.53s-.2.53-.45.53h-11.65c-.25,0-.45-.24-.45-.53s.2-.53.45-.53Z"/>
              <path class="cls-2" d="m181.56,155.84h-11.65c-.35,0-.63-.32-.63-.72s.28-.72.63-.72h11.65c.35,0,.63.32.63.72s-.28.72-.63.72Zm-11.65-1.06c-.14,0-.26.16-.26.34s.12.34.26.34h11.65c.14,0,.26-.16.26-.34s-.12-.34-.26-.34h-11.65Z"/>
            </g>
            <g>
              <path class="cls-3" d="m173.67,146.65h.92v.66h.67v-.67h.94v.67h.67v-.67h.94v1.51c0,.24-.19.39-.41.39h-3.31c-.22,0-.43-.18-.43-.39v-1.49s0,0,0,0h0Z"/>
              <path class="cls-2" d="m177.41,148.72h-3.31c-.33,0-.61-.27-.62-.58v-1.63s.19-.05.19-.05h1.11v.66h.3v-.67h1.32v.67h.3v-.67h1.32v1.7c0,.33-.26.58-.6.58Zm-3.55-1.89v1.3c0,.11.12.21.24.21h3.31c.11,0,.22-.06.22-.2v-1.32s-.57,0-.57,0v.67h-1.05v-.67h-.57s0,.67,0,.67h-1.05v-.65h-.55Z"/>
            </g>
            <g>
              <path class="cls-3" d="m177.13,148.67l.21,4.84h-3.23s.21-4.85.21-4.85h2.81"/>
              <path class="cls-2" d="m177.54,153.69h-3.62s.23-5.23.23-5.23h3.16s.22,5.23.22,5.23Zm-3.23-.39h2.84s-.19-4.45-.19-4.45h-2.45s-.2,4.45-.2,4.45Z"/>
            </g>
            <g id="cp1-3" data-name="cp1">
              <path class="cls-3" d="m173.2,150.91l.1,2.61h-3.09s.09-2.61.09-2.61h2.91,0,0Z"/>
              <path class="cls-2" d="m170.01,153.71l.1-2.98h3.27l.11,2.98h-3.48Zm.46-2.61l-.07,2.23h2.71s-.08-2.23-.08-2.23h-2.55Z"/>
            </g>
            <g id="cp1-4" data-name="cp1">
              <path class="cls-3" d="m181.15,150.91l.1,2.61h-3.09s.09-2.61.09-2.61h2.91,0,0Z"/>
              <path class="cls-2" d="m177.96,153.71l.1-2.98h3.27l.11,2.98h-3.48Zm.46-2.61l-.08,2.23h2.71s-.08-2.23-.08-2.23h-2.55Z"/>
            </g>
            <g id="cp2-3" data-name="cp2">
              <path class="cls-3" d="m169.72,149.02h.9v.66h.66v-.67h.92v.67h.66v-.67h.92s0,1.51,0,1.51c0,.24-.19.39-.4.39h-3.24c-.22,0-.42-.18-.42-.39v-1.49s0,0,0,0h0Z"/>
              <path class="cls-2" d="m173.37,151.09h-3.24c-.33,0-.61-.27-.61-.58v-1.59s.13-.09.13-.09h.06s1.09,0,1.09,0v.65h.28v-.67h1.3v.67h.28v-.67h1.3s0,1.7,0,1.7c0,.32-.26.58-.59.58Zm-3.47-1.89v1.3c0,.11.11.21.23.21h3.24c.1,0,.21-.06.21-.2v-1.32s-.55,0-.55,0v.67h-1.03v-.67h-.55s0,.67,0,.67h-1.03v-.65h-.53Z"/>
            </g>
            <g id="cp2-4" data-name="cp2">
              <path class="cls-3" d="m177.67,149.02h.9v.66h.66v-.67h.92v.67h.66v-.67h.92s0,1.51,0,1.51c0,.24-.19.39-.4.39h-3.24c-.22,0-.42-.18-.42-.39v-1.49s0,0,0,0h0Z"/>
              <path class="cls-2" d="m181.33,151.09h-3.24c-.33,0-.61-.27-.61-.58v-1.59s.13-.09.13-.09h.06s1.09,0,1.09,0v.65h.28v-.67h1.3v.67h.28v-.67h1.3s0,1.7,0,1.7c0,.32-.26.58-.59.58Zm-3.47-1.89v1.3c0,.11.11.21.23.21h3.24c.1,0,.21-.06.21-.2v-1.32s-.55,0-.55,0v.67h-1.03v-.67h-.55s0,.67,0,.67h-1.03v-.65h-.52Z"/>
            </g>
            <path class="cls-2" d="m175.42,150.2c-.02-.47.66-.48.65,0v1.15h-.65v-1.15"/>
            <g id="cp3-3" data-name="cp3">
              <path class="cls-2" d="m171.42,151.87c0-.45.63-.46.62,0v.89h-.62v-.89"/>
            </g>
            <g id="cp3-4" data-name="cp3">
              <path class="cls-2" d="m179.4,151.87c0-.45.63-.46.62,0v.89h-.62v-.89"/>
            </g>
          </g>
          <g id="castle-3" data-name="castle">
            <path class="cls-3" d="m186.18,196.72c-2.87-2.99-1.49-5.76-1.49-5.79,0-.02,2.99-1.51,5.9,1.4l-4.41,4.39"/>
            <g>
              <path class="cls-3" d="m180.81,194.96l3.02,3.72,2.19-2.2c-2.77-2.8-1.16-5.35-1.1-5.39.04-.05,2.73-1.51,5.41,1.05l2.19-2.21-3.8-2.98-7.92,8.01h0s0,0,0,0Z"/>
              <path class="cls-2" d="m183.81,198.96l-3.27-4,8.17-8.27,4.1,3.21-2.47,2.49-.13-.13c-2.61-2.48-5.15-1.05-5.17-1.03h0s-1.58,2.39,1.12,5.11l.13.13-2.47,2.48Zm-2.75-3.98l2.78,3.42,1.92-1.92c-1.43-1.51-1.62-2.94-1.52-3.89.04-.43.15-.81.27-1.09l-3.44,3.48Zm5.8-4.53c.91,0,2.18.27,3.47,1.43l1.92-1.93-3.5-2.75-3.49,3.53c.34-.13.84-.26,1.41-.28.06,0,.13,0,.2,0Z"/>
            </g>
            <g>
              <path class="cls-3" d="m183.69,198.84l8.96-9.02c.19-.19.53-.16.76.07s.26.57.07.76l-8.96,9.02c-.19.19-.53.16-.76-.07s-.26-.57-.07-.76Z"/>
              <path class="cls-2" d="m184.21,199.98c-.2,0-.41-.08-.57-.25-.14-.14-.23-.32-.25-.51-.02-.2.04-.39.17-.52l8.95-9.02c.26-.26.72-.23,1.03.07.16.16.25.37.25.58,0,.17-.06.33-.18.45l-8.95,9.02c-.12.12-.28.18-.45.18Zm8.75-10.09c-.07,0-.14.02-.18.07l-8.95,9.02c-.05.05-.07.13-.07.22,0,.1.06.2.14.28.15.15.38.18.49.07l8.95-9.02c.06-.06.07-.13.07-.18,0-.11-.05-.22-.14-.31-.09-.09-.21-.14-.31-.14Z"/>
            </g>
            <g>
              <path class="cls-3" d="m186.93,195.54c-1.75-1.76-1.07-3.45-1.06-3.46,0,0,1.75-.74,3.51.99l-2.45,2.47"/>
              <path class="cls-2" d="m186.93,195.81l-.13-.13c-1.13-1.13-1.3-2.24-1.24-2.97,0-.11.06-.52.15-.7h0s.01-.02.03-.04c0-.01.02-.02.03-.03h0c.07-.04.21-.1.52-.15.66-.11,1.95-.11,3.23,1.15l.13.13-2.71,2.73Zm-.91-3.57c-.09.31-.38,1.64.91,3.04l2.18-2.19c-1.4-1.27-2.77-.95-3.09-.85Z"/>
            </g>
            <g>
              <path class="cls-3" d="m179.08,193.88l8.58-8.65c.18-.18.5-.16.7.04s.23.52.05.7l-8.58,8.65c-.18.18-.5.16-.7-.04s-.23-.52-.05-.7Z"/>
              <path class="cls-2" d="m179.52,194.94c-.19,0-.38-.08-.52-.22-.14-.14-.22-.33-.22-.52,0-.17.06-.33.18-.44l8.58-8.65c.11-.12.27-.18.44-.18h0c.19,0,.38.08.52.22.13.13.21.3.22.48.01.19-.05.36-.18.49l-8.59,8.65c-.11.12-.27.18-.44.18h0Zm8.46-9.64h0c-.05,0-.12.01-.18.07l-8.58,8.65c-.06.06-.07.13-.07.18,0,.09.04.19.11.26.07.07.17.11.26.11.05,0,.12-.01.18-.07l8.59-8.65s.07-.12.07-.2c0-.09-.05-.17-.11-.24-.07-.07-.17-.11-.26-.11Z"/>
            </g>
            <g>
              <path class="cls-3" d="m180.02,194.45l8.21-8.27c.17-.17.48-.15.69.06s.23.52.06.69l-8.21,8.27c-.17.17-.48.15-.69-.06s-.23-.51-.06-.69Z"/>
              <path class="cls-2" d="m180.48,195.5s-.04,0-.05,0c-.17-.01-.34-.09-.47-.22-.15-.14-.23-.34-.23-.53,0-.16.06-.31.17-.42l8.21-8.27c.25-.25.68-.22.95.05.28.28.31.71.06.95l-8.21,8.27c-.11.11-.26.17-.43.17Zm8.05-9.25c-.06,0-.12.02-.16.06l-8.21,8.27s-.06.11-.06.16c0,.09.04.19.12.26.07.07.15.11.24.12.04,0,.12,0,.18-.06l8.21-8.27c.1-.1.07-.29-.06-.42-.08-.08-.18-.12-.26-.12Z"/>
            </g>
            <g>
              <path class="cls-3" d="m177.04,186.19l.65-.65.46.46.47-.48-.47-.47.67-.67.47.47.47-.48-.47-.47.66-.67,1.07,1.06c.17.17.14.41-.01.57l-2.33,2.35c-.16.16-.43.18-.58.03l-1.06-1.05h0s0,0,0,0Z"/>
              <path class="cls-2" d="m178.36,187.53c-.15,0-.29-.05-.4-.16l-1.17-1.16.11-.16.78-.78.46.46.21-.21-.47-.47.93-.93.47.47.21-.21-.47-.47.93-.94,1.2,1.2c.12.12.18.27.17.43,0,.15-.07.29-.18.4l-2.33,2.35c-.12.12-.29.19-.45.19Zm-1.06-1.34l.93.92c.08.07.23.06.32-.02l2.33-2.35s.07-.1.07-.16c0-.05-.02-.1-.06-.15l-.94-.93-.4.4.47.47-.74.74-.47-.47-.4.4.47.47-.74.74-.46-.46-.39.39Z"/>
            </g>
            <g>
              <path class="cls-3" d="m180.91,185.15l3.58,3.26-2.28,2.28-3.28-3.56,1.99-1.98"/>
              <path class="cls-2" d="m182.2,190.96l-3.54-3.84,2.24-2.24,3.86,3.51-2.56,2.56Zm-3.02-3.83l3.03,3.29,2.01-2-3.3-3.01-1.73,1.73Z"/>
            </g>
            <g id="cp1-5" data-name="cp1">
              <path class="cls-3" d="m179.73,189.52l1.92,1.77-2.18,2.2-1.79-1.9,2.05-2.06h0s0,0,0,0Z"/>
              <path class="cls-2" d="m179.46,193.76l-2.05-2.17,2.3-2.32,2.2,2.02-2.45,2.47Zm-1.53-2.17l1.53,1.63,1.91-1.92-1.64-1.51-1.79,1.81Z"/>
            </g>
            <g id="cp1-6" data-name="cp1">
              <path class="cls-3" d="m185.33,183.88l1.92,1.77-2.18,2.2-1.79-1.9,2.05-2.06h0s0,0,0,0Z"/>
              <path class="cls-2" d="m185.07,188.11l-2.05-2.17,2.3-2.32,2.2,2.02-2.45,2.47Zm-1.53-2.17l1.53,1.63,1.91-1.92-1.64-1.51-1.79,1.81Z"/>
            </g>
            <g id="cp2-5" data-name="cp2">
              <path class="cls-3" d="m175.93,190.66l.64-.64.46.46.46-.47-.48-.47.65-.65.47.47.46-.47-.48-.47.65-.65,1.07,1.06c.17.17.14.41,0,.56l-2.28,2.3c-.15.15-.42.17-.58.02l-1.06-1.05h0s0,0,0,0Z"/>
              <path class="cls-2" d="m177.26,192c-.15,0-.29-.05-.4-.16l-1.14-1.12.04-.15.8-.81.46.46.2-.2-.48-.47.92-.92.47.47.2-.2-.48-.47.92-.92,1.2,1.2c.12.12.18.27.17.42,0,.15-.07.29-.18.4l-2.28,2.3c-.12.12-.28.18-.44.18Zm-1.06-1.34l.93.92c.08.08.22.07.31-.02l2.28-2.3s.07-.1.07-.15c0-.05-.02-.1-.06-.14l-.94-.93-.39.39.47.47-.73.73-.47-.47-.39.39.47.47-.73.73-.46-.46-.37.37Z"/>
            </g>
            <g id="cp2-6" data-name="cp2">
              <path class="cls-3" d="m181.54,185.01l.64-.64.46.46.46-.47-.48-.47.65-.65.47.47.46-.47-.48-.47.65-.65,1.07,1.06c.17.17.14.41,0,.56l-2.28,2.3c-.15.15-.42.17-.58.02l-1.06-1.05h0s0,0,0,0Z"/>
              <path class="cls-2" d="m182.87,186.36c-.15,0-.29-.05-.4-.16l-1.12-1.1v-.16l.82-.83.46.46.2-.2-.48-.47.92-.92.47.47.2-.2-.48-.47.92-.92,1.2,1.2c.23.23.23.59,0,.82l-2.28,2.3c-.12.12-.28.18-.44.18Zm-1.06-1.34l.93.92c.08.07.23.07.31-.02l2.28-2.3c.07-.07.11-.2,0-.29l-.94-.93-.39.39.47.47-.73.73-.47-.47-.39.39.47.47-.73.73-.46-.46-.37.37Z"/>
            </g>
            <path class="cls-2" d="m180.79,187.45c-.35-.32.13-.8.46-.46l.82.81-.46.46-.82-.81"/>
            <g id="cp3-5" data-name="cp3">
              <path class="cls-2" d="m179.16,191.46c-.32-.32.11-.77.44-.44l.63.63-.44.44-.63-.63"/>
            </g>
            <g id="cp3-6" data-name="cp3">
              <path class="cls-2" d="m184.78,185.8c-.32-.32.11-.77.44-.44l.63.63-.44.44-.63-.63"/>
            </g>
          </g>
        </g>
        <g id="castle-4" data-name="castle">
          <path class="cls-3" d="m206.92,125.82c.1-4.14,3.04-5.12,3.06-5.14.02-.01,3.17,1.06,3.16,5.17l-6.22-.04"/>
          <g>
            <path class="cls-3" d="m204.38,120.77l-.51,4.76h3.11c.03-3.93,2.98-4.59,3.05-4.57.07,0,2.99.87,3.07,4.58h3.11l-.56-4.79-11.27.03h0s0,0,0,0Z"/>
            <path class="cls-2" d="m207.16,125.72h-3.5s.53-5.14.53-5.14l11.62-.03.61,5.17h-3.51v-.18c-.08-3.6-2.88-4.39-2.91-4.4,0,0-2.81.56-2.84,4.39v.19Zm6.12-.38h2.72l-.52-4.42h-4.96c.33.17.78.43,1.2.82.67.62,1.47,1.75,1.56,3.6Zm-9.2,0h2.71c.07-2.07.95-3.22,1.69-3.82.33-.27.68-.46.97-.58h-4.9s-.47,4.4-.47,4.4Z"/>
          </g>
          <g>
            <path class="cls-3" d="m203.66,125.54h12.71c.27,0,.49.26.49.59s-.22.59-.49.59h-12.71c-.27,0-.49-.26-.49-.59s.22-.59.49-.59Z"/>
            <path class="cls-2" d="m216.37,126.91h-12.71c-.37,0-.67-.35-.67-.77s.3-.78.67-.78h12.71c.37,0,.67.35.67.78s-.3.77-.67.77Zm-12.71-1.17c-.16,0-.3.18-.3.4s.14.4.3.4h12.71c.16,0,.3-.18.3-.4s-.14-.4-.3-.4h-12.71Z"/>
          </g>
          <g>
            <path class="cls-3" d="m208.28,125.52c.01-2.48,1.7-3.19,1.71-3.19,0,0,1.76.72,1.77,3.19h-3.48"/>
            <path class="cls-2" d="m211.95,125.71h-3.66v-.19h-.19c0-1.61.68-2.51,1.25-2.99,0,0,.5-.41.68-.38h0c.13,0,1.91.86,1.93,3.37v.19Zm-3.47-.38h3.09c-.08-1.91-1.27-2.63-1.58-2.79-.28.15-1.43.88-1.51,2.79Z"/>
          </g>
          <g>
            <path class="cls-3" d="m203.93,118.79h12.18c.26,0,.47.24.47.53s-.21.53-.47.53h-12.18c-.26,0-.47-.24-.47-.53s.21-.53.47-.53Z"/>
            <path class="cls-2" d="m216.12,120.03h-12.18c-.36,0-.65-.32-.65-.72s.29-.72.65-.72h12.18c.36,0,.65.32.65.72s-.29.72-.65.72Zm-12.18-1.06c-.15,0-.28.16-.28.34s.13.34.28.34h12.18c.15,0,.28-.16.28-.34s-.13-.34-.28-.34h-12.18Z"/>
          </g>
          <g>
            <path class="cls-3" d="m204.19,119.85h11.65c.25,0,.45.24.45.53s-.2.53-.45.53h-11.65c-.25,0-.45-.24-.45-.53s.2-.53.45-.53Z"/>
            <path class="cls-2" d="m215.84,121.1h-11.65c-.35,0-.63-.32-.63-.72s.28-.72.63-.72h11.65c.35,0,.63.32.63.72s-.28.72-.63.72Zm-11.65-1.06c-.14,0-.26.16-.26.34s.12.34.26.34h11.65c.14,0,.26-.16.26-.34s-.12-.34-.26-.34h-11.65Z"/>
          </g>
          <g>
            <path class="cls-3" d="m207.95,111.91h.92v.66h.67v-.67h.94v.67h.67v-.67h.94v1.51c0,.24-.19.39-.41.39h-3.31c-.22,0-.43-.18-.43-.39v-1.49s0,0,0,0h0Z"/>
            <path class="cls-2" d="m211.69,113.98h-3.31c-.33,0-.61-.27-.62-.58v-1.63s.19-.05.19-.05h1.11v.66h.3v-.67h1.32v.67h.3v-.67h1.32v1.7c0,.33-.26.58-.6.58Zm-3.55-1.89v1.3c0,.11.12.21.24.21h3.31c.11,0,.22-.06.22-.2v-1.32s-.57,0-.57,0v.67h-1.05v-.67h-.57s0,.67,0,.67h-1.05v-.65h-.55Z"/>
          </g>
          <g>
            <path class="cls-3" d="m211.42,113.93l.21,4.84h-3.23s.21-4.85.21-4.85h2.81"/>
            <path class="cls-2" d="m211.82,118.95h-3.62s.23-5.23.23-5.23h3.17s.22,5.23.22,5.23Zm-3.23-.39h2.84s-.19-4.45-.19-4.45h-2.45s-.2,4.45-.2,4.45Z"/>
          </g>
          <g id="cp1-7" data-name="cp1">
            <path class="cls-3" d="m207.48,116.17l.1,2.61h-3.09s.09-2.61.09-2.61h2.91,0,0Z"/>
            <path class="cls-2" d="m204.29,118.97l.1-2.98h3.27l.11,2.98h-3.48Zm.46-2.61l-.07,2.23h2.71s-.08-2.23-.08-2.23h-2.55Z"/>
          </g>
          <g id="cp1-8" data-name="cp1">
            <path class="cls-3" d="m215.44,116.17l.1,2.61h-3.09s.09-2.61.09-2.61h2.91,0,0Z"/>
            <path class="cls-2" d="m212.25,118.97l.1-2.98h3.27l.11,2.98h-3.48Zm.46-2.61l-.08,2.23h2.71s-.08-2.23-.08-2.23h-2.55Z"/>
          </g>
          <g id="cp2-7" data-name="cp2">
            <path class="cls-3" d="m204,114.28h.9v.66h.66v-.67h.92v.67h.66v-.67h.92s0,1.51,0,1.51c0,.24-.19.39-.4.39h-3.24c-.22,0-.42-.18-.42-.39v-1.49s0,0,0,0h0Z"/>
            <path class="cls-2" d="m207.66,116.35h-3.24c-.33,0-.61-.27-.61-.58v-1.59s.13-.09.13-.09h.06s1.09,0,1.09,0v.65h.28v-.67h1.3v.67h.28v-.67h1.3s0,1.7,0,1.7c0,.32-.26.58-.59.58Zm-3.47-1.89v1.3c0,.11.11.21.23.21h3.24c.1,0,.21-.06.21-.2v-1.32s-.55,0-.55,0v.67h-1.03v-.67h-.55s0,.67,0,.67h-1.03v-.65h-.53Z"/>
          </g>
          <g id="cp2-8" data-name="cp2">
            <path class="cls-3" d="m211.96,114.28h.9v.66h.66v-.67h.92v.67h.66v-.67h.92s0,1.51,0,1.51c0,.24-.19.39-.4.39h-3.24c-.22,0-.42-.18-.42-.39v-1.49s0,0,0,0h0Z"/>
            <path class="cls-2" d="m215.62,116.35h-3.24c-.33,0-.61-.27-.61-.58v-1.59s.13-.09.13-.09h.06s1.09,0,1.09,0v.65h.28v-.67h1.3v.67h.28v-.67h1.3s0,1.7,0,1.7c0,.32-.26.58-.59.58Zm-3.47-1.89v1.3c0,.11.11.21.23.21h3.24c.1,0,.21-.06.21-.2v-1.32s-.55,0-.55,0v.67h-1.03v-.67h-.55s0,.67,0,.67h-1.03v-.65h-.53Z"/>
          </g>
          <path class="cls-2" d="m209.7,115.46c-.02-.47.66-.48.65,0v1.15h-.65v-1.15"/>
          <g id="cp3-7" data-name="cp3">
            <path class="cls-2" d="m205.7,117.13c0-.45.63-.46.62,0v.89h-.62v-.89"/>
          </g>
          <g id="cp3-8" data-name="cp3">
            <path class="cls-2" d="m213.69,117.13c0-.45.63-.46.62,0v.89h-.62v-.89"/>
          </g>
        </g>
        <g id="castle3-2" data-name="castle3">
          <g id="castle-5" data-name="castle">
            <path class="cls-3" d="m247.19,125.82c-.1-4.14-3.04-5.12-3.06-5.14-.02-.01-3.17,1.06-3.16,5.17l6.22-.04"/>
            <g>
              <path class="cls-3" d="m249.73,120.77l.51,4.76h-3.11c-.03-3.93-2.98-4.59-3.05-4.57-.07,0-2.99.87-3.07,4.58h-3.11l.56-4.79,11.27.03h0s0,0,0,0Z"/>
              <path class="cls-2" d="m246.95,125.72v-.19c-.03-3.83-2.85-4.39-2.87-4.39,0,0-2.8.8-2.87,4.39v.18h-3.51l.61-5.17,11.62.03v.17l.53,4.96h-3.5Zm-8.84-.38h2.72c.09-1.86.89-2.98,1.56-3.6.42-.39.87-.65,1.2-.81h-4.96s-.52,4.41-.52,4.41Zm6.55-4.4c.29.12.63.31.97.58.74.6,1.62,1.74,1.69,3.82h2.71s-.47-4.39-.47-4.39h-4.9Z"/>
            </g>
            <g>
              <path class="cls-3" d="m250.45,125.54h-12.71c-.27,0-.49.26-.49.59s.22.59.49.59h12.71c.27,0,.49-.26.49-.59s-.22-.59-.49-.59Z"/>
              <path class="cls-2" d="m250.45,126.91h-12.71c-.37,0-.67-.35-.67-.77s.3-.78.67-.78h12.71c.37,0,.67.35.67.78s-.3.77-.67.77Zm-12.71-1.17c-.16,0-.3.18-.3.4s.14.4.3.4h12.71c.16,0,.3-.18.3-.4s-.14-.4-.3-.4h-12.71Z"/>
            </g>
            <g>
              <path class="cls-3" d="m245.83,125.52c-.01-2.48-1.7-3.19-1.71-3.19,0,0-1.76.72-1.77,3.19h3.48"/>
              <path class="cls-2" d="m246.02,125.71h-3.85v-.19c.02-2.52,1.8-3.37,1.96-3.37.14-.02.64.38.65.38.56.47,1.24,1.38,1.25,2.99v.19Zm-3.47-.38h3.09c-.08-1.93-1.25-2.65-1.52-2.79-.24.12-1.48.83-1.57,2.79Z"/>
            </g>
            <g>
              <path class="cls-3" d="m250.18,118.79h-12.18c-.26,0-.47.24-.47.53s.21.53.47.53h12.18c.26,0,.47-.24.47-.53s-.21-.53-.47-.53Z"/>
              <path class="cls-2" d="m250.18,120.03h-12.18c-.36,0-.65-.32-.65-.72s.29-.72.65-.72h12.18c.36,0,.65.32.65.72s-.29.72-.65.72Zm-12.18-1.06c-.15,0-.28.16-.28.34s.13.34.28.34h12.18c.15,0,.28-.16.28-.34s-.13-.34-.28-.34h-12.18Z"/>
            </g>
            <g>
              <path class="cls-3" d="m249.92,119.85h-11.65c-.25,0-.45.24-.45.53s.2.53.45.53h11.65c.25,0,.45-.24.45-.53s-.2-.53-.45-.53Z"/>
              <path class="cls-2" d="m249.92,121.1h-11.65c-.35,0-.63-.32-.63-.72s.28-.72.63-.72h11.65c.35,0,.63.32.63.72s-.28.72-.63.72Zm-11.65-1.06c-.14,0-.26.16-.26.34s.12.34.26.34h11.65c.14,0,.26-.16.26-.34s-.12-.34-.26-.34h-11.65Z"/>
            </g>
            <g>
              <path class="cls-3" d="m246.16,111.91h-.92v.66h-.67v-.67h-.94v.67h-.67v-.67h-.94v1.51c0,.24.19.39.41.39h3.31c.22,0,.43-.18.43-.39v-1.49s0,0,0,0h0Z"/>
              <path class="cls-2" d="m245.73,113.98h-3.31c-.34,0-.6-.25-.6-.58v-1.7s1.32,0,1.32,0v.67h.3v-.66h1.32s0,.66,0,.66h.3v-.65h1.14s.16.05.16.05v1.63c0,.32-.29.58-.62.58Zm-3.53-1.9v1.32c0,.14.12.2.23.2h3.31c.12,0,.24-.1.24-.21v-1.3s-.54,0-.54,0v.65h-1.05v-.67h-.57v.67h-1.05v-.67h-.57Z"/>
            </g>
            <g>
              <path class="cls-3" d="m242.69,113.93l-.21,4.84h3.23s-.21-4.85-.21-4.85h-2.81"/>
              <path class="cls-2" d="m242.29,118.95l.22-5.21h3.16s.23,5.2.23,5.2h-3.62Zm.58-4.84l-.19,4.46h2.84s-.2-4.47-.2-4.47h-2.45Z"/>
            </g>
            <g id="cp1-9" data-name="cp1">
              <path class="cls-3" d="m246.63,116.17l-.1,2.61h3.09s-.09-2.61-.09-2.61h-2.91,0,0Z"/>
              <path class="cls-2" d="m249.82,118.97h-3.48s.11-2.98.11-2.98h3.27l.1,2.98Zm-3.09-.38h2.71s-.08-2.23-.08-2.23h-2.55l-.08,2.23Z"/>
            </g>
            <g id="cp1-10" data-name="cp1">
              <path class="cls-3" d="m238.67,116.17l-.1,2.61h3.09s-.09-2.61-.09-2.61h-2.91,0,0Z"/>
              <path class="cls-2" d="m241.86,118.97h-3.48s.11-2.98.11-2.98h3.27l.1,2.98Zm-3.09-.38h2.71s-.08-2.23-.08-2.23h-2.55l-.08,2.23Z"/>
            </g>
            <g id="cp2-9" data-name="cp2">
              <path class="cls-3" d="m250.11,114.28h-.9v.66h-.66v-.67h-.92v.67h-.66v-.67h-.92s0,1.51,0,1.51c0,.24.19.39.4.39h3.24c.22,0,.42-.18.42-.39v-1.49s0,0,0,0h0Z"/>
              <path class="cls-2" d="m249.69,116.35h-3.24c-.33,0-.59-.25-.59-.58v-1.7s1.3,0,1.3,0v.67h.28v-.67h1.3s0,.67,0,.67h.28v-.65h1.14s.13.09.13.09v1.59c0,.31-.28.58-.61.58Zm-3.45-1.9v1.32c0,.14.11.2.22.2h3.24c.12,0,.23-.1.23-.21v-1.3s-.52,0-.52,0v.65h-1.03v-.67h-.55v.67h-1.03v-.67h-.55Z"/>
            </g>
            <g id="cp2-10" data-name="cp2">
              <path class="cls-3" d="m242.15,114.28h-.9v.66h-.66v-.67h-.92v.67h-.66v-.67h-.92s0,1.51,0,1.51c0,.24.19.39.4.39h3.24c.22,0,.42-.18.42-.39v-1.49s0,0,0,0h0Z"/>
              <path class="cls-2" d="m241.73,116.35h-3.24c-.33,0-.59-.25-.59-.58v-1.7s1.3,0,1.3,0v.67h.28v-.67h1.3s0,.67,0,.67h.28v-.65h1.14s.13.09.13.09v1.59c0,.32-.28.58-.61.58Zm-3.45-1.9v1.32c0,.14.11.2.22.2h3.24c.12,0,.23-.1.23-.21v-1.3s-.52,0-.52,0v.65h-1.03v-.67h-.55v.67h-1.03v-.67h-.55Z"/>
            </g>
            <path class="cls-2" d="m244.41,115.46c.02-.47-.66-.48-.65,0v1.15h.65v-1.15"/>
            <g id="cp3-9" data-name="cp3">
              <path class="cls-2" d="m248.41,117.13c0-.45-.63-.46-.62,0v.89h.62v-.89"/>
            </g>
            <g id="cp3-10" data-name="cp3">
              <path class="cls-2" d="m240.43,117.13c0-.45-.63-.46-.62,0v.89h.62v-.89"/>
            </g>
          </g>
          <g id="castle-6" data-name="castle">
            <path class="cls-3" d="m247.19,160.56c-.1-4.14-3.04-5.12-3.06-5.14-.02-.01-3.17,1.06-3.16,5.17l6.22-.04"/>
            <g>
              <path class="cls-3" d="m249.73,155.51l.51,4.76h-3.11c-.03-3.93-2.98-4.59-3.05-4.57-.07,0-2.99.87-3.07,4.58h-3.11l.56-4.79,11.27.03h0s0,0,0,0Z"/>
              <path class="cls-2" d="m246.95,160.46v-.19c-.03-3.83-2.85-4.39-2.87-4.39,0,0-2.8.8-2.87,4.39v.18h-3.51l.61-5.17,11.62.03v.17l.53,4.96h-3.5Zm-8.84-.38h2.72c.09-1.86.89-2.98,1.56-3.6.42-.39.87-.65,1.2-.81h-4.96s-.52,4.41-.52,4.41Zm6.55-4.4c.29.12.63.31.97.58.74.6,1.62,1.74,1.69,3.82h2.71s-.47-4.39-.47-4.39h-4.9Z"/>
            </g>
            <g>
              <path class="cls-3" d="m250.45,160.28h-12.71c-.27,0-.49.26-.49.59s.22.59.49.59h12.71c.27,0,.49-.26.49-.59s-.22-.59-.49-.59Z"/>
              <path class="cls-2" d="m250.45,161.65h-12.71c-.37,0-.67-.35-.67-.77s.3-.78.67-.78h12.71c.37,0,.67.35.67.78s-.3.77-.67.77Zm-12.71-1.17c-.16,0-.3.18-.3.4s.14.4.3.4h12.71c.16,0,.3-.18.3-.4s-.14-.4-.3-.4h-12.71Z"/>
            </g>
            <g>
              <path class="cls-3" d="m245.83,160.26c-.01-2.48-1.7-3.19-1.71-3.19,0,0-1.76.72-1.77,3.19h3.48"/>
              <path class="cls-2" d="m246.02,160.45h-3.85v-.19c.02-2.52,1.8-3.37,1.96-3.37.14-.03.64.38.65.38.56.47,1.24,1.38,1.25,2.99v.19Zm-3.47-.38h3.09c-.08-1.93-1.25-2.65-1.52-2.79-.24.12-1.48.83-1.57,2.79Z"/>
            </g>
            <g>
              <path class="cls-3" d="m250.18,153.53h-12.18c-.26,0-.47.24-.47.53s.21.53.47.53h12.18c.26,0,.47-.24.47-.53s-.21-.53-.47-.53Z"/>
              <path class="cls-2" d="m250.18,154.77h-12.18c-.36,0-.65-.32-.65-.72s.29-.72.65-.72h12.18c.36,0,.65.32.65.72s-.29.72-.65.72Zm-12.18-1.06c-.15,0-.28.16-.28.34s.13.34.28.34h12.18c.15,0,.28-.15.28-.34s-.13-.34-.28-.34h-12.18Z"/>
            </g>
            <g>
              <path class="cls-3" d="m249.92,154.59h-11.65c-.25,0-.45.24-.45.53s.2.53.45.53h11.65c.25,0,.45-.24.45-.53s-.2-.53-.45-.53Z"/>
              <path class="cls-2" d="m249.92,155.84h-11.65c-.35,0-.63-.32-.63-.72s.28-.72.63-.72h11.65c.35,0,.63.32.63.72s-.28.72-.63.72Zm-11.65-1.06c-.14,0-.26.16-.26.34s.12.34.26.34h11.65c.14,0,.26-.16.26-.34s-.12-.34-.26-.34h-11.65Z"/>
            </g>
            <g>
              <path class="cls-3" d="m246.16,146.65h-.92v.66h-.67v-.67h-.94v.67h-.67v-.67h-.94v1.51c0,.24.19.39.41.39h3.31c.22,0,.43-.18.43-.39v-1.49s0,0,0,0h0Z"/>
              <path class="cls-2" d="m245.73,148.72h-3.31c-.34,0-.6-.25-.6-.58v-1.7s1.32,0,1.32,0v.67h.3v-.66h1.32s0,.66,0,.66h.3v-.65h1.14s.16.05.16.05v1.63c0,.32-.29.58-.62.58Zm-3.53-1.9v1.32c0,.14.12.2.23.2h3.31c.12,0,.24-.1.24-.21v-1.3s-.54,0-.54,0v.65h-1.05v-.67h-.57v.67h-1.05v-.67h-.57Z"/>
            </g>
            <g>
              <path class="cls-3" d="m242.69,148.67l-.21,4.84h3.23s-.21-4.85-.21-4.85h-2.81"/>
              <path class="cls-2" d="m242.29,153.69l.22-5.21h3.16s.23,5.2.23,5.2h-3.62Zm.58-4.84l-.19,4.46h2.84s-.2-4.47-.2-4.47h-2.45Z"/>
            </g>
            <g id="cp1-11" data-name="cp1">
              <path class="cls-3" d="m246.63,150.91l-.1,2.61h3.09s-.09-2.61-.09-2.61h-2.91,0,0Z"/>
              <path class="cls-2" d="m249.82,153.71h-3.48s.11-2.98.11-2.98h3.27l.1,2.98Zm-3.09-.38h2.71s-.08-2.23-.08-2.23h-2.55l-.08,2.23Z"/>
            </g>
            <g id="cp1-12" data-name="cp1">
              <path class="cls-3" d="m238.67,150.91l-.1,2.61h3.09s-.09-2.61-.09-2.61h-2.91,0,0Z"/>
              <path class="cls-2" d="m241.86,153.71h-3.48s.11-2.98.11-2.98h3.27l.1,2.98Zm-3.09-.38h2.71s-.08-2.23-.08-2.23h-2.55l-.08,2.23Z"/>
            </g>
            <g id="cp2-11" data-name="cp2">
              <path class="cls-3" d="m250.11,149.02h-.9v.66h-.66v-.67h-.92v.67h-.66v-.67h-.92s0,1.51,0,1.51c0,.24.19.39.4.39h3.24c.22,0,.42-.18.42-.39v-1.49s0,0,0,0h0Z"/>
              <path class="cls-2" d="m249.69,151.09h-3.24c-.33,0-.59-.25-.59-.58v-1.7s1.3,0,1.3,0v.67h.28v-.67h1.3s0,.67,0,.67h.28v-.65h1.14s.13.09.13.09v1.59c0,.31-.28.58-.61.58Zm-3.45-1.9v1.32c0,.14.11.2.22.2h3.24c.12,0,.23-.1.23-.21v-1.3s-.52,0-.52,0v.65h-1.03v-.67h-.55v.67h-1.03v-.67h-.55Z"/>
            </g>
            <g id="cp2-12" data-name="cp2">
              <path class="cls-3" d="m242.15,149.02h-.9v.66h-.66v-.67h-.92v.67h-.66v-.67h-.92s0,1.51,0,1.51c0,.24.19.39.4.39h3.24c.22,0,.42-.18.42-.39v-1.49s0,0,0,0h0Z"/>
              <path class="cls-2" d="m241.73,151.09h-3.24c-.33,0-.59-.25-.59-.58v-1.7s1.3,0,1.3,0v.67h.28v-.67h1.3s0,.67,0,.67h.28v-.65h1.14s.13.09.13.09v1.59c0,.32-.28.58-.61.58Zm-3.45-1.9v1.32c0,.14.11.2.22.2h3.24c.12,0,.23-.1.23-.21v-1.3s-.52,0-.52,0v.65h-1.03v-.67h-.55v.67h-1.03v-.67h-.55Z"/>
            </g>
            <path class="cls-2" d="m244.41,150.2c.02-.47-.66-.48-.65,0v1.15h.65v-1.15"/>
            <g id="cp3-11" data-name="cp3">
              <path class="cls-2" d="m248.41,151.87c0-.45-.63-.46-.62,0v.89h.62v-.89"/>
            </g>
            <g id="cp3-12" data-name="cp3">
              <path class="cls-2" d="m240.43,151.87c0-.45-.63-.46-.62,0v.89h.62v-.89"/>
            </g>
          </g>
          <g id="castle-7" data-name="castle">
            <path class="cls-3" d="m233.65,196.72c2.87-2.99,1.49-5.76,1.49-5.79,0-.02-2.99-1.51-5.9,1.4l4.41,4.39"/>
            <g>
              <path class="cls-3" d="m239.02,194.96l-3.02,3.72-2.19-2.2c2.77-2.8,1.16-5.35,1.1-5.39-.04-.05-2.73-1.51-5.41,1.05l-2.19-2.21,3.8-2.98,7.92,8.01h0s0,0,0,0Z"/>
              <path class="cls-2" d="m236.02,198.96l-2.47-2.48.13-.13c2.7-2.72,1.11-5.11,1.09-5.13h0s-2.54-1.42-5.14,1.06l-.13.13-2.47-2.49,4.1-3.21,8.2,8.3-.17.11-3.13,3.86Zm-1.94-2.48l1.92,1.92,2.78-3.42-3.44-3.48c.12.29.23.67.27,1.1.1.95-.1,2.38-1.52,3.89Zm-6.49-6.53l1.92,1.93c1.38-1.25,2.75-1.46,3.66-1.43.57.02,1.07.15,1.41.28l-3.49-3.53-3.5,2.75Z"/>
            </g>
            <g>
              <path class="cls-3" d="m236.14,198.84l-8.96-9.02c-.19-.19-.53-.16-.76.07s-.26.57-.07.76l8.96,9.02c.19.19.53.16.76-.07s.26-.57.07-.76Z"/>
              <path class="cls-2" d="m235.62,199.98c-.17,0-.33-.06-.45-.18l-8.95-9.02c-.11-.12-.18-.28-.18-.45,0-.21.09-.42.25-.58.3-.3.76-.33,1.03-.07l8.95,9.02c.13.13.19.32.17.52-.02.19-.11.37-.25.51-.16.16-.38.25-.57.25Zm-8.75-10.09c-.1,0-.22.05-.31.14-.09.09-.14.2-.14.31,0,.05.01.13.07.18l8.95,9.02c.11.12.34.08.49-.07.08-.08.13-.18.14-.28,0-.09-.02-.16-.07-.22l-8.95-9.02s-.11-.07-.18-.07Z"/>
            </g>
            <g>
              <path class="cls-3" d="m232.9,195.54c1.75-1.76,1.07-3.45,1.06-3.46,0,0-1.75-.74-3.51.99l2.45,2.47"/>
              <path class="cls-2" d="m232.9,195.81l-2.71-2.73.13-.13c1.28-1.26,2.58-1.27,3.23-1.15.31.05.45.11.52.15h0s.02.01.03.02c.02.02.03.03.03.04h0c.09.18.14.59.15.7.06.73-.11,1.84-1.24,2.97l-.13.13Zm-2.18-2.73l2.18,2.19c1.3-1.4,1.01-2.73.91-3.04-.33-.1-1.69-.42-3.09.85Z"/>
            </g>
            <g>
              <path class="cls-3" d="m240.74,193.88l-8.58-8.65c-.18-.18-.5-.16-.7.04s-.23.52-.05.7l8.58,8.65c.18.18.5.16.7-.04s.23-.52.05-.7Z"/>
              <path class="cls-2" d="m240.31,194.94h0c-.17,0-.33-.07-.44-.18l-8.58-8.65c-.13-.13-.19-.3-.18-.49.01-.18.09-.35.22-.48.14-.14.33-.22.52-.22h0c.17,0,.33.06.44.18l8.58,8.65c.25.26.23.69-.05.97-.14.14-.33.22-.52.22Zm-8.46-9.64c-.09,0-.19.04-.26.11-.07.07-.11.15-.11.24,0,.08.02.15.07.2l8.58,8.65c.06.06.12.08.18.07.09,0,.19-.04.26-.11.13-.13.15-.33.05-.44l-8.58-8.65c-.06-.06-.13-.07-.18-.07h0Z"/>
            </g>
            <g>
              <path class="cls-3" d="m239.81,194.45l-8.21-8.27c-.17-.17-.48-.15-.69.06s-.23.52-.06.69l8.21,8.27c.17.17.48.15.69-.06s.23-.51.06-.69Z"/>
              <path class="cls-2" d="m239.35,195.5c-.16,0-.32-.06-.43-.17l-8.21-8.27c-.12-.12-.18-.3-.17-.48.02-.17.1-.34.23-.47.13-.13.3-.21.47-.22.18-.01.36.05.48.17l8.21,8.27c.11.11.17.26.17.42,0,.19-.08.39-.23.53-.13.13-.3.21-.47.22-.02,0-.04,0-.05,0Zm-8.05-9.25s-.02,0-.02,0c-.08,0-.17.05-.24.12-.07.07-.11.15-.12.24,0,.04,0,.12.06.18l8.21,8.27c.06.06.14.06.18.06.09,0,.17-.05.24-.12.08-.07.12-.17.12-.26,0-.05-.01-.11-.06-.16l-8.21-8.27s-.1-.06-.16-.06Z"/>
            </g>
            <g>
              <path class="cls-3" d="m242.79,186.19l-.65-.65-.46.46-.47-.48.47-.47-.67-.67-.47.47-.47-.48.47-.47-.66-.67-1.07,1.06c-.17.17-.14.41.01.57l2.33,2.35c.16.16.43.18.58.03l1.06-1.05h0s0,0,0,0Z"/>
              <path class="cls-2" d="m241.46,187.53c-.16,0-.32-.06-.45-.19l-2.33-2.35c-.11-.11-.18-.25-.18-.4,0-.16.05-.31.17-.43l1.2-1.2.93.94-.47.47.21.21.47-.47.93.93-.47.47.21.21.46-.46.81.81.09.13-1.17,1.16c-.11.11-.25.16-.4.16Zm-1.59-4.03l-.94.93s-.06.09-.06.15c0,.06.03.11.07.16l2.33,2.35c.09.09.24.1.32.02l.93-.92-.39-.39-.46.46-.74-.74.47-.47-.4-.4-.47.47-.74-.74.47-.47-.4-.4Z"/>
            </g>
            <g>
              <path class="cls-3" d="m238.92,185.15l-3.58,3.26,2.28,2.28,3.28-3.56-1.99-1.98"/>
              <path class="cls-2" d="m237.62,190.96l-2.56-2.56,3.86-3.51,2.24,2.24-3.54,3.84Zm-2.02-2.55l2.01,2,3.03-3.29-1.73-1.73-3.3,3.01Z"/>
            </g>
            <g id="cp1-13" data-name="cp1">
              <path class="cls-3" d="m240.1,189.52l-1.92,1.77,2.18,2.2,1.79-1.9-2.05-2.06h0s0,0,0,0Z"/>
              <path class="cls-2" d="m240.36,193.76l-2.45-2.47,2.2-2.02,2.3,2.32-2.05,2.17Zm-1.91-2.46l1.91,1.92,1.53-1.63-1.79-1.81-1.64,1.51Z"/>
            </g>
            <g id="cp1-14" data-name="cp1">
              <path class="cls-3" d="m234.49,183.88l-1.92,1.77,2.18,2.2,1.79-1.9-2.05-2.06h0s0,0,0,0Z"/>
              <path class="cls-2" d="m234.76,188.11l-2.45-2.47,2.2-2.02,2.3,2.32-2.05,2.17Zm-1.91-2.46l1.91,1.92,1.53-1.63-1.79-1.81-1.64,1.51Z"/>
            </g>
            <g id="cp2-13" data-name="cp2">
              <path class="cls-3" d="m243.89,190.66l-.64-.64-.46.46-.46-.47.48-.47-.65-.65-.47.47-.46-.47.48-.47-.65-.65-1.07,1.06c-.17.17-.14.41,0,.56l2.28,2.3c.15.15.42.17.58.02l1.06-1.05h0s0,0,0,0Z"/>
              <path class="cls-2" d="m242.56,192c-.16,0-.32-.06-.44-.18l-2.28-2.3c-.11-.11-.17-.25-.18-.4,0-.16.05-.31.17-.42l1.2-1.2.92.92-.48.47.2.2.47-.47.92.92-.48.47.2.2.46-.46.85.85-.08.18-1.06,1.05c-.11.11-.25.16-.4.16Zm-1.52-3.97l-.94.93s-.06.09-.06.14c0,.05.03.11.07.15l2.28,2.3c.09.09.23.09.31.02l.93-.92-.37-.37-.46.46-.73-.73.47-.47-.39-.39-.47.47-.73-.73.47-.47-.39-.39Z"/>
            </g>
            <g id="cp2-14" data-name="cp2">
              <path class="cls-3" d="m238.29,185.01l-.64-.64-.46.46-.46-.47.48-.47-.65-.65-.47.47-.46-.47.48-.47-.65-.65-1.07,1.06c-.17.17-.14.41,0,.56l2.28,2.3c.15.15.42.17.58.02l1.06-1.05h0s0,0,0,0Z"/>
              <path class="cls-2" d="m236.96,186.36c-.16,0-.32-.06-.44-.18l-2.28-2.3c-.24-.24-.24-.59,0-.82l1.2-1.2.92.92-.48.47.2.2.47-.47.92.92-.48.47.2.2.46-.46.82.82v.16l-1.12,1.1c-.11.11-.25.16-.4.16Zm-1.52-3.97l-.94.93c-.1.1-.06.22,0,.29l2.28,2.3c.08.08.24.09.31.02l.93-.92-.37-.37-.46.46-.73-.73.47-.47-.39-.39-.47.47-.73-.73.47-.47-.39-.39Z"/>
            </g>
            <path class="cls-2" d="m239.04,187.45c.35-.32-.13-.8-.46-.46l-.82.81.46.46.82-.81"/>
            <g id="cp3-13" data-name="cp3">
              <path class="cls-2" d="m240.67,191.46c.32-.32-.11-.77-.44-.44l-.63.63.44.44.63-.63"/>
            </g>
            <g id="cp3-14" data-name="cp3">
              <path class="cls-2" d="m235.05,185.8c.32-.32-.11-.77-.44-.44l-.63.63.44.44.63-.63"/>
            </g>
          </g>
        </g>
        <g id="quina">
          <path class="cls-7" d="m204.47,161.8h0c0,1.66.64,3.17,1.66,4.27,1.02,1.1,2.43,1.78,3.98,1.78s2.96-.68,3.98-1.77c1.02-1.09,1.65-2.6,1.65-4.27v-8.08h-11.24s-.02,8.07-.02,8.07"/>
          <circle class="cls-5" cx="207.05" cy="156.8" r="1.11"/>
          <circle class="cls-5" cx="213.29" cy="156.81" r="1.11"/>
          <circle class="cls-5" cx="210.16" cy="159.8" r="1.11"/>
          <circle class="cls-5" cx="207.05" cy="162.94" r="1.11"/>
          <circle class="cls-5" cx="213.28" cy="162.93" r="1.11"/>
        </g>
        <g id="quina-2" data-name="quina">
          <path class="cls-7" d="m204.47,142.29h0c0,1.66.64,3.17,1.66,4.27,1.02,1.1,2.43,1.78,3.98,1.78s2.96-.68,3.98-1.77c1.02-1.09,1.65-2.6,1.65-4.27v-8.08h-11.24s-.02,8.07-.02,8.07"/>
          <circle class="cls-5" cx="207.05" cy="137.29" r="1.11"/>
          <circle class="cls-5" cx="213.29" cy="137.29" r="1.11"/>
          <circle class="cls-5" cx="210.16" cy="140.29" r="1.11"/>
          <circle class="cls-5" cx="207.05" cy="143.42" r="1.11"/>
          <circle class="cls-5" cx="213.28" cy="143.42" r="1.11"/>
        </g>
        <g id="quina-3" data-name="quina">
          <path class="cls-7" d="m188.87,161.8h0c0,1.66.64,3.17,1.66,4.27,1.02,1.1,2.43,1.78,3.98,1.78s2.96-.68,3.98-1.77c1.02-1.09,1.65-2.6,1.65-4.27v-8.08h-11.24s-.02,8.07-.02,8.07"/>
          <circle class="cls-5" cx="191.45" cy="156.8" r="1.11"/>
          <circle class="cls-5" cx="197.69" cy="156.81" r="1.11"/>
          <circle class="cls-5" cx="194.56" cy="159.8" r="1.11"/>
          <circle class="cls-5" cx="191.45" cy="162.94" r="1.11"/>
          <circle class="cls-5" cx="197.68" cy="162.93" r="1.11"/>
        </g>
        <g id="quina-4" data-name="quina">
          <path class="cls-7" d="m220.03,161.8h0c0,1.66.64,3.17,1.66,4.27,1.02,1.1,2.43,1.78,3.98,1.78s2.96-.68,3.98-1.77c1.02-1.09,1.65-2.6,1.65-4.27v-8.08h-11.24s-.02,8.07-.02,8.07"/>
          <circle class="cls-5" cx="222.61" cy="156.8" r="1.11"/>
          <circle class="cls-5" cx="228.84" cy="156.81" r="1.11"/>
          <circle class="cls-5" cx="225.72" cy="159.8" r="1.11"/>
          <circle class="cls-5" cx="222.61" cy="162.94" r="1.11"/>
          <circle class="cls-5" cx="228.84" cy="162.93" r="1.11"/>
        </g>
        <g id="quina-5" data-name="quina">
          <path class="cls-7" d="m204.47,181.14h0c0,1.66.64,3.17,1.66,4.27,1.02,1.1,2.43,1.78,3.98,1.78s2.96-.68,3.98-1.77c1.02-1.09,1.65-2.6,1.65-4.27v-8.08h-11.24s-.02,8.07-.02,8.07"/>
          <circle class="cls-5" cx="207.05" cy="176.14" r="1.11"/>
          <circle class="cls-5" cx="213.29" cy="176.14" r="1.11"/>
          <circle class="cls-5" cx="210.16" cy="179.14" r="1.11"/>
          <circle class="cls-5" cx="207.05" cy="182.27" r="1.11"/>
          <circle class="cls-5" cx="213.28" cy="182.27" r="1.11"/>
        </g>
      </g>
    </g>
  </g>
</svg>