<?xml version="1.0" encoding="UTF-8"?>
<svg id="Layer_2" data-name="Layer 2" xmlns="http://www.w3.org/2000/svg" viewBox="0 0 520 320">
  <defs>
    <style>
      .cls-1 {
        fill: #a3ab78;
      }

      .cls-1, .cls-2, .cls-3 {
        stroke-width: 0px;
      }

      .cls-2 {
        fill: #71193e;
      }

      .cls-3 {
        fill: #fff;
      }
    </style>
  </defs>
  <g id="_500x300_Background" data-name="500x300 Background">
    <rect class="cls-1" width="520" height="320" rx="10" ry="10"/>
  </g>
  <g id="Qatar">
    <g>
      <polygon class="cls-2" points="152.85 10 188.62 26.69 152.85 43.39 188.62 59.96 152.85 76.65 188.62 93.35 152.85 110.04 188.62 126.61 152.85 143.31 188.62 160 152.85 176.69 188.62 193.39 152.85 209.96 188.62 226.65 152.85 243.35 188.62 260.04 152.85 276.61 188.62 293.31 152.85 310 510 310 510 10 152.85 10"/>
      <polygon class="cls-3" points="152.85 276.61 188.62 260.04 152.85 243.35 188.62 226.65 152.85 209.96 188.62 193.39 152.85 176.69 188.62 160 152.85 143.31 188.62 126.61 152.85 110.04 188.62 93.35 152.85 76.65 188.62 59.96 152.85 43.39 188.62 26.69 152.85 10 10 10 10 310 152.85 310 188.62 293.31 152.85 276.61"/>
    </g>
  </g>
</svg>