<?xml version="1.0" encoding="UTF-8"?>
<svg id="Layer_2" data-name="Layer 2" xmlns="http://www.w3.org/2000/svg" viewBox="0 0 520 320">
  <defs>
    <style>
      .cls-1 {
        fill: #a3ab78;
      }

      .cls-1, .cls-2, .cls-3, .cls-4, .cls-5 {
        stroke-width: 0px;
      }

      .cls-2 {
        fill: #e5be01;
      }

      .cls-3 {
        fill: #20603d;
      }

      .cls-4 {
        fill: #fad201;
      }

      .cls-5 {
        fill: #00a1de;
      }
    </style>
  </defs>
  <g id="_500x300_Background" data-name="500x300 Background">
    <rect class="cls-1" width="520" height="320" rx="10" ry="10"/>
  </g>
  <g id="Rwanda">
    <g>
      <rect class="cls-5" x="10" y="10" width="500" height="150"/>
      <rect class="cls-4" x="10" y="160" width="500" height="75"/>
      <rect class="cls-3" x="10" y="235" width="500" height="75"/>
    </g>
    <g>
      <polygon class="cls-2" points="435.29 90.33 468.8 88.38 435.29 86.42 467.15 75.86 434.28 82.64 462.32 64.19 432.32 79.25 454.62 54.17 429.55 76.48 444.61 46.48 426.16 74.52 432.94 41.65 422.38 73.51 420.42 40 418.46 73.51 407.9 41.65 414.68 74.52 396.24 46.48 411.29 76.48 386.21 54.17 408.53 79.25 378.53 64.19 406.56 82.64 373.7 75.86 405.55 86.42 372.05 88.38 405.55 90.33 373.7 100.9 406.56 94.12 378.53 112.56 408.53 97.51 386.21 122.58 411.29 100.27 396.24 130.27 414.68 102.23 407.9 135.1 418.46 103.25 420.42 136.75 422.38 103.25 432.94 135.1 426.16 102.23 444.61 130.27 429.55 100.27 454.62 122.58 432.32 97.51 462.32 112.56 434.28 94.12 467.15 100.9 435.29 90.33"/>
      <path class="cls-5" d="m420.42,73.38c-8.27,0-15,6.73-15,15s6.73,15,15,15,15-6.73,15-15-6.73-15-15-15Zm0,28.58c-7.48,0-13.58-6.1-13.58-13.59s6.1-13.58,13.58-13.58,13.59,6.09,13.59,13.58-6.09,13.59-13.59,13.59Z"/>
    </g>
  </g>
</svg>