<?xml version="1.0" encoding="UTF-8"?>
<svg id="Layer_2" data-name="Layer 2" xmlns="http://www.w3.org/2000/svg" viewBox="0 0 520 320">
  <defs>
    <style>
      .cls-1 {
        fill: #a3ab78;
      }

      .cls-1, .cls-2, .cls-3, .cls-4 {
        stroke-width: 0px;
      }

      .cls-2 {
        fill: #105594;
      }

      .cls-3 {
        fill: #fff;
      }

      .cls-4 {
        fill: #c83a48;
      }
    </style>
  </defs>
  <g id="_500x300_Background" data-name="500x300 Background">
    <rect class="cls-1" width="520" height="320" rx="10" ry="10"/>
  </g>
  <g id="Samoa">
    <g>
      <polygon class="cls-4" points="260 10 260 160 10 160 10 310 510 310 510 10 260 10"/>
      <rect class="cls-2" x="10" y="10" width="250" height="150"/>
    </g>
    <g>
      <polygon class="cls-3" points="139.95 129.26 135.04 114.07 130.04 129.26 114.21 129.26 127.08 138.61 122.17 153.7 135.04 144.35 147.91 153.7 143 138.61 155.87 129.26 139.95 129.26"/>
      <polygon class="cls-3" points="100.75 65.65 96.86 53.7 92.88 65.65 80.1 65.65 90.47 73.06 86.49 85 96.86 77.59 107.14 85 103.16 73.06 113.53 65.65 100.75 65.65"/>
      <polygon class="cls-3" points="189.72 58.61 177.77 58.61 174.07 47.5 170.37 58.61 158.42 58.61 168.14 65.46 164.44 76.67 174.07 69.72 183.7 76.67 180 65.46 189.72 58.61"/>
      <polygon class="cls-3" points="124.67 47.5 135.04 40.09 145.32 47.5 141.33 35.56 151.71 28.15 138.93 28.15 135.04 16.2 131.06 28.15 118.37 28.15 128.65 35.56 124.67 47.5"/>
      <polygon class="cls-3" points="156.58 93.61 154.08 86.02 151.68 93.61 143.71 93.61 150.1 98.24 147.69 105.83 154.08 101.11 160.57 105.83 158.07 98.24 164.55 93.61 156.58 93.61"/>
    </g>
  </g>
</svg>