<?xml version="1.0" encoding="UTF-8"?>
<svg id="Layer_2" data-name="Layer 2" xmlns="http://www.w3.org/2000/svg" viewBox="0 0 520 320">
  <defs>
    <style>
      .cls-1 {
        fill: #a3ab78;
      }

      .cls-1, .cls-2, .cls-3 {
        stroke-width: 0px;
      }

      .cls-2 {
        fill: #fff;
      }

      .cls-3 {
        fill: #006c35;
      }
    </style>
  </defs>
  <g id="_500x300_Background" data-name="500x300 Background">
    <rect class="cls-1" width="520" height="320" rx="10" ry="10"/>
  </g>
  <g id="Saudi_Arabia" data-name="Saudi Arabia">
    <g>
      <polygon class="cls-3" points="459.65 10 105.38 10 10 10 10 310 105.38 310 459.65 310 510 310 510 10 459.65 10"/>
      <g>
        <path class="cls-2" d="m289.95,107.34c2.47,1.17,7.11.66,6.92-3.32,0-.35-.1-1.53-.13-1.85-.25-.59-.72-.81-1.16-.73-.45.08-.88.46-1.03,1.07-.1.4.19,1.04-.17,1.24-.2.21-1.01.09-.98-1.01,0-.35-.26-.73-.41-.96-.16-.1-.26-.13-.54-.13-.34.01-.34.11-.53.4-.08.3-.18.59-.18.92-.04.39-.18.52-.47.58-.32,0-.26.03-.53-.13-.15-.17-.34-.24-.34-.53s-.08-.78-.17-.98c-.14-.18-.35-.26-.6-.32-1.35,0-1.43,1.54-1.35,2.12-.11.11-.17,2.87,1.67,3.64Z"/>
        <path class="cls-2" d="m268.66,92.84c4.14,5.56,8.12,11.15,11.96,16.93.61,4.3,1.05,8.49,1.33,12.68.62,9.17.81,20.59.24,30.25,1.72.07,4.47-2.78,5.44-6.93.63-5.76-.22-17.51-.28-20.9-.04-1.41-.13-3.09-.22-4.86,4.47,7.3,8.81,15.05,13.07,23.55,1.55-.74,1.21-9.48.3-10.71-3.41-7.34-8.12-14.58-9.62-17.36-.54-1.01-2.39-3.81-4.57-7.05-.4-4.62-.84-8.53-1.12-9.71-.71-4.88,2.01.55,1.63-2.29-.88-4.88-3.57-8.19-6.75-12.66-1.02-1.45-1-1.75-2.59.36-.94,2.14-.93,3.93-.65,5.61-.42-.61-.93-1.32-1.67-2.21-2.74-2.36-2.92-2.49-5.19-4.41-.72-.51-2.09-1.29-3.13-1.2h0c-.63.06-1.13.42-1.31,1.35-.25,2.18-.12,3.36.24,5.17.28,1.19,2.03,3.22,2.9,4.39Zm8.76-.33c.11.47.21.94.28,1.43.24,1.04.44,2.07.66,3.09-.91-1.25-1.66-2.26-1.99-2.63-2.07-2.45.04-1.61,1.04-1.89Z"/>
        <path class="cls-2" d="m269.79,156.63c0,.09.96.92,2.1.26,2.4-.92,3.89-1.8,7.24-2.53.88-.02.83-2.38-.56-2.45-1.81.09-3.49.18-5.31,1.61-1.12.26-1.31-.42-1.56-1.03-.28-1.51.64-2.58.45-3.71.05.05-.56-.5-1.35-.54-.26-.01-.54.03-.82.17-.05,0-2.52,1.67-3.32,2.83-.49.37-.43.69-.28,1.33.38.87,1.04.59,1.8.18,1-.14,1.49.52,1.41,1.72-.46,1.5.21,2.07.21,2.16Z"/>
        <path class="cls-2" d="m291.61,91.91c.88,2.47-.67,4.82.24,5.15.84.38,2.01-2.55,2.45-5.25.51-2.18-1.05-6.67-3.26-7.59-.17-.04-.34-.05-.53-.05h0c-1.27-.04-2.67.76-2.12,2.34-.32.86,2.72,3.8,3.21,5.4Z"/>
        <path class="cls-2" d="m207.59,141.83c.73.3,1.76-2.01,2.14-4.16.21-1.18-.92-5.31-2.85-6.04-.3-.07-.61-.1-.92-.07-.93.07-1.76.56-1.39,1.87-.06.95,2.63,2.11,2.79,4.32.38.91-.57,3.81.22,4.08Z"/>
        <path class="cls-2" d="m242.78,90.33c1.42-3.83,1.43-5.46,1.52-7.09-.22-1.24-.76-1.83-1.37-1.78h0c-.61.05-1.29.77-1.84,2.14-.48,1.04-1.05,6.51-.96,6.51-.38,1.63,1.7,2.32,2.65.22Z"/>
        <path class="cls-2" d="m247.77,120.01c2.47,1.17,8.35.48,6.92-3.32,0-.35-.1-1.54-.13-1.85-.25-.59-.72-.8-1.16-.73-.45.08-.88.44-1.03,1.05-.1.4.19,1.06-.17,1.25-.2.2-1.01.09-.98-1.01,0-.35-.26-.73-.42-.96-.16-.11-.24-.13-.53-.13-.34.01-.36.11-.54.4-.08.3-.18.59-.18.92-.04.39-.18.52-.47.58-.32,0-.24.03-.51-.13-.15-.17-.36-.24-.36-.53s-.06-.78-.15-.98c-.14-.18-.37-.26-.62-.32-1.35,0-1.43,1.54-1.35,2.12-.09.12-.16,2.88,1.68,3.64Z"/>
        <path class="cls-2" d="m301.46,145.79c-3.97,4.14-9.69,9.25-15.92,11.61-.67.75,1.67,3.96,4.68,3.96,5.05-.59,9.5-3.42,13.61-10.89,1.1-1.74,3.04-5.47,3.09-8.36.39-16.95-.85-30.13-3.39-42.37-.16-1.19-.05-2.61.15-2.96.33-.39,1.44,0,2.03-.96.86-.88-2.31-8.2-4.1-11.01-.36-.71-.58-1.27-.9-1.24h0c-.24.03-.55.41-1.01,1.39-1.12,1.82-1.87,4.99-1.78,7.97,2.41,16.69,3.15,31.3,4.72,47.98.13,1.61-.11,3.95-1.18,4.89Z"/>
        <path class="cls-2" d="m227.97,89.44c.8-.59,1.08-.97,1.35-1.97.34-1.67-1.76.79-2.03-1.07-.47-1.73.87-2.43,2.14-4.1.03-.79.05-1.43-.47-1.45-.23,0-.58.13-1.07.42-1.1.73-3.27,3-3.34,5.61-.07,1.47-.34,1.46.62,2.4.69,1,1.39.9,2.79.16Z"/>
        <path class="cls-2" d="m281.1,132.74l.02-.02s.02-.01.02-.02l.02-.02v-.04s0-.12-.02-.18l-1.09-.64-21.43-.09c-.26-.1-.46-.2-.58-.3l-.04-.04s-.01-.01-.02-.02c0,0-.01-.01-.02-.02,0,0-.01-.03-.02-.04,0,0-.01-.02-.02-.02v-.02l-.02-.02v-.16s.01-.01.02-.02c0-.01.01-.03.02-.04.11-.14.36-.28.67-.4,5.12-.7,14.21-2.18,14.81-10.93-.09-4.55-1.95-7.54-7.54-8.36-4.1.32-7.03,4.29-6.57,8.66-.2,1.17.4,3.49-.8,3.75-7.88.72-16.48,5.65-16.76,9.18h-.02l-.02.02s-.03.01-.04.02h-.04s-.05.01-.06.02h-.12s-.06-.01-.07-.02c-.51-.15-1.17-.99-1.07-2.18-.3-6.1-2.29-13.02-5.4-18.34-1.11-1.11-1.6-1.56-1.91-1.61h-.15s-.07.04-.09.05c-.01,0-.04.03-.06.04-.24.18-.53.6-1.16,1.05-1.08,1.22-1.27,2.07-1.2,4.52.06.26,2.04,5.75,3.71,9.62,1.13,4.02,2.17,8.61,1.41,12.96-2.65,5.74-7.96,10.89-13.08,13.68-2.61.84-4.87.55-5.48-.02l-.02-.02c-1.5-1.01-1.54-2.8-1.45-3.11v-.02l.02-.02c4.33-3.02,9.27-5.46,13.14-13.59,1.14-3.11,1.49-4.98.36-9.79-.44-1.79-.99-3.27-2.21-4.54l.02-.02c.74-.35,2.65,1.06,2.94.17-.46-2.3-2.01-5.38-3.77-6.95-1.54-1.4-3.22-1.56-4.63-.28-1.59.88-1.93,4.06-1.16,6.84.85,2.09,3.15,2.46,4.78,6.68v.02c.03.26.56,3.15-.26,4.32-.67,2.09-9.26,8.85-9.86,9.26,0,0-.05.03-.05.04l-.02.02-.02.02-.02.02h-.04s-.01-.01-.02-.02v-.02s-.01-.03-.02-.04c-.03-.17.02-.6,0-1.29-.05-1.27.47-4.14.43-4.63v-.02l-.02-.02v-.02h-.02c-2.84,1.83-3.77,7.45-4.3,9.11-7.19,4.96-15.35,8.66-20.05,13.68-2.45,3.82,16.87-4.39,19.11-5.38.02.01.04.04.06.05.43.47.46,2.1,1.74,3.58,2.01,2.72,6.28,4.39,10.43,3.36,6.96-2.51,10.97-7.26,15.06-12.52.58-.85,1.5-1.52,2.34-.86,2.8,6.28,10.9,10.75,21.36,11.21,2.42-2.94,1.26-4.39.28-5.01-.3-.2-5.2-2.11-5.96-4.01-.48-1.77.69-3.34,3.02-4.52,6.72-.81,13.32-1.72,19.71-3.77.07-2.14,1.33-5.36,2.18-6.75.6-.94.98-1.03,1.12-1.17Zm-17.68-13.45c.01-.07.04-.13.07-.18.01-.02.02-.05.04-.07l.02-.02.09-.09c.14-.11.33-.18.54-.2.47-.05,1.08.11,1.67.45.85.49,1.38,1.24,1.31,1.78v.05s-.03.04-.04.06c0,.01-.01.04-.02.05,0,0-.01.03-.02.04,0,0-.01.03-.02.04-.03.05-.07.09-.11.13-.41.38-1.36.33-2.25-.18-.84-.49-1.37-1.24-1.31-1.78.01-.03.03-.05.03-.07Zm-8.56,21.46c-2.3.79-4.51,1.4-4.52,4.72.3,1.65.24,2.51-.02,2.9-.02.03-.05.07-.07.09,0,0-.01.01-.02.02,0,0-.01.01-.02.02l-.02.02-.02.02s-.03.01-.04.02c-.03.02-.07.05-.11.05-.03.01-.08.01-.11.02-.55.08-1.34-.44-1.93-.75-1.42-1.02-5.4-3.48-5.96-8.78-.08-1.19.81-2.22,2.25-2.32.07,0,.13,0,.2,0h.04c2.39.65,5.91.72,8.96,1.03,2.5.16,3.73,2.1,1.4,2.93Z"/>
        <path class="cls-2" d="m357.2,98.95c.4,1.23-.61,5.22.22,5.59.77.42,1.85-2.75,2.25-5.68.22-1.6-.96-7.23-2.98-8.23-.15-.04-.32-.07-.49-.07-1.15-.04-2.41.84-1.91,2.55-.28.94,2.47,4.11,2.91,5.85Z"/>
        <path class="cls-2" d="m311.84,138.95c.06-.26.05-.24,0,0h0Z"/>
        <path class="cls-2" d="m314.36,149.65c1.72.01,3.71-3.93,4.56-7.84.46-5.38-.31-8.65-.45-11.81s-3.58-28.81-4.28-31.2c-.84-4.52,3.35-.59,2.89-3.23-1.45-3.32-5.05-8.14-6.19-11.03-.42-.77-.48-1.48-.82-1.43h0c-.21.03-.51.36-1.09,1.11-1.41,4.61-1.91,8.39-1.37,11.25,3.62,18.92,7.34,36.16,6.74,54.17Z"/>
        <path class="cls-2" d="m336.18,117.5h0c-.06-.01-.13,0-.2.02,0,0-11.43,8.14-11.72,8.42-1.13,1.01-.57,4.55,0,4.14.82.32,12.33-7.49,12.11-8.4.49.03.73-4.02-.19-4.18Z"/>
        <path class="cls-2" d="m334.55,139.55c.77.41,2.79-2.08,2.72-5.19.22-1.6-.57-7.51-2.59-8.51-.23-.07-.49-.09-.73-.06h0c-1.06.13-2.06,1.13-1.6,2.72-.29.94,1.43,4.2,1.87,5.95.4,1.23-.51,4.73.32,5.1Z"/>
        <path class="cls-2" d="m328.12,94.73c3.35,4.11,6.76,8.49,10.2,13.05.72,9.31.92,17.84,1.65,27.17-.11,3.99-1.33,9.28-2.49,9.79,0,0-1.77,1.02-2.96-.11-.86-.34-4.32-5.75-4.32-5.75-1.77-1.62-2.94-1.15-4.2,0-3.46,3.35-5.03,9.61-7.39,13.93-.61.96-2.32,1.78-4.22-.07-3.91-5.34-2.8-12.51-2.56-13.77-.01.05-.03.12-.05.19-4.3,4.85-2.4,12.88-1.43,14.61,1.42,2.84,2.57,4.65,5.32,6.06,2.51,1.85,4.47.69,5.55-.6,2.53-2.62,2.56-9.32,3.75-10.65.83-2.43,2.92-2.02,3.94-.94.99,1.42,2.15,2.34,3.6,3.11,2.36,2.08,5.17,2.46,7.95.56,1.9-1.06,3.13-2.45,4.24-5.17,1.19-3.19.6-19.89.34-29.18,1.78,2.51,3.54,5.07,5.29,7.67.77,8.16,1.12,16.19.86,23.89-.18,1.53,5.34-4.57,5.31-7.46-.03-2.53,0-4.82,0-6.95,2.68,4.28,5.27,8.63,7.73,13.03,1.52-.8,1-9.41.04-10.6-2.57-4.31-5.85-8.96-8.4-12.56-.5-4.55-1.19-9.91-1.5-11.55-.49-2.56-.97-6.41-1.71-9.45-.2-1.19-.8-4.98-.62-5.34.3-.84,1.43.03,1.99-.96.83-.91-2.89-10.56-4.78-13.32-.68-1.23-1.91-.8-3.43,1.2-1.41,1.32-.9,4.34-.36,7.2,1.4,7.3,2.65,14.74,3.64,22.16-1.83-2.72-4.06-6.01-6.26-9.18-.06-.3-.28-1.43-.28-1.45,0-.13-.3-5.98-.56-7.37-.05-.57-.18-.73.42-.66.63.53.71.55,1.11.73.63.12,1.19-.96.8-1.95-1.96-3.62-3.93-7.26-5.89-10.87-.24-.23-.5-.48-.8-.53-.3-.05-.64.11-1.02.65-.71.63-1.48,1.77-1.46,3.23.17,2.57.63,5.21.8,7.78.06.34.13.69.18,1.03-.28-.35-.51-.63-.66-.77-5.01-5.27,2.3-.86-.96-4.93-2.76-3.03-3.56-3.99-5.93-5.81-1.18-.77-1.9-2.23-2.29.26-.16,2.18-.32,4.72-.17,6.57.01,1.03,1.08,2.96,1.99,4.1Z"/>
        <path class="cls-2" d="m329.74,117.59c.05-2.32.27-5.41.4-7.33.05-.73.22-1.52.92-1.71.69-.18,1.9.7,1.91-.05-.13-1.48-.42-3.66-1.26-4.68-.43-.63-1.13-.98-1.85-1.01-1.21-.06-2.5.73-2.83,2.38,0,.98.44,1.51.36,2.4-.13.51-.65.84-1.89.24.19-.18-.8-1.59-.8-1.59-.97-.59-2.27.03-3.11.58-.46.84-.8,2.29-.28,3.77,1.4,2.57,6.18,6.96,8.46,7Z"/>
        <path class="cls-2" d="m153.22,115.64c7.21.69,3.23-12.18,5.83-14.52.49-1.15,1.41-1.17,1.48.28v10.93c-.07,3.56,2.27,4.61,4.08,5.34,1.89-.15,3.14-.09,3.88,1.74.3,6.3.61,12.62.9,18.92,0,0,4.37,1.25,4.57-10.63.21-6.98-1.39-12.83-.45-14.19.03-1.33,1.74-1.4,2.92-.75,1.88,1.33,2.72,2.96,5.64,2.3,4.45-1.23,7.13-3.38,7.2-6.8-.26-3.25-.63-6.5-2.05-9.75.2-.59-.85-2.13-.66-2.72.8,1.25,2.01,1.15,2.29,0-.76-2.49-1.94-4.89-3.85-5.93-1.58-1.39-3.88-1.1-4.72,1.8-.39,3.33,1.21,7.29,3.64,10.52.51,1.26,1.24,3.36.92,5.25-1.29.74-2.57.43-3.66-.71,0,0-3.54-2.65-3.54-3.25.94-6.02.2-6.71-.32-8.38-.36-2.31-1.46-3.04-2.34-4.61-.88-.94-2.09-.94-2.67,0-1.56,2.71-.83,8.54.3,11.16.82,2.4,2.07,3.9,1.48,3.9-.49,1.36-1.5,1.04-2.23-.53-1.04-3.24-1.25-8.06-1.25-10.24-.31-2.7-.66-8.46-2.43-9.92-.48-.65-1.03-.87-1.58-.8-.7.08-1.35.65-1.67,1.41-.12,2.68-.13,5.35.17,7.82,1.22,4.33,1.6,8.13,2.2,12.56.16,5.93-3.42,2.57-3.26-.38.83-3.82.61-9.84-.13-11.36-.59-1.52-1.26-1.9-2.68-1.65-1.13-.07-4.04,3.11-4.86,8.36,0,0-.68,2.7-.98,5.1-.4,2.71-2.2,4.64-3.45-.38-1.08-3.64-1.75-12.62-3.56-10.52-.5,7.02-1.12,19.35,4.84,20.61Z"/>
        <path class="cls-2" d="m164.05,120.77c-5.93.11-14.6,7.77-14.83,12.02,6.26-3,12.39-5.89,18.75-9-1.02-1.53-.06-2.91-3.92-3.02Z"/>
        <path class="cls-2" d="m196.75,143.77c2.57-8.54-.05-15,.8-15.79,0,0,.03-.01.04-.02,0,0,.03-.01.04-.02,0,0,.03-.01.04-.02.03,0,.08-.02.11-.02,3.17,3.41,7.61.44,8.58-.75.42-.59,1.46-.97,2.2-.2,2.47,1.77,6.8.94,7.71-2.19.52-3.06.96-6.22,1.07-9.49-1.61.5-2.91.87-3.43,1.43-.13.14-.22.29-.24.45-.14.9-.27,1.81-.42,2.72-.01.07-.04.15-.07.2-.07.11-.18.21-.3.28-.57.31-1.56.13-1.61-.69-.77-3.48-3.92-3.93-5.83,1.46-1.29,1.04-3.64,1.25-3.88-.32.31-3.62-1.15-4.1-4.07-2.4-.94-7.17-1.87-14.01-2.81-21.19,1.22-.03,2.34.85,3.45-.54-1.21-3.75-3.75-11.38-5.19-12.09l-.04-.02c-.07-.08-.15-.15-.2-.2-.03-.02-.07-.05-.09-.07s-.07-.04-.09-.06c-.06-.03-.13-.06-.18-.07-.13-.04-.26-.05-.4-.04h0c-.36.05-.75.25-1.22.36-1.53.49-2.96,1.81-2.51,4.39,1.81,11,2.99,19.39,4.8,30.39.28,1.29-.8,2.99-2.2,2.81-2.37-1.6-2.96-4.84-6.99-4.7-2.92.03-6.26,3.21-6.68,6.28-.49,2.43-.66,5.07,0,7.2,2.05,2.47,4.51,2.21,6.68,1.65,1.77-.73,3.23-2.48,3.86-2.07h.02v.02c.39.67-.04,6.4-8.36,10.82-5.11,2.3-9.19,2.84-11.38-1.33-1.36-2.61.1-12.56-3.25-10.25-9.88,25.48,23.16,29.04,26.85,1.05.24-.79.97-1.58,1.48-1.39.22.1.44.4.51.98-.77,25.34-25.56,27.08-29.78,19.11-1.04-1.88-1.36-6.06-1.46-8.57-.19-1.52-.57-2.39-1.01-2.74-1-.75-2.36,1.21-2.65,4.63-.42,2.75-.3,3.5-.3,6.15,1.33,20.01,33.24,11.42,38.42-5.12Zm-12.33-17.32v.02s-.01.03-.02.04c-.25.32-1.12.18-1.74.18-.75-.03-1.12-.16-1.58-.77-.22-.68.44-1.35.73-1.85,0,0,.01-.01.02-.02.03-.05.09-.11.13-.15.22-.2.61-.4,1.03-.45.08-.01.16-.02.24-.02.58,0,1.19.29,1.52,1.11.3.74.01,1.52-.34,1.91Z"/>
        <path class="cls-2" d="m152.56,152.21c-1.56,3.17-2.2,1-2.34-.77-.24-3.35.09-6.44.45-8.89.19-1.25.18-1.69.04-1.69h0c-.15,0-.45.45-.84.96-3.52,5.62-3.84,14-1.89,16.5,1.04,1.18,2.74,1.7,3.99,1.33,2.22-.96,3.19-5.44,2.66-7.09-.74-1.16-1.32-1.35-2.06-.36Z"/>
        <path class="cls-2" d="m336.8,222.6c-1.47.22-5.6.64-5.6.64-4.78-.57-8.29-.63-13.67-.82.49-.63,1.37-3.18.3-4.1-.28-.23-.7-.36-1.27-.32h-.06s-.01-.02-.02-.02c-.01,0-.04,0-.06-.02-.03-.02-.07-.06-.09-.09,0,0-.03-.03-.04-.04-.27-.4-.42-1.37-.6-1.61l-.02-.02s-.01-.02-.02-.02c0,0-.03-.01-.04-.02h-.04s-.01.01-.02.02c-3.56.91-3.44,4.61-1.16,6.22-37.56,0-95.19-.64-107.55-.64-6.92,0-28.8-.82-29.21-.82,4.69,6.86,11.49,8.26,20.38,8.4,16.68,0,93.97-.2,115.97-.2-1.56,2.78.14,7.24,1.37,8.06.03.02.07.04.09.06.05.02.11.05.15.05.01,0,.04,0,.06,0,1.46.34,2.1-.71,2.59-1.48,2.36.21,15.66.4,16.88-.02,0,0,.01-.02.02-.02.82,1.21,1.64,2.36,3.21,2.16,2.74-.59,4.9-.88,4.97-6.45,0,0-.28-9.48-6.5-8.89Zm-2.69,10.16s-.07.03-.09.04c-.02,0-.05,0-.07,0s-.05,0-.08,0c-1.78-.05-2.81-.09-4.59-.13,0-.09-.01-.18-.04-.26-.42-1.25-3.48-1.17-4.2-.18-.01.01-.03.04-.04.06s-.03.05-.04.07c-.01.03-.03.07-.04.09-.01.04-.01.09-.02.13,0,.05-.03.11-.02.15-2.4.29-4.57-.08-6.97-.16-.71-.88-.63-2.47.2-2.85h.02c5.48.27,10.63.05,16.11.32.88.73.44,2.42-.13,2.73Z"/>
        <path class="cls-2" d="m352.59,156.03c-.47-.53-1.52-.21-2.23-.3-.34,0-1.45-.16-.92-1.14.44-.61.6-.98.9-1.72.33-.73.04-1.23-1.16-1.63-.61-.11-1.04-.15-1.48-.13h0c-.45.01-.91.07-1.6.13-.73.16-.99.48-1.13,1.37.05,1.35.88,1.29,1.73,1.82.49.62.8,1.19-.04,2.21-.8.73-1.37,1.14-2.18,1.87-.38.65-.61,1.64.54,1.95,2.14.6,7.09-2.61,7.09-2.68.81-.6.54-1.74.48-1.74Z"/>
        <path class="cls-2" d="m175.42,89.37c2.47,1.17,7.1.68,6.9-3.3,0-.35-.08-1.54-.11-1.85-.25-.59-.72-.8-1.16-.73h0c-.45.08-.88.44-1.03,1.05-.1.4.17,1.06-.18,1.25-.2.2-.99.07-.96-1.03,0-.35-.26-.71-.41-.94-.16-.11-.26-.13-.54-.13-.34.01-.34.11-.53.4-.09.29-.19.58-.19.92-.05.39-.2.52-.49.58-.32,0-.24.03-.51-.13-.15-.17-.34-.24-.34-.53s-.08-.78-.17-.98c-.14-.18-.35-.27-.6-.34-1.35,0-1.45,1.56-1.37,2.14-.11.11-.16,2.86,1.68,3.62Z"/>
        <path class="cls-2" d="m199.63,103.75h.02s.01.02.02.02h.02l.02.02c.47.32,6.24.31,6.88.02,0,0,.01-.02.02-.02h.02v-.02c1.99-.73,11.4-11.49,11.4-11.49-.49-.42-.94-.73-1.43-1.14-.52-.46-.47-.9,0-1.35,2.33-1.36,1.59-4.34.38-5.7-1.01-.46-1.96-.61-2.81-.56-.85.05-1.6.29-2.25.62-1.64,1.56-2.02,4.08-.73,5.64,1.25.59,2.51,1.85,1.67,2.55-3.54,3.79-12.77,10.12-13.24,11.27,0,0-.02.03-.02.04v.06s.01.03.02.04c0,0,0,.01,0,.01Zm13.97-16.87s.07-.01.11-.02c.57-.06,1.27.47,1.61,1.22.36.8.18,1.56-.41,1.71-.59.15-1.36-.38-1.72-1.18-.37-.8-.18-1.58.41-1.73Z"/>
        <path class="cls-2" d="m226.63,110.06c2.88,1.19,4.71-4.29,5.89-10.29.8-1.68,1.43-1.88,1.84-1.01-.11,7.98.57,9.77,2.63,12.19,4.58,3.53,8.37.45,8.66.15l3.56-3.56c.79-.84,1.84-.88,2.96-.15,1.09.99.95,2.7,3.28,3.88,1.96.79,6.16.19,7.13-1.5,1.31-2.24,1.62-3.02,2.23-3.86.93-1.24,2.53-.69,2.53-.3-.15.69-1.09,1.38-.45,2.63,1.11.83,1.37.3,2.03.11,2.32-1.11,4.07-6.15,4.07-6.15.11-1.88-.97-1.74-1.65-1.35-.89.55-.94.73-1.83,1.27-1.13.17-3.34.92-4.43-.77-1.12-2.03-1.12-4.86-1.97-6.9,0-.15-1.48-3.21-.11-3.41.69.13,2.18.51,2.41-.73.73-1.21-1.57-4.66-3.13-6.39-1.36-1.49-3.23-1.67-5.04-.15-1.27,1.17-1.08,2.47-1.33,3.71-.32,1.42-.26,3.18,1.18,5.06,1.27,2.5,3.57,5.71,2.81,10.24,0,0-1.34,2.16-3.7,1.87-.98-.21-2.58-.64-3.43-6.92-.65-4.75.16-11.42-1.85-14.53-.46-1.17-.84-2.32-1.5-2.23-.39.05-.87.55-1.54,1.76-.48,1.27-2.53,3.18-1.05,7.13,1.21,2.5,1.72,6.57,1.16,11.1-.84,1.29-1.04,1.74-2.14,3.02-1.55,1.67-3.23,1.24-4.52.62-1.21-.81-2.15-1.23-2.7-3.81.1-4.11.34-10.83-.42-12.26-1.11-2.21-2.93-1.42-3.71-.75-3.75,3.43-5.6,9.22-6.73,13.82-1.04,3.35-2.14,2.38-2.92,1.03-1.89-1.77-2.03-15.65-4.32-13.37-3.67,10.45,2.1,21.91,6.09,20.8Z"/>
        <path class="cls-2" d="m367.95,99.55c-.16-1.19-.69-3.93-.49-4.3.33-.84,1.98.09,2.57-.88.86-.88-4.28-7.46-6.08-10.27-.36-.71-.58-1.29-.9-1.25-.25.03-.55.43-1.01,1.41-1.12,1.82-1.5,5.09-1.05,7.97,2.68,18.12,4.67,35.67,5.08,51.73-.23,1.52-.3,2.34-1.01,4.26-1.58,2.03-3.33,4.57-4.97,5.79-1.64,1.23-5.14,2.4-6.28,3.3-3.63,2.1-3.64,4.51-.71,4.59,5.05-.59,11.03-1,15.15-7.22,1.1-1.74,2.4-6.47,2.45-9.36.38-16.94-.22-33.52-2.76-45.77Z"/>
        <path class="cls-2" d="m155.63,89.21c.38.94-.38,3.98.41,4.26.73.31,1.72-2.1,2.1-4.33.21-1.22.05-5.4-2.79-6.26-.15-.03-.3-.05-.45-.05-1.09-.03-2.29.65-1.82,1.95-.26.71,2.13,3.11,2.55,4.43Z"/>
        <path class="cls-2" d="m212.7,102.25c-.3-.03-.71.08-1.16.36-2.18,1.18-3.03,4.68-1.67,6.73,1.27,1.81,3.28,1.14,3.54,1.14,2.14.27,3.41-4.01,3.41-4.01,0,0,.07-1.2-2.47,1.07-1.07.2-1.21-.18-1.48-.79-.22-1.12-.18-2.24.34-3.36.24-.66,0-1.09-.5-1.14Z"/>
      </g>
      <path class="cls-3" d="m318.14,229.7h-.02c-.83.38-.91,1.97-.2,2.85,2.4.09,4.57.46,6.97.16,0-.05.01-.11.02-.15,0-.04,0-.09.02-.13,0-.03.03-.07.04-.09,0-.02.03-.05.04-.07,0-.01.03-.04.04-.06.72-.98,3.77-1.06,4.2.18.03.08.03.17.04.26,1.78.05,2.81.09,4.59.13.02,0,.05,0,.08,0,.02,0,.05,0,.07,0,.03,0,.07-.03.09-.04.57-.31,1-2,.13-2.74-5.48-.26-10.63-.05-16.11-.31Z"/>
      <path class="cls-3" d="m214.91,89.79c.59-.15.78-.91.41-1.71-.34-.75-1.04-1.28-1.61-1.22-.04,0-.07,0-.11.02-.59.15-.78.93-.42,1.72.37.8,1.13,1.33,1.73,1.19Z"/>
      <path class="cls-3" d="m183.25,123.43c-.08,0-.16,0-.24.02-.42.05-.8.24-1.03.45-.05.05-.1.11-.13.15,0,0-.01.01-.02.02-.29.51-.95,1.17-.73,1.85.45.61.82.73,1.58.77.62,0,1.5.13,1.74-.18,0,0,.01-.03.02-.04v-.02c.35-.39.63-1.17.34-1.91-.32-.81-.94-1.09-1.52-1.1Z"/>
      <path class="cls-3" d="m278.36,97.02c-.22-1.02-.42-2.05-.66-3.09-.07-.48-.18-.96-.28-1.43-1,.29-3.11-.55-1.05,1.89.33.36,1.08,1.38,1.99,2.63Z"/>
      <path class="cls-3" d="m253.47,137.82c-3.06-.32-6.58-.38-8.96-1.03h-.04c-.07,0-.13,0-.2,0-1.44.1-2.33,1.13-2.25,2.32.57,5.29,4.55,7.76,5.96,8.78.59.31,1.39.83,1.93.75.03,0,.08,0,.11-.02.04-.01.08-.03.11-.05,0,0,.03-.01.04-.02l.02-.02.02-.02s.01-.01.02-.02l.02-.02s.05-.07.07-.09c.26-.4.32-1.26.02-2.9.01-3.33,2.22-3.94,4.52-4.72,2.32-.82,1.09-2.77-1.4-2.93Z"/>
      <path class="cls-3" d="m264.72,121.12c.89.51,1.84.57,2.25.18.04-.04.09-.09.11-.13,0,0,.01-.03.02-.04,0,0,.01-.03.02-.04s.01-.05.02-.05c0-.01.03-.04.04-.06v-.05c.07-.54-.46-1.29-1.31-1.78-.59-.34-1.2-.5-1.67-.45-.22.03-.41.1-.54.2-.03.03-.07.07-.09.09,0,0-.01.01-.02.02-.01.02-.03.05-.04.07-.03.06-.06.12-.07.18,0,.01-.01.04-.02.05-.07.55.46,1.31,1.31,1.79Z"/>
    </g>
  </g>
</svg>