<?xml version="1.0" encoding="UTF-8"?>
<svg id="Layer_2" data-name="Layer 2" xmlns="http://www.w3.org/2000/svg" viewBox="0 0 520 320">
  <defs>
    <style>
      .cls-1 {
        fill: #fefefe;
      }

      .cls-1, .cls-2, .cls-3 {
        stroke-width: 0px;
      }

      .cls-2 {
        fill: #a3ab78;
      }

      .cls-3 {
        fill: #005eb7;
      }
    </style>
  </defs>
  <g id="_500x300_Background" data-name="500x300 Background">
    <rect class="cls-2" width="520" height="320" rx="10" ry="10"/>
  </g>
  <g id="Scotland">
    <g>
      <path class="cls-1" d="m509.98,274.6c0,11.45-.01,22.89.02,34.33,0,.89-.16,1.07-1.06,1.07-38.12-.02-76.24-.02-114.36-.02-127.77,0-255.53,0-383.3.02-1.02,0-1.28-.16-1.28-1.25.04-99.14.04-198.28,0-297.42,0-1.12.26-1.32,1.35-1.32,19.17.04,38.33.02,57.51.02.24.46.72.57,1.12.81,19.34,11.61,38.67,23.21,58.01,34.8,43.58,26.14,87.16,52.26,130.72,78.43,1.1.66,1.83.62,2.91-.02,62.92-37.77,125.87-75.51,188.8-113.27.35-.21.82-.29.99-.76,19.14,0,38.29.01,57.44-.02.9,0,1.16.12,1.15,1.11-.05,11.35-.02,22.68-.02,34.03-.52-.02-.86.36-1.26.6-60.9,36.51-121.79,73.03-182.68,109.56-2.47,1.48-4.94,2.97-7.54,4.54.47.31.77.54,1.1.72,61.6,36.95,123.2,73.89,184.8,110.82,1.86,1.13,3.58,2.43,5.6,3.23Zm-499.64.11c.47-.26.76-.42,1.05-.6,63.1-37.83,126.19-75.68,189.29-113.52,1.18-.71,1.2-.72.01-1.43C137.55,121.3,74.42,83.44,11.28,45.59c-.27-.16-.51-.49-.95-.34,0,76.41,0,152.82,0,229.46Zm441.22,34.95c-.41-.27-.55-.37-.7-.46-63.25-37.93-126.51-75.86-189.74-113.82-.75-.45-1.25-.4-1.98.04-61.44,36.87-122.89,73.72-184.35,110.58-1.95,1.16-3.88,2.33-6.1,3.68,127.77-.01,255.16-.01,382.87-.01Z"/>
      <path class="cls-3" d="m451.42,10.04c-.16.46-.64.55-.99.76-62.93,37.76-125.88,75.49-188.8,113.27-1.07.65-1.82.69-2.91.02-43.56-26.16-87.15-52.3-130.72-78.43-19.34-11.6-38.68-23.21-58.01-34.8-.4-.24-.89-.36-1.12-.81,127.5-.01,255.03-.01,382.55-.01Z"/>
      <path class="cls-3" d="m509.98,274.6c-2.02-.8-3.74-2.09-5.59-3.2-61.61-36.93-123.2-73.88-184.8-110.82-.32-.19-.62-.41-1.1-.72,2.61-1.57,5.08-3.05,7.54-4.54,60.89-36.52,121.79-73.05,182.68-109.56.4-.24.74-.64,1.26-.6,0,76.47,0,152.95,0,229.44Z"/>
      <path class="cls-3" d="m10.34,274.71V45.25c.44-.16.67.16.95.34,63.13,37.86,126.27,75.71,189.4,113.58,1.17.71,1.17.72-.01,1.43-63.1,37.84-126.19,75.68-189.29,113.52-.29.16-.59.32-1.05.59Z"/>
      <path class="cls-3" d="m451.55,309.66H68.68c2.22-1.33,4.16-2.51,6.1-3.68,61.45-36.85,122.9-73.71,184.35-110.58.72-.44,1.23-.49,1.98-.04,63.23,37.96,126.49,75.89,189.74,113.82.15.1.29.2.7.47Z"/>
    </g>
  </g>
</svg>