<?xml version="1.0" encoding="UTF-8"?>
<svg id="Layer_2" data-name="Layer 2" xmlns="http://www.w3.org/2000/svg" viewBox="0 0 520 320">
  <defs>
    <style>
      .cls-1 {
        fill: #a3ab78;
      }

      .cls-1, .cls-2, .cls-3 {
        stroke-width: 0px;
      }

      .cls-2 {
        fill: #ed2939;
      }

      .cls-3 {
        fill: #fff;
      }
    </style>
  </defs>
  <g id="_500x300_Background" data-name="500x300 Background">
    <rect class="cls-1" width="520" height="320" rx="10" ry="10"/>
  </g>
  <g id="Singapore">
    <g>
      <rect class="cls-3" x="10" y="160" width="500" height="150"/>
      <rect class="cls-2" x="10" y="10" width="500" height="150"/>
    </g>
    <g>
      <path class="cls-3" d="m87.19,85c0-28.74,22.71-52.08,51.1-53.27-5.82-2.03-12.06-3.15-18.57-3.15-31.12,0-56.43,25.23-56.43,56.43s25.23,56.43,56.43,56.43c6.52,0,12.76-1.12,18.57-3.15-28.39-1.19-51.1-24.6-51.1-53.27Z"/>
      <polygon class="cls-3" points="121.96 71.05 119.02 61.52 116.14 71.05 106.61 71.05 114.32 76.87 111.38 86.33 119.02 80.44 126.66 86.33 123.71 76.87 131.42 71.05 121.96 71.05"/>
      <polygon class="cls-3" points="191.56 71.05 182.03 71.05 179.16 61.52 176.21 71.05 174.39 71.05 166.75 71.05 174.46 76.87 171.52 86.33 176.07 82.83 179.16 80.44 186.8 86.33 183.85 76.87 191.56 71.05"/>
      <polygon class="cls-3" points="153.85 54.51 161.49 48.69 152.03 48.69 149.09 39.23 146.21 48.69 136.75 48.69 144.39 54.51 141.45 64.04 149.09 58.15 156.8 64.04 153.85 54.51"/>
      <polygon class="cls-3" points="130.3 97.27 127.36 106.73 117.89 106.73 125.53 112.55 122.59 122.08 130.3 116.19 137.94 122.08 135 112.55 142.64 106.73 133.17 106.73 130.3 97.27"/>
      <polygon class="cls-3" points="171.73 106.73 170.82 106.73 167.87 97.27 165 106.73 155.53 106.73 163.17 112.55 160.23 122.08 165.35 118.15 167.94 116.19 175.58 122.08 172.64 112.55 180.28 106.73 171.73 106.73"/>
    </g>
  </g>
</svg>