<?xml version="1.0" encoding="UTF-8"?>
<svg id="Layer_2" data-name="Layer 2" xmlns="http://www.w3.org/2000/svg" xmlns:xlink="http://www.w3.org/1999/xlink" viewBox="0 0 520 320">
  <defs>
    <style>
      .cls-1 {
        fill: #a3ab78;
      }

      .cls-1, .cls-2, .cls-3, .cls-4, .cls-5 {
        stroke-width: 0px;
      }

      .cls-2 {
        fill: #ee1c25;
      }

      .cls-3 {
        fill: none;
      }

      .cls-4 {
        fill: #0b4ea2;
      }

      .cls-5 {
        fill: #fff;
      }

      .cls-6 {
        clip-path: url(#clippath);
      }
    </style>
    <clipPath id="clippath">
      <path class="cls-3" d="m219.92,82.88s2.33,23.38,2.33,70.12c-.33,47.75-36.04,71.92-62.25,84.62-26.21-12.71-61.92-36.88-62.25-84.62,0-46.75,2.33-70.12,2.33-70.12h119.83Z"/>
    </clipPath>
  </defs>
  <g id="_500x300_Background" data-name="500x300 Background">
    <rect class="cls-1" width="520" height="320" rx="10" ry="10"/>
  </g>
  <g id="Slovakia">
    <g>
      <path class="cls-5" d="m10,10h500v300H10V10Z"/>
      <path class="cls-4" d="m10,110h500v200H10V110Z"/>
      <path class="cls-2" d="m10,210h500v100H10v-100Z"/>
    </g>
    <g id="s">
      <path class="cls-2" d="m219.92,82.88s2.33,23.38,2.33,70.12c-.33,47.75-36.04,71.92-62.25,84.62-26.21-12.71-61.92-36.88-62.25-84.62,0-46.75,2.33-70.12,2.33-70.12h119.83Z"/>
    </g>
    <path class="cls-5" d="m154.71,220.04v-58.46c-19.79,0-25.42,1.75-31.33,3.54.56-5.97.56-11.99,0-17.96,5.92,1.79,11.54,3.54,31.33,3.54v-16.25c-6.25,0-14.88.25-24.79,3.62.56-5.99.56-12.01,0-18,9.92,3.33,18.54,3.58,24.79,3.58,0-4.71-1.46-14.83-3.29-23.21,5.71.51,11.46.51,17.17,0-1.83,8.38-3.29,18.5-3.29,23.21,6.25,0,14.88-.25,24.79-3.58-.56,5.99-.56,12.01,0,18-9.92-3.38-18.54-3.62-24.79-3.62v16.25c19.79,0,25.42-1.75,31.33-3.54-.56,5.97-.56,11.99,0,17.96-5.92-1.79-11.54-3.54-31.33-3.54v58.46h-10.58Z"/>
    <g class="cls-6">
      <path class="cls-4" d="m127.63,256.08c-11.67,0-21.12-16.18-21.12-36.13,0-19.95,9.46-36.12,21.13-36.12,4.84,0,9.52,2.84,13.28,8.04,8.34-19.56,23.64-22.88,34.18-7.4,1.48,2.17,2.82,4.65,3.99,7.4,9.07-12.55,22.37-10.15,29.71,5.36,7.34,15.51,5.94,38.26-3.13,50.81-3.76,5.2-8.45,8.04-13.28,8.04h-64.75Z"/>
    </g>
    <g id="s-2" data-name="s">
      <path class="cls-5" d="m160,240l-.98-.48c-17.66-8.56-31.24-18.27-41.52-29.69-14.45-16.04-21.85-35.2-22-56.94,0-46.34,2.32-70.13,2.34-70.36l.2-2.03h123.91l.2,2.03c.02.23,2.34,24.02,2.34,70.35-.15,21.76-7.55,40.91-22,56.96-10.28,11.42-23.86,21.13-41.52,29.69l-.98.48Zm-57.86-155c-.54,6.62-2.14,29.42-2.14,67.87.25,35.51,19.88,62.39,60,82.12,40.12-19.73,59.75-46.61,60-82.14,0-38.44-1.6-61.24-2.14-67.86h-115.71Z"/>
    </g>
  </g>
</svg>