<?xml version="1.0" encoding="UTF-8"?>
<svg id="Layer_2" data-name="Layer 2" xmlns="http://www.w3.org/2000/svg" viewBox="0 0 520 320">
  <defs>
    <style>
      .cls-1 {
        fill: #a3ab78;
      }

      .cls-1, .cls-2, .cls-3, .cls-4, .cls-5 {
        stroke-width: 0px;
      }

      .cls-2 {
        fill: #ff0;
      }

      .cls-3 {
        fill: red;
      }

      .cls-4 {
        fill: #fff;
      }

      .cls-5 {
        fill: blue;
      }
    </style>
  </defs>
  <g id="_500x300_Background" data-name="500x300 Background">
    <rect class="cls-1" width="520" height="320" rx="10" ry="10"/>
  </g>
  <g id="Slovenia">
    <g>
      <path class="cls-3" d="m10,10h500v300H10V10Z"/>
      <path class="cls-5" d="m10,10h500v200H10V10Z"/>
      <path class="cls-4" d="m10,10h500v100H10V10Z"/>
    </g>
    <g>
      <path class="cls-5" d="m98.62,67.17c23.18-10.21,49.58-10.21,72.75,0,3.8,53.73-8.33,84.19-36.38,91.36-28.05-7.18-40.18-37.63-36.38-91.36Z"/>
      <path id="a" class="cls-2" d="m135,76.83l1.1,2.5,2.71-.29-1.61,2.2,1.61,2.2-2.71-.29-1.1,2.5-1.1-2.5-2.71.29,1.61-2.2-1.61-2.2,2.71.29"/>
      <path id="a-2" data-name="a" class="cls-2" d="m124.73,63.13l1.1,2.5,2.71-.29-1.61,2.2,1.61,2.2-2.71-.29-1.1,2.5-1.1-2.5-2.71.29,1.61-2.2-1.61-2.2,2.71.29"/>
      <path id="a-3" data-name="a" class="cls-2" d="m145.27,63.13l1.1,2.5,2.71-.29-1.61,2.2,1.61,2.2-2.71-.29-1.1,2.5-1.1-2.5-2.71.29,1.61-2.2-1.61-2.2,2.71.29"/>
      <path class="cls-4" d="m135,91.01l8.81,17.61,5.87-7.83,14.68,19.57c0,.91-.13,1.81-.38,2.69-4.08,14.3-14.91,25.69-28.98,30.49-14.07-4.81-24.89-16.2-28.98-30.49-.25-.87-.38-1.78-.38-2.69l14.68-19.57,5.87,7.83,8.81-17.61Z"/>
      <path id="b" class="cls-5" d="m106.02,123.06c1.48,5.2,6.9,8.21,12.1,6.72.77-.22,1.51-.53,2.2-.93,3.03-1.75,6.76-1.75,9.79,0,3.03,1.75,6.76,1.75,9.79,0,3.03-1.75,6.76-1.75,9.79,0,4.68,2.7,10.66,1.1,13.37-3.58.4-.69.71-1.43.93-2.2l.38.14v7.16c-1.72,0-3.41.45-4.89,1.31-3.03,1.75-6.76,1.75-9.79,0-3.03-1.75-6.76-1.75-9.79,0-3.03,1.75-6.76,1.75-9.79,0-3.03-1.75-6.76-1.75-9.79,0-3.03,1.75-6.76,1.75-9.79,0-1.49-.86-3.17-1.31-4.89-1.31v-7.16"/>
      <path id="b-2" data-name="b" class="cls-5" d="m106.02,128.71c1.48,5.2,6.9,8.21,12.1,6.72.77-.22,1.51-.53,2.2-.93,3.03-1.75,6.76-1.75,9.79,0,3.03,1.75,6.76,1.75,9.79,0,3.03-1.75,6.76-1.75,9.79,0,4.68,2.7,10.66,1.1,13.37-3.58.4-.69.71-1.43.93-2.2l.38.14v7.16c-1.72,0-3.41.45-4.89,1.31-3.03,1.75-6.76,1.75-9.79,0-3.03-1.75-6.76-1.75-9.79,0-3.03,1.75-6.76,1.75-9.79,0-3.03-1.75-6.76-1.75-9.79,0-3.03,1.75-6.76,1.75-9.79,0-1.49-.86-3.17-1.31-4.89-1.31v-7.16"/>
      <path class="cls-3" d="m95.86,68.44c.91-.44,1.84-.86,2.76-1.27l2.91,46.43c1.24,19.84,14.53,36.89,33.47,42.94,18.94-6.05,32.23-23.1,33.47-42.94l2.91-46.43c.93.41,1.85.83,2.76,1.27l-2.84,45.33c-1.34,21.34-15.82,39.59-36.3,45.73-20.48-6.14-34.97-24.39-36.3-45.73l-2.84-45.33Z"/>
    </g>
  </g>
</svg>