<?xml version="1.0" encoding="UTF-8"?>
<svg id="Layer_2" data-name="Layer 2" xmlns="http://www.w3.org/2000/svg" viewBox="0 0 520 320">
  <defs>
    <style>
      .cls-1 {
        fill: #a3ab78;
      }

      .cls-1, .cls-2, .cls-3, .cls-4, .cls-5 {
        stroke-width: 0px;
      }

      .cls-2 {
        fill: #0051be;
      }

      .cls-3 {
        fill: #1b5c33;
      }

      .cls-4 {
        fill: #fff;
      }

      .cls-5 {
        fill: #fad109;
      }
    </style>
  </defs>
  <g id="_500x300_Background" data-name="500x300 Background">
    <rect class="cls-1" width="520" height="320" rx="10" ry="10"/>
  </g>
  <g id="Solomon_Islands" data-name="Solomon Islands">
    <g>
      <polygon class="cls-3" points="45.37 310 510 310 510 253.56 510 234.72 510 85.56 510 66.66 510 31.17 45.37 310"/>
      <polygon class="cls-5" points="510 10 474.63 10 10 288.83 10 310 45.37 310 510 31.17 510 10"/>
      <polygon class="cls-2" points="10 10 10 85.56 10.16 85.56 10.16 234.72 10 234.72 10 288.83 474.63 10 10 10"/>
    </g>
    <g>
      <polygon class="cls-4" points="115.22 90.57 109.86 75.12 105.06 90.79 88.76 91.07 102.17 100.45 97.37 116.04 110.42 106.24 123.83 115.62 118.47 100.17 131.52 90.29 115.22 90.57"/>
      <polygon class="cls-4" points="167.84 139.96 162.48 124.51 157.68 140.1 141.38 140.39 154.72 149.77 149.99 165.43 163.04 155.63 176.45 165.01 171.09 149.49 184.14 139.68 167.84 139.96"/>
      <polygon class="cls-4" points="60.33 137.92 55.04 122.46 50.24 138.13 33.87 138.41 47.28 147.79 42.48 163.39 55.53 153.58 68.94 162.96 63.65 147.51 76.7 137.63 60.33 137.92"/>
      <polygon class="cls-4" points="152.19 68.7 165.24 58.89 178.65 68.28 173.36 52.83 186.41 43.02 170.04 43.23 164.75 27.78 159.95 43.44 143.58 43.73 156.99 53.11 152.19 68.7"/>
      <polygon class="cls-4" points="57.24 25.8 52.52 41.4 36.15 41.68 49.55 51.06 44.76 66.73 57.81 56.85 71.21 66.3 65.85 50.78 78.97 40.97 62.61 41.26 57.24 25.8"/>
    </g>
  </g>
</svg>