<?xml version="1.0" encoding="UTF-8"?>
<svg id="Layer_2" data-name="Layer 2" xmlns="http://www.w3.org/2000/svg" viewBox="0 0 520 320">
  <defs>
    <style>
      .cls-1 {
        fill: #a3ab78;
      }

      .cls-1, .cls-2, .cls-3, .cls-4, .cls-5, .cls-6 {
        stroke-width: 0px;
      }

      .cls-3 {
        fill: #005641;
      }

      .cls-4 {
        fill: #ff5b00;
      }

      .cls-5 {
        fill: #ffb700;
      }

      .cls-6 {
        fill: #8d2029;
      }
    </style>
  </defs>
  <g id="_500x300_Background" data-name="500x300 Background">
    <rect class="cls-1" width="520" height="320" rx="10" ry="10"/>
  </g>
  <g id="Sri_Lanka" data-name="Sri Lanka">
    <g>
      <g id="rect628">
        <rect class="cls-5" x="10" y="10" width="500" height="300"/>
      </g>
      <g id="rect626">
        <rect class="cls-4" x="99.58" y="35.01" width="68.75" height="250"/>
      </g>
      <g id="rect625">
        <rect class="cls-3" x="30.83" y="35.01" width="68.75" height="250"/>
      </g>
      <g id="rect627">
        <rect class="cls-6" x="189.17" y="35.01" width="302.08" height="250"/>
      </g>
    </g>
    <g id="path2389">
      <path class="cls-5" d="m459.05,245.96s2.72,5.54,5.72,7.79c4.45,3.34,13.58,3.1,17.45,7,4.64,4.6-.36,10.67-.32,11.2l.25,3.21s-3.13.03-4.44.24c-1.98.31-2.75,1.92-6.44,1.68-9.27-.6-8.9-8.96-9.43-16.09-.47-2.72-1.54-6.26-2.16-8.98-.52-2.33-.63-6.05-.63-6.05Z"/>
      <path class="cls-2" d="m472,277.53c-.24,0-.49,0-.75-.03-8.83-.57-9.29-8.02-9.7-14.59-.04-.64-.08-1.27-.13-1.89-.28-1.61-.79-3.59-1.29-5.49-.32-1.22-.62-2.38-.86-3.43-.52-2.34-.64-5.97-.65-6.12l.8-.2c.03.06,2.71,5.47,5.6,7.64,2.01,1.5,5.1,2.29,8.11,3.05,3.56.9,7.24,1.82,9.39,3.99,4.04,4,1.2,9.04.13,10.94-.13.22-.27.48-.31.59l.29,3.6h-.45s-3.12.05-4.39.24c-.66.1-1.17.36-1.76.66-.96.5-2.05,1.06-4.02,1.06Zm-12.41-29.69c.09,1.24.25,2.86.52,4.07.24,1.04.53,2.19.85,3.4.5,1.92,1.02,3.91,1.31,5.6.05.67.09,1.31.13,1.94.4,6.53.82,13.27,8.9,13.8,2.22.14,3.3-.41,4.33-.93.63-.32,1.22-.62,2.01-.75,1.04-.16,3.13-.22,4.05-.24l-.22-2.75c-.02-.22.1-.44.43-1.01,1.08-1.91,3.6-6.37.01-9.92-1.99-2-5.55-2.9-8.99-3.77-3.08-.78-6.27-1.58-8.41-3.19-2.03-1.52-3.89-4.41-4.94-6.25Z"/>
    </g>
    <g id="path2389-2" data-name="path2389">
      <path class="cls-5" d="m221.37,74.05s-2.72-5.54-5.72-7.79c-4.45-3.34-13.58-3.1-17.45-7-4.64-4.6.36-10.67.31-11.2l-.25-3.21s3.13-.03,4.44-.24c1.98-.31,2.75-1.92,6.44-1.68,9.27.6,8.9,8.96,9.43,16.09.47,2.72,1.54,6.26,2.16,8.98.52,2.33.64,6.05.64,6.05Z"/>
      <path class="cls-2" d="m220.98,74.23c-.03-.06-2.71-5.47-5.6-7.64-2.01-1.5-5.1-2.29-8.11-3.05-3.56-.9-7.24-1.82-9.39-4-4.04-4-1.2-9.04-.13-10.94.13-.22.27-.48.31-.59l-.29-3.6h.45s3.12-.05,4.39-.24c.66-.1,1.17-.36,1.76-.66,1.08-.55,2.32-1.18,4.77-1.02,8.83.57,9.29,8.02,9.7,14.6.04.64.08,1.27.13,1.89.28,1.61.79,3.58,1.29,5.48.32,1.22.62,2.38.86,3.44.53,2.34.64,5.97.65,6.12l-.8.2Zm-22.27-28.97l.22,2.75c.02.22-.1.44-.43,1.01-1.08,1.91-3.6,6.37-.01,9.92,1.99,2.01,5.55,2.9,9,3.77,3.08.78,6.27,1.58,8.41,3.19,2.02,1.52,3.88,4.41,4.94,6.25-.09-1.24-.25-2.86-.52-4.07-.24-1.04-.54-2.19-.85-3.41-.5-1.92-1.02-3.91-1.31-5.59-.05-.67-.09-1.31-.13-1.94-.4-6.53-.82-13.28-8.9-13.8-2.23-.14-3.3.41-4.33.93-.63.32-1.22.62-2.01.75-1.06.16-3.14.22-4.07.24Z"/>
    </g>
    <g id="path2389-3" data-name="path2389">
      <path class="cls-5" d="m459.05,74.04s2.72-5.53,5.72-7.79c4.45-3.34,13.58-3.1,17.45-6.99,4.64-4.6-.36-10.67-.32-11.19l.25-3.21s-3.13-.03-4.44-.24c-1.98-.31-2.75-1.92-6.44-1.68-9.27.6-8.9,8.96-9.43,16.09-.47,2.72-1.54,6.26-2.16,8.98-.52,2.33-.63,6.04-.63,6.04Z"/>
      <path class="cls-2" d="m459.44,74.23l-.8-.2c0-.15.12-3.78.65-6.12.24-1.06.54-2.21.86-3.43.5-1.91,1.01-3.87,1.29-5.53.04-.59.08-1.22.12-1.85.41-6.57.86-14.02,9.7-14.6,2.45-.16,3.69.47,4.77,1.02.59.3,1.1.56,1.76.66,1.27.2,4.35.24,4.39.24h.45s-.29,3.61-.29,3.61c.04.1.19.36.31.59,1.07,1.89,3.92,6.93-.13,10.94-2.15,2.17-5.83,3.1-9.38,3.99-3,.75-6.1,1.54-8.11,3.05-2.9,2.17-5.58,7.59-5.6,7.64Zm12.56-30.91c-.22,0-.45,0-.7.02-8.08.52-8.5,7.27-8.9,13.8-.04.64-.08,1.28-.13,1.91-.29,1.73-.81,3.72-1.31,5.64-.31,1.22-.61,2.36-.85,3.4-.27,1.22-.43,2.83-.52,4.07,1.06-1.84,2.92-4.74,4.94-6.25,2.14-1.61,5.32-2.41,8.41-3.19,3.45-.87,7.01-1.77,8.99-3.77,3.58-3.55,1.06-8.02-.01-9.92-.32-.57-.45-.79-.43-1.01l.22-2.75c-.92-.02-3.01-.08-4.05-.24-.79-.13-1.38-.43-2.01-.75-.92-.48-1.87-.96-3.63-.96Z"/>
    </g>
    <g id="path2389-4" data-name="path2389">
      <path class="cls-5" d="m221.37,245.96s-2.72,5.54-5.72,7.79c-4.45,3.34-13.58,3.1-17.45,7-4.64,4.6.36,10.67.31,11.2l-.25,3.21s3.13.03,4.45.24c1.99.31,2.75,1.92,6.44,1.68,9.28-.6,8.9-8.96,9.43-16.1.47-2.72,1.54-6.26,2.16-8.98.52-2.33.64-6.05.64-6.05Z"/>
      <path class="cls-2" d="m208.42,277.53c-1.97,0-3.05-.55-4.03-1.05-.59-.3-1.1-.56-1.76-.66-1.27-.2-4.35-.24-4.39-.24h-.45s.29-3.61.29-3.61c-.04-.1-.19-.36-.31-.59-1.07-1.89-3.92-6.93.13-10.95,2.15-2.17,5.83-3.1,9.39-3.99,3-.75,6.1-1.54,8.11-3.05,2.89-2.17,5.57-7.58,5.6-7.64l.8.2c0,.15-.12,3.78-.65,6.12-.24,1.06-.54,2.22-.86,3.44-.5,1.9-1.01,3.87-1.29,5.52-.04.58-.08,1.22-.12,1.85-.41,6.57-.86,14.02-9.7,14.59-.25.03-.5.03-.74.03Zm-9.71-2.79c.92.02,3.01.08,4.05.24.79.13,1.38.43,2.01.75,1.03.53,2.11,1.07,4.33.93,8.09-.52,8.51-7.28,8.9-13.8.04-.64.08-1.28.13-1.9.29-1.73.81-3.71,1.31-5.63.31-1.22.62-2.37.85-3.41.27-1.22.43-2.83.52-4.07-1.06,1.85-2.92,4.74-4.94,6.26-2.14,1.61-5.33,2.41-8.41,3.19-3.45.87-7.01,1.77-9,3.77-3.59,3.55-1.06,8.02.01,9.93.32.57.45.79.43,1.01l-.22,2.75Z"/>
    </g>
    <g>
      <g id="path3768">
        <path class="cls-2" d="m287.15,245.7l2.08-1.2.89,1.2c1.19,1.6,4.48,1.59,6.66-.03l1.67-1.25,1.4,1.25c1.84,1.64,5.26,1.64,7.45,0,1.54-1.14,1.75-1.16,2.76-.29.6.52,2.37,1.11,3.94,1.31,2.82.37,2.86.34,4.5-2.12,1.38-2.07,1.6-2.91,1.26-4.91-.22-1.33-.45-3.47-.52-4.75-.13-2.33-.11-2.34,3.28-3.53,1.87-.65,4.04-1.53,4.82-1.94,1.35-.73,5.09-5.11,5.09-5.98,0-.23-1.46-.58-3.24-.78-7.09-.79-8.29-4.6-3.69-11.68,7.52-11.54,12.06-22.77,12.09-29.93.02-3.2.19-4.27.61-3.58,1.68,2.84-1.33,14.77-5.89,23.32l-1.84,3.44,1.75-.4c.96-.23,6.63-2.62,12.58-5.31,16.31-7.39,21.92-8.83,32.47-8.39,8.85.38,12.61,2.1,18.86,8.65,3.31,3.47,6.49,5.95,12.33,9.6,12.42,7.77,12.94,8.45,13.53,17.59.6,9.27.3,9.77-6.71,11.31-5.99,1.32-9.74,4.11-10.75,8-.53,2.07.59,2.13,3.61.19l2.21-1.42.99,1.42c1.3,1.87,4.04,1.88,6.33.02l1.72-1.4,1.76,1.4c2.74,2.18,6.38,1.65,7.41-1.08.2-.53.73-.36,1.8.57,2,1.74,7.13,2.48,7.69,1.12.21-.52-.19-1.81-.89-2.87-2.98-4.48-3.92-6.61-3.95-9.05-.06-3.38.95-5.02,4.81-7.78,4.68-3.35,6.12-7.66,2.57-7.66-2.2,0-4.41-1.95-5.82-5.11-2.87-6.43-2.31-13.65,2.01-25.65,4.38-12.19,4.86-14.44,4.88-22.59.02-6.59-.15-7.73-1.65-11.35-.92-2.21-2.77-5.5-4.14-7.31l-2.47-3.29,3.17-2.62c9.68-8.01,7.7-21.13-3.95-26.19-3.57-1.55-4.45-1.68-10.7-1.64-3.74.03-9.46.52-12.69,1.09-3.3.59-8.88,1.06-12.71,1.08-6.08.03-7.12-.13-9.46-1.37-2.45-1.3-2.87-1.92-3.34-4.93-.1-.62-.53-1.24-.96-1.37-.84-.26-4.67,3.08-5.24,4.55-.28.73-.51.68-1.33-.29-.54-.64-1.3-2.13-1.69-3.29-.97-2.93.22-5.13,3.67-6.78l2.67-1.28-1.58-.98c-3.26-2.02-8.79-.64-10.8,2.7-.57.94-1.19,1.71-1.37,1.72-.19,0-1.27-.89-2.39-2-4.2-4.11-2.76-10.19,2.87-12.04,3-.99,5.65-.23,6.2,1.76.84,3.05,3.46-.96,2.99-4.58-.31-2.41-.27-2.49,1.4-2.49,2.31,0,7.25,3.04,8.77,5.41,1.77,2.75,1.65,7.09-.31,10.32l-1.53,2.54,2.01-.4c2.93-.58,5.79-2.41,7.24-4.63,1.53-2.34,1.69-6.89.33-9.35-1.31-2.38-1.16-2.76.78-1.96,3.3,1.37,5.06,2.88,6.38,5.46,1.19,2.33,1.25,2.91.61,5.33-.4,1.5-1.29,3.47-1.96,4.38-1.06,1.42-1.1,1.65-.25,1.65,1.58,0,4.88-1.5,6.05-2.74.59-.63,1.45-2.18,1.92-3.45l.84-2.31.97,1.75c1.37,2.48,4.03,4.71,7.27,6.11,3.48,1.5,4.94,1.58,3.12.18-1.23-.94-3.49-7.6-2.81-8.24.4-.38,5.14,3.26,10.55,8.11,5.11,4.59,8.33,6.09,13.03,6.09,6,0,9.49-5.22,6.79-10.16-1.57-2.88-5.07-3.28-7.12-.81-.94,1.14-1.2,2.04-.93,3.23.34,1.45.21,1.65-1.12,1.65-1.75,0-5.18-2.23-11.29-7.33-9.31-7.77-20.62-14.36-28.79-16.76-5.24-1.55-16.44-2.15-21.77-1.17-5.77,1.05-12.59,4.35-16.31,7.89-6.58,6.26-6.69,14.59-.28,22.18l1.84,2.17-1.25,1.93c-1.81,2.81-1.65,6.59.38,9.38.89,1.23,1.8,2.23,2.01,2.23s.43-.79.51-1.75c.18-2.44,1.23-4.07,3.02-4.72,1.61-.58,2.67-.31,10.07,2.65,7.79,3.11,20.6,3.33,34.22.57,6.68-1.35,14.55-1.27,18.02.18,6.35,2.66,7.82,9.58,3.15,14.83-2.02,2.27-3.97,3.2-10.51,5-4.98,1.37-6.16,1.45-17.47,1.35-9.67-.09-13.14.09-17.09.91-4.29.89-6.92.99-19.5.67l-14.55-.37,1.61,1.34c.89.74,2.14,1.64,2.78,2.01,1.1.63,1.06.71-.57,1.32-.96.35-3.08.64-4.73.64h-2.98l-.4,2.54c-.23,1.4-.2,3.02.03,3.62.36.88.23,1-.7.67-.63-.23-2.37-.68-3.89-.99s-3.54-.97-4.51-1.45c-1.64-.8-1.82-.78-2.42.28-.54.95-5.6,4.72-6.33,4.72-.12,0-.28-.73-.34-1.61-.07-.89-.8-3.19-1.62-5.13s-1.68-4.04-1.91-4.7c-.34-.97-.5-1.02-.91-.29-.28.48-.68,1.8-.89,2.93-.22,1.13-.98,2.96-1.7,4.08l-1.3,2.02-.84-1.73c-.89-1.86-2.37-3.79-2.91-3.79-.18,0-.49.59-.69,1.32-.41,1.51-3.92,5.72-4.78,5.72-.32,0-.58-1.19-.58-2.64s-.28-2.64-.62-2.64-.62.38-.62.84c0,1.12-3,4.45-4,4.45-.43,0-1.14.39-1.57.88-1.1,1.26-2.01,1.09-1.55-.3.22-.65.08-2.16-.32-3.38-.39-1.2-.8-2.49-.92-2.85-.15-.45-1.22-.33-3.49.39-3.68,1.18-4.9.97-3.02-.51.69-.54,1.74-2.41,2.34-4.16.59-1.75,1.47-3.3,1.95-3.45.67-.21.64.05-.16,1.11-.56.76-1.02,1.79-1.03,2.27,0,.49-.43,1.66-.94,2.6s-.84,1.8-.72,1.91c.12.12,1.52-.42,3.11-1.18l2.89-1.39v1.24c.02.69.36,2.48.79,3.99l.76,2.76,1.96-.9c2.01-.93,3.91-4.22,3.91-6.78,0-1.26.73-1.07,1.02.28.08.39.54,1.87,1.01,3.28l.85,2.57,1.35-1.62c.74-.89,1.67-2.64,2.06-3.89.69-2.16,1.75-3.09,1.75-1.52,0,1.14,3.09,5.2,3.69,4.85.29-.17.86-1.7,1.28-3.38.86-3.53,2.25-5.92,3.13-5.41.33.19.46.57.28.84s.53,2.56,1.58,5.09,2.09,5.08,2.33,5.67c.38.94.73.8,2.96-1.17,1.4-1.23,2.66-2.61,2.81-3.06.23-.69.54-.66,1.84.15,1.82,1.13,7.94,2.95,8.41,2.5.18-.17.36-1.77.4-3.57l.08-3.27,1.76.37c.97.2,3,.19,4.52-.03l2.77-.39-2.47-1.69c-1.35-.93-2.72-2.13-3.04-2.67-.34-.58-1.55-1.06-2.91-1.18-3.69-.32-10.23-3.98-10.23-5.73,0-.33.9.23,2.01,1.25,2.46,2.25,5.87,3.66,8.85,3.66h2.23l-1.38-1.83c-.79-1.05-1.5-3.05-1.67-4.7-.27-2.62-.54-3.04-3.28-4.94-1.65-1.14-3.68-2.86-4.53-3.81l-1.54-1.73-.79,2.06c-.43,1.13-.96,2.06-1.17,2.06s-1.04-.66-1.84-1.46c-.8-.81-1.61-1.46-1.81-1.46s-.9,1.09-1.57,2.41l-1.22,2.41-.94-1.39c-.52-.76-1.74-2.11-2.72-3s-1.49-1.61-1.14-1.61,1.55.92,2.68,2.06l2.05,2.06.84-1.5c.49-.89.68-2.26.45-3.38-.33-1.61-.28-1.71.34-.69.39.64,1.59,1.88,2.66,2.75l1.94,1.57,1.34-2.46c1.34-2.44,1.35-2.45,1.95-.99.81,1.96,6.68,6.77,11.68,9.58.77.43.44-1.06-.98-4.49-.38-.91-.69-2.55-.69-3.63,0-1.62-.47-2.34-2.54-3.92-2.99-2.28-3.96-3.89-4.52-7.57-.23-1.49-.75-3.14-1.16-3.68-.61-.79-.71-.35-.54,2.41.11,1.86-.13,4.18-.53,5.15l-.74,1.76-.57-1.47c-.32-.8-1.7-2.21-3.08-3.12-1.39-.91-2.36-1.8-2.16-1.99.19-.18,1.62.64,3.16,1.84,2.35,1.82,2.87,2.02,3.19,1.22.38-.94,0-5.05-.74-7.92-.37-1.43-.33-1.43,1.43.34,1.3,1.3,2.02,2.86,2.58,5.57.71,3.45,1.07,4.02,4.25,6.82,1.91,1.68,3.58,2.96,3.7,2.84s.37-4.46.53-9.66c.33-9.97-.04-12.33-2.44-15.42l-1.24-1.58,1.94-2.09c2.53-2.72,3.69-4.91,4.19-7.9l.41-2.42-2.19,2.07c-1.79,1.7-2.65,2.07-4.72,2.07s-2.86-.34-4.24-1.82c-1.66-1.77-4.6-3.48-7.44-4.3-1.04-.31-1.4-.18-1.4.53,0,.52-.58,2.01-1.29,3.33l-1.29,2.38-2.69-2.66c-1.65-1.63-3.61-2.9-5.06-3.28-3.72-.98-3.92-.88-3.92,1.89,0,4.2-1.8,4.99-5.02,2.2-2.47-2.13-4.5-2.59-9.17-2.08l-3.61.39.65,1.63c.54,1.36.42,1.93-.74,3.48-1.88,2.51-4.34,3.59-8.11,3.59-1.74,0-3.91.36-4.83.8s-3.21.94-5.08,1.13-3.87.5-4.44.71c-.89.33-.99.06-.7-1.96.43-3.09-1.72-5.36-5.08-5.36-4.36,0-6.38,3.9-4.66,9.05.33.99.76,2.55.95,3.47.2.95,2.17,3.48,4.58,5.89,2.32,2.32,4.51,4.74,4.87,5.36s1.55,1.65,2.64,2.25l1.99,1.1-.26-2.13c-.29-2.34.22-2.71,1.46-1.05.44.59,1.58,1.55,2.52,2.12,1.48.9,1.7.93,1.7.14,0-.5.3-1.65.67-2.56l.67-1.65,1.16,2.25c.64,1.24,2.72,4.04,4.61,6.24,3.69,4.26,5.92,9.02,4.77,10.12-.47.44-1.74.41-4.37-.12-2.04-.41-4.56-.63-5.61-.48-2.13.29-2.3.03-.99-1.62,1.39-1.73,1.16-2.02-1.55-2.02-3.14,0-10.95-1.5-13.95-2.69-2.92-1.15-3.58-.87-4.45,1.9-.38,1.25-1.09,3.5-1.57,5.01l-.87,2.75,3.15-.3c1.74-.17,3.96-.54,4.96-.84.99-.3,1.9-.45,2.01-.35s-.33,1.18-.99,2.38l-1.19,2.2,1.96-.4c1.08-.22,2.71-.76,3.61-1.19,1.58-.76,1.7-.71,2.95,1.29,1.53,2.46,2.76,2.36,3.02-.25.28-2.69,1.17-2.3,2.83,1.27,1.6,3.43,3.27,4.65,3.59,2.61.11-.68.97-1.77,1.92-2.44,1.92-1.35,3.37-.94,4.19,1.18.86,2.2-1.05,4.46-6.63,7.84-11.16,6.76-17.64,16.01-19.49,27.79-1.67,10.63,3.54,21.62,14,29.51,5.01,3.78,12.96,7.76,12.45,6.24-2.15-6.46-2.07-18.78.12-20.86.33-.31.22.97-.25,2.86-1.75,7.02-.99,12.61,3.48,25.71,4.04,11.85,3.48,16.91-2.24,20.26-1.84,1.08-3.02,1.25-7.95,1.19-5.36-.07-5.94.04-7.66,1.41-1.66,1.33-3.83,5.69-3.83,7.73-.02,1.05,1.21.91,3.62-.48h0Zm43.43-102.77c0-.86-2.52-3.19-5.09-4.7-2.01-1.18-2.34-1.21-2.35-.25,0,1.46-1.3,5.13-1.81,5.13-.28,0-.71-.72-.94-1.6-.23-.88-1.21-2.61-2.16-3.84l-1.75-2.25-1.35,2.08c-1.27,1.94-3.46,3.84-4.43,3.84-.23,0-.28-1.02-.1-2.27.19-1.35.04-2.43-.37-2.67-.38-.23-.69-.14-.69.18,0,.73-3.04,4.19-3.69,4.19-.27,0-.64-.99-.83-2.2-.18-1.21-.51-3.13-.71-4.25-.2-1.13.23-.36.96,1.7l1.34,3.75,1.46-2.29c.8-1.25,1.46-2.63,1.46-3.06s.28-.61.6-.42.79,1.7,1.02,3.36l.42,3.01,1.61-1.76c.89-.97,1.92-2.27,2.31-2.88.69-1.1.72-1.1,2.08.05.76.64,1.93,2.19,2.6,3.43.67,1.24,1.3,2.16,1.41,2.06s.35-1.39.54-2.84c.19-1.45.36-2.69.38-2.76.09-.36,4.85,2.73,6.61,4.3,1.13,1,2.21,1.69,2.38,1.51.18-.18.33-1.65.33-3.29,0-2.54-.27-3.23-1.82-4.61-1.79-1.6-1.84-1.6-2.5-.43-.86,1.52-1.87,1.54-1.87.04,0-1.09-3.38-5.3-4.26-5.3-.23,0-.94.93-1.58,2.06-.64,1.13-1.33,2.06-1.54,2.05-.87,0-5.63-5.31-5.63-6.28,0-.76.33-.57,1.15.7.64.97,1.91,2.41,2.82,3.21,1.86,1.61,2.52,1.22,3.24-1.89.2-.89.56-1.61.79-1.61.79,0,4.94,4.4,5.52,5.87l.58,1.46.44-1.61c.54-1.97,1.14-2.05,2.01-.24.36.75,2.15,2.31,3.97,3.48l3.31,2.11.67-2.11c.37-1.16.85-1.84,1.08-1.49.34.52-.53,4.03-1.17,4.78-.1.12-1.17-.51-2.38-1.39l-2.21-1.6v2.86c-.02,1.57-.18,3.45-.39,4.18-.4,1.4-1.46,1.8-1.46.53h0Zm-16.51-22.76c-3.94-3.28-4.54-4.04-4.45-5.6l.09-1.65.26,1.6c.15.94,1.19,2.34,2.52,3.37l2.26,1.76,1.39-1.6c.77-.89,1.4-1.94,1.41-2.34.03-1.05.22-.96,2.88,1.35,2.36,2.06,2.41,2.06,2.76.74.19-.74.13-2.14-.16-3.11-.78-2.65-.62-3.05.55-1.45.58.79,1.52,1.92,2.09,2.51.98,1.01,1.04.99,1.4-.29.21-.74.38-2.1.39-3.02v-1.67s2.14,2.42,2.14,2.42c2,2.26,2.18,2.34,2.78,1.27.36-.64.65-2.16.66-3.39,0-1.59.18-1.99.58-1.39.68,1.01.21,3.76-1.04,6.11l-.89,1.68-1.18-1.83c-1.5-2.34-2.01-2.3-2.97.23-.91,2.39-1.5,2.57-2.39.74-.58-1.19-.69-1.04-1.09,1.45l-.45,2.77-2.72-2.11-2.72-2.11-1.22,1.39c-.67.76-1.23,1.72-1.24,2.12,0,.86-.66.89-1.65.06h0Zm35.01-12.24c-1.43-1.29-2.42-2.52-2.19-2.74.23-.22.48-.28.57-.13.08.14,1.25,1.37,2.6,2.74,3.1,3.14,2.46,3.23-.98.13Zm-46.64-4.82c-1.3-1.76-1.21-2.93.38-4.84,1.14-1.38,1.67-1.57,3.67-1.31,1.29.17,4.04,1.3,6.14,2.52,2.41,1.41,4.91,2.36,6.85,2.6,1.68.2,3.05.28,3.05.17,0-.11-.69-1.25-1.55-2.52-2.02-3.03-1.96-3.36.33-1.54,2.34,1.86,5.14,2.41,11.4,2.22l3.06-.09-1.77-1.75c-2.48-2.45-1.72-2.67,1.02-.29,2.57,2.23,2.41,2.39-3,2.92-2.3.23-4.77.07-6.82-.46-3.08-.79-3.19-.77-2.61.26.33.59.88,1.08,1.21,1.08s.59.3.59.67c0,1.13-6.63.13-9.81-1.47-7.24-3.67-8.16-3.99-9.88-3.44-.96.3-1.92,1.19-2.25,2.07-1.1,2.96,3.09,5.26,4.82,2.64.5-.76.38-1.28-.5-2.2-1.2-1.26-1.09-1.45.53-.85,1.16.42,1.31,3.2.23,4.22-1.24,1.17-4.04.84-5.11-.6Zm28.54-7.3c-.9-.86-.19-1.07,3.87-1.14,5.02-.09,8.07-.93,11.67-3.2,2.88-1.82,3.67-1.46.93.43-2.5,1.72-6.39,3.05-10.15,3.45-1.82.19-3.89.47-4.61.6-.72.13-1.49.08-1.7-.13Zm43.16,149.67l2.25-1.45,1.53,1.45c2,1.9,4.34,1.85,6.26-.12.84-.86,1.59-1.45,1.67-1.32s.46.77.84,1.41c.48.82,1.45,1.23,3.22,1.35,2.12.15,2.69-.06,3.53-1.28l1-1.45,2.21,1.42c6.06,3.89,9.28-.19,6.58-8.32-1.38-4.14-.62-6.46,3.82-11.72,1.87-2.22,3.4-4.59,3.41-5.26,0-1.08-.34-1.22-2.83-1.17-2.38.05-3.08-.21-4.34-1.59-2.04-2.25-1.92-4.82.36-7.67l1.82-2.28-3.23-2.2c-1.78-1.2-4.98-4.06-7.13-6.34-4.8-5.12-9.53-7.55-15.77-8.11l-4.18-.37v3.16c.02,4.07,1.93,7.99,7.14,14.62,5.93,7.55,6.34,8.72,6.58,18.58l.2,8.34-1.72,1.63c-1.55,1.47-2.25,1.66-7.25,1.95-4.76.28-5.77.52-7.16,1.76-1.86,1.65-2.41,2.54-2.98,4.81-.33,1.33-.2,1.61.76,1.61.64,0,2.17-.65,3.41-1.45h0Zm-127.5-21.56c.53-.72.96-1.87.96-2.57,0-1.05.47-1.34,2.79-1.66l2.79-.4-1.86-1.48c-2.21-1.76-2.41-3.13-.47-3.14,1.94,0,5.22-2.01,5.72-3.5.23-.69.08-1.62-.33-2.09-1.09-1.25-3.13-1.05-3.51.32-.41,1.48-1.09,1.48-2.64.02-2.33-2.21-2.38-6.78-.11-9.43,1.07-1.25,1.06-1.34-.3-2.63-1.47-1.4-2.52-4.15-1.83-4.8.22-.21,1.38-.04,2.58.37,1.7.58,2.38.59,3.08.04,2.13-1.67-.18-3.83-3.58-3.35-1.37.19-1.94,0-2.14-.71-.15-.54-1.35-1.25-2.71-1.59-2.41-.61-2.43-.6-2.43,1.06,0,1.82-1.04,2.17-3.02,1-1.61-.95-3.17-.22-3.17,1.5,0,1.6,1.6,2.39,4.49,2.2,2.21-.14,2.29,1.5.19,3.86l-1.51,1.7,1.19,1.72c1.77,2.54,1.62,6.77-.31,8.87l-1.51,1.65-.99-1.32c-1.38-1.84-3.28-1.71-3.79.24-.34,1.28-.06,1.86,1.55,3.23,1.08.91,2.66,1.66,3.5,1.66,2.1,0,2.01,1.65-.17,3.31l-1.7,1.3,2.63.41c1.45.23,2.63.64,2.63.94,0,1.12,1.82,4.6,2.41,4.6.34.02,1.05-.57,1.58-1.29h0Zm34.27-14.85c2.39-.94,7.56-5.32,7.56-6.41,0-.34-1.43-1.91-3.18-3.49-3.68-3.33-7.67-8.92-8.71-12.19-.54-1.7-3.15-4.63-10.5-11.76l-9.78-9.48-2.82.71c-1.55.39-3.44.73-4.2.74-1.31.02-1.29.09.46,1.45l1.84,1.42,2.58-1.43c2.5-1.39,2.59-1.4,2.9-.28.18.65-.21,1.79-.9,2.62-.67.8-1.05,1.72-.85,2.03.2.31-.44.96-1.43,1.45-1.84.9-3.11,3.86-1.66,3.86,1.3,0,4.18-3.54,3.84-4.75-.17-.62-.08-1.25.18-1.4,1.12-.66,1.05,2.13-.08,3.5-.67.8-1.05,1.72-.85,2.03.2.31-.44.96-1.43,1.45-1.82.89-3.11,3.86-1.67,3.86s4.24-3.39,3.89-4.65c-.18-.66-.11-1.34.16-1.5.75-.44,1.16,1.75.53,2.83-.34.58-.34,1.36,0,1.99.63,1.14,0,3.3-1.16,3.98-.49.29-.16.86,1.04,1.76,1.74,1.31,1.77,1.45,1.77,7.24,0,4.84.19,6.08,1.09,6.93.99.94,1.09.95,1.09.04,0-.99,1.74-2.2,3.16-2.2.42,0,3.03,2.22,5.82,4.93,2.8,2.72,5.72,5.05,6.55,5.2s1.71.3,1.98.34c.25.04,1.5-.33,2.77-.83h0Zm-29.9-23.4c0-1.55-3.22-3.23-7.06-3.65-3.11-.35-3.16-.33-3.16,1.22,0,1.29.48,1.79,2.63,2.72,3.44,1.5,7.59,1.34,7.59-.29Zm3.53-.14c1.57-1.42,2.31-3.12,1.37-3.12-1.09,0-3.97,2.58-3.97,3.56,0,1.52.53,1.43,2.6-.44Zm-3.34-4.61c.13-.88-.41-1.46-2.04-2.21-3.52-1.59-7.72-2.32-8.73-1.53-1.86,1.47-.63,3.43,2.39,3.79,1.21.14,2.86.51,3.66.82,2.31.91,4.51.5,4.72-.87Zm0-4.7c.19-1.25-.61-1.7-7.16-4.01-4.89-1.72-7.05-.91-5.49,2.06.54,1.04,1.45,1.5,3.51,1.81,1.52.23,3.61.68,4.63.99,2.72.84,4.29.55,4.51-.85Zm3.28-4.42c.99-1,1.8-2.18,1.8-2.62,0-1.44-3.9,1.1-4.4,2.87-.59,2.11.38,2.02,2.61-.24h0Zm-3.28-.29c.22-1.43-2.16-2.72-6.84-3.71-3.43-.73-4.94-.32-4.69,1.28.14.87,1.28,1.5,4.52,2.52,5.19,1.61,6.75,1.6,7-.08Zm4.57-6.65c5.99-2.67,6.51-9.39.86-11.16-2.35-.74-3.84-.33-4.74,1.25-.69,1.22-.23,3.43.71,3.43.32,0,.58.41.58.91,0,2.33-9.14,3.39-12.89,1.49-1.32-.67-1.89-2.4-.79-2.4.82,0,1.39-1.76.97-3.02-.57-1.7-2.29-2.29-4.77-1.64-5.62,1.47-5.46,8.06.26,10.86,4.68,2.29,14.96,2.43,19.82.27Zm-3.73-5.16c.35-.33.19-.84-.38-1.29-1.27-1-1.2-2.49.19-4.19,1.04-1.28,1.18-3.19,1.54-22.51.62-33.28,3.1-58.33,6.36-64.33,1.3-2.39,1.12-2.4-2.24-.12-4.32,2.94-7.61,6.78-10.53,12.26-5.51,10.35-7.42,24.28-7.42,54.01,0,16.88.12,19.09,1.08,20.68.91,1.5.96,2.06.32,3.68-.42,1.04-.6,2.04-.42,2.21,1.23,1.15,10.19.84,11.51-.4h0Zm50.32-31.74c.18-.28-.23-1.74-.92-3.23-1.08-2.31-1.52-2.7-3.06-2.7-4.83,0-12.59-2.16-20.6-5.72-4.62-2.06-6.22-2.53-6.78-2.01-1.41,1.34.94,4.52,4.58,6.19,3.23,1.48,12.26,3.3,16.38,3.3,2.39,0,2.45.11,1.09,2.07l-1,1.45,2.7.07c1.49.04,3.53.28,4.56.52,2.65.64,2.67.64,3.05.06h0Z"/>
        <path class="cls-2" d="m400.75,248.31c-1.24,0-2.83-.43-4.82-1.7l-1.13-.73-.28.4c-1.24,1.79-2.41,2.01-4.72,1.85-1.5-.11-3.35-.43-4.27-2.01-.03-.05-.06-.1-.08-.14-.1.1-.21.2-.32.32-2.42,2.47-5.62,2.53-8.12.15l-.77-.73-1.37.89c-.89.58-2.9,1.65-4.13,1.65-.35,0-1.29,0-1.86-.74s-.41-1.65-.18-2.53c.64-2.53,1.34-3.66,3.39-5.48,1.78-1.57,3.18-1.81,7.97-2.09,5.06-.29,5.26-.49,6.42-1.59l1.29-1.22-.19-7.75c-.23-9.61-.53-10.45-6.3-17.79-5.4-6.87-7.41-11.06-7.42-15.44v-2.21c-8.33.03-14.18,1.87-28.47,8.35-5.31,2.41-11.61,5.11-12.83,5.4l-2.21.51c-1.14,2-2.37,4.03-3.7,6.06-2.18,3.35-2.97,5.9-2.27,7.36.56,1.19,2.25,1.96,5,2.26,3.74.42,4.42,1.04,4.42,2.1,0,1.75-4.49,6.45-5.79,7.15-.85.45-3.05,1.35-5.01,2.03-1.14.4-2.22.78-2.42.99-.03.11,0,.72.03,1.21.07,1.22.29,3.33.5,4.61.38,2.36.1,3.51-1.47,5.86-1.92,2.88-2.47,3.13-5.78,2.71-1.6-.21-3.71-.84-4.63-1.62-.13-.11-.21-.18-.28-.23-.25.15-.65.45-.83.58-2.72,2.02-6.81,1.99-9.13-.08l-.58-.53-.8.59c-1.55,1.15-3.65,1.7-5.5,1.42-1.3-.19-2.37-.79-3.02-1.66l-.18-.25-1.05.61c-2.31,1.34-3.67,1.65-4.67,1.07-.61-.35-.96-1-.96-1.79,0-2.43,2.35-7.19,4.33-8.77,2.1-1.67,3.02-1.76,8.51-1.7,4.92.05,5.78-.14,7.27-1.01,4.44-2.6,5.91-6.2,1.65-18.68-.82-2.41-1.52-4.58-2.11-6.54-2.77.23-9.63-4.28-12.22-6.06-1.04,2.31-6.28,6.17-8.23,6.94-1.75.69-2.93,1-3.49.9-.26-.04-1.16-.2-2-.35-1.85-.33-6.7-5.02-7.25-5.56-2.48-2.41-4.45-4.08-5.14-4.53-.69.11-1.43.64-1.58.93,0,.53-.04,1.43-.93,1.81-.95.41-1.65-.26-2.41-.96-1.3-1.24-1.5-2.87-1.5-7.89s0-5.24-1.25-6.18c-.49-.38-.97-.77-1.3-1.21-.78.64-1.47,1.08-2.15,1.09,1.45.32,2.57,1.09,3.03,2.17.51,1.21.1,2.5-1.12,3.45-1.35,1.07-2.77.71-4.34.18-.33-.12-.64-.2-.9-.26.23.73.76,1.78,1.5,2.47,1.75,1.65,2.05,2.53.4,4.46-1.81,2.11-1.8,5.88,0,7.6.2.19.36.33.49.43.32-.94,1.11-1.65,2.15-1.88,1.29-.29,2.7.18,3.59,1.19.73.83.97,2.25.59,3.39-.69,2.06-4.23,4.14-6.56,4.39.2.22.48.48.87.79l4.27,3.4-5.84.84c-.99.14-1.45.26-1.65.33v.02c0,1.12-.62,2.54-1.23,3.36h0c-.32.43-1.45,1.84-2.65,1.84-1.61,0-3.16-3.43-3.61-5.16-.32-.12-.88-.28-1.64-.39l-5.71-.89,4.18-3.19c.48-.37.79-.69.95-.93-1.33,0-3.18-.99-4.35-1.97-1.76-1.49-2.51-2.56-1.97-4.58.36-1.35,1.24-2.26,2.41-2.48,1.3-.26,2.7.41,3.74,1.78l.03.05.43-.48c1.5-1.63,1.6-5.2.2-7.21l-1.8-2.58,2.21-2.48c.74-.82,1.01-1.37,1.12-1.66-.07,0-.14,0-.23,0-2.26.14-3.91-.25-4.91-1.19-.65-.61-.99-1.42-.99-2.34,0-1.25.56-2.29,1.54-2.85,1.05-.6,2.41-.52,3.63.2.49.29.81.41.99.46,0-.08.02-.18.02-.32,0-.66,0-1.29.26-1.8-1.29-.71-2.11-1.58-2.11-3.32,0-.62,0-1.3.38-1.86-.78-.49-1.31-1.15-1.53-1.94-.28-.99,0-2,.79-2.83-.73-.38-1.3-.92-1.73-1.72-1.08-2.04-.63-3.25-.06-3.91.34-.4.79-.68,1.36-.84-.15-.26-.25-.54-.3-.86-.18-1.16.24-1.89.65-2.3-1.4-.31-2.65-.71-3.66-1.2-3.41-1.67-5.41-4.75-5.1-7.87.27-2.67,2.16-4.71,5.08-5.47,1.23-.33,2.34-.38,3.29-.19-.36-2.49-.41-7.29-.41-18.73,0-29.82,1.98-44.12,7.58-54.64,3-5.64,6.48-9.68,10.95-12.73,2.62-1.78,3.59-2.45,4.59-1.55.95.86.34,1.98-.43,3.4-3.15,5.8-5.58,30.81-6.2,63.72-.23,12.28-.36,17.65-.74,20.34.89-.11,1.91.02,3.04.38,2.89.9,4.71,3.05,4.87,5.75.16,2.74-1.43,5.41-4.13,7.11l9.26,8.98c3.32,3.22,5.67,5.58,7.34,7.4-.68-3.23-.79-6.52-.28-9.78,1.91-12.12,8.67-21.79,20.11-28.73,6.16-3.74,6.42-5.34,6.07-6.22-.24-.61-.53-1.01-.8-1.09-.28-.08-.8.11-1.39.52-.77.54-1.31,1.33-1.37,1.58-.27,1.69-1.32,2.01-1.75,2.08-1.44.22-2.91-1.26-4.35-4.35-.16-.34-.3-.64-.43-.89-.28,1.35-.9,2.14-1.85,2.36-1.79.42-3.08-1.67-3.5-2.35-.18-.29-.48-.79-.69-1.04-.19.08-.43.2-.55.25-1.01.48-2.73,1.06-3.93,1.3l-4.75.97,2.52-4.68c-1.19.29-3.1.6-4.67.75l-5.16.5,1.48-4.66c.48-1.5,1.19-3.76,1.57-5.01.37-1.19.82-2.41,1.8-3.03-1.71-1.3-2.91-2.89-3.14-4.32-.16-.98.12-1.87.79-2.51,1.19-1.13,2.92-.61,8.23,1.75,7.64,3.4,15.19,5.54,19.83,5.62-.34-.43-.7-.89-1.09-1.34-1.81-2.11-3.73-4.66-4.57-6.11-.13.47-.2.84-.2.97,0,.31,0,1.24-.83,1.7-.92.52-1.84-.05-2.9-.7-.55-.34-1.25-.84-1.84-1.38l.46,3.74-4.27-2.36c-1.15-.64-2.6-1.79-3.15-2.76-.26-.43-2.16-2.58-4.65-5.09-.46-.46-4.51-4.55-4.94-6.55-.18-.87-.61-2.39-.92-3.33-1.07-3.23-.84-6.24.62-8.27,1.17-1.63,3.06-2.52,5.31-2.52,2.1,0,3.9.75,5.09,2.11,1.09,1.26,1.56,2.96,1.3,4.76-.02.09-.03.18-.03.26,1.12-.23,2.69-.42,3.73-.52,1.87-.18,3.94-.67,4.63-1,1.26-.6,3.73-.93,5.41-.93,3.37,0,5.41-.89,7.04-3.06.94-1.25.9-1.36.57-2.19l-1.3-3.25,5.34-.58c5.05-.55,7.43,0,10.19,2.4,1.7,1.46,2.31,1.31,2.32,1.31s.5-.37.5-2.51c0-1.33,0-2.59.95-3.33,1.04-.8,2.47-.42,4.64.15,1.67.44,3.84,1.83,5.66,3.63l1.43,1.41.44-.82c.69-1.29,1.09-2.45,1.13-2.73,0-.69.24-1.25.73-1.61.81-.61,1.86-.3,2.36-.16,3.06.89,6.21,2.72,8.03,4.67,1.13,1.2,1.59,1.4,3.28,1.4s2.17-.16,3.81-1.7l5.07-4.8-1.07,6.35c-.55,3.25-1.82,5.66-4.53,8.58l-1.17,1.26.53.69c2.77,3.54,3.05,6.48,2.72,16.28-.33,10-.49,10.14-.95,10.59-.39.37-.75.52-1.31.33,0,.13,0,.27,0,.42,0,.92.28,2.37.58,3.13,1.65,3.99,1.86,5.23.95,6.02-.39.35-1.09.57-1.86.13-.5-.28-1.03-.59-1.55-.92.06.33.1.7.14,1.11.14,1.4.76,3.17,1.41,4.03l2.74,3.64,13.63.34c12.52.32,15.02.23,19.2-.64,4.04-.84,7.61-1.04,17.37-.94,11.16.11,12.29.03,17.11-1.3,6.64-1.82,8.16-2.67,9.87-4.6,1.97-2.21,2.78-4.89,2.23-7.33-.54-2.38-2.28-4.3-4.9-5.4-3.18-1.34-10.92-1.38-17.24-.1-13.88,2.8-26.95,2.57-34.98-.64-7.17-2.86-8.01-3.03-9.12-2.63-1.29.46-2.01,1.66-2.15,3.57-.06.74-.22,2.97-1.82,2.98h0c-.48,0-1.07,0-3.09-2.77-2.36-3.23-2.54-7.6-.43-10.88l.71-1.1-1.2-1.42c-6.84-8.09-6.69-17.28.38-24,3.94-3.74,10.92-7.13,16.99-8.23,5.49-1,17-.38,22.39,1.2,8.34,2.46,19.82,9.13,29.27,17.01,5.36,4.47,8.81,6.83,10.26,7.01h0c-.38-1.62-.02-2.92,1.19-4.39,1.25-1.5,3.01-2.26,4.82-2.08,1.87.18,3.51,1.31,4.49,3.11,1.45,2.65,1.45,5.55.03,7.95-1.55,2.62-4.54,4.17-7.99,4.17-5.04,0-8.55-1.62-13.91-6.43-3.48-3.13-6.35-5.45-8.1-6.73.53,1.86,1.54,4.33,2.07,4.82.48.38,1.82,1.4,1.09,2.62-.66,1.13-1.96,1-5.57-.54-3.19-1.37-5.86-3.5-7.45-5.93-.48,1.2-1.31,2.73-2.05,3.52-1.42,1.5-5.09,3.16-7.02,3.16-.33,0-1.32,0-1.76-.89-.48-.98.18-1.86.95-2.89.58-.77,1.4-2.6,1.75-3.92.56-2.11.53-2.35-.51-4.39-1.02-1.99-2.32-3.24-4.6-4.35,1.35,2.92,1.11,7.7-.59,10.31-1.63,2.51-4.8,4.55-8.09,5.21l-4.96.99,3.09-5.12c1.67-2.77,1.81-6.6.33-8.92-1.36-2.11-5.92-4.8-7.66-4.8h-.2c.03.32.08.71.12.99.38,2.87-.9,6.69-3.04,7.13-.32.07-1.92.27-2.55-2.01-.1-.38-.35-.66-.74-.87-.89-.48-2.29-.47-3.76.02-2.25.74-3.79,2.29-4.24,4.25-.44,1.93.24,3.96,1.9,5.57.5.49.94.89,1.29,1.19.13-.18.27-.39.41-.64,1.14-1.91,3.27-3.36,5.82-3.98,2.5-.6,4.98-.29,6.81.84l3.64,2.26-4.87,2.32c-3.57,1.7-3.51,3.57-2.97,5.16.28.84.78,1.85,1.16,2.46,1.43-1.91,4.63-4.77,6.23-4.27,1.03.33,1.72,1.47,1.87,2.43.42,2.6.58,2.86,2.66,3.96,2.01,1.07,2.79,1.24,8.83,1.22,3.77-.02,9.25-.48,12.48-1.05,3.31-.59,9.1-1.09,12.92-1.11,6.43-.04,7.48.12,11.24,1.75,6.03,2.62,9.96,7.4,10.77,13.14.8,5.63-1.57,11.21-6.5,15.3l-2.2,1.82,1.71,2.28c1.41,1.89,3.34,5.3,4.3,7.6,1.57,3.79,1.77,5.11,1.75,11.86-.02,8.33-.53,10.7-4.96,23.05-4.19,11.66-4.76,18.58-2.04,24.67,1.17,2.62,2.98,4.32,4.61,4.32,2.29,0,2.98,1.38,3.18,1.97.71,2.21-1.29,5.47-4.97,8.11-3.72,2.66-4.3,3.94-4.25,6.68.03,2.15.9,4.09,3.74,8.33.62.93,1.53,2.83,1.02,4.1-.19.48-.67,1.11-1.83,1.4-2.01.48-6.01-.31-7.96-2.01-.06-.05-.12-.1-.17-.14-.67,1.03-1.69,1.77-2.92,2.11-1.98.54-4.25,0-6.07-1.43l-.93-.74-.89.73c-1.57,1.28-3.43,1.87-5.11,1.64-1.3-.18-2.42-.87-3.16-1.93l-.25-.37-1.14.73c-2.14,1.37-3.8,2.11-4.99,1.25-.17-.12-.3-.26-.42-.42-.54.34-1.44.79-2.7.79Zm-114.26-3.75l.66,1.15-.66-1.15,3.11-1.8,1.6,2.16c.23.3.69.53,1.28.62,1.15.18,2.53-.19,3.52-.93l2.54-1.89,2.21,1.96c1.35,1.21,4.11,1.18,5.77-.07,1.71-1.27,2.7-1.71,4.42-.24.27.23,1.66.79,3.24,1,.89.12,1.72.23,1.95.12.24-.12.74-.87,1.28-1.66,1.25-1.88,1.32-2.4,1.06-3.96-.23-1.39-.47-3.58-.53-4.9-.18-3.23.58-3.6,4.17-4.85,1.97-.69,3.99-1.51,4.63-1.86.78-.42,2.77-2.64,3.8-4.05-.4-.08-.89-.15-1.48-.22-3.78-.43-6.11-1.66-7.1-3.78-1.14-2.41-.33-5.67,2.46-9.95,7.4-11.36,11.84-22.28,11.87-29.21.02-3.48.13-4.72,1.35-5.06.52-.15,1.25,0,1.73.8,2.15,3.63-1.39,16.23-5.86,24.63l-.38.7c1.92-.75,5.93-2.44,11.16-4.8,16.45-7.45,22.33-8.96,33.08-8.51,9.21.38,13.27,2.25,19.76,9.06,3.21,3.37,6.37,5.82,12.07,9.39,12.73,7.97,13.53,9.02,14.15,18.63.62,9.61.23,10.94-7.75,12.7-3.72.82-8.34,2.64-9.63,6.63.36-.18.84-.45,1.5-.87l3.29-2.11,1.71,2.47c.32.45.77.73,1.35.81.94.13,2.06-.26,3.05-1.07l2.56-2.08,2.6,2.07c1.15.92,2.53,1.27,3.7.95.55-.15,1.29-.53,1.64-1.45.21-.56.64-.96,1.19-1.1,1.01-.26,1.93.45,2.72,1.14,1.33,1.16,4.39,1.68,5.49,1.46-.08-.34-.29-.89-.68-1.46-3.16-4.74-4.14-7.02-4.18-9.76-.07-3.87,1.14-5.86,5.36-8.88,3.39-2.42,4.19-4.74,3.98-5.15-.03-.03-.22-.11-.64-.11-2.77,0-5.4-2.21-7.04-5.9-3.03-6.79-2.48-14.26,1.96-26.65,4.34-12.07,4.79-14.15,4.8-22.15.02-6.4-.13-7.41-1.55-10.84-.87-2.1-2.69-5.31-3.97-7.03l-3.23-4.31,4.14-3.43c4.2-3.48,6.23-8.18,5.57-12.88-.69-4.79-4.04-8.82-9.2-11.07-3.36-1.46-4.13-1.57-10.16-1.53-3.69.03-9.28.51-12.47,1.07-3.36.6-9.05,1.09-12.94,1.09-6,.03-7.4-.09-10.09-1.53-2.81-1.5-3.49-2.49-4.03-5.89,0-.03,0-.06-.02-.08-1.11.67-3.31,2.69-3.63,3.53-.11.29-.45,1.17-1.39,1.33-1,.18-1.7-.64-2.2-1.24-.66-.79-1.5-2.39-1.94-3.74-.82-2.49-.74-5.97,4.35-8.4l.43-.21c-1.17-.52-2.72-.61-4.25-.23-1.84.44-3.39,1.48-4.17,2.77-1.42,2.35-2.07,2.36-2.5,2.36-.43.03-.89,0-3.33-2.38-2.33-2.27-3.28-5.22-2.62-8.07.67-2.88,2.86-5.14,6.01-6.18,2.17-.72,4.31-.66,5.85.17.87.47,1.5,1.14,1.86,1.97.39-.81.76-2.16.58-3.53-.2-1.52-.33-2.52.34-3.28.62-.71,1.51-.71,2.38-.71,2.76,0,8.11,3.27,9.89,6.02,2.05,3.18,1.95,7.94-.23,11.62,2.22-.69,4.31-2.14,5.39-3.79,1.25-1.93,1.4-5.96.28-7.98-.74-1.35-1.52-2.76-.61-3.78.86-.96,2.24-.39,3.07-.05,3.6,1.5,5.58,3.2,7.06,6.09,1.34,2.61,1.44,3.55.71,6.28-.33,1.25-.95,2.76-1.58,3.87,1.24-.48,2.59-1.23,3.16-1.84.42-.44,1.21-1.82,1.64-2.99l1.85-5.05,2.38,4.31c1.23,2.23,3.64,4.24,6.63,5.52.07.03.13.06.19.08-.99-2.1-1.8-4.9-1.86-6.18-.03-.48,0-1.19.53-1.7.79-.76,1.63-1.53,12.35,8.09,4.85,4.35,7.8,5.76,12.13,5.76,2.51,0,4.64-1.07,5.7-2.87.94-1.58.91-3.53-.07-5.32-.55-1-1.43-1.64-2.41-1.73-.94-.09-1.84.31-2.52,1.13-.75.9-.81,1.4-.65,2.07.18.78.41,1.75-.21,2.52-.6.75-1.57.75-2.21.75-1.8,0-4.55-1.3-12.14-7.64-9.18-7.67-20.31-14.15-28.32-16.5-5-1.47-16.07-2.07-21.16-1.14-5.51,1.01-12.09,4.19-15.63,7.55-6.03,5.74-6.1,13.35-.18,20.36l2.47,2.92-1.77,2.76c-1.52,2.36-1.38,5.52.34,7.87l.23.3c.4-2.5,1.73-4.26,3.79-5.01,2.12-.77,3.48-.33,11.01,2.67,7.56,3.02,20.07,3.21,33.47.5,6.99-1.41,15.07-1.3,18.79.26,3.38,1.41,5.74,4.06,6.47,7.26.75,3.28-.28,6.81-2.83,9.68-2.23,2.51-4.31,3.52-11.16,5.4-5.11,1.4-6.44,1.5-17.84,1.39-9.53-.09-12.99.09-16.8.89-4.39.92-7.16,1.01-19.81.69l-10.6-.27c.45.33.87.6,1.14.76.64.36,1.5.86,1.41,1.88h0s1.19.82,1.19.82l-1.75.25c-.39.32-.97.53-1.61.77-1.24.46-3.61.73-5.19.73h-1.85l-.23,1.41c-.22,1.35-.14,2.64-.04,2.92.18.43.58,1.45-.14,2.2-.74.76-1.75.38-2.25.21-.51-.18-2.11-.61-3.71-.94-1.63-.34-3.75-1.03-4.82-1.55-.13-.06-.41-.2-.65-.3,0,.02-.02.03-.03.05-.57,1.01-5.97,5.39-7.5,5.39-1.45,0-1.58-1.71-1.67-2.84-.05-.58-.64-2.66-1.52-4.71-.38-.9-.78-1.85-1.11-2.67-.03.11-.05.23-.07.34-.24,1.3-1.07,3.29-1.88,4.55l-2.59,4.02-1.86-3.87c-.4-.83-.89-1.6-1.31-2.17-.9,1.94-4.14,6.18-5.87,6.18-1.1,0-1.71-.96-1.86-2.93-1.17,1.51-2.83,2.93-3.95,2.93-.03.02-.37.19-.57.43-1.51,1.73-2.69,1.33-3.13,1.08-.31-.18-1.27-.89-.68-2.68.08-.28.04-1.43-.32-2.54l-.69-2.16c-.37.07-.99.22-2.06.55-3.01.96-4.77,1.25-5.46-.05-.69-1.29.69-2.36,1.21-2.77.32-.25,1.28-1.73,1.9-3.54.18-.51.48-1.33.88-2.11-.9.64-1.88,1.27-2.89,1.88-10.9,6.6-17.06,15.39-18.87,26.86-1.59,10.11,3.46,20.66,13.5,28.24,3.33,2.51,7.56,4.82,9.86,5.81-1.51-6.53-1.68-17.79.99-20.33.47-.44,1.15-.53,1.7-.23.89.52.96,1.55.26,4.36-1.67,6.74-.94,12.1,3.45,24.96,3.63,10.65,4.34,17.65-2.82,21.83-2.19,1.28-3.72,1.45-8.65,1.38-5.33-.07-5.5.08-6.82,1.13-1.15.92-2.78,4-3.22,5.88.35-.13.85-.37,1.54-.76Zm107.58-2.3l3.29,2.11c1.99,1.28,3.64,1.62,4.53.94.97-.75,1.57-3.23.08-7.72-1.53-4.6-.66-7.4,4.06-13,1.58-1.87,2.63-3.52,2.98-4.24-.46-.03-1.1,0-1.37,0-2.6.05-3.72-.23-5.35-2.02-1.75-1.92-3.11-5.11.31-9.39l.93-1.15-2.05-1.39c-1.86-1.25-5.15-4.19-7.34-6.53-4.57-4.87-9.03-7.17-14.92-7.7l-2.73-.24v1.7c0,3.73,1.86,7.46,6.85,13.8,6.11,7.77,6.63,9.22,6.87,19.37l.22,8.93-2.15,2.04c-1.91,1.8-3.06,2.02-8.1,2.31-4.64.27-5.31.49-6.36,1.43-1.6,1.42-2.04,2.08-2.52,3.94.53-.19,1.32-.56,2.11-1.07l3.13-2.01,2.28,2.16c1.47,1.39,2.98,1.36,4.4-.08,1.79-1.83,2.31-1.77,2.73-1.73l.64.07.38.57c.08.13.47.79.85,1.45.22.38.94.61,2.16.69,1.78.13,1.84.03,2.35-.7l1.75-2.53Zm14.33-24.6c1.27,0,2.13.11,2.75.71.63.62.63,1.45.63,1.8,0,1.64-3.1,5.39-3.72,6.12-4.4,5.21-4.72,7-3.57,10.45.5,1.5.82,2.89.95,4.16,2.03-2.28,5.26-3.95,9.57-4.9q6.22-1.37,5.67-9.93c-.55-8.5-.57-8.83-12.91-16.55-.52-.33-1.02-.64-1.5-.95l-1.59,1.99c-2.41,3.02-1.49,4.76-.42,5.95.89.99,1.16,1.19,3.33,1.15.28,0,.55,0,.81,0Zm-167.81.77c2.98.53,3.38,1.45,3.38,2.19.03.48.72,2.01,1.27,2.88.1-.11.21-.24.32-.38h0c.41-.55.7-1.45.7-1.78,0-2.31,1.91-2.69,3.69-2.95-1.48-1.32-2.05-2.54-1.66-3.62.19-.53.77-1.45,2.55-1.45,1.55,0,4.19-1.78,4.46-2.6.09-.28,0-.69-.08-.79-.29-.33-.73-.42-1-.35-.2.04-.22.13-.23.16-.12.42-.47,1.69-1.65,2.01-1.16.33-2.22-.48-3.18-1.39-2.84-2.69-2.94-8.06-.2-11.26.07-.08.18-.21.28-.33-.16-.16-.35-.34-.48-.47-1.36-1.29-2.47-3.57-2.47-5.08,0-.87.34-1.38.64-1.65.24-.23.98-.94,3.93.08,1.5.51,1.65.38,1.83.25.28-.22.32-.35.32-.35-.08-.22-1.09-.89-2.9-.64-.73.1-2.91.4-3.55-1.51-.21-.19-.88-.58-1.8-.81-.26-.07-.53-.13-.78-.19,0,1.61-.69,2.34-1.27,2.67-1.43.81-3.18-.22-3.76-.56-.47-.28-.81-.27-.96-.18-.18.1-.2.41-.2.53,0,.22.06.32.15.4.16.14.82.61,2.92.48,1.89-.11,2.62.79,2.89,1.34.42.86.48,2.37-1.62,4.74l-.81.92.6.86c2.13,3.06,1.93,7.97-.43,10.53l-2.6,2.82-1.96-2.59c-.47-.63-.92-.81-1.1-.77-.13.03-.27.25-.34.55-.17.63-.2.75,1.12,1.87.99.84,2.27,1.35,2.64,1.35,1.98,0,2.57,1.12,2.73,1.6.37,1.07-.13,2.31-1.39,3.49Zm.72,2.19c0,.06,0,.11,0,.17,0-.07,0-.12,0-.17Zm37-12.05h.02s0,0-.02,0Zm-14.56-10.49c.39,0,1.3,0,6.74,5.31,2.87,2.81,5.33,4.65,5.92,4.85.65.11,1.4.24,1.75.3.29-.06,1.14-.3,2.22-.73h0c1.84-.72,5.52-3.8,6.54-5.1-.43-.51-1.3-1.44-2.56-2.58-3.89-3.52-7.96-9.25-9.07-12.78-.52-1.62-4.27-5.49-10.15-11.2l-6.83-6.62c-.13.55-.38,1.1-.67,1.59.07.06.13.12.18.19.89,1.04.58,3.16-.26,4.59l.05.05c.91.91,1.04,3.08.28,4.39-.08.14-.11.43.03.67.8,1.45.37,3.74-.81,5.07.09.08.2.16.33.26,2.3,1.74,2.3,2.48,2.3,8.3,0,2.79.07,4.31.28,5.15.89-1.02,2.41-1.71,3.73-1.71Zm-17.26-8.85s0,0,0,0c0,0,0,0,0,0Zm2.5-.9c.14,0,.37,0,.74-.06.71-.1,1.4-.1,2.04-.03-.03,0-.06-.03-.09-.03-.28-.13-.48-.29-.64-.49-.54.31-1.26.49-2.07.57,0,0,0,.03.02.04Zm-6.89-5.16v.07c0,.53,0,.7,1.83,1.5,2.41,1.05,4.8,1.04,5.61.75-.49-.6-2.43-1.79-5.77-2.16-.58-.07-1.23-.14-1.67-.17Zm-.24-4.99c-.33,0-.57.03-.7.09-.22.18-.32.38-.3.43.07.23.68.78,2.1.94,1.33.16,3.08.55,3.99.9,1.61.63,2.75.36,2.93.15v-.03s-.15-.23-1.28-.74c-2.76-1.24-5.43-1.75-6.73-1.75Zm-2.51-5.48c.02.15.09.46.34.94.23.44.58.83,2.52,1.12,1.58.23,3.74.7,4.83,1.04,2.22.69,2.78.31,2.79.3l.02-.08h0c-.64-.56-4.02-1.75-6.29-2.55-2.83-1.01-3.93-.84-4.21-.76Zm1.61-3.87v.02c.1.12.74.57,3.6,1.46,3.77,1.18,4.92,1.21,5.26,1.11,0-.02,0-.05.02-.08-.1-.16-.92-1.22-5.79-2.26-2.02-.43-2.82-.33-3.09-.25Zm10.45-.58l.28.22.74-.42c-.33.07-.69.13-1.02.2Zm-13.93-13.48c-.43,0-.92.08-1.49.23-1.82.48-2.96,1.63-3.11,3.17-.2,2,1.22,4.04,3.62,5.21,4.37,2.14,14.16,2.27,18.7.25h0c2.56-1.14,4.14-3.23,4.01-5.31-.09-1.57-1.19-2.79-3.01-3.37-2.41-.75-2.89.12-3.18.64-.23.41-.18,1.14-.04,1.5.87.21,1.5,1.09,1.5,2.19,0,.63-.26,1.54-1.5,2.31-2.72,1.67-9.8,2.16-13.32.38-1.42-.72-2.34-2.3-2.05-3.51.18-.74.74-1.25,1.48-1.37.13-.28.23-.86.08-1.3-.23-.68-.79-1.01-1.69-1.01Zm4.38,4.49c1.66.38,6.42.23,8.46-.28-.52-.56-.84-1.23-.91-1.96-.13-1.17.33-2.41,1.38-3.69.78-.95.92-4.69,1.24-21.69.58-30.96,2.72-54.43,5.68-62.96-3.9,2.78-6.89,6.33-9.59,11.42-5.36,10.09-7.26,24.06-7.26,53.39,0,16.1.12,18.72.89,19.99,1.13,1.86,1.21,2.86.42,4.85-.14.36-.24.68-.3.92Zm63.37-13.39l.03,3.33c0,.44.28,2.06.73,3.65l.34,1.25.54-.25c1.55-.72,3.14-3.53,3.14-5.57,0-1.91,1.25-2.14,1.5-2.17.38-.04,1.66,0,2.14,2.16.06.28.46,1.6.97,3.15l.09.28c.6-.82,1.33-2.23,1.64-3.21.41-1.3,1.35-3.47,2.94-3.22.33.05,1.41.35,1.41,2.1.1.44,1.07,1.88,1.86,2.82.15-.45.32-1.02.48-1.67.4-1.64,1.53-5.53,3.4-6.33.56-.23,1.18-.21,1.69.09.49.28.84.76.97,1.29.08.33.07.66-.03.97.11.55.58,2.11,1.49,4.31.8,1.95,1.61,3.91,2.05,4.98.41-.33.89-.76,1.14-.97,1.36-1.2,2.31-2.3,2.47-2.57.05-.16.3-.91,1.11-1.2.93-.33,1.85.23,2.66.74,1.29.8,4.95,1.95,6.64,2.28.06-.53.12-1.3.14-2.25l.13-4.86,3.32.69c.63.13,2.09.16,3.43.03-1-.72-2.56-1.97-3.07-2.83-.08-.08-.74-.43-1.88-.53-2.63-.23-7.53-2.27-9.98-4.55-.25.64-.52,1.16-.73,1.41-.9,1.06-2.18.26-4.17-1.18l-.11-.08v.27c0,1.48-.16,3.58-.43,4.53-.43,1.5-1.46,2.41-2.56,2.26-.68-.09-1.46-.65-1.52-1.92-.32-.6-2.13-2.36-4.44-3.71-.19-.11-.36-.21-.5-.29-.34,1.86-1.27,5.36-2.98,5.36-1.4,0-2.02-1.8-2.23-2.58-.17-.63-1.03-2.2-1.93-3.37l-.6-.77-.33.52c-1.03,1.57-3.13,3.81-4.85,4.33l-.73.79-.09-.69h-.47l-.47-.49c-.19-.22-.61-.7-.42-2.68-.69.83-1.49,1.61-2.2,2.1l-.75,1.17-.25-.69c-.06,0-.12.02-.17.02-.69,0-1.67-.34-2.14-3.33-.18-1.2-.5-3.1-.71-4.22-.26-1.41.38-1.89.94-2.04,1.36-.37,1.82.93,2.57,3.06l.43,1.19c.72-1.12,1.18-2.12,1.25-2.43.03-.65.34-1.21.86-1.51.53-.3,1.18-.28,1.74.04.77.45,1.33,1.91,1.67,4.33l.03.2c.8-.91,1.6-1.93,1.86-2.36.39-.64.8-1.3,1.65-1.43.03,0,.06,0,.09,0l.29-.44.39.51c.53.16,1.01.58,1.65,1.11.72.61,1.7,1.83,2.44,3.02.3-2.26.33-2.38.34-2.43l.18-.74.75-.24c.79-.23,2.62.8,4.31,1.96l-.28-.72c-.16,0-.29-.03-.39-.06-.34-.09-1.44-.52-1.47-2.3-.2-.7-1.75-2.73-2.72-3.68-.18.26-.4.59-.64,1-1.55,2.72-2.21,2.77-2.7,2.72-1.75-.02-6.95-6.12-6.95-7.6,0-1.21.68-1.6,1.08-1.72,1.18-.35,1.92.79,2.52,1.7.57.87,1.75,2.21,2.58,2.93.26.23.45.37.58.46.12-.26.28-.74.48-1.65.4-1.75,1.1-2.64,2.08-2.64,1.4,0,4.31,3.2,5.82,5.25.32-.53.79-.99,1.5-1.06,1.4-.14,2.12,1.39,2.43,2.04.19.37,1.56,1.7,3.48,2.93l1.85,1.18.14-.47c.65-2.08,1.45-2.42,2-2.5.58-.08,1.14.18,1.46.69.19.29.27.74.27,1.25.5.24,1.12.7,1.96,1.46,2.08,1.91,4.98,3.18,7.52,3.3-.84-1.29-1.54-3.3-1.71-5.06-.22-2.17-.23-2.26-2.72-3.99-1.75-1.21-3.84-2.97-4.76-4.01l-.08-.09h0c-1.03,2.69-1.78,2.92-2.41,2.92-.31,0-.94,0-2.78-1.86-.22-.22-.42-.41-.6-.58-.18.31-.41.71-.65,1.19l-2.24,4.42-2.21-3.26c-.46-.68-1.61-1.95-2.51-2.76-1.47-1.34-1.91-2.18-1.59-3.02.21-.55.74-.9,1.35-.9.79,0,2.01.82,3.62,2.44l.79.8c.33-.62.45-1.65.29-2.42-.26-1.3-.48-2.41.65-2.86.04-.02.08-.03.13-.04l-2.2-3.43c-.15-.23-.28-.42-.38-.58-.07.15-.14.33-.23.55-.53,1.4-1.16,2.77-2.49,2.82-.39.02-.74-.09-1.02-.28l-.71,4.35-6.21-4.82-.39.45c-.49.56-.84,1.15-.91,1.38-.07,1.14-.77,1.58-1.08,1.71-.8.36-1.74.11-2.77-.76-3.76-3.14-5.06-4.35-4.92-6.69l.09-1.65,2.64-.13.26,1.6c.08.45.82,1.59,2.02,2.53l1.26.99.56-.65c.61-.71.99-1.37,1.09-1.62.02-.46.11-1.33.96-1.7,1.05-.47,1.77.15,4.12,2.19.22.19.45.39.67.58,0-.5-.08-1.1-.22-1.57-.54-1.86-.97-3.33.28-3.95,1.2-.59,2.08.62,2.62,1.35.36.49.88,1.13,1.34,1.66.08-.57.14-1.21.15-1.69l.03-5.16,4.45,5.04c.23.25.54.61.84.93.15-.56.28-1.4.29-2.17,0-1.2,0-2.56,1.19-2.92.32-.1,1.14-.22,1.81.79.27.4.43.89.49,1.46.71.24,1.73.84,3.26,2.03.48.38.89.68,1.2.9,0-1.38-.27-3.96-.85-6.23-.23-.91-.5-1.95.48-2.51,1.01-.58,1.65.05,3.18,1.58,1.5,1.5,2.33,3.25,2.94,6.24.64,3.14.86,3.48,3.83,6.09.65.57,1.23,1.05,1.71,1.45.1-1.63.22-4.14.32-7.31.02-.43.03-.84.04-1.24-.78-.35-1.77-1.21-3.17-2.47-2.65-2.38-2.66-3.28-2.67-3.62,0-.42.15-.79.45-1.08.45-.43,1.01-.64,1.54-.56.42.06.79.28,1.03.62.18.22,1.11,1.19,2.47,2.58l.42.42c-.03-5.61-.66-7.14-2.26-9.21l-1.93-2.47,2.71-2.92c1.88-2.03,2.92-3.69,3.51-5.67-1.59,1.35-2.74,1.71-4.84,1.71-2.41,0-3.58-.5-5.21-2.24-1.46-1.55-4.12-3.1-6.65-3.88-.34,1.34-1.27,3.07-1.32,3.16l-2.12,3.94-3.95-3.9c-1.48-1.46-3.23-2.62-4.47-2.94-.62-.16-1.66-.43-2.22-.51-.03.35-.03.88-.03,1.11,0,.99,0,3.98-2.06,4.92-2.08.95-4.4-1.06-5.16-1.72-2.01-1.74-3.55-2.27-8.16-1.76l-1.87.21h0c.79,2,.36,3.08-.91,4.78-2.14,2.85-4.97,4.12-9.17,4.12-1.64,0-3.59.35-4.25.67-1.18.56-3.74,1.08-5.52,1.25-1.97.19-3.74.5-4.1.64-.33.13-1.23.46-1.98-.15-.85-.69-.69-1.87-.49-3.24.15-1.05-.08-1.96-.68-2.65-.68-.78-1.77-1.2-3.08-1.2-1.39,0-2.48.49-3.15,1.42-.96,1.33-1.05,3.48-.25,5.88.34,1.03.79,2.65.99,3.61.13.47,1.54,2.55,4.21,5.23,1.75,1.75,4.55,4.7,5.09,5.65.17.29.95,1.03,1.85,1.58-.1-1.04-.11-2.5,1.09-2.98,1.33-.54,2.37.84,2.82,1.43.3.39,1.21,1.19,2.04,1.72.15-.6.35-1.22.55-1.72l1.75-4.34,2.49,4.81c.53,1.02,2.43,3.66,4.44,5.98,2.69,3.12,7.14,9.63,4.68,11.96-.98.93-2.7.79-5.55.22-2.06-.41-4.37-.58-5.16-.47-1.11.15-2.51.34-3.13-.75h-.35s.21-.32.21-.32c-.29-.93.38-1.84.94-2.56h-.4c-3.32,0-11.28-1.54-14.44-2.78-1.55-.61-1.91-.56-1.98-.53-.06.03-.29.26-.7,1.59-.38,1.25-1.09,3.5-1.57,5.01l-.26.83,1.15-.11c1.64-.16,3.79-.52,4.7-.79,2.34-.7,2.88-.43,3.29-.05.7.67.59,1.48-.54,3.64.87-.24,1.86-.59,2.47-.89,2.49-1.2,3.25-.47,4.65,1.78.2.33.38.56.52.74.03-.12.04-.26.06-.42.08-.8.28-2.67,1.77-2.92,1.42-.25,2.39,1.2,3.59,3.77.5,1.08.95,1.8,1.3,2.25.43-.98,1.38-1.99,2.25-2.6,1.32-.93,2.56-1.23,3.69-.89,1.1.33,1.95,1.23,2.52,2.67.74,1.91,0,3.65-1.55,5.29.62.03.97.36,1.14.6.67.94-.05,1.91-.63,2.69-.45.62-.74,1.32-.77,1.53,0,.59-.28,1.43-.59,2.15.05-.03.09-.04.14-.07l4.75-2.29Zm21.91-9.03c1.53,1.09,2.78,2.11,2.82,2.14.17.15.33.28.48.4.02-.35.03-.75.03-1.19,0-2.24-.18-2.54-1.38-3.63-.18-.17-.4-.36-.6-.53-.28.44-.56.77-.84,1l-.5,1.8Zm13.58-16.19c.39.35.62.9.84,1.44.49,1.19,4.38,4.69,8.83,7.55-.16-.41-.34-.89-.58-1.44-.44-1.06-.79-2.88-.79-4.14,0-1.01-.09-1.4-2.01-2.87-2.38-1.81-3.63-3.31-4.38-5.54-.1.5-.22.94-.37,1.3l-1.55,3.69Zm-46.22,5.38h.25c1.59.05,3.71.29,4.84.56.47.11.9.22,1.25.3-.13-.43-.34-.98-.64-1.6-.9-1.94-.99-1.94-1.86-1.94-1.07,0-2.28-.1-3.58-.29.11.11.21.24.29.4.43.84.06,1.64-.56,2.57Zm37.49-6.31c.8,0,1.29.79,1.6,1.31.28.46,1.35,1.59,2.36,2.41l.7.57.58-1.05c1.01-1.86,1.45-2.67,2.47-2.67l-1.19-3.06c-.14-.36-1.18-1.57-2.57-2.49-.45-.3-.84-.57-1.15-.81-.26.86-.62,1.71-1.03,2.48l-1.76,3.32Zm-60.1-4.28c.14.69,1.45,2.56,4.21,3.83,2.94,1.35,11.33,3.06,15.41,3.18-4.24-.96-9.22-2.67-14.31-4.94-1.07-.48-4.14-1.86-5.31-2.06Zm33.53-9.68c-.17,0-.34,0-.51-.03-1.49-.13-2.82-.81-3.58-1.82h0c-1.68-2.27-1.56-4.09.42-6.48,1.45-1.75,2.41-2.1,4.86-1.78,1.63.21,4.65,1.53,6.64,2.69,2.26,1.33,4.58,2.21,6.34,2.42.16.02.32.03.47.06-.08-.11-.15-.23-.23-.35-1.46-2.19-2.26-3.39-1.22-4.35,1.01-.93,2.16-.02,3.48,1.04,2.06,1.64,4.6,2.11,10.5,1.93-.55-.56-1.09-1.17-1.35-1.78-.44-.07-.89-.22-1.21-.53h0c-.88-.84-.84-1.57-.66-2.05.48-1.25,1.92-1.32,5.41-1.39,4.8-.09,7.58-.84,10.99-3,1.76-1.11,3.55-2.09,4.43-.76.9,1.37-.86,2.59-2.04,3.4-2.67,1.84-6.79,3.25-10.77,3.68-.68.08-1.36.15-1.99.23.14.12.29.24.43.38,1.26,1.09,2.36,2.05,2.01,3.28l1.01,1-1.83.06c-.86.5-2.39.66-4.93.91-2.16.22-4.48.1-6.5-.32.05.18.08.35.08.54,0,.58-.29,1.09-.81,1.4-1.87,1.15-8.39-.4-10.93-1.69-1.98-1-3.45-1.74-4.57-2.26.03.12.07.23.09.36.28,1.31.06,3.09-1.04,4.13-.73.68-1.8,1.06-3,1.06Zm-.83-6.43c-.42.27-.79.68-.94,1.04-.43,1.14.67,1.75.79,1.81.25.13,1.12.48,1.68-.36.02-.03.03-.05.04-.08-.05-.08-.16-.23-.39-.48-.51-.53-1.15-1.21-1.19-1.95Z"/>
      </g>
      <g id="path3018">
        <path class="cls-5" d="m287.1,245.68l2.08-1.2.89,1.2c1.19,1.6,4.48,1.59,6.66-.03l1.67-1.25,1.4,1.25c1.84,1.64,5.26,1.64,7.45,0,1.54-1.14,1.75-1.16,2.76-.29.6.52,2.37,1.11,3.94,1.31,2.82.37,2.86.34,4.5-2.12,1.38-2.07,1.6-2.91,1.26-4.91-.22-1.33-.45-3.47-.52-4.75-.13-2.33-.11-2.34,3.28-3.53,1.87-.65,4.04-1.53,4.82-1.94,1.35-.73,5.09-5.11,5.09-5.98,0-.23-1.46-.58-3.24-.78-7.09-.79-8.29-4.6-3.69-11.68,7.52-11.54,12.06-22.77,12.09-29.93.02-3.2.19-4.27.61-3.58,1.68,2.84-1.33,14.77-5.89,23.32l-1.84,3.44,1.75-.4c.96-.23,6.63-2.62,12.58-5.31,16.31-7.39,21.92-8.83,32.47-8.39,8.85.38,12.61,2.1,18.86,8.65,3.31,3.47,6.49,5.95,12.33,9.6,12.42,7.77,12.94,8.45,13.53,17.59.6,9.27.3,9.77-6.71,11.31-5.99,1.32-9.74,4.11-10.75,8-.53,2.07.59,2.13,3.61.19l2.21-1.42.99,1.42c1.3,1.87,4.04,1.88,6.33.02l1.72-1.4,1.76,1.4c2.74,2.18,6.38,1.65,7.41-1.08.2-.53.73-.36,1.8.57,2,1.74,7.13,2.48,7.69,1.12.21-.52-.19-1.81-.89-2.87-2.98-4.48-3.92-6.61-3.95-9.05-.06-3.38.95-5.02,4.81-7.78,4.68-3.35,6.12-7.66,2.57-7.66-2.2,0-4.41-1.95-5.82-5.11-2.87-6.43-2.31-13.65,2.01-25.65,4.38-12.19,4.86-14.44,4.88-22.59.02-6.59-.15-7.73-1.65-11.35-.92-2.21-2.77-5.5-4.14-7.31l-2.47-3.29,3.17-2.62c9.68-8.01,7.7-21.13-3.95-26.19-3.57-1.55-4.45-1.68-10.7-1.64-3.74.03-9.46.52-12.69,1.09-3.3.59-8.88,1.06-12.71,1.08-6.08.03-7.12-.13-9.46-1.37-2.45-1.3-2.87-1.92-3.34-4.93-.1-.62-.53-1.24-.96-1.37-.84-.26-4.67,3.08-5.24,4.55-.28.73-.51.68-1.33-.29-.54-.64-1.3-2.13-1.69-3.29-.97-2.93.22-5.13,3.67-6.78l2.67-1.28-1.58-.98c-3.26-2.02-8.79-.64-10.8,2.7-.57.94-1.19,1.71-1.37,1.72-.19,0-1.27-.89-2.39-2-4.2-4.11-2.76-10.19,2.87-12.04,3-.99,5.65-.23,6.2,1.76.84,3.05,3.46-.96,2.99-4.58-.31-2.41-.27-2.49,1.4-2.49,2.31,0,7.25,3.04,8.77,5.41,1.77,2.75,1.65,7.09-.31,10.32l-1.53,2.54,2.01-.4c2.93-.58,5.79-2.41,7.24-4.63,1.53-2.34,1.69-6.89.33-9.35-1.31-2.38-1.16-2.76.78-1.96,3.3,1.37,5.06,2.88,6.38,5.46,1.19,2.33,1.25,2.91.61,5.33-.4,1.5-1.29,3.47-1.96,4.38-1.06,1.42-1.1,1.65-.25,1.65,1.58,0,4.88-1.5,6.05-2.74.59-.63,1.45-2.18,1.92-3.45l.84-2.31.97,1.75c1.37,2.48,4.03,4.71,7.27,6.11,3.48,1.5,4.94,1.58,3.12.18-1.23-.94-3.49-7.6-2.81-8.24.4-.38,5.14,3.26,10.55,8.11,5.11,4.59,8.33,6.09,13.03,6.09,6,0,9.49-5.22,6.79-10.16-1.57-2.88-5.07-3.28-7.12-.81-.94,1.14-1.2,2.04-.93,3.23.34,1.45.21,1.65-1.12,1.65-1.75,0-5.18-2.23-11.29-7.33-9.31-7.77-20.62-14.36-28.79-16.76-5.24-1.55-16.44-2.15-21.77-1.17-5.77,1.05-12.59,4.35-16.31,7.89-6.58,6.26-6.69,14.59-.28,22.18l1.84,2.17-1.25,1.93c-1.81,2.81-1.65,6.59.38,9.38.89,1.23,1.8,2.23,2.01,2.23s.43-.79.51-1.75c.18-2.44,1.23-4.07,3.02-4.72,1.61-.58,2.67-.31,10.07,2.65,7.79,3.11,20.6,3.33,34.22.57,6.68-1.35,14.55-1.27,18.02.18,6.35,2.66,7.82,9.58,3.15,14.83-2.02,2.27-3.97,3.2-10.51,5-4.98,1.37-6.16,1.45-17.47,1.35-9.67-.09-13.14.09-17.09.91-4.29.89-6.92.99-19.5.67l-14.55-.37,1.61,1.34c.89.74,2.14,1.64,2.78,2.01,1.1.63,1.06.71-.57,1.32-.96.35-3.08.64-4.73.64h-2.98l-.4,2.54c-.23,1.4-.2,3.02.03,3.62.36.88.23,1-.7.67-.63-.23-2.37-.68-3.89-.99-1.51-.32-3.54-.97-4.51-1.45-1.64-.8-1.82-.78-2.42.28-.54.95-5.6,4.72-6.33,4.72-.12,0-.28-.73-.34-1.61-.07-.89-.8-3.19-1.62-5.13s-1.68-4.04-1.91-4.7c-.34-.97-.5-1.02-.91-.29-.28.48-.68,1.8-.89,2.93-.22,1.13-.98,2.96-1.7,4.08l-1.3,2.02-.84-1.73c-.89-1.86-2.37-3.79-2.91-3.79-.18,0-.49.59-.69,1.32-.41,1.51-3.92,5.72-4.78,5.72-.32,0-.58-1.19-.58-2.64s-.28-2.64-.62-2.64-.62.38-.62.84c0,1.12-3,4.45-4,4.45-.43,0-1.14.39-1.57.88-1.1,1.26-2.01,1.09-1.55-.3.22-.65.08-2.16-.32-3.38-.39-1.2-.8-2.49-.92-2.85-.15-.45-1.22-.33-3.49.39-3.68,1.18-4.9.97-3.02-.51.69-.54,1.74-2.41,2.34-4.16.59-1.75,1.47-3.3,1.95-3.45.67-.21.64.05-.16,1.11-.56.76-1.02,1.79-1.03,2.27,0,.49-.43,1.66-.94,2.6s-.84,1.8-.72,1.91c.12.12,1.52-.42,3.11-1.18l2.89-1.39v1.24c.02.69.36,2.48.79,3.99l.76,2.76,1.96-.9c2.01-.93,3.91-4.22,3.91-6.78,0-1.26.73-1.07,1.02.28.08.39.54,1.87,1.01,3.28l.85,2.57,1.35-1.62c.74-.89,1.67-2.64,2.06-3.89.69-2.16,1.75-3.09,1.75-1.52,0,1.14,3.09,5.2,3.69,4.85.29-.17.86-1.7,1.28-3.38.86-3.53,2.25-5.92,3.13-5.41.33.19.46.57.28.84s.53,2.56,1.58,5.09c1.04,2.53,2.09,5.08,2.33,5.67.38.94.73.8,2.96-1.17,1.4-1.23,2.66-2.61,2.81-3.06.23-.69.54-.66,1.84.15,1.82,1.13,7.94,2.95,8.41,2.5.18-.17.36-1.77.4-3.57l.08-3.27,1.76.37c.97.2,3,.19,4.52-.03l2.77-.39-2.47-1.69c-1.35-.93-2.72-2.13-3.04-2.67-.34-.58-1.55-1.06-2.91-1.18-3.69-.32-10.23-3.98-10.23-5.73,0-.33.9.23,2.01,1.25,2.46,2.25,5.87,3.66,8.85,3.66h2.23l-1.38-1.83c-.79-1.05-1.5-3.05-1.67-4.7-.27-2.62-.54-3.04-3.28-4.94-1.65-1.14-3.68-2.86-4.53-3.81l-1.54-1.73-.79,2.06c-.43,1.13-.96,2.06-1.17,2.06s-1.04-.66-1.84-1.46c-.8-.81-1.61-1.46-1.81-1.46s-.9,1.09-1.57,2.41l-1.22,2.41-.94-1.39c-.52-.76-1.74-2.11-2.72-3s-1.49-1.61-1.14-1.61,1.55.92,2.68,2.06l2.05,2.06.84-1.5c.49-.89.68-2.26.45-3.38-.33-1.61-.28-1.71.34-.69.39.64,1.59,1.88,2.66,2.75l1.94,1.57,1.34-2.46c1.34-2.44,1.35-2.45,1.95-.99.81,1.96,6.68,6.77,11.68,9.58.77.43.44-1.06-.98-4.49-.38-.91-.69-2.55-.69-3.63,0-1.62-.47-2.34-2.54-3.92-2.99-2.28-3.96-3.89-4.52-7.57-.23-1.49-.75-3.14-1.16-3.68-.61-.79-.71-.35-.54,2.41.11,1.86-.13,4.18-.53,5.15l-.74,1.76-.57-1.47c-.32-.8-1.7-2.21-3.08-3.12-1.39-.91-2.36-1.8-2.16-1.99.19-.18,1.62.64,3.16,1.84,2.35,1.82,2.87,2.02,3.19,1.22.38-.94,0-5.05-.74-7.92-.37-1.43-.33-1.43,1.43.34,1.3,1.3,2.02,2.86,2.58,5.57.71,3.45,1.07,4.02,4.25,6.82,1.91,1.68,3.58,2.96,3.7,2.84s.37-4.46.53-9.66c.33-9.97-.04-12.33-2.44-15.42l-1.24-1.58,1.94-2.09c2.53-2.72,3.69-4.91,4.19-7.9l.41-2.42-2.19,2.07c-1.79,1.7-2.65,2.07-4.72,2.07s-2.86-.34-4.24-1.82c-1.66-1.77-4.6-3.48-7.44-4.3-1.04-.31-1.4-.18-1.4.53,0,.52-.58,2.01-1.29,3.33l-1.29,2.38-2.69-2.66c-1.65-1.63-3.61-2.9-5.06-3.28-3.72-.98-3.92-.88-3.92,1.89,0,4.2-1.8,4.99-5.02,2.2-2.47-2.13-4.5-2.59-9.17-2.08l-3.61.39.65,1.63c.54,1.36.42,1.93-.74,3.48-1.88,2.51-4.34,3.59-8.11,3.59-1.74,0-3.91.36-4.83.8s-3.21.94-5.08,1.13-3.87.5-4.44.71c-.89.33-.99.06-.7-1.96.43-3.09-1.72-5.36-5.08-5.36-4.36,0-6.38,3.9-4.66,9.05.33.99.76,2.55.95,3.47.2.95,2.17,3.48,4.58,5.89,2.32,2.32,4.51,4.74,4.87,5.36s1.55,1.65,2.64,2.25l1.99,1.1-.26-2.13c-.29-2.34.22-2.71,1.46-1.05.44.59,1.58,1.55,2.52,2.12,1.48.9,1.7.93,1.7.14,0-.5.3-1.65.67-2.56l.67-1.65,1.16,2.25c.64,1.24,2.72,4.04,4.61,6.24,3.69,4.26,5.92,9.02,4.77,10.12-.47.44-1.74.41-4.37-.12-2.04-.41-4.56-.63-5.61-.48-2.13.29-2.3.03-.99-1.62,1.39-1.73,1.16-2.02-1.55-2.02-3.14,0-10.95-1.5-13.95-2.69-2.92-1.15-3.58-.87-4.45,1.9-.38,1.25-1.09,3.5-1.57,5.01l-.87,2.75,3.15-.3c1.74-.17,3.96-.54,4.96-.84.99-.3,1.9-.45,2.01-.35s-.33,1.18-.99,2.38l-1.19,2.2,1.96-.4c1.08-.22,2.71-.76,3.61-1.19,1.58-.76,1.7-.71,2.95,1.29,1.53,2.46,2.76,2.36,3.02-.25.28-2.69,1.17-2.3,2.83,1.27,1.6,3.43,3.27,4.65,3.59,2.61.11-.68.97-1.77,1.92-2.44,1.92-1.35,3.37-.94,4.19,1.18.86,2.2-1.05,4.46-6.63,7.84-11.16,6.76-17.64,16.01-19.49,27.79-1.67,10.63,3.54,21.62,14,29.51,5.01,3.78,12.96,7.76,12.45,6.24-2.15-6.46-2.07-18.78.12-20.86.33-.31.22.97-.25,2.86-1.75,7.02-.99,12.61,3.48,25.71,4.04,11.85,3.48,16.91-2.24,20.26-1.84,1.08-3.02,1.25-7.95,1.19-5.36-.07-5.94.04-7.66,1.41-1.66,1.33-3.83,5.69-3.83,7.73-.02,1.05,1.21.91,3.62-.48h0Zm43.43-102.77c0-.86-2.52-3.19-5.09-4.7-2.01-1.18-2.34-1.21-2.35-.25,0,1.46-1.3,5.13-1.81,5.13-.28,0-.71-.72-.94-1.6-.23-.88-1.21-2.61-2.16-3.84l-1.75-2.25-1.35,2.08c-1.27,1.94-3.46,3.84-4.43,3.84-.23,0-.28-1.02-.1-2.27.19-1.35.04-2.43-.37-2.67-.38-.23-.69-.14-.69.18,0,.73-3.04,4.19-3.69,4.19-.27,0-.64-.99-.83-2.2-.18-1.21-.51-3.13-.71-4.25-.2-1.13.23-.36.96,1.7l1.34,3.75,1.46-2.29c.8-1.25,1.46-2.63,1.46-3.06s.28-.61.6-.42.79,1.7,1.02,3.36l.42,3.01,1.61-1.76c.89-.97,1.92-2.27,2.31-2.88.69-1.1.72-1.1,2.08.05.76.64,1.93,2.19,2.6,3.43s1.3,2.16,1.41,2.06.35-1.39.54-2.84c.19-1.45.36-2.69.38-2.76.09-.36,4.85,2.73,6.61,4.3,1.13,1,2.21,1.69,2.38,1.51.18-.18.33-1.65.33-3.29,0-2.54-.27-3.23-1.82-4.61-1.79-1.6-1.84-1.6-2.5-.43-.86,1.52-1.87,1.54-1.87.04,0-1.09-3.38-5.3-4.26-5.3-.23,0-.94.93-1.58,2.06-.64,1.13-1.33,2.06-1.54,2.05-.87,0-5.63-5.31-5.63-6.28,0-.76.33-.57,1.15.7.64.97,1.91,2.41,2.82,3.21,1.86,1.61,2.52,1.22,3.24-1.89.2-.89.56-1.61.79-1.61.79,0,4.94,4.4,5.52,5.87l.58,1.46.44-1.61c.54-1.97,1.14-2.05,2.01-.24.36.75,2.15,2.31,3.97,3.48l3.31,2.11.67-2.11c.37-1.16.85-1.84,1.08-1.49.34.52-.53,4.03-1.17,4.78-.1.12-1.17-.51-2.38-1.39l-2.21-1.6v2.86c-.02,1.57-.18,3.45-.39,4.18-.4,1.4-1.46,1.8-1.46.53h0Zm-16.51-22.76c-3.94-3.28-4.54-4.04-4.45-5.6l.09-1.65.26,1.6c.15.94,1.19,2.34,2.52,3.37l2.26,1.76,1.39-1.6c.77-.89,1.4-1.94,1.41-2.34.03-1.05.22-.96,2.88,1.35,2.36,2.06,2.41,2.06,2.76.74.19-.74.13-2.14-.16-3.11-.78-2.65-.62-3.05.55-1.45.58.79,1.52,1.92,2.09,2.51.98,1.01,1.04.99,1.4-.29.21-.74.38-2.1.39-3.02v-1.67s2.14,2.42,2.14,2.42c2,2.26,2.18,2.34,2.78,1.27.36-.64.65-2.16.66-3.39,0-1.59.18-1.99.58-1.39.68,1.01.21,3.76-1.04,6.11l-.89,1.68-1.18-1.83c-1.5-2.34-2.01-2.3-2.97.23-.91,2.39-1.5,2.57-2.39.74-.58-1.19-.69-1.04-1.09,1.45l-.45,2.77-2.72-2.11-2.72-2.11-1.22,1.39c-.67.76-1.23,1.72-1.24,2.12,0,.86-.66.89-1.65.06h0Zm35.01-12.24c-1.43-1.29-2.42-2.52-2.19-2.74.23-.22.48-.28.57-.13.08.14,1.25,1.37,2.6,2.74,3.1,3.14,2.46,3.23-.98.13Zm-46.64-4.82c-1.3-1.76-1.21-2.93.38-4.84,1.14-1.38,1.67-1.57,3.67-1.31,1.29.17,4.04,1.3,6.14,2.52,2.41,1.41,4.91,2.36,6.85,2.6,1.68.2,3.05.28,3.05.17,0-.11-.69-1.25-1.55-2.52-2.02-3.03-1.96-3.36.33-1.54,2.34,1.86,5.14,2.41,11.4,2.22l3.06-.09-1.77-1.75c-2.48-2.45-1.72-2.67,1.02-.29,2.57,2.23,2.41,2.39-3,2.92-2.3.23-4.77.07-6.82-.46-3.08-.79-3.19-.77-2.61.26.33.59.88,1.08,1.21,1.08s.59.3.59.67c0,1.13-6.63.13-9.81-1.47-7.24-3.67-8.16-3.99-9.88-3.44-.96.3-1.92,1.19-2.25,2.07-1.1,2.96,3.09,5.26,4.82,2.64.5-.76.38-1.28-.5-2.2-1.2-1.26-1.09-1.45.53-.85,1.16.42,1.31,3.2.23,4.22-1.24,1.17-4.04.84-5.11-.6Zm28.54-7.3c-.9-.86-.19-1.07,3.87-1.14,5.02-.09,8.07-.93,11.67-3.2,2.88-1.82,3.67-1.46.93.43-2.5,1.72-6.39,3.05-10.15,3.45-1.82.19-3.89.47-4.61.6-.72.13-1.49.08-1.7-.13Zm43.16,149.67l2.25-1.45,1.53,1.45c2,1.9,4.34,1.85,6.26-.12.84-.86,1.59-1.45,1.67-1.32s.46.77.84,1.41c.48.82,1.45,1.23,3.22,1.35,2.12.15,2.69-.06,3.53-1.28l1-1.45,2.21,1.42c6.06,3.89,9.28-.19,6.58-8.32-1.38-4.14-.62-6.46,3.82-11.72,1.87-2.22,3.4-4.59,3.41-5.26,0-1.08-.34-1.22-2.83-1.17-2.38.05-3.08-.21-4.34-1.59-2.04-2.25-1.92-4.82.36-7.67l1.82-2.28-3.23-2.2c-1.78-1.2-4.98-4.06-7.13-6.34-4.8-5.12-9.53-7.55-15.77-8.11l-4.18-.37v3.16c.02,4.07,1.93,7.99,7.14,14.62,5.93,7.55,6.34,8.72,6.58,18.58l.2,8.34-1.72,1.63c-1.55,1.47-2.25,1.66-7.25,1.95-4.76.28-5.77.52-7.16,1.76-1.86,1.65-2.41,2.54-2.98,4.81-.33,1.33-.2,1.61.76,1.61.64,0,2.17-.65,3.41-1.45h0Zm-127.5-21.56c.53-.72.96-1.87.96-2.57,0-1.05.47-1.34,2.79-1.66l2.79-.4-1.86-1.48c-2.21-1.76-2.41-3.13-.47-3.14,1.94,0,5.22-2.01,5.72-3.5.23-.69.08-1.62-.33-2.09-1.09-1.25-3.13-1.05-3.51.32-.41,1.48-1.09,1.48-2.64.02-2.33-2.21-2.38-6.78-.11-9.43,1.07-1.25,1.06-1.34-.3-2.63-1.47-1.4-2.52-4.15-1.83-4.8.22-.21,1.38-.04,2.58.37,1.7.58,2.38.59,3.08.04,2.13-1.67-.18-3.83-3.58-3.35-1.37.19-1.94,0-2.14-.71-.15-.54-1.35-1.25-2.71-1.59-2.41-.61-2.43-.6-2.43,1.06,0,1.82-1.04,2.17-3.02,1-1.61-.95-3.17-.22-3.17,1.5,0,1.6,1.6,2.39,4.49,2.2,2.21-.14,2.29,1.5.19,3.86l-1.51,1.7,1.19,1.72c1.77,2.54,1.62,6.77-.31,8.87l-1.51,1.65-.99-1.32c-1.38-1.84-3.28-1.71-3.79.24-.34,1.28-.06,1.86,1.55,3.23,1.08.91,2.66,1.66,3.5,1.66,2.1,0,2.01,1.65-.17,3.31l-1.7,1.3,2.63.41c1.45.23,2.63.64,2.63.94,0,1.12,1.82,4.6,2.41,4.6.34.02,1.05-.57,1.58-1.29h0Zm34.27-14.85c2.39-.94,7.56-5.32,7.56-6.41,0-.34-1.43-1.91-3.18-3.49-3.68-3.33-7.67-8.92-8.71-12.19-.54-1.7-3.15-4.63-10.5-11.76l-9.78-9.48-2.82.71c-1.55.39-3.44.73-4.2.74-1.31.02-1.29.09.46,1.45l1.84,1.42,2.58-1.43c2.5-1.39,2.59-1.4,2.9-.28.18.65-.21,1.79-.9,2.62-.67.8-1.05,1.72-.85,2.03.2.31-.44.96-1.43,1.45-1.84.9-3.11,3.86-1.66,3.86,1.3,0,4.18-3.54,3.84-4.75-.17-.62-.08-1.25.18-1.4,1.12-.66,1.05,2.13-.08,3.5-.67.8-1.05,1.72-.85,2.03.2.31-.44.96-1.43,1.45-1.82.89-3.11,3.86-1.67,3.86s4.24-3.39,3.89-4.65c-.18-.66-.11-1.34.16-1.5.75-.44,1.16,1.75.53,2.83-.34.58-.34,1.36,0,1.99.63,1.14,0,3.3-1.16,3.98-.49.29-.16.86,1.04,1.76,1.74,1.31,1.77,1.45,1.77,7.24,0,4.84.19,6.08,1.09,6.93.99.94,1.09.95,1.09.04,0-.99,1.74-2.2,3.16-2.2.42,0,3.03,2.22,5.82,4.93,2.8,2.72,5.72,5.05,6.55,5.2s1.71.3,1.98.34c.25.04,1.5-.33,2.77-.83h0Zm-29.9-23.4c0-1.55-3.22-3.23-7.06-3.65-3.11-.35-3.16-.33-3.16,1.22,0,1.29.48,1.79,2.63,2.72,3.44,1.5,7.59,1.34,7.59-.29Zm3.53-.14c1.57-1.42,2.31-3.12,1.37-3.12-1.09,0-3.97,2.58-3.97,3.56,0,1.52.53,1.43,2.6-.44Zm-3.34-4.61c.13-.88-.41-1.46-2.04-2.21-3.52-1.59-7.72-2.32-8.73-1.53-1.86,1.47-.63,3.43,2.39,3.79,1.21.14,2.86.51,3.66.82,2.31.91,4.51.5,4.72-.87Zm0-4.7c.19-1.25-.61-1.7-7.16-4.01-4.89-1.72-7.05-.91-5.49,2.06.54,1.04,1.45,1.5,3.51,1.81,1.52.23,3.61.68,4.63.99,2.72.84,4.29.55,4.51-.85Zm3.28-4.42c.99-1,1.8-2.18,1.8-2.62,0-1.44-3.9,1.1-4.4,2.87-.59,2.11.38,2.02,2.61-.24h0Zm-3.28-.29c.22-1.43-2.16-2.72-6.84-3.71-3.43-.73-4.94-.32-4.69,1.28.14.87,1.28,1.5,4.52,2.52,5.19,1.61,6.75,1.6,7-.08Zm4.57-6.65c5.99-2.67,6.51-9.39.86-11.16-2.35-.74-3.84-.33-4.74,1.25-.69,1.22-.23,3.43.71,3.43.32,0,.58.41.58.91,0,2.33-9.14,3.39-12.89,1.49-1.32-.67-1.89-2.4-.79-2.4.82,0,1.39-1.76.97-3.02-.57-1.7-2.29-2.29-4.77-1.64-5.62,1.47-5.46,8.06.26,10.86,4.68,2.29,14.96,2.43,19.82.27Zm-3.73-5.16c.35-.33.19-.84-.38-1.29-1.27-1-1.2-2.49.19-4.19,1.04-1.28,1.18-3.19,1.54-22.51.62-33.28,3.1-58.33,6.36-64.33,1.3-2.39,1.12-2.4-2.24-.12-4.32,2.94-7.61,6.78-10.53,12.26-5.51,10.35-7.42,24.28-7.42,54.01,0,16.88.12,19.09,1.08,20.68.91,1.5.96,2.06.32,3.68-.42,1.04-.6,2.04-.42,2.21,1.23,1.15,10.19.84,11.51-.4h0Zm50.32-31.74c.18-.28-.23-1.74-.92-3.23-1.08-2.31-1.52-2.7-3.06-2.7-4.83,0-12.59-2.16-20.6-5.72-4.62-2.06-6.22-2.53-6.78-2.01-1.41,1.34.94,4.52,4.58,6.19,3.23,1.48,12.26,3.3,16.38,3.3,2.39,0,2.45.11,1.09,2.07l-1,1.45,2.7.07c1.49.04,3.53.28,4.56.52,2.65.64,2.67.64,3.05.06h0Z"/>
      </g>
    </g>
  </g>
</svg>