<?xml version="1.0" encoding="UTF-8"?>
<svg id="Layer_2" data-name="Layer 2" xmlns="http://www.w3.org/2000/svg" viewBox="0 0 520 320">
  <defs>
    <style>
      .cls-1 {
        fill: #a3ab78;
      }

      .cls-1, .cls-2, .cls-3, .cls-4 {
        stroke-width: 0px;
      }

      .cls-2 {
        fill: red;
      }

      .cls-3 {
        fill: #fff;
      }

      .cls-4 {
        fill: #00a;
      }
    </style>
  </defs>
  <g id="_500x300_Background" data-name="500x300 Background">
    <rect class="cls-1" width="520" height="320" rx="10" ry="10"/>
  </g>
  <g id="Taiwan">
    <g>
      <rect class="cls-2" x="10" y="10" width="500" height="300"/>
      <rect class="cls-4" x="10" y="10" width="249.96" height="149.97"/>
    </g>
    <g>
      <path class="cls-3" d="m106.03,92.87c-.48-1.87-.76-3.74-.9-5.6l-21.24,11.21,24.28.14c-.9-1.8-1.66-3.74-2.14-5.74Z"/>
      <path class="cls-3" d="m118.48,60.56l-20.34-12.8,12.04,21.1c2.14-3.25,4.98-6.09,8.3-8.3Z"/>
      <path class="cls-3" d="m163.93,78.13c.48,1.87.76,3.74.9,5.53l21.24-11.21-24.28-.14c.9,1.8,1.59,3.74,2.14,5.81Z"/>
      <path class="cls-3" d="m159.92,69l12.8-20.34-21.1,12.04c3.25,2.14,6.09,4.98,8.3,8.3Z"/>
      <path class="cls-3" d="m110.05,101.93l-12.8,20.34,21.1-12.04c-3.25-2.14-6.09-4.91-8.3-8.3Z"/>
      <path class="cls-3" d="m133.15,55.65l-11.21-21.24-.14,24.28c1.8-.9,3.74-1.59,5.74-2.14,1.94-.48,3.74-.76,5.6-.9Z"/>
      <path class="cls-3" d="m149.27,34.76l-12.24,20.96c4.01.28,7.82,1.31,11.34,3.11l.9-24.07Z"/>
      <path class="cls-3" d="m108.25,72.12l-24-.9,20.96,12.24c.21-4.01,1.31-7.82,3.04-11.34Z"/>
      <path class="cls-3" d="m120.7,136.24l12.24-20.96c-4.01-.28-7.82-1.31-11.34-3.11l-.9,24.07Z"/>
      <path class="cls-3" d="m151.48,110.44l20.34,12.8-12.04-21.1c-2.21,3.25-4.98,6.09-8.3,8.3Z"/>
      <path class="cls-3" d="m161.72,98.82l24,.9-20.96-12.24c-.28,4.01-1.31,7.89-3.04,11.34Z"/>
      <path class="cls-3" d="m136.75,115.28l11.21,21.24.14-24.28c-1.8.9-3.74,1.59-5.74,2.14-1.87.55-3.74.83-5.6.9Z"/>
      <path class="cls-3" d="m161.3,85.54s0-.07,0,0c0-2.14-.28-4.36-.83-6.5-.62-2.42-1.52-4.63-2.7-6.64h0c-4.7-8.09-13.42-13.21-22.83-13.21h0c-2.14,0-4.36.28-6.5.83-2.42.62-4.63,1.52-6.64,2.7h0c-8.09,4.7-13.21,13.42-13.21,22.83h0c0,2.14.28,4.36.83,6.5,3.6,14.11,17.92,22.62,32.03,19.02,11.97-3.04,19.85-13.77,19.85-25.52Z"/>
    </g>
  </g>
</svg>