<?xml version="1.0" encoding="UTF-8"?>
<svg id="Layer_2" data-name="Layer 2" xmlns="http://www.w3.org/2000/svg" viewBox="0 0 520 320">
  <defs>
    <style>
      .cls-1 {
        fill: #a3ab78;
      }

      .cls-1, .cls-2, .cls-3, .cls-4, .cls-5 {
        stroke-width: 0px;
      }

      .cls-2 {
        fill: #fff;
      }

      .cls-3 {
        fill: #060;
      }

      .cls-4 {
        fill: #f8c300;
      }

      .cls-5 {
        fill: #c00;
      }
    </style>
  </defs>
  <g id="_500x300_Background" data-name="500x300 Background">
    <rect class="cls-1" width="520" height="320" rx="10" ry="10"/>
  </g>
  <g id="Tajikistan">
    <g>
      <rect class="cls-3" x="10" y="224.28" width="500" height="85.72"/>
      <rect class="cls-2" x="10" y="95.71" width="500" height="128.57"/>
      <rect class="cls-5" x="10" y="10" width="500" height="85.72"/>
      <g>
        <path class="cls-4" d="m289.42,181.96c-2.66,2.49-6.07,4.03-9.7,4.35-8.96.81-16.89-5.81-17.7-14.77v-12.91c.09-2.96,2.56-5.29,5.52-5.2,1.85.05,3.55,1.06,4.48,2.67,2.2-6.64-1.39-13.81-8.03-16-6.63-2.2-13.8,1.39-16,8.03-.86,2.58-.86,5.38,0,7.97,1.5-2.56,4.77-3.43,7.34-1.95,1.6.93,2.61,2.63,2.67,4.48v12.89h0c-.81,8.97-8.74,15.6-17.71,14.79-3.63-.33-7.04-1.86-9.7-4.35-3.47,8.7-13.33,12.94-22.03,9.48-1.28-.51-2.49-1.17-3.62-1.98,1.56,15.64,25,12.44,26.75-2.76,7.36,12.93,23.55,9.22,28.29-6.6h.04c4.74,15.83,20.92,19.53,28.29,6.6,1.75,15.2,25.18,18.4,26.75,2.76-1.12.8-2.33,1.47-3.62,1.98-8.68,3.46-18.54-.78-22.01-9.48Zm-38.56-31.46c.56-4.09,3.78-7.32,7.88-7.88,5.04-.7,9.7,2.83,10.4,7.88-3.62-.74-7.29.91-9.15,4.1-1.84-3.19-5.52-4.84-9.14-4.1Z"/>
        <path class="cls-4" d="m242.34,199.28s-1.65-1-5.1-.55c-.5-2.23-2.45-4.14-3.84-5.09-1.33,1.47-2.28,4.18-1.82,6.15-2.46.45-4.76,2.07-4.76,2.07,5.71,5.69,12.25,4.49,15.52-2.57Z"/>
        <path class="cls-4" d="m267.91,198.48s-1.47-1.25-4.95-1.37c-.13-2.28-1.74-4.49-2.96-5.65-1.56,1.23-2.93,3.76-2.8,5.77-2.5.04-5.03,1.27-5.03,1.27,4.73,6.55,11.37,6.42,15.74-.02Z"/>
        <path class="cls-4" d="m286.63,193.64c-1.74.96-3.5,3.23-3.69,5.24-2.48-.37-5.17.43-5.17.43,3.58,7.23,10.16,8.19,15.53,2.55,0,0-1.24-1.48-4.65-2.16.24-2.28-.99-4.72-2.01-6.07Z"/>
        <path class="cls-4" d="m217.22,211.19l2.29,7.68c26.49-7.88,54.5-7.88,80.99,0l2.29-7.68c-27.98-8.34-57.58-8.34-85.56,0Z"/>
        <polygon class="cls-4" points="256.11 114.14 253.69 121.55 260 116.97 266.3 121.55 263.89 114.14 270.21 109.56 262.41 109.56 260 102.14 257.59 109.56 249.79 109.56 256.11 114.14"/>
        <polygon class="cls-4" points="226.05 122.19 223.64 129.6 229.96 125.02 236.26 129.6 233.85 122.19 240.16 117.61 232.36 117.61 229.96 110.19 227.55 117.61 219.75 117.61 226.05 122.19"/>
        <polygon class="cls-4" points="204.06 144.18 201.65 151.6 207.96 147.02 214.26 151.6 211.86 144.18 218.16 139.6 210.37 139.6 207.96 132.19 205.54 139.6 197.76 139.6 204.06 144.18"/>
        <polygon class="cls-4" points="199.9 177.06 206.21 181.64 203.81 174.23 210.11 169.65 202.32 169.65 199.9 162.23 197.49 169.65 189.7 169.65 196.01 174.23 193.6 181.64 199.9 177.06"/>
        <polygon class="cls-4" points="286.15 122.19 283.74 129.6 290.04 125.02 296.36 129.6 293.95 122.19 300.25 117.61 292.45 117.61 290.04 110.19 287.64 117.61 279.84 117.61 286.15 122.19"/>
        <polygon class="cls-4" points="308.14 144.18 305.74 151.6 312.04 147.02 318.35 151.6 315.94 144.18 322.24 139.6 314.46 139.6 312.04 132.19 309.63 139.6 301.83 139.6 308.14 144.18"/>
        <polygon class="cls-4" points="323.99 174.23 330.3 169.65 322.51 169.65 320.1 162.23 317.68 169.65 309.89 169.65 316.19 174.23 313.79 181.64 320.1 177.06 326.4 181.64 323.99 174.23"/>
      </g>
    </g>
  </g>
</svg>