<?xml version="1.0" encoding="UTF-8"?>
<svg id="Layer_2" data-name="Layer 2" xmlns="http://www.w3.org/2000/svg" viewBox="0 0 520 320">
  <defs>
    <style>
      .cls-1 {
        fill: #a3ab78;
      }

      .cls-1, .cls-2, .cls-3, .cls-4, .cls-5 {
        stroke-width: 0px;
      }

      .cls-2 {
        fill: #ffc726;
      }

      .cls-4 {
        fill: #dc241f;
      }

      .cls-5 {
        fill: #fff;
      }
    </style>
  </defs>
  <g id="_500x300_Background" data-name="500x300 Background">
    <rect class="cls-1" width="520" height="320" rx="10" ry="10"/>
  </g>
  <g id="Timor_Leste" data-name="Timor Leste">
    <g>
      <polygon class="cls-4" points="10 10 303.23 160 10 310 10 310 510 310 510 10 10 10"/>
      <polygon class="cls-2" points="10 10 10 10 205.45 160 10 310 10 310 303.23 160 10 10"/>
      <path class="cls-3" d="m10,310l195.45-150L10,10h0v300Zm22.55-142.16l33.33-17.02-5.53-37.7h0l26.2,27.18,33.33-17.02h0l-17.2,33.87,26.2,27.18h0l-36.81-6.24-17.2,33.87h0l-5.53-37.7-36.81-6.42h0Z"/>
      <polygon class="cls-5" points="32.55 167.84 32.55 167.84 69.36 174.08 74.88 211.78 74.88 211.78 74.88 211.78 74.88 211.78 74.88 211.78 92.09 177.91 128.89 184.15 128.89 184.15 128.89 184.15 128.89 184.15 128.89 184.15 102.69 157.06 119.89 123.19 119.89 123.19 119.89 123.19 119.89 123.19 119.89 123.19 86.56 140.21 60.36 113.03 60.36 113.03 60.36 113.03 60.36 113.03 60.36 113.03 65.88 150.73 32.55 167.84 32.55 167.84 32.55 167.84"/>
    </g>
  </g>
</svg>