<?xml version="1.0" encoding="UTF-8"?>
<svg id="Layer_2" data-name="Layer 2" xmlns="http://www.w3.org/2000/svg" viewBox="0 0 520 320">
  <defs>
    <style>
      .cls-1 {
        fill: #a3ab78;
      }

      .cls-1, .cls-2, .cls-3, .cls-4, .cls-5 {
        stroke-width: 0px;
      }

      .cls-2 {
        fill: #cc3b53;
      }

      .cls-3 {
        fill: #fff;
      }

      .cls-4 {
        fill: #fdcc25;
      }

      .cls-5 {
        fill: #00846d;
      }
    </style>
  </defs>
  <g id="_500x300_Background" data-name="500x300 Background">
    <rect class="cls-1" width="520" height="320" rx="10" ry="10"/>
  </g>
  <g id="Togo">
    <g>
      <rect class="cls-5" x="10" y="250.01" width="499.96" height="59.99"/>
      <rect class="cls-5" x="190.03" y="129.97" width="320.01" height="59.99"/>
      <rect class="cls-5" x="190.03" y="10" width="320.01" height="59.99"/>
      <rect class="cls-4" x="190.03" y="69.99" width="320.01" height="59.99"/>
      <polygon class="cls-4" points="10 190.03 10 250.01 510.04 250.01 510.04 190.03 190.03 190.03 10 190.03"/>
      <path class="cls-2" d="m10,10v179.96h180.03V10H10Zm102.82,72.42h41.41l-33.47,24.34,7.56,23.29,5.24,16.1-22.17-16.1-11.31-8.24-11.31,8.24-22.17,16.1,5.24-16.1,7.56-23.29-33.47-24.34h41.26l4.04-12.36,8.76-27.03,8.76,27.03,4.04,12.36Z"/>
      <polygon class="cls-3" points="120.76 106.75 154.23 82.42 112.82 82.42 108.78 69.99 100.01 43.03 91.25 69.99 87.21 82.42 45.8 82.42 79.35 106.75 71.78 129.97 66.54 146.15 88.71 129.97 100.01 121.81 111.32 129.97 133.49 146.15 128.25 129.97 120.76 106.75"/>
    </g>
  </g>
</svg>