<?xml version="1.0" encoding="UTF-8"?>
<svg id="Layer_2" data-name="Layer 2" xmlns="http://www.w3.org/2000/svg" viewBox="0 0 520 320">
  <defs>
    <style>
      .cls-1 {
        fill: #a3ab78;
      }

      .cls-1, .cls-2, .cls-3 {
        stroke-width: 0px;
      }

      .cls-2 {
        fill: #e70013;
      }

      .cls-3 {
        fill: #fff;
      }
    </style>
  </defs>
  <g id="_500x300_Background" data-name="500x300 Background">
    <rect class="cls-1" width="520" height="320" rx="10" ry="10"/>
  </g>
  <g id="Tunisia">
    <g>
      <rect class="cls-2" x="10" y="10" width="500" height="300"/>
      <path class="cls-2" d="m275.03,205c11.73,0,22.43-4.5,30.48-11.86-10.23,14.05-26.8,23.18-45.48,23.18-31.09,0-56.25-25.16-56.25-56.25s25.16-56.25,56.25-56.25c18.68,0,35.25,9.14,45.48,23.18-7.98-7.5-18.68-12-30.48-12-24.89,0-45,20.18-45,45s20.11,45,45,45Z"/>
      <path class="cls-3" d="m260.03,85c-41.45,0-75,33.61-75,75s33.61,75,75,75,75-33.61,75-75-33.55-75-75-75Zm0,131.25c-31.09,0-56.25-25.16-56.25-56.25s25.16-56.25,56.25-56.25c18.68,0,35.25,9.14,45.48,23.18-7.98-7.43-18.68-11.93-30.48-11.93-24.89,0-45,20.18-45,45s20.18,45,45,45c11.73,0,22.43-4.5,30.48-11.86-10.23,13.98-26.8,23.11-45.48,23.11Zm42.34-36.41l-23.39-7.57-14.39,19.84v-24.55l-23.32-7.57,23.32-7.57v-24.55l14.39,19.84,23.32-7.57-14.39,19.84,14.45,19.84Z"/>
      <polygon class="cls-2" points="287.92 160 302.38 179.84 278.99 172.27 264.6 192.11 264.6 167.57 241.28 160 264.6 152.43 264.6 127.89 278.99 147.73 302.38 140.16 287.92 160"/>
    </g>
  </g>
</svg>