<?xml version="1.0" encoding="UTF-8"?>
<svg id="Layer_2" data-name="Layer 2" xmlns="http://www.w3.org/2000/svg" viewBox="0 0 520 320">
  <defs>
    <style>
      .cls-1 {
        fill: #a3ab78;
      }

      .cls-1, .cls-2, .cls-3 {
        stroke-width: 0px;
      }

      .cls-2 {
        fill: #e30a17;
      }

      .cls-3 {
        fill: #fff;
      }
    </style>
  </defs>
  <g id="_500x300_Background" data-name="500x300 Background">
    <rect class="cls-1" width="520" height="320" rx="10" ry="10"/>
  </g>
  <g id="Turkey">
    <rect class="cls-2" x="10" y="10" width="500" height="300"/>
    <g>
      <path class="cls-3" d="m253.45,200.05c-13.28,20.99-36.74,34.95-63.44,34.95-41.42,0-75-33.58-75-75s33.58-75,75-75c26.7,0,50.16,13.97,63.44,34.95-11.01-12.25-26.9-19.95-44.66-19.95-33.17,0-60,26.83-60,60s26.83,60,60,60c17.68,0,33.65-7.71,44.66-19.95Z"/>
      <polygon class="cls-3" points="301.2 160 317.24 182.02 291.36 173.62 275.33 195.64 275.33 168.39 268.45 166.19 264.87 165.02 249.39 160 264.87 154.98 268.45 153.81 275.33 151.61 275.33 124.36 291.36 146.38 317.24 137.98 301.2 160"/>
    </g>
  </g>
</svg>