<?xml version="1.0" encoding="UTF-8"?>
<svg id="Layer_2" data-name="Layer 2" xmlns="http://www.w3.org/2000/svg" viewBox="0 0 520 320">
  <defs>
    <style>
      .cls-1 {
        fill: #a3ab78;
      }

      .cls-1, .cls-2, .cls-3, .cls-4, .cls-5, .cls-6 {
        stroke-width: 0px;
      }

      .cls-2 {
        fill: #5698b4;
      }

      .cls-3 {
        fill: #00247d;
      }

      .cls-4 {
        fill: #fff;
      }

      .cls-5 {
        fill: #cf142b;
      }

      .cls-6 {
        fill: #fbce04;
      }
    </style>
  </defs>
  <g id="_500x300_Background" data-name="500x300 Background">
    <rect class="cls-1" width="520" height="320" rx="10" ry="10"/>
  </g>
  <g id="Tuvalu">
    <rect class="cls-2" x="10" y="10" width="500" height="300"/>
    <g>
      <g>
        <polygon class="cls-3" points="214.07 10 141.27 10 141.27 58.53 214.07 10"/>
        <polygon class="cls-3" points="234.95 60.01 234.95 24.04 180.99 60.01 234.95 60.01"/>
        <polygon class="cls-3" points="10.14 110.02 10 110.02 10 100.01 10 85.55 10 85.55 10 146.07 10.14 146 10.14 110.02"/>
        <polygon class="cls-3" points="64.1 110.02 10.14 110.02 10.14 146 64.1 110.02"/>
        <polygon class="cls-3" points="10 84.98 10 70.03 10 60.01 64.1 60.01 10 23.97 10 23.97 10 85.55 10 85.55 10 84.98"/>
        <polygon class="cls-3" points="141.27 159.96 213.93 159.96 141.27 111.5 141.27 159.96"/>
        <polygon class="cls-3" points="103.75 10 30.95 10 103.75 58.53 103.75 10"/>
        <polygon class="cls-3" points="31.09 159.96 103.75 159.96 103.75 111.5 31.09 159.96"/>
        <polygon class="cls-3" points="234.95 146 234.95 110.02 180.99 110.02 234.95 146"/>
        <polygon class="cls-4" points="133.79 63.54 133.79 69.11 133.79 70.03 141.27 70.03 145.01 70.03 145.01 70.03 165.96 70.03 234.95 70.03 234.95 60.01 180.99 60.01 234.95 24.04 234.95 10.07 160.04 60.01 160.04 60.01 147.41 60.01 222.46 10 214.07 10 141.27 58.53 141.27 10 133.79 10 133.79 60.01 133.79 63.54"/>
        <polygon class="cls-4" points="10 23.97 64.1 60.01 10 60.01 10 70.03 79.06 70.03 87.45 70.03 100.01 70.03 100.01 70.03 100.01 70.03 103.75 70.03 111.29 70.03 111.29 63.54 111.29 60.01 111.29 10 103.75 10 103.75 58.53 30.95 10 10 10 85.05 60.01 85.05 60.01 72.43 60.01 10 18.32 10 10 10 10 10 10 10 23.97"/>
        <polygon class="cls-4" points="157.57 100.01 145.01 100.01 145.01 100.01 141.27 100.01 133.79 100.01 133.79 106.5 133.79 110.02 133.79 159.96 141.27 159.96 141.27 111.5 213.93 159.96 234.95 159.96 234.95 159.96 160.04 110.02 172.59 110.02 234.95 151.57 234.95 146 180.99 110.02 234.95 110.02 234.95 100.01 165.96 100.01 157.57 100.01"/>
        <rect class="cls-4" x="10" y="100.01" width=".14" height="10.02"/>
        <polygon class="cls-4" points="10 146.07 10 159.96 10.14 159.96 10.14 146 10 146.07"/>
        <polygon class="cls-4" points="10.14 159.96 85.05 110.02 97.61 110.02 22.7 159.96 31.09 159.96 103.75 111.5 103.75 159.96 111.29 159.96 111.29 110.02 111.29 106.5 111.29 100.92 111.29 100.01 103.75 100.01 100.01 100.01 100.01 100.01 79.06 100.01 10.14 100.01 10.14 110.02 64.1 110.02 10.14 146 10.14 159.96 10.14 159.96"/>
        <polygon class="cls-5" points="10 18.32 72.43 60.01 85.05 60.01 85.05 60.01 10 10 10 10 10 18.32"/>
        <polygon class="cls-5" points="160.04 60.01 160.04 60.01 234.95 10.07 234.95 10.07 234.95 10 222.46 10 147.41 60.01 160.04 60.01"/>
        <polygon class="cls-5" points="160.04 110.02 234.95 159.96 234.95 151.57 172.59 110.02 160.04 110.02"/>
        <polygon class="cls-5" points="85.05 110.02 10.14 159.96 22.7 159.96 97.61 110.02 85.05 110.02"/>
        <rect class="cls-5" x="10" y="85.55" width=".14" height="14.46"/>
        <polygon class="cls-5" points="111.29 63.54 111.29 70.03 103.75 70.03 100.01 70.03 100.01 70.03 100.01 70.03 87.45 70.03 79.06 70.03 10 70.03 10 84.98 10 85.55 10.14 85.55 10.14 100.01 79.06 100.01 100.01 100.01 100.01 100.01 103.75 100.01 111.29 100.01 111.29 100.92 111.29 106.5 111.29 110.02 111.29 159.96 122.51 159.96 122.51 159.96 133.79 159.96 133.79 110.02 133.79 106.5 133.79 100.01 141.27 100.01 145.01 100.01 145.01 100.01 157.57 100.01 165.96 100.01 234.95 100.01 234.95 84.98 234.95 70.03 165.96 70.03 145.01 70.03 145.01 70.03 141.27 70.03 133.79 70.03 133.79 69.11 133.79 63.54 133.79 60.01 133.79 10 122.51 10 122.51 10 111.29 10 111.29 60.01 111.29 63.54"/>
      </g>
      <polygon class="cls-6" points="460.44 36.45 456.07 50.07 441.75 50.07 453.31 58.46 448.87 72 460.44 63.61 472.01 72 467.56 58.46 479.13 50.07 464.88 50.07 460.44 36.45"/>
      <polygon class="cls-6" points="443.38 94.72 429.13 94.72 424.75 81.17 420.31 94.72 406.06 94.72 417.63 103.11 413.19 116.65 424.75 108.26 436.25 116.65 431.88 103.11 443.38 94.72"/>
      <polygon class="cls-6" points="464.88 145.86 460.44 132.31 456.07 145.86 441.75 145.86 453.31 154.25 448.87 167.79 460.44 159.4 472.01 167.79 467.56 154.25 479.13 145.86 464.88 145.86"/>
      <polygon class="cls-6" points="410.77 182.61 406.33 169.06 401.96 182.61 387.64 182.61 399.21 191 394.83 204.55 406.33 196.15 417.9 204.55 413.45 191 425.02 182.61 410.77 182.61"/>
      <polygon class="cls-6" points="374.08 230.15 369.63 216.61 365.26 230.15 351.01 230.15 362.51 238.54 358.14 252.09 369.63 243.76 381.2 252.09 376.76 238.54 388.33 230.15 374.08 230.15"/>
      <polygon class="cls-6" points="314.33 244.4 309.95 230.86 305.51 244.4 291.26 244.4 302.83 252.79 298.38 266.34 309.95 257.94 321.52 266.34 317.08 252.79 328.65 244.4 314.33 244.4"/>
      <polygon class="cls-6" points="310.74 166.67 306.29 180.21 292.04 180.21 303.61 188.6 299.17 202.15 310.74 193.82 322.31 202.15 317.86 188.6 329.43 180.21 315.11 180.21 310.74 166.67"/>
      <polygon class="cls-6" points="254.64 265.56 250.2 251.95 245.82 265.56 231.5 265.56 243.07 273.95 238.7 287.5 250.2 279.1 261.77 287.5 257.32 273.95 268.89 265.56 254.64 265.56"/>
      <polygon class="cls-6" points="352.25 134.85 363.75 126.53 375.32 134.85 370.88 121.31 382.45 112.92 368.2 112.92 363.75 99.37 359.38 112.92 345.13 112.92 356.63 121.31 352.25 134.85"/>
    </g>
  </g>
</svg>