<?xml version="1.0" encoding="UTF-8"?>
<svg id="Layer_2" data-name="Layer 2" xmlns="http://www.w3.org/2000/svg" viewBox="0 0 520 320">
  <defs>
    <style>
      .cls-1 {
        fill: #a3ab78;
      }

      .cls-1, .cls-2, .cls-3, .cls-4, .cls-5 {
        stroke-width: 0px;
      }

      .cls-6, .cls-7, .cls-8, .cls-9, .cls-10 {
        stroke: #000;
      }

      .cls-6, .cls-4 {
        fill: #d90000;
      }

      .cls-7, .cls-5 {
        fill: #fcdc04;
      }

      .cls-11, .cls-3, .cls-10 {
        fill: #fff;
      }

      .cls-11, .cls-12 {
        stroke: #fff;
      }

      .cls-8, .cls-13 {
        fill: #9ca69c;
      }

      .cls-13 {
        stroke: #9ca69c;
      }
    </style>
  </defs>
  <g id="_500x300_Background" data-name="500x300 Background">
    <rect class="cls-1" width="520" height="320" rx="10" ry="10"/>
  </g>
  <g id="Uganda">
    <g>
      <path class="cls-2" d="m10,159.97v50.01h499.92v-50.01H10Z"/>
      <rect class="cls-2" x="10" y="10" width="499.92" height="50.01"/>
      <rect class="cls-5" x="10" y="59.94" width="499.92" height="50.01"/>
      <path class="cls-4" d="m10,159.97h500v-50.01H10v50.01Z"/>
      <rect class="cls-5" x="10" y="209.98" width="499.92" height="50.01"/>
      <rect class="cls-4" x="10" y="259.99" width="499.92" height="50.01"/>
      <circle class="cls-3" cx="260" cy="159.97" r="46.78"/>
      <g>
        <path class="cls-6" d="m251.75,124.19l-3.03-5.57c1.17-1.17,3.16-2.06,6.26-2.06,0,.21-.34,6.12-.34,6.12l-2.89,1.51Z"/>
        <path class="cls-7" d="m254.7,122.68l.41-6.19s6.26-.34,9.7,3.71c.07-.07-3.37,4.82-3.37,4.82l-6.74-2.34Z"/>
        <path class="cls-6" d="m261.51,124.95l3.1-4.82c2.06,2.2,2.96,3.71,3.23,6.05.07.07-4.88,1.24-4.88,1.17s-1.38-2.34-1.44-2.41Z"/>
        <path class="cls-9" d="m253.33,203.99s5.78-6.67,17.06-5.23c-1.72-2.75-7.15-2.48-7.15-2.48,0,0-1.72-12.93-.34-13.55,1.31-.62,6.95.07,6.95.07.76,0,1.99-1.99,1.03-3.3-1.03-1.31-3.99-6.19-2.75-7.15s7.84.55,7.84.55l-18.78-24.01s-1.93-9.01,1.93-13.41c4.61-3.85,4.13-7.98,3.99-7.91-.62-4.2-7.02-7.22-11.35-3.37-2.55,3.1-.83,5.43-.83,5.43,0,0-6.67,1.79-6.95,2.96-.28,1.17,7.57-.21,7.57-.21l-.76,5.37s-15.2,13.83-3.58,25.8c.14-.07.34-.55.34-.55,0,0,4.13,5.02,8.39,6.19,4.06,4.13,3.65,3.51,3.65,3.51,0,0,.83,6.54.07,7.84-1.03-.34-11.35-.69-12.86-.14-1.38.41-6.67.14-5.37,8.81,1.03-2.34,1.93-4.4,1.93-4.4,0,0-.14,3.16,1.1,4.27-.21-3.3,1.24-5.5,1.24-5.5,0,0,.28,3.65,1.03,4.13.83.55.83-5.85,5.23-5.3s7.64.34,7.64.34c0,0,1.51,12.52,1.03,13.69-3.16-.76-10.8.34-11.28,2.2,4.47-.28,6.54.28,6.54.28,0,0-3.71,3.23-2.55,5.09Z"/>
        <path class="cls-13" d="m255.12,135.82s-11.08,12.18-6.26,21.53c.28-1.31.14-2.13.28-2.06-.28-.14,1.38,1.1,1.24.89.07-.69-.48-2.13-.48-2.13.48.14,1.03.28,1.51.34-.28-.55-.55-1.1-.89-1.65.69.07,1.44.14,2.13.28,0,0-.76-1.99-.48-1.99s1.72.14,1.72.14c-3.16-5.64-.21-10.39,1.24-15.34Z"/>
        <path class="cls-13" d="m258.97,125.36s.62,4.2-1.72,5.43c-.34.28-1.79.76-1.58,1.58.28,1.17.89.96,1.79.76,2.41-.48,5.16-5.57,1.51-7.77Z"/>
        <circle class="cls-3" cx="254.02" cy="128.94" r=".89"/>
        <path class="cls-6" d="m251.26,132.45c-.62.48-3.65,3.65-.62,4.82,3.16-.83,2.27-1.44,2.96-2.13.07-1.38-1.51-1.79-2.34-2.68Z"/>
        <path class="cls-13" d="m258.01,162.65c-.14.69-.83,3.23.14,5.23,2.68-1.1,3.85-.83,4.82-.21-2.27-1.79-3.1-2.55-4.95-5.02Z"/>
        <path class="cls-11" d="m262.55,174.69l.14,5.98s2.06.34,3.03,0c.96-.41,0-4.2-3.16-5.98Z"/>
        <path class="cls-8" d="m277.61,175.44s-3.85-9.29-13.62-11.63c-9.77-2.34-8.53-12.8-7.7-13.41.41-.89.76-2.27,3.58-.96s15.82,7.84,17.68,8.19c1.86.34.21,18.02.07,17.82Z"/>
        <path class="cls-6" d="m268.32,163.82c-.14.14,13.07,7.84,9.08,14.45,3.78-2.48,2.55-6.88,2.55-6.88,0,0,3.1,8.05-4.4,11.97.83.69,1.31.55,1.31.55l-1.31,1.31s-.62.96,4.47-1.51c-1.38,1.1-1.51,1.93-1.51,1.93,0,0,.34,1.03,3.65-1.79-2.68,2.89-3.23,4.33-3.23,4.33,7.15-.62,22.84-24.01-4.95-30.89,1.51,1.51,1.31,1.31,1.31,1.31l-6.95,5.23Z"/>
        <path class="cls-10" d="m268.87,161.48c1.79,1.31,2.48,1.72,2.68,2.34-1.65-.34-3.16-.28-3.16-.28,0,0-3.58-3.37-4.2-3.65-.48,0-3.23-1.79-3.23-1.79-1.38-.69-2.68-5.5,2.48-4.13,5.3,2.48,5.98,2.68,5.98,2.68,2.06.69,4.2,1.31,6.26,1.99,1.24,1.38,2.41,2.68,3.65,4.06,0,0-6.47-3.16-7.22-3.23,1.79,1.44,2.75,3.37,2.75,3.37-2.06-.48-3.85-1.03-5.98-1.38Z"/>
        <path class="cls-12" d="m243.83,132.93s6.19-1.51,6.95-1.31"/>
      </g>
    </g>
  </g>
</svg>