<?xml version="1.0" encoding="UTF-8"?>
<svg id="Layer_2" data-name="Layer 2" xmlns="http://www.w3.org/2000/svg" viewBox="0 0 520 320">
  <defs>
    <style>
      .cls-1 {
        fill: #a3ab78;
      }

      .cls-1, .cls-2, .cls-3, .cls-4, .cls-5 {
        stroke-width: 0px;
      }

      .cls-2 {
        fill: #ec1c24;
      }

      .cls-3 {
        fill: none;
      }

      .cls-4 {
        fill: #fff;
      }

      .cls-5 {
        fill: #224686;
      }
    </style>
  </defs>
  <g id="_500x300_Background" data-name="500x300 Background">
    <rect class="cls-1" width="520" height="320" rx="10" ry="10"/>
  </g>
  <g id="United_States_of_America" data-name="United States of America">
    <g>
      <polygon class="cls-3" points="112.39 132.96 110.29 127.36 112.28 132.88 112.39 132.96"/>
      <polygon class="cls-3" points="107.27 163.71 112.3 167.26 107.32 163.68 107.27 163.71"/>
      <polygon class="cls-3" points="99.47 158.07 99.26 158.07 104.25 161.58 102.24 167.26 102.36 167.18 104.34 161.58 99.47 158.07"/>
      <polygon class="cls-3" points="89.99 36.95 87.98 30.83 86.23 36.95 80.1 36.95 80.22 37.04 86.23 37.04 87.98 30.92 89.99 37.04 95.9 37.04 96.03 36.95 89.99 36.95"/>
      <polygon class="cls-3" points="112.39 63.73 110.29 57.87 112.28 63.65 112.39 63.73"/>
      <polygon class="cls-3" points="107.21 152.44 107.14 152.21 105.33 157.99 105.39 157.99 107.21 152.44"/>
      <polygon class="cls-3" points="99.35 123.59 104.34 127.36 99.35 123.59 99.35 123.59"/>
      <polygon class="cls-3" points="112.39 98.04 110.29 92.26 112.28 97.96 112.39 98.04"/>
      <polygon class="cls-3" points="107.23 82.72 105.39 88.68 107.27 82.86 107.23 82.72"/>
      <polygon class="cls-3" points="107.23 117.73 105.39 123.59 107.27 117.87 107.23 117.73"/>
      <polygon class="cls-3" points="102.33 98.04 107.32 94.63 110.3 96.63 107.32 94.54 102.33 98.04"/>
      <polygon class="cls-3" points="81.58 107.36 84.91 109.68 83.07 115.63 83.22 115.52 85 109.68 81.58 107.36"/>
      <polygon class="cls-3" points="95.81 106.35 95.94 106.27 89.96 106.27 89.99 106.35 95.81 106.35"/>
      <polygon class="cls-3" points="87.95 100.49 87.89 100.32 86.14 106.27 80.01 106.27 80.14 106.35 86.23 106.35 87.95 100.49"/>
      <polygon class="cls-3" points="84.98 40.44 83.16 46.14 85 40.46 84.98 40.44"/>
      <polygon class="cls-3" points="87.98 134.53 86.23 140.48 80.1 140.48 80.1 140.48 86.23 140.48 87.98 134.53"/>
      <polygon class="cls-3" points="89.99 140.48 87.98 134.53 89.99 140.48 96.03 140.48 96.03 140.48 89.99 140.48"/>
      <polygon class="cls-3" points="87.93 76.98 92.88 80.36 92.85 80.29 87.98 76.95 87.93 76.98"/>
      <polygon class="cls-3" points="92.88 46.23 92.82 46.04 87.98 42.73 92.88 46.23"/>
      <polygon class="cls-3" points="80.1 71.17 80.01 71.17 84.91 74.59 83.07 80.36 83.19 80.28 85 74.59 80.1 71.17"/>
      <polygon class="cls-3" points="87.93 65.36 87.89 65.22 86.14 71.17 86.23 71.17 87.93 65.36"/>
      <polygon class="cls-3" points="140.92 132.96 145.87 129.49 145.82 129.46 140.92 132.96"/>
      <polygon class="cls-3" points="137.89 158.07 137.68 158.07 142.67 161.58 140.83 167.26 140.95 167.18 142.76 161.58 137.89 158.07"/>
      <polygon class="cls-3" points="145.77 152.31 145.74 152.21 143.92 157.99 143.98 157.99 145.77 152.31"/>
      <polygon class="cls-3" points="128.23 37.04 126.39 30.92 126.35 31.06 128.23 37.04 128.23 37.04"/>
      <polygon class="cls-3" points="150.9 132.96 148.71 127.36 150.78 132.87 150.9 132.96"/>
      <polygon class="cls-3" points="121.53 46.12 121.49 46.23 126.31 42.82 131.3 46.23 131.26 46.12 126.31 42.73 121.53 46.12"/>
      <polygon class="cls-3" points="67.93 25.95 69.16 25.05 74.15 28.64 74.12 28.56 69.25 24.96 67.93 25.95"/>
      <polygon class="cls-3" points="150.9 98.04 148.71 92.26 150.78 97.96 150.9 98.04"/>
      <polygon class="cls-3" points="140.92 98.04 145.91 94.63 147.4 95.64 145.82 94.54 140.92 98.04"/>
      <polygon class="cls-3" points="107.23 48.51 105.39 54.46 107.29 48.69 107.23 48.51"/>
      <polygon class="cls-3" points="128.23 71.17 126.39 65.22 126.35 65.36 128.23 71.17 128.23 71.17"/>
      <polygon class="cls-3" points="137.77 123.59 142.76 127.36 137.77 123.59 137.77 123.59"/>
      <polygon class="cls-3" points="99.35 19.28 104.34 22.78 99.47 19.28 99.35 19.28"/>
      <polygon class="cls-3" points="107.23 13.5 106 17.35 107.26 13.59 107.23 13.5"/>
      <polygon class="cls-3" points="115.19 19.28 115.16 19.28 110.29 22.78 115.19 19.28"/>
      <polygon class="cls-3" points="112.39 28.64 110.29 22.78 112.28 28.56 112.39 28.64"/>
      <polygon class="cls-3" points="102.33 28.64 107.32 25.05 110.24 27.12 107.32 24.96 102.33 28.64"/>
      <polygon class="cls-3" points="121.49 115.63 121.53 115.61 123.24 109.68 121.49 115.63"/>
      <polygon class="cls-3" points="124.56 140.48 124.56 140.48 118.43 140.48 118.43 140.48 124.56 140.48 124.56 140.48"/>
      <polygon class="cls-3" points="128.23 106.27 126.39 100.32 126.34 100.5 128.23 106.35 134.23 106.35 134.36 106.27 128.23 106.27"/>
      <polygon class="cls-3" points="125.1 104.52 124.56 106.27 118.43 106.27 118.55 106.35 124.56 106.35 125.1 104.52"/>
      <polygon class="cls-3" points="128.23 140.48 126.39 134.53 126.35 134.67 128.23 140.48 134.36 140.48 134.36 140.48 128.23 140.48"/>
      <polygon class="cls-3" points="54.63 115.63 52.62 109.68 54.59 115.6 54.63 115.63"/>
      <polygon class="cls-3" points="38.97 19.28 38.84 19.28 33.89 22.78 38.97 19.28"/>
      <polygon class="cls-3" points="30.79 60.18 35.73 63.73 35.7 63.65 30.83 60.15 30.79 60.18"/>
      <polygon class="cls-3" points="22.95 54.46 27.94 57.87 23.04 54.46 22.95 54.46"/>
      <polygon class="cls-3" points="30.8 48.69 30.74 48.51 28.99 54.46 29.08 54.46 30.8 48.69"/>
      <polygon class="cls-3" points="22.95 19.28 27.94 22.78 23.16 19.28 22.95 19.28"/>
      <polygon class="cls-3" points="25.93 28.64 30.74 25.05 35.73 28.64 35.7 28.56 30.83 24.96 25.93 28.64"/>
      <polygon class="cls-3" points="41.77 140.48 47.81 140.48 49.6 134.67 49.56 134.53 47.72 140.48 41.68 140.48 46.67 144.07 44.66 149.85 44.77 149.76 46.76 144.07 41.77 140.48"/>
      <rect class="cls-3" x="54.5" y="137.55" width="0" height="5.86" transform="translate(-83.37 79.69) rotate(-45)"/>
      <polygon class="cls-3" points="30.77 13.6 30.74 13.5 29.02 19.19 29.08 19.19 30.77 13.6"/>
      <polygon class="cls-3" points="25.93 98.04 30.74 94.63 35.73 98.04 35.7 97.96 30.83 94.54 25.93 98.04"/>
      <polygon class="cls-3" points="38.97 158.07 38.84 158.07 33.89 161.58 38.97 158.07"/>
      <polygon class="cls-3" points="23.04 158.07 25.92 160.1 23.16 158.07 23.04 158.07"/>
      <polygon class="cls-3" points="26.02 167.26 30.83 163.68 26.05 167.18 26.02 167.26"/>
      <polygon class="cls-3" points="150.9 63.73 148.71 57.87 150.78 63.65 150.9 63.73"/>
      <polygon class="cls-3" points="38.97 123.59 38.97 123.59 33.89 127.36 38.97 123.59"/>
      <polygon class="cls-3" points="69.16 13.5 67.93 17.35 69.19 13.59 69.16 13.5"/>
      <polygon class="cls-3" points="22.95 123.59 27.94 127.36 23.04 123.59 22.95 123.59"/>
      <polygon class="cls-3" points="22.95 88.68 27.94 92.26 23.04 88.68 22.95 88.68"/>
      <polygon class="cls-3" points="30.79 129.49 35.73 132.96 35.7 132.88 30.83 129.46 30.79 129.49"/>
      <polygon class="cls-3" points="30.79 82.87 30.74 82.72 28.99 88.68 29.08 88.68 30.79 82.87"/>
      <polygon class="cls-3" points="30.79 117.87 30.74 117.73 28.99 123.59 29.08 123.59 30.79 117.87"/>
      <polygon class="cls-3" points="67.76 95.6 69.16 94.63 74.15 98.04 74.12 97.96 69.25 94.54 67.76 95.6"/>
      <polygon class="cls-3" points="69.16 82.72 67.32 88.68 69.2 82.86 69.16 82.72"/>
      <polygon class="cls-3" points="57.31 106.35 57.43 106.27 51.54 106.27 51.57 106.35 57.31 106.35"/>
      <polygon class="cls-3" points="71.09 54.46 69.25 48.51 68.79 49.98 69.25 48.59 71.09 54.46"/>
      <polygon class="cls-3" points="69.2 129.49 74.15 132.96 74.12 132.88 69.25 129.46 69.2 129.49"/>
      <polygon class="cls-3" points="69.2 60.18 74.15 63.73 74.12 63.65 69.25 60.15 69.2 60.18"/>
      <polygon class="cls-3" points="64.26 28.64 64.37 28.56 66.1 22.78 64.26 28.64"/>
      <polygon class="cls-3" points="61.2 19.28 66.1 22.78 61.32 19.28 61.2 19.28"/>
      <polygon class="cls-3" points="76.95 19.28 76.92 19.28 72.31 22.78 76.95 19.28"/>
      <polygon class="cls-3" points="69.16 117.73 67.32 123.59 69.2 117.87 69.16 117.73"/>
      <polygon class="cls-3" points="64.26 98.04 64.37 97.96 66.1 92.26 64.26 98.04"/>
      <polygon class="cls-3" points="49.6 65.36 49.56 65.22 47.72 71.17 47.81 71.17 49.6 65.36"/>
      <polygon class="cls-3" points="49.6 31.06 49.56 30.92 47.72 37.04 47.81 37.04 49.6 31.06"/>
      <polygon class="cls-3" points="41.77 71.17 41.68 71.17 46.67 74.59 44.66 80.36 44.77 80.28 46.76 74.59 41.77 71.17"/>
      <polygon class="cls-3" points="43.34 107.4 46.67 109.68 44.66 115.63 44.81 115.52 46.76 109.68 43.34 107.4"/>
      <polygon class="cls-3" points="61.2 123.59 66.1 127.36 61.2 123.59 61.2 123.59"/>
      <polygon class="cls-3" points="49.61 100.5 49.56 100.32 47.72 106.27 41.68 106.27 41.81 106.35 47.81 106.35 49.61 100.5"/>
      <polygon class="cls-3" points="44.74 46.14 46.76 40.46 41.77 37.04 41.68 37.04 46.67 40.46 44.66 46.23 49.64 42.82 54.63 46.23 54.59 46.12 49.64 42.73 44.74 46.14"/>
      <polygon class="cls-3" points="61.28 158.07 62.6 159.01 61.32 158.07 61.28 158.07"/>
      <polygon class="cls-3" points="64.26 132.96 64.37 132.88 66.1 127.36 64.26 132.96"/>
      <polygon class="cls-3" points="77.04 158.07 76.92 158.07 72.31 161.58 77.04 158.07"/>
      <polygon class="cls-3" points="131.3 115.63 129.37 109.68 131.26 115.6 131.3 115.63"/>
      <polygon class="cls-3" points="188.97 63.73 187.13 57.87 188.97 63.73 188.97 63.73"/>
      <polygon class="cls-3" points="187.13 92.26 192.21 88.68 192.03 88.68 187.13 92.26"/>
      <polygon class="cls-3" points="179.34 98.04 184.33 94.63 188.96 98.04 184.33 94.54 179.34 98.04"/>
      <polygon class="cls-3" points="188.97 28.64 187.13 22.78 188.97 28.64 188.97 28.64"/>
      <polygon class="cls-3" points="186.17 54.46 184.42 48.51 184.36 48.69 185.99 54.46 186.17 54.46"/>
      <polygon class="cls-3" points="159.65 46.14 161.66 40.46 156.85 37.04 156.76 37.04 161.58 40.46 159.56 46.23 164.55 42.82 169.71 46.23 169.68 46.12 164.64 42.73 159.65 46.14"/>
      <polygon class="cls-3" points="187.13 57.87 192.21 54.46 192.03 54.46 187.13 57.87"/>
      <polygon class="cls-3" points="186.17 123.59 184.42 117.73 184.37 117.87 185.99 123.59 186.17 123.59"/>
      <polygon class="cls-3" points="186.14 157.99 184.42 152.21 184.38 152.31 185.99 157.99 186.14 157.99"/>
      <polygon class="cls-3" points="176.37 158.07 177.59 158.97 176.4 158.07 176.37 158.07"/>
      <polygon class="cls-3" points="191.91 158.07 187.13 161.58 188.97 167.26 187.22 161.58 192.21 158.07 191.91 158.07"/>
      <polygon class="cls-3" points="188.97 132.96 187.13 127.36 188.97 132.96 188.97 132.96"/>
      <polygon class="cls-3" points="188.97 98.04 187.13 92.26 188.97 98.04 188.97 98.04"/>
      <polygon class="cls-3" points="187.13 127.36 192.21 123.59 192.03 123.59 187.13 127.36"/>
      <polygon class="cls-3" points="176.37 19.28 177.59 20.17 176.4 19.28 176.37 19.28"/>
      <polygon class="cls-3" points="186.17 88.68 184.42 82.72 184.37 82.87 185.99 88.68 186.17 88.68"/>
      <polygon class="cls-3" points="204.19 65.22 202.36 71.17 204.24 65.36 204.19 65.22"/>
      <polygon class="cls-3" points="196.06 37.04 201.13 40.46 196.14 37.04 196.06 37.04"/>
      <polygon class="cls-3" points="196.06 71.17 201.13 74.59 196.14 71.17 196.06 71.17"/>
      <polygon class="cls-3" points="199.33 46.12 199.29 46.23 204.28 42.82 209.1 46.23 209.06 46.12 204.28 42.73 199.33 46.12"/>
      <polygon class="cls-3" points="211.86 106.35 211.98 106.27 206.01 106.27 206.03 106.35 211.86 106.35"/>
      <polygon class="cls-3" points="204.19 30.92 202.36 37.04 204.24 31.06 204.19 30.92"/>
      <rect class="cls-3" x="209.01" y="137.51" width="0" height="5.95" transform="translate(-38.12 188.94) rotate(-45)"/>
      <polygon class="cls-3" points="186.14 19.19 184.42 13.5 184.38 13.6 185.99 19.19 186.14 19.19"/>
      <polygon class="cls-3" points="187.13 22.78 192.21 19.28 191.91 19.28 187.13 22.78"/>
      <polygon class="cls-3" points="179.34 28.64 184.33 25.05 188.96 28.64 184.33 24.96 179.34 28.64"/>
      <polygon class="cls-3" points="202.36 140.48 204.24 134.67 204.19 134.53 202.36 140.48 196.06 140.48 201.13 144.07 196.14 140.48 202.36 140.48"/>
      <polygon class="cls-3" points="209.1 115.63 207.26 109.68 209.06 115.6 209.1 115.63"/>
      <polygon class="cls-3" points="199.29 115.63 199.33 115.61 201.13 109.68 199.29 115.63"/>
      <polygon class="cls-3" points="204.25 100.5 204.19 100.32 202.36 106.27 196.06 106.27 196.19 106.35 202.36 106.35 204.25 100.5"/>
      <rect class="cls-3" x="169.58" y="137.55" width="0" height="5.86" transform="translate(-49.67 161.06) rotate(-45)"/>
      <polygon class="cls-3" points="164.6 146.29 169.71 149.85 164.64 146.26 164.6 146.29"/>
      <polygon class="cls-3" points="156.85 140.48 162.71 140.48 164.6 134.67 164.55 134.53 162.71 140.48 156.76 140.48 161.58 144.07 159.56 149.85 159.68 149.76 161.66 144.07 156.85 140.48"/>
      <polygon class="cls-3" points="169.71 115.63 167.88 109.68 169.68 115.61 169.71 115.63"/>
      <polygon class="cls-3" points="172.4 106.35 172.51 106.27 166.62 106.27 166.65 106.35 172.4 106.35"/>
      <polygon class="cls-3" points="164.61 100.49 164.55 100.32 162.71 106.27 156.76 106.27 156.89 106.35 162.71 106.35 164.61 100.49"/>
      <polygon class="cls-3" points="150.9 28.64 148.71 22.78 150.78 28.56 150.9 28.64"/>
      <polygon class="cls-3" points="153.61 19.28 153.58 19.28 148.71 22.78 153.61 19.28"/>
      <polygon class="cls-3" points="164.55 30.92 162.71 37.04 164.6 31.05 164.55 30.92"/>
      <polygon class="cls-3" points="146.28 49.98 145.82 48.51 143.99 54.44 145.82 48.59 146.28 49.98"/>
      <polygon class="cls-3" points="140.92 63.73 145.87 60.18 145.82 60.15 140.92 63.73"/>
      <polygon class="cls-3" points="137.77 19.28 142.76 22.78 137.89 19.28 137.77 19.28"/>
      <polygon class="cls-3" points="158.25 107.32 161.58 109.68 159.56 115.63 159.72 115.52 161.66 109.68 158.25 107.32"/>
      <polygon class="cls-3" points="140.92 28.64 145.91 25.05 147.22 26 145.82 24.96 140.92 28.64"/>
      <polygon class="cls-3" points="164.6 76.98 169.71 80.36 164.64 76.95 164.6 76.98"/>
      <polygon class="cls-3" points="156.85 71.17 156.76 71.17 161.58 74.59 159.56 80.36 159.68 80.28 161.66 74.59 156.85 71.17"/>
      <polygon class="cls-3" points="164.55 65.22 162.71 71.17 164.6 65.35 164.55 65.22"/>
      <polygon class="cls-4" points="213.84 170.68 213.61 170.68 10 170.68 10 194.66 509.92 194.66 510 194.66 510 170.68 243.4 170.68 243.14 170.68 213.84 170.68"/>
      <rect class="cls-4" x="243.4" y="126.92" width="266.6" height="22.49"/>
      <rect class="cls-4" x="10" y="218.11" width="499.92" height="23.28"/>
      <rect class="cls-4" x="243.4" y="33.1" width="266.6" height="23.28"/>
      <polygon class="cls-4" points="243.4 102.85 242.96 102.85 242.96 102.85 243.4 102.85 510 102.85 510 80.1 243.4 80.1 243.4 102.85"/>
      <rect class="cls-4" x="10" y="264.58" width="499.92" height="22.32"/>
      <polygon class="cls-2" points="230.97 19.28 230.94 19.28 226.07 22.78 230.97 19.28"/>
      <polygon class="cls-2" points="218.28 28.64 223.1 25.05 227.91 28.64 227.88 28.55 223.19 24.96 218.28 28.64"/>
      <polygon class="cls-2" points="220.03 22.78 215.17 19.28 214.96 19.28 220.03 22.78"/>
      <polygon class="cls-2" points="223.13 13.59 223.1 13.5 221.12 19.19 221.17 19.19 223.13 13.59"/>
      <rect class="cls-2" x="243.4" y="10" width="266.6" height="23.1"/>
      <polygon class="cls-2" points="243.4 80.1 243.4 80.1 510 80.1 510 56.38 243.4 56.38 243.4 80.1"/>
      <polygon class="cls-2" points="217.82 56.38 220.03 57.87 217.86 56.38 217.82 56.38"/>
      <polygon class="cls-2" points="223.14 60.18 227.91 63.73 227.88 63.65 223.19 60.15 223.14 60.18"/>
      <polygon class="cls-2" points="223.14 117.86 223.1 117.73 221.09 123.59 221.17 123.59 223.14 117.86"/>
      <polygon class="cls-2" points="215.05 123.59 214.96 123.59 219.44 126.92 219.45 126.92 215.05 123.59"/>
      <polygon class="cls-2" points="243.4 126.92 243.4 126.92 510 126.92 510 102.85 243.4 102.85 243.4 126.92"/>
      <polygon class="cls-2" points="215.05 158.07 218 160.11 215.17 158.07 215.05 158.07"/>
      <polygon class="cls-2" points="231.06 158.07 230.94 158.07 226.07 161.58 231.06 158.07"/>
      <polygon class="cls-2" points="218.37 167.26 223.19 163.68 218.4 167.18 218.37 167.26"/>
      <rect class="cls-2" x="243.4" y="149.41" width="266.6" height="21.18"/>
      <rect class="cls-2" x="10" y="194.66" width="499.92" height="23.45"/>
      <rect class="cls-2" x="10" y="241.39" width="499.92" height="23.19"/>
      <rect class="cls-2" x="10" y="286.9" width="499.92" height="23.1"/>
      <path class="cls-5" d="m243.4,126.92h0v-24.07h-.44s.44,0,.44,0v-22.75h0V10H10v160.68h233.4v-43.76Zm-204.43,31.16l-5.08,3.5,1.93,5.69-4.99-3.59-4.81,3.59.03-.09-.12.09,2.01-5.69-2.02-1.48-2.88-2.02h.12l-.12-.09h6.04l1.75-5.86,1.84,5.86h6.3l-.12.09h.12Zm0-34.48l-5.08,3.76,1.93,5.6-.11-.08.03.08-4.94-3.47-4.86,3.47,2.01-5.6-4.99-3.76h.09,0s5.95,0,5.95,0l1.75-5.86.04.14.04-.14,1.84,5.86h6.3,0s0,0,0,0Zm-5.08-31.33l1.93,5.78-.11-.08.03.08-4.99-3.41-4.81,3.41,2.01-5.78-4.99-3.59h6.04l1.75-5.95.04.15.04-.15,1.84,5.95h6.3l-5.08,3.59Zm0-34.39l1.93,5.86-.11-.08.03.08-4.94-3.56-4.86,3.56,2.01-5.86-4.99-3.41h6.04l1.75-5.95.06.19.03-.1,1.84,5.86h6.3l-5.08,3.41Zm5.08-38.59l-5.08,3.5,1.93,5.86-.11-.08.03.08-4.99-3.59-4.81,3.59,2.01-5.86-4.99-3.5h.21l-.12-.09h5.98l1.72-5.69.03.1.06-.19,1.84,5.78h6.3l-.12.09h.12Zm15.67,130.57l-4.99-3.59-4.9,3.59.03-.08-.12.08,2.01-5.78-4.99-3.59h6.04l1.84-5.95.04.14.04-.14,1.93,5.95h5.86,0s.18,0,.18,0l-4.99,3.59,2.01,5.78Zm-2.01-40.17l2.01,5.95-.04-.03.04.12-4.99-3.59-4.9,3.59.07-.2-.15.11,2.01-5.95-3.33-2.28-1.58-1.05h.04l-.13-.09h6.04l1.84-5.95.06.19.03-.1,1.9,5.86h5.89l-.12.09h.3l-4.99,3.33Zm0-35.09l2.01,5.78-4.99-3.41-4.9,3.41.03-.08-.11.08,2.01-5.78-4.99-3.41h6.04l1.84-5.95.04.14.04-.14,1.93,5.95h6.04l-4.99,3.41Zm0-34.13l2.01,5.69-.04-.03.04.11-4.99-3.41-4.99,3.41,2.01-5.78-4.99-3.41h6.04l1.84-6.13.04.15.04-.15,1.93,6.13h6.04l-4.99,3.41Zm24.42,117.62l-4.73,3.5,1.93,5.69-4.99-3.59-4.9,3.59,1.75-5.69-3.5-2.56-1.31-.94h.03l-.12-.09h6.13l1.93-5.86,1.84,5.86h5.95l-.12.09h.12Zm-4.73-30.72l1.93,5.6-.11-.08.03.08-4.94-3.47-4.86,3.47.03-.08-.11.08,1.84-5.6-4.9-3.76h0,0s6.13,0,6.13,0h0s1.84-5.86,1.84-5.86l.04.14.04-.14,1.84,5.86h5.95l-4.73,3.76Zm0-35.09l1.93,5.78-.11-.08.03.08-4.99-3.41-1.4.98-3.41,2.44.02-.08-.11.08,1.84-5.78-4.9-3.59h6.13l1.84-5.95.04.14.04-.14,1.84,5.95h5.95l-4.73,3.59Zm0-34.39l1.93,5.86-.11-.08.03.08-4.94-3.56-4.86,3.56,1.75-5.86-4.9-3.41h6.13l1.47-4.48.45-1.47,1.84,5.95h5.95l-4.73,3.41Zm4.61-38.59h.03l-4.64,3.5,1.93,5.86-.11-.08.03.08-4.99-3.59-1.23.9-3.59,2.69.02-.08-.11.08,1.84-5.86-4.9-3.5h.12l-.12-.09h6.13l.61-1.84,1.23-3.85.03.09.06-.18,1.84,5.78h5.95l-.12.09Zm19.11,121.21l-4.99,3.59,1.93,5.78-4.99-3.59-4.81,3.59,1.84-5.78-4.9-3.59h0,0s6.13,0,6.13,0l1.75-5.95,2.01,5.95h6.04,0s0,0,0,0Zm-4.99-30.81l1.93,6.04-4.99-3.59-4.81,3.59.06-.2-.15.11,1.84-5.95-3.33-2.32-1.49-1.01h.04l-.13-.09h6.13l1.75-5.95.06.18.03-.09,1.98,5.86h5.98l-.13.09h.21l-4.99,3.33Zm0-35.09l1.93,5.78-.11-.08.02.08-4.94-3.38-4.77,3.38.03-.08-.11.08,1.84-5.78-4.9-3.41h6.13l1.75-5.95.05.14.04-.14,2.01,5.95h6.04l-4.99,3.41Zm4.99-37.54l-4.99,3.41,1.93,5.69-.15-.1.06.19-4.9-3.5-4.81,3.41,1.82-5.7-4.88-3.4h.13l-.13-.09h6.13l1.75-6.13,2.01,6.13h6.04l-.12.09h.12Zm16.28,130.22l-5.03-3.56-4.94,3.56.03-.08-.12.08,2.01-5.69-4.99-3.5h.21l-.12-.09h5.98l1.81-5.78.07.23.1-.32,1.84,5.86h6.13l-4.99,3.59,2.01,5.69Zm-2.01-39.91l2.1,5.6-.12-.08.03.08-4.99-3.5-4.99,3.5,2.01-5.6-4.99-3.76h0,0s6.04,0,6.04,0h0s1.84-5.86,1.84-5.86l.04.14.04-.14,1.84,5.86h6.13l-4.99,3.76Zm0-35.09l2.1,5.78-.11-.08.03.08-2-1.41-2.98-2.01-4.99,3.41,2.01-5.78-4.99-3.59h6.04l1.84-5.95.04.14.04-.14,1.84,5.95h6.13l-4.99,3.59Zm0-34.39l2.1,5.86-.12-.08.03.08-4.99-3.59-4.99,3.59,2.01-5.86-4.99-3.41h6.04l1.84-5.95.06.18.03-.09,1.84,5.86h6.13l-4.99,3.41Zm4.87-38.59h.03l-4.9,3.5,2.1,5.86-.12-.08.03.08-2.07-1.52-2.92-2.07-4.99,3.59,2.01-5.86-4.99-3.5h.12l-.12-.09h6.04l.61-1.84,1.23-3.85.03.09.06-.18,1.84,5.78h6.13l-.12.09Zm19.2,121.21l-4.99,3.59,1.93,5.78-4.99-3.59-4.81,3.59,1.75-5.78-4.81-3.59h0,0s6.13,0,6.13,0h0s1.75-5.95,1.75-5.95l.04.14.04-.14,1.84,5.95h6.13,0s0,0,0,0Zm0-34.13l-4.99,3.33,1.93,5.95-.04-.03.04.11-4.99-3.59-4.81,3.59.03-.11-.03.02,1.75-5.95-4.81-3.33h.12l-.12-.09h6.13l.54-1.75,1.21-4.11.03.1.06-.18,1.84,5.95h6.13l-.13.09h.13Zm-4.99-31.77l1.93,5.78-4.99-3.41-4.81,3.41,1.75-5.78-4.81-3.41h6.13l1.75-5.95.04.14.04-.14,1.84,5.95h6.13l-4.99,3.41Zm0-34.13l1.93,5.69-.04-.03.04.11-4.99-3.41-4.81,3.41.03-.11-.03.02,1.75-5.69-4.81-3.41h6.13l1.75-6.13.04.14.04-.14,1.84,6.13h6.13l-4.99,3.41Zm21.44,126.81l-4.99-3.59-4.9,3.59.03-.08-.11.08,1.84-5.69-4.99-3.5h.21l-.12-.09h6.15l1.81-5.78.03.1.06-.18,1.93,5.86h5.95l-4.99,3.59,2.1,5.69Zm-2.1-39.91l2.19,5.6-.12-.08.03.08-4.94-3.47-4.94,3.47,1.84-5.6-4.99-3.76h0,0s6.21,0,6.21,0l1.84-5.86,1.93,5.86h5.95l-4.99,3.76Zm0-35.09l2.19,5.78-.12-.08.03.08-3.41-2.4-1.49-1.02-4.99,3.41,1.84-5.78-4.99-3.59h6.21l1.84-5.95,1.93,5.95h5.95l-4.99,3.59Zm0-34.39l2.19,5.86-.12-.08.03.08-4.94-3.56-4.94,3.56,1.84-5.86-4.99-3.41h6.22s1.83-5.95,1.83-5.95l.45,1.47,1.47,4.48h5.95l-4.99,3.41Zm4.87-38.59h.03l-4.9,3.5,2.19,5.86-.12-.08.03.08-3.59-2.64-1.31-.94-4.99,3.59,1.84-5.86-4.99-3.5h.12l-.12-.09h6.21l1.84-5.78,1.93,5.78h5.95l-.12.09Zm16.14,130.57l-5.12-3.56-4.95,3.56.03-.08-.12.08,2.01-5.78-4.81-3.59h5.95l1.84-5.95.04.13.04-.13,2.01,5.95h5.86,0s.09,0,.09,0l-4.73,3.59,1.84,5.78Zm-1.84-40.17l1.84,5.95-.03-.02.03.11-5.08-3.59-4.99,3.59.07-.2-.15.11,2.01-5.95-3.33-2.36-1.4-.97h.04l-.12-.09h5.95l1.84-5.95.06.17.03-.09,1.98,5.86h5.89l-.12.09h.21l-4.73,3.33Zm0-35.09l1.84,5.78-5.12-3.38-4.95,3.38.03-.08-.11.08,2.01-5.78-4.81-3.41h5.95l1.84-5.95.04.13.04-.13,2.01,5.95h5.95l-4.73,3.41Zm0-34.13l1.84,5.69-.04-.02.04.11-5.16-3.41-4.99,3.41,2.01-5.78-4.81-3.41h5.95l1.84-6.13.04.14.04-.14,2.01,6.13h5.95l-4.73,3.41Zm21.09,126.81l-4.64-3.59-4.99,3.59,1.75-5.69-3.5-2.61-1.23-.89h.03l-.12-.09h6.04l2.01-5.86.05.19.03-.1,1.72,5.78h5.89l-.12.09h.29l-4.99,3.5,1.75,5.69Zm-1.84-39.91l1.84,5.6h0s0,0,0,0l-4.64-3.5-4.99,3.5,1.75-5.6-4.81-3.76h6.04l2.01-5.86.04.14.05-.14,1.75,5.86h5.86,0s.18,0,.18,0l-5.08,3.76Zm0-35.09l1.84,5.78h0s0,0,0,0h0s-4.64-3.41-4.64-3.41l-4.99,3.41,1.75-5.78-4.81-3.59h6.04l2.01-5.95.04.14.05-.14,1.75,5.95h6.04l-5.08,3.59Zm0-34.39l1.84,5.86h0s0,0,0,0l-4.64-3.59-4.99,3.59,1.75-5.86-4.81-3.41h6.04l2.01-5.86.03.09.06-.18,1.75,5.95h6.04l-5.08,3.41Zm0-35.09l1.84,5.86h0s0,0,0,0h0s-4.64-3.59-4.64-3.59l-4.99,3.59,1.75-5.86-3.5-2.61-1.23-.89h.03l-.12-.09h6.04l2.01-5.78.05.19.03-.1,1.72,5.69h5.89l-.12.09h.29l-5.08,3.5Zm21.97,127.07l-4.81-3.59-4.99,3.59,1.84-5.78-5.08-3.59h6.3l1.84-5.95.04.14.05-.14,1.75,5.95h5.95,0s.09,0,.09,0l-4.81,3.59,1.84,5.78Zm-1.84-40.17l1.84,5.95-.03-.03.03.11-4.81-3.59-4.99,3.59.03-.11-.03.02,1.84-5.95-4.99-3.33h.04l-.13-.09h6.3l1.84-5.95.06.19.03-.1,1.72,5.86h5.98l-.12.09h.21l-4.81,3.33Zm0-35.09l1.84,5.78-4.81-3.41-4.99,3.41,1.84-5.78-5.08-3.41h6.3l1.84-5.95.04.14.05-.14,1.75,5.95h6.04l-4.81,3.41Zm0-34.13l1.84,5.69-.04-.03.04.11-4.81-3.41-4.99,3.41.04-.11-.04.02,1.84-5.69-5.08-3.41h6.3l1.84-6.13.04.15.05-.15,1.75,6.13h6.04l-4.81,3.41Zm20.74,92.5l-.11-.08.03.08-4.77-3.47-4.86,3.47,1.75-5.6-.59-.44-4.49-3.33h.09,0s6.04,0,6.04,0l2.01-5.86.04.13.05-.13,1.84,5.86h6.04l-4.99,3.76,1.93,5.6Zm3.06,25.12l-4.99,3.5,1.93,5.69-4.81-3.59-4.81,3.59.03-.08-.11.08,1.75-5.69-2.04-1.46-2.95-2.04h.12l-.12-.09h6.13l2.01-5.86,1.84,5.86h6.04l-.12.09h.12Zm-13.24-101.69l-2.86-1.93h6.13l2.01-5.95.06.18.03-.09,1.84,5.86h6.04l-4.99,3.41,1.93,5.86-.11-.09.03.09-4.77-3.56-4.86,3.56,1.75-5.86-2.21-1.49Zm-2.78,32.29h6.04l2.01-5.95.04.14.05-.14,1.84,5.95h6.04l-4.99,3.59,1.93,5.78-.11-.08.03.08-4.81-3.41-4.81,3.41,1.75-5.78-5.08-3.59h.09Zm0-69.49h6.07l1.98-5.69.03.09.06-.17,1.84,5.78h6.04l-.12.09h.03l-4.9,3.5,1.93,5.86-.12-.09.03.09-4.81-3.59-4.81,3.59,1.75-5.86-5.08-3.5h.21l-.12-.09Z"/>
      <polygon class="cls-4" points="32.67 19.19 30.83 13.41 30.77 13.6 29.08 19.19 29.02 19.19 23.04 19.19 23.16 19.28 27.94 22.78 25.93 28.64 30.83 24.96 35.7 28.56 35.82 28.64 33.89 22.78 38.84 19.28 38.97 19.19 32.67 19.19"/>
      <polygon class="cls-4" points="69.25 13.41 69.19 13.59 67.93 17.35 67.32 19.19 61.2 19.19 61.32 19.28 66.1 22.78 64.37 28.56 64.35 28.64 67.93 25.95 69.25 24.96 74.12 28.56 74.24 28.64 72.31 22.78 76.92 19.28 77.04 19.19 71.09 19.19 69.25 13.41"/>
      <polygon class="cls-4" points="107.32 13.41 107.26 13.59 106 17.35 105.39 19.19 99.35 19.19 99.47 19.28 104.34 22.78 102.33 28.64 107.32 24.96 110.24 27.12 112.3 28.64 112.28 28.56 110.29 22.78 115.16 19.28 115.28 19.19 109.15 19.19 107.32 13.41"/>
      <polygon class="cls-4" points="145.82 13.41 143.98 19.19 137.77 19.19 137.89 19.28 142.76 22.78 140.92 28.64 145.82 24.96 147.22 26 150.81 28.64 150.78 28.56 148.71 22.78 153.58 19.28 153.7 19.19 147.75 19.19 145.82 13.41"/>
      <polygon class="cls-4" points="192.03 19.19 186.14 19.19 185.99 19.19 184.38 13.6 184.33 13.41 182.32 19.19 176.28 19.19 176.4 19.28 177.59 20.17 181.09 22.78 179.34 28.64 184.33 24.96 188.96 28.64 188.97 28.64 188.97 28.64 187.13 22.78 191.91 19.28 192.03 19.19"/>
      <polygon class="cls-4" points="218.28 28.64 223.19 24.96 227.88 28.55 228 28.64 226.07 22.78 230.94 19.28 231.06 19.19 225.02 19.19 223.19 13.41 223.13 13.59 221.17 19.19 221.12 19.19 215.05 19.19 215.17 19.28 220.03 22.78 218.28 28.64"/>
      <polygon class="cls-4" points="223.14 60.18 223.19 60.15 227.88 63.65 228 63.73 226.07 57.87 231.06 54.46 230.97 54.46 225.02 54.46 223.19 48.59 223.15 48.69 223.1 48.51 221.09 54.46 215.05 54.46 214.96 54.46 217.82 56.38 217.86 56.38 220.03 57.87 218.28 63.73 223.14 60.18"/>
      <polygon class="cls-4" points="186.17 54.46 185.99 54.46 184.36 48.69 184.33 48.59 182.32 54.46 176.37 54.46 176.28 54.46 181.09 57.87 179.34 63.73 184.33 60.15 188.97 63.73 188.97 63.73 187.13 57.87 192.03 54.46 186.17 54.46"/>
      <polygon class="cls-4" points="147.75 54.46 146.28 49.98 145.82 48.59 143.99 54.44 143.98 54.46 137.77 54.46 142.76 57.87 140.92 63.73 145.82 60.15 145.87 60.18 150.81 63.73 150.78 63.65 148.71 57.87 153.7 54.46 153.61 54.46 147.75 54.46"/>
      <polygon class="cls-4" points="109.15 54.46 107.32 48.59 107.29 48.69 105.39 54.46 99.35 54.46 104.34 57.87 102.33 63.73 107.32 60.15 112.3 63.73 112.28 63.65 110.29 57.87 115.28 54.46 115.19 54.46 109.15 54.46"/>
      <polygon class="cls-4" points="69.25 48.59 68.79 49.98 67.32 54.46 61.28 54.46 61.2 54.46 66.1 57.87 64.35 63.73 69.2 60.18 69.25 60.15 74.12 63.65 74.24 63.73 72.31 57.87 77.04 54.46 71.09 54.46 69.25 48.59"/>
      <polygon class="cls-4" points="30.83 48.59 30.8 48.69 29.08 54.46 28.99 54.46 23.04 54.46 27.94 57.87 25.93 63.73 30.79 60.18 30.83 60.15 35.7 63.65 35.82 63.73 33.89 57.87 38.97 54.46 32.67 54.46 30.83 48.59"/>
      <polygon class="cls-4" points="30.83 82.72 30.79 82.87 29.08 88.68 28.99 88.68 23.04 88.68 27.94 92.26 25.93 98.04 30.83 94.54 35.7 97.96 35.82 98.04 33.89 92.26 38.97 88.68 32.67 88.68 30.83 82.72"/>
      <polygon class="cls-4" points="32.67 123.59 30.83 117.73 30.79 117.87 29.08 123.59 28.99 123.59 23.04 123.59 23.04 123.59 27.94 127.36 25.93 132.96 30.79 129.49 30.83 129.46 35.7 132.88 35.82 132.96 33.89 127.36 38.97 123.59 38.97 123.59 32.67 123.59"/>
      <polygon class="cls-4" points="32.67 157.99 30.83 152.12 29.08 157.99 23.04 157.99 23.16 158.07 25.92 160.1 27.94 161.58 25.93 167.26 26.05 167.18 30.83 163.68 35.82 167.26 33.89 161.58 38.84 158.07 38.97 157.99 32.67 157.99"/>
      <polygon class="cls-4" points="71.09 157.99 69.25 152.12 67.32 157.99 61.2 157.99 61.32 158.07 62.6 159.01 66.1 161.58 64.35 167.26 69.25 163.68 74.24 167.26 72.31 161.58 76.92 158.07 77.04 157.99 71.09 157.99"/>
      <polygon class="cls-4" points="109.15 157.99 107.32 152.12 107.21 152.44 105.39 157.99 105.33 157.99 99.35 157.99 99.47 158.07 104.34 161.58 102.36 167.18 102.33 167.26 107.27 163.71 107.32 163.68 112.3 167.26 110.29 161.58 115.28 157.99 109.15 157.99"/>
      <polygon class="cls-4" points="147.75 157.99 145.82 152.12 145.77 152.31 143.98 157.99 143.92 157.99 137.77 157.99 137.89 158.07 142.76 161.58 140.95 167.18 140.92 167.26 145.82 163.68 150.81 167.26 148.71 161.58 153.7 157.99 147.75 157.99"/>
      <polygon class="cls-4" points="191.91 158.07 192.03 157.99 186.14 157.99 185.99 157.99 184.38 152.31 184.33 152.12 182.32 157.99 176.28 157.99 176.4 158.07 177.59 158.97 181.09 161.58 179.34 167.26 184.33 163.68 188.97 167.26 187.13 161.58 191.91 158.07"/>
      <polygon class="cls-4" points="225.02 157.99 223.19 152.12 221.17 157.99 215.05 157.99 215.17 158.07 218 160.11 220.03 161.58 218.28 167.26 218.4 167.18 223.19 163.68 228 167.26 226.07 161.58 230.94 158.07 231.06 157.99 225.02 157.99"/>
      <polygon class="cls-4" points="231.06 123.59 225.02 123.59 223.19 117.73 223.14 117.86 221.17 123.59 221.09 123.59 215.05 123.59 215.05 123.59 219.45 126.92 219.44 126.92 220.03 127.36 218.28 132.96 223.14 129.49 227.91 132.96 227.88 132.87 228 132.96 226.07 127.36 231.06 123.59"/>
      <polygon class="cls-4" points="192.03 123.59 186.17 123.59 185.99 123.59 184.37 117.87 184.33 117.73 182.32 123.59 176.28 123.59 181.09 127.36 179.34 132.96 184.33 129.46 188.97 132.96 188.97 132.96 187.13 127.36 192.03 123.59 192.03 123.59"/>
      <polygon class="cls-4" points="145.82 117.73 143.98 123.59 137.77 123.59 137.77 123.59 142.76 127.36 140.92 132.96 145.82 129.46 145.87 129.49 150.81 132.96 150.78 132.87 148.71 127.36 153.7 123.59 147.75 123.59 145.82 117.73"/>
      <polygon class="cls-4" points="107.32 117.73 107.27 117.87 105.39 123.59 105.39 123.59 99.35 123.59 99.35 123.59 104.34 127.36 102.33 132.96 107.32 129.46 112.3 132.96 112.28 132.88 110.29 127.36 115.28 123.59 109.15 123.59 107.32 117.73"/>
      <polygon class="cls-4" points="69.25 117.73 69.2 117.87 67.32 123.59 67.32 123.59 61.2 123.59 61.2 123.59 66.1 127.36 64.37 132.88 64.35 132.96 69.2 129.49 69.25 129.46 74.12 132.88 74.24 132.96 72.31 127.36 77.04 123.59 71.09 123.59 69.25 117.73"/>
      <polygon class="cls-4" points="57.43 140.48 51.57 140.48 51.57 140.48 49.64 134.53 49.6 134.67 47.81 140.48 41.77 140.48 46.76 144.07 44.77 149.76 44.74 149.85 49.64 146.26 54.63 149.85 52.62 144.07 57.61 140.48 57.43 140.48"/>
      <polygon class="cls-4" points="87.98 134.53 86.23 140.48 80.1 140.48 80.1 140.48 85 144.07 83.16 149.85 87.98 146.26 92.96 149.85 91.04 144.07 96.03 140.48 96.03 140.48 89.99 140.48 87.98 134.53"/>
      <polygon class="cls-4" points="126.35 134.67 126.31 134.53 124.56 140.48 124.56 140.48 118.43 140.48 118.43 140.48 123.24 144.07 121.49 149.85 126.31 146.26 131.3 149.85 129.37 144.07 134.36 140.48 134.36 140.48 128.23 140.48 126.35 134.67"/>
      <polygon class="cls-4" points="172.51 140.48 166.65 140.48 166.65 140.48 164.64 134.53 164.6 134.67 162.71 140.48 156.85 140.48 161.66 144.07 159.68 149.76 159.65 149.85 164.6 146.29 164.64 146.26 169.71 149.85 167.88 144.07 172.6 140.48 172.51 140.48"/>
      <polygon class="cls-4" points="211.98 140.48 206.03 140.48 206.03 140.48 204.28 134.53 204.24 134.67 202.36 140.48 196.14 140.48 201.13 144.07 199.29 149.85 204.28 146.26 209.1 149.85 207.26 144.07 212.07 140.48 211.98 140.48"/>
      <polygon class="cls-4" points="206.03 106.35 206.01 106.27 204.28 100.4 204.25 100.5 202.36 106.35 196.19 106.35 196.14 106.35 201.13 109.68 199.33 115.61 199.29 115.72 204.28 112.13 209.1 115.72 209.06 115.6 207.26 109.68 212.07 106.35 211.86 106.35 206.03 106.35"/>
      <polygon class="cls-4" points="166.65 106.35 166.62 106.27 164.64 100.4 164.61 100.49 162.71 106.35 156.89 106.35 156.85 106.35 158.25 107.32 161.66 109.68 159.72 115.52 159.65 115.72 164.64 112.13 169.71 115.72 169.68 115.61 167.88 109.68 172.6 106.35 172.4 106.35 166.65 106.35"/>
      <polygon class="cls-4" points="126.34 100.5 126.31 100.4 125.1 104.52 124.56 106.35 118.55 106.35 118.43 106.35 123.24 109.68 121.53 115.61 121.49 115.72 126.31 112.13 131.3 115.72 131.26 115.6 129.37 109.68 134.36 106.35 134.23 106.35 128.23 106.35 126.34 100.5"/>
      <polygon class="cls-4" points="89.99 106.35 89.96 106.27 87.98 100.4 87.95 100.49 86.23 106.35 80.14 106.35 80.1 106.35 81.58 107.36 85 109.68 83.22 115.52 83.16 115.72 87.98 112.13 92.96 115.72 91.04 109.68 96.03 106.35 95.81 106.35 89.99 106.35"/>
      <polygon class="cls-4" points="51.57 106.35 51.54 106.27 49.64 100.4 49.61 100.5 47.81 106.35 41.81 106.35 41.77 106.35 43.34 107.4 46.76 109.68 44.81 115.52 44.74 115.72 49.64 112.13 54.63 115.72 54.59 115.6 52.62 109.68 57.61 106.35 57.31 106.35 51.57 106.35"/>
      <polygon class="cls-4" points="71.09 88.68 69.25 82.72 69.2 82.86 67.32 88.68 61.2 88.68 66.1 92.26 64.37 97.96 64.35 98.04 67.76 95.6 69.25 94.54 74.12 97.96 74.24 98.04 72.31 92.26 77.04 88.68 76.95 88.68 71.09 88.68"/>
      <polygon class="cls-4" points="109.15 88.68 107.32 82.72 107.27 82.86 105.39 88.68 99.35 88.68 104.34 92.26 102.33 98.04 107.32 94.54 110.3 96.63 112.3 98.04 112.28 97.96 110.29 92.26 115.28 88.68 115.19 88.68 109.15 88.68"/>
      <polygon class="cls-4" points="147.75 88.68 145.82 82.72 143.98 88.68 137.77 88.68 142.76 92.26 140.92 98.04 145.82 94.54 147.4 95.64 150.81 98.04 150.78 97.96 148.71 92.26 153.7 88.68 153.61 88.68 147.75 88.68"/>
      <polygon class="cls-4" points="186.17 88.68 185.99 88.68 184.37 82.87 184.33 82.72 182.32 88.68 176.37 88.68 176.28 88.68 181.09 92.26 179.34 98.04 184.33 94.54 188.96 98.04 188.97 98.04 188.97 98.04 187.13 92.26 192.03 88.68 186.17 88.68"/>
      <polygon class="cls-4" points="218.28 98.04 223.1 94.63 227.91 98.04 227.88 97.96 228 98.04 226.07 92.26 231.06 88.68 230.97 88.68 225.02 88.68 223.19 82.72 223.14 82.86 223.1 82.72 221.09 88.68 215.05 88.68 214.96 88.68 220.03 92.26 218.28 98.04"/>
      <polygon class="cls-4" points="206.03 71.17 204.28 65.22 204.24 65.36 202.36 71.17 196.14 71.17 201.13 74.59 199.29 80.36 204.28 76.95 209.1 80.36 207.26 74.59 212.07 71.17 211.98 71.17 206.03 71.17"/>
      <polygon class="cls-4" points="166.65 71.17 164.64 65.22 164.6 65.35 162.71 71.17 156.85 71.17 161.66 74.59 159.68 80.28 159.65 80.36 164.6 76.98 164.64 76.95 169.71 80.36 167.88 74.59 172.6 71.17 172.51 71.17 166.65 71.17"/>
      <polygon class="cls-4" points="128.23 71.17 126.35 65.36 126.31 65.22 124.56 71.17 118.43 71.17 123.24 74.59 121.49 80.36 126.31 76.95 131.3 80.36 129.37 74.59 134.36 71.17 128.23 71.17 128.23 71.17"/>
      <polygon class="cls-4" points="89.99 71.17 87.98 65.22 87.93 65.36 86.23 71.17 86.14 71.17 80.1 71.17 85 74.59 83.19 80.28 83.16 80.36 87.93 76.98 87.98 76.95 92.85 80.29 92.96 80.36 91.04 74.59 96.03 71.17 95.94 71.17 89.99 71.17"/>
      <polygon class="cls-4" points="51.57 71.17 49.64 65.22 49.6 65.36 47.81 71.17 47.72 71.17 41.77 71.17 46.76 74.59 44.77 80.28 44.74 80.36 49.64 76.95 54.63 80.36 52.62 74.59 57.61 71.17 57.43 71.17 51.57 71.17"/>
      <polygon class="cls-4" points="51.57 37.04 49.64 30.92 49.6 31.06 47.81 37.04 47.72 37.04 41.77 37.04 46.76 40.46 44.74 46.14 49.64 42.73 54.59 46.12 54.63 46.14 52.62 40.46 57.61 37.04 57.43 37.04 51.57 37.04"/>
      <polygon class="cls-4" points="87.98 30.92 86.23 37.04 80.22 37.04 80.1 37.04 84.98 40.44 85 40.46 83.16 46.14 87.98 42.73 92.82 46.04 92.96 46.14 91.04 40.46 96.03 37.04 95.9 37.04 89.99 37.04 87.98 30.92"/>
      <polygon class="cls-4" points="128.23 37.04 126.35 31.06 126.31 30.92 124.56 37.04 118.43 37.04 123.24 40.46 121.49 46.14 121.53 46.12 126.31 42.73 131.26 46.12 131.3 46.14 129.37 40.46 134.36 37.04 128.23 37.04 128.23 37.04"/>
      <polygon class="cls-4" points="166.65 37.04 164.64 30.92 164.6 31.05 162.71 37.04 156.85 37.04 161.66 40.46 159.65 46.14 164.64 42.73 169.68 46.12 169.71 46.14 167.88 40.46 172.6 37.04 172.51 37.04 166.65 37.04"/>
      <polygon class="cls-4" points="206.03 37.04 204.28 30.92 204.24 31.06 202.36 37.04 196.14 37.04 201.13 40.46 199.29 46.14 199.33 46.12 204.28 42.73 209.06 46.12 209.1 46.14 207.26 40.46 212.07 37.04 211.98 37.04 206.03 37.04"/>
    </g>
  </g>
</svg>