<?xml version="1.0" encoding="UTF-8"?>
<svg id="Layer_2" data-name="Layer 2" xmlns="http://www.w3.org/2000/svg" viewBox="0 0 520 320">
  <defs>
    <style>
      .cls-1 {
        fill: #a3ab78;
      }

      .cls-1, .cls-2, .cls-3, .cls-4, .cls-5, .cls-6 {
        stroke-width: 0px;
      }

      .cls-2 {
        fill: #0038a8;
      }

      .cls-4 {
        fill: none;
      }

      .cls-5 {
        fill: #fff;
      }

      .cls-6 {
        fill: #fcd116;
      }
    </style>
  </defs>
  <g id="_500x300_Background" data-name="500x300 Background">
    <rect class="cls-1" width="520" height="320" rx="10" ry="10"/>
  </g>
  <g id="Uruguay">
    <g>
      <rect class="cls-5" x="10" y="276.67" width="500" height="33.33"/>
      <polygon class="cls-5" points="10 10 10 176.7 510 176.7 510 143.3 195.16 143.3 195.16 109.98 510 109.98 510 76.65 195.16 76.65 195.16 43.33 510 43.33 510 10 10 10"/>
      <rect class="cls-5" x="10" y="210.02" width="500" height="33.33"/>
      <rect class="cls-2" x="176.7" y="43.33" width="333.3" height="33.33"/>
      <rect class="cls-2" x="176.7" y="109.98" width="333.3" height="33.33"/>
      <rect class="cls-2" x="10" y="176.7" width="500" height="33.33"/>
      <rect class="cls-2" x="10" y="243.35" width="500" height="33.33"/>
      <path class="cls-4" d="m112.49,101.56l5.63,8.14.14-.27-5.29-7.6c-.14-.07-.34-.2-.48-.27Z"/>
      <path class="cls-4" d="m74,101.02l-9.77-1.76.14.27,9.1,1.63c.2-.07.41-.07.54-.14Z"/>
      <path class="cls-4" d="m101.09,112.62l-1.76,9.77.27-.14,1.63-9.1c-.07-.14-.14-.34-.14-.54Z"/>
      <path class="cls-4" d="m85.14,112.42l-8.14,5.63.27.14,7.6-5.29c.07-.14.2-.27.27-.48Z"/>
      <path class="cls-4" d="m85.68,74l1.76-9.77-.27.14-1.63,9.1c.07.14.07.34.14.54Z"/>
      <path class="cls-4" d="m112.69,85.61l9.77,1.76-.14-.27-9.1-1.63c-.2.07-.34.14-.54.14Z"/>
      <path class="cls-4" d="m101.63,74.21l8.14-5.63-.27-.14-7.6,5.29c-.14.14-.2.34-.27.48Z"/>
      <path class="cls-4" d="m74.28,85.07l-5.63-8.14-.14.27,5.29,7.6c.14.14.27.2.48.27Z"/>
      <path class="cls-6" d="m78.42,107.13c-.07-.07-.14-.14-.2-.2-.07-.07-.14-.14-.14-.2-1.36-1.56-2.44-3.26-3.33-5.16l-6.52,9.37-.14.2-.14.2-15.95,23.01,26.81-26.81c-.14-.14-.27-.27-.41-.41Zm-5.43-14.59v-.54c.14-2.1.61-4.14,1.36-6.04l-11.2,2.04-.27.07-.2.07-27.56,5.02h37.87v-.61Zm1.43,8.82c-11.2,2.78-17.31,7.33-22.26,11.06-3.8,2.85-6.86,5.09-10.66,5.09-.54,0-1.15-.07-1.76-.14,5.5,2.17,8.35.54,12.08-1.63,3.6-2.1,7.87-4.62,15.95-4.75l6.65-9.64Zm-22.53,10.66c4.62-3.39,10.86-8.01,21.58-10.86l-9.1-1.63v.07l-.2.07c-10.11,4.21-13.3,8.48-15.68,11.67-2.24,3.05-3.87,5.16-9.77,5.36,5.16,1.29,8.42-1.15,13.17-4.68Zm-13.37-39.71c2.38,5.43,5.5,6.31,9.71,7.4,4.07,1.09,8.82,2.31,14.66,7.94l11.47-2.1c-9.91-5.9-17.44-7.06-23.55-7.94-5.43-.75-9.5-1.36-12.29-5.29Zm34.48,21.24h-37.87l39.23,7.13c-.81-2.24-1.29-4.62-1.36-7.13Zm-22.19-16.36c5.7.81,13.37,1.97,23.01,7.6l-5.29-7.6v.07l-.2-.07c-10.11-4.21-15.41-3.39-19.34-2.85-3.8.54-6.38.95-10.72-3.12,2.71,4.55,6.72,5.16,12.56,5.97Zm24.98-9.5l9.57,6.65c-2.78-11.2-7.33-17.31-11.06-22.26-3.26-4.34-5.7-7.67-4.89-12.42-2.17,5.5-.54,8.35,1.63,12.08,2.1,3.6,4.62,7.87,4.75,15.95Zm3.05,11.4l-26.81-26.81,22.74,32.78c1.02-2.24,2.38-4.28,4.07-5.97Zm33.53,6.18c11.2-2.78,17.31-7.33,22.26-11.06,4.34-3.26,7.67-5.7,12.42-4.89-5.5-2.17-8.35-.54-12.08,1.63-3.6,2.1-7.87,4.62-15.95,4.75l-6.65,9.57Zm-4.75-6.52l1.09-1.09.27-.27.27-.27,1.97-1.97.34-.34,22.87-22.87-32.78,22.74c2.24,1.02,4.28,2.38,5.97,4.07Zm27.22-4.14c-4.62,3.39-10.86,8.01-21.58,10.86l9.1,1.63v-.07l.2-.07c10.11-4.21,13.3-8.48,15.68-11.67,2.24-3.05,3.87-5.16,9.77-5.36-5.16-1.29-8.42,1.15-13.17,4.68Zm-21.11,18.53h37.87l-39.23-7.13c.88,2.17,1.36,4.62,1.36,7.13Zm-4.28-42.42c-.81,5.7-1.97,13.37-7.6,23.01l7.6-5.29h-.07l.07-.2c4.21-10.11,3.39-15.41,2.85-19.34-.54-3.8-.95-6.38,3.12-10.72-4.48,2.71-5.09,6.72-5.97,12.56Zm2.44,24.37l-.2.2-2.65,2.65-.27.27-.27.27-.61.61c.14.14.27.27.41.48l.2.2c.07.07.14.14.14.2,1.36,1.56,2.44,3.26,3.33,5.16l6.52-9.37.14-.2.14-.2,15.95-23.01-22.6,22.6-.2.14Zm-32.78,32.78l-1.36,1.36-.27.27-1.97,1.97-.2.2-.2.2-22.87,22.87,32.78-22.74c-2.1-1.09-4.14-2.44-5.9-4.14Zm30-57.15c.81-5.36,1.43-9.43,5.29-12.22-5.43,2.38-6.31,5.5-7.4,9.71-1.09,4.07-2.31,8.82-7.94,14.66l2.1,11.47c5.9-9.98,6.99-17.58,7.94-23.62Zm-15.95,22.19v-37.87l-7.13,39.23c2.24-.81,4.62-1.29,7.13-1.36Zm-17.99,1.9l.2.2,2.65,2.65.27.27.27.27.61.61c.14-.14.27-.27.48-.41l.2-.2c.07-.07.14-.14.2-.14,1.56-1.36,3.26-2.44,5.16-3.33l-9.37-6.52-.2-.14-.2-.14-23.01-15.95,22.6,22.6.14.2Zm19.28-1.83h.27c2.1.14,4.14.61,6.04,1.36l-2.04-11.2-.07-.27-.07-.2-5.02-27.56v37.87h.88Zm-8.89.48l1.63-9.1h-.07l-.07-.2c-4.21-10.11-8.48-13.3-11.67-15.68-3.05-2.24-5.16-3.87-5.36-9.77-1.29,5.09,1.09,8.35,4.62,13.1,3.46,4.62,8.08,10.86,10.93,21.65Zm-2.1,28.64c.07,0,.2.07.27.07h0c-.07,0-.14-.07-.27-.07Zm28.17,9.77l-.2-.2-2.65-2.65-.27-.27-.27-.27-.61-.61c-.14.14-.27.27-.48.41-.07.07-.14.14-.2.2-.07.07-.14.14-.2.14-1.56,1.36-3.26,2.44-5.16,3.33l9.37,6.52.2.14.2.14,23.01,15.95-22.6-22.6-.14-.2Zm-10.38,1.29l-1.63,9.1h.07l.07.2c4.21,10.11,8.48,13.3,11.67,15.68,3.05,2.24,5.16,3.87,5.36,9.77,1.29-5.09-1.09-8.35-4.62-13.1-3.46-4.62-8.08-10.86-10.93-21.65Zm9.77,5.77l-9.57-6.65c2.78,11.2,7.33,17.31,11.06,22.26,3.26,4.34,5.7,7.67,4.89,12.42,2.17-5.5.54-8.35-1.63-12.08-2.17-3.6-4.62-7.87-4.75-15.95Zm-10.25-7.06s.07,0,0,0c.07-.07.14-.07.2-.07h0c.07,0,.14-.07.2-.07h0c.07-.07.14-.07.27-.14,1.76-.75,3.33-1.83,4.82-3.05.07-.07.14-.14.2-.14s.14-.14.2-.14c.2-.2.41-.41.68-.61q.07-.07.14-.14t.14-.14c1.7-1.76,3.12-3.8,4.07-6.11h0c0-.07.07-.14.07-.2h0c0-.07.07-.14.07-.2h0c.07-.07.07-.2.07-.27.68-1.76,1.09-3.6,1.29-5.57v-1.83c0-2.51-.54-4.95-1.43-7.19h0c0-.07-.07-.14-.07-.2h0c0-.07-.07-.14-.07-.2h0c-.07-.07-.07-.14-.14-.27-.75-1.76-1.83-3.33-3.05-4.82-.07-.07-.14-.14-.14-.2-.07-.07-.14-.14-.14-.2-.2-.2-.41-.41-.61-.68l-.14-.14-.14-.14c-1.76-1.7-3.8-3.12-6.11-4.07h0c-.07,0-.14-.07-.2-.07h0c-.07,0-.14-.07-.2-.07h0c-.07-.07-.2-.07-.27-.07-1.76-.68-3.6-1.09-5.57-1.29h-1.83c-2.51,0-4.95.54-7.19,1.43h0c-.07,0-.14.07-.2.07h0c-.07,0-.14.07-.2.07h0c-.07.07-.14.07-.27.14-1.76.75-3.33,1.83-4.82,3.05-.07.07-.14.14-.2.14-.07.07-.14.14-.2.14-.2.2-.41.41-.68.61l-.14.14-.14.14c-1.7,1.76-3.12,3.8-4.07,6.11h0c0,.07-.07.14-.07.2h0c0,.07-.07.14-.07.2h0c-.07.07-.07.2-.07.27-.68,1.76-1.09,3.6-1.29,5.57v1.83c0,2.51.54,4.95,1.43,7.19h0c0,.07.07.14.07.2h0c0,.07.07.14.07.2h0c.07.07.07.14.14.27.75,1.76,1.83,3.33,3.05,4.82.07.07.14.14.14.2.07.07.14.14.14.2.2.2.41.48.61.68q.07.07.14.14.07.07.14.14c1.76,1.7,3.8,3.12,6.11,4.07h0c.07,0,.14.07.2.07h0c.07,0,.14.07.2.07h0c.07.07.2.07.27.07,1.76.68,3.6,1.09,5.57,1.29h1.83c2.58-.07,5.02-.54,7.19-1.43Zm3.87-24.3c.34.48.48,1.09.14,1.63.27-.14.48-.34.75-.48.75-.54,0,.27-1.15,1.09-.07.07-.14.07-.14.14-.07.07-.14.07-.2.14h0c-.07.07-.14.07-.2.14s-.14.07-.2.14c-.68.41-1.36.68-1.97.68-1.63,0-3.73-.75-4.21-1.36h0c-.07-.07-.07-.14-.07-.2s0-.14.07-.27c.14-.2.34-.34.48-.27.07,0,.14,0,.2.07h0c.68.27,1.49,1.36,2.92,1.36-.88-.41-1.83-1.29-2.04-2.24h0c0-.07,0-.14-.07-.27v-.27h0c0-.14,0-.2.07-.34-.61.2-1.15.68-2.17,1.63v-.2c.14-1.83,1.43-2.38,3.53-2.51h1.43c.41,0,.75.07,1.02.07.07,0,.14.07.2.07s.14,0,.2.07c1.9.54,2.92,2.1,3.87,2.58-.68-.2-1.36-.81-2.44-1.36Zm-6.52-3.87c.07-.07.14-.07.2-.14.07-.07.14-.07.2-.14h0c.07-.07.14-.14.27-.14.07-.07.2-.14.27-.14.75-.41,1.43-.75,1.9-.81.34-.07.75,0,1.29.14.07,0,.14,0,.2.07.07,0,.14.07.2.07.34.07.68.14,1.02.27.07,0,.14.07.2.07s.14.07.2.07c1.15.41,2.38.95,3.33,1.63.07.07.14.07.2.14h.07c.14.07.27.2.34.27.14.07.2.2.27.27h.07c-.95,1.09-1.63-.07-3.8-.75-.41-.14-.95-.2-1.49-.27h-1.29c-.68,0-1.29.07-1.83.2-.07,0-.2.07-.27.07s-.2.07-.27.07c-2.51.68-3.05,2.31-3.67,1.9-.61-.54.88-1.83,2.38-2.85Zm-6.38,12.56c-.34,1.36.61,1.43,1.43,1.49h.41c.88,0,1.76-.14,1.43-1.49.27.61,1.09.81,1.63.61h0c.07,0,.14-.07.2-.14s.07-.07.14-.14h0c.07-.07.14-.2.14-.34-.2-1.09-.75-.95-.75-1.63,1.63.34,1.09,2.78,2.58,2.92,1.49.2,2.17,1.83,2.04,1.63-.54-.41-1.43-.81-2.38-1.02h0c-.14,0-.27-.07-.34-.07-.14,0-.2-.07-.34-.07h0c-.48-.07-.88-.14-1.29-.14-1.36,0-1.76.81-2.92.88h-.41c-1.09-.07-1.56-.88-2.92-.88-.41,0-.81.07-1.29.14h0c-.14,0-.2.07-.34.07s-.27.07-.34.07h0c-.95.2-1.83.61-2.38,1.02-.2.2.54-1.49,2.04-1.63,1.49-.2.95-2.58,2.58-2.92,0,.75-.54.54-.75,1.63,0,.14.07.27.07.34h0c.07.07.07.14.14.14.07.07.14.07.2.14h0c.34.2,1.15,0,1.43-.61Zm-13.24-11c.07,0,.07-.07,0,0,.14-.14.2-.2.34-.27.14-.07.2-.2.34-.27.95-.68,2.24-1.29,3.53-1.76.07,0,.14-.07.2-.07s.14-.07.2-.07c.34-.14.68-.2,1.02-.27.07,0,.14-.07.2-.07s.14,0,.2-.07c.54-.07.95-.14,1.29-.14.41.07,1.15.41,1.9.81.07.07.2.14.27.14.07.07.14.14.27.14h0c.07.07.14.07.2.14.07.07.14.07.2.14,1.56,1.02,2.99,2.31,2.58,2.65-.61.41-1.15-1.22-3.67-1.9-.07,0-.14-.07-.27-.07-.07,0-.2-.07-.27-.07-.54-.14-1.15-.2-1.83-.2h-1.29c-.54.07-1.09.2-1.49.27-2.31.88-2.92,2.04-3.94.95Zm4.07,4.62c-.07-.07-.14-.07-.14-.14-1.15-.81-1.83-1.63-1.15-1.09.27.2.48.34.75.48-.34-.61-.2-1.15.14-1.63-1.02.54-1.76,1.15-2.51,1.15.88-.48,1.9-1.97,3.87-2.58.07,0,.14-.07.2-.07s.14-.07.2-.07c.34-.07.68-.07,1.02-.07h1.43c2.1.14,3.39.68,3.53,2.51v.2c-1.02-.95-1.56-1.43-2.17-1.63.07.14.07.2.07.34h0v.27c0,.07,0,.14-.07.27h0c-.2.95-1.22,1.83-2.04,2.24,1.43,0,2.31-1.09,2.92-1.36h0c.07,0,.14-.07.2-.07.2,0,.34.07.48.27.07.07.07.14.07.27,0,.07,0,.14-.07.2h0c-.48.68-2.58,1.36-4.21,1.36-.61,0-1.36-.27-1.97-.68-.07-.07-.14-.07-.2-.14s-.14-.07-.2-.14h0c0,.2-.07.14-.14.07Zm3.12,13.24c-.2-.14-.48-.2-.68-.34-.2-.07-.34-.14-.54-.27-.07,0-.14-.07-.2-.07h0c-.07,0-.14-.07-.2-.07h0c-.07,0-.14-.07-.2-.07h-.07c0,.07-.07.07-.07.14-.07.07-.07.14-.14.2-.07.07-.07.14-.14.2-.14.2-.27.41-.48.81-.07.07-.07.14-.14.27v-.14c.07-.41.14-.68.27-1.02,0-.07.07-.14.07-.2.07-.07.07-.14.14-.2.14-.2.27-.34.48-.54.07-.07.14-.14.2-.2.07-.07.14-.14.2-.14.2-.2.41-.34.68-.54-.27.34-.48.68-.68.88-.07.07-.14.14-.14.2-.07.07-.14.14-.14.2h.41c.07,0,.14,0,.2.07h.27c.54,0,1.15-.14,1.76-.34.07,0,.2-.07.27-.07s.14-.07.27-.07c1.36-.41,2.71-.95,3.46-.95,1.36,0,1.76.34,2.71.34h.41c.95-.07,1.36-.34,2.71-.34.75,0,2.1.54,3.46.95.07,0,.14.07.27.07.07,0,.2.07.27.07.61.14,1.22.27,1.76.34h.27c.07,0,.14,0,.2-.07h.41c-.07-.07-.14-.14-.14-.2-.07-.07-.14-.14-.14-.2-.2-.2-.41-.54-.68-.88.27.2.48.41.68.54.07.07.14.14.2.14.07.07.14.14.2.2.2.2.34.34.48.54.07.07.07.14.14.2.07.07.07.14.07.2.14.27.2.61.27,1.02v.14c-.07-.07-.07-.2-.14-.27-.2-.41-.34-.61-.48-.81-.07-.07-.07-.14-.14-.2-.07-.07-.07-.14-.14-.2,0-.07-.07-.07-.07-.14h-.07c-.07,0-.14.07-.2.07h0c-.07,0-.14.07-.2.07h0c-.07,0-.14.07-.2.07-.2.07-.41.2-.54.27-.27.14-.48.2-.68.34-3.05,1.49-3.6,2.17-5.97,2.38h-3.53c-2.44-.14-2.99-.88-6.11-2.38Zm7.67,4.68h-.2c-.61,0-1.02,0-1.22-.07-.14,0-.2-.07-.2-.07-.07-.07.07-.14.27-.2.14-.07.34-.07.54-.14s.48-.07.68-.07h.41c.2,0,.48.07.68.07.2.07.41.07.54.14.2.07.27.14.27.2,0,0-.07.07-.2.07-.2.07-.61.07-1.22.07h-.34Zm.2,5.9v37.87l7.13-39.23c-2.17.81-4.62,1.29-7.13,1.36Zm20.16-19.55v.54c-.14,2.1-.61,4.14-1.36,6.04l11.2-2.04.27-.07.27-.07,27.56-5.02h-37.87c-.07.2-.07.41-.07.61Zm34.55,20.16c-2.38-5.43-5.5-6.31-9.71-7.4-4.07-1.09-8.82-2.31-14.66-7.94l-11.47,2.1c9.91,5.9,17.44,7.06,23.55,7.94,5.43.81,9.5,1.43,12.29,5.29Zm-64.82-12.22c.07.07.2.07.27.14h0c-.07-.07-.14-.07-.27-.14Zm24.5,5.5l1.09,1.09.27.27.27.27,1.97,1.97.2.2.2.2,22.87,22.87-22.74-32.78c-1.09,2.1-2.44,4.14-4.14,5.9Zm27.96,1.83c-5.7-.81-13.37-1.97-23.01-7.6l5.29,7.6v-.07l.2.07c10.11,4.21,15.41,3.39,19.34,2.85,3.8-.54,6.38-.95,10.72,3.12-2.65-4.55-6.65-5.16-12.56-5.97Zm-32.92-7.19h0c.07,0,.2-.07.27-.07-.07,0-.14,0-.27.07Zm-20.16-12.56c.07,0,.07.07.14.07h.07c.07,0,.14.07.2.07.27.14.61.2.88.27-.34-.27-.54-.61-.68-1.02q0-.07-.07-.14,0-.07-.07-.14c0-.07-.07-.2-.07-.27v-.14c0-.34,0-.68.2-.95.07-.14.14-.27.27-.41h0c-.07,0-.14,0-.2.07-.07,0-.14.07-.2.07-.2.07-.48.14-.68.2-.34.54-.61,1.36-.2,2.1.07,0,.14.07.2.07,0,0,.07.07.2.14-.07-.07,0-.07,0,0Zm20.16-2.65h0c.14.14.2.27.27.41.14.27.2.61.2.95v.14c0,.07,0,.2-.07.27q0,.07-.07.14,0,.07-.07.14c-.14.41-.41.75-.68,1.02.34-.07.61-.14.88-.27.07,0,.14-.07.2-.07h.07q.07,0,.14-.07h.07c.07,0,.14-.07.2-.07s.14-.07.2-.07c.41-.75.14-1.56-.2-2.1-.2-.07-.41-.14-.68-.2-.07,0-.14-.07-.2-.07-.07-.14-.14-.14-.27-.14Zm-10.66,26.61h-.27c-2.1-.14-4.14-.61-6.04-1.36l2.04,11.2.07.27.07.27,5.02,27.56v-37.87h-.61c-.14-.07-.2-.07-.27-.07Zm-14.66,22.33c-.81,5.36-1.43,9.43-5.29,12.22,5.43-2.38,6.31-5.5,7.4-9.71,1.09-4.07,2.31-8.82,7.94-14.66l-2.1-11.47c-5.9,9.91-7.06,17.51-7.94,23.62Zm-.41-.07c.81-5.7,1.97-13.37,7.6-23.01l-7.6,5.29h.07l-.07.2c-4.21,10.11-3.39,15.41-2.85,19.34.54,3.8.95,6.38-3.12,10.72,4.55-2.71,5.09-6.72,5.97-12.56Zm21.24-32.99h-.34c-.95-.07-2.38-.2-4.62-.2h-.41c-2.31,0-3.67.14-4.62.2h-.68c-.2,0-.41.07-.54.07h.07c.41.14.75.27,1.15.34.14.07.27.07.34.14.07,0,.2.07.27.07.2.07.41.14.54.14.68.14,1.43.27,2.38.34.34,0,.68.07,1.02.07h.41c.41,0,.75,0,1.02-.07.88-.07,1.7-.2,2.38-.34.2-.07.41-.07.54-.14.07,0,.2-.07.27-.07.14-.07.27-.07.34-.14.41-.14.75-.27,1.15-.34h.07c-.2,0-.34,0-.54-.07,0,0-.07,0-.2,0Zm4.48-.75c.07,0,.2-.07.27-.07-.07,0-.2.07-.27.07h0Zm-3.6.81s.07,0,0,0c.95.07,1.49,0,2.85-.48h0c.07,0,.14-.07.2-.07h.07c.07,0,.14-.07.2-.07h.07c.07,0,.14-.07.2-.07h.07c-.07,0-.14,0-.2.07h-.48c-.07,0-.14,0-.2.07-1.15.07-1.97.34-2.78.54Zm-15.2-.75h-.2c-.07,0-.14,0-.2-.07h.07c.07,0,.14.07.2.07h.07c.07,0,.14.07.2.07h.07c.07,0,.14.07.2.07h0c1.36.48,1.97.54,2.85.48h.07c-.75-.27-1.63-.48-2.65-.68-.07,0-.14,0-.2-.07h-.07c-.27.2-.34.14-.41.14Z"/>
      <path class="cls-3" d="m103.05,86.15c-.07,0-.14-.07-.2-.07-.34-.07-.68-.07-1.02-.07h-1.43c-2.1.14-3.39.68-3.53,2.51v.2c1.02-.95,1.56-1.43,2.17-1.63-.07.14-.07.2-.07.34h0v.27c0,.07,0,.14.07.27h0c.2.95,1.22,1.83,2.04,2.24-1.43,0-2.31-1.09-2.92-1.36h0c-.07,0-.14-.07-.2-.07-.2,0-.34.07-.48.27-.07.07-.07.14-.07.27,0,.07,0,.14.07.2h0c.48.68,2.58,1.36,4.21,1.36.61,0,1.36-.27,1.97-.68.07-.07.14-.07.2-.14s.14-.07.2-.14h0c.07-.07.14-.07.2-.14s.14-.07.14-.14c1.15-.81,1.83-1.63,1.15-1.09-.27.2-.48.34-.75.48.34-.61.2-1.15-.14-1.63,1.02.54,1.76,1.15,2.51,1.15-.88-.48-1.9-1.97-3.87-2.58-.14.14-.2.14-.27.14Zm1.09,1.15c.34.54.61,1.36.2,2.1-.07,0-.14.07-.2.07s-.14.07-.2.07h-.07c-.07,0-.07.07-.14.07h-.07c-.07,0-.14.07-.2.07-.27.14-.61.2-.88.27.34-.27.54-.61.68-1.02q0-.07.07-.14t.07-.14c0-.07.07-.2.07-.27v-.14c0-.34,0-.68-.2-.95-.07-.14-.14-.27-.27-.41h0c.07,0,.14,0,.2.07.07,0,.14.07.2.07.27.14.54.2.75.27Zm-20.36,14.86h0c.07-.07.14-.14.14-.2.07-.07.14-.14.14-.2.2-.2.41-.54.68-.88-.27.2-.48.41-.68.54-.07.07-.14.14-.2.14-.07.07-.14.14-.2.2-.2.2-.34.34-.48.54-.07.07-.07.14-.14.2-.07.07-.07.14-.07.2-.14.27-.2.61-.27,1.02v.14c.07-.07.07-.14.14-.27.2-.41.34-.61.48-.81.07-.07.07-.14.14-.2.07-.07.07-.14.14-.2l.2-.2c-.14,0-.2,0-.27-.07.07,0,.14.07.27.07Zm15.48-17.71c.07,0,.14-.07.27-.07.07,0,.2-.07.27-.07.54-.14,1.15-.2,1.83-.2h1.29c.54.07,1.09.2,1.49.27,2.17.68,2.85,1.83,3.8.75h-.07l-.27-.27c-.14-.07-.2-.2-.34-.27h-.07c-.07-.07-.14-.07-.2-.14-.95-.61-2.17-1.22-3.33-1.63-.07,0-.14-.07-.2-.07s-.14-.07-.2-.07c-.34-.14-.68-.2-1.02-.27-.07,0-.14-.07-.2-.07s-.14,0-.2-.07c-.54-.07-.95-.14-1.29-.14-.41.07-1.15.41-1.9.81-.07.07-.2.14-.27.14-.07.07-.14.14-.27.14h0c-.07.07-.14.07-.2.14-.07.07-.14.07-.2.14-1.56,1.02-2.99,2.31-2.58,2.65.75.61,1.36-1.02,3.87-1.7Zm-11.88,18.53c.2,0,.34,0,.54-.07h.68c.95-.07,2.38-.2,4.62-.2h.41c2.31,0,3.67.14,4.62.2h.68c.2,0,.41.07.54.07.75-.27,1.63-.48,2.65-.68.07,0,.14,0,.2-.07h-.2c-.54,0-1.15-.14-1.76-.34-.07,0-.2-.07-.27-.07s-.14-.07-.27-.07c-1.36-.41-2.71-.95-3.46-.95-1.36,0-1.76.34-2.71.34h-.41c-.95-.07-1.36-.34-2.71-.34-.75,0-2.1.54-3.46.95-.07,0-.14.07-.27.07-.07,0-.2.07-.27.07-.61.14-1.22.27-1.76.34h-.2c.07,0,.14,0,.2.07,1.02.2,1.83.48,2.65.68Zm51.31,3.53c-3.94-1.02-8.62-2.31-14.25-7.67l30.61-5.57-32.51-5.9.14-.07c10.25-4.21,13.44-8.62,15.81-11.81,2.31-3.12,3.87-5.23,10.38-5.23h1.29l-.75-.41c-7.19-3.67-10.32-1.83-14.59.68-3.53,2.04-7.67,4.48-15.48,4.68l17.04-24.64.61-.95-27.15,18.8.07-.14c4.21-10.25,3.46-15.61,2.85-19.55-.61-3.94-.95-6.52,3.94-11.33l.61-.61-.81.27c-7.67,2.51-8.62,5.97-9.91,10.79-1.02,3.94-2.31,8.62-7.67,14.25l-5.57-30.61-5.9,32.51-.07-.14c-4.21-10.25-8.62-13.44-11.81-15.81-3.19-2.38-5.29-3.94-5.23-10.79v-.88l-.41.75c-3.67,7.19-1.83,10.32.68,14.59,2.04,3.53,4.48,7.67,4.68,15.48l-25.52-17.51,18.8,27.15-.14-.07c-10.25-4.21-15.61-3.46-19.55-2.85-3.94.61-6.52.95-11.33-3.94l-.61-.61.27.81c2.51,7.67,5.97,8.62,10.79,9.91,3.94,1.02,8.62,2.31,14.25,7.67l-30.61,5.57,32.51,5.9-.14.07c-10.25,4.21-13.44,8.62-15.81,11.81-2.31,3.12-3.87,5.23-10.38,5.23h-1.29l.75.41c2.92,1.49,5.23,2.1,7.13,2.1,2.78,0,4.95-1.22,7.47-2.71,3.53-2.04,7.67-4.48,15.48-4.68l-17.04,24.64-.54.81,27.15-18.8-.07.14c-4.21,10.25-3.46,15.61-2.85,19.55s.95,6.52-3.94,11.33l-.61.61.81-.27c7.67-2.51,8.62-5.97,9.91-10.79,1.02-3.94,2.31-8.62,7.67-14.25l5.57,30.61,5.9-32.51.07.14c4.21,10.25,8.62,13.44,11.81,15.81s5.29,3.94,5.23,10.79v.88l.41-.75c3.67-7.19,1.83-10.32-.68-14.59-2.04-3.53-4.48-7.67-4.68-15.48l25.59,17.71-18.8-27.15.14.07c10.25,4.21,15.61,3.46,19.55,2.85s6.52-.95,11.33,3.94l.61.61-.27-.81c-2.65-7.87-6.31-8.82-10.93-10.05Zm-.14.41c4.14,1.09,7.33,1.97,9.71,7.4-2.78-3.87-6.86-4.48-12.22-5.29-6.11-.88-13.64-2.04-23.55-7.94l11.47-2.1c5.77,5.63,10.59,6.86,14.59,7.94Zm-14.46-8.42l-.27.07-.27.07-11.2,2.04c.75-1.9,1.22-3.94,1.36-6.04v-1.15h37.81l-27.42,5.02Zm27.56-5.36h-37.87c0-2.51-.48-4.89-1.36-7.13l39.23,7.13Zm-13.51-17.85c-2.31,3.12-5.57,7.47-15.68,11.67l-.2.07v.07l.14.27-9.77-1.76c.2-.07.34-.07.54-.14,10.72-2.85,17.04-7.47,21.58-10.86,4.75-3.53,8.01-5.9,13.1-4.62-5.84.14-7.4,2.24-9.71,5.29Zm-3.19-4.34c3.73-2.17,6.52-3.8,12.08-1.63-4.75-.75-8.08,1.7-12.42,4.89-4.95,3.67-11.13,8.21-22.26,11.06l6.65-9.57c8.08-.14,12.35-2.65,15.95-4.75Zm-16.22,4.34l-.14.2-.14.2-6.52,9.37c-.81-1.9-1.97-3.67-3.33-5.16-.07-.07-.14-.14-.14-.2l-.2-.2c-.14-.14-.27-.27-.41-.48l.61-.61.27-.27.27-.27,2.65-2.65.2-.2.2-.2,22.6-22.6-15.95,23.08Zm15.68-23.28l-22.87,22.87-.2.2-.2.2-1.97,1.97-.27.27-.27.27-1.09,1.09c-1.76-1.7-3.73-3.05-6.04-4.07l32.92-22.81Zm-22.13-3.05c.61,3.87,1.36,9.23-2.85,19.34l-.07.2h.07l.27.14-8.14,5.63c.07-.14.2-.34.27-.48,5.57-9.64,6.72-17.31,7.6-23.01.88-5.84,1.49-9.84,5.97-12.56-4,4.34-3.67,6.92-3.12,10.72Zm-5.29-.81c1.09-4.14,1.97-7.33,7.4-9.71-3.87,2.78-4.48,6.86-5.29,12.22-.88,6.11-2.04,13.64-7.94,23.55l-2.1-11.47c5.57-5.77,6.86-10.59,7.94-14.59Zm-13.44,23.89v-36.92l5.02,27.56.07.2.07.27,2.04,11.2c-1.9-.75-3.94-1.22-6.04-1.36h-1.15v-.95h0Zm-.41-36.99v37.87c-2.51,0-4.89.48-7.13,1.36l7.13-39.23Zm-23.14,3.67c.2,5.97,2.31,7.53,5.36,9.77,3.12,2.31,7.47,5.57,11.67,15.68l.07.2h.07l.27-.14-1.76,9.77c-.07-.2-.07-.34-.14-.54-2.85-10.72-7.47-17.04-10.86-21.58-3.53-4.82-5.97-8.08-4.68-13.17Zm1.02,13.03c-2.17-3.73-3.8-6.52-1.63-12.08-.75,4.75,1.7,8.08,4.89,12.42,3.67,4.95,8.21,11.13,11.06,22.26l-9.57-6.65c-.14-8.08-2.65-12.35-4.75-15.95Zm4.34,16.15l.2.14.2.14,9.37,6.52c-1.9.81-3.67,1.97-5.16,3.33-.07.07-.14.14-.2.14l-.2.2c-.14.14-.27.27-.48.41l-.61-.61-.27-.27-.27-.27-2.65-2.65-.2-.2-.2-.2-22.6-22.6,23.08,15.95Zm-23.35-15.61l22.87,22.87.2.2.2.2,1.97,1.97.27.27.27.27,1.09,1.09c-1.7,1.76-3.05,3.73-4.07,6.04l-22.81-32.92Zm-3.05,22.06c3.87-.61,9.23-1.36,19.34,2.85l.2.07v-.07l.14-.27,5.63,8.14c-.14-.07-.34-.2-.48-.27-9.64-5.57-17.31-6.72-23.01-7.6-5.84-.88-9.84-1.49-12.56-5.97,4.41,4.07,6.99,3.73,10.72,3.12Zm-.81,5.36c-4.14-1.09-7.33-1.97-9.71-7.4,2.78,3.87,6.86,4.48,12.22,5.29,6.11.88,13.64,2.04,23.55,7.94l-11.47,2.1c-5.77-5.63-10.52-6.86-14.59-7.94Zm14.52,8.42l.2-.07.27-.07,11.2-2.04c-.75,1.9-1.22,3.94-1.36,6.04v1.15h-37.87l27.56-5.02Zm-27.56,5.43h37.87c0,2.51.48,4.89,1.36,7.13l-39.23-7.13Zm13.51,17.78c2.31-3.12,5.57-7.47,15.68-11.67l.2-.07v-.07l-.14-.27,9.77,1.76c-.2.07-.34.07-.54.14-10.72,2.85-17.04,7.47-21.58,10.86-4.75,3.53-8.01,5.9-13.1,4.62,5.84-.14,7.4-2.24,9.71-5.29Zm3.19,4.34c-3.73,2.17-6.52,3.8-12.08,1.63.61.07,1.15.14,1.76.14,3.87,0,6.86-2.24,10.66-5.09,4.95-3.67,11.13-8.21,22.26-11.06l-6.65,9.57c-8.08.2-12.35,2.71-15.95,4.82Zm16.15-4.34l.14-.2.14-.2,6.52-9.37c.81,1.9,1.97,3.67,3.33,5.16.07.07.14.14.14.2.07.07.14.14.2.2.14.14.27.27.41.48l-.61.61-.27.27-.27.27-2.65,2.65-.2.2-.2.2-22.6,22.6,15.95-23.08Zm-15.61,23.35l22.87-22.87.2-.2.2-.2,1.97-1.97.27-.27.27-.27,1.09-1.09c1.76,1.7,3.73,3.05,6.04,4.07l-32.92,22.81Zm22.06,3.05c-.61-3.87-1.36-9.23,2.85-19.34l.07-.2h-.07l-.27-.14,8.14-5.63c-.07.14-.2.34-.27.48-5.57,9.64-6.72,17.31-7.6,23.01-.88,5.84-1.49,9.84-5.97,12.56,4.07-4.41,3.73-6.99,3.12-10.72Zm5.36.75c-1.09,4.14-1.97,7.33-7.4,9.71,3.87-2.78,4.48-6.86,5.29-12.22.88-6.11,2.04-13.64,7.94-23.55l2.1,11.47c-5.63,5.77-6.86,10.59-7.94,14.59Zm13.37-23.89v36.92l-5.02-27.56-.07-.27-.07-.27-2.04-11.2c1.9.75,3.94,1.22,6.04,1.36h1.15v1.02h0Zm.2-1.29h-1.63c-1.97-.14-3.8-.61-5.57-1.29-.07,0-.2-.07-.27-.07h0c-.07,0-.14-.07-.2-.07h0c-.07,0-.14-.07-.2-.07h0c-2.31-.95-4.34-2.38-6.11-4.07q-.07-.07-.14-.14-.07-.07-.14-.14c-.2-.2-.41-.41-.61-.68-.07-.07-.14-.14-.14-.2-.07-.07-.14-.14-.14-.2-1.22-1.43-2.24-3.05-3.05-4.82-.07-.07-.07-.14-.14-.27h0c0-.07-.07-.14-.07-.2h0c0-.07-.07-.14-.07-.2h0c-.88-2.24-1.43-4.68-1.43-7.19v-1.83c.14-1.97.61-3.8,1.29-5.57,0-.07.07-.2.07-.27h0c0-.07.07-.14.07-.2h0c0-.07.07-.14.07-.2h0c.95-2.31,2.38-4.34,4.07-6.11l.14-.14.14-.14c.2-.2.41-.41.68-.61.07-.07.14-.14.2-.14.07-.07.14-.14.2-.14,1.43-1.22,3.05-2.24,4.82-3.05.07-.07.14-.07.27-.14h0c.07,0,.14-.07.2-.07h0c.07,0,.14-.07.2-.07h0c2.24-.88,4.68-1.43,7.19-1.43h1.83c1.97.14,3.8.61,5.57,1.29.07,0,.2.07.27.07h0c.07,0,.14.07.2.07h0c.07,0,.14.07.2.07h0c2.31.95,4.34,2.38,6.11,4.07l.14.14.14.14c.2.2.41.41.61.68.07.07.14.14.14.2.07.07.14.14.14.2,1.22,1.43,2.24,3.05,3.05,4.82.07.07.07.14.14.27h0c0,.07.07.14.07.2h0c0,.07.07.14.07.2h0c.88,2.24,1.43,4.68,1.43,7.19v1.83c-.14,1.97-.61,3.8-1.29,5.57,0,.07-.07.2-.07.27h0c0,.07-.07.14-.07.2h0c0,.07-.07.14-.07.2h0c-.95,2.31-2.38,4.34-4.07,6.11q-.07.07-.14.14-.07.07-.14.14c-.2.2-.41.41-.68.61-.07.07-.14.14-.2.14s-.14.14-.2.14c-1.43,1.22-3.05,2.24-4.82,3.05-.07.07-.14.07-.27.14h0c-.07,0-.14.07-.2.07h0c-.07,0-.14.07-.2.07h0c-2.24.88-4.68,1.43-7.19,1.43-.07,0-.14,0-.2,0h0Zm.2,38.28v-37.87c2.51,0,4.89-.48,7.13-1.36l-7.13,39.23Zm23.14-3.67c-.2-5.97-2.31-7.53-5.36-9.77-3.12-2.31-7.47-5.57-11.67-15.68l-.07-.2h-.07l-.27.14,1.76-9.77c.07.2.07.34.14.54,2.85,10.72,7.47,17.04,10.86,21.58,3.6,4.82,5.97,8.08,4.68,13.17Zm-1.02-13.03c2.17,3.73,3.8,6.52,1.63,12.08.75-4.75-1.7-8.08-4.89-12.42-3.67-4.95-8.21-11.13-11.06-22.26l9.57,6.65c.2,8.08,2.65,12.35,4.75,15.95Zm-4.28-16.15l-.2-.14-.2-.14-9.37-6.52c1.9-.81,3.67-1.97,5.16-3.33.07-.07.14-.14.2-.14.07-.07.14-.14.2-.2.14-.14.27-.27.48-.41l.61.61.27.27.27.27,2.65,2.65.2.2.2.2,22.6,22.6-23.08-15.95Zm23.28,15.61l-22.87-22.87-.2-.2-.2-.2-1.97-1.97-.27-.27-.27-.27-1.09-1.09c1.7-1.76,3.05-3.73,4.07-6.04l22.81,32.92Zm3.05-22.06c-3.87.61-9.16,1.36-19.34-2.85l-.2-.07v.07l-.14.27-5.63-8.14c.14.07.34.2.48.27,9.64,5.57,17.31,6.72,23.01,7.6,5.84.88,9.84,1.49,12.56,5.97-4.34-4.07-6.92-3.73-10.72-3.12Zm-35.23-10.05q.07,0,0,0h.2c.07,0,.14,0,.2-.07h-.2s-.07.07-.2.07q.07,0,0,0h-.27.07c.07.07.14,0,.2,0Zm-7.67,5.5c.14,0,.2-.07.2-.07.07-.07-.07-.14-.27-.2-.14-.07-.34-.07-.54-.14s-.48-.07-.68-.07h-.41c-.2,0-.48.07-.68.07-.2.07-.41.07-.54.14-.2.07-.27.14-.27.2,0,0,.07.07.2.07.2.07.61.07,1.22.07h.41c.68,0,1.09-.07,1.36-.07Zm-2.38-2.17h2.71c2.31-.2,2.85-.95,5.97-2.38.2-.14.48-.2.68-.34.2-.07.34-.14.54-.27.07,0,.14-.07.2-.07h0c.07,0,.14-.07.2-.07h0c.07,0,.14-.07.2-.07h.07-.07c-.07,0-.14.07-.2.07h-.07c-.07,0-.14.07-.2.07h-.07c-.07,0-.14.07-.2.07h0c-1.36.48-1.97.54-2.85.48h-.14c-.41.14-.75.27-1.15.34-.14.07-.27.07-.34.14-.07,0-.2.07-.27.07-.2.07-.41.14-.54.14-.68.14-1.43.27-2.38.34-.34,0-.68.07-1.02.07h-.41c-.41,0-.75,0-1.02-.07-.88-.07-1.7-.2-2.38-.34-.2-.07-.41-.07-.54-.14-.07,0-.2-.07-.27-.07-.14-.07-.27-.07-.34-.14-.41-.14-.75-.27-1.15-.34h-.14c-.88.07-1.43,0-2.85-.48h0c-.07,0-.14-.07-.2-.07h-.07c-.07,0-.14-.07-.2-.07h-.07c-.07,0-.14-.07-.2-.07h-.07.07c.07,0,.14.07.2.07h0c.07,0,.14.07.2.07h0c.07,0,.14.07.2.07.2.07.41.2.54.27.27.14.48.2.68.34,3.05,1.49,3.6,2.17,5.97,2.38h.95Zm-8.69-3.39h0c.07,0,.14.07.27.07h.48-.07c-.07,0-.14,0-.2-.07h-.48Zm-.81-12.01c.07.07.14.07.2.14.68.41,1.36.68,1.97.68,1.63,0,3.73-.75,4.21-1.36h0c.07-.07.07-.14.07-.2s0-.14-.07-.27c-.14-.2-.34-.34-.48-.27-.07,0-.14,0-.2.07h0c-.68.27-1.49,1.36-2.92,1.36.88-.41,1.83-1.29,2.04-2.24h0c0-.07,0-.14.07-.27v-.27h0c0-.14,0-.2-.07-.34.61.2,1.15.68,2.17,1.63v-.2c-.14-1.83-1.43-2.38-3.53-2.51h-1.43c-.41,0-.75.07-1.02.07-.07,0-.14.07-.2.07s-.14,0-.2.07c-1.9.54-2.92,2.1-3.87,2.58.75,0,1.43-.61,2.51-1.15-.34.48-.48,1.09-.14,1.63-.27-.14-.48-.34-.75-.48-.75-.54,0,.27,1.15,1.09.07.07.14.07.14.14.07.07.14.07.2.14h0c0-.14.07-.14.14-.07Zm-.41-.61c-.07,0-.14-.07-.2-.07-.41-.75-.14-1.56.2-2.1.2-.07.41-.14.68-.2.07,0,.14-.07.2-.07s.14,0,.2-.07h0c-.14.14-.2.27-.27.41-.14.27-.2.61-.2.95v.14c0,.07,0,.2.07.27q0,.07.07.14,0,.07.07.14c.14.41.41.75.68,1.02-.34-.07-.61-.14-.88-.27-.07,0-.14-.07-.2-.07h-.07q-.07,0-.14-.07h-.07c0-.07-.07-.14-.14-.14Zm1.29-5.29h1.29c.68,0,1.29.07,1.83.2.07,0,.2.07.27.07s.2.07.27.07c2.51.68,3.05,2.31,3.67,1.9.41-.34-1.02-1.63-2.58-2.65-.07-.07-.14-.07-.2-.14-.07-.07-.14-.07-.2-.14h0c-.07-.07-.14-.14-.27-.14-.07-.07-.2-.14-.27-.14-.75-.41-1.43-.75-1.9-.81-.34-.07-.75,0-1.29.14-.07,0-.14,0-.2.07-.07,0-.14.07-.2.07-.34.07-.68.14-1.02.27-.07,0-.14.07-.2.07s-.14.07-.2.07c-1.22.41-2.58,1.09-3.53,1.76-.14.07-.27.2-.34.27-.14.07-.2.2-.27.27h-.07c.95,1.09,1.63-.07,3.8-.75.54-.34,1.02-.41,1.63-.48Zm19.41,17.85c-.07.07-.2.07-.27.14,0,.07.07.07.07.14.07.07.07.14.14.2.07.07.07.14.14.2.14.2.27.41.48.81.07.07.07.14.14.27v-.14c-.07-.41-.14-.68-.27-1.02,0-.07-.07-.14-.07-.2-.07-.07-.07-.14-.14-.2-.14-.2-.27-.34-.48-.54-.07-.07-.14-.14-.2-.2-.07-.07-.14-.14-.2-.14-.2-.2-.41-.34-.68-.54.27.34.48.68.68.88.07.07.14.14.14.2.07.07.14.14.14.2h0c.2,0,.34-.07.41-.07Zm-13.17-5.23h0c-.07,0-.14-.07-.2-.14s-.07-.07-.14-.14h0c-.07-.07-.07-.2-.07-.34.2-1.09.75-.95.75-1.63-1.63.34-1.09,2.78-2.58,2.92-1.49.2-2.17,1.83-2.04,1.63.54-.41,1.43-.81,2.38-1.02h0c.14,0,.27-.07.34-.07.14,0,.2-.07.34-.07h0c.48-.07.88-.14,1.29-.14,1.36,0,1.76.81,2.92.88h.41c1.09-.07,1.56-.88,2.92-.88.41,0,.81.07,1.29.14h0c.14,0,.2.07.34.07s.27.07.34.07h0c.95.2,1.83.61,2.38,1.02.2.2-.54-1.49-2.04-1.63-1.49-.2-.95-2.58-2.58-2.92,0,.75.54.54.75,1.63,0,.14-.07.27-.14.34h0c-.07.07-.07.14-.14.14-.07.07-.14.07-.2.14h0c-.54.2-1.36,0-1.63-.61.34,1.36-.61,1.43-1.43,1.49h-.41c-.88,0-1.76-.14-1.43-1.49-.07.61-.88.81-1.43.61Zm12.9,5.29s0,.07,0,0c.14,0,.2-.07.27-.07-.07.07-.2.07-.27.07Zm-19.55-.07c.07.07.2.07.27.07h0c-.07,0-.14,0-.27-.07Z"/>
    </g>
  </g>
</svg>