<?xml version="1.0" encoding="UTF-8"?>
<svg id="Layer_2" data-name="Layer 2" xmlns="http://www.w3.org/2000/svg" viewBox="0 0 520 320">
  <defs>
    <style>
      .cls-1 {
        fill: #a3ab78;
      }

      .cls-1, .cls-2, .cls-3, .cls-4, .cls-5 {
        stroke-width: 0px;
      }

      .cls-2 {
        fill: #00ac51;
      }

      .cls-3 {
        fill: #00a5d2;
      }

      .cls-4 {
        fill: #fff;
      }

      .cls-5 {
        fill: #c83a48;
      }
    </style>
  </defs>
  <g id="_500x300_Background" data-name="500x300 Background">
    <rect class="cls-1" width="520" height="320" rx="10" ry="10"/>
  </g>
  <g id="Uzbekistan">
    <g>
      <rect class="cls-3" x="10" y="10" width="500" height="96"/>
      <rect class="cls-5" x="10" y="208" width="500" height="6"/>
      <rect class="cls-5" x="10" y="106" width="500" height="6"/>
      <rect class="cls-4" x="10" y="112" width="500" height="96"/>
      <rect class="cls-2" x="10" y="214" width="500" height="96"/>
      <polygon class="cls-4" points="99.42 84.77 98 80.41 96.58 84.77 92 84.77 95.71 87.46 94.29 91.82 98 89.12 101.71 91.82 100.29 87.46 104 84.77 99.42 84.77"/>
    </g>
    <g>
      <path class="cls-4" d="m87.5,91.81c-1.86.32-3.76.48-5.71.48-18.94,0-34.29-15.35-34.29-34.29s15.35-34.29,34.29-34.29c1.94,0,3.85.16,5.71.48-16.22,2.71-28.57,16.82-28.57,33.81s12.35,31.09,28.57,33.81Z"/>
      <polygon class="cls-4" points="123.41 84.77 121.99 80.41 120.58 84.77 116 84.77 119.7 87.46 118.29 91.82 121.99 89.12 125.7 91.82 124.28 87.46 128 84.77 123.41 84.77"/>
    </g>
    <polygon class="cls-4" points="147.41 84.77 146 80.41 144.58 84.77 140 84.77 143.71 87.46 142.29 91.82 146 89.12 149.7 91.82 148.29 87.46 152 84.77 147.41 84.77"/>
    <polygon class="cls-4" points="171.41 84.77 170 80.41 168.58 84.77 164 84.77 167.71 87.46 166.29 91.82 170 89.12 173.7 91.82 172.29 87.46 176 84.77 171.41 84.77"/>
    <polygon class="cls-4" points="195.41 84.77 194 80.41 192.58 84.77 188 84.77 191.71 87.46 190.29 91.82 194 89.12 197.7 91.82 196.28 87.46 200 84.77 195.41 84.77"/>
    <polygon class="cls-4" points="123.41 55.97 121.99 51.61 120.58 55.97 116 55.97 119.7 58.66 118.29 63.02 121.99 60.32 125.7 63.02 124.28 58.66 128 55.97 123.41 55.97"/>
    <polygon class="cls-4" points="147.41 55.97 146 51.61 144.58 55.97 140 55.97 143.71 58.66 142.29 63.02 146 60.32 149.7 63.02 148.29 58.66 152 55.97 147.41 55.97"/>
    <polygon class="cls-4" points="171.41 55.97 170 51.61 168.58 55.97 164 55.97 167.71 58.66 166.29 63.02 170 60.32 173.7 63.02 172.29 58.66 176 55.97 171.41 55.97"/>
    <polygon class="cls-4" points="195.41 55.97 194 51.61 192.58 55.97 188 55.97 191.71 58.66 190.29 63.02 194 60.32 197.7 63.02 196.28 58.66 200 55.97 195.41 55.97"/>
    <polygon class="cls-4" points="147.41 27.17 146 22.81 144.58 27.17 140 27.17 143.71 29.86 142.29 34.22 146 31.52 149.7 34.22 148.29 29.86 152 27.17 147.41 27.17"/>
    <polygon class="cls-4" points="171.41 27.17 170 22.81 168.58 27.17 164 27.17 167.71 29.86 166.29 34.22 170 31.52 173.7 34.22 172.29 29.86 176 27.17 171.41 27.17"/>
    <polygon class="cls-4" points="195.41 27.17 194 22.81 192.58 27.17 188 27.17 191.71 29.86 190.29 34.22 194 31.52 197.7 34.22 196.28 29.86 200 27.17 195.41 27.17"/>
  </g>
</svg>