<?xml version="1.0" encoding="UTF-8"?>
<svg id="Layer_2" data-name="Layer 2" xmlns="http://www.w3.org/2000/svg" viewBox="0 0 520 320">
  <defs>
    <style>
      .cls-1 {
        fill: #a3ab78;
      }

      .cls-1, .cls-2, .cls-3, .cls-4, .cls-5 {
        stroke-width: 0px;
      }

      .cls-3 {
        fill: #d21034;
      }

      .cls-4 {
        fill: #009543;
      }

      .cls-5 {
        fill: #fdce12;
      }
    </style>
  </defs>
  <g id="_500x300_Background" data-name="500x300 Background">
    <rect class="cls-1" width="520" height="320" rx="10" ry="10"/>
  </g>
  <g id="Vanuatu">
    <g>
      <polygon class="cls-3" points="10 10 248.87 133.12 510 133.12 510 10 10 10"/>
      <polygon class="cls-4" points="10 310 510 310 510 186.88 248.87 186.88 10 310"/>
      <polygon class="cls-2" points="248.87 133.12 10 10 10 31.27 207.56 133.12 244.26 152.09 285.64 152.09 510 152.09 510 133.12 248.87 133.12"/>
      <polygon class="cls-2" points="244.26 167.91 207.56 186.88 10 288.73 10 310 248.87 186.88 510 186.88 510 167.91 285.64 167.91 244.26 167.91"/>
      <path class="cls-2" d="m76.67,148.71c-.15.15-.31.31-.54.38.08,1,0,1.84,0,2.07.31.31.61.61.92,1l.08.08v-.08c-.15-.61-.54-2.38-.46-3.46Z"/>
      <path class="cls-2" d="m74.75,150.4s-.92-.08-2-.31c-1.08.23-2,.31-2,.31l-.69.69c-.15.15-.38.38-.54.54.23-.08,1.46-.46,2.46-.69.08-.15.31-.15.69-.15.38-.08.61,0,.69.15,1.08.23,2.3.61,2.46.69-.15-.15-.38-.38-.54-.54l-.54-.69Z"/>
      <path class="cls-2" d="m74.52,148.17c0-.23-.08-.38-.08-.61h-.61v.77c.23-.08.46-.08.69-.15Z"/>
      <path class="cls-2" d="m68.99,148.71c0,1.15-.31,2.92-.46,3.46v.08l.08-.08c.31-.31.61-.69.92-1,0-.15-.08-1.08,0-2.07-.23-.15-.46-.23-.54-.38Z"/>
      <path class="cls-2" d="m71.83,147.56h-.61c0,.23-.08.38-.08.61.23.08.46.08.69.15v-.77Z"/>
      <path class="cls-2" d="m72.9,148.56l-.15-.15-.15.15q.08,0,.15.08c.08,0,.15,0,.15-.08Z"/>
      <path class="cls-2" d="m70.83,149.55c0,.15-.08.23-.08.31.08-.08.15-.15.23-.23-.08,0-.15,0-.15-.08Z"/>
      <path class="cls-2" d="m74.82,149.55c-.08,0-.15,0-.15.08.08.08.15.15.23.23-.08,0-.08-.15-.08-.31Z"/>
      <path class="cls-2" d="m209.92,167.91l15.28-7.91-15.28-7.91-36.79-18.97L10,49.09v221.89l163.13-84.1,36.79-18.97Zm-139.09,37.86v-17.13c3.46,0,6.61-.69,9.52-1.84,8.29-3.38,14.36-10.91,17.36-18.97,1-2.61,1.69-5.3,2-7.91.15-1.31.23-2.61.23-3.84,0-1.38-.08-2.69-.31-4.07-1.15-7.37-5.22-14.36-11.29-18.97-4.45-3.38-9.91-5.45-16.05-5.45s-11.21,2.15-15.21,5.45c-5.99,4.92-9.45,12.44-9.91,18.97-.08.54-.08,1.08-.08,1.54,0,2.15.38,4.3,1,6.3.92,2.84,2.46,5.53,4.53,7.91,4.3,4.84,10.83,8.14,19.05,8.14s13.67-3.69,17.36-8.14c2.15-2.61,3.61-5.38,4.3-7.91.46-1.38.61-2.69.61-3.84.15,1.31.23,2.61.15,3.84,0,3-.54,5.61-1.31,7.91-4.38,12.6-18.51,15.82-22.89,15.82s-21.74-1.61-29.72-15.82c-1.31-2.3-2.3-4.92-3.07-7.91-.54-2.38-.92-4.99-1-7.91v-1.23c0-7.14,1.69-12.98,4.3-17.74,8.37-15.05,26.73-18.97,33.79-18.97,6.68,0,24.5,3.53,34.1,18.97,3.07,4.99,5.3,11.21,6.07,18.97.15,1.77.31,3.61.31,5.61,0,.77,0,1.54-.08,2.3-.08,2.76-.38,5.38-.77,7.91-1.31,7.6-3.99,13.9-7.53,18.97-9.6,14.06-25.65,19.05-35.48,19.05Zm9.75-49.62c.31.38.69.84,1,1.31h0s-.92-5.99.54-4.99c1.38,1,.46,6.14.46,6.3.08.15.23.31.31.38l.54.77s-.69-6.37.69-5.3c1,.77.69,3.61.38,5.3-.08.61-.23,1.08-.23,1.23.31.38.54.77.84,1.15,0-.31-.15-1.31-.15-2.38-.08-1.84.08-3.92,1.23-2.76.69.69.84,1.77.77,2.76-.15,1.69-.84,3.3-1,3.61.61.92,1.23,1.84,1.77,2.84l-.92.54-1.08-2.15c-.54-.15-5.99-1.46-5.91-2.76.08-1.38,5.15,1.54,5.15,1.54l-.69-1.08s-4.61-1.08-5.61-2.53c-.08-.08-.15-.23-.15-.31-.23-.92,1.23-.38,2.69.31,1.08.54,2.15,1.15,2.38,1.23-.08-.15-.15-.31-.31-.38l-.54-.69s-.15-.08-.38-.15c-1.23-.38-4.69-1.77-5.07-3-.38-1.38,3.3.69,4.07,1.15-.23-.31-.54-.69-.77-1.08l-.08-.15s-5.15-1.23-5.84-3c-.77-1.77,4.45,1.38,4.45,1.38l-1.54-1.84s-2.76-.31-4.61-1.38c-.08-.08-.23-.15-.31-.23-.08.08-.23.15-.31.23-1.77,1.08-4.61,1.38-4.61,1.38l-1.54,1.84s5.22-3.15,4.45-1.38c-.69,1.77-5.84,3-5.84,3l-.08.15c-.31.38-.54.69-.77,1.08.77-.46,4.45-2.46,4.07-1.15-.38,1.23-3.84,2.53-5.07,3-.23.08-.38.15-.38.15l-.54.69c-.08.15-.15.31-.31.38.23-.15,1.23-.69,2.38-1.23,1.46-.69,2.92-1.23,2.69-.31,0,.08-.08.23-.15.31-1,1.46-5.61,2.53-5.61,2.53l-.69,1.08s5.15-2.92,5.15-1.54c.08,1.31-5.38,2.69-5.91,2.76-.77,1.38-1.08,2.15-1.08,2.15l-.92-.54c.61-1,1.23-1.92,1.77-2.84-.15-.31-.84-2-1-3.61-.08-1,.08-2.07.77-2.76,1.15-1.15,1.31.92,1.23,2.76,0,1.08-.15,2.07-.15,2.38.31-.38.54-.77.84-1.15,0-.15-.15-.61-.23-1.23-.31-1.69-.61-4.53.38-5.3,1.46-1.15.69,5.3.69,5.3l.54-.77c.08-.15.23-.31.31-.38,0-.15-.92-5.3.46-6.3,1.38-1,.54,4.99.54,4.99h0c.31-.46.69-.84,1-1.31-.08-.46-.31-2.46-.08-4.07.15-.92.46-1.69,1-2.07.92-.61.92.69.77,2.07-.15,1.23-.46,2.53-.54,2.69.38-.46.77-.84,1.15-1.31,0-.15-.08-.69-.08-1.38,0-1.46.08-3.53,1-4.22.31-.23.54-.15.61.15.15-.08.46-.15.77-.15,0-.15.08-.31.08-.46-1.54-.15-3.3-.46-3.69-1.23-.69-1.38,3.99-.23,3.99-.23l-1.15-.92s-4.61.08-5.3-1c-.61-1.08,3.92,0,4.07.08-.08,0-.08-.08-.08-.08l-1-.69s-4.69.23-5.3-.92c-.54-1.15,3.92,0,4.15.08-.15-.08-.31-.23-.38-.31l-.69-.46s-7.07-.77-6.53-1.84c.54-1.15,5.3,1.08,5.3,1.08l-1.31-.69s-3.92-1.84-3.15-3.07,3,2.84,3,2.84l.08.08c.31.15.69.38,1.15.61-.46-.54-2.76-3.38-1.46-3.15s2.92,3.69,3.07,4.15c.31.15.61.38.92.61-.54-.77-2.92-4.3-1.54-3.92,1.46.46,2.69,4.38,2.76,4.76.31.23.69.46,1,.77-.38-.69-2.46-4.3-1-3.84,1.54.46,2.15,4.3,2.23,4.76.38.31.69.54,1.08.84-.31-.61-2-4.84-.61-4.38,1.38.46,1.84,4.76,1.84,5.45.15.15.31.23.46.38,0-.31.08-.61.15-.92-.46-1.31-.77-2.92.31-2.38.23.08.38.23.54.38.15-.15.31-.31.54-.38,1.08-.54.77,1.08.31,2.38.08.31.08.61.15.92.15-.15.31-.23.46-.38.08-.69.46-4.99,1.84-5.45s-.38,3.76-.61,4.38c.38-.31.69-.61,1.08-.84.08-.46.69-4.3,2.23-4.76s-.54,3.15-1,3.84c.38-.23.69-.54,1-.77.08-.38,1.23-4.3,2.76-4.76,1.38-.38-1,3.15-1.54,3.92.31-.23.61-.46.92-.61.23-.46,1.77-3.92,3.07-4.15s-1.08,2.61-1.46,3.15c.46-.23.84-.46,1.15-.61l.08-.08s2.23-4.07,3-2.84c.77,1.23-3.15,3.07-3.15,3.07l-1.31.69s4.76-2.23,5.3-1.08-6.53,1.84-6.53,1.84l-.69.46c-.15.08-.31.23-.38.31.23-.08,4.69-1.31,4.15-.08s-5.3.92-5.3.92l-1,.69c-.08,0-.08.08-.08.08.15-.08,4.69-1.15,4.07-.08s-5.3,1-5.3,1l-1.15.92s4.61-1.23,3.99.23c-.38.77-2.23,1.15-3.69,1.23,0,.15.08.31.08.46.38,0,.61,0,.77.15.08-.31.31-.38.61-.15.92.69,1.08,2.76,1,4.22,0,.69-.08,1.23-.08,1.38.38.38.77.84,1.15,1.31,0-.15-.38-1.46-.54-2.69-.15-1.38-.15-2.69.77-2.07.54.38.84,1.15,1,2.07.84,1.69.61,3.69.54,4.07Z"/>
      <polygon class="cls-5" points="285.64 152.09 244.26 152.09 207.56 133.12 10 31.27 10 49.09 173.08 133.12 209.86 152.09 225.14 160 209.86 167.91 173.08 186.88 10 270.91 10 288.73 207.56 186.88 244.26 167.91 285.64 167.91 510 167.91 510 160 510 152.09 285.64 152.09"/>
      <path class="cls-5" d="m97.71,167.91c-3.07,8.06-9.06,15.59-17.36,18.97-2.92,1.15-6.07,1.84-9.52,1.84v17.13c9.83,0,25.88-4.99,35.71-18.97,3.53-5.07,6.3-11.29,7.53-18.97.38-2.46.69-5.15.77-7.91,0-.77.08-1.54.08-2.3,0-1.92-.08-3.84-.31-5.61-.77-7.76-2.92-13.98-6.07-18.97-9.6-15.44-27.42-18.97-34.1-18.97-7.07,0-25.42,3.84-33.79,18.97-2.61,4.76-4.3,10.6-4.3,17.74v1.23c.08,2.92.38,5.53,1,7.91.69,3,1.77,5.61,3.07,7.91,7.99,14.13,25.5,15.82,29.72,15.82,4.45,0,18.51-3.15,22.89-15.82.77-2.3,1.31-4.92,1.31-7.91,0-1.23,0-2.46-.15-3.84,0,1.08-.23,2.38-.61,3.84-.77,2.53-2.23,5.3-4.3,7.91-3.69,4.45-9.45,8.14-17.36,8.14s-14.82-3.3-19.05-8.14c-2.07-2.38-3.61-5.07-4.53-7.91-.69-2.07-1-4.22-1-6.3,0-.54,0-1.08.08-1.54.46-6.53,3.92-13.98,9.91-18.97,3.99-3.3,9.06-5.45,15.21-5.45s11.6,2.07,16.05,5.45c6.07,4.61,10.14,11.6,11.29,18.97.23,1.38.31,2.69.31,4.07,0,1.23-.08,2.53-.23,3.84-.54,2.53-1.23,5.22-2.23,7.83Z"/>
      <path class="cls-5" d="m79.89,162.07c-.08,1.31,5.38,2.69,5.91,2.76.77,1.38,1.08,2.15,1.08,2.15l.92-.54c-.61-1-1.23-1.92-1.77-2.84.15-.31.84-2,1-3.61.08-1-.08-2.07-.77-2.76-1.15-1.15-1.31.92-1.23,2.76,0,1.08.15,2.07.15,2.38-.31-.38-.54-.77-.84-1.15,0-.15.15-.61.23-1.23.31-1.69.61-4.53-.38-5.3-1.46-1.15-.69,5.3-.69,5.3l-.54-.77c-.08-.15-.23-.31-.31-.38,0-.15.92-5.3-.46-6.3-1.38-1-.54,4.99-.54,4.99h0c-.31-.46-.69-.84-1-1.31.08-.46.31-2.46.08-4.07-.15-.92-.46-1.69-1-2.07-.92-.61-.92.69-.77,2.07.15,1.23.46,2.53.54,2.69-.38-.46-.77-.84-1.15-1.31,0-.15.08-.69.08-1.38,0-1.46-.08-3.53-1-4.22-.31-.23-.54-.15-.61.15-.15-.08-.46-.15-.77-.15,0-.15-.08-.31-.08-.46,1.54-.15,3.3-.46,3.69-1.23.69-1.38-3.99-.23-3.99-.23l1.15-.92s4.61.08,5.3-1c.61-1.08-3.92,0-4.07.08.08,0,.08-.08.08-.08l1-.69s4.69.23,5.3-.92c.54-1.15-3.92,0-4.15.08.15-.08.31-.23.38-.31.23-.15.46-.31.69-.46.08,0,7.07-.77,6.53-1.84-.54-1.15-5.3,1.08-5.3,1.08l1.31-.69s3.92-1.84,3.15-3.07-3,2.84-3,2.84l-.08.08c-.31.15-.69.38-1.15.61.46-.54,2.76-3.38,1.46-3.15-1.31.23-2.92,3.69-3.07,4.15-.31.15-.61.38-.92.61.54-.77,2.92-4.3,1.54-3.92-1.46.46-2.69,4.38-2.76,4.76-.31.23-.69.46-1,.77.38-.69,2.46-4.3,1-3.84-1.54.46-2.15,4.3-2.23,4.76-.38.31-.69.54-1.08.84.31-.61,2-4.84.61-4.38-1.38.46-1.84,4.76-1.84,5.45-.15.15-.31.23-.46.38,0-.31-.08-.61-.15-.92.46-1.31.77-2.92-.31-2.38-.23.08-.38.23-.54.38-.15-.15-.31-.31-.54-.38-1.08-.54-.77,1.08-.31,2.38-.08.31-.08.61-.15.92-.15-.15-.31-.23-.46-.38-.08-.69-.46-4.99-1.84-5.45s.38,3.76.61,4.38c-.38-.31-.69-.61-1.08-.84-.08-.46-.69-4.3-2.23-4.76s.54,3.15,1,3.84c-.38-.23-.69-.54-1-.77-.08-.38-1.23-4.3-2.76-4.76-1.38-.38,1,3.15,1.54,3.92-.31-.23-.61-.46-.92-.61-.23-.46-1.77-3.92-3.07-4.15s1.08,2.61,1.46,3.15c-.46-.23-.84-.46-1.15-.61l-.08-.08s-2.23-4.07-3-2.84c-.77,1.23,3.15,3.07,3.15,3.07l1.31.69s-4.76-2.23-5.3-1.08c-.54,1.15,6.45,1.84,6.53,1.84.23.15.46.31.69.46.15.08.31.23.38.31-.23-.08-4.69-1.31-4.15-.08s5.3.92,5.3.92l1,.69c.08,0,.08.08.08.08-.15-.08-4.69-1.15-4.07-.08.61,1.08,5.3,1,5.3,1l1.15.92s-4.61-1.23-3.99.23c.38.77,2.23,1.15,3.69,1.23,0,.15-.08.31-.08.46-.38,0-.61,0-.77.15-.08-.31-.31-.38-.61-.15-.92.69-1.08,2.76-1,4.22,0,.69.08,1.23.08,1.38-.38.38-.77.84-1.15,1.31,0-.15.38-1.46.54-2.69.15-1.38.15-2.69-.77-2.07-.54.38-.84,1.15-1,2.07-.23,1.69,0,3.69.08,4.07-.31.38-.69.84-1,1.31h0s.92-5.99-.54-4.99c-1.38,1-.46,6.14-.46,6.3-.08.15-.23.31-.31.38l-.54.77s.69-6.37-.69-5.3c-1,.77-.69,3.61-.38,5.3.08.61.23,1.08.23,1.23-.31.38-.54.77-.84,1.15,0-.31.15-1.31.15-2.38.08-1.84-.08-3.92-1.23-2.76-.69.69-.84,1.77-.77,2.76.15,1.69.84,3.3,1,3.61-.61.92-1.23,1.84-1.77,2.84l.92.54s.38-.77,1.08-2.15c.54-.15,5.99-1.46,5.91-2.76-.08-1.38-5.15,1.54-5.15,1.54l.69-1.08s4.61-1.08,5.61-2.53c.08-.08.15-.23.15-.31.23-.92-1.23-.38-2.69.31-1.08.54-2.15,1.15-2.38,1.23.08-.15.15-.31.31-.38l.54-.69s.15-.08.38-.15c1.23-.38,4.69-1.77,5.07-3,.38-1.38-3.3.69-4.07,1.15.23-.31.54-.69.77-1.08l.08-.15s5.15-1.23,5.84-3c.77-1.77-4.45,1.38-4.45,1.38l1.54-1.84s2.76-.31,4.61-1.38c.08-.08.23-.15.31-.23.08.08.23.15.31.23,1.77,1.08,4.61,1.38,4.61,1.38l1.54,1.84s-5.22-3.15-4.45-1.38c.69,1.77,5.84,3,5.84,3l.08.15c.31.38.54.69.77,1.08-.77-.46-4.45-2.46-4.07-1.15.38,1.23,3.84,2.53,5.07,3,.23.08.38.15.38.15l.54.69c.08.15.15.31.31.38-.23-.15-1.23-.69-2.38-1.23-1.46-.69-2.92-1.23-2.69-.31,0,.08.08.23.15.31,1,1.46,5.61,2.53,5.61,2.53l.69,1.08c-.61,0-5.68-2.92-5.76-1.54Zm-6.37-11.14c-.08-.15-.31-.15-.69-.15-.38-.08-.61,0-.69.15-1.08.23-2.3.61-2.46.69.15-.15.38-.38.54-.54l.69-.69s.92-.08,2-.31c1.08.23,2,.31,2,.31l.69.69c.15.15.38.38.54.54-.31-.08-1.54-.46-2.61-.69Zm-2.69-1.38c.08,0,.15,0,.15.08-.08.08-.15.15-.23.23,0,0,0-.15.08-.31Zm3.99,0c0,.15.08.23.08.31-.08-.08-.15-.15-.23-.23,0,0,.08,0,.15-.08Zm-2.15-1l.15-.15.15.15q-.08,0-.15.08t-.15-.08Zm3.99.15c0,1.15.31,2.92.46,3.46v.08l-.08-.08c-.31-.31-.61-.69-.92-1,0-.15.08-1.08,0-2.07.15-.15.38-.23.54-.38Zm-2.15-.54c-.23.08-.46.08-.69.15v-.77h.61c0,.23,0,.38.08.61Zm-3.3-.61h.61v.77c-.23-.08-.46-.15-.69-.15,0-.23,0-.38.08-.61Zm-2.69,4.53c.15-.54.46-2.3.46-3.46.15.15.31.31.54.38-.08,1,0,1.84,0,2.07-.31.38-.61.69-1,1,.08,0,0,.08,0,.08-.08,0,0,0,0-.08Z"/>
    </g>
  </g>
</svg>