<?xml version="1.0" encoding="UTF-8"?>
<svg id="Layer_2" data-name="Layer 2" xmlns="http://www.w3.org/2000/svg" viewBox="0 0 520 320">
  <defs>
    <style>
      .cls-1 {
        fill: #a3ab78;
      }

      .cls-1, .cls-2, .cls-3, .cls-4, .cls-5 {
        stroke-width: 0px;
      }

      .cls-2 {
        fill: #00247d;
      }

      .cls-3 {
        fill: #fff;
      }

      .cls-4 {
        fill: #cf142b;
      }

      .cls-5 {
        fill: #fc0;
      }
    </style>
  </defs>
  <g id="_500x300_Background" data-name="500x300 Background">
    <rect class="cls-1" width="520" height="320" rx="10" ry="10"/>
  </g>
  <g id="Venezuela">
    <g>
      <rect class="cls-5" x="10" y="10" width="499.92" height="100.05"/>
      <polygon class="cls-2" points="10 109.98 10 115 10 210.02 509.92 210.02 509.92 115 509.92 109.98 10 109.98"/>
      <polygon class="cls-4" points="10 210.02 10 215.05 10 310 510 310 510 215.05 510 210.02 10 210.02"/>
      <g>
        <polygon class="cls-3" points="178.94 184.7 175.92 174.24 172.2 184.5 161.33 184.08 169.93 190.83 166.15 201.08 175.23 194.95 183.83 201.7 180.8 191.17 189.82 185.11 178.94 184.7"/>
        <polygon class="cls-3" points="196.63 148.23 189.68 156.56 179.56 152.5 185.34 161.72 178.33 170.11 188.92 167.43 194.7 176.72 195.46 165.85 205.99 163.17 195.87 159.11 196.63 148.23"/>
        <polygon class="cls-3" points="225.05 130.89 215.62 136.33 207.5 129.04 209.77 139.7 200.34 145.21 211.15 146.31 213.42 156.97 217.82 147 228.69 148.17 220.57 140.87 225.05 130.89"/>
        <polygon class="cls-3" points="246.86 126.22 241.77 116.58 240.25 127.39 229.52 129.24 239.29 134.06 237.78 144.86 245.34 137.02 255.18 141.77 250.02 132.13 257.59 124.29 246.86 126.22"/>
        <polygon class="cls-3" points="279.75 127.39 278.23 116.58 273.14 126.22 262.41 124.29 269.98 132.13 264.82 141.77 274.66 137.02 282.22 144.86 280.71 134.06 290.48 129.24 279.75 127.39"/>
        <polygon class="cls-3" points="310.23 139.7 312.5 129.04 304.38 136.33 294.95 130.89 299.43 140.87 291.31 148.17 302.18 147 306.58 156.97 308.85 146.31 319.66 145.21 310.23 139.7"/>
        <polygon class="cls-3" points="341.67 170.11 334.66 161.72 340.44 152.5 330.32 156.56 323.37 148.23 324.13 159.11 314.01 163.17 324.54 165.85 325.3 176.72 331.08 167.43 341.67 170.11"/>
        <polygon class="cls-3" points="358.67 184.08 347.8 184.5 344.08 174.24 341.06 184.7 330.18 185.11 339.2 191.17 336.17 201.7 344.77 194.95 353.85 201.08 350.07 190.83 358.67 184.08"/>
      </g>
    </g>
  </g>
</svg>