<?xml version="1.0" encoding="UTF-8"?>
<svg id="Layer_2" data-name="Layer 2" xmlns="http://www.w3.org/2000/svg" viewBox="0 0 520 320">
  <defs>
    <style>
      .cls-1 {
        fill: #a3ab78;
      }

      .cls-1, .cls-2, .cls-3, .cls-4, .cls-5 {
        stroke-width: 0px;
      }

      .cls-3 {
        fill: #00b140;
      }

      .cls-4 {
        fill: #fff;
      }

      .cls-5 {
        fill: #c8102e;
      }
    </style>
  </defs>
  <g id="_500x300_Background" data-name="500x300 Background">
    <rect class="cls-1" width="520" height="320" rx="10" ry="10"/>
  </g>
  <g id="Wales">
    <g>
      <path class="cls-3" d="m10,10h500v300H10V10Z"/>
      <path class="cls-4" d="m10,10h500v150H10V10Z"/>
      <g>
        <g>
          <path class="cls-5" d="m164.16,81.14c-16.24,2.46-57.39,6.33-73.44,3.69l3.14,7.56c26.57-2.46,52.04,6.15,75.66-2.81l-5.35-8.44h0Z"/>
          <path class="cls-2" d="m143.28,94.12c-6.18,0-12.47-.45-18.91-.9-9.9-.7-20.15-1.43-30.48-.47l-.27.02-3.49-8.4.64.11c15.43,2.53,55.94-1.06,73.33-3.69l.23-.04,5.72,9.01-.41.16c-8.59,3.26-17.35,4.21-26.36,4.21Zm-38.77-2.56c6.74,0,13.4.47,19.91.94,15.6,1.11,30.34,2.16,44.55-3.11l-4.99-7.86c-14.72,2.21-55.55,6.3-72.68,3.76l2.79,6.72c3.49-.31,6.97-.44,10.42-.44Z"/>
        </g>
        <g>
          <path class="cls-5" d="m101.24,99.59c-10.15-2.99-26.94-20.39-29.71-30.93,7.93,5.45,26.94,12.48,33.77,11.78-2.22,1.58-7.75,5.8-12,6.33,2.03,3.87,5.9,8.79,7.94,12.83h0Zm32.66-5.27h0c2.95,4.04,18.45,2.37,26.29-2.55l-2.12-3.43-1.57,2.9-2.49-2.72-.64,4.31-4.34-3.16-.74,3.78-2.77-3.34-1.01,4.13-4.06-3.16-1.57,4.31c-1.22-1.45-1.91-3.28-1.94-5.18-1.57.61-2.86,2.64-3.04,4.13h0Zm1.29-13.09c0,1.05,1.29,4.13,3.69,5.01.09-1.32-1.57-4.39-.55-5.71l2.12,1.93.65-3.69,2.86,2.02.28-4.31,2.95,1.93v-4.75c-4.8.44-10.7,5.97-12,7.56Zm299.45,47.89c-1.25-2.81-5.12-6.24-8.53-8.35l5.49-13.17c-5.17,1.06-15.91,1.84-22.19,1.13,11.81-11.25,36.54-34.45,44.66-44.99-2.95,14.41-.74,46.75,5.17,58-6.27-2.46-13.53-7.56-17.59-13.18-2.39,8.07-5.33,16.87-6.96,20.47"/>
          <path class="cls-2" d="m434.31,129.26c-1.26-2.84-5.23-6.23-8.39-8.19l-.26-.16,5.35-12.83c-5.59,1.03-15.69,1.67-21.63,1.01l-.77-.09.56-.53c1.09-1.04,2.29-2.18,3.58-3.41,12.6-11.97,33.68-32,41.04-41.55l.64.29c-2.92,14.25-.76,46.53,5.13,57.76l.45.86-.9-.35c-6.55-2.57-13.4-7.62-17.31-12.72-2.53,8.45-5.28,16.54-6.77,19.83l-.26-.12-.45.2Zm-7.75-8.64c2.96,1.87,6.52,4.92,8.06,7.65,1.56-3.68,4.25-11.63,6.68-19.83l.21-.71.43.6c3.58,4.96,10.14,9.98,16.54,12.7-5.44-11.65-7.51-41.32-5.04-55.93-8.08,9.97-28.07,28.96-40.2,40.48-1.07,1.02-2.08,1.97-3.01,2.86,6.21.55,16.15-.15,21.29-1.2l.67-.14-5.63,13.52Zm-324.62-20.45l-.8-.23c-10.36-3.05-27.16-20.54-29.96-31.19l-.25-.94.8.55c7.76,5.33,26.74,12.41,33.53,11.71l1.36-.14-1.69,1.21c-2.36,1.7-7.15,5.16-11.06,5.89.94,1.71,2.18,3.58,3.49,5.55,1.54,2.31,3.13,4.7,4.21,6.84l.37.74Zm-29.78-30.66c3.34,10.24,18.42,25.93,28.35,29.46-1.03-1.9-2.41-3.97-3.75-5.99-1.44-2.16-2.8-4.2-3.77-6.06l-.24-.46.52-.06c3.62-.45,8.32-3.73,10.85-5.56-7.53-.07-23.98-6.22-31.95-11.34Zm69.53,27.46c-3.76,0-6.84-.74-8.08-2.44l-.07-.1v-.12c.2-1.64,1.56-3.79,3.27-4.47l.49-.19v.52c.03,1.6.55,3.16,1.47,4.45l1.51-4.16,4.01,3.13,1.05-4.29,2.74,3.31.7-3.59,4.31,3.15.67-4.47,2.66,2.91,1.62-3,2.64,4.26-.3.19c-4.68,2.94-12.59,4.89-18.7,4.89Zm-7.41-2.75c2.97,3.63,17.59,2.14,25.42-2.57l-1.6-2.59-1.51,2.8-2.32-2.54-.62,4.15-4.36-3.18-.78,3.97-2.8-3.37-.98,3.98-4.11-3.2-1.61,4.43-.4-.48c-1.15-1.37-1.85-3.07-2-4.85-1.19.72-2.13,2.27-2.33,3.46Zm4.93-7.48l-.45-.16c-2.59-.95-3.93-4.18-3.93-5.35v-.13l.08-.1c1.49-1.82,7.38-7.24,12.24-7.69l.39-.04v5.81l-2.99-1.96-.28,4.33-2.92-2.06-.66,3.78-2.26-2.06c-.23.77.12,2.02.41,3.05.23.84.44,1.56.4,2.1l-.03.48Zm-3.65-5.39c.09.92,1.09,3.3,2.92,4.3-.07-.38-.2-.83-.33-1.3-.4-1.44-.86-3.07-.11-4.05l.24-.31,1.93,1.75.63-3.61,2.8,1.98.27-4.28,2.91,1.91v-3.67c-4.5.67-9.9,5.67-11.27,7.27Z"/>
        </g>
        <g>
          <path class="cls-5" d="m204.21,67.43c.74,3.69.92,6.5,3.69,7.56s8.86,3.16,12.73,9.49c-4.61-1.23-11.07-2.99-11.63,1.23-.53,4.02,1.32,3.9,4.43,4.57,4.06.88,7.93,5.62,8.12,11.95-3.32-1.93-7.94-3.51-10.89-3.51s-3.78.53-4.52,4.04c-1.22,5.8,1.02,6.15,3.78,6.5s8.67,2.99,9.04,12.66c-3.14-2.64-9.43-4.11-13.29-4.74-2.12-.35-2.49.7-2.77,4.39s.18,4.92,3.87,5.98,7.94,3.69,9.04,9.32c-3.51-1.58-9.04-1.05-10.7-.35s-2.56,4.63.95,12.19c7.55-2.43,15.33-4.05,23.23-4.81,17.44-1.75,13.29-13.36,13.29-31.64s38.38-38.67,96.69-71.01c-14.02,34.1,5.17,30.93,15.87,27.07s35.8-13.71,55.36-21.79c-26.94,17.22-40.6,35.5-16.98,43.59-30.26,9.14-44.29,34.1-27.68,49.91-11.32-3.82-27.02,3.39-33.59,13.43,11.81-1.06,34.7,1.69,48.72,5.56,13.35,3.68,35.4-.63,37.48-11.97.11-.57.17-1.15.17-1.74,0-3.95-1.02-6.94-2.58-9.12-3.43-4.79-9.44-5.82-12.74-5.82-4.8,0-9.78,1.93-9.78,5.27s2.95,4.74,8.86,4.74c3.23,0,8.21.53,13.66-4.19,1.56,2.18,2.58,5.16,2.58,9.12,0,.57-.06,1.15-.18,1.71-5.16,2.79-10.94,4.25-16.8,4.26-11.81,0-22.88-4.57-22.88-16.87s13.28-19.33,23.99-19.33c14.76,0,35.43,5.62,35.43,28.12,0,28.47-39.2,41.79-62.45,41.79,3.9,3.12,8.29,6.02,12.99,7.77,16.47,6.15,31,13.71,36.17,25.31-6.27,0-16.61-4.92-21.41-9.84,13.29,15.47-2.83,43.92-1.11,53.43,1.84,10.19,14.39,3.87,14.39,11.78,0,7.03-7.38,5.8-10.15,2.64s-11.64-5.82-16.24-2.64c-4.06,2.81-10.33,4.22-13.1,1.41s-12.92-1.76-17.16,2.11-10.17,4.17-12,1.23c-1.95-3.15-1.45-6.97,6.44-8.29-3.51-3.52-14.19,2.49-16.04-4.18-1.33-4.8,1.48-7.03,10.7-6.33-.92-2.28-7.75-3.34-6.83-8.09s6.26-7.68,12.55-.7c16.79,18.63,24.54,8.26,30.26.18-1.84-4.22.19-7.03,3.69-9.67-1.85-2.99-.74-7.21.55-10.02-2.77-1.58-4.43-8.61-1.48-11.07-2.4,0-6.09-2.64-6.09-7.21-3.29,2-7.51,1.57-10.33-1.05-3.51,1.93-12.73,2.28-16.79-1.93-5.54,2.11-15.32,1.58-17.9-2.46-4.87,1.23-13.84-2.81-15.69-7.21-2.85-.21-5.61-1.05-8.09-2.46-7.38,5.27-17.37,15.47-7.41,23.2s30.63,1.4,31,20.74c-4.8-3.87-13.66-2.81-16.61-6.68-9.96,14.06-24.36,26.89-45.58,32.16,3.14,1.93,8.86,2.11,11.07,1.93,4.6-.37,8.49,3.34,4.98,7.73s-10.7.7-14.95-2.99c-6.11-5.31-10.15-2.29-11.81-1.06s-3.88,1.93-6.83-.88-5.72-.88-7.2.88c-2.4,2.86-7.93-3.69-16.79,4.04-4.26,3.72-14.39-1.05-10.33-6.5-4.24,1.06-11.75-4.82-5.54-10.54,5.72-5.27,16.61,6.85,25.46,3.34-1.99-2.41-6.14-6.88-14.76-7.91-4.43-.53-5.21-5.43-3.14-8.96,2.58-4.39,10.52-1.4,15.87,5.45,4.21,5.4,9.78,5.45,15.5,4.39,4.02-2.55,10.24-2.64,13.01-1.76,0-2.64,4.34-4.92,7.66-4.92-.18-3.51.92-6.68,6.28-7.56.45-.07.91-.14,1.38-.19-3.73.17-7.34-1.31-9.88-4.05-7.39,1.8-15.58-1.67-16.78-8.32-11.68-.81-12.85-12.6-9.97-16.44.23-.32.5-.61.79-.88-3.48,2.61-7.92,3.82-13.42,1.92-5.17,7.02-14.16,10.09-22.54,7.68-2.32,3.51-5.86,6.04-9.94,7.1.34,4.26-.57,9.09-6.2,14.76,1.48-7.73-8.86-10.19-6.64-22.85-.74,9.14-28.6,24.25-33.03,44.29,4.06,1.76,8.49,2.99,11.26,2.46,6.96-1.33,9.23,5.62,7.2,8.44s-7.75,4.22-10.15,1.76-7.38.88-9.78-3.69-9.04-2.99-11.81,0-12-3.87-18.64,2.99c-2.48,2.56-10.89,5.27-15.87,3.87s-7.93-6.33-6.27-8.96c-3.32-2.99-3.37-6.65-.18-9.84-1.2-4.48,2.71-13.34,9.32-9.84,4.15,2.2,18.87,12.57,31.69.7,11.12-10.42,4.64-18.76,11.76-19.86-.87-4.23,1.85-9.49,4.8-10.55-.86-1.75-1.01-3.77-.44-5.63-1.68-.13-3.33-.49-4.91-1.08-5.53,1.57-11.24,2.4-16.99,2.49,0,4.22-5.17,14.41-9.6,19.33-1.48-38.67-38.38-42.53-43.37-73.29-.18,4.57-5.17,9.14-5.72,13s-2.95,6.85-7.38,5.1-5.54-9.14-1.11-10.19,3.6-8.09,6.37-8.96,3.23-3.69,2.12-7.21.55-7.73,1.66-10.37-.55-7.03-4.43-8.61-5.17-5.45-3.69-8.79c-4.06-2.81-2.9-8.89,2.58-10.02,6.83-1.41,6.64,9.31,10.52,10.55-.55-2.11.18-6.15,1.85-8.79-2.21-4.57.55-8.26,4.98-8.26,7.75,0,5.17,12.3,3.32,16.17,2.58-3.52,6.64-7.56,9.78-4.74s2.63,8.68-.74,11.25c-2.77,2.11-8.49,5.45-6.83,9.14,3.32,5.62,5.35,12.3,5.72,20.92,4.61,3.34,7.57,7.21,7.57,10.37,3.04.18,8.87,2.58,9.69,5.98,3.69-.35,9.2.35,10.79,3.6,1.2-.62,4.4-.82,6.34-.65,0-2.75.96-5.4,2.7-7.53-6.27-6.68-6.09-17.22.37-21.44-1.84-4.38-1.11-12.48,4.98-16.7-.13-4.39,1.11-10.19,7.2-13.88-.92-4.75,2.22-11.25,6.09-11.6-.92-4.57-.23-10.21,5.12-12.85-1.26-1.32-1.91-3.11-1.81-4.93-9.39,1.93-13.06,7.4-16.05,12.51-.37-2.11-.92-4.92-2.22-7.03,0,5.45-4.24,7.38-4.43,14.94-3.14-3.16-4.24-8.26-4.06-11.78.15-2.81-4.8-5.45-3.32-10.37,7.38,6.5,22.33-7.73,35.25-3.16-12.73-25.49-21.96-13.18-28.42-8.79s-11.07-2.11-10.33-6.33c-8.67-1.93-19.01-1.58-30.26.53,8.3-10.37,27.86-14.94,42.26-13.89,6.27-11.07,13.84-9.49,21.22-8.44,4.83.69,10.46.71,16.05.44,3.51-9.32,23.99-10.28,26.02-17.66,1.85,1.41.72,6.7-1.12,11.26,5.34-1.52,9.92-3.15,11.45-6.34.92,2.99-.55,11.07-2.58,13.53,2.11-.56,4.28-.8,6.46-.7-6.46,3.52-14.58,8.79-15.87,9.67s-2.03,2.64,1.29,4.39c-3.69.7-14.02,4.22-18.27,1.41"/>
          <path class="cls-2" d="m112.19,281.38c-1.17,0-2.29-.13-3.29-.41-3.02-.85-5.62-3.08-6.62-5.67-.51-1.33-.51-2.58-.01-3.57-1.55-1.47-2.39-3.14-2.44-4.85-.05-1.77.75-3.55,2.31-5.17-.65-2.83.53-7.4,3.35-9.64,1.33-1.06,3.55-2,6.54-.41.38.2.84.47,1.39.78,5.51,3.17,18.42,10.59,29.89-.02,5.87-5.5,6.76-10.39,7.41-13.96.55-3.05.96-5.28,4.18-5.92-.67-4.25,1.95-9.13,4.73-10.44-.7-1.62-.85-3.41-.42-5.12-1.52-.15-3.02-.5-4.45-1.02-5.41,1.52-11,2.35-16.62,2.47-.26,4.4-5.18,14.23-9.68,19.22l-.6.66-.03-.89c-.8-20.92-12.06-31.6-22.95-41.93-8.88-8.42-17.28-16.4-20.04-29.34-.56,1.88-1.69,3.73-2.79,5.52-1.2,1.97-2.34,3.82-2.58,5.5-.36,2.52-1.42,4.41-2.99,5.32-1.36.79-3,.81-4.89.06-2.93-1.16-4.32-4.45-4.14-6.95.15-2.07,1.27-3.5,3.08-3.93,2.29-.55,3.06-2.84,3.8-5.05.59-1.78,1.16-3.46,2.54-3.91,3.17-1.01,2.54-4.66,1.89-6.75-1.2-3.8.74-8.4,1.67-10.62.47-1.12.39-2.65-.21-4.1-.76-1.83-2.23-3.3-4.03-4.04-1.9-.78-3.33-2.16-4.03-3.88-.65-1.62-.64-3.42.03-5.11-1.82-1.38-2.67-3.54-2.23-5.7.49-2.4,2.48-4.24,5.18-4.8,4.38-.9,6.04,2.82,7.51,6.1.78,1.75,1.53,3.43,2.6,4.16-.29-2.33.51-5.83,1.92-8.17-1-2.18-.98-4.28.06-5.95,1.05-1.68,3-2.65,5.33-2.65,1.99,0,3.48.77,4.44,2.28,1.95,3.09,1.17,8.6.05,12.2,1.69-1.95,3.79-3.77,5.87-3.98,1.1-.12,2.1.23,2.98,1.01,1.49,1.34,2.3,3.43,2.2,5.73-.1,2.47-1.21,4.74-2.96,6.08-.38.29-.81.6-1.28.93-2.85,2.05-6.76,4.85-5.44,7.77,3.49,5.9,5.37,12.74,5.74,20.87,4.58,3.35,7.37,7.14,7.56,10.23,2.96.31,8.5,2.51,9.6,5.93,3.25-.25,8.77.24,10.69,3.52,1.4-.53,4.1-.67,5.82-.57.09-2.58,1-5.08,2.58-7.12-3.3-3.64-4.93-8.54-4.37-13.19.43-3.6,2.12-6.57,4.77-8.41-1.64-4.29-1.15-12.31,5.06-16.74-.09-4.3,1.11-10.1,7.16-13.88-.48-2.94.45-6.57,2.36-9.11,1.08-1.44,2.38-2.36,3.7-2.61-1.03-5.69.81-10.36,4.97-12.65-1.02-1.23-1.59-2.78-1.6-4.38-8.68,1.93-12.22,6.89-15.36,12.24l-.5.85-.17-.97c-.35-2-.79-4.05-1.58-5.79-.25,1.96-1.05,3.5-1.88,5.11-1.17,2.25-2.37,4.58-2.47,8.54l-.02.85-.6-.6c-3.15-3.17-4.36-8.34-4.17-12.05.05-.99-.64-2.01-1.44-3.18-1.25-1.84-2.81-4.13-1.87-7.27l.16-.54.42.37c3.53,3.11,8.94,1.24,15.2-.93,6-2.08,12.76-4.42,19.1-2.57-4.48-8.74-8.82-13.48-13.27-14.47-4.5-1-8.32,2.01-11.68,4.67-.89.7-1.73,1.37-2.54,1.92-2.66,1.81-5.36,2.02-7.59.58-2.24-1.45-3.64-4.37-3.35-6.92-8.21-1.77-18.23-1.57-29.79.6l-.96.18.61-.76c8.37-10.46,28.01-15.02,42.34-14.04,6.13-10.65,13.49-9.58,20.62-8.54l.85.12c4.18.6,9.33.74,15.75.44,2-4.88,8.35-7.41,14.49-9.86,5.41-2.16,10.51-4.2,11.43-7.54l.14-.52.43.32c1.99,1.52.97,6.55-.74,11,4.61-1.34,9.08-2.95,10.52-5.95l.4-.83.27.88c.9,2.9-.32,9.93-2.11,13.07,1.85-.41,3.75-.58,5.65-.49l1.3.06-1.14.62c-6.22,3.39-14.24,8.56-15.84,9.65-.29.2-.97.75-.93,1.49.04.76.8,1.55,2.19,2.28l.91.48-.66.12c.06.31.12.61.17.91.56,3,.97,5.16,3.22,6.02l.33.13c2.85,1.08,8.79,3.32,12.58,9.52l.47.77-.99-.26c-3.39-.9-8.03-2.14-10.05-.79-.57.38-.9.96-1.01,1.75-.43,3.26.64,3.47,3.2,3.98.3.06.62.12.95.19,3.92.85,8.2,5.45,8.4,12.3l.02.65-.56-.33c-3.45-2.01-7.95-3.47-10.71-3.47s-3.45.35-4.17,3.75c-.5,2.37-.44,3.94.19,4.82.65.92,1.93,1.08,3.29,1.25.91.12,8.92,1.46,9.36,13l.03.82-.62-.53c-3.33-2.8-10.28-4.2-13.11-4.67-.69-.11-1.13-.06-1.42.16-.57.45-.76,1.72-.93,3.9-.27,3.57.13,4.61,3.61,5.6,2.93.84,8.04,3.2,9.3,9.59l.14.69-.64-.29c-3.53-1.59-8.97-.96-10.41-.35-.39.16-.71.55-.92,1.12-.38.99-.95,3.97,1.93,10.3,7.46-2.38,15.2-3.97,23-4.72,14.08-1.41,13.75-9.31,13.2-22.38-.12-2.81-.24-5.72-.24-8.89,0-17.66,35.42-37.28,89.04-66.98l8.74-4.84-.39.95c-5.55,13.5-6.41,22.38-2.56,26.41,3.92,4.1,11.94,2.36,17.97.18,10.1-3.65,34.75-13.28,55.34-21.79l.33.64c-19.62,12.54-29.88,24.02-28.88,32.31.55,4.56,4.53,8.13,11.83,10.63l1.06.36-1.07.32c-17.65,5.33-30.96,16.74-33.89,29.06-1.8,7.56.4,14.57,6.36,20.24l-.36.6c-11.23-3.79-26.3,3.49-32.76,12.66,11.74-.86,33.91,1.72,48.1,5.63,9.7,2.67,23.27,1.02,30.9-3.77,3.23-2.03,5.24-4.45,5.97-7.21-5.03,2.57-10.64,3.94-16.29,3.95-14.55,0-23.24-6.44-23.24-17.23,0-12.85,14.14-19.69,24.35-19.69,5.23,0,15.23.74,23.44,5.68,8.2,4.93,12.35,12.6,12.35,22.81,0,16.19-12.34,26.28-22.69,31.89-13.49,7.32-28.82,10.08-39.08,10.25,4.28,3.33,8.24,5.65,12.09,7.08,13.97,5.22,30.73,12.84,36.37,25.5l.23.51h-.56c-5.26,0-13.74-3.54-19.2-7.77,6.38,10.5,2.42,25.44-.53,36.6-1.6,6.05-2.98,11.27-2.43,14.33.93,5.13,4.6,5.86,8.15,6.56,3.21.64,6.25,1.24,6.25,5.28,0,3.38-1.61,4.69-2.95,5.19-2.7,1.01-6.16-.42-7.83-2.32-2.77-3.16-11.43-5.58-15.76-2.58-4.26,2.95-10.66,4.31-13.56,1.36-2.51-2.55-12.39-1.76-16.66,2.12-2.63,2.39-6.07,3.63-8.99,3.22-1.61-.22-2.87-.96-3.56-2.07-1.08-1.74-1.31-3.41-.66-4.85.83-1.85,3.03-3.14,6.54-3.84-1.48-.86-3.83-.66-6.29-.45-3.79.32-8.1.69-9.23-3.43-.57-2.06-.39-3.62.54-4.75,1.43-1.74,4.56-2.4,9.8-2.08-.49-.51-1.31-1.01-2.17-1.52-2.2-1.32-4.94-2.95-4.3-6.22.48-2.47,2.08-4.36,4.18-4.95,1.59-.44,4.87-.5,8.99,4.07,6.51,7.23,12.07,10.61,16.99,10.31,5.72-.34,9.68-5.83,12.59-9.94-1.89-4.56.71-7.47,3.63-9.72-1.83-3.35-.33-7.75.57-9.79-1.47-1.05-2.67-3.58-2.9-6.19-.17-1.95.23-3.63,1.1-4.73-2.46-.46-5.37-2.98-5.65-6.89-3.26,1.69-7.28,1.21-10.05-1.22-3.63,1.81-12.6,2.19-16.83-1.95-5.82,2.11-15.19,1.37-17.97-2.47-5.01,1.06-13.74-2.95-15.77-7.27-2.73-.23-5.43-1.05-7.82-2.38-3.49,2.52-11.13,8.76-11.26,15.17-.05,2.73,1.31,5.19,4.05,7.32,3.45,2.68,8.32,3.66,13.03,4.61,8.78,1.77,17.86,3.6,18.11,16.41l.02.77-.6-.49c-2.25-1.81-5.44-2.52-8.52-3.2-3.16-.7-6.15-1.35-7.83-3.17-11.71,16.36-26.71,27.02-44.61,31.69,3.1,1.44,7.98,1.61,10.05,1.45,2.72-.22,5.23.93,6.25,2.85.88,1.65.54,3.6-.96,5.47-1,1.25-2.33,1.96-3.97,2.11-3.8.35-8.43-2.38-11.5-5.05-5.87-5.1-9.7-2.26-11.34-1.05-2.42,1.79-4.8,1.49-7.31-.89-.98-.93-2-1.38-3.04-1.32-1.65.09-2.98,1.4-3.63,2.17-1.03,1.22-2.49.96-4.34.62-2.98-.54-7.07-1.28-12.49,3.46-2.74,2.39-7.66,1.52-10.24-.87-1.71-1.58-2.08-3.57-1.07-5.43-2.52.17-5.57-1.52-6.87-3.94-.76-1.41-1.54-4.25,1.83-7.35,3.07-2.83,7.47-.96,12.14,1.03,4.36,1.86,8.86,3.77,12.97,2.42-2.42-2.83-6.5-6.47-14.2-7.39-2.31-.27-3.42-1.6-3.95-2.67-.97-1.95-.75-4.63.54-6.84.79-1.35,2.1-2.12,3.78-2.23,3.82-.24,8.92,2.82,12.68,7.64,4.21,5.4,9.73,5.25,15.08,4.27,3.88-2.43,9.81-2.64,12.82-1.88.43-2.54,4.27-4.66,7.6-4.81-.09-3.83,1.58-6.21,5.1-7.23-2.68-.49-5.15-1.81-7.06-3.81-4.32,1-8.92.27-12.34-1.95-2.48-1.61-4.07-3.83-4.62-6.43-4.81-.41-8.44-2.79-10.23-6.7-1.62-3.54-1.33-7.3-.21-9.5-3.55,2-7.49,2.3-11.72.89-5.2,6.89-14.19,9.95-22.51,7.67-2.32,3.39-5.75,5.85-9.71,6.95.25,3.71-.33,8.69-6.32,14.74l-.83.84.22-1.16c.62-3.26-.96-5.55-2.79-8.21-2.02-2.93-4.27-6.19-4.17-11.46-1.83,3.34-5.89,7.22-10.71,11.84-8.29,7.93-18.58,17.78-21.23,29.13,4.51,1.92,8.43,2.77,10.77,2.32,3.14-.6,5.8.4,7.29,2.75,1.3,2.04,1.41,4.67.27,6.26-1.23,1.7-3.75,2.97-6.28,3.15-1.86.14-3.43-.34-4.42-1.35-.91-.93-2.31-.94-3.78-.94-2.14,0-4.57,0-6.06-2.84-.98-1.87-2.63-2.45-3.84-2.61-2.53-.33-5.63.8-7.38,2.69-1.23,1.33-3.49.94-6.11.49-3.86-.67-8.66-1.49-12.53,2.5-2.03,2.1-7.95,4.37-12.94,4.37Zm-3.26-29.84c-1.07,0-2.08.36-2.99,1.09-2.59,2.06-3.74,6.5-3.05,9.09l.05.2-.15.15c-1.51,1.52-2.28,3.17-2.24,4.79.04,1.58.88,3.15,2.41,4.53l.23.2-.16.26c-.52.82-.54,1.96-.07,3.19.92,2.39,3.33,4.44,6.14,5.24,4.96,1.4,13.18-1.36,15.51-3.77,4.14-4.27,9.15-3.41,13.18-2.71,2.51.43,4.49.77,5.46-.27,1.9-2.05,5.27-3.28,8.01-2.92,1.98.26,3.49,1.3,4.38,2.99,1.28,2.44,3.29,2.45,5.42,2.45,1.56,0,3.18,0,4.3,1.16.83.86,2.2,1.26,3.85,1.14,2.29-.17,4.66-1.34,5.75-2.86.96-1.33.84-3.67-.29-5.45-.78-1.22-2.66-3.16-6.55-2.42-2.53.48-6.71-.42-11.47-2.48l-.27-.12.06-.29c2.58-11.69,13.07-21.72,21.5-29.78,5.64-5.4,10.56-10.1,11.41-13.73.03-.25.07-.5.12-.76l.72.09c-.02.26-.06.53-.13.81-.89,6.44,1.63,10.09,3.86,13.33,1.65,2.39,3.21,4.66,3.04,7.65,5.24-5.65,5.62-10.26,5.34-13.69l-.02-.3.29-.08c3.99-1.04,7.45-3.51,9.73-6.95l.15-.22.26.07c8.19,2.35,17.09-.68,22.14-7.55l.16-.21.25.09c4.81,1.67,9.21,1.04,13.08-1.87l.46.55c-.27.25-.52.53-.74.83-1.4,1.86-1.85,5.94-.2,9.56,1.71,3.74,5.22,5.98,9.9,6.3l.28.02.05.28c.46,2.52,1.96,4.67,4.36,6.23,3.31,2.15,7.79,2.83,11.98,1.81l.21-.05.14.16c2.47,2.67,5.96,4.1,9.59,3.93l.05.72c-.47.04-.93.11-1.36.18-4.35.71-6.19,2.93-5.97,7.18l.02.38h-.38c-3.19,0-7.3,2.21-7.3,4.56v.49l-.47-.15c-2.73-.86-8.82-.75-12.71,1.72l-.13.05c-5.33.98-11.37,1.21-15.85-4.53-3.57-4.57-8.53-7.6-12.07-7.36-1.45.1-2.53.73-3.21,1.87-1.18,2-1.38,4.41-.52,6.15.64,1.3,1.82,2.09,3.39,2.27,8.32.99,12.54,5.06,15,8.04l.32.38-.46.18c-4.5,1.79-9.54-.36-13.99-2.25-4.63-1.97-8.63-3.67-11.36-1.16-2.23,2.05-2.82,4.35-1.68,6.47,1.28,2.39,4.57,4.03,6.89,3.46l.98-.24-.6.81c-1.79,2.4-.43,4.27.54,5.16,2.3,2.13,6.85,2.96,9.27.85,5.69-4.97,10.15-4.16,13.1-3.62,1.9.34,2.93.48,3.65-.38.72-.86,2.22-2.32,4.14-2.42,1.25-.07,2.45.44,3.58,1.52,2.91,2.78,4.93,1.91,6.36.85,1.64-1.22,5.96-4.41,12.26,1.07,2.82,2.45,7.38,5.2,10.96,4.87,1.43-.13,2.6-.75,3.47-1.84,1.3-1.64,1.62-3.3.88-4.68-.89-1.67-3.12-2.67-5.56-2.47-1.85.15-7.9.1-11.29-1.99l-.73-.45.83-.21c18.26-4.54,33.53-15.31,45.37-32.02l.28-.4.3.39c1.45,1.89,4.5,2.57,7.73,3.28,2.9.64,5.89,1.3,8.21,2.88-.56-11.55-8.79-13.21-17.5-14.97-4.79-.97-9.75-1.97-13.33-4.75-2.93-2.27-4.39-4.93-4.33-7.9.14-6.85,8.26-13.38,11.75-15.88l.19-.13.2.11c2.42,1.38,5.16,2.21,7.94,2.41l.22.02.09.2c1.77,4.22,10.47,8.21,15.26,6.99l.25-.06.14.22c2.37,3.72,11.85,4.46,17.47,2.32l.22-.08.17.17c3.95,4.11,13.1,3.66,16.36,1.87l.23-.13.19.18c2.69,2.5,6.76,2.92,9.9,1.01l.55-.33v.64c0,4.56,3.67,6.84,5.73,6.84h1l-.77.64c-1.07.89-1.58,2.6-1.39,4.68.23,2.56,1.41,5,2.82,5.81l.29.16-.14.3c-.84,1.83-2.58,6.43-.57,9.68l.17.28-.26.2c-4.07,3.06-5.11,5.74-3.58,9.23l.08.19-.12.17c-3,4.24-7.11,10.04-13.25,10.41-5.15.3-10.9-3.15-17.57-10.55-2.86-3.17-5.8-4.54-8.26-3.86-1.83.51-3.24,2.19-3.67,4.39-.54,2.77,1.85,4.2,3.96,5.46,1.32.79,2.46,1.47,2.84,2.42l.22.54-.58-.04c-5.36-.41-8.61.17-9.92,1.77-.77.94-.91,2.28-.4,4.1.98,3.53,4.62,3.23,8.47,2.9,3.01-.26,5.85-.5,7.47,1.13l.49.5-.69.12c-3.67.62-6.03,1.85-6.81,3.58-.69,1.52-.05,3.11.61,4.17.57.92,1.65,1.54,3.04,1.73,2.67.37,5.97-.82,8.4-3.04,4.28-3.9,14.67-5.13,17.66-2.1,2.56,2.6,8.6,1.35,12.64-1.45,4.76-3.3,13.79-.65,16.72,2.69,1.51,1.73,4.7,3,7.03,2.12,1.63-.61,2.49-2.17,2.49-4.52,0-3.44-2.5-3.94-5.67-4.57-3.61-.72-7.7-1.53-8.72-7.14-.58-3.22.82-8.52,2.44-14.65,3.35-12.65,7.52-28.4-1.25-38.61l.53-.49c4.73,4.85,14.52,9.44,20.58,9.72-5.76-12.11-22.08-19.5-35.72-24.6-4.16-1.55-8.44-4.11-13.09-7.83l-.81-.64h1.03c10.15,0,25.94-2.67,39.77-10.17,10.18-5.52,22.32-15.42,22.32-31.25,0-25.76-26.84-27.76-35.07-27.76-9.91,0-23.63,6.59-23.63,18.97,0,15.32,17.24,16.51,22.52,16.51,5.73-.01,11.42-1.44,16.48-4.14.08-.46.13-.92.14-1.39,0-.03,0-.06,0-.09,0-3.42-.77-6.31-2.29-8.58-4.96,4.14-9.61,4.07-12.7,4.03-.31,0-.61,0-.89,0-3.96,0-9.22-.53-9.22-5.11,0-3.66,5.22-5.63,10.14-5.63,2.01,0,8.79.41,12.8,5.66h0s.23.32.23.32c1.76,2.45,2.65,5.59,2.65,9.33,0,.03,0,.06,0,.1,0,.57-.06,1.15-.17,1.71-.6,3.26-2.77,6.09-6.46,8.4-7.78,4.88-21.6,6.57-31.47,3.85-14.43-3.98-37.14-6.57-48.6-5.54l-.74.07.41-.62c6.1-9.31,21.03-16.94,32.64-13.98-5.32-5.63-7.29-12.65-5.56-19.93,2.94-12.33,15.97-23.73,33.35-29.27-6.93-2.58-10.73-6.23-11.28-10.86-.97-8.11,8.23-19.02,26-30.91-18.22,7.47-41.19,16.5-51.84,20.34-6.24,2.25-14.55,4.02-18.74-.36-3.97-4.15-3.29-12.97,2.03-26.23l-6.94,3.85c-53.4,29.57-88.67,49.11-88.67,66.35,0,3.16.12,6.06.24,8.86.55,13.04.91,21.65-13.85,23.13-7.85.76-15.64,2.37-23.15,4.79l-.3.1-.13-.29c-2.21-4.77-2.97-8.83-2.08-11.15.29-.75.75-1.28,1.32-1.52,1.75-.74,6.79-1.19,10.34.09-1.4-5.52-5.97-7.61-8.64-8.37-3.89-1.11-4.42-2.49-4.14-6.35.19-2.5.41-3.8,1.2-4.42.46-.36,1.07-.46,1.98-.31,2.72.45,9.18,1.75,12.82,4.33-.73-10.22-7.86-11.42-8.68-11.53-1.45-.18-2.95-.37-3.79-1.55-.76-1.06-.85-2.78-.31-5.39.79-3.76,1.8-4.33,4.87-4.33,2.71,0,7.03,1.34,10.49,3.24-.43-6.12-4.27-10.2-7.8-10.96-.33-.07-.64-.13-.93-.19-2.49-.49-4.29-.85-3.78-4.78.13-1,.58-1.76,1.32-2.26,2.13-1.43,6.29-.46,9.85.48-3.67-5.4-9.06-7.43-11.72-8.44l-.33-.13c-2.63-1-3.09-3.46-3.67-6.56-.06-.29-.11-.6-.17-.91-.66.14-1.48.35-2.42.58-4.86,1.22-12.21,3.06-15.77.7l.4-.6c3.29,2.18,10.74.31,15.19-.8.7-.18,1.34-.34,1.9-.46-1.12-.74-1.71-1.55-1.76-2.4-.04-.79.41-1.56,1.25-2.13,1.5-1.02,8.66-5.65,14.7-9.02-1.69.03-3.36.27-4.99.71l-1.09.29.72-.87c1.76-2.13,3.17-8.9,2.7-12.32-2.01,2.88-6.61,4.4-11.19,5.7l-.71.2.28-.69c1.93-4.79,2.54-8.88,1.6-10.43-1.39,3.33-6.39,5.32-11.65,7.42-6.09,2.43-12.39,4.94-14.17,9.67l-.08.22h-.24c-6.57.33-11.85.18-16.12-.43l-.86-.12c-7.25-1.05-14.09-2.05-20,8.38l-.11.2-.23-.02c-13.82-1.01-32.71,3.21-41.31,12.99,11.39-2.04,21.29-2.16,29.42-.34l.34.08-.06.34c-.41,2.32.9,5.19,2.98,6.53,1.97,1.27,4.38,1.07,6.79-.57.79-.54,1.62-1.19,2.5-1.89,3.32-2.62,7.45-5.89,12.29-4.81,4.81,1.07,9.43,6.18,14.15,15.62l.4.8-.84-.3c-6.34-2.24-13.3.17-19.45,2.3-6.22,2.16-11.63,4.03-15.46,1.16-.53,2.54.76,4.44,1.91,6.12.84,1.23,1.63,2.39,1.56,3.63-.17,3.31.82,7.83,3.38,10.87.25-3.61,1.44-5.92,2.51-7.98,1.01-1.95,1.88-3.63,1.88-6.07v-1.28l.67,1.09c1.09,1.78,1.67,3.99,2.09,6.2,3.07-5.08,6.98-10.03,15.79-11.85l.46-.1-.03.47c-.1,1.72.52,3.42,1.71,4.66l.34.36-.44.22c-6.11,3.01-5.48,9.71-4.93,12.45l.08.4-.4.04c-1.24.11-2.51.96-3.58,2.38-1.82,2.43-2.72,6.04-2.19,8.79l.05.25-.22.13c-6.03,3.66-7.15,9.39-7.02,13.56v.2s-.16.11-.16.11c-5.9,4.09-6.61,12.07-4.85,16.26l.12.28-.25.16c-2.61,1.71-4.28,4.57-4.7,8.06-.54,4.53,1.1,9.33,4.39,12.84l.22.23-.2.25c-1.68,2.05-2.61,4.64-2.62,7.3v.39s-.39-.04-.39-.04c-1.95-.18-5.06.05-6.14.61l-.33.17-.16-.33c-1.41-2.89-6.4-3.79-10.44-3.4l-.31.03-.07-.31c-.78-3.24-6.5-5.53-9.36-5.7l-.34-.02v-.34c0-2.95-2.77-6.71-7.42-10.08l-.14-.1v-.17c-.36-8.09-2.21-14.87-5.68-20.75-1.57-3.49,2.61-6.5,5.66-8.69.46-.33.88-.64,1.26-.92,1.59-1.21,2.59-3.28,2.68-5.53.08-2.08-.63-3.96-1.96-5.16-.73-.65-1.52-.93-2.42-.83-2.6.27-5.39,3.58-6.82,5.52l-.62-.37c1.47-3.07,3-10.28.83-13.71-.81-1.29-2.1-1.95-3.83-1.95-2.08,0-3.8.84-4.72,2.31-.94,1.49-.92,3.42.06,5.43l.09.18-.11.17c-1.68,2.66-2.3,6.62-1.8,8.5l.17.64-.63-.2c-1.71-.54-2.64-2.64-3.63-4.85-1.42-3.18-2.89-6.47-6.7-5.68-2.45.51-4.18,2.09-4.62,4.23-.4,1.96.43,3.93,2.17,5.13l.25.17-.12.27c-.7,1.59-.75,3.3-.14,4.82.63,1.57,1.89,2.77,3.63,3.49,1.98.81,3.59,2.42,4.42,4.43.68,1.65.76,3.34.2,4.66-.9,2.13-2.77,6.58-1.65,10.12,1.26,3.99.4,6.78-2.36,7.66-1.04.33-1.52,1.77-2.08,3.44-.76,2.29-1.63,4.89-4.32,5.53-1.48.35-2.4,1.55-2.53,3.28-.16,2.28,1.17,5.23,3.68,6.22,1.67.66,3.1.66,4.26-.02,1.37-.79,2.31-2.5,2.63-4.8.26-1.83,1.44-3.75,2.68-5.78,1.44-2.36,2.94-4.79,3.03-7.19l.72-.04c2.25,13.88,10.96,22.15,20.19,30.9,10.84,10.28,22.04,20.91,23.14,41.52,4.29-5.13,8.91-14.6,8.91-18.41v-.36h.36c5.71-.09,11.4-.93,16.9-2.48l.11-.03.11.04c1.55.57,3.16.93,4.81,1.05l.45.04-.13.43c-.55,1.78-.41,3.69.42,5.37l.18.36-.38.14c-2.7.97-5.4,6.05-4.57,10.13l.08.37-.38.06c-3.05.47-3.39,2.33-3.95,5.4-.67,3.67-1.58,8.7-7.63,14.36-11.86,10.97-25.09,3.37-30.74.12-.53-.31-.99-.57-1.37-.77-.95-.5-1.88-.75-2.76-.75Zm294.39-120.83c-4.63,0-9.42,1.84-9.42,4.91s2.62,4.38,8.5,4.38c.29,0,.59,0,.9,0,3.17.04,7.5.1,12.27-3.9-3.8-5.01-10.31-5.41-12.25-5.41Z"/>
        </g>
        <g>
          <path class="cls-5" d="m63.97,114.97c4.89-3.34,11.58-.87,13.01,4.04.92,3.16-4.68,5.51-5.17,2.55-.64-3.95-3.32-6.42-7.84-6.59Zm19.18-10.22c5.69-1.86,11.35,2.33,11.25,7.43-.07,3.28-6.15,4-5.72,1.03.57-3.97-1.25-7.05-5.53-8.46Zm21.16,9c5.43,2.47,6.38,9.24,2.55,12.81-2.47,2.29-7.33-1.25-4.83-3.09,3.33-2.44,4.3-5.86,2.29-9.72Zm-43.22,71.04c4.74,3.53,11.53,1.34,13.18-3.51,1.06-3.12-4.43-5.7-5.05-2.76-.82,3.92-3.6,6.27-8.13,6.27Zm33.33,71.07c1.98-5.41,8.94-7.06,13.08-3.82,2.66,2.08-.5,7.08-2.69,4.92-2.92-2.88-6.59-3.43-10.4-1.09h0Zm-6.23,14.55c.33-5.72,8.38-9.32,13.3-7.3,3.17,1.3,1.58,6.93-1.15,5.43-3.64-2-9.18-1.38-12.15,1.87h0Zm8.75,13.5c-2.06-5.38,2.22-10.86,7.58-10.85,3.45,0,4.32,5.78,1.19,5.42-4.17-.47-7.38,1.33-8.77,5.43Zm86.79-4.81c.71-5.69-4.78-10.08-9.99-8.9-3.35.76-2.81,6.57.15,5.54,3.95-1.37,7.5-.32,9.85,3.36h0Zm33.29,1.82c-1.24-5.61,3.83-10.44,9.13-9.71,3.41.47,3.41,6.3.36,5.53-4.06-1.03-7.5.31-9.49,4.18h0Zm83.02-1.37c.46-5.72-5.22-9.88-10.38-8.5-3.32.89-2.52,6.67.39,5.53,3.89-1.53,7.48-.62,9.98,2.97Zm-92.87-10.53c-.88-5.67,5.02-10.55,10.27-9.51,3.38.67,2.46,6.83-.53,5.88-3.99-1.26-7.51-.12-9.74,3.63h0Zm7.73-16.31c.33-5.72,7.14-9.37,12.06-7.36,3.17,1.3.97,7.16-1.76,5.66-3.64-2-7.33-1.55-10.31,1.69h0Zm127.05,31.2c-1.24-5.61,3.83-10.44,9.13-9.71,3.41.47,3.41,6.31.36,5.53-4.06-1.03-7.5.31-9.5,4.18h0Zm82.46-2.68c1.28-5.6-3.75-10.47-9.06-9.77-3.41.45-3.45,6.28-.41,5.53,4.07-1,7.5.36,9.46,4.24h0Zm-93.08-10.31c-.87-5.67,4.5-10.19,9.74-9.15,3.37.67,2.99,6.49,0,5.54-3.98-1.27-7.51-.14-9.75,3.61h0Zm3.07-15.48c.11-5.73,6.19-9.36,11.18-7.52,3.21,1.19,1.84,6.87-.94,5.47-3.71-1.87-7.38-1.3-10.23,2.05h0Z"/>
          <path class="cls-2" d="m96.96,284.98l-.36-.93c-.98-2.56-.64-5.33.92-7.6,1.61-2.34,4.22-3.74,6.99-3.74h0c1.26,0,2.35.7,2.99,1.91.62,1.18.65,2.59.08,3.44-.41.6-1.09.89-1.92.79-4.12-.47-7.1,1.38-8.39,5.18l-.32.95Zm7.55-11.55c-2.53,0-4.92,1.28-6.39,3.43-1.23,1.79-1.63,3.92-1.14,5.97,1.57-3.5,4.65-5.16,8.77-4.7.56.07.98-.1,1.24-.48.43-.62.37-1.76-.12-2.7-.51-.97-1.37-1.53-2.35-1.53h0Zm237.3,11.54l-.22-.98c-.59-2.66.16-5.35,2.04-7.38,1.95-2.11,4.76-3.14,7.49-2.76,1.23.17,2.2.99,2.66,2.26.46,1.26.29,2.67-.41,3.45-.5.55-1.22.74-2.02.53-4.01-1.02-7.23.4-9.08,3.99l-.46.89Zm8.19-10.48c-2.17,0-4.29.93-5.83,2.6-1.48,1.61-2.19,3.65-2.02,5.74,2.08-3.25,5.37-4.47,9.38-3.45.55.14.99.03,1.31-.32.52-.57.63-1.72.27-2.71-.37-1.01-1.12-1.66-2.08-1.79-.34-.05-.69-.07-1.03-.07Zm74.53,7.79l-.45-.9c-1.82-3.6-5.04-5.04-9.06-4.05-.81.2-1.53,0-2.02-.55-.69-.78-.85-2.19-.39-3.45.47-1.26,1.44-2.08,2.68-2.24,2.75-.36,5.54.69,7.47,2.81,1.87,2.05,2.59,4.75,1.99,7.4l-.22.98Zm-7.09-5.98c2.84,0,5.18,1.32,6.77,3.85.19-2.09-.5-4.14-1.98-5.75-1.77-1.95-4.33-2.91-6.84-2.58-.96.13-1.72.77-2.09,1.78-.37,1-.27,2.14.25,2.71.31.35.75.46,1.31.33.9-.22,1.77-.33,2.59-.33Zm-200.56,5.68l-.22-.98c-.59-2.66.16-5.35,2.04-7.38,1.95-2.11,4.75-3.14,7.49-2.76,1.23.17,2.2.99,2.66,2.26.46,1.26.29,2.67-.41,3.45-.5.55-1.22.74-2.03.53-4.01-1.02-7.23.4-9.08,3.99l-.46.89Zm8.19-10.48c-2.17,0-4.29.93-5.84,2.6-1.48,1.61-2.19,3.65-2.02,5.74,2.08-3.25,5.37-4.47,9.38-3.45.55.14.99.03,1.31-.32.52-.57.63-1.72.27-2.72-.37-1-1.12-1.66-2.08-1.79-.34-.05-.69-.07-1.03-.07Zm75.24,9.08l-.58-.83c-2.33-3.34-5.72-4.34-9.56-2.84-.78.31-1.52.2-2.08-.28-.8-.69-1.16-2.09-.86-3.4.29-1.29,1.14-2.21,2.32-2.53,2.67-.72,5.58-.04,7.8,1.81,2.14,1.79,3.25,4.36,3.03,7.07l-.08,1Zm-6.75-5.08c2.36,0,4.45,1.02,6.12,3-.11-2.09-1.1-4.03-2.79-5.44-2.04-1.7-4.71-2.32-7.15-1.66-1.25.34-1.67,1.39-1.81,1.99-.24,1.05.02,2.18.62,2.69.37.31.82.37,1.35.16,1.26-.5,2.49-.74,3.64-.74Zm-109.61,4.64l-.54-.85c-2.18-3.43-5.52-4.57-9.42-3.22-.79.27-1.52.14-2.07-.37-.77-.72-1.06-2.13-.71-3.42.35-1.28,1.24-2.18,2.44-2.45,2.7-.61,5.59.18,7.72,2.12,2.06,1.87,3.05,4.49,2.71,7.18l-.13,1Zm-6.86-5.35c2.49,0,4.66,1.1,6.32,3.25-.02-2.09-.92-4.07-2.54-5.54-1.96-1.78-4.6-2.51-7.07-1.95-1.27.29-1.73,1.33-1.9,1.93-.28,1.03-.07,2.17.51,2.71.35.33.8.4,1.34.21,1.16-.4,2.28-.6,3.34-.6Zm154.02-2.84l-.15-.99c-.41-2.68.5-5.33,2.51-7.25,2.08-1.99,4.94-2.85,7.66-2.31,1.21.24,2.12,1.11,2.5,2.39.38,1.29.13,2.7-.62,3.43-.53.52-1.26.67-2.06.42-3.93-1.25-7.25-.03-9.33,3.45l-.52.86Zm8.41-9.99c-2.02,0-4.01.8-5.55,2.27-1.58,1.51-2.42,3.52-2.38,5.61,2.28-3.12,5.65-4.14,9.59-2.89.54.17.99.09,1.33-.24.56-.55.74-1.69.44-2.71-.3-1.01-1.01-1.7-1.95-1.89-.49-.1-.98-.14-1.47-.14Zm-251.76,9.43l.06-1.01c.14-2.43,1.66-4.73,4.18-6.32,3.02-1.9,6.88-2.43,9.62-1.3,1.12.46,1.83,1.46,1.96,2.76.13,1.35-.41,2.71-1.31,3.3-.63.42-1.38.42-2.11.02-3.63-1.99-8.99-1.17-11.71,1.8l-.69.75Zm10.64-8.5c-1.99,0-4.17.62-6.01,1.78-1.96,1.23-3.26,2.92-3.69,4.74,3.11-2.62,8.17-3.2,11.81-1.2.5.27.96.28,1.36,0,.68-.45,1.09-1.55.98-2.63-.06-.6-.33-1.68-1.51-2.16-.88-.36-1.89-.53-2.95-.53Zm108.56,7.17l-.16-.99c-.41-2.64.56-5.31,2.67-7.34,2.22-2.13,5.29-3.13,8.02-2.59,1.11.22,1.92.98,2.27,2.15.42,1.4.08,3.05-.81,3.93-.59.58-1.36.76-2.17.5-3.94-1.24-7.25-.01-9.32,3.47l-.51.86Zm9.04-10.34c-2.12,0-4.33.91-6.02,2.53-1.66,1.6-2.56,3.63-2.54,5.69,2.27-3.12,5.64-4.15,9.57-2.9.56.18,1.04.07,1.44-.33.7-.69.96-2.07.62-3.21-.16-.52-.59-1.43-1.72-1.65-.45-.09-.9-.13-1.36-.13Zm-110.01-1.89c-.52,0-1.01-.22-1.43-.63-2.88-2.84-6.41-3.22-9.95-1.04l-.89.54.36-.98c.95-2.6,3.09-4.55,5.87-5.35,2.77-.79,5.67-.28,7.78,1.36.92.72,1.32,1.85,1.09,3.1-.24,1.35-1.18,2.57-2.23,2.9-.2.06-.4.09-.59.09Zm-6.87-3.81c2.12,0,4.15.89,5.94,2.66.4.39.83.51,1.3.36.8-.25,1.54-1.26,1.74-2.34.1-.57.13-1.65-.83-2.4-1.92-1.5-4.59-1.96-7.13-1.24-2.19.63-3.95,2.04-4.96,3.94,1.33-.66,2.65-.99,3.94-.99Zm234.89,2.41l.02-1.01c.05-2.72,1.41-5.19,3.73-6.77,2.39-1.63,5.35-2.03,7.93-1.08,1.14.42,1.89,1.4,2.06,2.7.18,1.34-.31,2.71-1.18,3.34-.61.44-1.36.47-2.11.1-3.67-1.85-7.15-1.15-9.8,1.96l-.66.77Zm8.82-8.65c-1.61,0-3.24.5-4.66,1.46-1.83,1.25-3.01,3.09-3.33,5.17,2.78-2.72,6.28-3.21,9.95-1.36.51.26.97.24,1.36-.04.66-.47,1.03-1.58.89-2.65-.08-.6-.39-1.67-1.59-2.12-.84-.31-1.73-.46-2.62-.46Zm-128.36,5.91l.06-1.01c.15-2.67,1.68-5.11,4.19-6.69,2.62-1.65,5.83-2.03,8.38-.98,1.02.42,1.65,1.3,1.77,2.48.14,1.44-.55,3.05-1.6,3.75-.7.46-1.49.49-2.24.08-3.59-1.97-7.1-1.4-9.87,1.62l-.69.75Zm9.54-8.54c-1.66,0-3.39.5-4.91,1.46-1.98,1.25-3.29,3.06-3.71,5.09,2.88-2.61,6.39-2.98,9.98-1.01.51.28,1.01.26,1.49-.05.83-.55,1.39-1.9,1.28-3.07-.06-.64-.34-1.48-1.32-1.89-.87-.36-1.82-.53-2.8-.53Zm-157.69-58.27c-1.95,0-3.85-.62-5.45-1.82l-.87-.65h1.09s.01,0,.02,0c4.19,0,6.95-2.12,7.76-5.98.16-.76.63-1.29,1.33-1.49,1.09-.31,2.6.23,3.6,1.28.88.93,1.18,2.08.82,3.16-.8,2.36-2.85,4.26-5.47,5.07-.93.29-1.88.43-2.81.43Zm-4.09-1.8c2.02,1.13,4.4,1.38,6.69.67,2.4-.75,4.27-2.47,5-4.61.38-1.11-.25-2-.66-2.43-.81-.85-2.05-1.32-2.87-1.08-.44.13-.72.44-.82.95-.81,3.87-3.4,6.15-7.34,6.51Zm42.66-57.43c-.45,0-.92-.08-1.41-.25-1.32-.46-2.34-1.48-2.49-2.48-.1-.67.19-1.3.82-1.76,3.27-2.4,4.05-5.69,2.18-9.26l-.49-.93.96.44c2.7,1.23,4.51,3.56,4.97,6.39.43,2.63-.44,5.26-2.33,7.01-.6.56-1.37.85-2.21.85Zm.2-13.1c1.43,3.54.44,6.77-2.85,9.19-.41.3-.59.67-.53,1.07.11.73.96,1.53,2.02,1.9.53.18,1.86.51,2.89-.44,1.71-1.59,2.5-3.97,2.11-6.37-.36-2.25-1.67-4.15-3.63-5.35Zm-31.6,8.71c-.27,0-.54-.04-.78-.12-.69-.23-1.13-.78-1.26-1.55-.64-3.89-3.3-6.12-7.5-6.29l-1.09-.04.9-.62c2.46-1.68,5.5-2.06,8.33-1.04,2.58.92,4.53,2.9,5.22,5.28.32,1.09-.03,2.23-.96,3.13-.81.78-1.92,1.24-2.88,1.24Zm-8.37-8.58c3.92.52,6.41,2.9,7.04,6.8.08.5.34.83.77.98.81.27,2.07-.14,2.92-.96.43-.41,1.1-1.27.77-2.4-.63-2.16-2.42-3.96-4.77-4.81-2.26-.81-4.66-.66-6.73.4Zm25.63.74c-.67,0-1.28-.16-1.72-.48-.57-.41-.82-1.05-.71-1.81.56-3.9-1.32-6.76-5.28-8.06l-1.05-.34,1.05-.34c2.85-.94,5.99-.44,8.38,1.33,2.14,1.59,3.39,4,3.34,6.44-.02,1.16-.73,2.17-1.93,2.76-.66.33-1.39.49-2.07.49Zm-6.41-10.62c3.6,1.57,5.26,4.53,4.7,8.44-.07.49.07.87.42,1.12.67.49,1.99.45,3.05-.08.56-.28,1.5-.93,1.53-2.13.05-2.21-1.09-4.4-3.05-5.85-1.9-1.41-4.32-1.94-6.64-1.51Z"/>
        </g>
      </g>
      <g>
        <path class="cls-2" d="m256.2,113.45l-.66-.3c5.53-12.18,10.36-13.68,19.11-16.4.69-.21,1.4-.44,2.14-.67,4.78-1.52,19.8-7.02,35.69-12.84,17.34-6.35,35.26-12.91,42.55-15.28l.22.69c-7.27,2.37-25.19,8.93-42.52,15.28-15.9,5.82-30.92,11.32-35.72,12.85-.74.24-1.46.46-2.15.67-8.56,2.65-13.27,4.12-18.67,16.01Z"/>
        <path class="cls-2" d="m224.52,203.71c-2.7-14.13,1.72-35.11,5.55-46.56-7.11,5.33-17.47,16.62-21.52,21.76l-.57-.45c4.24-5.39,15.42-17.54,22.59-22.57l.92-.65-.37,1.06c-3.67,10.5-8.15,30.55-6.27,44.91,2.41-15.19,10.29-36.33,18.17-48.4l.37-.56.27.61c6.4,14.71,12.93,30.97,14.46,43.06.72-15.65-2.73-38.26-7.73-48.74l-.45-.93.93.45c14.94,7.29,32.3,26.78,40.67,39.23-6.34-17.42-23.49-37.67-33.29-44.59l.27-.65c20.82,3.55,50.17,14.99,66.79,25.49-21.8-17.78-45.6-30.19-60.33-35.69l.1-.7c26.71-2.22,76.36,2.91,96.49,8.46-24.24-11.19-68.57-17.13-95.7-15.47l-.16-.7c29.61-12.04,78.04-24.63,118.54-31-32.13,2.71-71.96,10.69-110.57,19.03l-.27-.66c19.94-12.9,80.89-36.81,94.57-40.82l.2.69c-13.28,3.89-71.16,26.56-92.64,39.64,41.84-9.02,84.92-17.51,117.99-19.26l.07.72c-41.21,5.65-93.52,18.8-125.59,31.5,29.05-1.3,75.49,5.47,98.03,17.73l-.3.66c-15.7-5.91-69.7-12-98.99-9.94,16.46,6.4,42.93,20.69,65.77,40.97l-.47.55c-13.36-11.31-47.95-25.76-72.12-30.23,10.57,8.13,27.94,29.32,33.21,46.72l-.65.3c-7.71-12.34-26.05-33.12-41.01-40.88,5.35,12.16,8.79,37.92,6.98,53.04l-.72-.04c0-12.03-7.27-30.47-14.46-47.04-8.12,12.74-16.16,34.93-18.03,49.9l-.71.02Zm-51.78-25.84l-.54-.48c9.66-10.73,28.31-21.94,45.28-22.62l.7-.03-.38.59c-3.43,5.31-6.4,10.97-8.83,16.81l-.67-.28c2.35-5.67,5.21-11.16,8.51-16.34-16.58.94-34.65,11.87-44.07,22.34Zm56.62-33.63l-.11-.71c15.51-2.48,18.29-9.71,22.9-21.67,1.16-3.02,2.48-6.44,4.14-10.11,8.29-18.3,37.73-37.49,72.48-58.86l.38.62c-34.64,21.31-63.99,40.43-72.19,58.54-1.65,3.65-2.97,7.06-4.13,10.07-4.54,11.79-7.54,19.57-23.46,22.12Zm-47.69-84.26l-.69-.22c2.45-7.72,11.73-10.28,19.91-12.54.83-.23,1.66-.46,2.46-.69l.2.7c-.81.23-1.63.46-2.47.69-8.01,2.21-17.08,4.72-19.42,12.06Z"/>
        <path class="cls-2" d="m154.4,200.22c-4.81,0-9.8-1-11.35-2.66-3.43-3.87-5.27-8.83-5.2-13.99h.72c-.07,4.99,1.71,9.78,5.01,13.5,2.01,2.15,11.98,3.38,17.61,1.55,2.18-.71,3.37-1.76,3.54-3.11l.72.09c-.2,1.64-1.6,2.92-4.03,3.71-1.92.62-4.44.91-7.02.91Zm-2.32-20.29c-4.54,0-8.95-1.01-11.43-3.64l.53-.49c4.29,4.57,15.58,3.95,21.78,1.49,2.65-1.05,4.17-2.33,4.17-3.53h.72c0,1.53-1.64,3.02-4.62,4.2-2.95,1.17-7.1,1.97-11.15,1.97Zm8.93-18.2c-7.33,0-18.52-3.31-20.06-6.98l.67-.28c1.52,3.62,15.18,7.53,22.15,6.34,1.48-.25,3.27-.87,3.35-2.35l.72.04c-.07,1.08-.8,2.49-3.96,3.02-.85.15-1.83.21-2.88.21Zm2.59-15.89c-.4,0-.83-.01-1.28-.04-6.77-.37-16.29-3.55-16.42-7.88l.72-.02c.11,3.51,8.69,6.8,15.74,7.18,3.46.19,5.71-.42,5.87-1.6l.72.1c-.21,1.47-2.09,2.26-5.35,2.26Zm5.03-13.72c-1.84,0-4.12-.61-5.02-.88-4.66-1.37-9.93-4.2-10.5-7.15l.71-.14c.49,2.54,5.4,5.24,10,6.59,3.19.94,5.88,1.12,6.55.43l.52.5c-.46.47-1.3.64-2.26.64Zm3.23-13.96c-2.88,0-6.97-1.04-9.79-2.65-1.67-.95-2.66-1.99-2.87-3.02l.71-.14c.16.8,1.06,1.7,2.52,2.53,3.45,1.96,9.1,3.1,11.4,2.29l.24.68c-.58.2-1.34.3-2.21.3Zm5.9-12.41c-7.92-1.3-11.63-3.94-13.36-5.94l.55-.47c1.65,1.9,5.22,4.44,12.93,5.7l-.12.71Zm2.79-6.03l-.32-1.08c-.58-1.98-1.68-3.74-3.2-5.12-.51,1.16-1.89,4.04-3.8,5.49l-.5.38-.08-.62c-.29-2.33-2.52-5.44-4-7.49-.36-.5-.68-.95-.93-1.31l.6-.4c.24.36.56.8.91,1.29,1.39,1.94,3.44,4.79,4.01,7.19,1.52-1.43,2.77-3.91,3.3-5.25l.18-.46.38.32c1.55,1.29,2.73,2.93,3.46,4.79.72-2.09,1.7-5.09,1.85-7.01l.03-.41.41.09c2.47.55,4.81,1.64,6.82,3.17.08-2.09-.97-4.5-2.49-5.51l-1.07-.72,1.29.05c1.83.08,3.66-.27,5.33-1.01-.95-1.25-2.9-3.57-4.96-4.64l-.81-.42.87-.25c1.55-.44,3.72-2.11,4.94-3.08-.97-.44-2.2-1.07-3.4-1.67-.91-.46-1.8-.91-2.52-1.25l-.47-.23.38-.36c1.19-1.14,2.14-3.6,2.49-4.6l.68.24c-.42,1.19-1.24,3.24-2.32,4.51.63.31,1.35.67,2.09,1.05,1.43.72,2.91,1.47,3.91,1.9l.56.24-.66.53c-1.03.82-3.03,2.41-4.73,3.16,2.14,1.37,4.03,3.77,4.8,4.81l.26.35-.39.19c-1.58.77-3.32,1.2-5.07,1.27,1.45,1.5,2.3,4.06,1.95,6.2l-.1.62-.49-.4c-1.93-1.59-4.22-2.75-6.65-3.35-.3,2.35-1.52,5.84-2.19,7.76l-.37,1.06Zm-17.62-4.72l-.14-.71c1.78-.36,3.6-.59,5.41-.68l.04.72c-1.78.09-3.56.31-5.3.67Zm-33.29-20.35l-.72-.04c.09-1.86,1.04-2.99,1.87-3.99.92-1.1,1.72-2.06,1.45-3.85l.72-.11c.32,2.11-.67,3.28-1.61,4.42-.83,1-1.62,1.94-1.7,3.56Zm7.07-1.44l-.29-.66c1.61-.69,2-2.56,2.09-3.33.18-1.48-.19-2.92-.87-3.44-1.55-1.17-1.88-2.83-1.52-3.88.22-.67.71-1.08,1.28-1.08v.72c-.25,0-.47.22-.59.59-.27.81.01,2.12,1.27,3.07.9.68,1.37,2.33,1.16,4.1-.23,1.89-1.15,3.31-2.52,3.9Zm59.16-6.83c-4.27-.31-6.75-1.28-7.17-2.82-.21-.78.03-2.04,2.38-3.64,2.17-1.48,6.46-3.79,10.02-4.67-1.04-.25-2.28-.55-3.04-.65l-1.34-.18,1.25-.51c.67-.27,1.42-.57,2.22-.88,3.76-1.48,8.44-3.33,10.22-5.02l.5.52c-1.88,1.79-6.63,3.67-10.45,5.17-.36.14-.71.28-1.05.42.66.14,1.39.32,2.03.47.64.16,1.21.29,1.55.36l-.03.72c-3.65.35-8.97,3.17-11.46,4.86-1.55,1.06-2.3,2.07-2.09,2.85.15.56,1.09,1.9,6.52,2.29l-.05.72Zm-17.3-12.75l-.03-.72c2.59-.13,5.37-.32,8.75-.61l.06.72c-3.39.29-6.18.49-8.78.61Z"/>
        <path class="cls-2" d="m178.67,211.68c-.44,0-.88-.11-1.28-.34-.89-.5-1.42-1.48-1.42-2.61h.72c0,.87.39,1.61,1.05,1.98.61.35,1.34.32,2-.07.67-.4,2.23-1.82,2.13-6.3h.72c.04,1.87-.2,3.27-.56,4.31.28,1.2,1.54,2.03,2.74,1.81,1.54-.29,2.94-2.31,2.27-7.13l.72-.1c.74,5.33-.99,7.6-2.86,7.94-1.32.24-2.65-.44-3.28-1.58-.49.91-1.07,1.41-1.52,1.68-.46.27-.96.41-1.45.41Zm-11.45-36.57c-2.56-24.36,4.62-58.14,13.04-76.73l.66.3c-8.38,18.5-15.52,52.12-12.98,76.35l-.72.08Z"/>
        <path class="cls-2" d="m181.74,216.57h0c-1.24,0-2.77-1.41-2.98-5.35l.72-.04c.17,3.2,1.29,4.67,2.26,4.67h0c1.04,0,2.19-1.6,2.36-4.67l.72.04c-.21,3.7-1.7,5.35-3.09,5.35Zm8.38-7.68c-1.14,0-2.21-.84-2.85-2.3l.66-.29c.61,1.4,1.63,2.09,2.65,1.79,1.65-.48,3.04-3.44,2.2-8.8l.71-.11c.92,5.82-.7,9.02-2.71,9.61-.22.07-.45.1-.67.1Z"/>
        <path class="cls-2" d="m175.43,206.86c-2.66,0-6.91-2.11-8.81-5.14-4.68-7.49-.45-15.18,2.45-18.19l.52.5c-2.76,2.88-6.8,10.2-2.35,17.31,1.99,3.18,6.56,5.05,8.67,4.77.61-.08.98-.33,1.1-.73l.69.21c-.14.48-.56,1.08-1.7,1.24-.18.02-.37.04-.57.04Zm20.26-1.68c-1.08,0-2.04-.6-2.68-1.72l.63-.36c.62,1.07,1.53,1.53,2.58,1.3,1.79-.39,3.78-2.79,4.13-6.6l.72.06c-.37,4.16-2.64,6.79-4.69,7.24-.23.05-.46.08-.68.08Z"/>
        <path class="cls-2" d="m103.01,271.86l-.6-.41c4.27-6.22,9.08-5.03,13.32-3.99,2.14.52,4.15,1.02,5.88.51l.21.69c-1.92.57-4.03.05-6.26-.5-4.21-1.04-8.57-2.11-12.55,3.7Zm171.12-12.37l-.35-.63c20.5-11.28,30.32-18.39,30.9-22.38.11-.76-.12-1.4-.72-2.01-5.26-5.32-9.39-4.82-13.39-4.34-3.33.4-6.77.81-10.57-2.31-9.83-8.09-6.01-18.95-.84-30.31l.66.3c-5.05,11.09-8.8,21.69.64,29.45,3.56,2.93,6.7,2.55,10.03,2.15,4.17-.5,8.48-1.02,13.99,4.55.75.76,1.06,1.64.92,2.62-.62,4.29-10.27,11.35-31.27,22.91Zm-103.75-41.03c-.08,0-.16,0-.23,0-3.2-.1-7.49-2.15-8.53-4.95-1.02-2.74-.68-5.9.94-8.67,1.18-2.01,2.88-3.46,4.33-3.68l.11.72c-1.22.19-2.75,1.53-3.81,3.33-1.51,2.57-1.83,5.51-.88,8.05.92,2.45,4.91,4.39,7.88,4.48.82.02,2.27-.08,2.71-1.07l.66.29c-.43.97-1.55,1.5-3.16,1.5Zm85.45-11.53c-.74,0-1.48-.04-2.21-.12l.08-.72c5.44.62,11.47-1.21,15.74-4.79,3.64-3.05,5.72-7.12,6.01-11.75l.72.05c-.12,1.88-.52,3.68-1.18,5.35,2.94,1.76,7.93,2.98,12.54,1.75,3.2-.85,5.61-2.72,7.15-5.54l.63.35c-1.62,2.96-4.25,5-7.6,5.89-4.77,1.27-9.93.04-13.01-1.78-1.06,2.35-2.67,4.46-4.79,6.23-3.84,3.22-9.07,5.08-14.08,5.08Zm-125.24-11.62c-.24,0-.49-.04-.76-.11l.2-.7c.71.2,1.27.04,1.71-.49,1.39-1.66,1.28-6.61-.2-9.64l.65-.32c1.47,2.99,1.8,8.39.1,10.42-.46.55-1.04.83-1.71.83Z"/>
      </g>
      <g>
        <path class="cls-4" d="m151.71,62.77c-1.11,2.55,1.84,6.11,4.61,6.42,3.23.35,7.84-1.67,6.83-4.92"/>
        <path class="cls-2" d="m157.1,69.59c-.28,0-.55-.01-.82-.04-1.67-.18-3.46-1.46-4.46-3.18-.76-1.31-.92-2.64-.44-3.74l.66.29c-.38.88-.24,1.98.4,3.09.88,1.51,2.49,2.67,3.92,2.83,2.2.24,4.81-.66,5.95-2.04.6-.73.77-1.54.5-2.41l.69-.22c.34,1.1.13,2.17-.63,3.09-1.16,1.4-3.53,2.34-5.77,2.34Z"/>
      </g>
      <g>
        <path class="cls-2" d="m222.94,270.48l-.55-.47c1.67-1.99,7.35-3.64,11.34-2.67,3.81.93,10.86-.34,15.47-2.1l.26.68c-4.65,1.77-11.81,3.12-15.9,2.12-3.93-.96-9.24.78-10.62,2.43Zm-52.43-99.15c-1.42-2.01-2.66-4.16-3.71-6.39l.65-.31c1.02,2.19,2.25,4.3,3.64,6.28l-.59.42Zm5.08-5.04c-3.18-4.48-5.9-10.73-7.86-18.07l.7-.19c1.94,7.26,4.62,13.42,7.75,17.84l-.59.42Zm5.31-4.72c-5.06-7.03-8.79-18.04-10.51-31l.72-.09c1.7,12.85,5.38,23.74,10.38,30.67l-.59.42Zm5.86-3.99c-8.52-10.95-11.85-30.41-12.11-43.75h.72c.26,13.22,3.55,32.5,11.96,43.31l-.57.44Zm6.47-3.36c-10.48-11.63-14.91-37.98-13.01-55.73l.72.08c-1.88,17.6,2.48,43.69,12.83,55.17l-.54.48Zm-105.34-16.58c-2.97-2.65-3.3-7.47-2.49-9.21l.66.31c-.71,1.53-.37,5.98,2.31,8.36l-.48.54Zm80.98-72.63c-4.08,0-8.54-.7-12.25-1.29-3.61-.57-7.35-1.16-7.86-.48l-.58-.44c.74-.98,3.44-.6,8.55.2,6.63,1.04,15.7,2.48,20.33-.47l.39.61c-2.19,1.39-5.25,1.86-8.58,1.86Z"/>
        <path class="cls-2" d="m117.02,189.53c-.33,0-.65-.08-.93-.25l.37-.62c.47.29,1.14.15,1.84-.36,1.77-1.29,3.16-4.49,2.42-7.6l.7-.17c.85,3.53-.76,6.94-2.69,8.35-.59.43-1.18.64-1.71.64Zm50.21-22.45l-.22-.69c9.72-3.14,20.89-14.06,21.43-19.38l.72.07c-.56,5.51-12,16.78-21.93,19.99Zm.26-9.31l-.18-.7c7.21-1.86,15.7-10.29,17.83-17.68l.7.2c-2.18,7.6-10.92,16.26-18.34,18.18Zm.73-9.14l-.25-.68c7.6-2.75,14.33-11.03,14.84-16.06l.72.07c-.59,5.83-8.18,14.08-15.31,16.66Zm1.27-8.82l-.31-.65c6.17-2.94,11.63-9.59,12.16-14.82l.72.07c-.56,5.55-6.08,12.32-12.57,15.4Zm1.75-9.93l-.31-.65c5.12-2.4,8.77-7.28,9.3-12.45l.72.07c-.55,5.42-4.36,10.53-9.71,13.03Zm2.01-8.22l-.45-.57c1.91-1.5,6.43-5.66,7.06-11.88l.72.07c-.66,6.49-5.35,10.82-7.33,12.38Z"/>
        <path class="cls-2" d="m142.13,198.37c-22.1-4.45-34.54-12.08-41.58-25.5-1.24-2.37.08-3.85,1.25-5.15.93-1.03,1.81-2.01,1.66-3.41l.72-.08c.18,1.72-.89,2.92-1.84,3.97-1.16,1.29-2.16,2.41-1.15,4.33,6.93,13.2,19.22,20.72,41.08,25.12l-.14.71Zm-44.34-54.83c-3.31-5.61-4.19-11.88-2.23-15.98l.65.31c-1.86,3.89-.99,9.9,2.2,15.3l-.62.37Z"/>
        <path class="cls-2" d="m102.79,262.07l-.51-.51c1.97-1.98,3.73-1.61,6.38-1.05,2.17.46,5.14,1.08,9.52.6l1.79-.19c8.63-.92,16.09-1.72,23.33-8.5l.49.53c-7.42,6.95-14.99,7.76-23.75,8.69l-1.78.19c-4.5.49-7.53-.14-9.75-.61-2.6-.55-4.03-.85-5.72.86Zm58.23-24.74c-.23,0-.47-.02-.73-.05-2.22-.31-4.84-1.96-5.34-4.38l.71-.15c.43,2.1,2.76,3.53,4.73,3.81.99.14,1.74-.04,1.97-.48l.64.34c-.31.59-1.02.91-1.99.91Zm41.27-8.69c-.13-1.58-.43-3.09-.72-4.54-.66-3.31-1.29-6.44.48-9.39,4.77-7.95,4.57-12.85,3.65-16.96l.71-.16c1.31,5.82.23,10.89-3.73,17.49-1.63,2.71-1.05,5.56-.39,8.87.3,1.48.6,3,.73,4.63l-.72.06Zm-35.77-3.15c-.06,0-.12,0-.18,0-2.61-.06-5.67-1.48-6.55-3.03l.63-.36c.76,1.34,3.59,2.61,5.94,2.67.97.02,2.25-.15,2.85-1.1l.61.39c-.59.94-1.73,1.44-3.3,1.44Zm46.36-3.78l-.6-.41c2.97-4.36,4.47-10.31,4.47-17.66h.72c0,7.5-1.55,13.58-4.6,18.07Zm-52.87-4.97l-.7-.2c.39-1.38,1.25-2.6,2.42-3.44l.42.59c-1.04.74-1.8,1.82-2.14,3.05Zm-5.38-.83c-4.98-1.78-9.02-5.51-11.06-10.22-1.36-3.14-1.58-6.24-.6-8.51l.66.29c-.9,2.09-.68,4.98.6,7.94,1.97,4.53,5.84,8.11,10.64,9.83l-.24.68Zm80.77-1.86l-.57-.44c4.71-6.13,5.45-14.53,1.89-21.39l.64-.33c3.68,7.11,2.91,15.81-1.96,22.17Zm13.35-1.85l-.43-.58c4.91-3.69,7.45-9.84,8.32-12.31l.68.24c-.89,2.53-3.5,8.84-8.56,12.65Zm-141.96-31.16c-.41,0-.76-.15-1.03-.43l.53-.49c.22.24.57.27,1.04.09,1.63-.64,3.69-3.38,3.69-5.55h.72c0,2.48-2.28,5.49-4.15,6.23-.29.11-.56.17-.81.17Z"/>
        <path class="cls-2" d="m154.65,250.98c-1.57,0-3.38-.55-4.54-1.75-.91-.94-1.78-2.65-.77-5.46l.68.24c-.7,1.95-.49,3.58.61,4.72,1.35,1.4,3.89,1.82,5.41,1.34.33-.1.88-.34.95-.78.5-4.74,3.88-10.63,7.8-17.45,4.84-8.43,10.87-18.92,13.42-30.9l.17-.8.48.66c2,2.78,4.73,4.14,6.78,3.38,1.71-.63,2.57-2.6,2.35-5.43l-.07-.89.67.59c1.16,1.03,2.6,1.33,3.74.76,1.37-.68,2.09-2.43,1.93-4.68l-.06-.8.64.49c1.02.78,2.27.89,3.43.31,1.46-.72,2.45-2.36,2.45-4.07h.72c0,1.98-1.15,3.87-2.85,4.72-1.2.59-2.47.58-3.59,0,0,2.22-.86,3.95-2.35,4.68-1.21.59-2.65.44-3.91-.38.03,2.76-.99,4.7-2.86,5.38-2.19.8-4.99-.4-7.13-3.02-2.67,11.77-8.57,22.06-13.34,30.35-3.88,6.75-7.23,12.58-7.71,17.18-.09.63-.61,1.11-1.44,1.38-.47.15-1.02.23-1.61.23Zm129.75-9.03l-.03-.72c2.79-.1,9.56-1.4,12.12-11.14l.7.18c-2.68,10.21-9.84,11.57-12.79,11.68Zm-9.81-4.06l-.17-.7c4.18-.99,7.73-3.74,9.73-7.53l.64.34c-2.11,3.98-5.83,6.86-10.21,7.9Zm-15.61-8.27c-.44,0-.86-.01-1.28-.04l.05-.72c3.45.24,7.61-.55,12.39-2.36l.26.68c-4.31,1.63-8.14,2.45-11.42,2.45Zm-10.19-17.46l-.49-.53c4.01-3.65,12.63-2.57,18.34-1.85.51.06,1,.13,1.46.18l-.09.72c-.46-.05-.95-.12-1.46-.18-5.57-.7-14-1.76-17.76,1.67Z"/>
        <path class="cls-2" d="m242.73,263.38l-.27-.67c4.67-1.91,9.18-4.26,13.41-7l.39.61c-4.27,2.76-8.82,5.14-13.53,7.06Zm31.46-3.92l-.46-.56c.09-.07.17-.17.12-.4-.22-1.14-2.87-3.25-4.89-3.89l.22-.69c2.13.68,5.09,2.91,5.38,4.45.08.44-.05.83-.37,1.1Zm7.32-4l-.33-.64c.39-.2.51-.61.37-1.22-.38-1.57-2.57-3.9-4.81-3.9v-.72c2.45,0,5.02,2.43,5.52,4.45.23.93-.04,1.67-.73,2.03Zm18-11.75c-3.08-.93-9.9-2.22-15.09-1.76l-.06-.72c5.32-.48,12.1.8,15.36,1.78l-.21.69Zm22.18-43.21c-.17,0-.33,0-.5,0l.03-.72c6.62.26,11.4-4.64,12.67-8.19.64-1.79.44-3.24-.54-3.99l.44-.57c1.25.95,1.54,2.71.78,4.81-1.31,3.66-6.15,8.68-12.88,8.68Zm-8.75-2.51c-2.27-1.26-3.84-2.69-4.48-4.06-6.48,2.63-12.44.7-15.98-5.21l.62-.37c3.4,5.67,9.16,7.45,15.42,4.78l.36-.15.13.36c.45,1.29,2.02,2.76,4.29,4.02l-.35.63Z"/>
        <path class="cls-2" d="m388.87,253.19c-.19,0-.38,0-.57-.03-1.6-.16-2.84-.99-3.41-2.28l.66-.29c.46,1.04,1.48,1.71,2.81,1.85,1.77.18,3.57-.59,4.49-1.91,1.04-1.48,6.09-9.94,3.63-30.68-2.06-17.28-18.25-20.37-38.74-24.27-1.25-.24-2.51-.48-3.78-.72-21.55-4.18-27.49-10.88-32.01-23.43l.68-.24c4.51,12.54,10.13,18.83,31.47,22.97,1.27.25,2.53.49,3.77.72,19.97,3.8,37.21,7.09,39.33,24.9,2.5,21.01-2.69,29.66-3.75,31.18-.97,1.38-2.76,2.24-4.59,2.24Z"/>
        <path class="cls-2" d="m354.64,270.22l-.11-.71c2.22-.35,4.48-.52,6.72-.5v.72c-2.2,0-4.43.15-6.61.49Zm12.71-3.17c-.82-.43-1.68-.97-2.67-1.6-3.45-2.19-8.18-5.18-15.46-5.74l.05-.72c7.46.57,12.27,3.62,15.79,5.85.98.62,1.83,1.16,2.62,1.57l-.34.64Zm25.29-23.7c-1.68,0-3.21-.77-4.02-2.09l.62-.38c.97,1.58,2.85,1.89,4.17,1.69,1.51-.24,2.63-1.11,2.92-2.29l.7.17c-.36,1.46-1.71,2.55-3.51,2.83-.29.05-.59.07-.88.07Zm.32-11.09c-1.29,0-2.62-.3-3.66-.9l.36-.63c1.79,1.02,4.62,1.07,6.19.11.85-.52,1.25-1.27,1.2-2.23l.72-.04c.06,1.23-.47,2.22-1.55,2.89-.87.54-2.05.8-3.27.8Zm-3.1-11.91c-.4,0-.78,0-1.12,0-.27,0-.52,0-.73,0v-.72c.22,0,.47,0,.74,0,2.11.02,6.03.07,7.13-1.17.22-.25.31-.54.26-.89l.72-.09c.07.56-.07,1.05-.44,1.46-1.13,1.27-4.2,1.42-6.56,1.42Zm-7.74-7.28l-.41-.59c1.61-1.12,5.49-5.08,5.38-7.37-.02-.52-.26-.89-.73-1.16l.35-.63c.68.38,1.07.99,1.1,1.75.13,2.72-4.07,6.88-5.69,8Zm-10.36-1.04l-.35-.63c2.5-1.38,5.22-7.26,4.76-10.3-.16-1.06-.67-1.68-1.52-1.86l.15-.71c1.16.24,1.88,1.09,2.09,2.46.51,3.4-2.31,9.49-5.12,11.05Zm-16.84-1.91l-.26-.68c4.34-1.65,8.28-8.73,8.01-11.74-.1-1.12-.73-1.24-.94-1.28l.14-.71c.89.17,1.43.85,1.52,1.92.29,3.29-3.79,10.7-8.47,12.48Zm-17.94-2.45l-.18-.7c6.34-1.6,9.41-7.82,9.5-11.52.03-1.49-.41-2.49-1.21-2.73l.21-.69c1.14.34,1.77,1.59,1.72,3.44-.09,3.92-3.34,10.51-10.04,12.2Zm-111.99-2.65l-.44-1.27c-1.75-5.01-5.42-6.81-8.19-7.44-5.09-1.16-11.2.76-15.2,4.77l-.62.62v-.87c0-2.96,0-10.65.33-15.31-3.56,1.23-7.84,4.6-12,7.87-1.27,1-2.46,1.94-3.63,2.81l-.58.43v-.72c0-3.78,0-9.44-.33-13.93-5.16,1.62-16.25,3.06-22.27,1.62l-.47-.11.24-.42c9.42-16.52,24.27-28.2,44.14-34.73l.23.69c-19.52,6.41-34.15,17.84-43.49,33.97,6.18,1.26,17.1-.24,21.84-1.85l.44-.15.04.46c.35,4.31.37,9.81.37,13.72.98-.74,1.98-1.53,3.03-2.36,4.4-3.46,8.95-7.05,12.74-8.16l.5-.15-.04.52c-.34,4.18-.37,11.42-.37,14.95,4.16-3.78,10.18-5.53,15.25-4.37,3.79.86,6.69,3.26,8.28,6.82,1.96-7.29,8.63-10.6,14.43-11.26,6.68-.77,15.32,1.71,18.91,8.88,6.97-12.02,23.66-16.21,34.46-11.99,4.95-12.57,25.05-19.64,38.86-16.95-3.67-5.41-3.5-11.71.53-17.86l.61.4c-4.04,6.16-4.04,12.48,0,17.79l.6.8-.97-.23c-13.65-3.16-34.36,3.9-39.07,16.65l-.13.35-.35-.14c-10.69-4.41-27.6-.15-34.24,12.14l-.35.65-.3-.68c-3.24-7.33-11.84-9.84-18.47-9.09-5.83.67-12.59,4.12-14.06,11.82l-.25,1.32Zm150.54-19.78c-3.76-3-7.12-6.27-10.37-9.43-6.66-6.48-12.41-12.07-18.08-11.55l-.07-.72c6-.55,11.86,5.15,18.65,11.75,3.24,3.15,6.58,6.4,10.31,9.38l-.45.57Zm66.47-76.59l-.69-.21c1.64-5.54,2.97-10.59,3.55-13.5l.71.14c-.59,2.94-1.92,8.01-3.57,13.57Zm-10.06-.92l-.67-.27c2.5-6.15,5.27-13.21,6.6-16.78l.68.25c-1.33,3.58-4.1,10.65-6.6,16.81Z"/>
      </g>
      <g>
        <path class="cls-2" d="m153.89,63.37l7.24,1.28s-5.09,6.5-7.24-1.28Z"/>
        <path class="cls-2" d="m157.11,67.72c-.18,0-.36-.02-.54-.05-1.43-.29-2.5-1.69-3.18-4.16-.05-.17,0-.36.12-.5.12-.13.3-.2.48-.16l7.24,1.28c.18.03.34.16.4.33s.04.37-.08.52c-.09.12-2.18,2.75-4.43,2.75Zm-2.46-3.68c.42,1.2,1.1,2.38,2.12,2.59,1.14.23,2.49-.8,3.33-1.63l-5.44-.96Z"/>
      </g>
    </g>
  </g>
</svg>