<?xml version="1.0" encoding="UTF-8"?>
<svg id="Layer_2" data-name="Layer 2" xmlns="http://www.w3.org/2000/svg" viewBox="0 0 520 320">
  <defs>
    <style>
      .cls-1 {
        fill: #a3ab78;
      }

      .cls-1, .cls-2, .cls-3, .cls-4, .cls-5 {
        stroke-width: 0px;
      }

      .cls-3 {
        fill: #198a00;
      }

      .cls-4 {
        fill: #ef7d00;
      }

      .cls-5 {
        fill: #de2010;
      }
    </style>
  </defs>
  <g id="_500x300_Background" data-name="500x300 Background">
    <rect class="cls-1" width="520" height="320" rx="10" ry="10"/>
  </g>
  <g id="Zambia">
    <g>
      <rect class="cls-3" x="10" y="10" width="499.99" height="300"/>
      <rect class="cls-4" x="450.48" y="117.14" width="59.52" height="192.86"/>
      <rect class="cls-2" x="390.95" y="117.14" width="59.52" height="192.86"/>
      <rect class="cls-5" x="331.42" y="117.14" width="59.52" height="192.86"/>
    </g>
    <g>
      <g>
        <path class="cls-4" d="m461.73,46.07s18.43-7.22,20.21-8.71c.81.89-7.39,9.98-23.3,13.33,14.45-3.13,26.79-12.95,29.31-12.66.73.15.57,9.6-32.55,17.8,22.89-5.51,36.21-15.63,36.05-14.52.16.22-2.27,7.96-22.33,14,5.6-1.19,20.78-9.68,20.62-8.04.49.67-14.7,18.54-42.14,12.73,21.92,5.21,36.13-7.37,38.16-7.15.41.07-4.06,11.02-31.66,11.69,13.24-1.27,9.42-.07,9.42-.07,0,0-7.79,5.59-17.21,1.79,7.39,1.86,8.2,1.93,8.36,2.53-.49.75-6.58,1.86-12.42-1.04,4.71,1.79,8.93,2.08,9.01,2.75-.08.22-3.08,1.79-5.76.67-2.68-1.12-27.36-15.04-27.36-15.04l42.05-10.57,1.54.52Z"/>
        <path class="cls-2" d="m447.57,71.94c-.71,0-1.47-.11-2.23-.43-2.67-1.11-26.39-14.49-27.4-15.06-.14-.08-.21-.23-.19-.38s.13-.28.28-.31l42.05-10.57c.07-.02.14-.01.22,0l1.42.48c6.39-2.5,18.62-7.46,19.98-8.6.16-.13.39-.12.52.03.12.12.22.36.09.77-.3.94-1.74,2.65-4.22,4.6,1.16-.64,2.25-1.24,3.24-1.8,3.49-1.96,5.6-3.14,6.65-3.02.17.03.49.17.5.81,0,.2-.05,2.7-4.46,6.18,1.8-.94,3.28-1.76,4.41-2.39,2.52-1.4,2.85-1.57,3.19-1.34.07.05.12.14.16.24.06.14.05.31-.05.6-.14.44-1.07,2.75-4.9,5.7,1.82-.74,2.69-.94,3.06-.67.13.09.21.24.22.4.06.25-.1.53-.27.79-.64.98-2.16,2.68-4.52,4.54.18-.05.34-.07.48-.05.21.04.38.2.36.49,0,.1-2.76,8.43-21.76,11.15.07.43-.47.62-.71.7-.49.33-4.26,2.77-9.52,3.09.64.24.77.44.87.78.03.1.01.22-.05.31-.29.45-1.68.89-3.65,1,.18.12.28.27.29.45,0,.06,0,.12-.02.17-.03.09-.1.29-.93.65-.45.2-1.67.67-3.11.67Zm-28.42-15.68c4.32,2.43,24.14,13.58,26.49,14.55,1.97.82,4.12.09,4.98-.34-.45-.16-1.3-.36-2.12-.55-.01,0-.02,0-.03,0-1.97-.21-4.2-.75-6.38-1.84-.18-.09-.26-.31-.18-.49.08-.18.29-.28.49-.2,2.33.88,4.55,1.4,6.19,1.78,2.71.28,4.84-.12,5.55-.45-.35-.19-1.25-.43-3-.87-1.58-.16-3.24-.55-4.96-1.24-.18-.07-.28-.28-.22-.47.06-.19.26-.3.45-.25,1.38.35,2.52.63,3.48.87.51.12.97.24,1.38.35,5.95.6,10.6-2.03,11.75-2.76-.11,0-.24,0-.37,0-2.56.3-5.4.51-8.54.58-.2,0-.37-.15-.39-.35s.14-.38.34-.4c4.49-.43,7.01-.58,8.44-.58h.01c16.78-2.01,21.63-8.39,22.66-10.2-.54.23-1.37.69-2.24,1.17-1.07.59-2.43,1.33-4.04,2.11-3.26,1.68-7.18,3.17-11.73,4.05-5.55,1.15-12.16,1.44-19.64-.34-.2-.05-.33-.25-.28-.45s.24-.33.45-.29c7.8,1.65,14.61,1.36,20.32.11,3.48-.8,6.5-1.93,9.01-3.05,7.45-3.49,11.67-8.12,12.28-9.25-.86.1-3.56,1.3-6.21,2.51-2.61,1.51-5.99,3.08-10.37,4.6-1.36.52-2.58.93-3.52,1.13-.2.05-.39-.08-.45-.28s.07-.4.26-.46c1.23-.37,2.39-.75,3.49-1.13,2.56-1,5.68-2.44,8.55-3.76.56-.26,1.08-.5,1.57-.72,5.87-3.39,7.75-6.42,8.27-7.54-.48.24-1.24.66-2.08,1.13-2.35,1.31-6.21,3.45-11.37,5.77-4.08,2.02-9.65,4.17-17.29,6.28-1.51.43-3.07.83-4.67,1.22-.2.05-.41-.08-.46-.28s.07-.41.28-.46c1.59-.39,3.11-.79,4.56-1.19,6.92-1.95,12.84-4.27,17.6-6.42,6.94-3.49,9.19-6.5,9.92-8.05.34-.73.37-1.2.35-1.4-.9.06-3.18,1.34-6.02,2.93-2.98,1.67-6.8,3.81-11.12,5.73-3.32,1.59-7.29,3.04-11.87,4-.21.05-.41-.09-.45-.29s.09-.41.29-.45c3.91-.85,7.66-2.19,11.12-3.68,6.65-3.11,10.64-6.85,11.67-8.46-3.99,2.17-18.79,7.98-19.48,8.25-.09.03-.18.03-.26,0l-1.44-.49-41,10.32Z"/>
      </g>
      <g>
        <path class="cls-4" d="m412.29,83.73c-3.7,0-3.8,3.02-3.8,3.02,0,0-.31.22-.1,1.68.61-1,.92-1.3.92-1.3.41.07,2.1.53,4.79-1.4-2.45,2.33-.98,3.21-.98,3.21,0,0-.58,1.84,1.28,2.21-.58-.75-.24-1.4-.24-1.4,0,0,2.62-.25,2.45-3.17.1,2.64,1.67,3.3,1.67,3.3,0,0,0,1.46,1.7,1.59-.92-.75-.71-1.9-.71-1.9,0,0,2.2-1.46.34-3.95,1.12-.59,2.03-2.24,2.03-2.24,0,0-1.53-.59-2.24-1.09-.34-.66-.03-4.23-.03-4.23l-.92-4.63-2.62,7.22c.1-1.01.16,3.13-3.53,3.13Z"/>
        <path class="cls-2" d="m419.96,91.83h-.03c-1.44-.1-1.93-1.08-2.03-1.73-.31-.2-.9-.66-1.28-1.6-.58,1.09-1.67,1.46-2.16,1.57-.03.18-.03.49.24.84.1.12.1.29.02.43-.09.13-.24.2-.39.17-.66-.13-1.13-.44-1.41-.91-.33-.56-.28-1.19-.22-1.53-.16-.16-.33-.43-.38-.83-.04-.37.05-.76.26-1.19-1.53.68-2.6.56-3.11.48-.14.17-.39.51-.74,1.09-.09.14-.24.21-.4.17-.16-.03-.28-.16-.29-.32-.15-1.08-.05-1.62.11-1.88.08-.62.61-3.25,4.17-3.25,2.46,0,3.04-2.04,3.15-2.68,0-.03,0-.06,0-.09,0-.08.03-.26.12-.39l2.5-6.92c.06-.16.22-.26.39-.25.17.01.31.14.34.3l.92,4.63s0,.07,0,.1c-.13,1.57-.18,3.45-.03,3.95.7.45,2.05.98,2.06.98.1.04.18.12.22.22.04.1.03.22-.03.31-.03.07-.8,1.43-1.83,2.17.49.77.68,1.54.55,2.27-.16.93-.78,1.53-1.07,1.77-.01.28.03.94.59,1.4.13.1.18.28.11.43-.06.16-.2.25-.35.25Zm-2.98-5.17c.12,2.26,1.38,2.83,1.43,2.86.14.06.23.2.23.35,0,.07.02.47.33.79-.2-.61-.11-1.14-.1-1.17.02-.1.08-.19.16-.25,0,0,.75-.51.89-1.39.1-.63-.11-1.3-.65-2.02-.07-.09-.09-.2-.07-.31.03-.11.09-.2.19-.25.7-.37,1.33-1.23,1.66-1.72-.52-.22-1.39-.6-1.9-.96-.05-.03-.09-.08-.12-.14-.35-.68-.16-3.46-.08-4.39l-.64-3.24-2.1,5.81c-.09.9-.9,3.49-3.93,3.49-3.27,0-3.42,2.54-3.42,2.65,0,.09-.04.18-.1.24-.01.03-.04.1-.05.25.2-.27.3-.38.32-.4.09-.09.21-.12.33-.11l.1.02c.5.09,2.02.36,4.41-1.35.16-.12.39-.09.51.07.12.15.11.38-.03.52-1.19,1.14-1.32,1.83-1.29,2.14.03.32.24.47.25.47.14.09.21.28.16.43,0,0-.2.68.1,1.17.03.06.08.11.12.16-.04-.47.12-.79.13-.82.06-.11.17-.19.3-.2.09,0,2.19-.26,2.1-2.67,0-.04,0-.07,0-.11,0-.21.15-.38.36-.39.2-.02.39.15.4.35,0,.04,0,.08,0,.12Zm-8.49.09h0,0Z"/>
      </g>
      <g>
        <path class="cls-4" d="m430.56,73.32c.08.07,2.76,2.83,5.36,2.68.98-.75-2.03-2.38-2.03-2.75,1.06.89,5.52,4.39,8.36,3.13,1.13-1.49-2.03-1.27-5.52-5.28,2.43,1.49,8.52,4.77,11.37,3.5,1.22-1.19-6.33-4.92-8.85-7.82l-6.5-3.05-8.85,6.63,6.66,2.98Z"/>
        <path class="cls-2" d="m440.89,77.03c-1.46,0-3.06-.69-4.4-1.47,0,.03,0,.07,0,.1,0,.18-.07.44-.34.65-.06.05-.13.07-.21.08-2.43.15-4.87-2.03-5.6-2.74l-6.59-2.95c-.12-.05-.21-.17-.22-.3-.01-.13.04-.26.15-.35l8.85-6.63c.11-.09.26-.1.39-.04l6.5,3.05s.09.05.12.09c1.05,1.21,3.07,2.62,4.86,3.86,2.64,1.84,4.14,2.92,4.22,3.83.02.25-.07.47-.24.65-.03.03-.07.06-.11.07-2.27,1.02-6.24-.59-9.05-2.03.83.64,1.57,1.07,2.15,1.41.84.49,1.39.81,1.49,1.34.06.29-.04.6-.29.94-.04.05-.09.09-.14.12-.48.21-.99.3-1.52.3Zm-7-4.16c.09,0,.18.03.24.09.52.44,5.09,4.22,7.87,3.11.08-.11.11-.2.1-.26-.04-.2-.57-.51-1.13-.84-1.11-.64-2.77-1.61-4.52-3.63-.12-.14-.12-.35,0-.49s.33-.18.49-.08c3.6,2.2,8.57,4.42,10.9,3.53-.09-.66-2.18-2.11-3.87-3.28-1.88-1.31-3.83-2.66-4.95-3.93l-6.21-2.92-8.15,6.1,6.07,2.71s.07.04.1.07c0,0,.03.03.03.03,1.27,1.25,3.17,2.54,4.84,2.55-.06-.39-.88-1.05-1.3-1.38-.6-.48-.88-.7-.88-1,0-.15.09-.28.22-.34.05-.02.1-.03.15-.03Z"/>
      </g>
      <g>
        <path class="cls-4" d="m420.57,50.69s3-1.64,15.02-.82c1.3.15,8.2-2.16,10.39-2.83,3.49-.6,14.61-2.83,17.61-4.92,2.11-.22-.57,3.57-3.24,4.46-2.85,1.19-13.15,4.47-16.8,4.02,4.39.07,1.95,3.35-5.36,1.79,3.49,1.79,2.19,2.08,2.19,2.08,0,0-6.17.29-7.79-.97,4.14,1.42,2.43,1.93,2.43,1.93,0,0-4.22.37-6.17-.45,3,.82,1.46,1.34,1.46,1.34,0,0-2.43.37-4.46-.29-2.03-.66-5.11-5.35-5.27-5.35Z"/>
        <path class="cls-2" d="m428.69,56.83c-.87,0-1.95-.09-2.96-.42-1.65-.54-3.74-3.29-4.87-4.77-.2-.27-.42-.55-.5-.64-.08-.05-.14-.13-.16-.22-.05-.17.03-.34.18-.43.12-.07,3.24-1.68,15.23-.87,1,.12,6.22-1.54,8.73-2.33.62-.2,1.15-.37,1.53-.48,3.65-.63,14.59-2.84,17.51-4.86.05-.04.11-.06.18-.07.89-.1,1.11.42,1.15.65.28,1.26-2.15,3.85-4.25,4.56-2.39,1-9.94,3.44-14.57,3.97.05.07.09.13.13.2.14.3.09.64-.14.94-.66.83-2.77,1.36-5.76,1.04.79.57.9.93.87,1.21-.04.3-.29.49-.52.55-.43.03-2.71.12-4.81-.1.07.13.09.25.09.35,0,.39-.33.62-.62.71-.03,0-.05.01-.08.01-.12.01-2.1.18-3.98.02,0,.03.01.07.01.11.01.5-.54.71-.66.75-.09,0-.79.12-1.74.12Zm-7.47-5.98c.07.09.16.2.25.33.92,1.21,3.09,4.04,4.5,4.51,1.91.64,4.27.29,4.29.28,0,0,0,0,.01-.01-.09-.07-.29-.19-.71-.34-.31-.07-.6-.16-.85-.26-.18-.08-.28-.28-.21-.47.07-.19.26-.29.46-.24.32.09.6.17.84.26,1.88.42,4.73.22,5.15.18,0,0,.01,0,.02,0-.07-.09-.29-.28-.9-.57-.71-.16-1.31-.38-1.7-.68-.14-.11-.19-.31-.1-.48.09-.16.28-.24.46-.18.66.23,1.19.43,1.59.62,1.8.38,4.5.39,5.85.33-.17-.2-.68-.64-2.14-1.38-.17-.09-.25-.29-.18-.47s.25-.29.44-.24c4.31.92,6.59.1,7.03-.44.05-.06.07-.11.05-.14-.05-.1-.34-.33-1.16-.42-.25,0-.47-.02-.68-.04-.2-.03-.35-.2-.33-.4.01-.2.18-.36.39-.35.25,0,.49.02.7.04,3.99.06,13.34-2.94,15.95-4.03,2-.67,3.91-3.03,3.77-3.68-.01-.06-.15-.07-.25-.06-3.74,2.48-17.54,4.89-17.68,4.92-.33.1-.87.28-1.47.47-3.99,1.27-7.98,2.48-9.02,2.37-9.26-.65-13.13.2-14.35.59Z"/>
      </g>
      <g>
        <path class="cls-4" d="m425.39,74.87l.44,7.28s-.24.37-.44.59c-.2.22-5.63-.78-4.88,3.02,0,1.55.03,1.96,1.19,2.83-.31-1.03-.2-1.74-.2-1.74,0,0,1.53.84,3.02-1.46-1.02,2.27-.31,3.08-.07,3.14.24.41-.41,2.24,1.63,2.21-.78-.68-.41-1.68-.41-1.68,0,0,2.14-.31,1.39-3.86.78-.71,1.09-.03,1.09-.03,0,0,.24,2.12,2.1,1.68.85.43-.14,1.59-.14,1.59,0,0,1.36.03,1.76-1.03.41-1.06.88-2.96-1.36-3.74-.27-.75.88-.81.88-.81,0,0,1.42.43,1.84,1.09.41.66.27-1.71-1.49-1.96-2.17-.06-2.31-.47-2.31-.56s-.37-5.29-.54-6.78l-3.5.23Z"/>
        <path class="cls-2" d="m426.02,91.12c-1.84,0-1.87-1.38-1.89-2.06,0-.09,0-.2-.01-.28-.13-.1-.25-.25-.33-.43-.14-.3-.25-.77-.14-1.47-.7.49-1.35.52-1.78.46.01.28.06.68.2,1.14.05.16-.01.33-.15.42-.13.09-.31.09-.45,0-1.28-.97-1.34-1.49-1.34-3.13-.18-.87-.03-1.65.45-2.22,1-1.19,3.07-1.16,4.19-1.14.15,0,.32,0,.42,0,.09-.11.19-.25.26-.35l-.43-7.16c-.01-.21.14-.39.35-.4l3.49-.22c.2-.01.38.13.4.33.16,1.38.49,5.94.54,6.72.12.07.55.25,1.95.29,1.38.19,1.98,1.42,2.05,2.14.04.45-.14.61-.31.66-.1.03-.36.08-.58-.27-.23-.37-1.04-.74-1.55-.9-.18.02-.39.09-.47.16.71.29,1.21.74,1.48,1.32.35.75.3,1.67-.14,2.82-.5,1.29-2.05,1.27-2.12,1.27-.14,0-.28-.09-.33-.22s-.04-.29.06-.4c.18-.22.43-.64.39-.86,0-.02,0-.05-.04-.08-.56.1-1.04,0-1.45-.29-.69-.49-.89-1.38-.94-1.67-.01-.02-.04-.04-.07-.05-.04,0-.12.01-.24.1.25,1.36.12,2.43-.41,3.18-.35.51-.81.74-1.09.84-.05.26-.06.73.35,1.09.12.1.16.27.1.41s-.19.24-.35.25c-.02,0-.04,0-.06,0Zm-1.51-6.11c.06,0,.12.01.18.05.18.09.24.31.16.49-.81,1.81-.43,2.54-.28,2.64.1.03.14.07.19.16.11.19.12.43.12.71.01.55.05.95.39,1.16-.2-.65.01-1.25.03-1.28.05-.13.16-.22.3-.24.01,0,.49-.09.85-.6.41-.6.49-1.57.23-2.8-.03-.13.01-.27.11-.36.37-.34.73-.48,1.07-.41.42.09.6.46.62.5.01.03.03.07.03.11,0,0,.1.85.64,1.23.26.18.59.23,1,.13.09-.02.18,0,.26.03.37.19.49.47.53.68.05.24,0,.49-.09.72.27-.11.53-.3.66-.64.36-.94.41-1.67.16-2.22-.21-.45-.64-.79-1.28-1.02-.1-.04-.19-.12-.23-.23-.13-.37-.04-.63.07-.79.3-.46,1.01-.52,1.15-.53.04,0,.09,0,.13.01.1.03.68.22,1.22.53-.01-.02-.03-.04-.04-.06-.26-.34-.59-.54-1-.6-1.11-.03-2.64-.16-2.64-.94,0-.16-.33-4.6-.5-6.38l-2.75.17.42,6.9c0,.08-.01.16-.06.23-.01.02-.26.41-.49.65-.16.16-.35.16-.91.16-.92-.01-2.84-.04-3.6.87-.33.4-.43.94-.28,1.66,0,.93,0,1.4.23,1.79-.03-.41,0-.66,0-.68.02-.12.09-.23.2-.29.11-.05.24-.05.35,0,.05.03,1.25.62,2.52-1.34.08-.1.2-.17.32-.17Zm5.3-3.59v.02-.02Z"/>
      </g>
      <g>
        <path class="cls-4" d="m432.94,81.07c.03-.33-3.7-4.94-2.76-5.54.94.18,2.5,2.27,3.76,1.59-.38-.82-1.5-.35-2.78-2.45-1.27-2.37-1.46-5.91-5.93-9.78,2.89,4.1,9.45,6.5,9.73,5.3.28-1.19-5.78-5.71-5.46-6.8,1.21,2.24,7.28,7.22,11.75,6.8.31-.96-3.66-2.9-4.69-4.7-2.86-1.76-10.51-7.81-10.67-9.22-2.79-3.72-4.52-4.85-5.34-5.28-.31-.34-.39-.66-.45-.87-1.73-3.74.56-4.95,1.9-5.13,1.1-.11,1.42.04,2.22-.31-.94-.33-1.88-.66-2.82-.99,1.23.83,4.35.1,3.68,2.47,1.37-.48,4.29-3.66-3.31-4.39-2.47-2.6-12.65-4.1-15.19,7.26.2.16.31.29.96.73-3.21-1.43-11.87-2.53-15-2.99-8.44-2.23-17.19-7.61-18.03-6.95-1.13.46,5.09,5.77,4.77,5.89-5.4-2.88-10.32-4.93-14.91-6.79-3.23-1.11-6.46-3.68-6.82-3.19-1.19,2.26,5.17,7.93,6.36,8.59,1.18.64,10.49,4.6,10.35,4.65-14.02-5.83-16.37-6.89-17.07-7.56-1.24-.26-4.24-3.98-5.08-3.74-.46.41.46,6.3,7.15,8.95,1.09.73,14.34,5.09,14.21,5.43-.03.09-15.17-5.73-15.76-5.94-2.92-1.05-6.5-4.73-7.17-4.31-.64.37,1.65,4.36,4.6,5.6,1.55.62,7.47,3.32,12.82,5.03.34.11-9.6-3.46-14.38-5.29-2.17-1.1-3.19-2.48-3.52-2.18-.49.29.79,6.18,16.15,9.5.41.16,5.41-1.09,5.16-.92-.06.04-4.97,1.02-5.45.99-.43-.06-3.11.29-3.16.42-.16.4.97,2.5,8.91,2.06,1.02-.06,6.52-1.84,6.06-1.46-.23.19-7.49,2.35-8.04,2.4-.48.07-3.03.31-3.13.56-.12.34,1.89,1.84,6.15,2.08,3.77.18,10.93-2.11,10.8-1.97-.14.15-6.91,2.27-7.09,2.41-.24.12-2.72.25-2.81.43-.2.43,3.57,3.67,14.74.22-1.12,1.39-6.54,2.34-6.53,2.59-.03.18,1.19,1.26,3.09,1.65.94.19,2.24.15,3.42-.02,2.12-.39,4.37-1.16,7.21-3.57.34.76-7.11,4.22-6.76,4.54,1.62,1.37,6.98-.18,7.33-.36.35-.18,10.33-5.34,10.3-5.94.16.77-12.87,7.26-12.72,7.52.83,1.23,5.28-.07,5.49-.18.22-.11,5.68-2.82,5.83-2.9.15-.08-6.42,3.53-5.84,4.08-.28,2.34,10.27-1.62,11.09-2.11.41-.25-5.07,2.21-5.08,3.38,1.76,2.73,7.41,1.87,8.29,1.27.43-.3-.51,2.03-.21,1.82.1-.05,1.23-1.26,1.66-2.14-.14.77-.76,1.97-1.12,3.35-.36,1.38-.47,2.94-.96,4.6-.11.73,3.48-1.42,2.96-6.56.31,2.67-1.13,7.68-.76,7.93.75.52,2.85-2.49,3.05-4.52.62,1.03,1.92,3.17,3.04,3.67-.12-1.55.02-1.48-.49-3.02.29-2.03.33-4.84.4-8.01,3.04,5.35,4.25,7.6,3.41,11.69.9.35,2.35-2.86,2.24-4.5,1.17,4.59,6.18,5.27,6.26,5.14Z"/>
        <path class="cls-2" d="m432.84,81.47c-.1,0-.22-.01-.35-.03-1.58-.24-4.28-1.32-5.62-3.92-.32,1.27-1,2.62-1.67,3.11-.38.28-.69.26-.89.18-.17-.07-.28-.25-.24-.43.74-3.55-.09-5.61-2.69-10.23-.06,2.6-.12,4.85-.36,6.59.37,1.13.38,1.41.42,2.13.01.23.03.51.05.89.01.13-.05.26-.16.34-.11.08-.25.09-.37.04-.91-.4-1.86-1.67-2.71-3.02-.49,1.6-1.67,3.43-2.61,3.86-.42.19-.7.07-.83-.03-.35-.24-.28-.71.07-2.68-.46.64-.95,1.08-1.34,1.31-.37.22-.68.26-.89.12-.16-.1-.23-.29-.2-.49.29-.96.44-1.85.58-2.71.12-.68.22-1.31.39-1.93.1-.37.21-.73.33-1.07-.12.12-.22.21-.29.26h0s-.03.02-.05.03c0,0-.01,0-.02,0h0c-.13.05-.3.05-.41-.03-.28-.2-.2-.48.01-1.23.03-.1.06-.22.09-.33-1.13.37-3.3.6-5.08.25-1.48-.29-2.55-.93-3.16-1.88-.04-.07-.06-.14-.06-.21,0-.39.37-.84.91-1.28-2.63.83-5.54,1.5-6.51.87-.28-.18-.42-.45-.42-.77-.03-.07-.04-.16-.03-.24.01-.09.03-.26.42-.63-.9.28-4.85,1.4-5.8,0-.14-.26-.2-.37.5-.82-1.85.37-4.26.59-5.34-.33-.1-.09-.16-.24-.14-.37.03-.18.12-.33.58-.63-.2.04-.39.08-.57.11-1.36.2-2.65.2-3.57.01-1.8-.37-3.46-1.49-3.38-2.07-.01-.31.21-.38,1.66-.77.36-.1.79-.22,1.26-.35-6.59,1.31-9.97-.03-10.91-1.1-.28-.31-.25-.55-.18-.69.09-.19.24-.27.81-.35-.49.03-.96.05-1.39.03-3.58-.2-5.89-1.34-6.4-2.08-.14-.22-.13-.39-.09-.5.12-.32.42-.47,3.09-.77l.35-.04c.08,0,.29-.06.6-.14-5.61.1-7.2-1.21-7.63-1.82-.21-.29-.28-.6-.18-.83.09-.24.77-.39,1.52-.49-10.5-2.66-13.96-6.73-14.31-8.82-.09-.53.08-.75.24-.85.34-.31.79.04,1.47.57.36.28.81.63,1.36.99-1.53-1.42-2.58-3.23-2.64-4.06-.03-.41.17-.59.29-.66.51-.31,1.23.2,2.95,1.47.27.2.56.41.85.63-1.42-1.58-2.19-3.3-2.44-4.7-.14-.77-.09-1.27.15-1.47.05-.04.09-.07.15-.09.61-.18,1.44.56,2.86,1.87.85.79,1.91,1.77,2.41,1.87.07.01.13.05.18.1.37.36,1.46.92,4.75,2.35-2.31-2-6.05-5.93-4.99-7.93.41-.56,1.15-.13,2.79.81,1.28.73,2.88,1.65,4.48,2.2,4.27,1.73,8.48,3.49,13.05,5.81-2.56-2.52-3.67-3.77-3.53-4.47.03-.18.15-.33.31-.41.56-.35,1.79.19,5.4,1.86,3.48,1.61,8.25,3.82,12.92,5.05.33.05.79.11,1.3.18,3.26.47,8.92,1.27,12.28,2.29,1.39-6.1,4.82-8.25,7.46-8.99,3.31-.91,6.75.03,8.26,1.5,3.3.33,5.05,1.18,5.22,2.52.15,1.22-1.17,2.31-1.95,2.59-.13.05-.28.01-.39-.09-.1-.1-.14-.24-.1-.38.11-.39.1-.69-.02-.89-.05-.08-.12-.15-.22-.21-.03.03-.07.05-.1.07-.6.27-.97.28-1.48.29-.23,0-.5.01-.85.05-.64.09-1.49.45-1.91,1.21-.45.83-.35,1.97.31,3.39,0,.02.03.08.03.09.05.18.11.39.31.63,1.55.85,3.37,2.65,5.4,5.36.04.05.07.12.07.18.12,1.11,7.37,7.01,10.49,8.93.05.03.1.08.13.14.45.8,1.61,1.68,2.62,2.46,1.36,1.04,2.34,1.8,2.1,2.54-.05.14-.18.25-.33.26-2.24.21-4.79-.83-6.97-2.22.74.83,1.13,1.46,1.02,1.92-.04.17-.18.47-.68.57-1,.2-3.33-.57-5.6-1.99.74,1.28,1.18,2.48,1.57,3.55.28.76.54,1.48.87,2.09.7,1.15,1.33,1.44,1.84,1.68.38.18.74.34.94.79.09.18.01.4-.16.49-1.02.55-2.08-.25-2.93-.89-.28-.21-.56-.43-.8-.55.12.7,1.53,2.77,2.1,3.59.74,1.08.86,1.27.84,1.49,0,.06-.02.12-.05.16-.11.15-.25.2-.43.2Zm.1-.39h0,0Zm0,0h0,0Zm-6.25-5.51c.17,0,.32.12.37.29.83,3.29,3.85,4.46,5.19,4.77-.12-.18-.26-.39-.39-.58-1.3-1.9-2.35-3.54-2.18-4.36.04-.2.15-.36.31-.46.08-.05.18-.07.27-.05.43.08.87.41,1.39.8.04.03.08.06.12.09-.29-.28-.61-.66-.92-1.17-.37-.68-.64-1.42-.92-2.2-.54-1.47-1.17-3.21-2.62-5.07-.9-.73-1.72-1.57-2.37-2.49-.11-.16-.09-.37.05-.5.14-.13.36-.13.5,0,.96.83,1.73,1.65,2.35,2.45,2.18,1.74,4.77,2.85,6.06,3.04.56.09.71-.02.71-.02.02-.41-1.69-2.09-2.72-3.1-1.9-1.87-2.97-2.96-2.76-3.68.04-.15.17-.26.32-.28.16-.02.3.06.37.2,1.13,2.09,6.62,6.63,10.88,6.63h.07c-.31-.39-1.17-1.05-1.72-1.47-1.04-.79-2.21-1.69-2.77-2.6-2.6-1.63-10.22-7.53-10.74-9.33-1.97-2.62-3.7-4.34-5.16-5.11-.04-.02-.07-.05-.1-.08-.35-.38-.47-.75-.52-.98-.76-1.65-.86-3.02-.28-4.06.69-1.26,2.08-1.53,2.48-1.59.33-.03.58-.05.8-.05-.03,0-.05-.02-.08-.03-.1-.03-.2-.07-.3-.1-.44-.09-.86-.21-1.19-.43-.16-.1-.22-.31-.12-.49.09-.17.29-.25.47-.18.35.12.69.25,1.04.37.18.03.35.07.54.09.88.14,1.8.29,2.22.97.13.2.2.44.22.7.47-.36.92-.92.85-1.44-.05-.43-.62-1.48-4.67-1.87-.09,0-.18-.05-.24-.12-1.27-1.33-4.54-2.25-7.6-1.4-2.42.67-5.56,2.65-6.89,8.25.14.12.31.26.75.56.16.11.21.33.12.5-.1.17-.31.24-.49.16-2.78-1.23-9.79-2.24-13.55-2.77-.52-.07-.98-.14-1.35-.2-4.78-1.26-9.58-3.48-13.08-5.11-1.99-.92-4.05-1.87-4.63-1.89.26.69,2.31,2.73,3.34,3.73,1.53,1.5,1.61,1.61,1.55,1.9-.03.12-.13.24-.25.29-.1.04-.22.03-.31-.02-5.28-2.83-10.05-4.82-14.87-6.77-1.66-.57-3.29-1.5-4.6-2.26-.7-.4-1.48-.85-1.82-.95-.64,1.88,4.87,7.13,6.29,7.93.58.31,3.36,1.53,5.81,2.6,2.68,1.17,3.85,1.68,4.35,1.96.05.02.1.04.14.06v.02c.24.16.24.22.24.34,0,.16-.1.29-.25.35-.09.03-.19.03-.28,0-14.3-5.95-16.33-6.88-17.11-7.57-.69-.21-1.65-1.09-2.66-2.03-.62-.58-1.52-1.41-1.97-1.63-.06,1.19,1.24,5.88,7.02,8.17.03,0,.05.02.07.04.13.09.47.24.96.43.27.1.55.21.85.32.27.1.56.21.85.33,1.32.49,2.95,1.07,4.48,1.61,6.75,2.41,7.06,2.58,7.2,2.87.05.09.05.21.01.31q-.15.39-4.92-1.41c-2.2-.83-4.84-1.84-7.02-2.67-.68-.25-1.24-.47-1.68-.64-1.45-.55-2.46-.94-2.61-.99-1.59-.57-3.34-1.87-4.73-2.92-.73-.54-1.63-1.21-2.03-1.37.16.84,1.98,3.82,4.47,4.87.31.12.81.34,1.46.62,1.32.56,3.24,1.39,5.39,2.24,1.82.66,3.45,1.26,4.54,1.65.55.2.93.33,1.19.44.07.03.14.05.22.07v.02c.35.17.32.26.25.47-.07.2-.29.29-.49.24-2-.64-4.08-1.42-5.99-2.18-2.89-1.06-6.21-2.27-8.42-3.12-1.17-.6-1.99-1.23-2.58-1.7-.16-.13-.34-.27-.49-.37.05.22.17.58.47,1.04.92,1.49,4.27,5.2,15.44,7.61.06,0,.17,0,.32-.02.33-.05.75-.12,1.2-.21.64-.12,1.36-.28,1.87-.39q1.91-.41,2.05-.09c.07.17,0,.37-.14.47-.13.09-1.82.43-3.33.69-.96.2-1.5.29-1.82.3-.28.04-.47.07-.54.05-.29-.04-2.05.17-2.72.31.35.5,2.27,1.76,8.47,1.42.45-.03,2.08-.48,3.38-.85,2.76-.77,2.86-.81,3.05-.45.09.16.02.39-.12.51-.36.29-7.84,2.45-8.26,2.48l-.35.04c-1.07.12-1.81.22-2.22.31.62.47,2.45,1.35,5.58,1.53,2.84.14,7.66-1.17,9.72-1.72,1.2-.32,1.22-.33,1.38-.06.09.14.07.34-.05.46-.11.11-.14.15-4.16,1.46-1.34.44-2.85.93-3.02,1.02-.16.09-.43.12-1.37.22-.29.03-.69.07-1,.11,1.04.77,5.11,2.37,14-.38.16-.05.33.01.43.15.09.14.09.32-.02.45-.77.95-3.06,1.64-5.34,2.26-.29.08-.61.16-.85.24.43.34,1.32.88,2.54,1.13.83.17,2.03.16,3.29-.02,1.92-.35,4.11-1.02,7.02-3.49.09-.08.21-.1.33-.08.12.03.22.1.26.22.29.66-.66,1.3-4.32,3.36-.79.44-1.73.96-2.2,1.28,1.71.77,6.15-.43,6.57-.62,3.16-1.62,9.52-5.03,10.11-5.72.05-.14.16-.24.31-.26.2-.03.38.1.42.3.11.56-.53,1.11-8.67,5.51-1.55.84-3.15,1.7-3.82,2.11,1.03.43,4.13-.28,4.73-.54.1-.05,1.7-.85,3.21-1.59,1.3-.65,2.53-1.26,2.61-1.3.18-.1.41-.03.51.15.09.17,0,.41-.16.52h0s0,0-.01,0-.01,0-.02.01c-3.33,1.86-5.3,3.2-5.62,3.64,0,.04.01.09,0,.13-.01.11.02.14.07.18,1.11.73,7.15-1.3,9.54-2.26.61-.29,1.04-.47,1.06-.47.18-.03.36.07.43.24.07.17-.03.38-.18.47-.11.07-.49.24-1.05.46-1.38.68-3.58,1.93-3.82,2.5.51.71,1.38,1.19,2.59,1.43,2.14.43,4.61-.07,5.08-.39.26-.18.47-.06.52-.01.23.16.22.43.11.89.26-.34.53-.73.69-1.06.09-.17.28-.26.46-.19.18.06.29.24.26.43-.07.41-.26.9-.49,1.48-.22.57-.47,1.21-.64,1.9-.15.58-.26,1.21-.37,1.86-.12.7-.24,1.42-.43,2.16.64-.5,1.74-1.82,2.03-3.99.05-.6.08-1.18.05-1.68,0-.12-.02-.25-.03-.37-.02-.21.13-.39.33-.41.21-.02.39.12.42.33.01.12.03.24.03.37.05.73.02,1.41-.07,2.03-.11,1.13-.32,2.31-.49,3.29-.13.75-.28,1.59-.29,1.96.56-.24,2.18-2.43,2.37-4.23.02-.16.14-.29.29-.33.16-.04.32.03.41.18.45.75,1.4,2.32,2.29,3.12,0-.05,0-.09,0-.14-.03-.69-.05-.91-.41-2.01-.02-.05-.03-.12-.01-.17.27-1.85.32-4.35.38-7.24v-.73c.02-.17.13-.31.3-.36.17-.04.34.03.42.18,2.82,4.96,4.19,7.37,3.57,11.27.66-.73,1.44-2.71,1.36-3.86-.01-.2.12-.37.31-.4.03-.05.05-.05.07-.05Zm-50.43-14.87c-.16.03-.31.05-.47.07.22-.03.4-.05.47-.07t0,0Zm-1.56-20.52s0,0,0,0t0,0h0Z"/>
      </g>
      <g>
        <path class="cls-4" d="m382.27,47.14s-2.07,1.44-4.65,1.35c.64,2.37,5.99.55,5.99.55,0,0-2.58,2.62-4.42,3.04,1.1.85,5.76.55,6.54.12.78-.42,2.16-2.07,2.16-2.07,0,0-4.79,5.07-5.47,5.02-.09.59,5.01.38,6.08-.5,1.06-.88,3.73-2.2,3.73-2.2,0,0-6.99,4.48-7.32,4.48,2.62.64,7.87-.76,11.23-2.66-4.97,3.04-5.43,3.59-7.96,4.6,2.26.47,3.4,1.86,11.05-1.18,4.37-1.9,6.86-5.36,6.86-5.36-2.71,3.34-6.99,6.16-11.73,8.95-.28.5,5.06,2.58,11.87-3.93"/>
        <path class="cls-2" d="m396.7,62.38c-1.21,0-2.08-.28-2.48-.59-.41-.31-.26-.64-.22-.7.03-.06.08-.11.14-.14,1.33-.78,2.67-1.59,3.96-2.43-5.51,2.03-7.27,1.51-8.98,1-.33-.1-.67-.2-1.03-.28-.16-.03-.29-.17-.3-.33s.08-.32.24-.39c1.55-.62,2.31-1.06,3.86-2.04-2.6.82-5.33,1.25-7.07.82-.19-.05-.31-.22-.29-.41.02-.16.14-.29.31-.33.16-.07.72-.39,1.48-.85-1.62.24-3.46.21-3.98-.08-.31-.18-.3-.45-.29-.53.03-.2.2-.33.4-.32.25-.07,1.14-.87,2.26-1.95-1.76.26-4.77.29-5.74-.45-.12-.09-.17-.24-.14-.38s.14-.26.29-.29c.98-.22,2.22-1.15,3.1-1.9-1.25.27-2.97.48-4.03-.09-.48-.26-.79-.64-.92-1.13-.03-.12,0-.24.07-.33s.2-.16.31-.14c2.41.07,4.4-1.27,4.42-1.28.17-.12.41-.08.52.1.12.17.08.41-.1.52-.08.06-1.87,1.27-4.22,1.41.08.07.17.14.28.2,1.23.66,3.99-.05,4.95-.37.16-.05.35,0,.45.16.09.15.07.34-.05.47-.09.09-1.91,1.93-3.63,2.78,1.63.32,4.7.11,5.3-.21.13-.07.29-.19.45-.33.54-.54,1.08-1.11,1.61-1.67.14-.15.37-.16.52-.03.15.14.17.37.04.52-.11.13-.89,1.05-1.62,1.68-1.23,1.25-2.46,2.42-3.29,3.04,1.31.12,4.28-.15,4.98-.73,1.08-.9,3.69-2.19,3.8-2.24.18-.09.4-.02.5.16s.05.4-.12.5c-3.45,2.21-5.3,3.34-6.29,3.92,2.61.09,6.82-1.07,9.81-2.76.18-.1.41-.04.51.14.1.18.05.41-.13.52-1.5.92-2.59,1.61-3.45,2.15-1.59,1.01-2.39,1.52-3.55,2.05h0c1.71.51,3.48,1.04,9.73-1.46,1.5-.65,2.78-1.5,3.8-2.32,1.09-.93,2.07-1.9,2.9-2.92.13-.16.36-.18.52-.06s.2.35.08.52c-.07.1-1.17,1.61-3.17,3.17-2.43,2.05-5.34,3.9-8.24,5.62.29.11.78.24,1.47.26,1.7.07,5.21-.43,9.51-4.53.15-.14.39-.14.54.01s.14.39-.01.54c-3.93,3.74-7.46,4.75-9.76,4.75Z"/>
      </g>
      <g>
        <path class="cls-4" d="m419.27,61.23s.46,1.99,2.3,3.5c1.84,1.52,1.98,3,1.98,3"/>
        <path class="cls-2" d="m423.55,68.11c-.19,0-.36-.14-.37-.34,0-.01-.16-1.36-1.84-2.74-1.92-1.59-2.41-3.63-2.43-3.71-.05-.2.08-.41.28-.45s.41.08.45.28c0,.02.46,1.88,2.18,3.3,1.94,1.6,2.11,3.19,2.12,3.25.02.21-.13.39-.34.41h-.04Z"/>
      </g>
      <g>
        <path class="cls-4" d="m418.34,48.32s.64,1.77,2.53,2.91c1.93,1.14,4.83,4.73,5.06,5.36.22.77,1.34,6.29,1.25,6.88"/>
        <path class="cls-2" d="m427.18,63.85s-.04,0-.06,0c-.21-.03-.35-.22-.31-.43.06-.52-.96-5.78-1.23-6.71-.18-.48-2.96-4.01-4.89-5.14-1.99-1.2-2.67-3.04-2.69-3.11-.07-.2.03-.41.22-.49.2-.07.41.03.49.22,0,.02.63,1.67,2.37,2.72,1.95,1.15,4.94,4.77,5.22,5.56.18.63,1.38,6.33,1.26,7.07-.03.18-.19.31-.37.31Z"/>
      </g>
      <g>
        <path class="cls-4" d="m406.61,51.06c.14.68-2.71,4.1,1.19,8.1-3.55,3.97-3.55,4.48-3.55,4.48,0,0,1.98,1.02,5.52-1.77,5.84,6.59,3.9,9.6,3.9,9.6"/>
        <path class="cls-2" d="m413.68,71.84c-.07,0-.14-.02-.2-.06-.18-.11-.22-.35-.11-.52.01-.03,1.62-2.83-3.63-8.88-3.52,2.63-5.56,1.64-5.64,1.59-.12-.07-.21-.2-.21-.33,0-.51,1.8-2.65,3.41-4.46-2.94-3.23-1.81-6.08-1.26-7.47.09-.23.2-.51.2-.6-.04-.2.09-.39.29-.43s.41.1.45.31c.05.26-.06.54-.24,1-.54,1.38-1.56,3.93,1.34,6.91.14.14.14.37.01.52-2.14,2.4-2.96,3.51-3.27,3.99.69.11,2.33.07,4.73-1.84.16-.12.39-.1.52.05,5.97,6.73,4.02,9.92,3.93,10.06-.07.1-.2.17-.32.17Z"/>
      </g>
      <g>
        <path class="cls-4" d="m413.22,66.82s-.54-.71.42-3.35c.87.96,1.82,1.16,2.25,1.55.42.39,4.83.97,5.11,3.68"/>
        <path class="cls-2" d="m421,69.07c-.19,0-.35-.14-.37-.34-.19-1.82-2.65-2.6-3.99-3.02-.58-.18-.85-.28-1.01-.42-.12-.1-.33-.22-.56-.34-.35-.18-.81-.41-1.26-.8-.59,1.87-.28,2.45-.28,2.45.12.16.09.39-.08.52-.16.12-.41.09-.54-.09-.11-.14-.62-1.01.37-3.71.05-.12.15-.22.28-.24s.26.02.35.12c.5.56,1.05.84,1.49,1.07.29.15.54.28.73.45.07.05.42.16.72.26,1.49.47,4.27,1.36,4.51,3.66.02.21-.13.39-.34.41,0,.01-.02.02-.03.02Z"/>
      </g>
      <g>
        <path class="cls-4" d="m418.4,42.02c0-.2-.89-1.95-4.2.24,1.78.1,3.53,1.04,4.2-.24Z"/>
        <path class="cls-2" d="m417.16,43.06c-.47,0-.98-.1-1.49-.2-.49-.1-1-.2-1.49-.22-.16,0-.3-.12-.35-.28-.04-.16.02-.33.16-.41,2.12-1.4,3.36-1.27,4.03-.91.53.29.77.75.77.99,0,.06-.01.12-.05.18-.35.67-.92.86-1.57.86Zm-1.81-1.03c.16.03.31.06.47.09,1.11.22,1.8.33,2.16-.13-.07-.1-.22-.26-.48-.35-.52-.19-1.27-.05-2.15.39Zm3.05,0h0,0Zm0,0h0,0Z"/>
      </g>
      <g>
        <path class="cls-4" d="m450.04,50.02c.16.07,9.91,2.01,13.15,1.04-4.14,5.06-12.42,1.64-12.42,1.64,4.06,1.11,4.22,1.04,5.52,2.08.41.97-7.47.52-10.07-.82,7.22,2.08,7.39,1.93,7.63,2.75.32,1.11-11.85-.3-12.91-1.79,3.24,2.31,5.03,2.75,6.82,3.8-2.19.89-6.25,1.79-13.72-3.05,9.82,8.19,18.67,7.67,20.05,9.16-3.41,4.61-16.64-2.75-22.73-6.48-6.09-3.72,13.31,9.01,15.1,8.78-.89,1.27-7.31.15-7.71-.45"/>
        <path class="cls-2" d="m444.16,68.1h-.11c-1.91-.02-5.18-.56-5.61-1.19-.12-.17-.07-.41.1-.52.17-.12.41-.07.52.1.35.31,3.9,1.06,6.01.81.15-.02.28-.04.39-.07-3.77-1.54-15.33-8.74-15.63-9.4-.07-.15-.03-.33.09-.45q.24-.21,1.63.64c11.47,7.01,19.42,9.49,21.99,6.86-.52-.28-1.53-.52-2.75-.81-3.79-.9-10.13-2.39-17-8.12-.15-.13-.18-.35-.06-.52.12-.16.35-.2.51-.09,6.44,4.17,10.22,4.04,12.59,3.3-.35-.18-.72-.35-1.1-.53-1.19-.56-2.52-1.19-4.35-2.42-.36-.18-.62-.36-.76-.56-.1-.15-.09-.35.04-.49.13-.13.33-.15.49-.04.26.18.5.35.74.51,2.41,1.03,10.21,1.89,11.52,1.51-.16-.28-.65-.43-3.68-1.28-.13-.04-.26-.07-.41-.11-1.34-.24-2.56-.56-3.3-.94-.17-.09-.25-.29-.18-.48s.27-.28.46-.22c1.3.37,2.37.68,3.25.92,2.42.41,5.2.49,6.13.28-.51-.39-.87-.57-1.68-.82-1.89-.33-3.27-.88-3.41-.94-.18-.08-.28-.28-.22-.47.07-.19.27-.29.46-.24l1.55.42c.67.18,1.19.32,1.61.45,2.41.43,5.72.49,8.07-1.56-4.04.41-11.95-1.15-12.22-1.28-.19-.09-.28-.31-.18-.5.09-.18.29-.26.47-.2.52.14,9.87,1.95,12.92,1.04.16-.05.33.01.43.15.09.14.09.32-.02.45-1.97,2.41-4.79,3-7.3,2.92.1.08.22.17.34.27.05.04.09.09.11.15.09.22.04.46-.14.63-.37.34-1.61.46-3.15.41.62.27.74.5.87.94.06.22,0,.5-.35.67-.93.45-5.89.1-9.49-.66.61.32,1.16.58,1.68.83.66.31,1.27.6,1.89.96.12.07.2.21.19.35-.01.14-.1.27-.24.32-1.84.75-4.61,1.36-9.02-.4,4.9,2.97,9.23,4,12.09,4.67,1.74.41,2.9.69,3.4,1.23.12.13.14.33.03.49-2.16,2.93-7.73,1.57-13.79-1.23,2.84,1.66,5.28,2.96,5.8,2.94.15-.02.29.06.37.19.07.12.07.28-.01.41-.33.5-1.19.74-2.6.74Z"/>
      </g>
      <g>
        <path class="cls-4" d="m452.56,58.58c-1.13.15-4.54.15-5.03.07"/>
        <path class="cls-2" d="m449.23,59.09c-.83,0-1.54-.02-1.76-.05-.21-.03-.35-.22-.31-.43.03-.21.23-.35.43-.31.46.07,3.82.07,4.92-.08.2-.03.4.12.43.33.03.21-.12.4-.33.43-.66.09-2.16.12-3.38.12Z"/>
      </g>
      <g>
        <path class="cls-4" d="m379.41,45.79s7.41,3.59,10.54,3.34c-.83.71-2.07,1.02-2.07,1.02.78.29,2.94,1.35,6.21.68-.78.71-1.8,1.52-1.8,1.52,0,0,2.81.97,5.99-.55-.96,1.09-1.52,1.9-1.52,1.9l2.21.12"/>
        <path class="cls-2" d="m398.97,54.18h-.02l-2.21-.12c-.14,0-.26-.09-.32-.21-.06-.12-.05-.27.03-.38.01-.02.22-.33.61-.81-2.66.78-4.78.07-4.88.03-.13-.05-.23-.16-.25-.29-.02-.14.03-.28.14-.36,0,0,.36-.29.81-.66-2.41.2-4.1-.47-4.9-.79l-.23-.09c-.16-.06-.26-.21-.24-.38.01-.16.13-.31.29-.35,0,0,.42-.1.9-.32-3.52-.47-9.18-3.19-9.45-3.32-.19-.09-.27-.31-.18-.5.09-.19.31-.27.5-.18.07.03,7.35,3.54,10.34,3.3.16-.01.31.08.38.23.07.15.02.33-.1.43-.37.33-.82.57-1.21.74,1.08.37,2.77.76,5.03.29.17-.03.33.05.41.2s.05.33-.08.45c-.4.37-.86.75-1.21,1.05,1,.17,2.92.29,4.98-.69.16-.08.35-.03.47.11.11.14.1.34-.02.48-.46.52-.83.98-1.08,1.31l1.51.09c.21.01.37.19.35.4,0,.21-.18.37-.37.37Z"/>
      </g>
    </g>
  </g>
</svg>