<?xml version="1.0" encoding="UTF-8"?>
<svg id="Layer_2" data-name="Layer 2" xmlns="http://www.w3.org/2000/svg" viewBox="0 0 520 320">
  <defs>
    <style>
      .cls-1 {
        fill: #a3ab78;
      }

      .cls-1, .cls-2, .cls-3, .cls-4, .cls-5, .cls-6, .cls-7 {
        stroke-width: 0px;
      }

      .cls-3 {
        fill: #fff;
      }

      .cls-4 {
        fill: #ffd200;
      }

      .cls-5 {
        fill: #de2010;
      }

      .cls-6 {
        fill: #ffc618;
      }

      .cls-7 {
        fill: #319208;
      }
    </style>
  </defs>
  <g id="_500x300_Background" data-name="500x300 Background">
    <rect class="cls-1" width="520" height="320" rx="10" ry="10"/>
  </g>
  <g id="Zimbabwe">
    <g>
      <polygon class="cls-7" points="20.91 310 510 310 510 267.14 78.05 267.14 20.91 310"/>
      <polygon class="cls-7" points="20.91 10 78.05 52.86 510 52.86 510 10 20.91 10"/>
      <polygon class="cls-4" points="78.05 267.14 510 267.14 510 224.28 135.19 224.28 78.05 267.14"/>
      <polygon class="cls-4" points="135.19 95.72 510 95.72 510 52.86 78.05 52.86 135.19 95.72"/>
      <polygon class="cls-5" points="192.33 138.57 510 138.57 510 95.72 135.19 95.72 192.33 138.57"/>
      <polygon class="cls-5" points="135.19 224.28 510 224.28 510 181.43 192.33 181.43 135.19 224.28"/>
      <polygon class="cls-2" points="220.9 160 192.33 181.43 510 181.43 510 138.57 192.33 138.57 220.9 160"/>
      <polygon class="cls-2" points="192.33 138.57 135.19 95.72 78.05 52.86 20.91 10 10 10 67.14 52.86 124.28 95.72 181.42 138.57 209.99 160 181.42 181.43 124.28 224.28 67.14 267.14 10 310 20.91 310 78.05 267.14 135.19 224.28 192.33 181.43 220.9 160 192.33 138.57"/>
      <polygon class="cls-3" points="181.42 138.57 124.28 95.72 67.14 52.86 10 10 10 52.86 10 95.72 10 138.57 10 181.43 10 224.28 10 267.14 10 310 67.14 267.14 124.28 224.28 181.42 181.43 209.99 160 181.42 138.57"/>
      <polygon class="cls-5" points="163.41 136.46 113.34 129.18 90.95 83.81 68.56 129.18 18.49 136.46 61.99 167.25 52.46 212.97 90.95 190.95 129.43 212.97 119.9 167.25 163.41 136.46"/>
      <g id="bird">
        <g>
          <path class="cls-6" d="m78.18,141.22c4.71,10.25,5.88,10.93,17.64,14.96,11.76,4.03,44.99,7.86,48.27,8.23-2.14-2.14-39.57-29.87-47.26-35.42-7.69-5.54-9.83-8.07-9.83-8.07,0,0-6.94-12.48-9.33-16.13-2.39-3.66-6.8-8.82-12.6-8.82s-9.33,3.4-11,9.45c-.92.25-5.88,3.28-5.72,6.38,1.43-.17,10.42-2.69,13.53,7.48,3.11,10.17,3.28,26.81.09,35.04-3.19,8.23-8.15,14.45-8.15,21.68,0,1.01.68,3.03,2.35,3.03.59,3.19,5.3,25.96,5.3,25.96h67.05l10.65-41.17"/>
          <path class="cls-2" d="m128.7,205.24H61.25l-.04-.2c-.04-.23-4.54-21.97-5.26-25.77-1.68-.16-2.39-2.17-2.39-3.27,0-4.85,2.24-9.31,4.6-14.04,1.23-2.44,2.49-4.96,3.56-7.73,3.1-7.98,3.05-24.61-.09-34.87-2.79-9.13-10.29-7.81-12.75-7.38-.21.04-.39.07-.5.08l-.27.04-.02-.27c-.17-3.1,4.5-6.12,5.76-6.59,1.79-6.3,5.56-9.51,11.22-9.51s10.15,4.86,12.82,8.94c2.37,3.62,9.27,16.02,9.34,16.14h0s2.22,2.55,9.76,7.99c7.5,5.41,45.14,33.3,47.29,35.44l.52.52-.72-.08c-.99-.11-2.62-.31-4.72-.56l-10.65,41.13Zm-67.04-.51h66.64l10.53-40.71c-11.09-1.37-33.86-4.45-43.1-7.62-11.8-4.05-13.03-4.72-17.79-15.09l.46-.21c4.67,10.18,5.88,10.84,17.49,14.82,10.73,3.67,39.82,7.24,47.41,8.13-5.31-4.41-39.53-29.74-46.63-34.86-7.63-5.5-9.79-8.01-9.87-8.11-.1-.17-6.98-12.55-9.35-16.16-2.6-3.97-6.87-8.71-12.39-8.71s-9.06,3.12-10.76,9.27l-.04.14-.14.04c-.88.24-5.38,3.03-5.52,5.85.06,0,.12-.02.19-.04,6.91-1.21,11.38,1.39,13.33,7.73,3.17,10.36,3.21,27.14.08,35.21-1.08,2.79-2.35,5.32-3.58,7.77-2.34,4.67-4.55,9.08-4.55,13.81,0,.94.63,2.77,2.1,2.77h.21l.04.21c.54,3.01,4.77,23.5,5.24,25.76Z"/>
        </g>
        <g>
          <path class="cls-2" d="m128.7,205.24H61.25l-.04-.2c-.04-.23-4.54-21.97-5.26-25.77-1.68-.16-2.39-2.17-2.39-3.27,0-4.85,2.24-9.31,4.6-14.04,1.23-2.44,2.49-4.96,3.56-7.73,3.1-7.98,3.05-24.61-.09-34.87-2.79-9.13-10.29-7.81-12.75-7.38-.21.04-.39.07-.5.08l-.27.04-.02-.27c-.17-3.1,4.5-6.12,5.76-6.59,1.79-6.3,5.56-9.51,11.22-9.51s10.15,4.86,12.82,8.94c2.37,3.62,9.27,16.02,9.34,16.14h0s2.22,2.55,9.76,7.99c7.5,5.41,45.14,33.3,47.29,35.44l.52.52-.72-.08c-.99-.11-2.62-.31-4.72-.56l-10.65,41.13Zm-67.04-.51h66.64l10.53-40.71c-11.09-1.37-33.86-4.45-43.1-7.62-11.8-4.05-13.03-4.72-17.79-15.09l.46-.21c4.67,10.18,5.88,10.84,17.49,14.82,10.73,3.67,39.82,7.24,47.41,8.13-5.31-4.41-39.53-29.74-46.63-34.86-7.63-5.5-9.79-8.01-9.87-8.11-.1-.17-6.98-12.55-9.35-16.16-2.6-3.97-6.87-8.71-12.39-8.71s-9.06,3.12-10.76,9.27l-.04.14-.14.04c-.88.24-5.38,3.03-5.52,5.85.06,0,.12-.02.19-.04,6.91-1.21,11.38,1.39,13.33,7.73,3.17,10.36,3.21,27.14.08,35.21-1.08,2.79-2.35,5.32-3.58,7.77-2.34,4.67-4.55,9.08-4.55,13.81,0,.94.63,2.77,2.1,2.77h.21l.04.21c.54,3.01,4.77,23.5,5.24,25.76Z"/>
          <path class="cls-2" d="m134.17,183.11c-19.27-4.45-53.24-4.68-59.86-4.68-3.81,0-17.99.83-18.13.84l-.03-.51c.14,0,14.34-.84,18.16-.84,6.63,0,40.66.23,59.97,4.69l-.11.5Z"/>
          <path class="cls-2" d="m61.01,178.9c-.06-.08-1.5-1.88-.55-5.41.28-1.05,1.36-2.55,2.72-4.45,3.3-4.61,8.28-11.59,8.28-20.43h.51c0,9-5.04,16.06-8.37,20.72-1.33,1.86-2.39,3.33-2.64,4.3-.88,3.26.45,4.94.46,4.95l-.39.32Z"/>
          <path class="cls-2" d="m69.61,178.23c-.05-.24-1.07-5.9,11.84-10.71,3.94-1.18,13.8-7.01,14.12-11.37l.51.04c-.35,4.92-11,10.77-14.46,11.82-12.43,4.63-11.51,10.08-11.5,10.13l-.5.1Z"/>
          <path class="cls-2" d="m136.6,173.72c-24.64-4.98-56.12-5.17-56.44-5.17v-.51c.32,0,31.84.19,56.53,5.18l-.1.5Z"/>
          <path class="cls-2" d="m95.34,164.92c-3.36,0-7.02-.12-7.28-.13l.02-.51c.11,0,10.81.36,12.52-.12,2.1-.6,4.84-2.01,5.96-5.34l.48.16c-1.19,3.54-4.09,5.03-6.3,5.67-.75.21-3,.27-5.4.27Z"/>
          <path class="cls-2" d="m94.61,164.89l-.24-.45c.05-.03,5.71-3.01,6.8-6.78l.49.14c-1.15,3.97-6.81,6.95-7.06,7.09Z"/>
          <path class="cls-2" d="m76.75,205.02c-.03-.18-2.49-17.3-2.98-26.82l-.04-.64,6.76,6.45,6.86-6,5.88,6.29,6.8-5.78,5.88,6.61,6.74-5.73,5.38,6.25,6.7-4.85,8.14,7.73-.35.37-7.84-7.44-6.73,4.88-5.35-6.22-6.73,5.73-5.88-6.61-6.8,5.77-5.88-6.28-6.83,5.98-6.17-5.89c.57,9.6,2.92,25.97,2.95,26.14l-.5.07Z"/>
          <path class="cls-2" d="m131.27,194.41c-23.71-3.39-55.76-3.21-56.08-3.21v-.51c.32,0,32.41-.18,56.16,3.22l-.08.5Z"/>
          <path class="cls-2" d="m64.14,131.78l-.22-.46c.19-.1,19.57-9.35,22.99-10.64l.18.47c-3.39,1.28-22.76,10.52-22.95,10.62Z"/>
        </g>
        <g>
          <polygon class="cls-2" points="131.25 193.91 124.38 187.84 117.66 192.97 112.17 186.56 105.46 192.1 99.5 185.84 93.03 191.57 87.04 185.4 81.12 191.31 74.38 185.18 74.72 184.8 81.1 190.61 87.05 184.67 93.05 190.87 99.53 185.14 105.5 191.41 112.24 185.85 117.73 192.28 124.4 187.18 131.59 193.53 131.25 193.91"/>
          <path class="cls-2" d="m93.17,176.5c-1.58,0-2.86-1.28-2.86-2.86s1.28-2.86,2.86-2.86,2.86,1.28,2.86,2.86-1.28,2.86-2.86,2.86Zm0-5.21c-1.3,0-2.35,1.05-2.35,2.35s1.05,2.35,2.35,2.35,2.35-1.05,2.35-2.35c0-1.3-1.05-2.35-2.35-2.35Z"/>
          <path class="cls-2" d="m104.17,177.24c-1.58,0-2.86-1.28-2.86-2.86s1.28-2.86,2.86-2.86,2.86,1.28,2.86,2.86-1.28,2.86-2.86,2.86Zm0-5.21c-1.3,0-2.35,1.05-2.35,2.35s1.05,2.35,2.35,2.35,2.35-1.05,2.35-2.35c0-1.3-1.05-2.35-2.35-2.35Z"/>
          <path class="cls-2" d="m63.24,106.3c-1.25,0-2.27-1.02-2.27-2.27s1.02-2.27,2.27-2.27,2.27,1.02,2.27,2.27c0,1.25-1.02,2.27-2.27,2.27Zm0-4.03c-.97,0-1.76.79-1.76,1.76s.79,1.76,1.76,1.76,1.76-.79,1.76-1.76-.79-1.76-1.76-1.76Z"/>
        </g>
      </g>
    </g>
  </g>
</svg>